M48
INCH,LZ
;FILE_FORMAT=2:4
;TYPE=PLATED
;Layer: PTH_Through_Via
<<<<<<< HEAD
;EasyEDA v6.5.23, 2023-06-13 19:23:07
;6a93f7e6695a43e3aa9362025bb92aa7,5f8968b253fc4aed9fc2cb8881c97923,10
=======
;EasyEDA v6.5.23, 2023-06-13 15:15:08
;1e32025c192248609e1912bf01cfb9d3,5f8968b253fc4aed9fc2cb8881c97923,10
>>>>>>> main
;Gerber Generator version 0.2
;Holesize 1 = 0.0120 inch
T01C0.0120
%
G05
G90
T01
<<<<<<< HEAD
X013178Y011892
X010886Y017191
X005597Y011493
X028969Y014971
X032338Y014330
X034880Y007247
X034548Y006915
X028060Y015333
X003109Y005113
X005995Y015011
=======
X008998Y020488
X012526Y007769
X032991Y014348
X028134Y005136
X016150Y006581
X023611Y019161
X006935Y016907
X015247Y011844
X031599Y015788
X023455Y006648
X021229Y007551
X028019Y016829
X031367Y009502
>>>>>>> main
M30
