M48
INCH,LZ
;FILE_FORMAT=2:4
;TYPE=PLATED
;Layer: PTH_Through
;EasyEDA v6.5.23, 2023-06-13 15:15:08
;1e32025c192248609e1912bf01cfb9d3,5f8968b253fc4aed9fc2cb8881c97923,10
;Gerber Generator version 0.2
;Holesize 1 = 0.0280 inch
T01C0.0280
;Holesize 2 = 0.0280 inch
T02C0.0280
;Holesize 3 = 0.0350 inch
T03C0.0350
;Holesize 4 = 0.0350 inch
T04C0.0350
;Holesize 5 = 0.0350 inch
T05C0.0350
;Holesize 6 = 0.0360 inch
T06C0.0360
;Holesize 7 = 0.0380 inch
T07C0.0380
;Holesize 8 = 0.0390 inch
T08C0.0390
;Holesize 9 = 0.0400 inch
T09C0.0400
;Holesize 10 = 0.0470 inch
T10C0.0470
%
G05
G90
T01
X027998Y017550G85X028077Y017550
X027210Y017550G85X027289Y017550
X026423Y017550G85X026502Y017550
X025636Y017707G85X025636Y017393
X028864Y017707G85X028864Y017393
T02
X039300Y002950
X039300Y003950
T03
X039250Y007850
X039250Y006850
X039250Y005850
X002600Y000650
X001600Y000650
X000600Y000650
X011500Y020000
X010500Y020000
X009500Y020000
X008500Y020000
X007500Y020000
X024000Y020000
X025000Y020000
X027000Y020000
X028000Y020000
X029000Y020000
X030000Y020000
X036000Y001000
X035000Y001000
X034000Y001000
X033000Y001000
X032000Y001000
X031000Y001000
X030000Y001000
X029000Y001000
X022000Y001000
X023000Y001000
X024000Y001000
X025000Y001000
X026000Y001000
X027000Y001000
X006850Y000650
X007850Y000650
X008850Y000650
X009850Y000650
X038000Y008000
X037000Y008000
X038000Y009000
X037000Y009000
X038000Y010000
X037000Y010000
X038000Y011000
X037000Y011000
X038000Y012000
X037000Y012000
X038000Y013000
X037000Y013000
X038000Y014000
X037000Y014000
X038000Y015000
X037000Y015000
X038000Y016000
X037000Y016000
X038000Y017000
X037000Y017000
X038000Y003000
X037000Y003000
X002600Y020250
X001600Y020250
X000600Y020250
X002600Y019250
X001600Y019250
X000600Y019250
X002600Y018250
X001600Y018250
X000600Y018250
X002600Y011600
X001600Y011600
X000600Y011600
X002600Y010600
X001600Y010600
X000600Y010600
X002600Y009600
X001600Y009600
X000600Y009600
X002600Y008600
X001600Y008600
X000600Y008600
X002600Y007600
X001600Y007600
X000600Y007600
X002600Y006600
X001600Y006600
X000600Y006600
X002600Y005600
X001600Y005600
X000600Y005600
X013000Y001000
X012000Y001000
T04
X039350Y016500
X039350Y020500
X039350Y011650
X039350Y015650
X030800Y013250
X027800Y013250
X030800Y012300
X027800Y012300
X030650Y014200
X030650Y017200
X029600Y014200
X029600Y017200
X020500Y012300
X023500Y012300
T05
X011050Y010250
X012050Y010250
X023100Y014570G85X023100Y014571
X023100Y017129G85X023100Y017130
T06
X011150Y003650
X012150Y003650
X013150Y003650
X014150Y003650
X015150Y003650
X016150Y003650
X017150Y003650
X018150Y003650
X006900Y012400
X011000Y001000
X022000Y020000
T07
X027100Y015250
X026100Y015250
X026400Y013100
X025400Y013100
X003600Y019500
X003600Y020500
X004600Y019500
X004600Y020500
T08
X034359Y002624
X035540Y002624
X034950Y001876
T09
X020600Y010650
X020600Y009650
X020600Y008650
X020600Y007650
X020600Y006650
X020600Y005650
X020600Y004650
X020600Y003650
X020600Y002650
X032300Y013600
X033300Y012600
X033300Y013600
X034300Y012600
X034300Y013600
X035300Y012600
X035300Y013600
X009200Y002250
X004200Y004250
X004200Y005250
X004200Y006250
X004200Y008250
X004200Y007250
X009200Y008250
X009200Y007250
X009200Y010250
X009200Y009250
X009200Y005250
X009200Y006250
X009200Y003250
X009200Y004250
X018800Y010350
X013800Y012350
X013800Y013350
X013800Y014350
X013800Y016350
X013800Y015350
X018800Y016350
X018800Y015350
X018800Y018350
X018800Y017350
X018800Y013350
X018800Y014350
X018800Y011350
X018800Y012350
X004900Y012400
X005900Y012400
X007900Y012400
X008900Y012400
X009900Y012400
X010900Y012400
X011900Y012400
X038000Y020000
X038000Y019000
X038000Y018000
X038000Y017000
X038000Y016000
X038000Y015000
X038000Y014000
X038000Y013000
X038000Y012000
X038000Y011000
X038000Y010000
X038000Y009000
X038000Y008000
X038000Y007000
X038000Y006000
X038000Y005000
X038000Y004000
X038000Y003000
X037000Y003000
X037000Y004000
X037000Y005000
X037000Y006000
X037000Y007000
X037000Y008000
X037000Y009000
X037000Y010000
X037000Y011000
X037000Y012000
X037000Y013000
X037000Y014000
X037000Y015000
X037000Y016000
X037000Y017000
X037000Y018000
X037000Y019000
X037000Y020000
X035000Y001000
X036000Y001000
X025000Y010000
X025000Y011000
X025000Y012000
X026000Y010000
X026000Y011000
X026000Y012000
X011000Y001000
X012000Y001000
X013000Y001000
X014000Y001000
X015000Y001000
X016000Y001000
X017000Y001000
X018000Y001000
X020000Y001000
X021000Y001000
X022000Y001000
X023000Y001000
X024000Y001000
X025000Y001000
X026000Y001000
X027000Y001000
X029000Y001000
X030000Y001000
X031000Y001000
X032000Y001000
X033000Y001000
X034000Y001000
X034000Y020000
X033000Y020000
X032000Y020000
X031000Y020000
X030000Y020000
X029000Y020000
X028000Y020000
X027000Y020000
X025000Y020000
X024000Y020000
X023000Y020000
X021000Y020000
X020000Y020000
X019000Y020000
X018000Y020000
X016500Y020000
X015500Y020000
X014500Y020000
X013500Y020000
X012500Y020000
X011500Y020000
X010500Y020000
X009500Y020000
X008500Y020000
X007500Y020000
X008500Y018000
X007500Y018000
X006500Y018000
X008500Y019000
X007500Y019000
X006500Y019000
T10
X032301Y012600
M30
