M48
INCH,LZ
;FILE_FORMAT=2:4
;TYPE=PLATED
;Layer: PTH_Through
;EasyEDA v6.5.23, 2023-06-14 20:02:47
;cb88694a6a91491fa1ec1b2408a0e32a,5f8968b253fc4aed9fc2cb8881c97923,10
;Gerber Generator version 0.2
;Holesize 1 = 0.0350 inch
T01C0.0350
;Holesize 2 = 0.0360 inch
T02C0.0360
;Holesize 3 = 0.0400 inch
T03C0.0400
;Holesize 4 = 0.0700 inch
T04C0.0700
%
G05
G90
T01
X011600Y021350
X010600Y021350
X009600Y021350
X008600Y021350
X007600Y021350
X024100Y021350
X025100Y021350
X037100Y021350
X038100Y021350
X038100Y004350
X037100Y004350
X027100Y021350
X028100Y021350
X029100Y021350
X030100Y021350
X038100Y009350
X037100Y009350
X038100Y010350
X037100Y010350
X038100Y011350
X037100Y011350
X038100Y012350
X037100Y012350
X038100Y013350
X037100Y013350
X038100Y014350
X037100Y014350
X038100Y015350
X037100Y015350
X038100Y016350
X037100Y016350
X038100Y017350
X037100Y017350
X038100Y018350
X037100Y018350
X036100Y002350
X035100Y002350
X034100Y002350
X033100Y002350
X032100Y002350
X031100Y002350
X030100Y002350
X029100Y002350
X022100Y002350
X023100Y002350
X024100Y002350
X025100Y002350
X026100Y002350
X027100Y002350
X013100Y002350
X012100Y002350
X040335Y001063G85X040265Y001063
X040335Y001850G85X040265Y001850
X040335Y002637G85X040265Y002637
X040300Y003344G85X040300Y003584
X040300Y000116G85X040300Y000356
X038713Y022648G85X038713Y022652
X039500Y022648G85X039500Y022652
X040287Y022648G85X040287Y022652
X040994Y022650G85X041234Y022650
X037766Y022650G85X038006Y022650
T02
X011100Y002350
T03
X022450Y017850
X021450Y017850
X020450Y017850
X027500Y014500
X027500Y015500
X027500Y016500
X015500Y016500
X015500Y015500
X015500Y014500
X016500Y016500
X016500Y015500
X016500Y014500
X017500Y016500
X017500Y015500
X017500Y014500
X018500Y016500
X018500Y015500
X018500Y014500
X019500Y016500
X019500Y015500
X019500Y014500
X020500Y016500
X020500Y015500
X020500Y014500
X021500Y016500
X021500Y015500
X021500Y014500
X022500Y016500
X022500Y015500
X022500Y014500
X023500Y016500
X023500Y015500
X023500Y014500
X024500Y016500
X024500Y015500
X024500Y014500
X015410Y019600G85X015431Y019600
X017969Y019600G85X017990Y019600
X029500Y012500
X029500Y013500
X005950Y004400
X005950Y007400
X005950Y008400
X005950Y005400
X005950Y006400
X005950Y014550
X005950Y017550
X005950Y018550
X005950Y015550
X005950Y016550
X032200Y005550
X032200Y006550
X029900Y006400
X029900Y005400
X019550Y012450
X015550Y012450
X019550Y011500
X015550Y011500
X031950Y010500
X034950Y010500
X020100Y019600
X023100Y019600
X031950Y009500
X034950Y009500
X023750Y011500
X026750Y011500
X023750Y012550
X026750Y012550
X029900Y000700
X030900Y000700
X031900Y000700
X032900Y000700
X029850Y008600
X029850Y009600
X021100Y011500
X022100Y011500
X021100Y012500
X022100Y012500
X031250Y012790G85X031250Y012810
X034250Y013790G85X034250Y013810
X033250Y013790G85X033250Y013810
X032250Y013790G85X032250Y013810
X031250Y013790G85X031250Y013810
X032250Y012790G85X032250Y012810
X033250Y012790G85X033250Y012810
X034250Y012790G85X034250Y012810
X008100Y003650
X008100Y005650
X008100Y006650
X008100Y007650
X008100Y008650
X013100Y017200
X013100Y015200
X013100Y014200
X013100Y013200
X013100Y012200
X027900Y004250
X027900Y005250
X027900Y006250
X027900Y007250
X027900Y008250
X038100Y021350
X038100Y020350
X038100Y019350
X038100Y018350
X038100Y017350
X038100Y016350
X038100Y015350
X038100Y014350
X038100Y013350
X038100Y012350
X038100Y011350
X038100Y010350
X038100Y009350
X038100Y008350
X038100Y007350
X038100Y006350
X038100Y005350
X038100Y004350
X037100Y004350
X037100Y005350
X037100Y006350
X037100Y007350
X037100Y008350
X037100Y009350
X037100Y010350
X037100Y011350
X037100Y012350
X037100Y013350
X037100Y014350
X037100Y015350
X037100Y016350
X037100Y017350
X037100Y018350
X037100Y019350
X037100Y020350
X037100Y021350
X035100Y002350
X036100Y002350
X011100Y002350
X012100Y002350
X013100Y002350
X014100Y002350
X015100Y002350
X016100Y002350
X017100Y002350
X018100Y002350
X020100Y002350
X021100Y002350
X022100Y002350
X023100Y002350
X024100Y002350
X025100Y002350
X026100Y002350
X027100Y002350
X029100Y002350
X030100Y002350
X031100Y002350
X032100Y002350
X033100Y002350
X034100Y002350
X034100Y021350
X033100Y021350
X032100Y021350
X031100Y021350
X030100Y021350
X029100Y021350
X028100Y021350
X027100Y021350
X025100Y021350
X024100Y021350
X023100Y021350
X022100Y021350
X021100Y021350
X020100Y021350
X019100Y021350
X018100Y021350
X016600Y021350
X015600Y021350
X014600Y021350
X013600Y021350
X012600Y021350
X011600Y021350
X010600Y021350
X009600Y021350
X008600Y021350
X007600Y021350
T04
X001214Y001700G85X001249Y001700
X003182Y001700G85X003218Y001700
M30
