M48
INCH,LZ
;FILE_FORMAT=2:4
;TYPE=PLATED
;Layer: PTH_Through
;EasyEDA v6.5.23, 2023-05-31 23:13:28
;bcd344b045274ec9933b0a03571c91cc,5f8968b253fc4aed9fc2cb8881c97923,10
;Gerber Generator version 0.2
;Holesize 1 = 0.0280 inch
T01C0.0280
;Holesize 2 = 0.0350 inch
T02C0.0350
;Holesize 3 = 0.0350 inch
T03C0.0350
;Holesize 4 = 0.0350 inch
T04C0.0350
;Holesize 5 = 0.0360 inch
T05C0.0360
;Holesize 6 = 0.0400 inch
T06C0.0400
;Holesize 7 = 0.0430 inch
T07C0.0430
;Holesize 8 = 0.0470 inch
T08C0.0470
%
G05
G90
T01
X022250Y017000
X022250Y018000
T02
X026000Y018500
X026000Y017500
X026000Y016500
X024000Y018500
X024000Y017500
X024000Y016500
X028000Y018500
X028000Y017500
X028000Y016500
X029000Y018500
X029000Y017500
X029000Y016500
X030000Y018500
X030000Y017500
X030000Y016500
X031000Y018500
X031000Y017500
X031000Y016500
X032000Y018500
X032000Y017500
X032000Y016500
X033000Y018500
X033000Y017500
X033000Y016500
X034000Y018500
X034000Y017500
X034000Y016500
X035000Y018500
X035000Y017500
X035000Y016500
X036000Y018500
X036000Y017500
X036000Y016500
X037000Y018500
X037000Y017500
X037000Y016500
X038700Y016550
X038700Y017550
X038700Y018550
X038700Y019550
X014000Y001000
X015000Y001000
X016000Y001000
X012400Y020000
X013400Y020000
X014400Y020000
X015400Y020000
X016400Y020000
X018000Y020000
X019000Y020000
X020000Y020000
X021000Y020000
X022000Y020000
X023000Y020000
X024000Y001000
X034000Y020000
X033000Y020000
X032000Y020000
X031000Y020000
T03
X025100Y009550
X021100Y009550
X029100Y020100
X025100Y020100
T04
X026600Y009200
X026600Y008200
X026600Y007200
X026600Y006200
X026600Y005200
X026600Y004200
X026600Y003200
X026600Y002200
X026600Y001200
X036350Y020100
X035350Y020100
X029050Y011250
X030050Y011250
X026550Y011200
X027550Y011200
T05
X009000Y001250
X008000Y001250
X007000Y001250
X006000Y001250
X005000Y001250
X004000Y001250
X003000Y001250
X002000Y001250
X012500Y008000
X012500Y007000
X012500Y006000
X012500Y005000
X012500Y004000
X012500Y003000
X012500Y002000
X012500Y001000
X020000Y008000
X020000Y007000
X020000Y006000
X020000Y005000
X020000Y004000
X020000Y003000
X020000Y002000
X020000Y001000
X038000Y003000
X038000Y004000
X037000Y003000
X037000Y004000
T06
X020000Y018000
X018000Y013000
X017000Y013000
X016000Y013000
X014000Y013000
X015000Y013000
X014000Y018000
X015000Y018000
X012000Y018000
X013000Y018000
X017000Y018000
X016000Y018000
X019000Y018000
X018000Y018000
X001500Y014500
X003500Y019500
X004500Y019500
X005500Y019500
X007500Y019500
X006500Y019500
X007500Y014500
X006500Y014500
X009500Y014500
X008500Y014500
X004500Y014500
X005500Y014500
X002500Y014500
X003500Y014500
T07
X038000Y006000
X038000Y005000
X037000Y006000
X037000Y005000
T08
X038500Y011501
X037500Y011500
X038500Y012500
X037500Y012500
X038500Y013500
X037500Y013500
X038500Y014500
X037500Y014500
M30
