G04 Layer: BottomSolderMaskLayer*
G04 EasyEDA v6.5.23, 2023-05-31 23:13:28*
G04 bcd344b045274ec9933b0a03571c91cc,5f8968b253fc4aed9fc2cb8881c97923,10*
G04 Gerber Generator version 0.2*
G04 Scale: 100 percent, Rotated: No, Reflected: No *
G04 Dimensions in inches *
G04 leading zeros omitted , absolute positions ,3 integer and 6 decimal *
%FSLAX36Y36*%
%MOIN*%

%AMMACRO1*1,1,$1,$2,$3*1,1,$1,$4,$5*1,1,$1,0-$2,0-$3*1,1,$1,0-$4,0-$5*20,1,$1,$2,$3,$4,$5,0*20,1,$1,$4,$5,0-$2,0-$3,0*20,1,$1,0-$2,0-$3,0-$4,0-$5,0*20,1,$1,0-$4,0-$5,$2,$3,0*4,1,4,$2,$3,$4,$5,0-$2,0-$3,0-$4,0-$5,$2,$3,0*%
%ADD10C,0.0660*%
%ADD11R,0.0660X0.0660*%
%ADD12C,0.0510*%
%ADD13C,0.0680*%
%ADD14R,0.0680X0.0680*%
%ADD15C,0.0867*%
%ADD16C,0.0591*%
%ADD17MACRO1,0.004X-0.0354X-0.0354X-0.0354X0.0354*%
%ADD18C,0.0749*%
%ADD19C,0.0780*%
%ADD20MACRO1,0.004X0.037X0.037X0.037X-0.037*%
%ADD21R,0.0780X0.0780*%
%ADD22MACRO1,0.008X0.03X0.03X0.03X-0.03*%
%ADD23C,0.0640*%
%ADD24MACRO1,0.004X0.031X0.031X-0.031X0.031*%
%ADD25MACRO1,0.004X-0.031X0.0335X-0.031X-0.0335*%
%ADD26C,0.0709*%
%ADD27MACRO1,0.004X0.03X0.03X-0.03X0.03*%

%LPD*%
D10*
G01*
X2600000Y1850000D03*
G01*
X2600000Y1750000D03*
D11*
G01*
X2600000Y1650000D03*
D10*
G01*
X2400000Y1850000D03*
G01*
X2400000Y1750000D03*
D11*
G01*
X2400000Y1650000D03*
D10*
G01*
X2800000Y1850000D03*
G01*
X2800000Y1750000D03*
D11*
G01*
X2800000Y1650000D03*
D10*
G01*
X2900000Y1850000D03*
G01*
X2900000Y1750000D03*
D11*
G01*
X2900000Y1650000D03*
D10*
G01*
X3000000Y1850000D03*
G01*
X3000000Y1750000D03*
D11*
G01*
X3000000Y1650000D03*
D10*
G01*
X3100000Y1850000D03*
G01*
X3100000Y1750000D03*
D11*
G01*
X3100000Y1650000D03*
D10*
G01*
X3200000Y1850000D03*
G01*
X3200000Y1750000D03*
D11*
G01*
X3200000Y1650000D03*
D10*
G01*
X3300000Y1850000D03*
G01*
X3300000Y1750000D03*
D11*
G01*
X3300000Y1650000D03*
D10*
G01*
X3400000Y1850000D03*
G01*
X3400000Y1750000D03*
D11*
G01*
X3400000Y1650000D03*
D10*
G01*
X3500000Y1850000D03*
G01*
X3500000Y1750000D03*
D11*
G01*
X3500000Y1650000D03*
D10*
G01*
X3600000Y1850000D03*
G01*
X3600000Y1750000D03*
D11*
G01*
X3600000Y1650000D03*
D10*
G01*
X3700000Y1850000D03*
G01*
X3700000Y1750000D03*
D11*
G01*
X3700000Y1650000D03*
D12*
G01*
X2225000Y1700000D03*
G01*
X2225000Y1800000D03*
D13*
G01*
X900000Y125000D03*
G01*
X800000Y125000D03*
G01*
X700000Y125000D03*
G01*
X600000Y125000D03*
G01*
X500000Y125000D03*
D14*
G01*
X400000Y125000D03*
D13*
G01*
X300000Y125000D03*
G01*
X200000Y125000D03*
D15*
G01*
X2660000Y920000D03*
G01*
X2660000Y820000D03*
G01*
X2660000Y720000D03*
G01*
X2660000Y620000D03*
G01*
X2660000Y520000D03*
G01*
X2660000Y420000D03*
G01*
X2660000Y320000D03*
G01*
X2660000Y220000D03*
G01*
X2660000Y120000D03*
D11*
G01*
X3870000Y1655000D03*
D10*
G01*
X3870000Y1755000D03*
G01*
X3870000Y1855000D03*
G01*
X3870000Y1955000D03*
D16*
G01*
X3635000Y2010000D03*
G01*
X3535000Y2010000D03*
G01*
X2905000Y1125000D03*
G01*
X3005000Y1125000D03*
G01*
X2655000Y1120000D03*
G01*
X2755000Y1120000D03*
D17*
G01*
X3850000Y1150103D03*
D18*
G01*
X3750000Y1150000D03*
G01*
X3850000Y1250000D03*
G01*
X3750000Y1250000D03*
G01*
X3850000Y1350000D03*
G01*
X3750000Y1350000D03*
G01*
X3850000Y1450000D03*
G01*
X3750000Y1450000D03*
D19*
G01*
X2510000Y955000D03*
G01*
X2110000Y955000D03*
G01*
X2910000Y2010000D03*
G01*
X2510000Y2010000D03*
G01*
X2000000Y1800000D03*
G01*
X1800000Y1300000D03*
G01*
X1700000Y1300000D03*
G01*
X1600000Y1300000D03*
G01*
X1400000Y1300000D03*
G01*
X1500000Y1300000D03*
G01*
X1400000Y1800000D03*
G01*
X1500000Y1800000D03*
G01*
X1200000Y1800000D03*
G01*
X1300000Y1800000D03*
G01*
X1700000Y1800000D03*
G01*
X1600000Y1800000D03*
G01*
X1900000Y1800000D03*
D20*
G01*
X1800000Y1800000D03*
D19*
G01*
X150000Y1450000D03*
G01*
X350000Y1950000D03*
G01*
X450000Y1950000D03*
G01*
X550000Y1950000D03*
G01*
X750000Y1950000D03*
G01*
X650000Y1950000D03*
G01*
X750000Y1450000D03*
G01*
X650000Y1450000D03*
G01*
X950000Y1450000D03*
G01*
X850000Y1450000D03*
G01*
X450000Y1450000D03*
G01*
X550000Y1450000D03*
G01*
X250000Y1450000D03*
D21*
G01*
X350000Y1450000D03*
D22*
G01*
X1250000Y800000D03*
D23*
G01*
X1250000Y700000D03*
G01*
X1250000Y600000D03*
G01*
X1250000Y500000D03*
G01*
X1250000Y400000D03*
G01*
X1250000Y300000D03*
G01*
X1250000Y200000D03*
G01*
X1250000Y100000D03*
D22*
G01*
X2000000Y800000D03*
D23*
G01*
X2000000Y700000D03*
G01*
X2000000Y600000D03*
G01*
X2000000Y500000D03*
G01*
X2000000Y400000D03*
G01*
X2000000Y300000D03*
G01*
X2000000Y200000D03*
G01*
X2000000Y100000D03*
D10*
G01*
X1400000Y100000D03*
G01*
X1500000Y100000D03*
D24*
G01*
X1600000Y100000D03*
D10*
G01*
X1240000Y2000000D03*
G01*
X1340000Y2000000D03*
G01*
X1440000Y2000000D03*
G01*
X1540000Y2000000D03*
D24*
G01*
X1640000Y2000000D03*
D10*
G01*
X1800000Y2000000D03*
G01*
X1900000Y2000000D03*
G01*
X2000000Y2000000D03*
G01*
X2100000Y2000000D03*
G01*
X2200000Y2000000D03*
D24*
G01*
X2300000Y2000000D03*
D25*
G01*
X3800000Y599999D03*
D26*
G01*
X3800000Y500000D03*
D25*
G01*
X3700000Y599999D03*
D26*
G01*
X3700000Y500000D03*
D11*
G01*
X2400000Y100000D03*
D24*
G01*
X3400000Y2000000D03*
D10*
G01*
X3300000Y2000000D03*
G01*
X3200000Y2000000D03*
G01*
X3100000Y2000000D03*
D27*
G01*
X3800000Y300000D03*
D23*
G01*
X3800000Y400000D03*
G01*
X3700000Y300000D03*
G01*
X3700000Y400000D03*
M02*
