G04 Layer: BottomSilkscreenLayer*
G04 EasyEDA v6.5.23, 2023-05-31 23:13:28*
G04 bcd344b045274ec9933b0a03571c91cc,5f8968b253fc4aed9fc2cb8881c97923,10*
G04 Gerber Generator version 0.2*
G04 Scale: 100 percent, Rotated: No, Reflected: No *
G04 Dimensions in inches *
G04 leading zeros omitted , absolute positions ,3 integer and 6 decimal *
%FSLAX36Y36*%
%MOIN*%

%ADD10C,0.0060*%
%ADD11C,0.0080*%
%ADD12C,0.0080*%
%ADD13C,0.0100*%

%LPD*%
D10*
X1489499Y205399D02*
G01*
X1489499Y172699D01*
X1491599Y166500D01*
X1493599Y164499D01*
X1497700Y162500D01*
X1501800Y162500D01*
X1505900Y164499D01*
X1508000Y166500D01*
X1510000Y172699D01*
X1510000Y176799D01*
X1465799Y205399D02*
G01*
X1471999Y203400D01*
X1473999Y199299D01*
X1473999Y195199D01*
X1471999Y191100D01*
X1467899Y189000D01*
X1459700Y186999D01*
X1453500Y185000D01*
X1449499Y180900D01*
X1447399Y176799D01*
X1447399Y170599D01*
X1449499Y166500D01*
X1451499Y164499D01*
X1457600Y162500D01*
X1465799Y162500D01*
X1471999Y164499D01*
X1473999Y166500D01*
X1476000Y170599D01*
X1476000Y176799D01*
X1473999Y180900D01*
X1469899Y185000D01*
X1463800Y186999D01*
X1455600Y189000D01*
X1451499Y191100D01*
X1449499Y195199D01*
X1449499Y199299D01*
X1451499Y203400D01*
X1457600Y205399D01*
X1465799Y205399D01*
X1429499Y2105399D02*
G01*
X1429499Y2072699D01*
X1431599Y2066500D01*
X1433599Y2064499D01*
X1437700Y2062500D01*
X1441800Y2062500D01*
X1445900Y2064499D01*
X1448000Y2066500D01*
X1450000Y2072699D01*
X1450000Y2076799D01*
X1416000Y2097199D02*
G01*
X1411999Y2099299D01*
X1405799Y2105399D01*
X1405799Y2062500D01*
X2039499Y2105399D02*
G01*
X2039499Y2072699D01*
X2041599Y2066500D01*
X2043599Y2064499D01*
X2047700Y2062500D01*
X2051800Y2062500D01*
X2055900Y2064499D01*
X2058000Y2066500D01*
X2060000Y2072699D01*
X2060000Y2076799D01*
X2023999Y2095199D02*
G01*
X2023999Y2097199D01*
X2021999Y2101300D01*
X2019899Y2103400D01*
X2015799Y2105399D01*
X2007600Y2105399D01*
X2003500Y2103400D01*
X2001499Y2101300D01*
X1999499Y2097199D01*
X1999499Y2093099D01*
X2001499Y2089000D01*
X2005600Y2082899D01*
X2026000Y2062500D01*
X1997399Y2062500D01*
X3699600Y534499D02*
G01*
X3732299Y534499D01*
X3738500Y536599D01*
X3740500Y538600D01*
X3742500Y542699D01*
X3742500Y546799D01*
X3740500Y550900D01*
X3738500Y553000D01*
X3732299Y555000D01*
X3728199Y555000D01*
X3705699Y496500D02*
G01*
X3701599Y498499D01*
X3699600Y504699D01*
X3699600Y508800D01*
X3701599Y514899D01*
X3707799Y519000D01*
X3718000Y520999D01*
X3728199Y520999D01*
X3736400Y519000D01*
X3740500Y514899D01*
X3742500Y508800D01*
X3742500Y506700D01*
X3740500Y500599D01*
X3736400Y496500D01*
X3730299Y494499D01*
X3728199Y494499D01*
X3722100Y496500D01*
X3718000Y500599D01*
X3716000Y506700D01*
X3716000Y508800D01*
X3718000Y514899D01*
X3722100Y519000D01*
X3728199Y520999D01*
X3599600Y534499D02*
G01*
X3632299Y534499D01*
X3638500Y536599D01*
X3640500Y538600D01*
X3642500Y542699D01*
X3642500Y546799D01*
X3640500Y550900D01*
X3638500Y553000D01*
X3632299Y555000D01*
X3628199Y555000D01*
X3599600Y520999D02*
G01*
X3642500Y520999D01*
X3599600Y520999D02*
G01*
X3599600Y502600D01*
X3601599Y496500D01*
X3603699Y494499D01*
X3607799Y492399D01*
X3611899Y492399D01*
X3616000Y494499D01*
X3618000Y496500D01*
X3620000Y502600D01*
X3620000Y520999D01*
X3620000Y506700D02*
G01*
X3642500Y492399D01*
X3599600Y478899D02*
G01*
X3642500Y478899D01*
X3599600Y478899D02*
G01*
X3599600Y452300D01*
X3620000Y478899D02*
G01*
X3620000Y462500D01*
X3607799Y438800D02*
G01*
X3605699Y434699D01*
X3599600Y428600D01*
X3642500Y428600D01*
X2379499Y201399D02*
G01*
X2379499Y168699D01*
X2381599Y162500D01*
X2383599Y160500D01*
X2387700Y158499D01*
X2391800Y158499D01*
X2395900Y160500D01*
X2398000Y162500D01*
X2400000Y168699D01*
X2400000Y172800D01*
X2337399Y201399D02*
G01*
X2357899Y158499D01*
X2366000Y201399D02*
G01*
X2337399Y201399D01*
X3239499Y2105399D02*
G01*
X3239499Y2072699D01*
X3241599Y2066500D01*
X3243599Y2064499D01*
X3247700Y2062500D01*
X3251800Y2062500D01*
X3255900Y2064499D01*
X3258000Y2066500D01*
X3260000Y2072699D01*
X3260000Y2076799D01*
X3195399Y2095199D02*
G01*
X3197399Y2099299D01*
X3201499Y2103400D01*
X3205600Y2105399D01*
X3213800Y2105399D01*
X3217899Y2103400D01*
X3221999Y2099299D01*
X3223999Y2095199D01*
X3226000Y2089000D01*
X3226000Y2078800D01*
X3223999Y2072699D01*
X3221999Y2068600D01*
X3217899Y2064499D01*
X3213800Y2062500D01*
X3205600Y2062500D01*
X3201499Y2064499D01*
X3197399Y2068600D01*
X3195399Y2072699D01*
X3195399Y2078800D01*
X3205600Y2078800D02*
G01*
X3195399Y2078800D01*
X3739499Y515399D02*
G01*
X3739499Y482699D01*
X3741599Y476500D01*
X3743599Y474499D01*
X3747700Y472500D01*
X3751800Y472500D01*
X3755900Y474499D01*
X3758000Y476500D01*
X3760000Y482699D01*
X3760000Y486799D01*
X3726000Y515399D02*
G01*
X3726000Y472500D01*
X3726000Y515399D02*
G01*
X3707600Y515399D01*
X3701499Y513400D01*
X3699499Y511300D01*
X3697399Y507199D01*
X3697399Y503099D01*
X3699499Y499000D01*
X3701499Y496999D01*
X3707600Y495000D01*
X3726000Y495000D01*
X3711700Y495000D02*
G01*
X3697399Y472500D01*
X3683900Y515399D02*
G01*
X3683900Y472500D01*
X3683900Y515399D02*
G01*
X3657299Y515399D01*
X3683900Y495000D02*
G01*
X3667500Y495000D01*
X3643800Y458099D02*
G01*
X3606999Y458099D01*
X3564899Y509299D02*
G01*
X3568999Y513400D01*
X3575100Y515399D01*
X3583299Y515399D01*
X3589399Y513400D01*
X3593500Y509299D01*
X3593500Y505199D01*
X3591499Y501100D01*
X3589399Y499000D01*
X3585299Y496999D01*
X3573000Y492899D01*
X3568999Y490900D01*
X3566899Y488800D01*
X3564899Y484699D01*
X3564899Y478600D01*
X3568999Y474499D01*
X3575100Y472500D01*
X3583299Y472500D01*
X3589399Y474499D01*
X3593500Y478600D01*
X3551400Y515399D02*
G01*
X3551400Y472500D01*
X3551400Y515399D02*
G01*
X3536999Y515399D01*
X3530900Y513400D01*
X3526800Y509299D01*
X3524799Y505199D01*
X3522700Y499000D01*
X3522700Y488800D01*
X3524799Y482699D01*
X3526800Y478600D01*
X3530900Y474499D01*
X3536999Y472500D01*
X3551400Y472500D01*
D11*
X1575000Y150000D02*
G01*
X1650000Y150000D01*
X1650000Y50000D01*
X1350000Y50000D01*
X1350000Y150000D01*
D12*
X1350000Y150000D02*
G01*
X1575000Y150000D01*
D11*
X1615000Y2050000D02*
G01*
X1690000Y2050000D01*
X1690000Y1950000D01*
X1190000Y1950000D01*
X1190000Y2050000D01*
D12*
X1190000Y2050000D02*
G01*
X1615000Y2050000D01*
D11*
X2275000Y2050000D02*
G01*
X2350000Y2050000D01*
X2350000Y1950000D01*
X1750000Y1950000D01*
X1750000Y2050000D01*
D12*
X1750000Y2050000D02*
G01*
X2275000Y2050000D01*
X3750000Y450000D02*
G01*
X3750000Y575000D01*
D11*
X3750000Y450000D02*
G01*
X3850000Y450000D01*
X3850000Y650000D01*
X3750000Y650000D01*
X3750000Y575000D01*
D12*
X3650000Y450000D02*
G01*
X3650000Y575000D01*
D11*
X3650000Y450000D02*
G01*
X3750000Y450000D01*
X3750000Y650000D01*
X3650000Y650000D01*
X3650000Y575000D01*
X2350000Y50000D02*
G01*
X2450000Y50000D01*
X2450000Y150000D01*
X2350000Y150000D01*
X2350000Y75000D01*
D12*
X2350000Y50000D02*
G01*
X2350000Y75000D01*
D11*
X3050000Y2050000D02*
G01*
X3050000Y1950000D01*
X3450000Y1950000D01*
X3450000Y2050000D01*
X3375000Y2050000D01*
D12*
X3050000Y2050000D02*
G01*
X3375000Y2050000D01*
D13*
X3850000Y450000D02*
G01*
X3650000Y450000D01*
X3650000Y250000D01*
X3850000Y250000D01*
X3850000Y450000D01*
M02*
