G04 Layer: TopLayer*
G04 EasyEDA v6.5.23, 2023-06-14 20:02:47*
G04 cb88694a6a91491fa1ec1b2408a0e32a,5f8968b253fc4aed9fc2cb8881c97923,10*
G04 Gerber Generator version 0.2*
G04 Scale: 100 percent, Rotated: No, Reflected: No *
G04 Dimensions in inches *
G04 leading zeros omitted , absolute positions ,3 integer and 6 decimal *
%FSLAX36Y36*%
%MOIN*%

%ADD10C,0.0100*%
%ADD11R,0.0800X0.0800*%
%ADD12C,0.0800*%
%ADD13C,0.0620*%
%ADD14R,0.0620X0.0620*%
%ADD15C,0.0700*%
%ADD16C,0.1400*%
%ADD17C,0.0240*%
%ADD18C,0.0200*%

%LPD*%
D10*
X2750000Y1650000D02*
G01*
X2500900Y1899099D01*
X1723670Y1899099D01*
X1581229Y2041540D01*
X1353459Y2041540D01*
X1260000Y2135000D01*
X2010000Y1960000D02*
G01*
X1797950Y1960000D01*
X3495000Y950000D02*
G01*
X3300000Y950000D01*
X2990000Y640000D01*
X2790000Y625000D02*
G01*
X2905000Y625000D01*
X2990000Y540000D01*
X2310000Y1960000D02*
G01*
X2335000Y1935000D01*
X3710000Y1935000D01*
X2110000Y1150000D02*
G01*
X2164229Y1095770D01*
X2320770Y1095770D01*
X2375000Y1150000D01*
X2110000Y1250000D02*
G01*
X2161340Y1301340D01*
X2328660Y1301340D01*
X2375000Y1255000D01*
X320000Y170000D02*
G01*
X461120Y311120D01*
X3982569Y311120D01*
X4030000Y263690D01*
X3710000Y835000D02*
G01*
X3610709Y934290D01*
X3610709Y1006999D01*
X3467709Y1150000D01*
X3355000Y1150000D01*
X3225000Y1280000D01*
X595000Y640000D02*
G01*
X646010Y640000D01*
X3125000Y1280000D02*
G01*
X2980000Y1280000D01*
X2950000Y1250000D01*
X646010Y1655000D02*
G01*
X881009Y1420000D01*
X1310000Y1420000D01*
X595000Y1655000D02*
G01*
X646010Y1655000D01*
X646010Y640000D02*
G01*
X733989Y640000D01*
X758989Y665000D01*
X810000Y665000D02*
G01*
X758989Y665000D01*
X1542049Y1960000D02*
G01*
X1647389Y1854659D01*
X2175339Y1854659D01*
X2245000Y1785000D01*
X2350000Y1450000D02*
G01*
X2250000Y1450000D01*
X2250000Y1450000D02*
G01*
X2150000Y1450000D01*
X2150000Y1450000D02*
G01*
X2050000Y1450000D01*
X2050000Y1450000D02*
G01*
X1950000Y1450000D01*
X1950000Y1450000D02*
G01*
X1850000Y1450000D01*
X1850000Y1450000D02*
G01*
X1750000Y1450000D01*
X1650000Y1450000D02*
G01*
X1550000Y1450000D01*
X2350000Y1450000D02*
G01*
X2450000Y1450000D01*
X2450000Y1450000D02*
G01*
X2521840Y1450000D01*
X2521840Y1450000D02*
G01*
X2750000Y1450000D01*
X2521840Y1450000D02*
G01*
X2521840Y1685970D01*
X2422809Y1785000D01*
X2245000Y1785000D01*
X1310000Y1420000D02*
G01*
X1361009Y1420000D01*
X1734849Y1450000D02*
G01*
X1734849Y1346439D01*
X1717770Y1329360D01*
X1451649Y1329360D01*
X1361009Y1420000D01*
X1750000Y1450000D02*
G01*
X1734849Y1450000D01*
X1734849Y1450000D02*
G01*
X1650000Y1450000D01*
X1510000Y235000D02*
G01*
X1675000Y70000D01*
X2990000Y70000D01*
X2350000Y1550000D02*
G01*
X2250000Y1550000D01*
X2250000Y1550000D02*
G01*
X2150000Y1550000D01*
X2150000Y1550000D02*
G01*
X2050000Y1550000D01*
X2050000Y1550000D02*
G01*
X1950000Y1550000D01*
X1950000Y1550000D02*
G01*
X1850000Y1550000D01*
X1850000Y1550000D02*
G01*
X1750000Y1550000D01*
X1750000Y1550000D02*
G01*
X1650000Y1550000D01*
X1650000Y1550000D02*
G01*
X1550000Y1550000D01*
X2350000Y1550000D02*
G01*
X2450000Y1550000D01*
X2450000Y1550000D02*
G01*
X2501170Y1601170D01*
X2501170Y1678040D01*
X2456629Y1722579D01*
X2207420Y1722579D01*
X2145000Y1785000D01*
X2045000Y1785000D02*
G01*
X1612460Y1785000D01*
X1498919Y1671460D01*
X1498919Y1401830D01*
X1544870Y1355880D01*
X1710860Y1355880D01*
X1310000Y1520000D02*
G01*
X830000Y1520000D01*
X595000Y1755000D01*
X595000Y740000D02*
G01*
X596930Y738069D01*
X694920Y738069D01*
X595000Y840000D02*
G01*
X543099Y788099D01*
X543099Y416329D01*
X594430Y365000D01*
X810000Y365000D01*
X608699Y1841309D02*
G01*
X541289Y1773899D01*
X541289Y893710D01*
X595000Y840000D01*
X595000Y1855000D02*
G01*
X608699Y1841309D01*
X608699Y1841309D02*
G01*
X730000Y1720000D01*
X1310000Y1720000D01*
X3410000Y2135000D02*
G01*
X3253630Y1978629D01*
X3001300Y1978629D01*
X3495000Y1050000D02*
G01*
X3547960Y997040D01*
X3547960Y924169D01*
X3507629Y883840D01*
X3369510Y883840D01*
X3059970Y574299D01*
X3059970Y531689D01*
X3016589Y488310D01*
X2826689Y488310D01*
X2790000Y525000D01*
X2675000Y1150000D02*
G01*
X3091689Y1566689D01*
X3577349Y1566689D01*
X2675000Y1255000D02*
G01*
X3019880Y1599879D01*
X3610169Y1599879D01*
X3090000Y70000D02*
G01*
X3157240Y137240D01*
X3902790Y137240D01*
X1810000Y235000D02*
G01*
X1884669Y160329D01*
X3926400Y160329D01*
X3810000Y835000D02*
G01*
X3864920Y780079D01*
X3864920Y392010D01*
X3852489Y379580D01*
X3279420Y379580D01*
X3325000Y1380000D02*
G01*
X3425630Y1480630D01*
X3651499Y1480630D01*
X3710000Y535000D02*
G01*
X3441310Y535000D01*
X3289049Y687260D01*
X3710000Y635000D02*
G01*
X3561069Y635000D01*
X3398450Y797620D01*
X3710000Y735000D02*
G01*
X3522039Y735000D01*
X3428959Y828079D01*
X3125000Y1380000D02*
G01*
X2980000Y1380000D01*
X2950000Y1350000D01*
X2790000Y825000D02*
G01*
X1705000Y825000D01*
X1310000Y1220000D01*
D11*
G01*
X2245000Y1785000D03*
D12*
G01*
X2145000Y1785000D03*
G01*
X2045000Y1785000D03*
D11*
G01*
X2750000Y1450000D03*
D12*
G01*
X2750000Y1550000D03*
G01*
X2750000Y1650000D03*
G01*
X1550000Y1650000D03*
G01*
X1550000Y1550000D03*
D11*
G01*
X1550000Y1450000D03*
D12*
G01*
X1650000Y1650000D03*
G01*
X1650000Y1550000D03*
D11*
G01*
X1650000Y1450000D03*
D12*
G01*
X1750000Y1650000D03*
G01*
X1750000Y1550000D03*
D11*
G01*
X1750000Y1450000D03*
D12*
G01*
X1850000Y1650000D03*
G01*
X1850000Y1550000D03*
D11*
G01*
X1850000Y1450000D03*
D12*
G01*
X1950000Y1650000D03*
G01*
X1950000Y1550000D03*
D11*
G01*
X1950000Y1450000D03*
D12*
G01*
X2050000Y1650000D03*
G01*
X2050000Y1550000D03*
D11*
G01*
X2050000Y1450000D03*
D12*
G01*
X2150000Y1650000D03*
G01*
X2150000Y1550000D03*
D11*
G01*
X2150000Y1450000D03*
D12*
G01*
X2250000Y1650000D03*
G01*
X2250000Y1550000D03*
D11*
G01*
X2250000Y1450000D03*
D12*
G01*
X2350000Y1650000D03*
G01*
X2350000Y1550000D03*
D11*
G01*
X2350000Y1450000D03*
D12*
G01*
X2450000Y1650000D03*
G01*
X2450000Y1550000D03*
D11*
G01*
X2450000Y1450000D03*
D12*
G01*
X1542049Y1960000D03*
G01*
X1797950Y1960000D03*
G01*
X2950000Y1250000D03*
G01*
X2950000Y1350000D03*
D13*
G01*
X1160000Y2135000D03*
D14*
G01*
X1060000Y2135000D03*
D13*
G01*
X960000Y2135000D03*
G01*
X860000Y2135000D03*
G01*
X760000Y2135000D03*
G01*
X2410000Y2135000D03*
G01*
X2510000Y2135000D03*
G01*
X3710000Y2135000D03*
G01*
X3810000Y2135000D03*
D14*
G01*
X3810000Y435000D03*
G01*
X3710000Y435000D03*
D13*
G01*
X2710000Y2135000D03*
G01*
X2810000Y2135000D03*
G01*
X2910000Y2135000D03*
G01*
X3010000Y2135000D03*
G01*
X3810000Y935000D03*
G01*
X3710000Y935000D03*
G01*
X3810000Y1035000D03*
G01*
X3710000Y1035000D03*
G01*
X3810000Y1135000D03*
G01*
X3710000Y1135000D03*
G01*
X3810000Y1235000D03*
G01*
X3710000Y1235000D03*
G01*
X3810000Y1335000D03*
G01*
X3710000Y1335000D03*
G01*
X3810000Y1435000D03*
G01*
X3710000Y1435000D03*
G01*
X3810000Y1535000D03*
G01*
X3710000Y1535000D03*
G01*
X3810000Y1635000D03*
G01*
X3710000Y1635000D03*
G01*
X3810000Y1735000D03*
G01*
X3710000Y1735000D03*
G01*
X3810000Y1835000D03*
G01*
X3710000Y1835000D03*
G01*
X3610000Y235000D03*
G01*
X3510000Y235000D03*
G01*
X3410000Y235000D03*
G01*
X3310000Y235000D03*
G01*
X3210000Y235000D03*
G01*
X3110000Y235000D03*
G01*
X3010000Y235000D03*
G01*
X2910000Y235000D03*
G01*
X2210000Y235000D03*
G01*
X2310000Y235000D03*
G01*
X2410000Y235000D03*
G01*
X2510000Y235000D03*
G01*
X2610000Y235000D03*
G01*
X2710000Y235000D03*
G01*
X1310000Y235000D03*
G01*
X1210000Y235000D03*
G01*
X1110000Y235000D03*
D12*
G01*
X595000Y440000D03*
G01*
X595000Y740000D03*
G01*
X595000Y840000D03*
G01*
X595000Y540000D03*
D11*
G01*
X595000Y640000D03*
D12*
G01*
X595000Y1455000D03*
G01*
X595000Y1755000D03*
G01*
X595000Y1855000D03*
G01*
X595000Y1555000D03*
D11*
G01*
X595000Y1655000D03*
D12*
G01*
X3220000Y555000D03*
G01*
X3220000Y655000D03*
G01*
X2990000Y640000D03*
G01*
X2990000Y540000D03*
G01*
X1955000Y1245000D03*
G01*
X1555000Y1245000D03*
G01*
X1955000Y1150000D03*
G01*
X1555000Y1150000D03*
G01*
X3195000Y1050000D03*
G01*
X3495000Y1050000D03*
G01*
X2010000Y1960000D03*
G01*
X2310000Y1960000D03*
G01*
X3195000Y950000D03*
G01*
X3495000Y950000D03*
G01*
X2375000Y1150000D03*
G01*
X2675000Y1150000D03*
G01*
X2375000Y1255000D03*
G01*
X2675000Y1255000D03*
G01*
X2990000Y70000D03*
G01*
X3090000Y70000D03*
G01*
X3190000Y70000D03*
D11*
G01*
X3290000Y70000D03*
D15*
G01*
X4030000Y106314D03*
G01*
X4030000Y185014D03*
G01*
X4030000Y263694D03*
G01*
X4030000Y346394D03*
G01*
X4030000Y23604D03*
G01*
X3871314Y2265000D03*
G01*
X3950014Y2265000D03*
G01*
X4028693Y2265000D03*
G01*
X4111394Y2265000D03*
G01*
X3788603Y2265000D03*
D16*
G01*
X123200Y170000D03*
G01*
X320000Y170000D03*
D12*
G01*
X2985000Y860000D03*
G01*
X2985000Y960000D03*
G01*
X2110000Y1150000D03*
G01*
X2210000Y1150000D03*
G01*
X2110000Y1250000D03*
G01*
X2210000Y1250000D03*
D11*
G01*
X3125000Y1280000D03*
D12*
G01*
X3425000Y1380000D03*
G01*
X3325000Y1380000D03*
G01*
X3225000Y1380000D03*
G01*
X3125000Y1380000D03*
G01*
X3225000Y1280000D03*
G01*
X3325000Y1280000D03*
G01*
X3425000Y1280000D03*
G01*
X810000Y365000D03*
G01*
X810000Y565000D03*
D11*
G01*
X810000Y665000D03*
D12*
G01*
X810000Y765000D03*
G01*
X810000Y865000D03*
G01*
X1310000Y1720000D03*
G01*
X1310000Y1520000D03*
D11*
G01*
X1310000Y1420000D03*
D12*
G01*
X1310000Y1320000D03*
G01*
X1310000Y1220000D03*
G01*
X2790000Y425000D03*
G01*
X2790000Y525000D03*
G01*
X2790000Y625000D03*
G01*
X2790000Y725000D03*
G01*
X2790000Y825000D03*
G01*
X3810000Y2135000D03*
G01*
X3810000Y2035000D03*
G01*
X3810000Y1935000D03*
G01*
X3810000Y1835000D03*
G01*
X3810000Y1735000D03*
G01*
X3810000Y1635000D03*
G01*
X3810000Y1535000D03*
G01*
X3810000Y1435000D03*
G01*
X3810000Y1335000D03*
G01*
X3810000Y1235000D03*
G01*
X3810000Y1135000D03*
G01*
X3810000Y1035000D03*
G01*
X3810000Y935000D03*
G01*
X3810000Y835000D03*
G01*
X3810000Y735000D03*
G01*
X3810000Y635000D03*
G01*
X3810000Y535000D03*
D11*
G01*
X3810000Y435000D03*
G01*
X3710000Y435000D03*
D12*
G01*
X3710000Y535000D03*
G01*
X3710000Y635000D03*
G01*
X3710000Y735000D03*
G01*
X3710000Y835000D03*
G01*
X3710000Y935000D03*
G01*
X3710000Y1035000D03*
G01*
X3710000Y1135000D03*
G01*
X3710000Y1235000D03*
G01*
X3710000Y1335000D03*
G01*
X3710000Y1435000D03*
G01*
X3710000Y1535000D03*
G01*
X3710000Y1635000D03*
G01*
X3710000Y1735000D03*
G01*
X3710000Y1835000D03*
G01*
X3710000Y1935000D03*
G01*
X3710000Y2035000D03*
G01*
X3710000Y2135000D03*
D15*
G01*
X3510000Y235000D03*
G01*
X3610000Y235000D03*
D12*
G01*
X1110000Y235000D03*
G01*
X1210000Y235000D03*
G01*
X1310000Y235000D03*
G01*
X1410000Y235000D03*
G01*
X1510000Y235000D03*
D11*
G01*
X1610000Y235000D03*
D12*
G01*
X1710000Y235000D03*
G01*
X1810000Y235000D03*
G01*
X2010000Y235000D03*
G01*
X2110000Y235000D03*
G01*
X2210000Y235000D03*
G01*
X2310000Y235000D03*
G01*
X2410000Y235000D03*
G01*
X2510000Y235000D03*
G01*
X2610000Y235000D03*
G01*
X2710000Y235000D03*
D15*
G01*
X2910000Y235000D03*
G01*
X3010000Y235000D03*
G01*
X3110000Y235000D03*
G01*
X3210000Y235000D03*
G01*
X3310000Y235000D03*
G01*
X3410000Y235000D03*
D12*
G01*
X3410000Y2135000D03*
G01*
X3310000Y2135000D03*
G01*
X3210000Y2135000D03*
G01*
X3110000Y2135000D03*
G01*
X3010000Y2135000D03*
G01*
X2910000Y2135000D03*
G01*
X2810000Y2135000D03*
G01*
X2710000Y2135000D03*
G01*
X2510000Y2135000D03*
G01*
X2410000Y2135000D03*
G01*
X2310000Y2135000D03*
G01*
X2210000Y2135000D03*
G01*
X2110000Y2135000D03*
G01*
X2010000Y2135000D03*
G01*
X1910000Y2135000D03*
G01*
X1810000Y2135000D03*
G01*
X1660000Y2135000D03*
G01*
X1560000Y2135000D03*
G01*
X1460000Y2135000D03*
G01*
X1360000Y2135000D03*
G01*
X1260000Y2135000D03*
G01*
X1160000Y2135000D03*
D11*
G01*
X1060000Y2135000D03*
D12*
G01*
X960000Y2135000D03*
G01*
X860000Y2135000D03*
G01*
X760000Y2135000D03*
D17*
G01*
X3428959Y828079D03*
G01*
X3398450Y797620D03*
G01*
X3289049Y687260D03*
G01*
X3651499Y1480630D03*
G01*
X3279420Y379580D03*
G01*
X3926400Y160329D03*
G01*
X3902790Y137240D03*
G01*
X3610169Y1599879D03*
G01*
X3577349Y1566689D03*
G01*
X3001300Y1978629D03*
G01*
X694920Y738069D03*
G01*
X1710860Y1355880D03*
M02*
