G04 Layer: TopSilkscreenLayer*
G04 EasyEDA v6.5.23, 2023-06-13 15:00:51*
G04 dacc78a0dacf4a2ba8dfb7ea8c58147c,5f8968b253fc4aed9fc2cb8881c97923,10*
G04 Gerber Generator version 0.2*
G04 Scale: 100 percent, Rotated: No, Reflected: No *
G04 Dimensions in inches *
G04 leading zeros omitted , absolute positions ,3 integer and 6 decimal *
%FSLAX36Y36*%
%MOIN*%

%ADD10C,0.0060*%
%ADD11C,0.0080*%
%ADD12C,0.0039*%
%ADD13C,0.0032*%
%ADD14C,0.0040*%
%ADD15C,0.0080*%
%ADD16C,0.0079*%
%ADD17C,0.0100*%
%ADD18C,0.0059*%
%ADD19C,0.0161*%

%LPD*%
D10*
X3819600Y691399D02*
G01*
X3862500Y675000D01*
X3819600Y691399D02*
G01*
X3862500Y707699D01*
X3848199Y681100D02*
G01*
X3848199Y701599D01*
X3819600Y721199D02*
G01*
X3862500Y721199D01*
X3819600Y734699D02*
G01*
X3862500Y734699D01*
X3819600Y734699D02*
G01*
X3819600Y753099D01*
X3821599Y759299D01*
X3823699Y761300D01*
X3827799Y763400D01*
X3831899Y763400D01*
X3836000Y761300D01*
X3838000Y759299D01*
X3840000Y753099D01*
X3840000Y734699D01*
X3840000Y749000D02*
G01*
X3862500Y763400D01*
X3819600Y776900D02*
G01*
X3862500Y776900D01*
X3819600Y776900D02*
G01*
X3819600Y795300D01*
X3821599Y801399D01*
X3823699Y803499D01*
X3827799Y805500D01*
X3833900Y805500D01*
X3838000Y803499D01*
X3840000Y801399D01*
X3842100Y795300D01*
X3842100Y776900D01*
X3819600Y819000D02*
G01*
X3862500Y819000D01*
X3819600Y819000D02*
G01*
X3819600Y837399D01*
X3821599Y843499D01*
X3823699Y845599D01*
X3827799Y847600D01*
X3831899Y847600D01*
X3836000Y845599D01*
X3838000Y843499D01*
X3840000Y837399D01*
X3840000Y819000D01*
X3840000Y833299D02*
G01*
X3862500Y847600D01*
X3819600Y861100D02*
G01*
X3862500Y861100D01*
X3819600Y861100D02*
G01*
X3819600Y887699D01*
X3840000Y861100D02*
G01*
X3840000Y877500D01*
X3862500Y861100D02*
G01*
X3862500Y887699D01*
X3825699Y929899D02*
G01*
X3821599Y925799D01*
X3819600Y919600D01*
X3819600Y911500D01*
X3821599Y905300D01*
X3825699Y901199D01*
X3829799Y901199D01*
X3833900Y903299D01*
X3836000Y905300D01*
X3838000Y909400D01*
X3842100Y921700D01*
X3844099Y925799D01*
X3846199Y927800D01*
X3850299Y929899D01*
X3856400Y929899D01*
X3860500Y925799D01*
X3862500Y919600D01*
X3862500Y911500D01*
X3860500Y905300D01*
X3856400Y901199D01*
X3825699Y971999D02*
G01*
X3821599Y967899D01*
X3819600Y961799D01*
X3819600Y953600D01*
X3821599Y947500D01*
X3825699Y943400D01*
X3829799Y943400D01*
X3833900Y945399D01*
X3836000Y947500D01*
X3838000Y951500D01*
X3842100Y963800D01*
X3844099Y967899D01*
X3846199Y970000D01*
X3850299Y971999D01*
X3856400Y971999D01*
X3860500Y967899D01*
X3862500Y961799D01*
X3862500Y953600D01*
X3860500Y947500D01*
X3856400Y943400D01*
X3827799Y985500D02*
G01*
X3825699Y989600D01*
X3819600Y995700D01*
X3862500Y995700D01*
X3821800Y366700D02*
G01*
X3817700Y364600D01*
X3813599Y360500D01*
X3811599Y356500D01*
X3811599Y348299D01*
X3813599Y344200D01*
X3817700Y340100D01*
X3821800Y338000D01*
X3828000Y335999D01*
X3838199Y335999D01*
X3844300Y338000D01*
X3848400Y340100D01*
X3852500Y344200D01*
X3854499Y348299D01*
X3854499Y356500D01*
X3852500Y360500D01*
X3848400Y364600D01*
X3844300Y366700D01*
X3819799Y380199D02*
G01*
X3817700Y384299D01*
X3811599Y390399D01*
X3854499Y390399D01*
X3868900Y403899D02*
G01*
X3868900Y440700D01*
X3821800Y456300D02*
G01*
X3819799Y456300D01*
X3815699Y458299D01*
X3813599Y460399D01*
X3811599Y464499D01*
X3811599Y472600D01*
X3813599Y476700D01*
X3815699Y478800D01*
X3819799Y480799D01*
X3823900Y480799D01*
X3828000Y478800D01*
X3834099Y474699D01*
X3854499Y454200D01*
X3854499Y482899D01*
X150000Y170399D02*
G01*
X150000Y127500D01*
X150000Y170399D02*
G01*
X176599Y170399D01*
X150000Y150000D02*
G01*
X166399Y150000D01*
X150000Y127500D02*
G01*
X176599Y127500D01*
X218699Y164299D02*
G01*
X214600Y168400D01*
X208499Y170399D01*
X200300Y170399D01*
X194200Y168400D01*
X190100Y164299D01*
X190100Y160199D01*
X192100Y156100D01*
X194200Y154000D01*
X198299Y151999D01*
X210500Y147899D01*
X214600Y145900D01*
X216700Y143800D01*
X218699Y139699D01*
X218699Y133600D01*
X214600Y129499D01*
X208499Y127500D01*
X200300Y127500D01*
X194200Y129499D01*
X190100Y133600D01*
X262899Y160199D02*
G01*
X260900Y164299D01*
X256799Y168400D01*
X252699Y170399D01*
X244499Y170399D01*
X240399Y168400D01*
X236300Y164299D01*
X234299Y160199D01*
X232199Y154000D01*
X232199Y143800D01*
X234299Y137699D01*
X236300Y133600D01*
X240399Y129499D01*
X244499Y127500D01*
X252699Y127500D01*
X256799Y129499D01*
X260900Y133600D01*
X262899Y137699D01*
X276399Y162199D02*
G01*
X280500Y164299D01*
X286599Y170399D01*
X286599Y127500D01*
X940000Y2105399D02*
G01*
X940000Y2062500D01*
X940000Y2105399D02*
G01*
X966599Y2105399D01*
X940000Y2085000D02*
G01*
X956400Y2085000D01*
X980100Y2097199D02*
G01*
X984200Y2099299D01*
X990299Y2105399D01*
X990299Y2062500D01*
X1003800Y2048099D02*
G01*
X1040600Y2048099D01*
X1054099Y2097199D02*
G01*
X1058199Y2099299D01*
X1064399Y2105399D01*
X1064399Y2062500D01*
X2440000Y2105399D02*
G01*
X2440000Y2062500D01*
X2440000Y2105399D02*
G01*
X2466599Y2105399D01*
X2440000Y2085000D02*
G01*
X2456400Y2085000D01*
X2480100Y2097199D02*
G01*
X2484200Y2099299D01*
X2490299Y2105399D01*
X2490299Y2062500D01*
X2503800Y2048099D02*
G01*
X2540600Y2048099D01*
X2556199Y2095199D02*
G01*
X2556199Y2097199D01*
X2558199Y2101300D01*
X2560299Y2103400D01*
X2564399Y2105399D01*
X2572500Y2105399D01*
X2576599Y2103400D01*
X2578699Y2101300D01*
X2580699Y2097199D01*
X2580699Y2093099D01*
X2578699Y2089000D01*
X2574600Y2082899D01*
X2554099Y2062500D01*
X2582799Y2062500D01*
X2840000Y2105399D02*
G01*
X2840000Y2062500D01*
X2840000Y2105399D02*
G01*
X2866599Y2105399D01*
X2840000Y2085000D02*
G01*
X2856400Y2085000D01*
X2880100Y2097199D02*
G01*
X2884200Y2099299D01*
X2890299Y2105399D01*
X2890299Y2062500D01*
X2903800Y2048099D02*
G01*
X2940600Y2048099D01*
X2958199Y2105399D02*
G01*
X2980699Y2105399D01*
X2968500Y2089000D01*
X2974600Y2089000D01*
X2978699Y2086999D01*
X2980699Y2085000D01*
X2982799Y2078800D01*
X2982799Y2074699D01*
X2980699Y2068600D01*
X2976599Y2064499D01*
X2970500Y2062500D01*
X2964399Y2062500D01*
X2958199Y2064499D01*
X2956199Y2066500D01*
X2954099Y2070599D01*
X3260000Y-5399D02*
G01*
X3260000Y37500D01*
X3260000Y-5399D02*
G01*
X3233400Y-5399D01*
X3260000Y15000D02*
G01*
X3243599Y15000D01*
X3215799Y-5399D02*
G01*
X3193299Y-5399D01*
X3205600Y10999D01*
X3199499Y10999D01*
X3195399Y13000D01*
X3193299Y15000D01*
X3191300Y21199D01*
X3191300Y25300D01*
X3193299Y31399D01*
X3197399Y35500D01*
X3203500Y37500D01*
X3209700Y37500D01*
X3215799Y35500D01*
X3217899Y33499D01*
X3219899Y29400D01*
X3177799Y51900D02*
G01*
X3141000Y51900D01*
X3127500Y2800D02*
G01*
X3123400Y700D01*
X3117200Y-5399D01*
X3117200Y37500D01*
X2460000Y-5399D02*
G01*
X2460000Y37500D01*
X2460000Y-5399D02*
G01*
X2433400Y-5399D01*
X2460000Y15000D02*
G01*
X2443599Y15000D01*
X2415799Y-5399D02*
G01*
X2393299Y-5399D01*
X2405600Y10999D01*
X2399499Y10999D01*
X2395399Y13000D01*
X2393299Y15000D01*
X2391300Y21199D01*
X2391300Y25300D01*
X2393299Y31399D01*
X2397399Y35500D01*
X2403500Y37500D01*
X2409700Y37500D01*
X2415799Y35500D01*
X2417899Y33499D01*
X2419899Y29400D01*
X2377799Y51900D02*
G01*
X2341000Y51900D01*
X2325399Y4800D02*
G01*
X2325399Y2800D01*
X2323400Y-1300D01*
X2321300Y-3400D01*
X2317200Y-5399D01*
X2308999Y-5399D01*
X2305000Y-3400D01*
X2302899Y-1300D01*
X2300900Y2800D01*
X2300900Y6900D01*
X2302899Y10999D01*
X2306999Y17100D01*
X2327500Y37500D01*
X2298800Y37500D01*
X2705699Y1215199D02*
G01*
X2703599Y1219299D01*
X2699499Y1223400D01*
X2695500Y1225399D01*
X2687299Y1225399D01*
X2683199Y1223400D01*
X2679099Y1219299D01*
X2676999Y1215199D01*
X2675000Y1209000D01*
X2675000Y1198800D01*
X2676999Y1192699D01*
X2679099Y1188600D01*
X2683199Y1184499D01*
X2687299Y1182500D01*
X2695500Y1182500D01*
X2699499Y1184499D01*
X2703599Y1188600D01*
X2705699Y1192699D01*
X2705699Y1198800D01*
X2695500Y1198800D02*
G01*
X2705699Y1198800D01*
X2719200Y1225399D02*
G01*
X2719200Y1182500D01*
X2719200Y1225399D02*
G01*
X2737600Y1225399D01*
X2743699Y1223400D01*
X2745799Y1221300D01*
X2747799Y1217199D01*
X2747799Y1211100D01*
X2745799Y1206999D01*
X2743699Y1205000D01*
X2737600Y1202899D01*
X2719200Y1202899D01*
X2790000Y1219299D02*
G01*
X2785900Y1223400D01*
X2779700Y1225399D01*
X2771499Y1225399D01*
X2765399Y1223400D01*
X2761300Y1219299D01*
X2761300Y1215199D01*
X2763400Y1211100D01*
X2765399Y1209000D01*
X2769499Y1206999D01*
X2781800Y1202899D01*
X2785900Y1200900D01*
X2787899Y1198800D01*
X2790000Y1194699D01*
X2790000Y1188600D01*
X2785900Y1184499D01*
X2779700Y1182500D01*
X2771499Y1182500D01*
X2765399Y1184499D01*
X2761300Y1188600D01*
X2805500Y1215199D02*
G01*
X2805500Y1217199D01*
X2807500Y1221300D01*
X2809600Y1223400D01*
X2813699Y1225399D01*
X2821899Y1225399D01*
X2826000Y1223400D01*
X2828000Y1221300D01*
X2830000Y1217199D01*
X2830000Y1213099D01*
X2828000Y1209000D01*
X2823900Y1202899D01*
X2803500Y1182500D01*
X2832100Y1182500D01*
D11*
X3144499Y687500D02*
G01*
X3140900Y694800D01*
X3133599Y702100D01*
X3126400Y705700D01*
X3111800Y705700D01*
X3104499Y702100D01*
X3097299Y694800D01*
X3093599Y687500D01*
X3090000Y676599D01*
X3090000Y658499D01*
X3093599Y647500D01*
X3097299Y640300D01*
X3104499Y633000D01*
X3111800Y629400D01*
X3126400Y629400D01*
X3133599Y633000D01*
X3140900Y640300D01*
X3144499Y647500D01*
X3144499Y658499D01*
X3126400Y658499D02*
G01*
X3144499Y658499D01*
X3168500Y705700D02*
G01*
X3168500Y629400D01*
X3168500Y705700D02*
G01*
X3201300Y705700D01*
X3212200Y702100D01*
X3215799Y698499D01*
X3219499Y691199D01*
X3219499Y680300D01*
X3215799Y673000D01*
X3212200Y669400D01*
X3201300Y665700D01*
X3168500Y665700D01*
X3294399Y694800D02*
G01*
X3287100Y702100D01*
X3276199Y705700D01*
X3261599Y705700D01*
X3250699Y702100D01*
X3243500Y694800D01*
X3243500Y687500D01*
X3247100Y680300D01*
X3250699Y676599D01*
X3258000Y673000D01*
X3279799Y665700D01*
X3287100Y662100D01*
X3290699Y658499D01*
X3294399Y651199D01*
X3294399Y640300D01*
X3287100Y633000D01*
X3276199Y629400D01*
X3261599Y629400D01*
X3250699Y633000D01*
X3243500Y640300D01*
X2127299Y1105700D02*
G01*
X2167299Y1105700D01*
X2145500Y1076599D01*
X2156400Y1076599D01*
X2163599Y1073000D01*
X2167299Y1069400D01*
X2170900Y1058499D01*
X2170900Y1051199D01*
X2167299Y1040300D01*
X2160000Y1033000D01*
X2149099Y1029400D01*
X2138199Y1029400D01*
X2127299Y1033000D01*
X2123599Y1036599D01*
X2120000Y1043899D01*
X2198500Y1047500D02*
G01*
X2194899Y1043899D01*
X2198500Y1040300D01*
X2202200Y1043899D01*
X2198500Y1047500D01*
X2233500Y1105700D02*
G01*
X2273500Y1105700D01*
X2251599Y1076599D01*
X2262500Y1076599D01*
X2269799Y1073000D01*
X2273500Y1069400D01*
X2277100Y1058499D01*
X2277100Y1051199D01*
X2273500Y1040300D01*
X2266199Y1033000D01*
X2255299Y1029400D01*
X2244399Y1029400D01*
X2233500Y1033000D01*
X2229799Y1036599D01*
X2226199Y1043899D01*
X2301099Y1105700D02*
G01*
X2330200Y1029400D01*
X2359300Y1105700D02*
G01*
X2330200Y1029400D01*
X2120000Y1005700D02*
G01*
X2120000Y929400D01*
X2120000Y1005700D02*
G01*
X2167299Y1005700D01*
X2120000Y969400D02*
G01*
X2149099Y969400D01*
X2120000Y929400D02*
G01*
X2167299Y929400D01*
X2191300Y1005700D02*
G01*
X2191300Y929400D01*
X2191300Y1005700D02*
G01*
X2242200Y929400D01*
X2242200Y1005700D02*
G01*
X2242200Y929400D01*
X2120000Y905700D02*
G01*
X2149099Y829400D01*
X2178199Y905700D02*
G01*
X2149099Y829400D01*
X2202200Y905700D02*
G01*
X2202200Y829400D01*
X2202200Y905700D02*
G01*
X2234899Y905700D01*
X2245799Y902100D01*
X2249499Y898499D01*
X2253100Y891199D01*
X2253100Y883899D01*
X2249499Y876599D01*
X2245799Y873000D01*
X2234899Y869400D01*
X2202200Y869400D02*
G01*
X2234899Y869400D01*
X2245799Y865700D01*
X2249499Y862100D01*
X2253100Y854800D01*
X2253100Y843899D01*
X2249499Y836599D01*
X2245799Y833000D01*
X2234899Y829400D01*
X2202200Y829400D01*
X2306199Y905700D02*
G01*
X2277100Y829400D01*
X2306199Y905700D02*
G01*
X2335299Y829400D01*
X2288000Y854800D02*
G01*
X2324399Y854800D01*
X2384700Y905700D02*
G01*
X2384700Y829400D01*
X2359300Y905700D02*
G01*
X2410200Y905700D01*
X2120000Y805700D02*
G01*
X2120000Y729400D01*
X2120000Y805700D02*
G01*
X2167299Y805700D01*
X2120000Y769400D02*
G01*
X2149099Y769400D01*
X2191300Y805700D02*
G01*
X2191300Y729400D01*
X2215299Y805700D02*
G01*
X2266199Y729400D01*
X2266199Y805700D02*
G01*
X2215299Y729400D01*
X2145500Y705700D02*
G01*
X2145500Y629400D01*
X2120000Y705700D02*
G01*
X2170900Y705700D01*
X2194899Y705700D02*
G01*
X2245799Y629400D01*
X2245799Y705700D02*
G01*
X2194899Y629400D01*
X2120000Y605700D02*
G01*
X2120000Y529400D01*
X2120000Y605700D02*
G01*
X2152700Y605700D01*
X2163599Y602100D01*
X2167299Y598499D01*
X2170900Y591199D01*
X2170900Y583899D01*
X2167299Y576599D01*
X2163599Y573000D01*
X2152700Y569400D01*
X2120000Y569400D01*
X2145500Y569400D02*
G01*
X2170900Y529400D01*
X2194899Y605700D02*
G01*
X2245799Y529400D01*
X2245799Y605700D02*
G01*
X2194899Y529400D01*
X2174499Y487500D02*
G01*
X2170900Y494800D01*
X2163599Y502100D01*
X2156400Y505700D01*
X2141800Y505700D01*
X2134499Y502100D01*
X2127299Y494800D01*
X2123599Y487500D01*
X2120000Y476599D01*
X2120000Y458499D01*
X2123599Y447500D01*
X2127299Y440300D01*
X2134499Y433000D01*
X2141800Y429400D01*
X2156400Y429400D01*
X2163599Y433000D01*
X2170900Y440300D01*
X2174499Y447500D01*
X2174499Y458499D01*
X2156400Y458499D02*
G01*
X2174499Y458499D01*
X2198500Y505700D02*
G01*
X2198500Y429400D01*
X2198500Y505700D02*
G01*
X2249499Y429400D01*
X2249499Y505700D02*
G01*
X2249499Y429400D01*
X2273500Y505700D02*
G01*
X2273500Y429400D01*
X2273500Y505700D02*
G01*
X2298900Y505700D01*
X2309799Y502100D01*
X2317100Y494800D01*
X2320699Y487500D01*
X2324399Y476599D01*
X2324399Y458499D01*
X2320699Y447500D01*
X2317100Y440300D01*
X2309799Y433000D01*
X2298900Y429400D01*
X2273500Y429400D01*
X2120000Y405700D02*
G01*
X2149099Y329400D01*
X2178199Y405700D02*
G01*
X2149099Y329400D01*
X2202200Y405700D02*
G01*
X2202200Y329400D01*
X2226199Y405700D02*
G01*
X2226199Y329400D01*
X2226199Y405700D02*
G01*
X2277100Y329400D01*
X2277100Y405700D02*
G01*
X2277100Y329400D01*
X2120000Y305700D02*
G01*
X2120000Y229400D01*
X2120000Y305700D02*
G01*
X2152700Y305700D01*
X2163599Y302100D01*
X2167299Y298499D01*
X2170900Y291199D01*
X2170900Y280300D01*
X2167299Y273000D01*
X2163599Y269400D01*
X2152700Y265700D01*
X2120000Y265700D01*
X2194899Y305700D02*
G01*
X2194899Y229400D01*
X2194899Y305700D02*
G01*
X2227600Y305700D01*
X2238500Y302100D01*
X2242200Y298499D01*
X2245799Y291199D01*
X2245799Y280300D01*
X2242200Y273000D01*
X2238500Y269400D01*
X2227600Y265700D01*
X2194899Y265700D01*
X2320699Y294800D02*
G01*
X2313500Y302100D01*
X2302500Y305700D01*
X2288000Y305700D01*
X2277100Y302100D01*
X2269799Y294800D01*
X2269799Y287500D01*
X2273500Y280300D01*
X2277100Y276599D01*
X2284399Y273000D01*
X2306199Y265700D01*
X2313500Y262100D01*
X2317100Y258499D01*
X2320699Y251199D01*
X2320699Y240300D01*
X2313500Y233000D01*
X2302500Y229400D01*
X2288000Y229400D01*
X2277100Y233000D01*
X2269799Y240300D01*
D10*
X845500Y170399D02*
G01*
X845500Y137699D01*
X843400Y131500D01*
X841400Y129499D01*
X837299Y127500D01*
X833199Y127500D01*
X829099Y129499D01*
X826999Y131500D01*
X825000Y137699D01*
X825000Y141799D01*
X858999Y113099D02*
G01*
X895799Y113099D01*
X909300Y170399D02*
G01*
X909300Y139699D01*
X911300Y133600D01*
X915399Y129499D01*
X921499Y127500D01*
X925600Y127500D01*
X931800Y129499D01*
X935900Y133600D01*
X937899Y139699D01*
X937899Y170399D01*
X951400Y170399D02*
G01*
X951400Y127500D01*
X951400Y127500D02*
G01*
X976000Y127500D01*
X1003800Y170399D02*
G01*
X1003800Y127500D01*
X989499Y170399D02*
G01*
X1018100Y170399D01*
X1031599Y170399D02*
G01*
X1031599Y127500D01*
X1031599Y170399D02*
G01*
X1050000Y170399D01*
X1056099Y168400D01*
X1058199Y166300D01*
X1060200Y162199D01*
X1060200Y158099D01*
X1058199Y154000D01*
X1056099Y151999D01*
X1050000Y150000D01*
X1031599Y150000D01*
X1045900Y150000D02*
G01*
X1060200Y127500D01*
X1090100Y170399D02*
G01*
X1073699Y127500D01*
X1090100Y170399D02*
G01*
X1106499Y127500D01*
X1079899Y141799D02*
G01*
X1100299Y141799D01*
X1148599Y164299D02*
G01*
X1144499Y168400D01*
X1138400Y170399D01*
X1130200Y170399D01*
X1123999Y168400D01*
X1120000Y164299D01*
X1120000Y160199D01*
X1121999Y156100D01*
X1123999Y154000D01*
X1128100Y151999D01*
X1140399Y147899D01*
X1144499Y145900D01*
X1146499Y143800D01*
X1148599Y139699D01*
X1148599Y133600D01*
X1144499Y129499D01*
X1138400Y127500D01*
X1130200Y127500D01*
X1123999Y129499D01*
X1120000Y133600D01*
X1174399Y170399D02*
G01*
X1170299Y168400D01*
X1166199Y164299D01*
X1164099Y160199D01*
X1162100Y154000D01*
X1162100Y143800D01*
X1164099Y137699D01*
X1166199Y133600D01*
X1170299Y129499D01*
X1174399Y127500D01*
X1182500Y127500D01*
X1186599Y129499D01*
X1190699Y133600D01*
X1192799Y137699D01*
X1194799Y143800D01*
X1194799Y154000D01*
X1192799Y160199D01*
X1190699Y164299D01*
X1186599Y168400D01*
X1182500Y170399D01*
X1174399Y170399D01*
X1208299Y170399D02*
G01*
X1208299Y127500D01*
X1208299Y170399D02*
G01*
X1236999Y127500D01*
X1236999Y170399D02*
G01*
X1236999Y127500D01*
X1250500Y162199D02*
G01*
X1254499Y164299D01*
X1260699Y170399D01*
X1260699Y127500D01*
X1029600Y1015000D02*
G01*
X1072500Y1015000D01*
X1072500Y1015000D02*
G01*
X1072500Y1039499D01*
X1029600Y1053000D02*
G01*
X1072500Y1053000D01*
X1029600Y1053000D02*
G01*
X1029600Y1079600D01*
X1050000Y1053000D02*
G01*
X1050000Y1069400D01*
X1072500Y1053000D02*
G01*
X1072500Y1079600D01*
X1029600Y1093099D02*
G01*
X1072500Y1093099D01*
X1029600Y1093099D02*
G01*
X1029600Y1107500D01*
X1031599Y1113600D01*
X1035699Y1117699D01*
X1039799Y1119699D01*
X1046000Y1121799D01*
X1056199Y1121799D01*
X1062299Y1119699D01*
X1066400Y1117699D01*
X1070500Y1113600D01*
X1072500Y1107500D01*
X1072500Y1093099D01*
X1037799Y1135300D02*
G01*
X1035699Y1139400D01*
X1029600Y1145500D01*
X1072500Y1145500D01*
X1086899Y1159000D02*
G01*
X1086899Y1195799D01*
X1039799Y1211399D02*
G01*
X1037799Y1211399D01*
X1033699Y1213400D01*
X1031599Y1215500D01*
X1029600Y1219499D01*
X1029600Y1227699D01*
X1031599Y1231799D01*
X1033699Y1233899D01*
X1037799Y1235900D01*
X1041899Y1235900D01*
X1046000Y1233899D01*
X1052100Y1229800D01*
X1072500Y1209299D01*
X1072500Y1238000D01*
X3381000Y1146244D02*
G01*
X3381000Y1189144D01*
X3381000Y1146244D02*
G01*
X3364600Y1189144D01*
X3348299Y1146244D02*
G01*
X3364600Y1189144D01*
X3348299Y1146244D02*
G01*
X3348299Y1189144D01*
X3334799Y1146244D02*
G01*
X3334799Y1189144D01*
X3306099Y1146244D02*
G01*
X3334799Y1174845D01*
X3324499Y1164645D02*
G01*
X3306099Y1189144D01*
X3290600Y1156444D02*
G01*
X3290600Y1154445D01*
X3288500Y1150345D01*
X3286499Y1148245D01*
X3282399Y1146244D01*
X3274200Y1146244D01*
X3270100Y1148245D01*
X3268100Y1150345D01*
X3266000Y1154445D01*
X3266000Y1158544D01*
X3268100Y1162645D01*
X3272200Y1168744D01*
X3292600Y1189144D01*
X3263999Y1189144D01*
X3829600Y1850000D02*
G01*
X3872500Y1850000D01*
X3829600Y1850000D02*
G01*
X3829600Y1868400D01*
X3831599Y1874499D01*
X3833699Y1876599D01*
X3837799Y1878600D01*
X3841899Y1878600D01*
X3846000Y1876599D01*
X3848000Y1874499D01*
X3850000Y1868400D01*
X3850000Y1850000D01*
X3850000Y1864299D02*
G01*
X3872500Y1878600D01*
X3837799Y1892100D02*
G01*
X3835699Y1896199D01*
X3829600Y1902399D01*
X3872500Y1902399D01*
X3886899Y1915900D02*
G01*
X3886899Y1952699D01*
X3839799Y1968200D02*
G01*
X3837799Y1968200D01*
X3833699Y1970300D01*
X3831599Y1972300D01*
X3829600Y1976399D01*
X3829600Y1984600D01*
X3831599Y1988699D01*
X3833699Y1990700D01*
X3837799Y1992800D01*
X3841899Y1992800D01*
X3846000Y1990700D01*
X3852100Y1986599D01*
X3872500Y1966199D01*
X3872500Y1994800D01*
X3829600Y1365000D02*
G01*
X3872500Y1365000D01*
X3829600Y1365000D02*
G01*
X3829600Y1383400D01*
X3831599Y1389499D01*
X3833699Y1391599D01*
X3837799Y1393600D01*
X3841899Y1393600D01*
X3846000Y1391599D01*
X3848000Y1389499D01*
X3850000Y1383400D01*
X3850000Y1365000D01*
X3850000Y1379299D02*
G01*
X3872500Y1393600D01*
X3839799Y1409200D02*
G01*
X3837799Y1409200D01*
X3833699Y1411199D01*
X3831599Y1413299D01*
X3829600Y1417399D01*
X3829600Y1425500D01*
X3831599Y1429600D01*
X3833699Y1431700D01*
X3837799Y1433699D01*
X3841899Y1433699D01*
X3846000Y1431700D01*
X3852100Y1427600D01*
X3872500Y1407100D01*
X3872500Y1435799D01*
X3886899Y1449299D02*
G01*
X3886899Y1486100D01*
X3839799Y1501599D02*
G01*
X3837799Y1501599D01*
X3833699Y1503699D01*
X3831599Y1505700D01*
X3829600Y1509800D01*
X3829600Y1518000D01*
X3831599Y1522100D01*
X3833699Y1524099D01*
X3837799Y1526199D01*
X3841899Y1526199D01*
X3846000Y1524099D01*
X3852100Y1520000D01*
X3872500Y1499600D01*
X3872500Y1528200D01*
X670000Y69600D02*
G01*
X670000Y100300D01*
X668000Y106399D01*
X663899Y110500D01*
X657699Y112500D01*
X653600Y112500D01*
X647500Y110500D01*
X643400Y106399D01*
X641399Y100300D01*
X641399Y69600D01*
X625799Y79800D02*
G01*
X625799Y77800D01*
X623800Y73699D01*
X621700Y71599D01*
X617600Y69600D01*
X609499Y69600D01*
X605399Y71599D01*
X603299Y73699D01*
X601300Y77800D01*
X601300Y81900D01*
X603299Y85999D01*
X607399Y92100D01*
X627899Y112500D01*
X599200Y112500D01*
D12*
X687658Y963883D02*
G01*
X650059Y978184D01*
X687658Y963883D02*
G01*
X650059Y949583D01*
X662658Y972883D02*
G01*
X662658Y954983D01*
X687658Y916284D02*
G01*
X650059Y916284D01*
X669758Y916284D02*
G01*
X673359Y919884D01*
X675158Y923483D01*
X675158Y928784D01*
X673359Y932384D01*
X669758Y935983D01*
X664459Y937784D01*
X660859Y937784D01*
X655459Y935983D01*
X651858Y932384D01*
X650059Y928784D01*
X650059Y923483D01*
X651858Y919884D01*
X655459Y916284D01*
X675158Y882984D02*
G01*
X650059Y882984D01*
X669758Y882984D02*
G01*
X673359Y886583D01*
X675158Y890183D01*
X675158Y895583D01*
X673359Y899083D01*
X669758Y902683D01*
X664459Y904484D01*
X660859Y904484D01*
X655459Y902683D01*
X651858Y899083D01*
X650059Y895583D01*
X650059Y890183D01*
X651858Y886583D01*
X655459Y882984D01*
X687658Y856884D02*
G01*
X687658Y860484D01*
X685859Y864083D01*
X680558Y865884D01*
X650059Y865884D01*
X675158Y871183D02*
G01*
X675158Y858683D01*
X675158Y845084D02*
G01*
X650059Y845084D01*
X664459Y845084D02*
G01*
X669758Y843283D01*
X673359Y839684D01*
X675158Y836084D01*
X675158Y830783D01*
X675158Y818984D02*
G01*
X657258Y818984D01*
X651858Y817184D01*
X650059Y813584D01*
X650059Y808184D01*
X651858Y804684D01*
X657258Y799283D01*
X675158Y799283D02*
G01*
X650059Y799283D01*
X687658Y787483D02*
G01*
X685859Y785684D01*
X687658Y783883D01*
X689459Y785684D01*
X687658Y787483D01*
X675158Y785684D02*
G01*
X650059Y785684D01*
X687658Y766684D02*
G01*
X657258Y766684D01*
X651858Y764884D01*
X650059Y761284D01*
X650059Y757784D01*
X675158Y772083D02*
G01*
X675158Y759583D01*
X675158Y695084D02*
G01*
X669758Y696884D01*
X666158Y700484D01*
X664459Y705884D01*
X664459Y707683D01*
X666158Y712984D01*
X669758Y716583D01*
X675158Y718384D01*
X676959Y718384D01*
X682359Y716583D01*
X685859Y712984D01*
X687658Y707683D01*
X687658Y705884D01*
X685859Y700484D01*
X682359Y696884D01*
X675158Y695084D01*
X666158Y695084D01*
X657258Y696884D01*
X651858Y700484D01*
X650059Y705884D01*
X650059Y709384D01*
X651858Y714783D01*
X655459Y716583D01*
X666158Y683283D02*
G01*
X666158Y651084D01*
X687658Y639283D02*
G01*
X650059Y639283D01*
X687658Y639283D02*
G01*
X687658Y626783D01*
X685859Y621383D01*
X682359Y617784D01*
X678759Y615983D01*
X673359Y614184D01*
X664459Y614184D01*
X659059Y615983D01*
X655459Y617784D01*
X651858Y621383D01*
X650059Y626783D01*
X650059Y639283D01*
X687658Y591684D02*
G01*
X685859Y595284D01*
X682359Y598883D01*
X678759Y600583D01*
X673359Y602384D01*
X664459Y602384D01*
X659059Y600583D01*
X655459Y598883D01*
X651858Y595284D01*
X650059Y591684D01*
X650059Y584484D01*
X651858Y580983D01*
X655459Y577384D01*
X659059Y575583D01*
X664459Y573784D01*
X673359Y573784D01*
X678759Y575583D01*
X682359Y577384D01*
X685859Y580983D01*
X687658Y584484D01*
X687658Y591684D01*
X687658Y561984D02*
G01*
X650059Y561984D01*
X687658Y561984D02*
G01*
X687658Y538683D01*
X669758Y561984D02*
G01*
X669758Y547683D01*
X687658Y499384D02*
G01*
X650059Y499384D01*
X650059Y499384D02*
G01*
X650059Y477883D01*
X682359Y440983D02*
G01*
X685859Y444583D01*
X687658Y449983D01*
X687658Y457083D01*
X685859Y462483D01*
X682359Y466084D01*
X678759Y466084D01*
X675158Y464283D01*
X673359Y462483D01*
X671559Y458883D01*
X667959Y448184D01*
X666158Y444583D01*
X664459Y442784D01*
X660859Y440983D01*
X655459Y440983D01*
X651858Y444583D01*
X650059Y449983D01*
X650059Y457083D01*
X651858Y462483D01*
X655459Y466084D01*
X687658Y429184D02*
G01*
X650059Y429184D01*
X687658Y429184D02*
G01*
X650059Y414884D01*
X687658Y400583D02*
G01*
X650059Y414884D01*
X687658Y400583D02*
G01*
X650059Y400583D01*
X675158Y365484D02*
G01*
X669758Y367283D01*
X666158Y370884D01*
X664459Y376183D01*
X664459Y377984D01*
X666158Y383384D01*
X669758Y386984D01*
X675158Y388784D01*
X676959Y388784D01*
X682359Y386984D01*
X685859Y383384D01*
X687658Y377984D01*
X687658Y376183D01*
X685859Y370884D01*
X682359Y367283D01*
X675158Y365484D01*
X666158Y365484D01*
X657258Y367283D01*
X651858Y370884D01*
X650059Y376183D01*
X650059Y379783D01*
X651858Y385183D01*
X655459Y386984D01*
X687658Y353683D02*
G01*
X650059Y353683D01*
X687658Y353683D02*
G01*
X687658Y341183D01*
X685859Y335783D01*
X682359Y332184D01*
X678759Y330383D01*
X673359Y328584D01*
X664459Y328584D01*
X659059Y330383D01*
X655459Y332184D01*
X651858Y335783D01*
X650059Y341183D01*
X650059Y353683D01*
X682359Y291783D02*
G01*
X685859Y295284D01*
X687658Y300684D01*
X687658Y307883D01*
X685859Y313184D01*
X682359Y316783D01*
X678759Y316783D01*
X675158Y314983D01*
X673359Y313184D01*
X671559Y309684D01*
X667959Y298883D01*
X666158Y295284D01*
X664459Y293584D01*
X660859Y291783D01*
X655459Y291783D01*
X651858Y295284D01*
X650059Y300684D01*
X650059Y307883D01*
X651858Y313184D01*
X655459Y316783D01*
X680558Y279983D02*
G01*
X682359Y276383D01*
X687658Y270983D01*
X650059Y270983D01*
D13*
X863701Y1011707D02*
G01*
X863701Y1041806D01*
X863701Y1011707D02*
G01*
X853701Y1011707D01*
X849400Y1013107D01*
X846601Y1016006D01*
X845101Y1018906D01*
X843701Y1023207D01*
X843701Y1030306D01*
X845101Y1034607D01*
X846601Y1037507D01*
X849400Y1040306D01*
X853701Y1041806D01*
X863701Y1041806D01*
X825700Y1011707D02*
G01*
X828500Y1013107D01*
X831400Y1016006D01*
X832800Y1018906D01*
X834201Y1023207D01*
X834201Y1030306D01*
X832800Y1034607D01*
X831400Y1037507D01*
X828500Y1040306D01*
X825700Y1041806D01*
X819900Y1041806D01*
X817101Y1040306D01*
X814201Y1037507D01*
X812800Y1034607D01*
X811301Y1030306D01*
X811301Y1023207D01*
X812800Y1018906D01*
X814201Y1016006D01*
X817101Y1013107D01*
X819900Y1011707D01*
X825700Y1011707D01*
X801900Y1011707D02*
G01*
X801900Y1041806D01*
X801900Y1011707D02*
G01*
X790401Y1041806D01*
X779000Y1011707D02*
G01*
X790401Y1041806D01*
X779000Y1011707D02*
G01*
X779000Y1041806D01*
X843701Y916006D02*
G01*
X846601Y913107D01*
X850901Y911707D01*
X856601Y911707D01*
X860901Y913107D01*
X863701Y916006D01*
X863701Y918906D01*
X862300Y921707D01*
X860901Y923207D01*
X858001Y924607D01*
X849400Y927507D01*
X846601Y928906D01*
X845101Y930306D01*
X843701Y933207D01*
X843701Y937507D01*
X846601Y940306D01*
X850901Y941806D01*
X856601Y941806D01*
X860901Y940306D01*
X863701Y937507D01*
X834201Y911707D02*
G01*
X834201Y941806D01*
X834201Y911707D02*
G01*
X824201Y911707D01*
X819900Y913107D01*
X817101Y916006D01*
X815600Y918906D01*
X814201Y923207D01*
X814201Y930306D01*
X815600Y934607D01*
X817101Y937507D01*
X819900Y940306D01*
X824201Y941806D01*
X834201Y941806D01*
X796201Y911707D02*
G01*
X799000Y913107D01*
X801900Y916006D01*
X803301Y918906D01*
X804800Y923207D01*
X804800Y930306D01*
X803301Y934607D01*
X801900Y937507D01*
X799000Y940306D01*
X796201Y941806D01*
X790401Y941806D01*
X787601Y940306D01*
X784700Y937507D01*
X783301Y934607D01*
X781800Y930306D01*
X781800Y923207D01*
X783301Y918906D01*
X784700Y916006D01*
X787601Y913107D01*
X790401Y911707D01*
X796201Y911707D01*
X760901Y911707D02*
G01*
X772400Y941806D01*
X760901Y911707D02*
G01*
X749501Y941806D01*
X768100Y931806D02*
G01*
X753800Y931806D01*
X718600Y918906D02*
G01*
X720001Y916006D01*
X722901Y913107D01*
X725700Y911707D01*
X731500Y911707D01*
X734301Y913107D01*
X737201Y916006D01*
X738600Y918906D01*
X740001Y923207D01*
X740001Y930306D01*
X738600Y934607D01*
X737201Y937507D01*
X734301Y940306D01*
X731500Y941806D01*
X725700Y941806D01*
X722901Y940306D01*
X720001Y937507D01*
X718600Y934607D01*
X718600Y930306D01*
X725700Y930306D02*
G01*
X718600Y930306D01*
X842300Y718906D02*
G01*
X843701Y716006D01*
X846601Y713107D01*
X849400Y711707D01*
X855101Y711707D01*
X858001Y713107D01*
X860901Y716006D01*
X862300Y718906D01*
X863701Y723207D01*
X863701Y730306D01*
X862300Y734607D01*
X860901Y737507D01*
X858001Y740306D01*
X855101Y741806D01*
X849400Y741806D01*
X846601Y740306D01*
X843701Y737507D01*
X842300Y734607D01*
X812800Y716006D02*
G01*
X815600Y713107D01*
X819900Y711707D01*
X825700Y711707D01*
X830001Y713107D01*
X832800Y716006D01*
X832800Y718906D01*
X831400Y721707D01*
X830001Y723207D01*
X827101Y724607D01*
X818500Y727507D01*
X815600Y728906D01*
X814201Y730306D01*
X812800Y733207D01*
X812800Y737507D01*
X815600Y740306D01*
X819900Y741806D01*
X825700Y741806D01*
X830001Y740306D01*
X832800Y737507D01*
X791900Y711707D02*
G01*
X803301Y741806D01*
X791900Y711707D02*
G01*
X780401Y741806D01*
X799000Y731806D02*
G01*
X784700Y731806D01*
X749501Y718906D02*
G01*
X750900Y716006D01*
X753800Y713107D01*
X756700Y711707D01*
X762400Y711707D01*
X765200Y713107D01*
X768100Y716006D01*
X769501Y718906D01*
X771000Y723207D01*
X771000Y730306D01*
X769501Y734607D01*
X768100Y737507D01*
X765200Y740306D01*
X762400Y741806D01*
X756700Y741806D01*
X753800Y740306D01*
X750900Y737507D01*
X749501Y734607D01*
X749501Y730306D01*
X756700Y730306D02*
G01*
X749501Y730306D01*
X842300Y818906D02*
G01*
X843701Y816006D01*
X846601Y813107D01*
X849400Y811707D01*
X855101Y811707D01*
X858001Y813107D01*
X860901Y816006D01*
X862300Y818906D01*
X863701Y823207D01*
X863701Y830306D01*
X862300Y834607D01*
X860901Y837507D01*
X858001Y840306D01*
X855101Y841806D01*
X849400Y841806D01*
X846601Y840306D01*
X843701Y837507D01*
X842300Y834607D01*
X812800Y816006D02*
G01*
X815600Y813107D01*
X819900Y811707D01*
X825700Y811707D01*
X830001Y813107D01*
X832800Y816006D01*
X832800Y818906D01*
X831400Y821707D01*
X830001Y823207D01*
X827101Y824607D01*
X818500Y827507D01*
X815600Y828906D01*
X814201Y830306D01*
X812800Y833207D01*
X812800Y837507D01*
X815600Y840306D01*
X819900Y841806D01*
X825700Y841806D01*
X830001Y840306D01*
X832800Y837507D01*
X803301Y811707D02*
G01*
X803301Y841806D01*
X803301Y811707D02*
G01*
X791900Y841806D01*
X780401Y811707D02*
G01*
X791900Y841806D01*
X780401Y811707D02*
G01*
X780401Y841806D01*
X843701Y616006D02*
G01*
X846601Y613107D01*
X850901Y611707D01*
X856601Y611707D01*
X860901Y613107D01*
X863701Y616006D01*
X863701Y618906D01*
X862300Y621707D01*
X860901Y623207D01*
X858001Y624607D01*
X849400Y627507D01*
X846601Y628906D01*
X845101Y630306D01*
X843701Y633207D01*
X843701Y637507D01*
X846601Y640306D01*
X850901Y641806D01*
X856601Y641806D01*
X860901Y640306D01*
X863701Y637507D01*
X834201Y611707D02*
G01*
X834201Y641806D01*
X834201Y611707D02*
G01*
X824201Y611707D01*
X819900Y613107D01*
X817101Y616006D01*
X815600Y618906D01*
X814201Y623207D01*
X814201Y630306D01*
X815600Y634607D01*
X817101Y637507D01*
X819900Y640306D01*
X824201Y641806D01*
X834201Y641806D01*
X793301Y611707D02*
G01*
X804800Y641806D01*
X793301Y611707D02*
G01*
X781800Y641806D01*
X800501Y631806D02*
G01*
X786100Y631806D01*
X843701Y516006D02*
G01*
X846601Y513107D01*
X850901Y511707D01*
X856601Y511707D01*
X860901Y513107D01*
X863701Y516006D01*
X863701Y518906D01*
X862300Y521707D01*
X860901Y523207D01*
X858001Y524607D01*
X849400Y527507D01*
X846601Y528906D01*
X845101Y530306D01*
X843701Y533207D01*
X843701Y537507D01*
X846601Y540306D01*
X850901Y541806D01*
X856601Y541806D01*
X860901Y540306D01*
X863701Y537507D01*
X812800Y518906D02*
G01*
X814201Y516006D01*
X817101Y513107D01*
X819900Y511707D01*
X825700Y511707D01*
X828500Y513107D01*
X831400Y516006D01*
X832800Y518906D01*
X834201Y523207D01*
X834201Y530306D01*
X832800Y534607D01*
X831400Y537507D01*
X828500Y540306D01*
X825700Y541806D01*
X819900Y541806D01*
X817101Y540306D01*
X814201Y537507D01*
X812800Y534607D01*
X803301Y511707D02*
G01*
X803301Y541806D01*
X803301Y541806D02*
G01*
X786100Y541806D01*
X842300Y418906D02*
G01*
X843701Y416006D01*
X846601Y413207D01*
X849400Y411707D01*
X855101Y411707D01*
X858001Y413207D01*
X860901Y416006D01*
X862300Y418906D01*
X863701Y423207D01*
X863701Y430306D01*
X862300Y434607D01*
X860901Y437507D01*
X858001Y440407D01*
X855101Y441806D01*
X849400Y441806D01*
X846601Y440407D01*
X843701Y437507D01*
X842300Y434607D01*
X842300Y430306D01*
X849400Y430306D02*
G01*
X842300Y430306D01*
X832800Y411707D02*
G01*
X832800Y441806D01*
X832800Y411707D02*
G01*
X812800Y441806D01*
X812800Y411707D02*
G01*
X812800Y441806D01*
X803301Y411707D02*
G01*
X803301Y441806D01*
X803301Y411707D02*
G01*
X793301Y411707D01*
X789000Y413207D01*
X786100Y416006D01*
X784700Y418906D01*
X783301Y423207D01*
X783301Y430306D01*
X784700Y434607D01*
X786100Y437507D01*
X789000Y440407D01*
X793301Y441806D01*
X803301Y441806D01*
X860901Y311707D02*
G01*
X845101Y311707D01*
X853701Y323207D01*
X849400Y323207D01*
X846601Y324607D01*
X845101Y326006D01*
X843701Y330306D01*
X843701Y333207D01*
X845101Y337507D01*
X848001Y340407D01*
X852300Y341806D01*
X856601Y341806D01*
X860901Y340407D01*
X862300Y338906D01*
X863701Y336107D01*
X834201Y311707D02*
G01*
X822800Y341806D01*
X811301Y311707D02*
G01*
X822800Y341806D01*
X863701Y211707D02*
G01*
X852300Y241806D01*
X840801Y211707D02*
G01*
X852300Y241806D01*
X831400Y211707D02*
G01*
X830001Y213207D01*
X828500Y211707D01*
X830001Y210306D01*
X831400Y211707D01*
X830001Y221707D02*
G01*
X830001Y241806D01*
X819101Y221707D02*
G01*
X819101Y241806D01*
X819101Y227507D02*
G01*
X814800Y223207D01*
X811900Y221707D01*
X807601Y221707D01*
X804800Y223207D01*
X803301Y227507D01*
X803301Y241806D01*
X584528Y809980D02*
G01*
X584528Y840079D01*
X584528Y809980D02*
G01*
X574427Y809980D01*
X570127Y811480D01*
X567328Y814279D01*
X565828Y817179D01*
X564427Y821480D01*
X564427Y828679D01*
X565828Y832979D01*
X567328Y835779D01*
X570127Y838679D01*
X574427Y840079D01*
X584528Y840079D01*
X555028Y809980D02*
G01*
X555028Y840079D01*
X555028Y809980D02*
G01*
X542127Y809980D01*
X537827Y811480D01*
X536428Y812880D01*
X534927Y815779D01*
X534927Y818580D01*
X536428Y821480D01*
X537827Y822880D01*
X542127Y824380D01*
X555028Y824380D01*
X544927Y824380D02*
G01*
X534927Y840079D01*
X525527Y809980D02*
G01*
X525527Y840079D01*
X525527Y809980D02*
G01*
X515527Y809980D01*
X511228Y811480D01*
X508328Y814279D01*
X506927Y817179D01*
X505428Y821480D01*
X505428Y828679D01*
X506927Y832979D01*
X508328Y835779D01*
X511228Y838679D01*
X515527Y840079D01*
X525527Y840079D01*
X496028Y809980D02*
G01*
X484528Y824380D01*
X484528Y840079D01*
X473128Y809980D02*
G01*
X484528Y824380D01*
X564528Y709980D02*
G01*
X564528Y740079D01*
X555028Y709980D02*
G01*
X555028Y740079D01*
X555028Y709980D02*
G01*
X535028Y740079D01*
X535028Y709980D02*
G01*
X535028Y740079D01*
X515527Y709980D02*
G01*
X515527Y740079D01*
X525527Y709980D02*
G01*
X505527Y709980D01*
X496028Y709980D02*
G01*
X496028Y740079D01*
X496028Y709980D02*
G01*
X484627Y740079D01*
X473128Y709980D02*
G01*
X484627Y740079D01*
X473128Y709980D02*
G01*
X473128Y740079D01*
X548726Y610079D02*
G01*
X548726Y640079D01*
X539227Y610079D02*
G01*
X539227Y640079D01*
X539227Y610079D02*
G01*
X519227Y640079D01*
X519227Y610079D02*
G01*
X519227Y640079D01*
X499726Y610079D02*
G01*
X499726Y640079D01*
X509726Y610079D02*
G01*
X489726Y610079D01*
X480226Y615779D02*
G01*
X477426Y614380D01*
X473126Y610079D01*
X473126Y640079D01*
X561626Y510079D02*
G01*
X561626Y540079D01*
X552125Y510079D02*
G01*
X552125Y540079D01*
X552125Y510079D02*
G01*
X532125Y540079D01*
X532125Y510079D02*
G01*
X532125Y540079D01*
X512626Y510079D02*
G01*
X512626Y540079D01*
X522626Y510079D02*
G01*
X502626Y510079D01*
X491725Y517179D02*
G01*
X491725Y515779D01*
X490326Y512880D01*
X488825Y511480D01*
X486026Y510079D01*
X480225Y510079D01*
X477426Y511480D01*
X475925Y512880D01*
X474526Y515779D01*
X474526Y518580D01*
X475925Y521480D01*
X478825Y525779D01*
X493126Y540079D01*
X473126Y540079D01*
X550727Y410079D02*
G01*
X550727Y440079D01*
X550727Y410079D02*
G01*
X540727Y410079D01*
X536426Y411480D01*
X533526Y414380D01*
X532127Y417179D01*
X530727Y421480D01*
X530727Y428679D01*
X532127Y432979D01*
X533526Y435779D01*
X536426Y438679D01*
X540727Y440079D01*
X550727Y440079D01*
X521226Y410079D02*
G01*
X521226Y440079D01*
X521226Y410079D02*
G01*
X502627Y410079D01*
X521226Y424380D02*
G01*
X509827Y424380D01*
X521226Y440079D02*
G01*
X502627Y440079D01*
X493227Y410079D02*
G01*
X493227Y440079D01*
X493227Y410079D02*
G01*
X473126Y440079D01*
X473126Y410079D02*
G01*
X473126Y440079D01*
D10*
X1630000Y879600D02*
G01*
X1630000Y910300D01*
X1628000Y916399D01*
X1623900Y920500D01*
X1617700Y922500D01*
X1613599Y922500D01*
X1607500Y920500D01*
X1603400Y916399D01*
X1601400Y910300D01*
X1601400Y879600D01*
X1583800Y879600D02*
G01*
X1561300Y879600D01*
X1573500Y895999D01*
X1567399Y895999D01*
X1563299Y898000D01*
X1561300Y900000D01*
X1559200Y906199D01*
X1559200Y910300D01*
X1561300Y916399D01*
X1565399Y920500D01*
X1571499Y922500D01*
X1577600Y922500D01*
X1583800Y920500D01*
X1585799Y918499D01*
X1587899Y914400D01*
D12*
X1647659Y1773883D02*
G01*
X1610059Y1788184D01*
X1647659Y1773883D02*
G01*
X1610059Y1759583D01*
X1622659Y1782883D02*
G01*
X1622659Y1764983D01*
X1647659Y1726284D02*
G01*
X1610059Y1726284D01*
X1629759Y1726284D02*
G01*
X1633359Y1729884D01*
X1635159Y1733483D01*
X1635159Y1738784D01*
X1633359Y1742384D01*
X1629759Y1745983D01*
X1624458Y1747784D01*
X1620859Y1747784D01*
X1615459Y1745983D01*
X1611859Y1742384D01*
X1610059Y1738784D01*
X1610059Y1733483D01*
X1611859Y1729884D01*
X1615459Y1726284D01*
X1635159Y1692984D02*
G01*
X1610059Y1692984D01*
X1629759Y1692984D02*
G01*
X1633359Y1696583D01*
X1635159Y1700183D01*
X1635159Y1705583D01*
X1633359Y1709083D01*
X1629759Y1712683D01*
X1624458Y1714484D01*
X1620859Y1714484D01*
X1615459Y1712683D01*
X1611859Y1709083D01*
X1610059Y1705583D01*
X1610059Y1700183D01*
X1611859Y1696583D01*
X1615459Y1692984D01*
X1647659Y1666884D02*
G01*
X1647659Y1670484D01*
X1645859Y1674083D01*
X1640559Y1675884D01*
X1610059Y1675884D01*
X1635159Y1681183D02*
G01*
X1635159Y1668683D01*
X1635159Y1655084D02*
G01*
X1610059Y1655084D01*
X1624458Y1655084D02*
G01*
X1629759Y1653283D01*
X1633359Y1649684D01*
X1635159Y1646084D01*
X1635159Y1640783D01*
X1635159Y1628984D02*
G01*
X1617259Y1628984D01*
X1611859Y1627184D01*
X1610059Y1623584D01*
X1610059Y1618184D01*
X1611859Y1614684D01*
X1617259Y1609283D01*
X1635159Y1609283D02*
G01*
X1610059Y1609283D01*
X1647659Y1597483D02*
G01*
X1645859Y1595684D01*
X1647659Y1593883D01*
X1649458Y1595684D01*
X1647659Y1597483D01*
X1635159Y1595684D02*
G01*
X1610059Y1595684D01*
X1647659Y1576684D02*
G01*
X1617259Y1576684D01*
X1611859Y1574884D01*
X1610059Y1571284D01*
X1610059Y1567784D01*
X1635159Y1582083D02*
G01*
X1635159Y1569583D01*
X1635159Y1505084D02*
G01*
X1629759Y1506884D01*
X1626158Y1510484D01*
X1624458Y1515884D01*
X1624458Y1517683D01*
X1626158Y1522984D01*
X1629759Y1526583D01*
X1635159Y1528384D01*
X1636958Y1528384D01*
X1642358Y1526583D01*
X1645859Y1522984D01*
X1647659Y1517683D01*
X1647659Y1515884D01*
X1645859Y1510484D01*
X1642358Y1506884D01*
X1635159Y1505084D01*
X1626158Y1505084D01*
X1617259Y1506884D01*
X1611859Y1510484D01*
X1610059Y1515884D01*
X1610059Y1519384D01*
X1611859Y1524783D01*
X1615459Y1526583D01*
X1626158Y1493283D02*
G01*
X1626158Y1461084D01*
X1647659Y1449283D02*
G01*
X1610059Y1449283D01*
X1647659Y1449283D02*
G01*
X1647659Y1436783D01*
X1645859Y1431383D01*
X1642358Y1427784D01*
X1638759Y1425983D01*
X1633359Y1424184D01*
X1624458Y1424184D01*
X1619058Y1425983D01*
X1615459Y1427784D01*
X1611859Y1431383D01*
X1610059Y1436783D01*
X1610059Y1449283D01*
X1647659Y1401684D02*
G01*
X1645859Y1405284D01*
X1642358Y1408883D01*
X1638759Y1410583D01*
X1633359Y1412384D01*
X1624458Y1412384D01*
X1619058Y1410583D01*
X1615459Y1408883D01*
X1611859Y1405284D01*
X1610059Y1401684D01*
X1610059Y1394484D01*
X1611859Y1390983D01*
X1615459Y1387384D01*
X1619058Y1385583D01*
X1624458Y1383784D01*
X1633359Y1383784D01*
X1638759Y1385583D01*
X1642358Y1387384D01*
X1645859Y1390983D01*
X1647659Y1394484D01*
X1647659Y1401684D01*
X1647659Y1371984D02*
G01*
X1610059Y1371984D01*
X1647659Y1371984D02*
G01*
X1647659Y1348683D01*
X1629759Y1371984D02*
G01*
X1629759Y1357683D01*
X1647659Y1309384D02*
G01*
X1610059Y1309384D01*
X1610059Y1309384D02*
G01*
X1610059Y1287883D01*
X1642358Y1250983D02*
G01*
X1645859Y1254583D01*
X1647659Y1259983D01*
X1647659Y1267083D01*
X1645859Y1272483D01*
X1642358Y1276084D01*
X1638759Y1276084D01*
X1635159Y1274283D01*
X1633359Y1272483D01*
X1631558Y1268883D01*
X1627959Y1258184D01*
X1626158Y1254583D01*
X1624458Y1252784D01*
X1620859Y1250983D01*
X1615459Y1250983D01*
X1611859Y1254583D01*
X1610059Y1259983D01*
X1610059Y1267083D01*
X1611859Y1272483D01*
X1615459Y1276084D01*
X1647659Y1239184D02*
G01*
X1610059Y1239184D01*
X1647659Y1239184D02*
G01*
X1610059Y1224884D01*
X1647659Y1210583D02*
G01*
X1610059Y1224884D01*
X1647659Y1210583D02*
G01*
X1610059Y1210583D01*
X1635159Y1175484D02*
G01*
X1629759Y1177283D01*
X1626158Y1180884D01*
X1624458Y1186183D01*
X1624458Y1187984D01*
X1626158Y1193384D01*
X1629759Y1196984D01*
X1635159Y1198784D01*
X1636958Y1198784D01*
X1642358Y1196984D01*
X1645859Y1193384D01*
X1647659Y1187984D01*
X1647659Y1186183D01*
X1645859Y1180884D01*
X1642358Y1177283D01*
X1635159Y1175484D01*
X1626158Y1175484D01*
X1617259Y1177283D01*
X1611859Y1180884D01*
X1610059Y1186183D01*
X1610059Y1189783D01*
X1611859Y1195183D01*
X1615459Y1196984D01*
X1647659Y1163683D02*
G01*
X1610059Y1163683D01*
X1647659Y1163683D02*
G01*
X1647659Y1151183D01*
X1645859Y1145783D01*
X1642358Y1142184D01*
X1638759Y1140383D01*
X1633359Y1138584D01*
X1624458Y1138584D01*
X1619058Y1140383D01*
X1615459Y1142184D01*
X1611859Y1145783D01*
X1610059Y1151183D01*
X1610059Y1163683D01*
X1642358Y1101783D02*
G01*
X1645859Y1105284D01*
X1647659Y1110684D01*
X1647659Y1117883D01*
X1645859Y1123184D01*
X1642358Y1126783D01*
X1638759Y1126783D01*
X1635159Y1124983D01*
X1633359Y1123184D01*
X1631558Y1119684D01*
X1627959Y1108883D01*
X1626158Y1105284D01*
X1624458Y1103584D01*
X1620859Y1101783D01*
X1615459Y1101783D01*
X1611859Y1105284D01*
X1610059Y1110684D01*
X1610059Y1117883D01*
X1611859Y1123184D01*
X1615459Y1126783D01*
X1640559Y1089983D02*
G01*
X1642358Y1086383D01*
X1647659Y1080983D01*
X1610059Y1080983D01*
D13*
X1823701Y1821707D02*
G01*
X1823701Y1851806D01*
X1823701Y1821707D02*
G01*
X1813701Y1821707D01*
X1809400Y1823107D01*
X1806601Y1826006D01*
X1805101Y1828906D01*
X1803701Y1833207D01*
X1803701Y1840306D01*
X1805101Y1844607D01*
X1806601Y1847507D01*
X1809400Y1850306D01*
X1813701Y1851806D01*
X1823701Y1851806D01*
X1785700Y1821707D02*
G01*
X1788500Y1823107D01*
X1791400Y1826006D01*
X1792800Y1828906D01*
X1794201Y1833207D01*
X1794201Y1840306D01*
X1792800Y1844607D01*
X1791400Y1847507D01*
X1788500Y1850306D01*
X1785700Y1851806D01*
X1779900Y1851806D01*
X1777101Y1850306D01*
X1774201Y1847507D01*
X1772800Y1844607D01*
X1771301Y1840306D01*
X1771301Y1833207D01*
X1772800Y1828906D01*
X1774201Y1826006D01*
X1777101Y1823107D01*
X1779900Y1821707D01*
X1785700Y1821707D01*
X1761900Y1821707D02*
G01*
X1761900Y1851806D01*
X1761900Y1821707D02*
G01*
X1750401Y1851806D01*
X1739000Y1821707D02*
G01*
X1750401Y1851806D01*
X1739000Y1821707D02*
G01*
X1739000Y1851806D01*
X1803701Y1726006D02*
G01*
X1806601Y1723107D01*
X1810901Y1721707D01*
X1816601Y1721707D01*
X1820901Y1723107D01*
X1823701Y1726006D01*
X1823701Y1728906D01*
X1822300Y1731707D01*
X1820901Y1733207D01*
X1818001Y1734607D01*
X1809400Y1737507D01*
X1806601Y1738906D01*
X1805101Y1740306D01*
X1803701Y1743207D01*
X1803701Y1747507D01*
X1806601Y1750306D01*
X1810901Y1751806D01*
X1816601Y1751806D01*
X1820901Y1750306D01*
X1823701Y1747507D01*
X1794201Y1721707D02*
G01*
X1794201Y1751806D01*
X1794201Y1721707D02*
G01*
X1784201Y1721707D01*
X1779900Y1723107D01*
X1777101Y1726006D01*
X1775600Y1728906D01*
X1774201Y1733207D01*
X1774201Y1740306D01*
X1775600Y1744607D01*
X1777101Y1747507D01*
X1779900Y1750306D01*
X1784201Y1751806D01*
X1794201Y1751806D01*
X1756201Y1721707D02*
G01*
X1759000Y1723107D01*
X1761900Y1726006D01*
X1763301Y1728906D01*
X1764800Y1733207D01*
X1764800Y1740306D01*
X1763301Y1744607D01*
X1761900Y1747507D01*
X1759000Y1750306D01*
X1756201Y1751806D01*
X1750401Y1751806D01*
X1747601Y1750306D01*
X1744700Y1747507D01*
X1743301Y1744607D01*
X1741800Y1740306D01*
X1741800Y1733207D01*
X1743301Y1728906D01*
X1744700Y1726006D01*
X1747601Y1723107D01*
X1750401Y1721707D01*
X1756201Y1721707D01*
X1720901Y1721707D02*
G01*
X1732400Y1751806D01*
X1720901Y1721707D02*
G01*
X1709501Y1751806D01*
X1728100Y1741806D02*
G01*
X1713801Y1741806D01*
X1678600Y1728906D02*
G01*
X1680001Y1726006D01*
X1682901Y1723107D01*
X1685700Y1721707D01*
X1691500Y1721707D01*
X1694300Y1723107D01*
X1697200Y1726006D01*
X1698600Y1728906D01*
X1700001Y1733207D01*
X1700001Y1740306D01*
X1698600Y1744607D01*
X1697200Y1747507D01*
X1694300Y1750306D01*
X1691500Y1751806D01*
X1685700Y1751806D01*
X1682901Y1750306D01*
X1680001Y1747507D01*
X1678600Y1744607D01*
X1678600Y1740306D01*
X1685700Y1740306D02*
G01*
X1678600Y1740306D01*
X1802300Y1528906D02*
G01*
X1803701Y1526006D01*
X1806601Y1523107D01*
X1809400Y1521707D01*
X1815101Y1521707D01*
X1818001Y1523107D01*
X1820901Y1526006D01*
X1822300Y1528906D01*
X1823701Y1533207D01*
X1823701Y1540306D01*
X1822300Y1544607D01*
X1820901Y1547507D01*
X1818001Y1550306D01*
X1815101Y1551806D01*
X1809400Y1551806D01*
X1806601Y1550306D01*
X1803701Y1547507D01*
X1802300Y1544607D01*
X1772800Y1526006D02*
G01*
X1775600Y1523107D01*
X1779900Y1521707D01*
X1785700Y1521707D01*
X1790001Y1523107D01*
X1792800Y1526006D01*
X1792800Y1528906D01*
X1791400Y1531707D01*
X1790001Y1533207D01*
X1787101Y1534607D01*
X1778500Y1537507D01*
X1775600Y1538906D01*
X1774201Y1540306D01*
X1772800Y1543207D01*
X1772800Y1547507D01*
X1775600Y1550306D01*
X1779900Y1551806D01*
X1785700Y1551806D01*
X1790001Y1550306D01*
X1792800Y1547507D01*
X1751900Y1521707D02*
G01*
X1763301Y1551806D01*
X1751900Y1521707D02*
G01*
X1740401Y1551806D01*
X1759000Y1541806D02*
G01*
X1744700Y1541806D01*
X1709501Y1528906D02*
G01*
X1710901Y1526006D01*
X1713801Y1523107D01*
X1716701Y1521707D01*
X1722400Y1521707D01*
X1725200Y1523107D01*
X1728100Y1526006D01*
X1729501Y1528906D01*
X1731000Y1533207D01*
X1731000Y1540306D01*
X1729501Y1544607D01*
X1728100Y1547507D01*
X1725200Y1550306D01*
X1722400Y1551806D01*
X1716701Y1551806D01*
X1713801Y1550306D01*
X1710901Y1547507D01*
X1709501Y1544607D01*
X1709501Y1540306D01*
X1716701Y1540306D02*
G01*
X1709501Y1540306D01*
X1802300Y1628906D02*
G01*
X1803701Y1626006D01*
X1806601Y1623107D01*
X1809400Y1621707D01*
X1815101Y1621707D01*
X1818001Y1623107D01*
X1820901Y1626006D01*
X1822300Y1628906D01*
X1823701Y1633207D01*
X1823701Y1640306D01*
X1822300Y1644607D01*
X1820901Y1647507D01*
X1818001Y1650306D01*
X1815101Y1651806D01*
X1809400Y1651806D01*
X1806601Y1650306D01*
X1803701Y1647507D01*
X1802300Y1644607D01*
X1772800Y1626006D02*
G01*
X1775600Y1623107D01*
X1779900Y1621707D01*
X1785700Y1621707D01*
X1790001Y1623107D01*
X1792800Y1626006D01*
X1792800Y1628906D01*
X1791400Y1631707D01*
X1790001Y1633207D01*
X1787101Y1634607D01*
X1778500Y1637507D01*
X1775600Y1638906D01*
X1774201Y1640306D01*
X1772800Y1643207D01*
X1772800Y1647507D01*
X1775600Y1650306D01*
X1779900Y1651806D01*
X1785700Y1651806D01*
X1790001Y1650306D01*
X1792800Y1647507D01*
X1763301Y1621707D02*
G01*
X1763301Y1651806D01*
X1763301Y1621707D02*
G01*
X1751900Y1651806D01*
X1740401Y1621707D02*
G01*
X1751900Y1651806D01*
X1740401Y1621707D02*
G01*
X1740401Y1651806D01*
X1803701Y1426006D02*
G01*
X1806601Y1423107D01*
X1810901Y1421707D01*
X1816601Y1421707D01*
X1820901Y1423107D01*
X1823701Y1426006D01*
X1823701Y1428906D01*
X1822300Y1431707D01*
X1820901Y1433207D01*
X1818001Y1434607D01*
X1809400Y1437507D01*
X1806601Y1438906D01*
X1805101Y1440306D01*
X1803701Y1443207D01*
X1803701Y1447507D01*
X1806601Y1450306D01*
X1810901Y1451806D01*
X1816601Y1451806D01*
X1820901Y1450306D01*
X1823701Y1447507D01*
X1794201Y1421707D02*
G01*
X1794201Y1451806D01*
X1794201Y1421707D02*
G01*
X1784201Y1421707D01*
X1779900Y1423107D01*
X1777101Y1426006D01*
X1775600Y1428906D01*
X1774201Y1433207D01*
X1774201Y1440306D01*
X1775600Y1444607D01*
X1777101Y1447507D01*
X1779900Y1450306D01*
X1784201Y1451806D01*
X1794201Y1451806D01*
X1753301Y1421707D02*
G01*
X1764800Y1451806D01*
X1753301Y1421707D02*
G01*
X1741800Y1451806D01*
X1760501Y1441806D02*
G01*
X1746100Y1441806D01*
X1803701Y1326006D02*
G01*
X1806601Y1323107D01*
X1810901Y1321707D01*
X1816601Y1321707D01*
X1820901Y1323107D01*
X1823701Y1326006D01*
X1823701Y1328906D01*
X1822300Y1331707D01*
X1820901Y1333207D01*
X1818001Y1334607D01*
X1809400Y1337507D01*
X1806601Y1338906D01*
X1805101Y1340306D01*
X1803701Y1343207D01*
X1803701Y1347507D01*
X1806601Y1350306D01*
X1810901Y1351806D01*
X1816601Y1351806D01*
X1820901Y1350306D01*
X1823701Y1347507D01*
X1772800Y1328906D02*
G01*
X1774201Y1326006D01*
X1777101Y1323107D01*
X1779900Y1321707D01*
X1785700Y1321707D01*
X1788500Y1323107D01*
X1791400Y1326006D01*
X1792800Y1328906D01*
X1794201Y1333207D01*
X1794201Y1340306D01*
X1792800Y1344607D01*
X1791400Y1347507D01*
X1788500Y1350306D01*
X1785700Y1351806D01*
X1779900Y1351806D01*
X1777101Y1350306D01*
X1774201Y1347507D01*
X1772800Y1344607D01*
X1763301Y1321707D02*
G01*
X1763301Y1351806D01*
X1763301Y1351806D02*
G01*
X1746100Y1351806D01*
X1802300Y1228906D02*
G01*
X1803701Y1226006D01*
X1806601Y1223207D01*
X1809400Y1221707D01*
X1815101Y1221707D01*
X1818001Y1223207D01*
X1820901Y1226006D01*
X1822300Y1228906D01*
X1823701Y1233207D01*
X1823701Y1240306D01*
X1822300Y1244607D01*
X1820901Y1247507D01*
X1818001Y1250407D01*
X1815101Y1251806D01*
X1809400Y1251806D01*
X1806601Y1250407D01*
X1803701Y1247507D01*
X1802300Y1244607D01*
X1802300Y1240306D01*
X1809400Y1240306D02*
G01*
X1802300Y1240306D01*
X1792800Y1221707D02*
G01*
X1792800Y1251806D01*
X1792800Y1221707D02*
G01*
X1772800Y1251806D01*
X1772800Y1221707D02*
G01*
X1772800Y1251806D01*
X1763301Y1221707D02*
G01*
X1763301Y1251806D01*
X1763301Y1221707D02*
G01*
X1753301Y1221707D01*
X1749000Y1223207D01*
X1746100Y1226006D01*
X1744700Y1228906D01*
X1743301Y1233207D01*
X1743301Y1240306D01*
X1744700Y1244607D01*
X1746100Y1247507D01*
X1749000Y1250407D01*
X1753301Y1251806D01*
X1763301Y1251806D01*
X1820901Y1121707D02*
G01*
X1805101Y1121707D01*
X1813701Y1133207D01*
X1809400Y1133207D01*
X1806601Y1134607D01*
X1805101Y1136006D01*
X1803701Y1140306D01*
X1803701Y1143207D01*
X1805101Y1147507D01*
X1808001Y1150407D01*
X1812300Y1151806D01*
X1816601Y1151806D01*
X1820901Y1150407D01*
X1822300Y1148906D01*
X1823701Y1146107D01*
X1794201Y1121707D02*
G01*
X1782800Y1151806D01*
X1771301Y1121707D02*
G01*
X1782800Y1151806D01*
X1823701Y1021707D02*
G01*
X1812300Y1051806D01*
X1800801Y1021707D02*
G01*
X1812300Y1051806D01*
X1791400Y1021707D02*
G01*
X1790001Y1023207D01*
X1788500Y1021707D01*
X1790001Y1020306D01*
X1791400Y1021707D01*
X1790001Y1031707D02*
G01*
X1790001Y1051806D01*
X1779101Y1031707D02*
G01*
X1779101Y1051806D01*
X1779101Y1037507D02*
G01*
X1774800Y1033207D01*
X1771900Y1031707D01*
X1767601Y1031707D01*
X1764800Y1033207D01*
X1763301Y1037507D01*
X1763301Y1051806D01*
X1544528Y1619980D02*
G01*
X1544528Y1650079D01*
X1544528Y1619980D02*
G01*
X1534427Y1619980D01*
X1530128Y1621480D01*
X1527327Y1624279D01*
X1525828Y1627179D01*
X1524427Y1631480D01*
X1524427Y1638679D01*
X1525828Y1642979D01*
X1527327Y1645779D01*
X1530128Y1648679D01*
X1534427Y1650079D01*
X1544528Y1650079D01*
X1515028Y1619980D02*
G01*
X1515028Y1650079D01*
X1515028Y1619980D02*
G01*
X1502128Y1619980D01*
X1497827Y1621480D01*
X1496427Y1622880D01*
X1494928Y1625779D01*
X1494928Y1628580D01*
X1496427Y1631480D01*
X1497827Y1632880D01*
X1502128Y1634380D01*
X1515028Y1634380D01*
X1504928Y1634380D02*
G01*
X1494928Y1650079D01*
X1485528Y1619980D02*
G01*
X1485528Y1650079D01*
X1485528Y1619980D02*
G01*
X1475528Y1619980D01*
X1471228Y1621480D01*
X1468328Y1624279D01*
X1466927Y1627179D01*
X1465428Y1631480D01*
X1465428Y1638679D01*
X1466927Y1642979D01*
X1468328Y1645779D01*
X1471228Y1648679D01*
X1475528Y1650079D01*
X1485528Y1650079D01*
X1456027Y1619980D02*
G01*
X1444528Y1634380D01*
X1444528Y1650079D01*
X1433127Y1619980D02*
G01*
X1444528Y1634380D01*
X1524528Y1519980D02*
G01*
X1524528Y1550079D01*
X1515028Y1519980D02*
G01*
X1515028Y1550079D01*
X1515028Y1519980D02*
G01*
X1495028Y1550079D01*
X1495028Y1519980D02*
G01*
X1495028Y1550079D01*
X1475528Y1519980D02*
G01*
X1475528Y1550079D01*
X1485528Y1519980D02*
G01*
X1465528Y1519980D01*
X1456027Y1519980D02*
G01*
X1456027Y1550079D01*
X1456027Y1519980D02*
G01*
X1444628Y1550079D01*
X1433127Y1519980D02*
G01*
X1444628Y1550079D01*
X1433127Y1519980D02*
G01*
X1433127Y1550079D01*
X1508726Y1420079D02*
G01*
X1508726Y1450079D01*
X1499227Y1420079D02*
G01*
X1499227Y1450079D01*
X1499227Y1420079D02*
G01*
X1479227Y1450079D01*
X1479227Y1420079D02*
G01*
X1479227Y1450079D01*
X1459727Y1420079D02*
G01*
X1459727Y1450079D01*
X1469727Y1420079D02*
G01*
X1449727Y1420079D01*
X1440227Y1425779D02*
G01*
X1437426Y1424380D01*
X1433127Y1420079D01*
X1433127Y1450079D01*
X1521625Y1320079D02*
G01*
X1521625Y1350079D01*
X1512125Y1320079D02*
G01*
X1512125Y1350079D01*
X1512125Y1320079D02*
G01*
X1492125Y1350079D01*
X1492125Y1320079D02*
G01*
X1492125Y1350079D01*
X1472626Y1320079D02*
G01*
X1472626Y1350079D01*
X1482626Y1320079D02*
G01*
X1462626Y1320079D01*
X1451725Y1327179D02*
G01*
X1451725Y1325779D01*
X1450325Y1322880D01*
X1448825Y1321480D01*
X1446026Y1320079D01*
X1440226Y1320079D01*
X1437425Y1321480D01*
X1435925Y1322880D01*
X1434525Y1325779D01*
X1434525Y1328580D01*
X1435925Y1331480D01*
X1438825Y1335779D01*
X1453126Y1350079D01*
X1433126Y1350079D01*
X1510726Y1220079D02*
G01*
X1510726Y1250079D01*
X1510726Y1220079D02*
G01*
X1500726Y1220079D01*
X1496427Y1221480D01*
X1493527Y1224380D01*
X1492127Y1227179D01*
X1490726Y1231480D01*
X1490726Y1238679D01*
X1492127Y1242979D01*
X1493527Y1245779D01*
X1496427Y1248679D01*
X1500726Y1250079D01*
X1510726Y1250079D01*
X1481226Y1220079D02*
G01*
X1481226Y1250079D01*
X1481226Y1220079D02*
G01*
X1462627Y1220079D01*
X1481226Y1234380D02*
G01*
X1469826Y1234380D01*
X1481226Y1250079D02*
G01*
X1462627Y1250079D01*
X1453226Y1220079D02*
G01*
X1453226Y1250079D01*
X1453226Y1220079D02*
G01*
X1433127Y1250079D01*
X1433127Y1220079D02*
G01*
X1433127Y1250079D01*
D10*
X1460000Y975399D02*
G01*
X1460000Y944699D01*
X1461999Y938600D01*
X1466099Y934499D01*
X1472299Y932500D01*
X1476400Y932500D01*
X1482500Y934499D01*
X1486599Y938600D01*
X1488599Y944699D01*
X1488599Y975399D01*
X1526700Y969299D02*
G01*
X1524600Y973400D01*
X1518500Y975399D01*
X1514399Y975399D01*
X1508299Y973400D01*
X1504200Y967199D01*
X1502100Y956999D01*
X1502100Y946799D01*
X1504200Y938600D01*
X1508299Y934499D01*
X1514399Y932500D01*
X1516499Y932500D01*
X1522600Y934499D01*
X1526700Y938600D01*
X1528699Y944699D01*
X1528699Y946799D01*
X1526700Y952899D01*
X1522600Y956999D01*
X1516499Y959000D01*
X1514399Y959000D01*
X1508299Y956999D01*
X1504200Y952899D01*
X1502100Y946799D01*
D11*
X1250000Y635700D02*
G01*
X1250000Y559400D01*
X1250000Y635700D02*
G01*
X1282700Y635700D01*
X1293599Y632100D01*
X1297299Y628499D01*
X1300900Y621199D01*
X1300900Y613899D01*
X1297299Y606599D01*
X1293599Y603000D01*
X1282700Y599400D01*
X1250000Y599400D02*
G01*
X1282700Y599400D01*
X1293599Y595700D01*
X1297299Y592100D01*
X1300900Y584800D01*
X1300900Y573899D01*
X1297299Y566599D01*
X1293599Y563000D01*
X1282700Y559400D01*
X1250000Y559400D01*
X1324899Y635700D02*
G01*
X1324899Y559400D01*
X1324899Y635700D02*
G01*
X1353999Y559400D01*
X1383100Y635700D02*
G01*
X1353999Y559400D01*
X1383100Y635700D02*
G01*
X1383100Y559400D01*
X1407100Y635700D02*
G01*
X1407100Y559400D01*
X1407100Y635700D02*
G01*
X1439799Y635700D01*
X1450699Y632100D01*
X1454399Y628499D01*
X1458000Y621199D01*
X1458000Y610300D01*
X1454399Y603000D01*
X1450699Y599400D01*
X1439799Y595700D01*
X1407100Y595700D01*
X1489300Y635700D02*
G01*
X1529300Y635700D01*
X1507500Y606599D01*
X1518400Y606599D01*
X1525600Y603000D01*
X1529300Y599400D01*
X1532899Y588499D01*
X1532899Y581199D01*
X1529300Y570300D01*
X1521999Y563000D01*
X1511099Y559400D01*
X1500200Y559400D01*
X1489300Y563000D01*
X1485600Y566599D01*
X1481999Y573899D01*
X1604200Y610300D02*
G01*
X1600500Y599400D01*
X1593299Y592100D01*
X1582399Y588499D01*
X1578699Y588499D01*
X1567799Y592100D01*
X1560500Y599400D01*
X1556899Y610300D01*
X1556899Y613899D01*
X1560500Y624800D01*
X1567799Y632100D01*
X1578699Y635700D01*
X1582399Y635700D01*
X1593299Y632100D01*
X1600500Y624800D01*
X1604200Y610300D01*
X1604200Y592100D01*
X1600500Y573899D01*
X1593299Y563000D01*
X1582399Y559400D01*
X1575100Y559400D01*
X1564200Y563000D01*
X1560500Y570300D01*
X1650000Y635700D02*
G01*
X1639099Y632100D01*
X1631800Y621199D01*
X1628199Y603000D01*
X1628199Y592100D01*
X1631800Y573899D01*
X1639099Y563000D01*
X1650000Y559400D01*
X1657299Y559400D01*
X1668199Y563000D01*
X1675500Y573899D01*
X1679099Y592100D01*
X1679099Y603000D01*
X1675500Y621199D01*
X1668199Y632100D01*
X1657299Y635700D01*
X1650000Y635700D01*
D14*
X1303599Y310500D02*
G01*
X1302700Y312300D01*
X1300900Y314099D01*
X1299099Y315000D01*
X1295500Y315000D01*
X1293599Y314099D01*
X1291800Y312300D01*
X1290900Y310500D01*
X1290000Y307699D01*
X1290000Y303200D01*
X1290900Y300500D01*
X1291800Y298600D01*
X1293599Y296799D01*
X1295500Y295900D01*
X1299099Y295900D01*
X1300900Y296799D01*
X1302700Y298600D01*
X1303599Y300500D01*
X1303599Y303200D01*
X1299099Y303200D02*
G01*
X1303599Y303200D01*
X1309600Y315000D02*
G01*
X1309600Y295900D01*
X1309600Y315000D02*
G01*
X1322399Y295900D01*
X1322399Y315000D02*
G01*
X1322399Y295900D01*
X1328400Y315000D02*
G01*
X1328400Y295900D01*
X1328400Y315000D02*
G01*
X1334700Y315000D01*
X1337500Y314099D01*
X1339300Y312300D01*
X1340200Y310500D01*
X1341099Y307699D01*
X1341099Y303200D01*
X1340200Y300500D01*
X1339300Y298600D01*
X1337500Y296799D01*
X1334700Y295900D01*
X1328400Y295900D01*
X1095000Y315000D02*
G01*
X1102299Y295900D01*
X1109499Y315000D02*
G01*
X1102299Y295900D01*
X1115500Y315000D02*
G01*
X1115500Y295900D01*
X1121499Y315000D02*
G01*
X1121499Y295900D01*
X1121499Y315000D02*
G01*
X1134300Y295900D01*
X1134300Y315000D02*
G01*
X1134300Y295900D01*
X1201800Y315000D02*
G01*
X1211800Y315000D01*
X1206400Y307699D01*
X1209099Y307699D01*
X1210900Y306799D01*
X1211800Y305900D01*
X1212700Y303200D01*
X1212700Y301399D01*
X1211800Y298600D01*
X1210000Y296799D01*
X1207299Y295900D01*
X1204499Y295900D01*
X1201800Y296799D01*
X1200900Y297699D01*
X1200000Y299600D01*
X1218699Y315000D02*
G01*
X1226000Y295900D01*
X1233299Y315000D02*
G01*
X1226000Y295900D01*
X1402700Y312300D02*
G01*
X1400900Y314099D01*
X1398199Y315000D01*
X1394499Y315000D01*
X1391800Y314099D01*
X1390000Y312300D01*
X1390000Y310500D01*
X1390900Y308600D01*
X1391800Y307699D01*
X1393599Y306799D01*
X1399099Y305000D01*
X1400900Y304099D01*
X1401800Y303200D01*
X1402700Y301399D01*
X1402700Y298600D01*
X1400900Y296799D01*
X1398199Y295900D01*
X1394499Y295900D01*
X1391800Y296799D01*
X1390000Y298600D01*
X1422399Y310500D02*
G01*
X1421499Y312300D01*
X1419600Y314099D01*
X1417799Y315000D01*
X1414200Y315000D01*
X1412399Y314099D01*
X1410500Y312300D01*
X1409600Y310500D01*
X1408699Y307699D01*
X1408699Y303200D01*
X1409600Y300500D01*
X1410500Y298600D01*
X1412399Y296799D01*
X1414200Y295900D01*
X1417799Y295900D01*
X1419600Y296799D01*
X1421499Y298600D01*
X1422399Y300500D01*
X1428400Y315000D02*
G01*
X1428400Y295900D01*
X1441099Y315000D02*
G01*
X1428400Y302300D01*
X1432899Y306799D02*
G01*
X1441099Y295900D01*
X1502700Y312300D02*
G01*
X1500900Y314099D01*
X1498199Y315000D01*
X1494499Y315000D01*
X1491800Y314099D01*
X1490000Y312300D01*
X1490000Y310500D01*
X1490900Y308600D01*
X1491800Y307699D01*
X1493599Y306799D01*
X1499099Y305000D01*
X1500900Y304099D01*
X1501800Y303200D01*
X1502700Y301399D01*
X1502700Y298600D01*
X1500900Y296799D01*
X1498199Y295900D01*
X1494499Y295900D01*
X1491800Y296799D01*
X1490000Y298600D01*
X1508699Y315000D02*
G01*
X1508699Y295900D01*
X1508699Y315000D02*
G01*
X1515100Y315000D01*
X1517799Y314099D01*
X1519600Y312300D01*
X1520500Y310500D01*
X1521499Y307699D01*
X1521499Y303200D01*
X1520500Y300500D01*
X1519600Y298600D01*
X1517799Y296799D01*
X1515100Y295900D01*
X1508699Y295900D01*
X1532899Y315000D02*
G01*
X1531099Y314099D01*
X1529300Y312300D01*
X1528400Y310500D01*
X1527500Y307699D01*
X1527500Y303200D01*
X1528400Y300500D01*
X1529300Y298600D01*
X1531099Y296799D01*
X1532899Y295900D01*
X1536499Y295900D01*
X1538400Y296799D01*
X1540200Y298600D01*
X1541099Y300500D01*
X1541999Y303200D01*
X1541999Y307699D01*
X1541099Y310500D01*
X1540200Y312300D01*
X1538400Y314099D01*
X1536499Y315000D01*
X1532899Y315000D01*
X1607700Y312300D02*
G01*
X1605900Y314099D01*
X1603199Y315000D01*
X1599499Y315000D01*
X1596800Y314099D01*
X1595000Y312300D01*
X1595000Y310500D01*
X1595900Y308600D01*
X1596800Y307699D01*
X1598599Y306799D01*
X1604099Y305000D01*
X1605900Y304099D01*
X1606800Y303200D01*
X1607700Y301399D01*
X1607700Y298600D01*
X1605900Y296799D01*
X1603199Y295900D01*
X1599499Y295900D01*
X1596800Y296799D01*
X1595000Y298600D01*
X1613699Y315000D02*
G01*
X1613699Y295900D01*
X1613699Y315000D02*
G01*
X1620100Y315000D01*
X1622799Y314099D01*
X1624600Y312300D01*
X1625500Y310500D01*
X1626499Y307699D01*
X1626499Y303200D01*
X1625500Y300500D01*
X1624600Y298600D01*
X1622799Y296799D01*
X1620100Y295900D01*
X1613699Y295900D01*
X1632500Y315000D02*
G01*
X1632500Y295900D01*
X1713599Y310500D02*
G01*
X1712700Y312300D01*
X1710900Y314099D01*
X1709099Y315000D01*
X1705500Y315000D01*
X1703599Y314099D01*
X1701800Y312300D01*
X1700900Y310500D01*
X1700000Y307699D01*
X1700000Y303200D01*
X1700900Y300500D01*
X1701800Y298600D01*
X1703599Y296799D01*
X1705500Y295900D01*
X1709099Y295900D01*
X1710900Y296799D01*
X1712700Y298600D01*
X1713599Y300500D01*
X1732399Y312300D02*
G01*
X1730500Y314099D01*
X1727799Y315000D01*
X1724200Y315000D01*
X1721499Y314099D01*
X1719600Y312300D01*
X1719600Y310500D01*
X1720500Y308600D01*
X1721499Y307699D01*
X1723299Y306799D01*
X1728699Y305000D01*
X1730500Y304099D01*
X1731499Y303200D01*
X1732399Y301399D01*
X1732399Y298600D01*
X1730500Y296799D01*
X1727799Y295900D01*
X1724200Y295900D01*
X1721499Y296799D01*
X1719600Y298600D01*
X1800000Y315000D02*
G01*
X1800000Y295900D01*
X1806000Y315000D02*
G01*
X1806000Y295900D01*
X1806000Y315000D02*
G01*
X1818699Y295900D01*
X1818699Y315000D02*
G01*
X1818699Y295900D01*
X1831099Y315000D02*
G01*
X1831099Y295900D01*
X1824700Y315000D02*
G01*
X1837500Y315000D01*
D10*
X835000Y1850399D02*
G01*
X835000Y1819699D01*
X836999Y1813600D01*
X841099Y1809499D01*
X847299Y1807500D01*
X851400Y1807500D01*
X857500Y1809499D01*
X861599Y1813600D01*
X863599Y1819699D01*
X863599Y1850399D01*
X905799Y1850399D02*
G01*
X885299Y1807500D01*
X877100Y1850399D02*
G01*
X905799Y1850399D01*
D11*
X625000Y1510599D02*
G01*
X625000Y1434299D01*
X625000Y1510599D02*
G01*
X657699Y1510599D01*
X668600Y1506999D01*
X672300Y1503400D01*
X675900Y1496100D01*
X675900Y1488800D01*
X672300Y1481500D01*
X668600Y1477899D01*
X657699Y1474299D01*
X625000Y1474299D02*
G01*
X657699Y1474299D01*
X668600Y1470599D01*
X672300Y1466999D01*
X675900Y1459699D01*
X675900Y1448800D01*
X672300Y1441500D01*
X668600Y1437899D01*
X657699Y1434299D01*
X625000Y1434299D01*
X699899Y1510599D02*
G01*
X699899Y1434299D01*
X699899Y1510599D02*
G01*
X729000Y1434299D01*
X758099Y1510599D02*
G01*
X729000Y1434299D01*
X758099Y1510599D02*
G01*
X758099Y1434299D01*
X782100Y1510599D02*
G01*
X782100Y1434299D01*
X782100Y1510599D02*
G01*
X814799Y1510599D01*
X825699Y1506999D01*
X829399Y1503400D01*
X833000Y1496100D01*
X833000Y1485199D01*
X829399Y1477899D01*
X825699Y1474299D01*
X814799Y1470599D01*
X782100Y1470599D01*
X864300Y1510599D02*
G01*
X904300Y1510599D01*
X882500Y1481500D01*
X893400Y1481500D01*
X900600Y1477899D01*
X904300Y1474299D01*
X907899Y1463400D01*
X907899Y1456100D01*
X904300Y1445199D01*
X896999Y1437899D01*
X886099Y1434299D01*
X875200Y1434299D01*
X864300Y1437899D01*
X860600Y1441500D01*
X856999Y1448800D01*
X950100Y1510599D02*
G01*
X939200Y1506999D01*
X935500Y1499699D01*
X935500Y1492500D01*
X939200Y1485199D01*
X946499Y1481500D01*
X961000Y1477899D01*
X971899Y1474299D01*
X979200Y1466999D01*
X982799Y1459699D01*
X982799Y1448800D01*
X979200Y1441500D01*
X975500Y1437899D01*
X964600Y1434299D01*
X950100Y1434299D01*
X939200Y1437899D01*
X935500Y1441500D01*
X931899Y1448800D01*
X931899Y1459699D01*
X935500Y1466999D01*
X942799Y1474299D01*
X953699Y1477899D01*
X968299Y1481500D01*
X975500Y1485199D01*
X979200Y1492500D01*
X979200Y1499699D01*
X975500Y1506999D01*
X964600Y1510599D01*
X950100Y1510599D01*
X1025000Y1510599D02*
G01*
X1014099Y1506999D01*
X1010500Y1499699D01*
X1010500Y1492500D01*
X1014099Y1485199D01*
X1021400Y1481500D01*
X1035900Y1477899D01*
X1046800Y1474299D01*
X1054099Y1466999D01*
X1057700Y1459699D01*
X1057700Y1448800D01*
X1054099Y1441500D01*
X1050500Y1437899D01*
X1039499Y1434299D01*
X1025000Y1434299D01*
X1014099Y1437899D01*
X1010500Y1441500D01*
X1006800Y1448800D01*
X1006800Y1459699D01*
X1010500Y1466999D01*
X1017700Y1474299D01*
X1028599Y1477899D01*
X1043199Y1481500D01*
X1050500Y1485199D01*
X1054099Y1492500D01*
X1054099Y1499699D01*
X1050500Y1506999D01*
X1039499Y1510599D01*
X1025000Y1510599D01*
D14*
X678600Y1185500D02*
G01*
X677699Y1187300D01*
X675900Y1189099D01*
X674099Y1190000D01*
X670500Y1190000D01*
X668600Y1189099D01*
X666799Y1187300D01*
X665900Y1185500D01*
X665000Y1182699D01*
X665000Y1178200D01*
X665900Y1175500D01*
X666799Y1173600D01*
X668600Y1171799D01*
X670500Y1170900D01*
X674099Y1170900D01*
X675900Y1171799D01*
X677699Y1173600D01*
X678600Y1175500D01*
X678600Y1178200D01*
X674099Y1178200D02*
G01*
X678600Y1178200D01*
X684600Y1190000D02*
G01*
X684600Y1170900D01*
X684600Y1190000D02*
G01*
X697399Y1170900D01*
X697399Y1190000D02*
G01*
X697399Y1170900D01*
X703400Y1190000D02*
G01*
X703400Y1170900D01*
X703400Y1190000D02*
G01*
X709699Y1190000D01*
X712500Y1189099D01*
X714299Y1187300D01*
X715199Y1185500D01*
X716100Y1182699D01*
X716100Y1178200D01*
X715199Y1175500D01*
X714299Y1173600D01*
X712500Y1171799D01*
X709699Y1170900D01*
X703400Y1170900D01*
X470000Y1190000D02*
G01*
X477300Y1170900D01*
X484499Y1190000D02*
G01*
X477300Y1170900D01*
X490500Y1190000D02*
G01*
X490500Y1170900D01*
X496500Y1190000D02*
G01*
X496500Y1170900D01*
X496500Y1190000D02*
G01*
X509299Y1170900D01*
X509299Y1190000D02*
G01*
X509299Y1170900D01*
X576799Y1190000D02*
G01*
X586799Y1190000D01*
X581399Y1182699D01*
X584099Y1182699D01*
X585900Y1181799D01*
X586799Y1180900D01*
X587699Y1178200D01*
X587699Y1176399D01*
X586799Y1173600D01*
X585000Y1171799D01*
X582300Y1170900D01*
X579499Y1170900D01*
X576799Y1171799D01*
X575900Y1172699D01*
X575000Y1174600D01*
X593699Y1190000D02*
G01*
X600999Y1170900D01*
X608299Y1190000D02*
G01*
X600999Y1170900D01*
X777700Y1187300D02*
G01*
X775900Y1189099D01*
X773199Y1190000D01*
X769499Y1190000D01*
X766800Y1189099D01*
X765000Y1187300D01*
X765000Y1185500D01*
X765900Y1183600D01*
X766800Y1182699D01*
X768599Y1181799D01*
X774099Y1180000D01*
X775900Y1179099D01*
X776800Y1178200D01*
X777700Y1176399D01*
X777700Y1173600D01*
X775900Y1171799D01*
X773199Y1170900D01*
X769499Y1170900D01*
X766800Y1171799D01*
X765000Y1173600D01*
X797399Y1185500D02*
G01*
X796499Y1187300D01*
X794600Y1189099D01*
X792799Y1190000D01*
X789200Y1190000D01*
X787399Y1189099D01*
X785500Y1187300D01*
X784600Y1185500D01*
X783699Y1182699D01*
X783699Y1178200D01*
X784600Y1175500D01*
X785500Y1173600D01*
X787399Y1171799D01*
X789200Y1170900D01*
X792799Y1170900D01*
X794600Y1171799D01*
X796499Y1173600D01*
X797399Y1175500D01*
X803400Y1190000D02*
G01*
X803400Y1170900D01*
X816099Y1190000D02*
G01*
X803400Y1177300D01*
X807899Y1181799D02*
G01*
X816099Y1170900D01*
X877700Y1187300D02*
G01*
X875900Y1189099D01*
X873199Y1190000D01*
X869499Y1190000D01*
X866800Y1189099D01*
X865000Y1187300D01*
X865000Y1185500D01*
X865900Y1183600D01*
X866800Y1182699D01*
X868599Y1181799D01*
X874099Y1180000D01*
X875900Y1179099D01*
X876800Y1178200D01*
X877700Y1176399D01*
X877700Y1173600D01*
X875900Y1171799D01*
X873199Y1170900D01*
X869499Y1170900D01*
X866800Y1171799D01*
X865000Y1173600D01*
X883699Y1190000D02*
G01*
X883699Y1170900D01*
X883699Y1190000D02*
G01*
X890100Y1190000D01*
X892799Y1189099D01*
X894600Y1187300D01*
X895500Y1185500D01*
X896499Y1182699D01*
X896499Y1178200D01*
X895500Y1175500D01*
X894600Y1173600D01*
X892799Y1171799D01*
X890100Y1170900D01*
X883699Y1170900D01*
X907899Y1190000D02*
G01*
X906099Y1189099D01*
X904300Y1187300D01*
X903400Y1185500D01*
X902500Y1182699D01*
X902500Y1178200D01*
X903400Y1175500D01*
X904300Y1173600D01*
X906099Y1171799D01*
X907899Y1170900D01*
X911499Y1170900D01*
X913400Y1171799D01*
X915200Y1173600D01*
X916099Y1175500D01*
X916999Y1178200D01*
X916999Y1182699D01*
X916099Y1185500D01*
X915200Y1187300D01*
X913400Y1189099D01*
X911499Y1190000D01*
X907899Y1190000D01*
X982700Y1187300D02*
G01*
X980900Y1189099D01*
X978199Y1190000D01*
X974499Y1190000D01*
X971800Y1189099D01*
X970000Y1187300D01*
X970000Y1185500D01*
X970900Y1183600D01*
X971800Y1182699D01*
X973599Y1181799D01*
X979099Y1180000D01*
X980900Y1179099D01*
X981800Y1178200D01*
X982700Y1176399D01*
X982700Y1173600D01*
X980900Y1171799D01*
X978199Y1170900D01*
X974499Y1170900D01*
X971800Y1171799D01*
X970000Y1173600D01*
X988699Y1190000D02*
G01*
X988699Y1170900D01*
X988699Y1190000D02*
G01*
X995100Y1190000D01*
X997799Y1189099D01*
X999600Y1187300D01*
X1000500Y1185500D01*
X1001499Y1182699D01*
X1001499Y1178200D01*
X1000500Y1175500D01*
X999600Y1173600D01*
X997799Y1171799D01*
X995100Y1170900D01*
X988699Y1170900D01*
X1007500Y1190000D02*
G01*
X1007500Y1170900D01*
X1088599Y1185500D02*
G01*
X1087700Y1187300D01*
X1085900Y1189099D01*
X1084099Y1190000D01*
X1080500Y1190000D01*
X1078599Y1189099D01*
X1076800Y1187300D01*
X1075900Y1185500D01*
X1075000Y1182699D01*
X1075000Y1178200D01*
X1075900Y1175500D01*
X1076800Y1173600D01*
X1078599Y1171799D01*
X1080500Y1170900D01*
X1084099Y1170900D01*
X1085900Y1171799D01*
X1087700Y1173600D01*
X1088599Y1175500D01*
X1107399Y1187300D02*
G01*
X1105500Y1189099D01*
X1102799Y1190000D01*
X1099200Y1190000D01*
X1096499Y1189099D01*
X1094600Y1187300D01*
X1094600Y1185500D01*
X1095500Y1183600D01*
X1096499Y1182699D01*
X1098299Y1181799D01*
X1103699Y1180000D01*
X1105500Y1179099D01*
X1106499Y1178200D01*
X1107399Y1176399D01*
X1107399Y1173600D01*
X1105500Y1171799D01*
X1102799Y1170900D01*
X1099200Y1170900D01*
X1096499Y1171799D01*
X1094600Y1173600D01*
X1175000Y1190000D02*
G01*
X1175000Y1170900D01*
X1181000Y1190000D02*
G01*
X1181000Y1170900D01*
X1181000Y1190000D02*
G01*
X1193699Y1170900D01*
X1193699Y1190000D02*
G01*
X1193699Y1170900D01*
X1206099Y1190000D02*
G01*
X1206099Y1170900D01*
X1199700Y1190000D02*
G01*
X1212500Y1190000D01*
D10*
X3139600Y715999D02*
G01*
X3182500Y715999D01*
X3139600Y715999D02*
G01*
X3139600Y734400D01*
X3141599Y740500D01*
X3143699Y742600D01*
X3147799Y744600D01*
X3151899Y744600D01*
X3156000Y742600D01*
X3158000Y740500D01*
X3160000Y734400D01*
X3160000Y715999D02*
G01*
X3160000Y734400D01*
X3162100Y740500D01*
X3164099Y742600D01*
X3168199Y744600D01*
X3174399Y744600D01*
X3178500Y742600D01*
X3180500Y740500D01*
X3182500Y734400D01*
X3182500Y715999D01*
X3147799Y758099D02*
G01*
X3145699Y762199D01*
X3139600Y768400D01*
X3182500Y768400D01*
X2014600Y1575000D02*
G01*
X2057500Y1575000D01*
X2014600Y1575000D02*
G01*
X2014600Y1593400D01*
X2016599Y1599499D01*
X2018699Y1601599D01*
X2022799Y1603600D01*
X2026899Y1603600D01*
X2031000Y1601599D01*
X2033000Y1599499D01*
X2035000Y1593400D01*
X2035000Y1575000D02*
G01*
X2035000Y1593400D01*
X2037100Y1599499D01*
X2039099Y1601599D01*
X2043199Y1603600D01*
X2049399Y1603600D01*
X2053500Y1601599D01*
X2055500Y1599499D01*
X2057500Y1593400D01*
X2057500Y1575000D01*
X2014600Y1617100D02*
G01*
X2045299Y1617100D01*
X2051400Y1619200D01*
X2055500Y1623299D01*
X2057500Y1629400D01*
X2057500Y1633499D01*
X2055500Y1639600D01*
X2051400Y1643699D01*
X2045299Y1645799D01*
X2014600Y1645799D01*
X2014600Y1687899D02*
G01*
X2057500Y1659299D01*
X2014600Y1659299D02*
G01*
X2014600Y1687899D01*
X2057500Y1659299D02*
G01*
X2057500Y1687899D01*
X2014600Y1730000D02*
G01*
X2057500Y1701399D01*
X2014600Y1701399D02*
G01*
X2014600Y1730000D01*
X2057500Y1701399D02*
G01*
X2057500Y1730000D01*
X2014600Y1743499D02*
G01*
X2057500Y1743499D01*
X2014600Y1743499D02*
G01*
X2014600Y1770100D01*
X2035000Y1743499D02*
G01*
X2035000Y1759899D01*
X2057500Y1743499D02*
G01*
X2057500Y1770100D01*
X2014600Y1783600D02*
G01*
X2057500Y1783600D01*
X2014600Y1783600D02*
G01*
X2014600Y1801999D01*
X2016599Y1808200D01*
X2018699Y1810199D01*
X2022799Y1812300D01*
X2026899Y1812300D01*
X2031000Y1810199D01*
X2033000Y1808200D01*
X2035000Y1801999D01*
X2035000Y1783600D01*
X2035000Y1798000D02*
G01*
X2057500Y1812300D01*
X3905399Y1260000D02*
G01*
X3862500Y1260000D01*
X3905399Y1260000D02*
G01*
X3905399Y1233400D01*
X3885000Y1260000D02*
G01*
X3885000Y1243600D01*
X3895200Y1217899D02*
G01*
X3897200Y1217899D01*
X3901300Y1215799D01*
X3903400Y1213800D01*
X3905399Y1209699D01*
X3905399Y1201500D01*
X3903400Y1197399D01*
X3901300Y1195399D01*
X3897200Y1193299D01*
X3893100Y1193299D01*
X3888999Y1195399D01*
X3882899Y1199499D01*
X3862500Y1219899D01*
X3862500Y1191300D01*
X3848100Y1177800D02*
G01*
X3848100Y1140999D01*
X3895200Y1125399D02*
G01*
X3897200Y1125399D01*
X3901300Y1123400D01*
X3903400Y1121300D01*
X3905399Y1117199D01*
X3905399Y1109000D01*
X3903400Y1105000D01*
X3901300Y1102899D01*
X3897200Y1100900D01*
X3893100Y1100900D01*
X3888999Y1102899D01*
X3882899Y1106999D01*
X3862500Y1127500D01*
X3862500Y1098800D01*
X3760000Y194600D02*
G01*
X3760000Y237500D01*
X3760000Y194600D02*
G01*
X3733400Y194600D01*
X3760000Y215000D02*
G01*
X3743599Y215000D01*
X3717899Y204800D02*
G01*
X3717899Y202800D01*
X3715799Y198699D01*
X3713800Y196599D01*
X3709700Y194600D01*
X3701499Y194600D01*
X3697399Y196599D01*
X3695399Y198699D01*
X3693299Y202800D01*
X3693299Y206900D01*
X3695399Y210999D01*
X3699499Y217100D01*
X3719899Y237500D01*
X3691300Y237500D01*
X3677799Y251900D02*
G01*
X3641000Y251900D01*
X3606999Y194600D02*
G01*
X3627500Y223200D01*
X3596800Y223200D01*
X3606999Y194600D02*
G01*
X3606999Y237500D01*
X2799020Y1504299D02*
G01*
X2803119Y1506399D01*
X2807219Y1510500D01*
X2809219Y1514499D01*
X2809219Y1522699D01*
X2807219Y1526799D01*
X2803119Y1530900D01*
X2799020Y1533000D01*
X2792820Y1535000D01*
X2782619Y1535000D01*
X2776520Y1533000D01*
X2772420Y1530900D01*
X2768320Y1526799D01*
X2766319Y1522699D01*
X2766319Y1514499D01*
X2768320Y1510500D01*
X2772420Y1506399D01*
X2776520Y1504299D01*
X2782619Y1504299D01*
X2782619Y1514499D02*
G01*
X2782619Y1504299D01*
X2809219Y1490799D02*
G01*
X2766319Y1490799D01*
X2809219Y1490799D02*
G01*
X2809219Y1472399D01*
X2807219Y1466300D01*
X2805119Y1464200D01*
X2801019Y1462199D01*
X2794920Y1462199D01*
X2790820Y1464200D01*
X2788819Y1466300D01*
X2786719Y1472399D01*
X2786719Y1490799D01*
X2803119Y1420000D02*
G01*
X2807219Y1424099D01*
X2809219Y1430300D01*
X2809219Y1438499D01*
X2807219Y1444600D01*
X2803119Y1448699D01*
X2799020Y1448699D01*
X2794920Y1446599D01*
X2792820Y1444600D01*
X2790820Y1440500D01*
X2786719Y1428200D01*
X2784719Y1424099D01*
X2782619Y1422100D01*
X2778519Y1420000D01*
X2772420Y1420000D01*
X2768320Y1424099D01*
X2766319Y1430300D01*
X2766319Y1438499D01*
X2768320Y1444600D01*
X2772420Y1448699D01*
X2751920Y1406500D02*
G01*
X2751920Y1369699D01*
X2809219Y1356199D02*
G01*
X2766319Y1356199D01*
X2809219Y1356199D02*
G01*
X2809219Y1337800D01*
X2807219Y1331700D01*
X2805119Y1329600D01*
X2801019Y1327600D01*
X2796920Y1327600D01*
X2792820Y1329600D01*
X2790820Y1331700D01*
X2788819Y1337800D01*
X2788819Y1356199D01*
X2788819Y1341900D02*
G01*
X2766319Y1327600D01*
X2809219Y1314099D02*
G01*
X2766319Y1285500D01*
X2809219Y1285500D02*
G01*
X2766319Y1314099D01*
X2799020Y1269899D02*
G01*
X2801019Y1269899D01*
X2805119Y1267899D01*
X2807219Y1265799D01*
X2809219Y1261700D01*
X2809219Y1253499D01*
X2807219Y1249499D01*
X2805119Y1247399D01*
X2801019Y1245399D01*
X2796920Y1245399D01*
X2792820Y1247399D01*
X2786719Y1251500D01*
X2766319Y1271999D01*
X2766319Y1243299D01*
X2809219Y1215500D02*
G01*
X2766319Y1215500D01*
X2809219Y1229800D02*
G01*
X2809219Y1201199D01*
X2809219Y1187699D02*
G01*
X2766319Y1159000D01*
X2809219Y1159000D02*
G01*
X2766319Y1187699D01*
X2751920Y1145500D02*
G01*
X2751920Y1108699D01*
X2809219Y1095199D02*
G01*
X2766319Y1095199D01*
X2766319Y1095199D02*
G01*
X2766319Y1070700D01*
X2809219Y1057199D02*
G01*
X2766319Y1057199D01*
X2809219Y1057199D02*
G01*
X2809219Y1030599D01*
X2788819Y1057199D02*
G01*
X2788819Y1040799D01*
X2766319Y1057199D02*
G01*
X2766319Y1030599D01*
X2809219Y1017100D02*
G01*
X2766319Y1017100D01*
X2809219Y1017100D02*
G01*
X2809219Y1002800D01*
X2807219Y996599D01*
X2803119Y992500D01*
X2799020Y990500D01*
X2792820Y988499D01*
X2782619Y988499D01*
X2776520Y990500D01*
X2772420Y992500D01*
X2768320Y996599D01*
X2766319Y1002800D01*
X2766319Y1017100D01*
X2899300Y1239800D02*
G01*
X2901400Y1235700D01*
X2905500Y1231599D01*
X2909499Y1229600D01*
X2917700Y1229600D01*
X2921800Y1231599D01*
X2925900Y1235700D01*
X2928000Y1239800D01*
X2930000Y1245999D01*
X2930000Y1256199D01*
X2928000Y1262300D01*
X2925900Y1266399D01*
X2921800Y1270500D01*
X2917700Y1272500D01*
X2909499Y1272500D01*
X2905500Y1270500D01*
X2901400Y1266399D01*
X2899300Y1262300D01*
X2899300Y1256199D01*
X2909499Y1256199D02*
G01*
X2899300Y1256199D01*
X2885799Y1229600D02*
G01*
X2885799Y1272500D01*
X2885799Y1229600D02*
G01*
X2867399Y1229600D01*
X2861300Y1231599D01*
X2859200Y1233699D01*
X2857200Y1237800D01*
X2857200Y1243899D01*
X2859200Y1248000D01*
X2861300Y1250000D01*
X2867399Y1252100D01*
X2885799Y1252100D01*
X2815000Y1235700D02*
G01*
X2819099Y1231599D01*
X2825299Y1229600D01*
X2833500Y1229600D01*
X2839600Y1231599D01*
X2843699Y1235700D01*
X2843699Y1239800D01*
X2841599Y1243899D01*
X2839600Y1245999D01*
X2835500Y1248000D01*
X2823199Y1252100D01*
X2819099Y1254099D01*
X2817100Y1256199D01*
X2815000Y1260300D01*
X2815000Y1266399D01*
X2819099Y1270500D01*
X2825299Y1272500D01*
X2833500Y1272500D01*
X2839600Y1270500D01*
X2843699Y1266399D01*
X2801499Y1286900D02*
G01*
X2764700Y1286900D01*
X2751199Y1229600D02*
G01*
X2751199Y1272500D01*
X2751199Y1229600D02*
G01*
X2732799Y1229600D01*
X2726700Y1231599D01*
X2724600Y1233699D01*
X2722600Y1237800D01*
X2722600Y1241900D01*
X2724600Y1245999D01*
X2726700Y1248000D01*
X2732799Y1250000D01*
X2751199Y1250000D01*
X2736899Y1250000D02*
G01*
X2722600Y1272500D01*
X2709099Y1229600D02*
G01*
X2680500Y1272500D01*
X2680500Y1229600D02*
G01*
X2709099Y1272500D01*
X2664899Y1239800D02*
G01*
X2664899Y1237800D01*
X2662899Y1233699D01*
X2660799Y1231599D01*
X2656700Y1229600D01*
X2648500Y1229600D01*
X2644499Y1231599D01*
X2642399Y1233699D01*
X2640399Y1237800D01*
X2640399Y1241900D01*
X2642399Y1245999D01*
X2646499Y1252100D01*
X2666999Y1272500D01*
X2638299Y1272500D01*
X2610500Y1229600D02*
G01*
X2610500Y1272500D01*
X2624799Y1229600D02*
G01*
X2596199Y1229600D01*
X2582700Y1229600D02*
G01*
X2553999Y1272500D01*
X2553999Y1229600D02*
G01*
X2582700Y1272500D01*
X2540500Y1286900D02*
G01*
X2503699Y1286900D01*
X2490200Y1229600D02*
G01*
X2490200Y1272500D01*
X2490200Y1229600D02*
G01*
X2471800Y1229600D01*
X2465699Y1231599D01*
X2463599Y1233699D01*
X2461599Y1237800D01*
X2461599Y1241900D01*
X2463599Y1245999D01*
X2465699Y1248000D01*
X2471800Y1250000D01*
X2490200Y1250000D01*
X2475900Y1250000D02*
G01*
X2461599Y1272500D01*
X2729020Y1289299D02*
G01*
X2733119Y1291399D01*
X2737219Y1295500D01*
X2739219Y1299499D01*
X2739219Y1307699D01*
X2737219Y1311799D01*
X2733119Y1315900D01*
X2729020Y1318000D01*
X2722820Y1320000D01*
X2712619Y1320000D01*
X2706520Y1318000D01*
X2702420Y1315900D01*
X2698320Y1311799D01*
X2696319Y1307699D01*
X2696319Y1299499D01*
X2698320Y1295500D01*
X2702420Y1291399D01*
X2706520Y1289299D01*
X2712619Y1289299D01*
X2712619Y1299499D02*
G01*
X2712619Y1289299D01*
X2739219Y1275799D02*
G01*
X2696319Y1275799D01*
X2739219Y1275799D02*
G01*
X2739219Y1257399D01*
X2737219Y1251300D01*
X2735119Y1249200D01*
X2731019Y1247199D01*
X2724920Y1247199D01*
X2720820Y1249200D01*
X2718819Y1251300D01*
X2716719Y1257399D01*
X2716719Y1275799D01*
X2733119Y1205000D02*
G01*
X2737219Y1209099D01*
X2739219Y1215300D01*
X2739219Y1223499D01*
X2737219Y1229600D01*
X2733119Y1233699D01*
X2729020Y1233699D01*
X2724920Y1231599D01*
X2722820Y1229600D01*
X2720820Y1225500D01*
X2716719Y1213200D01*
X2714719Y1209099D01*
X2712619Y1207100D01*
X2708519Y1205000D01*
X2702420Y1205000D01*
X2698320Y1209099D01*
X2696319Y1215300D01*
X2696319Y1223499D01*
X2698320Y1229600D01*
X2702420Y1233699D01*
X2681920Y1191500D02*
G01*
X2681920Y1154699D01*
X2739219Y1126900D02*
G01*
X2696319Y1126900D01*
X2739219Y1141199D02*
G01*
X2739219Y1112600D01*
X2739219Y1099099D02*
G01*
X2696319Y1070500D01*
X2739219Y1070500D02*
G01*
X2696319Y1099099D01*
X2729020Y1054899D02*
G01*
X2731019Y1054899D01*
X2735119Y1052899D01*
X2737219Y1050799D01*
X2739219Y1046700D01*
X2739219Y1038499D01*
X2737219Y1034499D01*
X2735119Y1032399D01*
X2731019Y1030399D01*
X2726920Y1030399D01*
X2722820Y1032399D01*
X2716719Y1036500D01*
X2696319Y1056999D01*
X2696319Y1028299D01*
X2739219Y1014800D02*
G01*
X2696319Y1014800D01*
X2739219Y1014800D02*
G01*
X2739219Y996399D01*
X2737219Y990300D01*
X2735119Y988200D01*
X2731019Y986199D01*
X2726920Y986199D01*
X2722820Y988200D01*
X2720820Y990300D01*
X2718819Y996399D01*
X2718819Y1014800D01*
X2718819Y1000500D02*
G01*
X2696319Y986199D01*
X2739219Y972699D02*
G01*
X2696319Y944000D01*
X2739219Y944000D02*
G01*
X2696319Y972699D01*
X2681920Y930500D02*
G01*
X2681920Y893699D01*
X2739219Y880199D02*
G01*
X2696319Y880199D01*
X2696319Y880199D02*
G01*
X2696319Y855700D01*
X2739219Y842199D02*
G01*
X2696319Y842199D01*
X2739219Y842199D02*
G01*
X2739219Y815599D01*
X2718819Y842199D02*
G01*
X2718819Y825799D01*
X2696319Y842199D02*
G01*
X2696319Y815599D01*
X2739219Y802100D02*
G01*
X2696319Y802100D01*
X2739219Y802100D02*
G01*
X2739219Y787800D01*
X2737219Y781599D01*
X2733119Y777500D01*
X2729020Y775500D01*
X2722820Y773499D01*
X2712619Y773499D01*
X2706520Y775500D01*
X2702420Y777500D01*
X2698320Y781599D01*
X2696319Y787800D01*
X2696319Y802100D01*
X2899300Y1144800D02*
G01*
X2901400Y1140700D01*
X2905500Y1136599D01*
X2909499Y1134600D01*
X2917700Y1134600D01*
X2921800Y1136599D01*
X2925900Y1140700D01*
X2928000Y1144800D01*
X2930000Y1150999D01*
X2930000Y1161199D01*
X2928000Y1167300D01*
X2925900Y1171399D01*
X2921800Y1175500D01*
X2917700Y1177500D01*
X2909499Y1177500D01*
X2905500Y1175500D01*
X2901400Y1171399D01*
X2899300Y1167300D01*
X2899300Y1161199D01*
X2909499Y1161199D02*
G01*
X2899300Y1161199D01*
X2885799Y1134600D02*
G01*
X2885799Y1177500D01*
X2885799Y1134600D02*
G01*
X2867399Y1134600D01*
X2861300Y1136599D01*
X2859200Y1138699D01*
X2857200Y1142800D01*
X2857200Y1148899D01*
X2859200Y1153000D01*
X2861300Y1155000D01*
X2867399Y1157100D01*
X2885799Y1157100D01*
X2815000Y1140700D02*
G01*
X2819099Y1136599D01*
X2825299Y1134600D01*
X2833500Y1134600D01*
X2839600Y1136599D01*
X2843699Y1140700D01*
X2843699Y1144800D01*
X2841599Y1148899D01*
X2839600Y1150999D01*
X2835500Y1153000D01*
X2823199Y1157100D01*
X2819099Y1159099D01*
X2817100Y1161199D01*
X2815000Y1165300D01*
X2815000Y1171399D01*
X2819099Y1175500D01*
X2825299Y1177500D01*
X2833500Y1177500D01*
X2839600Y1175500D01*
X2843699Y1171399D01*
X2801499Y1191900D02*
G01*
X2764700Y1191900D01*
X2736899Y1134600D02*
G01*
X2736899Y1177500D01*
X2751199Y1134600D02*
G01*
X2722600Y1134600D01*
X2709099Y1134600D02*
G01*
X2680500Y1177500D01*
X2680500Y1134600D02*
G01*
X2709099Y1177500D01*
X2664899Y1144800D02*
G01*
X2664899Y1142800D01*
X2662899Y1138699D01*
X2660799Y1136599D01*
X2656700Y1134600D01*
X2648500Y1134600D01*
X2644499Y1136599D01*
X2642399Y1138699D01*
X2640399Y1142800D01*
X2640399Y1146900D01*
X2642399Y1150999D01*
X2646499Y1157100D01*
X2666999Y1177500D01*
X2638299Y1177500D01*
X2624799Y1134600D02*
G01*
X2624799Y1177500D01*
X2624799Y1134600D02*
G01*
X2606400Y1134600D01*
X2600299Y1136599D01*
X2598199Y1138699D01*
X2596199Y1142800D01*
X2596199Y1146900D01*
X2598199Y1150999D01*
X2600299Y1153000D01*
X2606400Y1155000D01*
X2624799Y1155000D01*
X2610500Y1155000D02*
G01*
X2596199Y1177500D01*
X2582700Y1134600D02*
G01*
X2553999Y1177500D01*
X2553999Y1134600D02*
G01*
X2582700Y1177500D01*
X2540500Y1191900D02*
G01*
X2503699Y1191900D01*
X2490200Y1134600D02*
G01*
X2490200Y1177500D01*
X2490200Y1134600D02*
G01*
X2471800Y1134600D01*
X2465699Y1136599D01*
X2463599Y1138699D01*
X2461599Y1142800D01*
X2461599Y1146900D01*
X2463599Y1150999D01*
X2465699Y1153000D01*
X2471800Y1155000D01*
X2490200Y1155000D01*
X2475900Y1155000D02*
G01*
X2461599Y1177500D01*
X3485945Y357800D02*
G01*
X3485945Y314899D01*
X3485945Y357800D02*
G01*
X3502344Y314899D01*
X3518644Y357800D02*
G01*
X3502344Y314899D01*
X3518644Y357800D02*
G01*
X3518644Y314899D01*
X3548545Y357800D02*
G01*
X3532145Y314899D01*
X3548545Y357800D02*
G01*
X3564944Y314899D01*
X3538344Y329200D02*
G01*
X3558744Y329200D01*
X3578445Y357800D02*
G01*
X3578445Y314899D01*
X3591944Y357800D02*
G01*
X3591944Y314899D01*
X3591944Y357800D02*
G01*
X3620545Y314899D01*
X3620545Y357800D02*
G01*
X3620545Y314899D01*
X3662645Y351700D02*
G01*
X3658545Y355799D01*
X3652444Y357800D01*
X3644245Y357800D01*
X3638145Y355799D01*
X3634044Y351700D01*
X3634044Y347600D01*
X3636045Y343499D01*
X3638145Y341399D01*
X3642245Y339400D01*
X3654444Y335300D01*
X3658545Y333299D01*
X3660645Y331199D01*
X3662645Y327100D01*
X3662645Y320999D01*
X3658545Y316900D01*
X3652444Y314899D01*
X3644245Y314899D01*
X3638145Y316900D01*
X3634044Y320999D01*
X3676144Y357800D02*
G01*
X3686445Y314899D01*
X3696644Y357800D02*
G01*
X3686445Y314899D01*
X3696644Y357800D02*
G01*
X3706845Y314899D01*
X3717044Y357800D02*
G01*
X3706845Y314899D01*
X3730545Y357800D02*
G01*
X3730545Y314899D01*
X3758445Y357800D02*
G01*
X3758445Y314899D01*
X3744044Y357800D02*
G01*
X3772745Y357800D01*
X3816944Y347600D02*
G01*
X3814844Y351700D01*
X3810744Y355799D01*
X3806644Y357800D01*
X3798445Y357800D01*
X3794444Y355799D01*
X3790344Y351700D01*
X3788244Y347600D01*
X3786244Y341399D01*
X3786244Y331199D01*
X3788244Y325100D01*
X3790344Y320999D01*
X3794444Y316900D01*
X3798445Y314899D01*
X3806644Y314899D01*
X3810744Y316900D01*
X3814844Y320999D01*
X3816944Y325100D01*
X3830444Y357800D02*
G01*
X3830444Y314899D01*
X3859044Y357800D02*
G01*
X3859044Y314899D01*
X3830444Y337399D02*
G01*
X3859044Y337399D01*
X3872545Y349600D02*
G01*
X3876644Y351700D01*
X3882745Y357800D01*
X3882745Y314899D01*
X2969600Y1570000D02*
G01*
X3012500Y1570000D01*
X2969600Y1570000D02*
G01*
X2969600Y1588400D01*
X2971599Y1594499D01*
X2973699Y1596599D01*
X2977799Y1598600D01*
X2981899Y1598600D01*
X2986000Y1596599D01*
X2988000Y1594499D01*
X2990000Y1588400D01*
X2990000Y1570000D01*
X2990000Y1584299D02*
G01*
X3012500Y1598600D01*
X2977799Y1612100D02*
G01*
X2975699Y1616199D01*
X2969600Y1622399D01*
X3012500Y1622399D01*
X2864600Y1570000D02*
G01*
X2907500Y1570000D01*
X2864600Y1570000D02*
G01*
X2864600Y1588400D01*
X2866599Y1594499D01*
X2868699Y1596599D01*
X2872799Y1598600D01*
X2876899Y1598600D01*
X2881000Y1596599D01*
X2883000Y1594499D01*
X2885000Y1588400D01*
X2885000Y1570000D01*
X2885000Y1584299D02*
G01*
X2907500Y1598600D01*
X2874799Y1614200D02*
G01*
X2872799Y1614200D01*
X2868699Y1616199D01*
X2866599Y1618299D01*
X2864600Y1622399D01*
X2864600Y1630500D01*
X2866599Y1634600D01*
X2868699Y1636700D01*
X2872799Y1638699D01*
X2876899Y1638699D01*
X2881000Y1636700D01*
X2887100Y1632600D01*
X2907500Y1612100D01*
X2907500Y1640799D01*
X2200000Y1325399D02*
G01*
X2200000Y1282500D01*
X2200000Y1325399D02*
G01*
X2218400Y1325399D01*
X2224499Y1323400D01*
X2226599Y1321300D01*
X2228599Y1317199D01*
X2228599Y1313099D01*
X2226599Y1309000D01*
X2224499Y1306999D01*
X2218400Y1305000D01*
X2200000Y1305000D01*
X2214300Y1305000D02*
G01*
X2228599Y1282500D01*
X2242100Y1325399D02*
G01*
X2242100Y1282500D01*
X2242100Y1325399D02*
G01*
X2260500Y1325399D01*
X2266700Y1323400D01*
X2268699Y1321300D01*
X2270799Y1317199D01*
X2270799Y1313099D01*
X2268699Y1309000D01*
X2266700Y1306999D01*
X2260500Y1305000D01*
X2242100Y1305000D02*
G01*
X2260500Y1305000D01*
X2266700Y1302899D01*
X2268699Y1300900D01*
X2270799Y1296799D01*
X2270799Y1290599D01*
X2268699Y1286500D01*
X2266700Y1284499D01*
X2260500Y1282500D01*
X2242100Y1282500D01*
X2284300Y1325399D02*
G01*
X2284300Y1294699D01*
X2286300Y1288600D01*
X2290399Y1284499D01*
X2296499Y1282500D01*
X2300600Y1282500D01*
X2306800Y1284499D01*
X2310900Y1288600D01*
X2312899Y1294699D01*
X2312899Y1325399D01*
X2355000Y1325399D02*
G01*
X2326400Y1282500D01*
X2326400Y1325399D02*
G01*
X2355000Y1325399D01*
X2326400Y1282500D02*
G01*
X2355000Y1282500D01*
X2397200Y1325399D02*
G01*
X2368500Y1282500D01*
X2368500Y1325399D02*
G01*
X2397200Y1325399D01*
X2368500Y1282500D02*
G01*
X2397200Y1282500D01*
X178600Y2124299D02*
G01*
X174499Y2128400D01*
X168400Y2130399D01*
X160199Y2130399D01*
X154099Y2128400D01*
X150000Y2124299D01*
X150000Y2120200D01*
X151999Y2116100D01*
X154099Y2114000D01*
X158200Y2111999D01*
X170500Y2107899D01*
X174499Y2105900D01*
X176599Y2103800D01*
X178600Y2099699D01*
X178600Y2093600D01*
X174499Y2089499D01*
X168400Y2087500D01*
X160199Y2087500D01*
X154099Y2089499D01*
X150000Y2093600D01*
X192100Y2130399D02*
G01*
X192100Y2087500D01*
X192100Y2130399D02*
G01*
X210500Y2130399D01*
X216700Y2128400D01*
X218699Y2126300D01*
X220799Y2122199D01*
X220799Y2118099D01*
X218699Y2114000D01*
X216700Y2111999D01*
X210500Y2110000D01*
X192100Y2110000D01*
X206500Y2110000D02*
G01*
X220799Y2087500D01*
X234299Y2130399D02*
G01*
X250599Y2087500D01*
X266999Y2130399D02*
G01*
X250599Y2087500D01*
X292800Y2130399D02*
G01*
X286599Y2128400D01*
X282500Y2122199D01*
X280500Y2111999D01*
X280500Y2105900D01*
X282500Y2095599D01*
X286599Y2089499D01*
X292800Y2087500D01*
X296900Y2087500D01*
X303000Y2089499D01*
X307100Y2095599D01*
X309099Y2105900D01*
X309099Y2111999D01*
X307100Y2122199D01*
X303000Y2128400D01*
X296900Y2130399D01*
X292800Y2130399D01*
X178600Y2024299D02*
G01*
X174499Y2028400D01*
X168400Y2030399D01*
X160199Y2030399D01*
X154099Y2028400D01*
X150000Y2024299D01*
X150000Y2020199D01*
X151999Y2016100D01*
X154099Y2014000D01*
X158200Y2011999D01*
X170500Y2007899D01*
X174499Y2005900D01*
X176599Y2003800D01*
X178600Y1999699D01*
X178600Y1993600D01*
X174499Y1989499D01*
X168400Y1987500D01*
X160199Y1987500D01*
X154099Y1989499D01*
X150000Y1993600D01*
X192100Y2030399D02*
G01*
X192100Y1987500D01*
X192100Y2030399D02*
G01*
X210500Y2030399D01*
X216700Y2028400D01*
X218699Y2026300D01*
X220799Y2022199D01*
X220799Y2018099D01*
X218699Y2014000D01*
X216700Y2011999D01*
X210500Y2010000D01*
X192100Y2010000D01*
X206500Y2010000D02*
G01*
X220799Y1987500D01*
X234299Y2030399D02*
G01*
X250599Y1987500D01*
X266999Y2030399D02*
G01*
X250599Y1987500D01*
X280500Y2022199D02*
G01*
X284600Y2024299D01*
X290700Y2030399D01*
X290700Y1987500D01*
X178600Y1924299D02*
G01*
X174499Y1928400D01*
X168400Y1930399D01*
X160199Y1930399D01*
X154099Y1928400D01*
X150000Y1924299D01*
X150000Y1920199D01*
X151999Y1916100D01*
X154099Y1914000D01*
X158200Y1911999D01*
X170500Y1907899D01*
X174499Y1905900D01*
X176599Y1903800D01*
X178600Y1899699D01*
X178600Y1893600D01*
X174499Y1889499D01*
X168400Y1887500D01*
X160199Y1887500D01*
X154099Y1889499D01*
X150000Y1893600D01*
X192100Y1930399D02*
G01*
X192100Y1887500D01*
X192100Y1930399D02*
G01*
X210500Y1930399D01*
X216700Y1928400D01*
X218699Y1926300D01*
X220799Y1922199D01*
X220799Y1918099D01*
X218699Y1914000D01*
X216700Y1911999D01*
X210500Y1910000D01*
X192100Y1910000D01*
X206500Y1910000D02*
G01*
X220799Y1887500D01*
X234299Y1930399D02*
G01*
X250599Y1887500D01*
X266999Y1930399D02*
G01*
X250599Y1887500D01*
X282500Y1920199D02*
G01*
X282500Y1922199D01*
X284600Y1926300D01*
X286599Y1928400D01*
X290700Y1930399D01*
X298899Y1930399D01*
X303000Y1928400D01*
X305000Y1926300D01*
X307100Y1922199D01*
X307100Y1918099D01*
X305000Y1914000D01*
X300999Y1907899D01*
X280500Y1887500D01*
X309099Y1887500D01*
X178600Y1259299D02*
G01*
X174499Y1263400D01*
X168400Y1265399D01*
X160199Y1265399D01*
X154099Y1263400D01*
X150000Y1259299D01*
X150000Y1255199D01*
X151999Y1251100D01*
X154099Y1249000D01*
X158200Y1246999D01*
X170500Y1242899D01*
X174499Y1240900D01*
X176599Y1238800D01*
X178600Y1234699D01*
X178600Y1228600D01*
X174499Y1224499D01*
X168400Y1222500D01*
X160199Y1222500D01*
X154099Y1224499D01*
X150000Y1228600D01*
X192100Y1265399D02*
G01*
X192100Y1222500D01*
X192100Y1265399D02*
G01*
X210500Y1265399D01*
X216700Y1263400D01*
X218699Y1261300D01*
X220799Y1257199D01*
X220799Y1253099D01*
X218699Y1249000D01*
X216700Y1246999D01*
X210500Y1245000D01*
X192100Y1245000D01*
X206500Y1245000D02*
G01*
X220799Y1222500D01*
X234299Y1265399D02*
G01*
X250599Y1222500D01*
X266999Y1265399D02*
G01*
X250599Y1222500D01*
X284600Y1265399D02*
G01*
X307100Y1265399D01*
X294800Y1249000D01*
X300999Y1249000D01*
X305000Y1246999D01*
X307100Y1245000D01*
X309099Y1238800D01*
X309099Y1234699D01*
X307100Y1228600D01*
X303000Y1224499D01*
X296900Y1222500D01*
X290700Y1222500D01*
X284600Y1224499D01*
X282500Y1226500D01*
X280500Y1230599D01*
X178600Y1159299D02*
G01*
X174499Y1163400D01*
X168400Y1165399D01*
X160199Y1165399D01*
X154099Y1163400D01*
X150000Y1159299D01*
X150000Y1155199D01*
X151999Y1151100D01*
X154099Y1149000D01*
X158200Y1146999D01*
X170500Y1142899D01*
X174499Y1140900D01*
X176599Y1138800D01*
X178600Y1134699D01*
X178600Y1128600D01*
X174499Y1124499D01*
X168400Y1122500D01*
X160199Y1122500D01*
X154099Y1124499D01*
X150000Y1128600D01*
X192100Y1165399D02*
G01*
X192100Y1122500D01*
X192100Y1165399D02*
G01*
X210500Y1165399D01*
X216700Y1163400D01*
X218699Y1161300D01*
X220799Y1157199D01*
X220799Y1153099D01*
X218699Y1149000D01*
X216700Y1146999D01*
X210500Y1145000D01*
X192100Y1145000D01*
X206500Y1145000D02*
G01*
X220799Y1122500D01*
X234299Y1165399D02*
G01*
X250599Y1122500D01*
X266999Y1165399D02*
G01*
X250599Y1122500D01*
X300999Y1165399D02*
G01*
X280500Y1136799D01*
X311199Y1136799D01*
X300999Y1165399D02*
G01*
X300999Y1122500D01*
X178600Y1059299D02*
G01*
X174499Y1063400D01*
X168400Y1065399D01*
X160199Y1065399D01*
X154099Y1063400D01*
X150000Y1059299D01*
X150000Y1055199D01*
X151999Y1051100D01*
X154099Y1049000D01*
X158200Y1046999D01*
X170500Y1042899D01*
X174499Y1040900D01*
X176599Y1038800D01*
X178600Y1034699D01*
X178600Y1028600D01*
X174499Y1024499D01*
X168400Y1022500D01*
X160199Y1022500D01*
X154099Y1024499D01*
X150000Y1028600D01*
X192100Y1065399D02*
G01*
X192100Y1022500D01*
X192100Y1065399D02*
G01*
X210500Y1065399D01*
X216700Y1063400D01*
X218699Y1061300D01*
X220799Y1057199D01*
X220799Y1053099D01*
X218699Y1049000D01*
X216700Y1046999D01*
X210500Y1045000D01*
X192100Y1045000D01*
X206500Y1045000D02*
G01*
X220799Y1022500D01*
X234299Y1065399D02*
G01*
X250599Y1022500D01*
X266999Y1065399D02*
G01*
X250599Y1022500D01*
X305000Y1065399D02*
G01*
X284600Y1065399D01*
X282500Y1046999D01*
X284600Y1049000D01*
X290700Y1051100D01*
X296900Y1051100D01*
X303000Y1049000D01*
X307100Y1045000D01*
X309099Y1038800D01*
X309099Y1034699D01*
X307100Y1028600D01*
X303000Y1024499D01*
X296900Y1022500D01*
X290700Y1022500D01*
X284600Y1024499D01*
X282500Y1026500D01*
X280500Y1030599D01*
X178600Y959299D02*
G01*
X174499Y963400D01*
X168400Y965399D01*
X160199Y965399D01*
X154099Y963400D01*
X150000Y959299D01*
X150000Y955199D01*
X151999Y951100D01*
X154099Y949000D01*
X158200Y946999D01*
X170500Y942899D01*
X174499Y940900D01*
X176599Y938800D01*
X178600Y934699D01*
X178600Y928600D01*
X174499Y924499D01*
X168400Y922500D01*
X160199Y922500D01*
X154099Y924499D01*
X150000Y928600D01*
X192100Y965399D02*
G01*
X192100Y922500D01*
X192100Y965399D02*
G01*
X210500Y965399D01*
X216700Y963400D01*
X218699Y961300D01*
X220799Y957199D01*
X220799Y953099D01*
X218699Y949000D01*
X216700Y946999D01*
X210500Y945000D01*
X192100Y945000D01*
X206500Y945000D02*
G01*
X220799Y922500D01*
X234299Y965399D02*
G01*
X250599Y922500D01*
X266999Y965399D02*
G01*
X250599Y922500D01*
X305000Y959299D02*
G01*
X303000Y963400D01*
X296900Y965399D01*
X292800Y965399D01*
X286599Y963400D01*
X282500Y957199D01*
X280500Y946999D01*
X280500Y936799D01*
X282500Y928600D01*
X286599Y924499D01*
X292800Y922500D01*
X294800Y922500D01*
X300999Y924499D01*
X305000Y928600D01*
X307100Y934699D01*
X307100Y936799D01*
X305000Y942899D01*
X300999Y946999D01*
X294800Y949000D01*
X292800Y949000D01*
X286599Y946999D01*
X282500Y942899D01*
X280500Y936799D01*
X178600Y859299D02*
G01*
X174499Y863400D01*
X168400Y865399D01*
X160199Y865399D01*
X154099Y863400D01*
X150000Y859299D01*
X150000Y855199D01*
X151999Y851100D01*
X154099Y849000D01*
X158200Y846999D01*
X170500Y842899D01*
X174499Y840900D01*
X176599Y838800D01*
X178600Y834699D01*
X178600Y828600D01*
X174499Y824499D01*
X168400Y822500D01*
X160199Y822500D01*
X154099Y824499D01*
X150000Y828600D01*
X192100Y865399D02*
G01*
X192100Y822500D01*
X192100Y865399D02*
G01*
X210500Y865399D01*
X216700Y863400D01*
X218699Y861300D01*
X220799Y857199D01*
X220799Y853099D01*
X218699Y849000D01*
X216700Y846999D01*
X210500Y845000D01*
X192100Y845000D01*
X206500Y845000D02*
G01*
X220799Y822500D01*
X234299Y865399D02*
G01*
X250599Y822500D01*
X266999Y865399D02*
G01*
X250599Y822500D01*
X309099Y865399D02*
G01*
X288699Y822500D01*
X280500Y865399D02*
G01*
X309099Y865399D01*
X178600Y759299D02*
G01*
X174499Y763400D01*
X168400Y765399D01*
X160199Y765399D01*
X154099Y763400D01*
X150000Y759299D01*
X150000Y755199D01*
X151999Y751100D01*
X154099Y749000D01*
X158200Y746999D01*
X170500Y742899D01*
X174499Y740900D01*
X176599Y738800D01*
X178600Y734699D01*
X178600Y728600D01*
X174499Y724499D01*
X168400Y722500D01*
X160199Y722500D01*
X154099Y724499D01*
X150000Y728600D01*
X192100Y765399D02*
G01*
X192100Y722500D01*
X192100Y765399D02*
G01*
X210500Y765399D01*
X216700Y763400D01*
X218699Y761300D01*
X220799Y757199D01*
X220799Y753099D01*
X218699Y749000D01*
X216700Y746999D01*
X210500Y745000D01*
X192100Y745000D01*
X206500Y745000D02*
G01*
X220799Y722500D01*
X234299Y765399D02*
G01*
X250599Y722500D01*
X266999Y765399D02*
G01*
X250599Y722500D01*
X290700Y765399D02*
G01*
X284600Y763400D01*
X282500Y759299D01*
X282500Y755199D01*
X284600Y751100D01*
X288699Y749000D01*
X296900Y746999D01*
X303000Y745000D01*
X307100Y740900D01*
X309099Y736799D01*
X309099Y730599D01*
X307100Y726500D01*
X305000Y724499D01*
X298899Y722500D01*
X290700Y722500D01*
X284600Y724499D01*
X282500Y726500D01*
X280500Y730599D01*
X280500Y736799D01*
X282500Y740900D01*
X286599Y745000D01*
X292800Y746999D01*
X300999Y749000D01*
X305000Y751100D01*
X307100Y755199D01*
X307100Y759299D01*
X305000Y763400D01*
X298899Y765399D01*
X290700Y765399D01*
X178600Y659299D02*
G01*
X174499Y663400D01*
X168400Y665399D01*
X160199Y665399D01*
X154099Y663400D01*
X150000Y659299D01*
X150000Y655199D01*
X151999Y651100D01*
X154099Y649000D01*
X158200Y646999D01*
X170500Y642899D01*
X174499Y640900D01*
X176599Y638800D01*
X178600Y634699D01*
X178600Y628600D01*
X174499Y624499D01*
X168400Y622500D01*
X160199Y622500D01*
X154099Y624499D01*
X150000Y628600D01*
X192100Y665399D02*
G01*
X192100Y622500D01*
X192100Y665399D02*
G01*
X210500Y665399D01*
X216700Y663400D01*
X218699Y661300D01*
X220799Y657199D01*
X220799Y653099D01*
X218699Y649000D01*
X216700Y646999D01*
X210500Y645000D01*
X192100Y645000D01*
X206500Y645000D02*
G01*
X220799Y622500D01*
X234299Y665399D02*
G01*
X250599Y622500D01*
X266999Y665399D02*
G01*
X250599Y622500D01*
X307100Y651100D02*
G01*
X305000Y645000D01*
X300999Y640900D01*
X294800Y638800D01*
X292800Y638800D01*
X286599Y640900D01*
X282500Y645000D01*
X280500Y651100D01*
X280500Y653099D01*
X282500Y659299D01*
X286599Y663400D01*
X292800Y665399D01*
X294800Y665399D01*
X300999Y663400D01*
X305000Y659299D01*
X307100Y651100D01*
X307100Y640900D01*
X305000Y630599D01*
X300999Y624499D01*
X294800Y622500D01*
X290700Y622500D01*
X284600Y624499D01*
X282500Y628600D01*
X2706386Y1595700D02*
G01*
X2710486Y1591599D01*
X2716585Y1589600D01*
X2724786Y1589600D01*
X2730886Y1591599D01*
X2734985Y1595700D01*
X2734985Y1599800D01*
X2732986Y1603899D01*
X2730886Y1605999D01*
X2726786Y1608000D01*
X2714485Y1612100D01*
X2710486Y1614099D01*
X2708386Y1616199D01*
X2706386Y1620300D01*
X2706386Y1626399D01*
X2710486Y1630500D01*
X2716585Y1632500D01*
X2724786Y1632500D01*
X2730886Y1630500D01*
X2734985Y1626399D01*
X2692885Y1589600D02*
G01*
X2682586Y1632500D01*
X2672385Y1589600D02*
G01*
X2682586Y1632500D01*
X2672385Y1589600D02*
G01*
X2662186Y1632500D01*
X2651985Y1589600D02*
G01*
X2662186Y1632500D01*
X2638486Y1597800D02*
G01*
X2634386Y1595700D01*
X2628185Y1589600D01*
X2628185Y1632500D01*
X370000Y1850779D02*
G01*
X359800Y1893679D01*
X349499Y1850779D02*
G01*
X359800Y1893679D01*
X349499Y1850779D02*
G01*
X339299Y1893679D01*
X329099Y1850779D02*
G01*
X339299Y1893679D01*
X315599Y1850779D02*
G01*
X315599Y1893679D01*
X302100Y1850779D02*
G01*
X302100Y1893679D01*
X302100Y1850779D02*
G01*
X273499Y1893679D01*
X273499Y1850779D02*
G01*
X273499Y1893679D01*
X229299Y1860979D02*
G01*
X231300Y1856880D01*
X235399Y1852779D01*
X239499Y1850779D01*
X247699Y1850779D01*
X251799Y1852779D01*
X255900Y1856880D01*
X257899Y1860979D01*
X260000Y1867179D01*
X260000Y1877379D01*
X257899Y1883479D01*
X255900Y1887579D01*
X251799Y1891680D01*
X247699Y1893679D01*
X239499Y1893679D01*
X235399Y1891680D01*
X231300Y1887579D01*
X229299Y1883479D01*
X229299Y1877379D01*
X239499Y1877379D02*
G01*
X229299Y1877379D01*
X215799Y1908080D02*
G01*
X179000Y1908080D01*
X165500Y1850779D02*
G01*
X165500Y1893679D01*
X165500Y1893679D02*
G01*
X140900Y1893679D01*
X127399Y1850779D02*
G01*
X127399Y1893679D01*
X127399Y1850779D02*
G01*
X100799Y1850779D01*
X127399Y1871179D02*
G01*
X110999Y1871179D01*
X127399Y1893679D02*
G01*
X100799Y1893679D01*
X87300Y1850779D02*
G01*
X87300Y1893679D01*
X87300Y1850779D02*
G01*
X73000Y1850779D01*
X66900Y1852779D01*
X62800Y1856880D01*
X60700Y1860979D01*
X58699Y1867179D01*
X58699Y1877379D01*
X60700Y1883479D01*
X62800Y1887579D01*
X66900Y1891680D01*
X73000Y1893679D01*
X87300Y1893679D01*
X45199Y1858980D02*
G01*
X41100Y1856880D01*
X35000Y1850779D01*
X35000Y1893679D01*
X470000Y1850779D02*
G01*
X459800Y1893679D01*
X449499Y1850779D02*
G01*
X459800Y1893679D01*
X449499Y1850779D02*
G01*
X439299Y1893679D01*
X429099Y1850779D02*
G01*
X439299Y1893679D01*
X415599Y1850779D02*
G01*
X415599Y1893679D01*
X402100Y1850779D02*
G01*
X402100Y1893679D01*
X402100Y1850779D02*
G01*
X373499Y1893679D01*
X373499Y1850779D02*
G01*
X373499Y1893679D01*
X329299Y1860979D02*
G01*
X331300Y1856880D01*
X335399Y1852779D01*
X339499Y1850779D01*
X347699Y1850779D01*
X351799Y1852779D01*
X355900Y1856880D01*
X357899Y1860979D01*
X360000Y1867179D01*
X360000Y1877379D01*
X357899Y1883479D01*
X355900Y1887579D01*
X351799Y1891680D01*
X347699Y1893679D01*
X339499Y1893679D01*
X335399Y1891680D01*
X331300Y1887579D01*
X329299Y1883479D01*
X329299Y1877379D01*
X339499Y1877379D02*
G01*
X329299Y1877379D01*
X315799Y1908080D02*
G01*
X279000Y1908080D01*
X265500Y1850779D02*
G01*
X265500Y1893679D01*
X265500Y1893679D02*
G01*
X240900Y1893679D01*
X227399Y1850779D02*
G01*
X227399Y1893679D01*
X227399Y1850779D02*
G01*
X200799Y1850779D01*
X227399Y1871179D02*
G01*
X210999Y1871179D01*
X227399Y1893679D02*
G01*
X200799Y1893679D01*
X187300Y1850779D02*
G01*
X187300Y1893679D01*
X187300Y1850779D02*
G01*
X173000Y1850779D01*
X166900Y1852779D01*
X162800Y1856880D01*
X160700Y1860979D01*
X158699Y1867179D01*
X158699Y1877379D01*
X160700Y1883479D01*
X162800Y1887579D01*
X166900Y1891680D01*
X173000Y1893679D01*
X187300Y1893679D01*
X143099Y1860979D02*
G01*
X143099Y1858980D01*
X141100Y1854879D01*
X139000Y1852779D01*
X135000Y1850779D01*
X126799Y1850779D01*
X122699Y1852779D01*
X120599Y1854879D01*
X118600Y1858980D01*
X118600Y1863080D01*
X120599Y1867179D01*
X124699Y1873279D01*
X145199Y1893679D01*
X116500Y1893679D01*
X1210000Y-5399D02*
G01*
X1210000Y37500D01*
X1210000Y-5399D02*
G01*
X1183400Y-5399D01*
X1210000Y15000D02*
G01*
X1193599Y15000D01*
X1165799Y-5399D02*
G01*
X1143299Y-5399D01*
X1155600Y10999D01*
X1149499Y10999D01*
X1145399Y13000D01*
X1143299Y15000D01*
X1141300Y21199D01*
X1141300Y25300D01*
X1143299Y31399D01*
X1147399Y35500D01*
X1153500Y37500D01*
X1159700Y37500D01*
X1165799Y35500D01*
X1167899Y33499D01*
X1169899Y29400D01*
X1127799Y51900D02*
G01*
X1091000Y51900D01*
X1073400Y-5399D02*
G01*
X1050900Y-5399D01*
X1063100Y10999D01*
X1056999Y10999D01*
X1052899Y13000D01*
X1050900Y15000D01*
X1048800Y21199D01*
X1048800Y25300D01*
X1050900Y31399D01*
X1055000Y35500D01*
X1061099Y37500D01*
X1067200Y37500D01*
X1073400Y35500D01*
X1075399Y33499D01*
X1077500Y29400D01*
D11*
X3875000Y610000D02*
G01*
X3875000Y535000D01*
X3975000Y535000D01*
X3975000Y835000D01*
X3875000Y835000D01*
D15*
X3875000Y835000D02*
G01*
X3875000Y610000D01*
D16*
X3880100Y444899D02*
G01*
X3880100Y244899D01*
X3980100Y244899D01*
X3980100Y444899D01*
X3880100Y444899D01*
D11*
X85000Y115000D02*
G01*
X10000Y115000D01*
X10000Y15000D01*
X310000Y15000D01*
X310000Y115000D01*
D15*
X310000Y115000D02*
G01*
X85000Y115000D01*
D11*
X775000Y2050000D02*
G01*
X700000Y2050000D01*
X700000Y1950000D01*
X1200000Y1950000D01*
X1200000Y2050000D01*
D15*
X1200000Y2050000D02*
G01*
X775000Y2050000D01*
D11*
X2550000Y2050000D02*
G01*
X2550000Y1950999D01*
X2350000Y1950999D01*
X2350000Y2050000D01*
X2550000Y2050000D01*
X3050000Y2050000D02*
G01*
X3050000Y1950000D01*
X2650000Y1950000D01*
X2650000Y2050000D01*
X2725000Y2050000D01*
D15*
X3050000Y2050000D02*
G01*
X2725000Y2050000D01*
D11*
X2850000Y50000D02*
G01*
X2850000Y150000D01*
X3650000Y150000D01*
X3650000Y50000D01*
X3575000Y50000D01*
D15*
X2850000Y50000D02*
G01*
X3575000Y50000D01*
D11*
X2675000Y50000D02*
G01*
X2750000Y50000D01*
X2750000Y150000D01*
X2150000Y150000D01*
X2150000Y50000D01*
D15*
X2150000Y50000D02*
G01*
X2675000Y50000D01*
D17*
X1995000Y1170000D02*
G01*
X3372950Y1170000D01*
X3372950Y166060D01*
X1995000Y166060D01*
X1995000Y1170000D01*
D11*
X1035000Y115000D02*
G01*
X1035000Y15000D01*
X635000Y15000D01*
X635000Y115000D01*
X710000Y115000D01*
D15*
X1035000Y115000D02*
G01*
X710000Y115000D01*
D17*
X1221199Y975000D02*
G01*
X1221409Y1075309D01*
X3133940Y2045435D02*
G01*
X3133940Y1210787D01*
X3175276Y1415506D02*
G01*
X3584723Y1415506D01*
X3584723Y1210787D01*
X3175276Y1210787D01*
X3175276Y1415506D01*
X3626066Y1210787D02*
G01*
X3626066Y2045435D01*
X3626066Y1210787D02*
G01*
X3133940Y1210787D01*
X3133939Y2045435D02*
G01*
X3626064Y2045435D01*
X3981999Y1725999D02*
G01*
X3888000Y1725999D01*
X3888000Y1725999D02*
G01*
X3888000Y1974000D01*
X3888000Y1974000D02*
G01*
X3981999Y1974000D01*
X3981999Y1974000D02*
G01*
X3981999Y1725999D01*
X3981999Y1240999D02*
G01*
X3888000Y1240999D01*
X3888000Y1240999D02*
G01*
X3888000Y1489000D01*
X3888000Y1489000D02*
G01*
X3981999Y1489000D01*
X3981999Y1489000D02*
G01*
X3981999Y1240999D01*
X1020000Y125000D02*
G01*
X320000Y125000D01*
X320000Y1125000D01*
X1020000Y1125000D01*
X1020000Y125000D01*
X1980000Y935000D02*
G01*
X1280000Y935000D01*
X1280000Y1935000D01*
X1980000Y1935000D01*
X1980000Y935000D01*
X1040000Y915000D02*
G01*
X1890000Y915000D01*
X1890000Y265000D01*
X1040000Y265000D01*
X1040000Y915000D01*
X415000Y1790000D02*
G01*
X1265000Y1790000D01*
X1265000Y1140000D01*
X415000Y1140000D01*
X415000Y1790000D01*
D18*
X3390000Y835999D02*
G01*
X3390000Y895999D01*
X3247062Y564998D02*
G01*
X3210000Y564998D01*
X3210000Y564998D02*
G01*
X3210000Y440745D01*
X3210000Y440745D02*
G01*
X3402160Y440745D01*
X3577839Y440745D02*
G01*
X3770000Y440745D01*
X3770000Y440745D02*
G01*
X3770000Y564998D01*
X3770000Y564998D02*
G01*
X3722744Y564998D01*
X3430000Y570999D02*
G01*
X3350000Y570999D01*
X3390000Y530999D02*
G01*
X3390000Y610999D01*
D11*
X3850000Y1750000D02*
G01*
X3850000Y1675000D01*
X3850000Y750000D01*
X3650000Y750000D01*
X3650000Y1675000D01*
X3650000Y1750000D01*
X3850000Y1750000D01*
X3650000Y250000D02*
G01*
X3650000Y349000D01*
X3850000Y349000D01*
X3850000Y250000D01*
X3650000Y250000D01*
D17*
X2572205Y1576181D02*
G01*
X2572205Y1473818D01*
X3030000Y1325000D02*
G01*
X3040000Y1325000D01*
X2830000Y1325000D02*
G01*
X2820000Y1325000D01*
X3030000Y1325000D02*
G01*
X3030000Y1295000D01*
X3030000Y1355000D02*
G01*
X3030000Y1325000D01*
X2830000Y1355000D02*
G01*
X3030000Y1355000D01*
X2830000Y1325000D02*
G01*
X2830000Y1355000D01*
X2830000Y1295000D02*
G01*
X2830000Y1325000D01*
X3030000Y1295000D02*
G01*
X2830000Y1295000D01*
X2502205Y1361181D02*
G01*
X2502205Y1258818D01*
X3030000Y1230000D02*
G01*
X3040000Y1230000D01*
X2830000Y1230000D02*
G01*
X2820000Y1230000D01*
X3030000Y1230000D02*
G01*
X3030000Y1200000D01*
X3030000Y1260000D02*
G01*
X3030000Y1230000D01*
X2830000Y1260000D02*
G01*
X3030000Y1260000D01*
X2830000Y1230000D02*
G01*
X2830000Y1260000D01*
X2830000Y1200000D02*
G01*
X2830000Y1230000D01*
X3030000Y1200000D02*
G01*
X2830000Y1200000D01*
X3451692Y-64371D02*
G01*
X3538307Y-64371D01*
X3451692Y179724D02*
G01*
X3451692Y-64371D01*
X3538307Y179724D02*
G01*
X3538307Y-64371D01*
X3465711Y289960D02*
G01*
X3524279Y289960D01*
X3534819Y179724D02*
G01*
X3583578Y179724D01*
X3406410Y179724D02*
G01*
X3455171Y179724D01*
X3406410Y179724D02*
G01*
X3406410Y234587D01*
X3406170Y289960D02*
G01*
X3404994Y289960D01*
X3583578Y179724D02*
G01*
X3583578Y234587D01*
X3583820Y289960D02*
G01*
X3584994Y289960D01*
X3065000Y1470000D02*
G01*
X3065000Y1460000D01*
X3065000Y1670000D02*
G01*
X3065000Y1680000D01*
X3065000Y1470000D02*
G01*
X3035000Y1470000D01*
X3095000Y1470000D02*
G01*
X3065000Y1470000D01*
X3095000Y1670000D02*
G01*
X3095000Y1470000D01*
X3065000Y1670000D02*
G01*
X3095000Y1670000D01*
X3035000Y1670000D02*
G01*
X3065000Y1670000D01*
X3035000Y1470000D02*
G01*
X3035000Y1670000D01*
X2960000Y1470000D02*
G01*
X2960000Y1460000D01*
X2960000Y1670000D02*
G01*
X2960000Y1680000D01*
X2960000Y1470000D02*
G01*
X2930000Y1470000D01*
X2990000Y1470000D02*
G01*
X2960000Y1470000D01*
X2990000Y1670000D02*
G01*
X2990000Y1470000D01*
X2960000Y1670000D02*
G01*
X2990000Y1670000D01*
X2930000Y1670000D02*
G01*
X2960000Y1670000D01*
X2930000Y1470000D02*
G01*
X2930000Y1670000D01*
X2100000Y1230000D02*
G01*
X2090000Y1230000D01*
X2300000Y1230000D02*
G01*
X2310000Y1230000D01*
X2100000Y1230000D02*
G01*
X2100000Y1260000D01*
X2100000Y1200000D02*
G01*
X2100000Y1230000D01*
X2300000Y1200000D02*
G01*
X2100000Y1200000D01*
X2300000Y1230000D02*
G01*
X2300000Y1200000D01*
X2300000Y1260000D02*
G01*
X2300000Y1230000D01*
X2100000Y1260000D02*
G01*
X2300000Y1260000D01*
D11*
X85000Y2075000D02*
G01*
X10000Y2075000D01*
X10000Y1975000D01*
X310000Y1975000D01*
X310000Y2075000D01*
D15*
X310000Y2075000D02*
G01*
X85000Y2075000D01*
D11*
X85000Y1975000D02*
G01*
X10000Y1975000D01*
X10000Y1875000D01*
X310000Y1875000D01*
X310000Y1975000D01*
D15*
X310000Y1975000D02*
G01*
X85000Y1975000D01*
D11*
X85000Y1875000D02*
G01*
X10000Y1875000D01*
X10000Y1775000D01*
X310000Y1775000D01*
X310000Y1875000D01*
D15*
X310000Y1875000D02*
G01*
X85000Y1875000D01*
D11*
X85000Y1210000D02*
G01*
X10000Y1210000D01*
X10000Y1110000D01*
X310000Y1110000D01*
X310000Y1210000D01*
D15*
X310000Y1210000D02*
G01*
X85000Y1210000D01*
D11*
X85000Y1110000D02*
G01*
X10000Y1110000D01*
X10000Y1010000D01*
X310000Y1010000D01*
X310000Y1110000D01*
D15*
X310000Y1110000D02*
G01*
X85000Y1110000D01*
D11*
X85000Y1010000D02*
G01*
X10000Y1010000D01*
X10000Y910000D01*
X310000Y910000D01*
X310000Y1010000D01*
D15*
X310000Y1010000D02*
G01*
X85000Y1010000D01*
D11*
X85000Y910000D02*
G01*
X10000Y910000D01*
X10000Y810000D01*
X310000Y810000D01*
X310000Y910000D01*
D15*
X310000Y910000D02*
G01*
X85000Y910000D01*
D11*
X85000Y810000D02*
G01*
X10000Y810000D01*
X10000Y710000D01*
X310000Y710000D01*
X310000Y810000D01*
D15*
X310000Y810000D02*
G01*
X85000Y810000D01*
D11*
X85000Y710000D02*
G01*
X10000Y710000D01*
X10000Y610000D01*
X310000Y610000D01*
X310000Y710000D01*
D15*
X310000Y710000D02*
G01*
X85000Y710000D01*
D11*
X85000Y610000D02*
G01*
X10000Y610000D01*
X10000Y510000D01*
X310000Y510000D01*
X310000Y610000D01*
D15*
X310000Y610000D02*
G01*
X85000Y610000D01*
D17*
X2894276Y1668389D02*
G01*
X2555695Y1668389D01*
X2894276Y1841610D02*
G01*
X2555695Y1841610D01*
X2555695Y1668389D02*
G01*
X2555695Y1711572D01*
X2555695Y1798427D02*
G01*
X2555695Y1841610D01*
X2894276Y1668389D02*
G01*
X2894276Y1711572D01*
X2894276Y1798427D02*
G01*
X2894276Y1841610D01*
X411181Y2087793D02*
G01*
X308818Y2087793D01*
X511181Y2087793D02*
G01*
X408818Y2087793D01*
D11*
X1150000Y50000D02*
G01*
X1050000Y50000D01*
X1050000Y149000D01*
X1350000Y149000D01*
X1350000Y50000D01*
X1150000Y50000D01*
D17*
G75*
G01*
X1221200Y1074820D02*
G03*
X1221200Y975020I-60910J-49900D01*
D18*
G75*
G01*
X3580451Y456676D02*
G03*
X3573619Y995531I-90450J268324D01*
G75*
G01*
X3405195Y997347D02*
G03*
X3404366Y452912I84804J-272347D01*
D17*
G75*
G01*
X2573320Y1470600D02*
G03*
X2573320Y1579400I86710J54400D01*
G75*
G01*
X2503320Y1255600D02*
G03*
X2503320Y1364400I86710J54400D01*
G75*
G01*
X305600Y2086680D02*
G03*
X414400Y2086680I54400J-86710D01*
G75*
G01*
X405600Y2086680D02*
G03*
X514400Y2086680I54400J-86710D01*
M02*
