G04 Layer: BottomSolderMaskLayer*
G04 EasyEDA v6.5.23, 2023-06-14 20:02:47*
G04 cb88694a6a91491fa1ec1b2408a0e32a,5f8968b253fc4aed9fc2cb8881c97923,10*
G04 Gerber Generator version 0.2*
G04 Scale: 100 percent, Rotated: No, Reflected: No *
G04 Dimensions in inches *
G04 leading zeros omitted , absolute positions ,3 integer and 6 decimal *
%FSLAX36Y36*%
%MOIN*%

%AMMACRO1*1,1,$1,$2,$3*1,1,$1,$4,$5*1,1,$1,0-$2,0-$3*1,1,$1,0-$4,0-$5*20,1,$1,$2,$3,$4,$5,0*20,1,$1,$4,$5,0-$2,0-$3,0*20,1,$1,0-$2,0-$3,0-$4,0-$5,0*20,1,$1,0-$4,0-$5,$2,$3,0*4,1,4,$2,$3,$4,$5,0-$2,0-$3,0-$4,0-$5,$2,$3,0*%
%ADD10MACRO1,0.004X-0.04X0.04X0.04X0.04*%
%ADD11C,0.0840*%
%ADD12MACRO1,0.004X0.04X0.04X0.04X-0.04*%
%ADD13R,0.0840X0.0840*%
%ADD14C,0.0660*%
%ADD15MACRO1,0.004X-0.031X0.031X0.031X0.031*%
%ADD16R,0.0660X0.0660*%
%ADD17MACRO1,0.004X0.04X-0.04X-0.04X-0.04*%
%ADD18C,0.0740*%
%ADD19C,0.1440*%
%ADD20C,0.0880*%
%ADD21MACRO1,0.008X-0.04X0.04X0.04X0.04*%
%ADD22C,0.0780*%
%ADD23C,0.0178*%

%LPD*%
D10*
G01*
X2245000Y1785000D03*
D11*
G01*
X2145000Y1785000D03*
G01*
X2045000Y1785000D03*
D12*
G01*
X2750000Y1450000D03*
D11*
G01*
X2750000Y1550000D03*
G01*
X2750000Y1650000D03*
G01*
X1550000Y1650000D03*
G01*
X1550000Y1550000D03*
D13*
G01*
X1550000Y1450000D03*
D11*
G01*
X1650000Y1650000D03*
G01*
X1650000Y1550000D03*
D13*
G01*
X1650000Y1450000D03*
D11*
G01*
X1750000Y1650000D03*
G01*
X1750000Y1550000D03*
D13*
G01*
X1750000Y1450000D03*
D11*
G01*
X1850000Y1650000D03*
G01*
X1850000Y1550000D03*
D13*
G01*
X1850000Y1450000D03*
D11*
G01*
X1950000Y1650000D03*
G01*
X1950000Y1550000D03*
D13*
G01*
X1950000Y1450000D03*
D11*
G01*
X2050000Y1650000D03*
G01*
X2050000Y1550000D03*
D13*
G01*
X2050000Y1450000D03*
D11*
G01*
X2150000Y1650000D03*
G01*
X2150000Y1550000D03*
D13*
G01*
X2150000Y1450000D03*
D11*
G01*
X2250000Y1650000D03*
G01*
X2250000Y1550000D03*
D13*
G01*
X2250000Y1450000D03*
D11*
G01*
X2350000Y1650000D03*
G01*
X2350000Y1550000D03*
D13*
G01*
X2350000Y1450000D03*
D11*
G01*
X2450000Y1650000D03*
G01*
X2450000Y1550000D03*
D13*
G01*
X2450000Y1450000D03*
D11*
G01*
X1542049Y1960000D03*
G01*
X1797950Y1960000D03*
G01*
X2950000Y1250000D03*
G01*
X2950000Y1350000D03*
D14*
G01*
X1160000Y2135000D03*
D15*
G01*
X1060000Y2135000D03*
D14*
G01*
X960000Y2135000D03*
G01*
X860000Y2135000D03*
G01*
X760000Y2135000D03*
G01*
X2410000Y2135000D03*
G01*
X2510000Y2135000D03*
G01*
X3710000Y2135000D03*
G01*
X3810000Y2135000D03*
D16*
G01*
X3810000Y435000D03*
G01*
X3710000Y435000D03*
D14*
G01*
X2710000Y2135000D03*
G01*
X2810000Y2135000D03*
G01*
X2910000Y2135000D03*
G01*
X3010000Y2135000D03*
G01*
X3810000Y935000D03*
G01*
X3710000Y935000D03*
G01*
X3810000Y1035000D03*
G01*
X3710000Y1035000D03*
G01*
X3810000Y1135000D03*
G01*
X3710000Y1135000D03*
G01*
X3810000Y1235000D03*
G01*
X3710000Y1235000D03*
G01*
X3810000Y1335000D03*
G01*
X3710000Y1335000D03*
G01*
X3810000Y1435000D03*
G01*
X3710000Y1435000D03*
G01*
X3810000Y1535000D03*
G01*
X3710000Y1535000D03*
G01*
X3810000Y1635000D03*
G01*
X3710000Y1635000D03*
G01*
X3810000Y1735000D03*
G01*
X3710000Y1735000D03*
G01*
X3810000Y1835000D03*
G01*
X3710000Y1835000D03*
G01*
X3610000Y235000D03*
G01*
X3510000Y235000D03*
G01*
X3410000Y235000D03*
G01*
X3310000Y235000D03*
G01*
X3210000Y235000D03*
G01*
X3110000Y235000D03*
G01*
X3010000Y235000D03*
G01*
X2910000Y235000D03*
G01*
X2210000Y235000D03*
G01*
X2310000Y235000D03*
G01*
X2410000Y235000D03*
G01*
X2510000Y235000D03*
G01*
X2610000Y235000D03*
G01*
X2710000Y235000D03*
G01*
X1310000Y235000D03*
G01*
X1210000Y235000D03*
G01*
X1110000Y235000D03*
D11*
G01*
X595000Y440000D03*
G01*
X595000Y740000D03*
G01*
X595000Y840000D03*
G01*
X595000Y540000D03*
D17*
G01*
X595000Y640000D03*
D11*
G01*
X595000Y1455000D03*
G01*
X595000Y1755000D03*
G01*
X595000Y1855000D03*
G01*
X595000Y1555000D03*
D17*
G01*
X595000Y1655000D03*
D11*
G01*
X3220000Y555000D03*
G01*
X3220000Y655000D03*
G01*
X2990000Y640000D03*
G01*
X2990000Y540000D03*
G01*
X1955000Y1245000D03*
G01*
X1555000Y1245000D03*
G01*
X1955000Y1150000D03*
G01*
X1555000Y1150000D03*
G01*
X3195000Y1050000D03*
G01*
X3495000Y1050000D03*
G01*
X2010000Y1960000D03*
G01*
X2310000Y1960000D03*
G01*
X3195000Y950000D03*
G01*
X3495000Y950000D03*
G01*
X2375000Y1150000D03*
G01*
X2675000Y1150000D03*
G01*
X2375000Y1255000D03*
G01*
X2675000Y1255000D03*
G01*
X2990000Y70000D03*
G01*
X3090000Y70000D03*
G01*
X3190000Y70000D03*
D10*
G01*
X3290000Y70000D03*
D18*
G01*
X4030000Y106314D03*
G01*
X4030000Y185014D03*
G01*
X4030000Y263694D03*
G01*
X4030000Y346394D03*
G01*
X4030000Y23604D03*
G01*
X3871314Y2265000D03*
G01*
X3950014Y2265000D03*
G01*
X4028693Y2265000D03*
G01*
X4111394Y2265000D03*
G01*
X3788603Y2265000D03*
D19*
G01*
X123200Y170000D03*
G01*
X320000Y170000D03*
D11*
G01*
X2985000Y860000D03*
G01*
X2985000Y960000D03*
G01*
X2110000Y1150000D03*
G01*
X2210000Y1150000D03*
G01*
X2110000Y1250000D03*
G01*
X2210000Y1250000D03*
D13*
G01*
X3125000Y1280000D03*
D11*
G01*
X3425000Y1380000D03*
G01*
X3325000Y1380000D03*
G01*
X3225000Y1380000D03*
G01*
X3125000Y1380000D03*
G01*
X3225000Y1280000D03*
G01*
X3325000Y1280000D03*
G01*
X3425000Y1280000D03*
G01*
X810000Y365000D03*
G01*
X810000Y565000D03*
D12*
G01*
X810000Y665000D03*
D11*
G01*
X810000Y765000D03*
G01*
X810000Y865000D03*
G01*
X1310000Y1720000D03*
G01*
X1310000Y1520000D03*
D13*
G01*
X1310000Y1420000D03*
D11*
G01*
X1310000Y1320000D03*
G01*
X1310000Y1220000D03*
D20*
G01*
X2790000Y425000D03*
G01*
X2790000Y525000D03*
G01*
X2790000Y625000D03*
G01*
X2790000Y725000D03*
G01*
X2790000Y825000D03*
G01*
X3810000Y2135000D03*
G01*
X3810000Y2035000D03*
G01*
X3810000Y1935000D03*
G01*
X3810000Y1835000D03*
G01*
X3810000Y1735000D03*
G01*
X3810000Y1635000D03*
G01*
X3810000Y1535000D03*
G01*
X3810000Y1435000D03*
G01*
X3810000Y1335000D03*
G01*
X3810000Y1235000D03*
G01*
X3810000Y1135000D03*
G01*
X3810000Y1035000D03*
G01*
X3810000Y935000D03*
G01*
X3810000Y835000D03*
G01*
X3810000Y735000D03*
G01*
X3810000Y635000D03*
G01*
X3810000Y535000D03*
D21*
G01*
X3810000Y435000D03*
G01*
X3710000Y435000D03*
D20*
G01*
X3710000Y535000D03*
G01*
X3710000Y635000D03*
G01*
X3710000Y735000D03*
G01*
X3710000Y835000D03*
G01*
X3710000Y935000D03*
G01*
X3710000Y1035000D03*
G01*
X3710000Y1135000D03*
G01*
X3710000Y1235000D03*
G01*
X3710000Y1335000D03*
G01*
X3710000Y1435000D03*
G01*
X3710000Y1535000D03*
G01*
X3710000Y1635000D03*
G01*
X3710000Y1735000D03*
G01*
X3710000Y1835000D03*
G01*
X3710000Y1935000D03*
G01*
X3710000Y2035000D03*
G01*
X3710000Y2135000D03*
D22*
G01*
X3510000Y235000D03*
G01*
X3610000Y235000D03*
D20*
G01*
X1110000Y235000D03*
G01*
X1210000Y235000D03*
G01*
X1310000Y235000D03*
G01*
X1410000Y235000D03*
G01*
X1510000Y235000D03*
D21*
G01*
X1610000Y235000D03*
D20*
G01*
X1710000Y235000D03*
G01*
X1810000Y235000D03*
G01*
X2010000Y235000D03*
G01*
X2110000Y235000D03*
G01*
X2210000Y235000D03*
G01*
X2310000Y235000D03*
G01*
X2410000Y235000D03*
G01*
X2510000Y235000D03*
G01*
X2610000Y235000D03*
G01*
X2710000Y235000D03*
D22*
G01*
X2910000Y235000D03*
G01*
X3010000Y235000D03*
G01*
X3110000Y235000D03*
G01*
X3210000Y235000D03*
G01*
X3310000Y235000D03*
G01*
X3410000Y235000D03*
D20*
G01*
X3410000Y2135000D03*
G01*
X3310000Y2135000D03*
G01*
X3210000Y2135000D03*
G01*
X3110000Y2135000D03*
G01*
X3010000Y2135000D03*
G01*
X2910000Y2135000D03*
G01*
X2810000Y2135000D03*
G01*
X2710000Y2135000D03*
G01*
X2510000Y2135000D03*
G01*
X2410000Y2135000D03*
G01*
X2310000Y2135000D03*
G01*
X2210000Y2135000D03*
G01*
X2110000Y2135000D03*
G01*
X2010000Y2135000D03*
G01*
X1910000Y2135000D03*
G01*
X1810000Y2135000D03*
G01*
X1660000Y2135000D03*
G01*
X1560000Y2135000D03*
G01*
X1460000Y2135000D03*
G01*
X1360000Y2135000D03*
G01*
X1260000Y2135000D03*
G01*
X1160000Y2135000D03*
D21*
G01*
X1060000Y2135000D03*
D20*
G01*
X960000Y2135000D03*
G01*
X860000Y2135000D03*
G01*
X760000Y2135000D03*
M02*
