G04 Layer: TopSilkscreenLayer*
G04 EasyEDA v6.5.23, 2023-06-13 19:42:07*
G04 1d29d2e0cc3744bcbc87449dd2cba942,5f8968b253fc4aed9fc2cb8881c97923,10*
G04 Gerber Generator version 0.2*
G04 Scale: 100 percent, Rotated: No, Reflected: No *
G04 Dimensions in inches *
G04 leading zeros omitted , absolute positions ,3 integer and 6 decimal *
%FSLAX36Y36*%
%MOIN*%

%ADD10C,0.0060*%
%ADD11C,0.0080*%
%ADD12C,0.0032*%
%ADD13C,0.0040*%
%ADD14C,0.0100*%
%ADD15C,0.0080*%
%ADD16C,0.0079*%
%ADD17C,0.0168*%

%LPD*%
D10*
X2170000Y1239800D02*
G01*
X2172700Y1241199D01*
X2176800Y1245300D01*
X2176800Y1216599D01*
X2193999Y1245300D02*
G01*
X2189899Y1243899D01*
X2187200Y1239800D01*
X2185799Y1233000D01*
X2185799Y1228899D01*
X2187200Y1222100D01*
X2189899Y1218000D01*
X2193999Y1216599D01*
X2196700Y1216599D01*
X2200799Y1218000D01*
X2203500Y1222100D01*
X2204899Y1228899D01*
X2204899Y1233000D01*
X2203500Y1239800D01*
X2200799Y1243899D01*
X2196700Y1245300D01*
X2193999Y1245300D01*
X2222100Y1245300D02*
G01*
X2218000Y1243899D01*
X2215299Y1239800D01*
X2213900Y1233000D01*
X2213900Y1228899D01*
X2215299Y1222100D01*
X2218000Y1218000D01*
X2222100Y1216599D01*
X2224799Y1216599D01*
X2228900Y1218000D01*
X2231599Y1222100D01*
X2233000Y1228899D01*
X2233000Y1233000D01*
X2231599Y1239800D01*
X2228900Y1243899D01*
X2224799Y1245300D01*
X2222100Y1245300D01*
X3854700Y810900D02*
G01*
X3883400Y800000D01*
X3854700Y810900D02*
G01*
X3883400Y821799D01*
X3873800Y804099D02*
G01*
X3873800Y817699D01*
X3854700Y830799D02*
G01*
X3883400Y830799D01*
X3854700Y839800D02*
G01*
X3883400Y839800D01*
X3854700Y839800D02*
G01*
X3854700Y852100D01*
X3856099Y856199D01*
X3857500Y857500D01*
X3860200Y858899D01*
X3862899Y858899D01*
X3865600Y857500D01*
X3866999Y856199D01*
X3868400Y852100D01*
X3868400Y839800D01*
X3868400Y849400D02*
G01*
X3883400Y858899D01*
X3854700Y867899D02*
G01*
X3883400Y867899D01*
X3854700Y867899D02*
G01*
X3854700Y880199D01*
X3856099Y884299D01*
X3857500Y885599D01*
X3860200Y886999D01*
X3864300Y886999D01*
X3866999Y885599D01*
X3868400Y884299D01*
X3869700Y880199D01*
X3869700Y867899D01*
X3854700Y895999D02*
G01*
X3883400Y895999D01*
X3854700Y895999D02*
G01*
X3854700Y908299D01*
X3856099Y912399D01*
X3857500Y913699D01*
X3860200Y915100D01*
X3862899Y915100D01*
X3865600Y913699D01*
X3866999Y912399D01*
X3868400Y908299D01*
X3868400Y895999D01*
X3868400Y905500D02*
G01*
X3883400Y915100D01*
X3854700Y924099D02*
G01*
X3883400Y924099D01*
X3854700Y924099D02*
G01*
X3854700Y941799D01*
X3868400Y924099D02*
G01*
X3868400Y935000D01*
X3883400Y924099D02*
G01*
X3883400Y941799D01*
X3858800Y969899D02*
G01*
X3856099Y967199D01*
X3854700Y963099D01*
X3854700Y957600D01*
X3856099Y953499D01*
X3858800Y950799D01*
X3861499Y950799D01*
X3864300Y952199D01*
X3865600Y953499D01*
X3866999Y956300D01*
X3869700Y964499D01*
X3871099Y967199D01*
X3872500Y968499D01*
X3875200Y969899D01*
X3879300Y969899D01*
X3881999Y967199D01*
X3883400Y963099D01*
X3883400Y957600D01*
X3881999Y953499D01*
X3879300Y950799D01*
X3858800Y998000D02*
G01*
X3856099Y995300D01*
X3854700Y991199D01*
X3854700Y985700D01*
X3856099Y981599D01*
X3858800Y978899D01*
X3861499Y978899D01*
X3864300Y980300D01*
X3865600Y981599D01*
X3866999Y984400D01*
X3869700Y992500D01*
X3871099Y995300D01*
X3872500Y996599D01*
X3875200Y998000D01*
X3879300Y998000D01*
X3881999Y995300D01*
X3883400Y991199D01*
X3883400Y985700D01*
X3881999Y981599D01*
X3879300Y978899D01*
X3860200Y1006999D02*
G01*
X3858800Y1009699D01*
X3854700Y1013800D01*
X3883400Y1013800D01*
X3926499Y245500D02*
G01*
X3923800Y244099D01*
X3921099Y241399D01*
X3919700Y238600D01*
X3919700Y233200D01*
X3921099Y230500D01*
X3923800Y227699D01*
X3926499Y226399D01*
X3930600Y225000D01*
X3937500Y225000D01*
X3941499Y226399D01*
X3944300Y227699D01*
X3946999Y230500D01*
X3948400Y233200D01*
X3948400Y238600D01*
X3946999Y241399D01*
X3944300Y244099D01*
X3941499Y245500D01*
X3925200Y254499D02*
G01*
X3923800Y257199D01*
X3919700Y261300D01*
X3948400Y261300D01*
X3957899Y270300D02*
G01*
X3957899Y294800D01*
X3926499Y305199D02*
G01*
X3925200Y305199D01*
X3922500Y306500D01*
X3921099Y307899D01*
X3919700Y310599D01*
X3919700Y316100D01*
X3921099Y318800D01*
X3922500Y320199D01*
X3925200Y321500D01*
X3927899Y321500D01*
X3930600Y320199D01*
X3934700Y317500D01*
X3948400Y303800D01*
X3948400Y322899D01*
X120300Y100000D02*
G01*
X91599Y100000D01*
X120300Y100000D02*
G01*
X120300Y82300D01*
X106599Y100000D02*
G01*
X106599Y89099D01*
X91599Y100000D02*
G01*
X91599Y82300D01*
X116199Y54200D02*
G01*
X118899Y56900D01*
X120300Y60999D01*
X120300Y66500D01*
X118899Y70500D01*
X116199Y73299D01*
X113499Y73299D01*
X110700Y71900D01*
X109400Y70500D01*
X108000Y67800D01*
X105300Y59600D01*
X103899Y56900D01*
X102500Y55500D01*
X99800Y54200D01*
X95700Y54200D01*
X93000Y56900D01*
X91599Y60999D01*
X91599Y66500D01*
X93000Y70500D01*
X95700Y73299D01*
X113499Y24699D02*
G01*
X116199Y26100D01*
X118899Y28800D01*
X120300Y31500D01*
X120300Y36999D01*
X118899Y39699D01*
X116199Y42500D01*
X113499Y43800D01*
X109400Y45199D01*
X102500Y45199D01*
X98499Y43800D01*
X95700Y42500D01*
X93000Y39699D01*
X91599Y36999D01*
X91599Y31500D01*
X93000Y28800D01*
X95700Y26100D01*
X98499Y24699D01*
X114800Y15700D02*
G01*
X116199Y13000D01*
X120300Y8899D01*
X91599Y8899D01*
X3830000Y199699D02*
G01*
X3830000Y228400D01*
X3830000Y199699D02*
G01*
X3812299Y199699D01*
X3830000Y213400D02*
G01*
X3819099Y213400D01*
X3801899Y206500D02*
G01*
X3801899Y205199D01*
X3800500Y202500D01*
X3799200Y201100D01*
X3796499Y199699D01*
X3791000Y199699D01*
X3788299Y201100D01*
X3786899Y202500D01*
X3785500Y205199D01*
X3785500Y207899D01*
X3786899Y210599D01*
X3789600Y214699D01*
X3803299Y228400D01*
X3784200Y228400D01*
X3775200Y237899D02*
G01*
X3750600Y237899D01*
X3728000Y199699D02*
G01*
X3741599Y218800D01*
X3721199Y218800D01*
X3728000Y199699D02*
G01*
X3728000Y228400D01*
D11*
X2939499Y872500D02*
G01*
X2935900Y879800D01*
X2928599Y887100D01*
X2921400Y890700D01*
X2906800Y890700D01*
X2899499Y887100D01*
X2892299Y879800D01*
X2888599Y872500D01*
X2885000Y861599D01*
X2885000Y843499D01*
X2888599Y832500D01*
X2892299Y825300D01*
X2899499Y818000D01*
X2906800Y814400D01*
X2921400Y814400D01*
X2928599Y818000D01*
X2935900Y825300D01*
X2939499Y832500D01*
X2939499Y843499D01*
X2921400Y843499D02*
G01*
X2939499Y843499D01*
X2963500Y890700D02*
G01*
X2963500Y814400D01*
X2963500Y890700D02*
G01*
X2996300Y890700D01*
X3007200Y887100D01*
X3010799Y883499D01*
X3014499Y876199D01*
X3014499Y865300D01*
X3010799Y858000D01*
X3007200Y854400D01*
X2996300Y850700D01*
X2963500Y850700D01*
X3089399Y879800D02*
G01*
X3082100Y887100D01*
X3071199Y890700D01*
X3056599Y890700D01*
X3045699Y887100D01*
X3038500Y879800D01*
X3038500Y872500D01*
X3042100Y865300D01*
X3045699Y861599D01*
X3053000Y858000D01*
X3074799Y850700D01*
X3082100Y847100D01*
X3085699Y843499D01*
X3089399Y836199D01*
X3089399Y825300D01*
X3082100Y818000D01*
X3071199Y814400D01*
X3056599Y814400D01*
X3045699Y818000D01*
X3038500Y825300D01*
X3116999Y872500D02*
G01*
X3116999Y876199D01*
X3120600Y883499D01*
X3124300Y887100D01*
X3131499Y890700D01*
X3146099Y890700D01*
X3153400Y887100D01*
X3156999Y883499D01*
X3160600Y876199D01*
X3160600Y868899D01*
X3156999Y861599D01*
X3149700Y850700D01*
X3113400Y814400D01*
X3164300Y814400D01*
X3144499Y687500D02*
G01*
X3140900Y694800D01*
X3133599Y702100D01*
X3126400Y705700D01*
X3111800Y705700D01*
X3104499Y702100D01*
X3097299Y694800D01*
X3093599Y687500D01*
X3090000Y676599D01*
X3090000Y658499D01*
X3093599Y647500D01*
X3097299Y640300D01*
X3104499Y633000D01*
X3111800Y629400D01*
X3126400Y629400D01*
X3133599Y633000D01*
X3140900Y640300D01*
X3144499Y647500D01*
X3144499Y658499D01*
X3126400Y658499D02*
G01*
X3144499Y658499D01*
X3168500Y705700D02*
G01*
X3168500Y629400D01*
X3168500Y705700D02*
G01*
X3201300Y705700D01*
X3212200Y702100D01*
X3215799Y698499D01*
X3219499Y691199D01*
X3219499Y680300D01*
X3215799Y673000D01*
X3212200Y669400D01*
X3201300Y665700D01*
X3168500Y665700D01*
X3294399Y694800D02*
G01*
X3287100Y702100D01*
X3276199Y705700D01*
X3261599Y705700D01*
X3250699Y702100D01*
X3243500Y694800D01*
X3243500Y687500D01*
X3247100Y680300D01*
X3250699Y676599D01*
X3258000Y673000D01*
X3279799Y665700D01*
X3287100Y662100D01*
X3290699Y658499D01*
X3294399Y651199D01*
X3294399Y640300D01*
X3287100Y633000D01*
X3276199Y629400D01*
X3261599Y629400D01*
X3250699Y633000D01*
X3243500Y640300D01*
X2118599Y1080399D02*
G01*
X2138599Y1080399D01*
X2127700Y1065799D01*
X2133199Y1065799D01*
X2136800Y1064000D01*
X2138599Y1062199D01*
X2140500Y1056700D01*
X2140500Y1053099D01*
X2138599Y1047600D01*
X2135000Y1044000D01*
X2129499Y1042199D01*
X2124099Y1042199D01*
X2118599Y1044000D01*
X2116800Y1045799D01*
X2115000Y1049499D01*
X2154300Y1051300D02*
G01*
X2152500Y1049499D01*
X2154300Y1047600D01*
X2156099Y1049499D01*
X2154300Y1051300D01*
X2171700Y1080399D02*
G01*
X2191700Y1080399D01*
X2180799Y1065799D01*
X2186300Y1065799D01*
X2189899Y1064000D01*
X2191700Y1062199D01*
X2193500Y1056700D01*
X2193500Y1053099D01*
X2191700Y1047600D01*
X2188100Y1044000D01*
X2182600Y1042199D01*
X2177200Y1042199D01*
X2171700Y1044000D01*
X2169899Y1045799D01*
X2168100Y1049499D01*
X2205500Y1080399D02*
G01*
X2220100Y1042199D01*
X2234600Y1080399D02*
G01*
X2220100Y1042199D01*
X2120000Y980399D02*
G01*
X2120000Y942199D01*
X2120000Y980399D02*
G01*
X2143599Y980399D01*
X2120000Y962199D02*
G01*
X2134499Y962199D01*
X2120000Y942199D02*
G01*
X2143599Y942199D01*
X2155600Y980399D02*
G01*
X2155600Y942199D01*
X2155600Y980399D02*
G01*
X2181099Y942199D01*
X2181099Y980399D02*
G01*
X2181099Y942199D01*
X2120000Y880399D02*
G01*
X2134499Y842199D01*
X2149099Y880399D02*
G01*
X2134499Y842199D01*
X2161099Y880399D02*
G01*
X2161099Y842199D01*
X2161099Y880399D02*
G01*
X2177500Y880399D01*
X2182899Y878499D01*
X2184700Y876700D01*
X2186499Y873099D01*
X2186499Y869499D01*
X2184700Y865799D01*
X2182899Y864000D01*
X2177500Y862199D01*
X2161099Y862199D02*
G01*
X2177500Y862199D01*
X2182899Y860399D01*
X2184700Y858499D01*
X2186499Y854899D01*
X2186499Y849499D01*
X2184700Y845799D01*
X2182899Y844000D01*
X2177500Y842199D01*
X2161099Y842199D01*
X2213100Y880399D02*
G01*
X2198500Y842199D01*
X2213100Y880399D02*
G01*
X2227600Y842199D01*
X2203999Y854899D02*
G01*
X2222200Y854899D01*
X2252399Y880399D02*
G01*
X2252399Y842199D01*
X2239600Y880399D02*
G01*
X2265100Y880399D01*
X2125000Y785399D02*
G01*
X2125000Y747199D01*
X2125000Y785399D02*
G01*
X2148599Y785399D01*
X2125000Y767199D02*
G01*
X2139499Y767199D01*
X2160600Y785399D02*
G01*
X2160600Y747199D01*
X2172600Y785399D02*
G01*
X2198100Y747199D01*
X2198100Y785399D02*
G01*
X2172600Y747199D01*
X2145500Y705700D02*
G01*
X2145500Y629400D01*
X2120000Y705700D02*
G01*
X2170900Y705700D01*
X2194899Y705700D02*
G01*
X2245799Y629400D01*
X2245799Y705700D02*
G01*
X2194899Y629400D01*
X2120000Y605700D02*
G01*
X2120000Y529400D01*
X2120000Y605700D02*
G01*
X2152700Y605700D01*
X2163599Y602100D01*
X2167299Y598499D01*
X2170900Y591199D01*
X2170900Y583899D01*
X2167299Y576599D01*
X2163599Y573000D01*
X2152700Y569400D01*
X2120000Y569400D01*
X2145500Y569400D02*
G01*
X2170900Y529400D01*
X2194899Y605700D02*
G01*
X2245799Y529400D01*
X2245799Y605700D02*
G01*
X2194899Y529400D01*
X2174499Y487500D02*
G01*
X2170900Y494800D01*
X2163599Y502100D01*
X2156400Y505700D01*
X2141800Y505700D01*
X2134499Y502100D01*
X2127299Y494800D01*
X2123599Y487500D01*
X2120000Y476599D01*
X2120000Y458499D01*
X2123599Y447500D01*
X2127299Y440300D01*
X2134499Y433000D01*
X2141800Y429400D01*
X2156400Y429400D01*
X2163599Y433000D01*
X2170900Y440300D01*
X2174499Y447500D01*
X2174499Y458499D01*
X2156400Y458499D02*
G01*
X2174499Y458499D01*
X2198500Y505700D02*
G01*
X2198500Y429400D01*
X2198500Y505700D02*
G01*
X2249499Y429400D01*
X2249499Y505700D02*
G01*
X2249499Y429400D01*
X2273500Y505700D02*
G01*
X2273500Y429400D01*
X2273500Y505700D02*
G01*
X2298900Y505700D01*
X2309799Y502100D01*
X2317100Y494800D01*
X2320699Y487500D01*
X2324399Y476599D01*
X2324399Y458499D01*
X2320699Y447500D01*
X2317100Y440300D01*
X2309799Y433000D01*
X2298900Y429400D01*
X2273500Y429400D01*
X2120000Y405700D02*
G01*
X2149099Y329400D01*
X2178199Y405700D02*
G01*
X2149099Y329400D01*
X2202200Y405700D02*
G01*
X2202200Y329400D01*
X2226199Y405700D02*
G01*
X2226199Y329400D01*
X2226199Y405700D02*
G01*
X2277100Y329400D01*
X2277100Y405700D02*
G01*
X2277100Y329400D01*
X2120000Y275300D02*
G01*
X2120000Y246599D01*
X2120000Y275300D02*
G01*
X2132299Y275300D01*
X2136400Y273899D01*
X2137700Y272500D01*
X2139099Y269800D01*
X2139099Y265700D01*
X2137700Y263000D01*
X2136400Y261599D01*
X2132299Y260300D01*
X2120000Y260300D01*
X2148100Y275300D02*
G01*
X2148100Y246599D01*
X2148100Y275300D02*
G01*
X2160399Y275300D01*
X2164499Y273899D01*
X2165799Y272500D01*
X2167200Y269800D01*
X2167200Y265700D01*
X2165799Y263000D01*
X2164499Y261599D01*
X2160399Y260300D01*
X2148100Y260300D01*
X2195299Y271199D02*
G01*
X2192500Y273899D01*
X2188500Y275300D01*
X2183000Y275300D01*
X2178900Y273899D01*
X2176199Y271199D01*
X2176199Y268499D01*
X2177500Y265700D01*
X2178900Y264400D01*
X2181599Y263000D01*
X2189799Y260300D01*
X2192500Y258899D01*
X2193900Y257500D01*
X2195299Y254800D01*
X2195299Y250700D01*
X2192500Y248000D01*
X2188500Y246599D01*
X2183000Y246599D01*
X2178900Y248000D01*
X2176199Y250700D01*
D10*
X2813500Y1609499D02*
G01*
X2816199Y1610900D01*
X2818900Y1613600D01*
X2820299Y1616399D01*
X2820299Y1621799D01*
X2818900Y1624499D01*
X2816199Y1627300D01*
X2813500Y1628600D01*
X2809399Y1630000D01*
X2802500Y1630000D01*
X2798500Y1628600D01*
X2795699Y1627300D01*
X2793000Y1624499D01*
X2791599Y1621799D01*
X2791599Y1616399D01*
X2793000Y1613600D01*
X2795699Y1610900D01*
X2798500Y1609499D01*
X2802500Y1609499D01*
X2802500Y1616399D02*
G01*
X2802500Y1609499D01*
X2820299Y1600500D02*
G01*
X2791599Y1600500D01*
X2820299Y1600500D02*
G01*
X2820299Y1588299D01*
X2818900Y1584200D01*
X2817500Y1582800D01*
X2814799Y1581500D01*
X2810699Y1581500D01*
X2808000Y1582800D01*
X2806599Y1584200D01*
X2805299Y1588299D01*
X2805299Y1600500D01*
X2816199Y1553400D02*
G01*
X2818900Y1556100D01*
X2820299Y1560199D01*
X2820299Y1565599D01*
X2818900Y1569699D01*
X2816199Y1572500D01*
X2813500Y1572500D01*
X2810699Y1571100D01*
X2809399Y1569699D01*
X2808000Y1566999D01*
X2805299Y1558800D01*
X2803900Y1556100D01*
X2802500Y1554699D01*
X2799799Y1553400D01*
X2795699Y1553400D01*
X2793000Y1556100D01*
X2791599Y1560199D01*
X2791599Y1565599D01*
X2793000Y1569699D01*
X2795699Y1572500D01*
X2782100Y1544400D02*
G01*
X2782100Y1519800D01*
X2820299Y1510799D02*
G01*
X2791599Y1510799D01*
X2820299Y1510799D02*
G01*
X2820299Y1498499D01*
X2818900Y1494499D01*
X2817500Y1493099D01*
X2814799Y1491700D01*
X2812100Y1491700D01*
X2809399Y1493099D01*
X2808000Y1494499D01*
X2806599Y1498499D01*
X2806599Y1510799D01*
X2806599Y1501300D02*
G01*
X2791599Y1491700D01*
X2820299Y1482699D02*
G01*
X2791599Y1463600D01*
X2820299Y1463600D02*
G01*
X2791599Y1482699D01*
X2813500Y1453299D02*
G01*
X2814799Y1453299D01*
X2817500Y1451900D01*
X2818900Y1450500D01*
X2820299Y1447800D01*
X2820299Y1442399D01*
X2818900Y1439600D01*
X2817500Y1438299D01*
X2814799Y1436900D01*
X2812100Y1436900D01*
X2809399Y1438299D01*
X2805299Y1440999D01*
X2791599Y1454600D01*
X2791599Y1435500D01*
X2820299Y1416999D02*
G01*
X2791599Y1416999D01*
X2820299Y1426500D02*
G01*
X2820299Y1407500D01*
X2820299Y1398499D02*
G01*
X2791599Y1379400D01*
X2820299Y1379400D02*
G01*
X2791599Y1398499D01*
X2782100Y1370399D02*
G01*
X2782100Y1345799D01*
X2820299Y1336799D02*
G01*
X2791599Y1336799D01*
X2791599Y1336799D02*
G01*
X2791599Y1320500D01*
X2820299Y1311500D02*
G01*
X2791599Y1311500D01*
X2820299Y1311500D02*
G01*
X2820299Y1293699D01*
X2806599Y1311500D02*
G01*
X2806599Y1300500D01*
X2791599Y1311500D02*
G01*
X2791599Y1293699D01*
X2820299Y1284699D02*
G01*
X2791599Y1284699D01*
X2820299Y1284699D02*
G01*
X2820299Y1275199D01*
X2818900Y1271100D01*
X2816199Y1268400D01*
X2813500Y1266999D01*
X2809399Y1265599D01*
X2802500Y1265599D01*
X2798500Y1266999D01*
X2795699Y1268400D01*
X2793000Y1271100D01*
X2791599Y1275199D01*
X2791599Y1284699D01*
X2896400Y1333499D02*
G01*
X2896400Y1334800D01*
X2897700Y1337500D01*
X2899099Y1338899D01*
X2901800Y1340300D01*
X2907299Y1340300D01*
X2910000Y1338899D01*
X2911400Y1337500D01*
X2912700Y1334800D01*
X2912700Y1332100D01*
X2911400Y1329400D01*
X2908599Y1325300D01*
X2895000Y1311599D01*
X2914099Y1311599D01*
X2924499Y1333499D02*
G01*
X2924499Y1334800D01*
X2925799Y1337500D01*
X2927200Y1338899D01*
X2929899Y1340300D01*
X2935399Y1340300D01*
X2938100Y1338899D01*
X2939499Y1337500D01*
X2940799Y1334800D01*
X2940799Y1332100D01*
X2939499Y1329400D01*
X2936700Y1325300D01*
X2923100Y1311599D01*
X2942200Y1311599D01*
X2959399Y1340300D02*
G01*
X2955299Y1338899D01*
X2952500Y1334800D01*
X2951199Y1328000D01*
X2951199Y1323899D01*
X2952500Y1317100D01*
X2955299Y1313000D01*
X2959399Y1311599D01*
X2962100Y1311599D01*
X2966199Y1313000D01*
X2968900Y1317100D01*
X2970299Y1323899D01*
X2970299Y1328000D01*
X2968900Y1334800D01*
X2966199Y1338899D01*
X2962100Y1340300D01*
X2959399Y1340300D01*
X2733500Y1464499D02*
G01*
X2736199Y1465900D01*
X2738900Y1468600D01*
X2740299Y1471399D01*
X2740299Y1476799D01*
X2738900Y1479499D01*
X2736199Y1482300D01*
X2733500Y1483600D01*
X2729399Y1485000D01*
X2722500Y1485000D01*
X2718500Y1483600D01*
X2715699Y1482300D01*
X2713000Y1479499D01*
X2711599Y1476799D01*
X2711599Y1471399D01*
X2713000Y1468600D01*
X2715699Y1465900D01*
X2718500Y1464499D01*
X2722500Y1464499D01*
X2722500Y1471399D02*
G01*
X2722500Y1464499D01*
X2740299Y1455500D02*
G01*
X2711599Y1455500D01*
X2740299Y1455500D02*
G01*
X2740299Y1443299D01*
X2738900Y1439200D01*
X2737500Y1437800D01*
X2734799Y1436500D01*
X2730699Y1436500D01*
X2728000Y1437800D01*
X2726599Y1439200D01*
X2725299Y1443299D01*
X2725299Y1455500D01*
X2736199Y1408400D02*
G01*
X2738900Y1411100D01*
X2740299Y1415199D01*
X2740299Y1420599D01*
X2738900Y1424699D01*
X2736199Y1427500D01*
X2733500Y1427500D01*
X2730699Y1426100D01*
X2729399Y1424699D01*
X2728000Y1421999D01*
X2725299Y1413800D01*
X2723900Y1411100D01*
X2722500Y1409699D01*
X2719799Y1408400D01*
X2715699Y1408400D01*
X2713000Y1411100D01*
X2711599Y1415199D01*
X2711599Y1420599D01*
X2713000Y1424699D01*
X2715699Y1427500D01*
X2702100Y1399400D02*
G01*
X2702100Y1374800D01*
X2740299Y1356300D02*
G01*
X2711599Y1356300D01*
X2740299Y1365799D02*
G01*
X2740299Y1346700D01*
X2740299Y1337699D02*
G01*
X2711599Y1318600D01*
X2740299Y1318600D02*
G01*
X2711599Y1337699D01*
X2733500Y1308299D02*
G01*
X2734799Y1308299D01*
X2737500Y1306900D01*
X2738900Y1305500D01*
X2740299Y1302800D01*
X2740299Y1297399D01*
X2738900Y1294600D01*
X2737500Y1293299D01*
X2734799Y1291900D01*
X2732100Y1291900D01*
X2729399Y1293299D01*
X2725299Y1295999D01*
X2711599Y1309600D01*
X2711599Y1290500D01*
X2740299Y1281500D02*
G01*
X2711599Y1281500D01*
X2740299Y1281500D02*
G01*
X2740299Y1269299D01*
X2738900Y1265199D01*
X2737500Y1263800D01*
X2734799Y1262500D01*
X2732100Y1262500D01*
X2729399Y1263800D01*
X2728000Y1265199D01*
X2726599Y1269299D01*
X2726599Y1281500D01*
X2726599Y1271999D02*
G01*
X2711599Y1262500D01*
X2740299Y1253499D02*
G01*
X2711599Y1234400D01*
X2740299Y1234400D02*
G01*
X2711599Y1253499D01*
X2702100Y1225399D02*
G01*
X2702100Y1200799D01*
X2740299Y1191799D02*
G01*
X2711599Y1191799D01*
X2711599Y1191799D02*
G01*
X2711599Y1175500D01*
X2740299Y1166500D02*
G01*
X2711599Y1166500D01*
X2740299Y1166500D02*
G01*
X2740299Y1148699D01*
X2726599Y1166500D02*
G01*
X2726599Y1155500D01*
X2711599Y1166500D02*
G01*
X2711599Y1148699D01*
X2740299Y1139699D02*
G01*
X2711599Y1139699D01*
X2740299Y1139699D02*
G01*
X2740299Y1130199D01*
X2738900Y1126100D01*
X2736199Y1123400D01*
X2733500Y1121999D01*
X2729399Y1120599D01*
X2722500Y1120599D01*
X2718500Y1121999D01*
X2715699Y1123400D01*
X2713000Y1126100D01*
X2711599Y1130199D01*
X2711599Y1139699D01*
X2896400Y1238499D02*
G01*
X2896400Y1239800D01*
X2897700Y1242500D01*
X2899099Y1243899D01*
X2901800Y1245300D01*
X2907299Y1245300D01*
X2910000Y1243899D01*
X2911400Y1242500D01*
X2912700Y1239800D01*
X2912700Y1237100D01*
X2911400Y1234400D01*
X2908599Y1230300D01*
X2895000Y1216599D01*
X2914099Y1216599D01*
X2924499Y1238499D02*
G01*
X2924499Y1239800D01*
X2925799Y1242500D01*
X2927200Y1243899D01*
X2929899Y1245300D01*
X2935399Y1245300D01*
X2938100Y1243899D01*
X2939499Y1242500D01*
X2940799Y1239800D01*
X2940799Y1237100D01*
X2939499Y1234400D01*
X2936700Y1230300D01*
X2923100Y1216599D01*
X2942200Y1216599D01*
X2959399Y1245300D02*
G01*
X2955299Y1243899D01*
X2952500Y1239800D01*
X2951199Y1233000D01*
X2951199Y1228899D01*
X2952500Y1222100D01*
X2955299Y1218000D01*
X2959399Y1216599D01*
X2962100Y1216599D01*
X2966199Y1218000D01*
X2968900Y1222100D01*
X2970299Y1228899D01*
X2970299Y1233000D01*
X2968900Y1239800D01*
X2966199Y1243899D01*
X2962100Y1245300D01*
X2959399Y1245300D01*
X708600Y165300D02*
G01*
X708600Y143499D01*
X707300Y139400D01*
X705900Y138000D01*
X703200Y136599D01*
X700500Y136599D01*
X697699Y138000D01*
X696399Y139400D01*
X695000Y143499D01*
X695000Y146199D01*
X717600Y127100D02*
G01*
X742199Y127100D01*
X751199Y165300D02*
G01*
X751199Y144800D01*
X752500Y140700D01*
X755300Y138000D01*
X759400Y136599D01*
X762100Y136599D01*
X766199Y138000D01*
X768900Y140700D01*
X770299Y144800D01*
X770299Y165300D01*
X779300Y165300D02*
G01*
X779300Y136599D01*
X779300Y136599D02*
G01*
X795600Y136599D01*
X814200Y165300D02*
G01*
X814200Y136599D01*
X804600Y165300D02*
G01*
X823699Y165300D01*
X832700Y165300D02*
G01*
X832700Y136599D01*
X832700Y165300D02*
G01*
X845000Y165300D01*
X849099Y163899D01*
X850500Y162500D01*
X851800Y159800D01*
X851800Y157100D01*
X850500Y154400D01*
X849099Y153000D01*
X845000Y151599D01*
X832700Y151599D01*
X842299Y151599D02*
G01*
X851800Y136599D01*
X871700Y165300D02*
G01*
X860799Y136599D01*
X871700Y165300D02*
G01*
X882600Y136599D01*
X864899Y146199D02*
G01*
X878500Y146199D01*
X910699Y161199D02*
G01*
X908000Y163899D01*
X903900Y165300D01*
X898500Y165300D01*
X894399Y163899D01*
X891599Y161199D01*
X891599Y158499D01*
X893000Y155700D01*
X894399Y154400D01*
X897100Y153000D01*
X905299Y150300D01*
X908000Y148899D01*
X909399Y147500D01*
X910699Y144800D01*
X910699Y140700D01*
X908000Y138000D01*
X903900Y136599D01*
X898500Y136599D01*
X894399Y138000D01*
X891599Y140700D01*
X927899Y165300D02*
G01*
X925200Y163899D01*
X922500Y161199D01*
X921099Y158499D01*
X919700Y154400D01*
X919700Y147500D01*
X921099Y143499D01*
X922500Y140700D01*
X925200Y138000D01*
X927899Y136599D01*
X933400Y136599D01*
X936099Y138000D01*
X938800Y140700D01*
X940200Y143499D01*
X941499Y147500D01*
X941499Y154400D01*
X940200Y158499D01*
X938800Y161199D01*
X936099Y163899D01*
X933400Y165300D01*
X927899Y165300D01*
X950500Y165300D02*
G01*
X950500Y136599D01*
X950500Y165300D02*
G01*
X969600Y136599D01*
X969600Y165300D02*
G01*
X969600Y136599D01*
X978599Y159800D02*
G01*
X981400Y161199D01*
X985500Y165300D01*
X985500Y136599D01*
X1139700Y975000D02*
G01*
X1168400Y975000D01*
X1168400Y975000D02*
G01*
X1168400Y991399D01*
X1139700Y1000399D02*
G01*
X1168400Y1000399D01*
X1139700Y1000399D02*
G01*
X1139700Y1018099D01*
X1153400Y1000399D02*
G01*
X1153400Y1011300D01*
X1168400Y1000399D02*
G01*
X1168400Y1018099D01*
X1139700Y1027100D02*
G01*
X1168400Y1027100D01*
X1139700Y1027100D02*
G01*
X1139700Y1036599D01*
X1141099Y1040700D01*
X1143800Y1043499D01*
X1146499Y1044800D01*
X1150600Y1046199D01*
X1157500Y1046199D01*
X1161499Y1044800D01*
X1164300Y1043499D01*
X1166999Y1040700D01*
X1168400Y1036599D01*
X1168400Y1027100D01*
X1145200Y1055199D02*
G01*
X1143800Y1057899D01*
X1139700Y1061999D01*
X1168400Y1061999D01*
X1177899Y1070999D02*
G01*
X1177899Y1095500D01*
X1146499Y1105900D02*
G01*
X1145200Y1105900D01*
X1142500Y1107300D01*
X1141099Y1108600D01*
X1139700Y1111399D01*
X1139700Y1116799D01*
X1141099Y1119499D01*
X1142500Y1120900D01*
X1145200Y1122300D01*
X1147899Y1122300D01*
X1150600Y1120900D01*
X1154700Y1118200D01*
X1168400Y1104499D01*
X1168400Y1123600D01*
D11*
X3334399Y1465000D02*
G01*
X3401199Y1465000D01*
X3334399Y1465000D02*
G01*
X3401199Y1509499D01*
X3334399Y1509499D02*
G01*
X3401199Y1509499D01*
X3334399Y1530500D02*
G01*
X3401199Y1530500D01*
X3334399Y1530500D02*
G01*
X3334399Y1559200D01*
X3337500Y1568699D01*
X3340699Y1571900D01*
X3347100Y1575100D01*
X3353500Y1575100D01*
X3359799Y1571900D01*
X3363000Y1568699D01*
X3366199Y1559200D01*
X3366199Y1530500D01*
X3366199Y1552800D02*
G01*
X3401199Y1575100D01*
X3334399Y1596100D02*
G01*
X3401199Y1596100D01*
X3334399Y1596100D02*
G01*
X3334399Y1637500D01*
X3366199Y1596100D02*
G01*
X3366199Y1621500D01*
X3350299Y1661599D02*
G01*
X3347100Y1661599D01*
X3340699Y1664800D01*
X3337500Y1668000D01*
X3334399Y1674400D01*
X3334399Y1687100D01*
X3337500Y1693499D01*
X3340699Y1696599D01*
X3347100Y1699800D01*
X3353500Y1699800D01*
X3359799Y1696599D01*
X3369399Y1690300D01*
X3401199Y1658499D01*
X3401199Y1703000D01*
X3334399Y1755799D02*
G01*
X3378900Y1724000D01*
X3378900Y1771700D01*
X3334399Y1755799D02*
G01*
X3401199Y1755799D01*
X3334399Y1811799D02*
G01*
X3337500Y1802300D01*
X3347100Y1795900D01*
X3363000Y1792699D01*
X3372500Y1792699D01*
X3388500Y1795900D01*
X3398000Y1802300D01*
X3401199Y1811799D01*
X3401199Y1818200D01*
X3398000Y1827699D01*
X3388500Y1834099D01*
X3372500Y1837300D01*
X3363000Y1837300D01*
X3347100Y1834099D01*
X3337500Y1827699D01*
X3334399Y1818200D01*
X3334399Y1811799D01*
X3347100Y1858299D02*
G01*
X3343900Y1864600D01*
X3334399Y1874200D01*
X3401199Y1874200D01*
D10*
X3056499Y1531399D02*
G01*
X3055200Y1531399D01*
X3052500Y1532699D01*
X3051099Y1534099D01*
X3049700Y1536799D01*
X3049700Y1542300D01*
X3051099Y1545000D01*
X3052500Y1546399D01*
X3055200Y1547699D01*
X3057899Y1547699D01*
X3060600Y1546399D01*
X3064700Y1543600D01*
X3078400Y1530000D01*
X3078400Y1549099D01*
X3056499Y1559499D02*
G01*
X3055200Y1559499D01*
X3052500Y1560799D01*
X3051099Y1562199D01*
X3049700Y1564899D01*
X3049700Y1570399D01*
X3051099Y1573099D01*
X3052500Y1574499D01*
X3055200Y1575799D01*
X3057899Y1575799D01*
X3060600Y1574499D01*
X3064700Y1571700D01*
X3078400Y1558099D01*
X3078400Y1577199D01*
X3049700Y1594400D02*
G01*
X3051099Y1590300D01*
X3055200Y1587500D01*
X3061999Y1586199D01*
X3066099Y1586199D01*
X3072899Y1587500D01*
X3076999Y1590300D01*
X3078400Y1594400D01*
X3078400Y1597100D01*
X3076999Y1601199D01*
X3072899Y1603899D01*
X3066099Y1605300D01*
X3061999Y1605300D01*
X3055200Y1603899D01*
X3051099Y1601199D01*
X3049700Y1597100D01*
X3049700Y1594400D01*
X3925200Y1820000D02*
G01*
X3923800Y1822699D01*
X3919700Y1826799D01*
X3948400Y1826799D01*
X3919700Y1844000D02*
G01*
X3921099Y1839899D01*
X3925200Y1837199D01*
X3931999Y1835799D01*
X3936099Y1835799D01*
X3942899Y1837199D01*
X3946999Y1839899D01*
X3948400Y1844000D01*
X3948400Y1846700D01*
X3946999Y1850799D01*
X3942899Y1853499D01*
X3936099Y1854899D01*
X3931999Y1854899D01*
X3925200Y1853499D01*
X3921099Y1850799D01*
X3919700Y1846700D01*
X3919700Y1844000D01*
X3919700Y1863899D02*
G01*
X3948400Y1863899D01*
X3919700Y1883000D02*
G01*
X3938800Y1863899D01*
X3931999Y1870700D02*
G01*
X3948400Y1883000D01*
X2951499Y1531399D02*
G01*
X2950200Y1531399D01*
X2947500Y1532699D01*
X2946099Y1534099D01*
X2944700Y1536799D01*
X2944700Y1542300D01*
X2946099Y1545000D01*
X2947500Y1546399D01*
X2950200Y1547699D01*
X2952899Y1547699D01*
X2955600Y1546399D01*
X2959700Y1543600D01*
X2973400Y1530000D01*
X2973400Y1549099D01*
X2951499Y1559499D02*
G01*
X2950200Y1559499D01*
X2947500Y1560799D01*
X2946099Y1562199D01*
X2944700Y1564899D01*
X2944700Y1570399D01*
X2946099Y1573099D01*
X2947500Y1574499D01*
X2950200Y1575799D01*
X2952899Y1575799D01*
X2955600Y1574499D01*
X2959700Y1571700D01*
X2973400Y1558099D01*
X2973400Y1577199D01*
X2944700Y1594400D02*
G01*
X2946099Y1590300D01*
X2950200Y1587500D01*
X2956999Y1586199D01*
X2961099Y1586199D01*
X2967899Y1587500D01*
X2971999Y1590300D01*
X2973400Y1594400D01*
X2973400Y1597100D01*
X2971999Y1601199D01*
X2967899Y1603899D01*
X2961099Y1605300D01*
X2956999Y1605300D01*
X2950200Y1603899D01*
X2946099Y1601199D01*
X2944700Y1597100D01*
X2944700Y1594400D01*
X3930200Y1320000D02*
G01*
X3928800Y1322699D01*
X3924700Y1326799D01*
X3953400Y1326799D01*
X3924700Y1344000D02*
G01*
X3926099Y1339899D01*
X3930200Y1337199D01*
X3936999Y1335799D01*
X3941099Y1335799D01*
X3947899Y1337199D01*
X3951999Y1339899D01*
X3953400Y1344000D01*
X3953400Y1346700D01*
X3951999Y1350799D01*
X3947899Y1353499D01*
X3941099Y1354899D01*
X3936999Y1354899D01*
X3930200Y1353499D01*
X3926099Y1350799D01*
X3924700Y1346700D01*
X3924700Y1344000D01*
X3924700Y1363899D02*
G01*
X3953400Y1363899D01*
X3924700Y1383000D02*
G01*
X3943800Y1363899D01*
X3936999Y1370700D02*
G01*
X3953400Y1383000D01*
X2294099Y1313200D02*
G01*
X2296400Y1310900D01*
X2299799Y1309800D01*
X2304300Y1309800D01*
X2307700Y1310900D01*
X2310000Y1313200D01*
X2310000Y1315500D01*
X2308900Y1317699D01*
X2307700Y1318899D01*
X2305500Y1320000D01*
X2298599Y1322300D01*
X2296400Y1323400D01*
X2295200Y1324499D01*
X2294099Y1326799D01*
X2294099Y1330199D01*
X2296400Y1332500D01*
X2299799Y1333600D01*
X2304300Y1333600D01*
X2307700Y1332500D01*
X2310000Y1330199D01*
X2286599Y1309800D02*
G01*
X2280900Y1333600D01*
X2275200Y1309800D02*
G01*
X2280900Y1333600D01*
X2275200Y1309800D02*
G01*
X2269499Y1333600D01*
X2263900Y1309800D02*
G01*
X2269499Y1333600D01*
X2255200Y1315500D02*
G01*
X2255200Y1314299D01*
X2254099Y1311999D01*
X2253000Y1310900D01*
X2250699Y1309800D01*
X2246099Y1309800D01*
X2243900Y1310900D01*
X2242700Y1311999D01*
X2241599Y1314299D01*
X2241599Y1316599D01*
X2242700Y1318899D01*
X2245000Y1322300D01*
X2256400Y1333600D01*
X2240500Y1333600D01*
X3740399Y555000D02*
G01*
X3709700Y555000D01*
X3703599Y553000D01*
X3699499Y548899D01*
X3697500Y542699D01*
X3697500Y538600D01*
X3699499Y532500D01*
X3703599Y528400D01*
X3709700Y526399D01*
X3740399Y526399D01*
X3740399Y488299D02*
G01*
X3740399Y508800D01*
X3721999Y510799D01*
X3723999Y508800D01*
X3726099Y502600D01*
X3726099Y496500D01*
X3723999Y490399D01*
X3720000Y486300D01*
X3713800Y484200D01*
X3709700Y484200D01*
X3703599Y486300D01*
X3699499Y490399D01*
X3697500Y496500D01*
X3697500Y502600D01*
X3699499Y508800D01*
X3701499Y510799D01*
X3705600Y512899D01*
X940000Y2085199D02*
G01*
X940000Y2061399D01*
X940000Y2085199D02*
G01*
X954799Y2085199D01*
X940000Y2073899D02*
G01*
X949099Y2073899D01*
X962299Y2080700D02*
G01*
X964499Y2081799D01*
X968000Y2085199D01*
X968000Y2061399D01*
X975500Y2053400D02*
G01*
X995900Y2053400D01*
X1003400Y2080700D02*
G01*
X1005699Y2081799D01*
X1009099Y2085199D01*
X1009099Y2061399D01*
X2410000Y2086199D02*
G01*
X2410000Y2061399D01*
X2410000Y2086199D02*
G01*
X2425399Y2086199D01*
X2410000Y2074400D02*
G01*
X2419499Y2074400D01*
X2433199Y2081500D02*
G01*
X2435500Y2082699D01*
X2439099Y2086199D01*
X2439099Y2061399D01*
X2446899Y2053099D02*
G01*
X2468100Y2053099D01*
X2477100Y2080300D02*
G01*
X2477100Y2081500D01*
X2478299Y2083899D01*
X2479499Y2085100D01*
X2481899Y2086199D01*
X2486599Y2086199D01*
X2488900Y2085100D01*
X2490100Y2083899D01*
X2491300Y2081500D01*
X2491300Y2079099D01*
X2490100Y2076799D01*
X2487799Y2073200D01*
X2475900Y2061399D01*
X2492500Y2061399D01*
X2805000Y2085199D02*
G01*
X2805000Y2061399D01*
X2805000Y2085199D02*
G01*
X2819799Y2085199D01*
X2805000Y2073899D02*
G01*
X2814099Y2073899D01*
X2827299Y2080700D02*
G01*
X2829499Y2081799D01*
X2833000Y2085199D01*
X2833000Y2061399D01*
X2840500Y2053400D02*
G01*
X2860900Y2053400D01*
X2870699Y2085199D02*
G01*
X2883199Y2085199D01*
X2876400Y2076100D01*
X2879799Y2076100D01*
X2881999Y2075000D01*
X2883199Y2073899D01*
X2884300Y2070500D01*
X2884300Y2068200D01*
X2883199Y2064800D01*
X2880900Y2062500D01*
X2877500Y2061399D01*
X2874099Y2061399D01*
X2870699Y2062500D01*
X2869499Y2063600D01*
X2868400Y2065900D01*
X3260000Y9699D02*
G01*
X3260000Y38400D01*
X3260000Y9699D02*
G01*
X3242299Y9699D01*
X3260000Y23400D02*
G01*
X3249099Y23400D01*
X3230500Y9699D02*
G01*
X3215500Y9699D01*
X3223699Y20599D01*
X3219600Y20599D01*
X3216899Y21999D01*
X3215500Y23400D01*
X3214200Y27500D01*
X3214200Y30199D01*
X3215500Y34299D01*
X3218299Y36999D01*
X3222399Y38400D01*
X3226499Y38400D01*
X3230500Y36999D01*
X3231899Y35599D01*
X3233299Y32899D01*
X3205200Y47899D02*
G01*
X3180600Y47899D01*
X3171599Y15199D02*
G01*
X3168900Y13800D01*
X3164799Y9699D01*
X3164799Y38400D01*
X2460000Y9699D02*
G01*
X2460000Y38400D01*
X2460000Y9699D02*
G01*
X2442299Y9699D01*
X2460000Y23400D02*
G01*
X2449099Y23400D01*
X2430500Y9699D02*
G01*
X2415500Y9699D01*
X2423699Y20599D01*
X2419600Y20599D01*
X2416899Y21999D01*
X2415500Y23400D01*
X2414200Y27500D01*
X2414200Y30199D01*
X2415500Y34299D01*
X2418299Y36999D01*
X2422399Y38400D01*
X2426499Y38400D01*
X2430500Y36999D01*
X2431899Y35599D01*
X2433299Y32899D01*
X2405200Y47899D02*
G01*
X2380600Y47899D01*
X2370299Y16500D02*
G01*
X2370299Y15199D01*
X2368900Y12500D01*
X2367500Y11100D01*
X2364799Y9699D01*
X2359399Y9699D01*
X2356599Y11100D01*
X2355299Y12500D01*
X2353900Y15199D01*
X2353900Y17899D01*
X2355299Y20599D01*
X2358000Y24699D01*
X2371599Y38400D01*
X2352500Y38400D01*
X575000Y234699D02*
G01*
X575000Y255199D01*
X573600Y259299D01*
X570900Y261999D01*
X566799Y263400D01*
X564099Y263400D01*
X560000Y261999D01*
X557300Y259299D01*
X555900Y255199D01*
X555900Y234699D01*
X545500Y241500D02*
G01*
X545500Y240199D01*
X544200Y237500D01*
X542800Y236100D01*
X540100Y234699D01*
X534600Y234699D01*
X531900Y236100D01*
X530500Y237500D01*
X529200Y240199D01*
X529200Y242899D01*
X530500Y245599D01*
X533299Y249699D01*
X546900Y263400D01*
X527800Y263400D01*
D11*
X680700Y1085000D02*
G01*
X604400Y1085000D01*
X604400Y1085000D02*
G01*
X604400Y1041399D01*
X669800Y966500D02*
G01*
X677100Y973699D01*
X680700Y984600D01*
X680700Y999200D01*
X677100Y1010100D01*
X669800Y1017399D01*
X662500Y1017399D01*
X655300Y1013699D01*
X651599Y1010100D01*
X648000Y1002800D01*
X640700Y980999D01*
X637100Y973699D01*
X633499Y970100D01*
X626199Y966500D01*
X615300Y966500D01*
X608000Y973699D01*
X604400Y984600D01*
X604400Y999200D01*
X608000Y1010100D01*
X615300Y1017399D01*
X680700Y942500D02*
G01*
X604400Y942500D01*
X680700Y942500D02*
G01*
X604400Y913400D01*
X680700Y884299D02*
G01*
X604400Y913400D01*
X680700Y884299D02*
G01*
X604400Y884299D01*
X655300Y813000D02*
G01*
X644400Y816599D01*
X637100Y823899D01*
X633499Y834800D01*
X633499Y838499D01*
X637100Y849400D01*
X644400Y856599D01*
X655300Y860300D01*
X658899Y860300D01*
X669800Y856599D01*
X677100Y849400D01*
X680700Y838499D01*
X680700Y834800D01*
X677100Y823899D01*
X669800Y816599D01*
X655300Y813000D01*
X637100Y813000D01*
X618899Y816599D01*
X608000Y823899D01*
X604400Y834800D01*
X604400Y842100D01*
X608000Y853000D01*
X615300Y856599D01*
X680700Y789000D02*
G01*
X604400Y789000D01*
X680700Y789000D02*
G01*
X680700Y763499D01*
X677100Y752600D01*
X669800Y745399D01*
X662500Y741700D01*
X651599Y738099D01*
X633499Y738099D01*
X622500Y741700D01*
X615300Y745399D01*
X608000Y752600D01*
X604400Y763499D01*
X604400Y789000D01*
X669800Y663200D02*
G01*
X677100Y670500D01*
X680700Y681399D01*
X680700Y695900D01*
X677100Y706799D01*
X669800Y714099D01*
X662500Y714099D01*
X655300Y710500D01*
X651599Y706799D01*
X648000Y699499D01*
X640700Y677699D01*
X637100Y670500D01*
X633499Y666799D01*
X626199Y663200D01*
X615300Y663200D01*
X608000Y670500D01*
X604400Y681399D01*
X604400Y695900D01*
X608000Y706799D01*
X615300Y714099D01*
X666199Y639200D02*
G01*
X669800Y631900D01*
X680700Y620999D01*
X604400Y620999D01*
D12*
X863701Y1011707D02*
G01*
X863701Y1041806D01*
X863701Y1011707D02*
G01*
X853701Y1011707D01*
X849400Y1013107D01*
X846601Y1016006D01*
X845101Y1018906D01*
X843701Y1023207D01*
X843701Y1030306D01*
X845101Y1034607D01*
X846601Y1037507D01*
X849400Y1040306D01*
X853701Y1041806D01*
X863701Y1041806D01*
X825700Y1011707D02*
G01*
X828500Y1013107D01*
X831400Y1016006D01*
X832800Y1018906D01*
X834201Y1023207D01*
X834201Y1030306D01*
X832800Y1034607D01*
X831400Y1037507D01*
X828500Y1040306D01*
X825700Y1041806D01*
X819900Y1041806D01*
X817101Y1040306D01*
X814201Y1037507D01*
X812800Y1034607D01*
X811301Y1030306D01*
X811301Y1023207D01*
X812800Y1018906D01*
X814201Y1016006D01*
X817101Y1013107D01*
X819900Y1011707D01*
X825700Y1011707D01*
X801900Y1011707D02*
G01*
X801900Y1041806D01*
X801900Y1011707D02*
G01*
X790401Y1041806D01*
X779000Y1011707D02*
G01*
X790401Y1041806D01*
X779000Y1011707D02*
G01*
X779000Y1041806D01*
X843701Y916006D02*
G01*
X846601Y913107D01*
X850901Y911707D01*
X856601Y911707D01*
X860901Y913107D01*
X863701Y916006D01*
X863701Y918906D01*
X862300Y921707D01*
X860901Y923207D01*
X858001Y924607D01*
X849400Y927507D01*
X846601Y928906D01*
X845101Y930306D01*
X843701Y933207D01*
X843701Y937507D01*
X846601Y940306D01*
X850901Y941806D01*
X856601Y941806D01*
X860901Y940306D01*
X863701Y937507D01*
X834201Y911707D02*
G01*
X834201Y941806D01*
X834201Y911707D02*
G01*
X824201Y911707D01*
X819900Y913107D01*
X817101Y916006D01*
X815600Y918906D01*
X814201Y923207D01*
X814201Y930306D01*
X815600Y934607D01*
X817101Y937507D01*
X819900Y940306D01*
X824201Y941806D01*
X834201Y941806D01*
X796201Y911707D02*
G01*
X799000Y913107D01*
X801900Y916006D01*
X803301Y918906D01*
X804800Y923207D01*
X804800Y930306D01*
X803301Y934607D01*
X801900Y937507D01*
X799000Y940306D01*
X796201Y941806D01*
X790401Y941806D01*
X787601Y940306D01*
X784700Y937507D01*
X783301Y934607D01*
X781800Y930306D01*
X781800Y923207D01*
X783301Y918906D01*
X784700Y916006D01*
X787601Y913107D01*
X790401Y911707D01*
X796201Y911707D01*
X760901Y911707D02*
G01*
X772400Y941806D01*
X760901Y911707D02*
G01*
X749501Y941806D01*
X768100Y931806D02*
G01*
X753800Y931806D01*
X718600Y918906D02*
G01*
X720001Y916006D01*
X722901Y913107D01*
X725700Y911707D01*
X731500Y911707D01*
X734301Y913107D01*
X737201Y916006D01*
X738600Y918906D01*
X740001Y923207D01*
X740001Y930306D01*
X738600Y934607D01*
X737201Y937507D01*
X734301Y940306D01*
X731500Y941806D01*
X725700Y941806D01*
X722901Y940306D01*
X720001Y937507D01*
X718600Y934607D01*
X718600Y930306D01*
X725700Y930306D02*
G01*
X718600Y930306D01*
X842300Y718906D02*
G01*
X843701Y716006D01*
X846601Y713107D01*
X849400Y711707D01*
X855101Y711707D01*
X858001Y713107D01*
X860901Y716006D01*
X862300Y718906D01*
X863701Y723207D01*
X863701Y730306D01*
X862300Y734607D01*
X860901Y737507D01*
X858001Y740306D01*
X855101Y741806D01*
X849400Y741806D01*
X846601Y740306D01*
X843701Y737507D01*
X842300Y734607D01*
X812800Y716006D02*
G01*
X815600Y713107D01*
X819900Y711707D01*
X825700Y711707D01*
X830001Y713107D01*
X832800Y716006D01*
X832800Y718906D01*
X831400Y721707D01*
X830001Y723207D01*
X827101Y724607D01*
X818500Y727507D01*
X815600Y728906D01*
X814201Y730306D01*
X812800Y733207D01*
X812800Y737507D01*
X815600Y740306D01*
X819900Y741806D01*
X825700Y741806D01*
X830001Y740306D01*
X832800Y737507D01*
X791900Y711707D02*
G01*
X803301Y741806D01*
X791900Y711707D02*
G01*
X780401Y741806D01*
X799000Y731806D02*
G01*
X784700Y731806D01*
X749501Y718906D02*
G01*
X750900Y716006D01*
X753800Y713107D01*
X756700Y711707D01*
X762400Y711707D01*
X765200Y713107D01*
X768100Y716006D01*
X769501Y718906D01*
X771000Y723207D01*
X771000Y730306D01*
X769501Y734607D01*
X768100Y737507D01*
X765200Y740306D01*
X762400Y741806D01*
X756700Y741806D01*
X753800Y740306D01*
X750900Y737507D01*
X749501Y734607D01*
X749501Y730306D01*
X756700Y730306D02*
G01*
X749501Y730306D01*
X842300Y818906D02*
G01*
X843701Y816006D01*
X846601Y813107D01*
X849400Y811707D01*
X855101Y811707D01*
X858001Y813107D01*
X860901Y816006D01*
X862300Y818906D01*
X863701Y823207D01*
X863701Y830306D01*
X862300Y834607D01*
X860901Y837507D01*
X858001Y840306D01*
X855101Y841806D01*
X849400Y841806D01*
X846601Y840306D01*
X843701Y837507D01*
X842300Y834607D01*
X812800Y816006D02*
G01*
X815600Y813107D01*
X819900Y811707D01*
X825700Y811707D01*
X830001Y813107D01*
X832800Y816006D01*
X832800Y818906D01*
X831400Y821707D01*
X830001Y823207D01*
X827101Y824607D01*
X818500Y827507D01*
X815600Y828906D01*
X814201Y830306D01*
X812800Y833207D01*
X812800Y837507D01*
X815600Y840306D01*
X819900Y841806D01*
X825700Y841806D01*
X830001Y840306D01*
X832800Y837507D01*
X803301Y811707D02*
G01*
X803301Y841806D01*
X803301Y811707D02*
G01*
X791900Y841806D01*
X780401Y811707D02*
G01*
X791900Y841806D01*
X780401Y811707D02*
G01*
X780401Y841806D01*
D11*
X744499Y636100D02*
G01*
X738200Y642500D01*
X728600Y645599D01*
X715900Y645599D01*
X706399Y642500D01*
X700000Y636100D01*
X700000Y629699D01*
X703200Y623400D01*
X706399Y620199D01*
X712699Y616999D01*
X731799Y610599D01*
X738200Y607500D01*
X741399Y604299D01*
X744499Y597899D01*
X744499Y588400D01*
X738200Y581999D01*
X728600Y578800D01*
X715900Y578800D01*
X706399Y581999D01*
X700000Y588400D01*
X765500Y645599D02*
G01*
X765500Y578800D01*
X765500Y645599D02*
G01*
X787799Y645599D01*
X797399Y642500D01*
X803699Y636100D01*
X806899Y629699D01*
X810100Y620199D01*
X810100Y604299D01*
X806899Y594699D01*
X803699Y588400D01*
X797399Y581999D01*
X787799Y578800D01*
X765500Y578800D01*
X856499Y645599D02*
G01*
X831099Y578800D01*
X856499Y645599D02*
G01*
X881999Y578800D01*
X840600Y601100D02*
G01*
X872500Y601100D01*
X739499Y536100D02*
G01*
X733200Y542500D01*
X723600Y545599D01*
X710900Y545599D01*
X701399Y542500D01*
X695000Y536100D01*
X695000Y529699D01*
X698200Y523400D01*
X701399Y520199D01*
X707699Y516999D01*
X726799Y510599D01*
X733200Y507500D01*
X736399Y504299D01*
X739499Y497899D01*
X739499Y488400D01*
X733200Y481999D01*
X723600Y478800D01*
X710900Y478800D01*
X701399Y481999D01*
X695000Y488400D01*
X808299Y529699D02*
G01*
X805100Y536100D01*
X798699Y542500D01*
X792399Y545599D01*
X779600Y545599D01*
X773299Y542500D01*
X766899Y536100D01*
X763699Y529699D01*
X760500Y520199D01*
X760500Y504299D01*
X763699Y494699D01*
X766899Y488400D01*
X773299Y481999D01*
X779600Y478800D01*
X792399Y478800D01*
X798699Y481999D01*
X805100Y488400D01*
X808299Y494699D01*
X829300Y545599D02*
G01*
X829300Y478800D01*
X829300Y478800D02*
G01*
X867500Y478800D01*
X737699Y439699D02*
G01*
X734499Y446100D01*
X728200Y452500D01*
X721799Y455599D01*
X709099Y455599D01*
X702699Y452500D01*
X696399Y446100D01*
X693200Y439699D01*
X690000Y430199D01*
X690000Y414299D01*
X693200Y404699D01*
X696399Y398400D01*
X702699Y391999D01*
X709099Y388800D01*
X721799Y388800D01*
X728200Y391999D01*
X734499Y398400D01*
X737699Y404699D01*
X737699Y414299D01*
X721799Y414299D02*
G01*
X737699Y414299D01*
X758699Y455599D02*
G01*
X758699Y388800D01*
X758699Y455599D02*
G01*
X803299Y388800D01*
X803299Y455599D02*
G01*
X803299Y388800D01*
X824300Y455599D02*
G01*
X824300Y388800D01*
X824300Y455599D02*
G01*
X846499Y455599D01*
X856099Y452500D01*
X862500Y446100D01*
X865600Y439699D01*
X868800Y430199D01*
X868800Y414299D01*
X865600Y404699D01*
X862500Y398400D01*
X856099Y391999D01*
X846499Y388800D01*
X824300Y388800D01*
D12*
X822839Y341802D02*
G01*
X838639Y341802D01*
X830038Y330302D01*
X834339Y330302D01*
X837138Y328903D01*
X838639Y327503D01*
X840038Y323202D01*
X840038Y320302D01*
X838639Y316003D01*
X835739Y313103D01*
X831439Y311703D01*
X827138Y311703D01*
X822839Y313103D01*
X821439Y314603D01*
X820038Y317402D01*
X849539Y341802D02*
G01*
X860938Y311703D01*
X872439Y341802D02*
G01*
X860938Y311703D01*
D11*
X735000Y270599D02*
G01*
X760500Y203800D01*
X785900Y270599D02*
G01*
X760500Y203800D01*
X806899Y270599D02*
G01*
X810100Y267500D01*
X813299Y270599D01*
X810100Y273800D01*
X806899Y270599D01*
X810100Y248400D02*
G01*
X810100Y203800D01*
X834300Y248400D02*
G01*
X834300Y203800D01*
X834300Y235599D02*
G01*
X843800Y245199D01*
X850200Y248400D01*
X859700Y248400D01*
X866099Y245199D01*
X869300Y235599D01*
X869300Y203800D01*
D12*
X575037Y808170D02*
G01*
X575037Y838270D01*
X575037Y808170D02*
G01*
X564938Y808170D01*
X560637Y809670D01*
X557838Y812469D01*
X556338Y815369D01*
X554938Y819670D01*
X554938Y826869D01*
X556338Y831170D01*
X557838Y833969D01*
X560637Y836869D01*
X564938Y838270D01*
X575037Y838270D01*
X545538Y808170D02*
G01*
X545538Y838270D01*
X545538Y808170D02*
G01*
X532638Y808170D01*
X528337Y809670D01*
X526938Y811069D01*
X525437Y813969D01*
X525437Y816770D01*
X526938Y819670D01*
X528337Y821069D01*
X532638Y822570D01*
X545538Y822570D01*
X535437Y822570D02*
G01*
X525437Y838270D01*
X516037Y808170D02*
G01*
X516037Y838270D01*
X516037Y808170D02*
G01*
X506037Y808170D01*
X501738Y809670D01*
X498838Y812469D01*
X497438Y815369D01*
X495938Y819670D01*
X495938Y826869D01*
X497438Y831170D01*
X498838Y833969D01*
X501738Y836869D01*
X506037Y838270D01*
X516037Y838270D01*
X486538Y808170D02*
G01*
X475037Y822570D01*
X475037Y838270D01*
X463638Y808170D02*
G01*
X475037Y822570D01*
X564528Y709980D02*
G01*
X564528Y740079D01*
X555028Y709980D02*
G01*
X555028Y740079D01*
X555028Y709980D02*
G01*
X535028Y740079D01*
X535028Y709980D02*
G01*
X535028Y740079D01*
X515527Y709980D02*
G01*
X515527Y740079D01*
X525527Y709980D02*
G01*
X505527Y709980D01*
X496028Y709980D02*
G01*
X496028Y740079D01*
X496028Y709980D02*
G01*
X484627Y740079D01*
X473128Y709980D02*
G01*
X484627Y740079D01*
X473128Y709980D02*
G01*
X473128Y740079D01*
X548726Y610079D02*
G01*
X548726Y640079D01*
X539227Y610079D02*
G01*
X539227Y640079D01*
X539227Y610079D02*
G01*
X519227Y640079D01*
X519227Y610079D02*
G01*
X519227Y640079D01*
X499726Y610079D02*
G01*
X499726Y640079D01*
X509726Y610079D02*
G01*
X489726Y610079D01*
X480226Y615779D02*
G01*
X477426Y614380D01*
X473126Y610079D01*
X473126Y640079D01*
X561626Y510079D02*
G01*
X561626Y540079D01*
X552125Y510079D02*
G01*
X552125Y540079D01*
X552125Y510079D02*
G01*
X532125Y540079D01*
X532125Y510079D02*
G01*
X532125Y540079D01*
X512626Y510079D02*
G01*
X512626Y540079D01*
X522626Y510079D02*
G01*
X502626Y510079D01*
X491725Y517179D02*
G01*
X491725Y515779D01*
X490326Y512880D01*
X488825Y511480D01*
X486026Y510079D01*
X480225Y510079D01*
X477426Y511480D01*
X475925Y512880D01*
X474526Y515779D01*
X474526Y518580D01*
X475925Y521480D01*
X478825Y525779D01*
X493126Y540079D01*
X473126Y540079D01*
X550727Y410079D02*
G01*
X550727Y440079D01*
X550727Y410079D02*
G01*
X540727Y410079D01*
X536426Y411480D01*
X533526Y414380D01*
X532127Y417179D01*
X530727Y421480D01*
X530727Y428679D01*
X532127Y432979D01*
X533526Y435779D01*
X536426Y438679D01*
X540727Y440079D01*
X550727Y440079D01*
X521226Y410079D02*
G01*
X521226Y440079D01*
X521226Y410079D02*
G01*
X502627Y410079D01*
X521226Y424380D02*
G01*
X509827Y424380D01*
X521226Y440079D02*
G01*
X502627Y440079D01*
X493227Y410079D02*
G01*
X493227Y440079D01*
X493227Y410079D02*
G01*
X473126Y440079D01*
X473126Y410079D02*
G01*
X473126Y440079D01*
D10*
X1710000Y590300D02*
G01*
X1710000Y569800D01*
X1711400Y565700D01*
X1714099Y563000D01*
X1718199Y561599D01*
X1720900Y561599D01*
X1725000Y563000D01*
X1727700Y565700D01*
X1729099Y569800D01*
X1729099Y590300D01*
X1740799Y590300D02*
G01*
X1755799Y590300D01*
X1747600Y579400D01*
X1751700Y579400D01*
X1754499Y578000D01*
X1755799Y576599D01*
X1757200Y572500D01*
X1757200Y569800D01*
X1755799Y565700D01*
X1753100Y563000D01*
X1748999Y561599D01*
X1744899Y561599D01*
X1740799Y563000D01*
X1739499Y564400D01*
X1738100Y567100D01*
D11*
X1640699Y1885000D02*
G01*
X1564399Y1885000D01*
X1564399Y1885000D02*
G01*
X1564399Y1841399D01*
X1629799Y1766500D02*
G01*
X1637100Y1773699D01*
X1640699Y1784600D01*
X1640699Y1799200D01*
X1637100Y1810100D01*
X1629799Y1817399D01*
X1622500Y1817399D01*
X1615299Y1813699D01*
X1611599Y1810100D01*
X1608000Y1802800D01*
X1600699Y1780999D01*
X1597100Y1773699D01*
X1593500Y1770100D01*
X1586199Y1766500D01*
X1575299Y1766500D01*
X1568000Y1773699D01*
X1564399Y1784600D01*
X1564399Y1799200D01*
X1568000Y1810100D01*
X1575299Y1817399D01*
X1640699Y1742500D02*
G01*
X1564399Y1742500D01*
X1640699Y1742500D02*
G01*
X1564399Y1713400D01*
X1640699Y1684299D02*
G01*
X1564399Y1713400D01*
X1640699Y1684299D02*
G01*
X1564399Y1684299D01*
X1615299Y1613000D02*
G01*
X1604399Y1616599D01*
X1597100Y1623899D01*
X1593500Y1634800D01*
X1593500Y1638499D01*
X1597100Y1649400D01*
X1604399Y1656599D01*
X1615299Y1660300D01*
X1618900Y1660300D01*
X1629799Y1656599D01*
X1637100Y1649400D01*
X1640699Y1638499D01*
X1640699Y1634800D01*
X1637100Y1623899D01*
X1629799Y1616599D01*
X1615299Y1613000D01*
X1597100Y1613000D01*
X1578900Y1616599D01*
X1568000Y1623899D01*
X1564399Y1634800D01*
X1564399Y1642100D01*
X1568000Y1653000D01*
X1575299Y1656599D01*
X1640699Y1589000D02*
G01*
X1564399Y1589000D01*
X1640699Y1589000D02*
G01*
X1640699Y1563499D01*
X1637100Y1552600D01*
X1629799Y1545399D01*
X1622500Y1541700D01*
X1611599Y1538099D01*
X1593500Y1538099D01*
X1582500Y1541700D01*
X1575299Y1545399D01*
X1568000Y1552600D01*
X1564399Y1563499D01*
X1564399Y1589000D01*
X1629799Y1463200D02*
G01*
X1637100Y1470500D01*
X1640699Y1481399D01*
X1640699Y1495900D01*
X1637100Y1506799D01*
X1629799Y1514099D01*
X1622500Y1514099D01*
X1615299Y1510500D01*
X1611599Y1506799D01*
X1608000Y1499499D01*
X1600699Y1477699D01*
X1597100Y1470500D01*
X1593500Y1466799D01*
X1586199Y1463200D01*
X1575299Y1463200D01*
X1568000Y1470500D01*
X1564399Y1481399D01*
X1564399Y1495900D01*
X1568000Y1506799D01*
X1575299Y1514099D01*
X1626199Y1439200D02*
G01*
X1629799Y1431900D01*
X1640699Y1420999D01*
X1564399Y1420999D01*
D12*
X1823701Y1821707D02*
G01*
X1823701Y1851806D01*
X1823701Y1821707D02*
G01*
X1813701Y1821707D01*
X1809400Y1823107D01*
X1806601Y1826006D01*
X1805101Y1828906D01*
X1803701Y1833207D01*
X1803701Y1840306D01*
X1805101Y1844607D01*
X1806601Y1847507D01*
X1809400Y1850306D01*
X1813701Y1851806D01*
X1823701Y1851806D01*
X1785700Y1821707D02*
G01*
X1788500Y1823107D01*
X1791400Y1826006D01*
X1792800Y1828906D01*
X1794201Y1833207D01*
X1794201Y1840306D01*
X1792800Y1844607D01*
X1791400Y1847507D01*
X1788500Y1850306D01*
X1785700Y1851806D01*
X1779900Y1851806D01*
X1777101Y1850306D01*
X1774201Y1847507D01*
X1772800Y1844607D01*
X1771301Y1840306D01*
X1771301Y1833207D01*
X1772800Y1828906D01*
X1774201Y1826006D01*
X1777101Y1823107D01*
X1779900Y1821707D01*
X1785700Y1821707D01*
X1761900Y1821707D02*
G01*
X1761900Y1851806D01*
X1761900Y1821707D02*
G01*
X1750401Y1851806D01*
X1739000Y1821707D02*
G01*
X1750401Y1851806D01*
X1739000Y1821707D02*
G01*
X1739000Y1851806D01*
X1803701Y1726006D02*
G01*
X1806601Y1723107D01*
X1810901Y1721707D01*
X1816601Y1721707D01*
X1820901Y1723107D01*
X1823701Y1726006D01*
X1823701Y1728906D01*
X1822300Y1731707D01*
X1820901Y1733207D01*
X1818001Y1734607D01*
X1809400Y1737507D01*
X1806601Y1738906D01*
X1805101Y1740306D01*
X1803701Y1743207D01*
X1803701Y1747507D01*
X1806601Y1750306D01*
X1810901Y1751806D01*
X1816601Y1751806D01*
X1820901Y1750306D01*
X1823701Y1747507D01*
X1794201Y1721707D02*
G01*
X1794201Y1751806D01*
X1794201Y1721707D02*
G01*
X1784201Y1721707D01*
X1779900Y1723107D01*
X1777101Y1726006D01*
X1775600Y1728906D01*
X1774201Y1733207D01*
X1774201Y1740306D01*
X1775600Y1744607D01*
X1777101Y1747507D01*
X1779900Y1750306D01*
X1784201Y1751806D01*
X1794201Y1751806D01*
X1756201Y1721707D02*
G01*
X1759000Y1723107D01*
X1761900Y1726006D01*
X1763301Y1728906D01*
X1764800Y1733207D01*
X1764800Y1740306D01*
X1763301Y1744607D01*
X1761900Y1747507D01*
X1759000Y1750306D01*
X1756201Y1751806D01*
X1750401Y1751806D01*
X1747601Y1750306D01*
X1744700Y1747507D01*
X1743301Y1744607D01*
X1741800Y1740306D01*
X1741800Y1733207D01*
X1743301Y1728906D01*
X1744700Y1726006D01*
X1747601Y1723107D01*
X1750401Y1721707D01*
X1756201Y1721707D01*
X1720901Y1721707D02*
G01*
X1732400Y1751806D01*
X1720901Y1721707D02*
G01*
X1709501Y1751806D01*
X1728100Y1741806D02*
G01*
X1713801Y1741806D01*
X1678600Y1728906D02*
G01*
X1680001Y1726006D01*
X1682901Y1723107D01*
X1685700Y1721707D01*
X1691500Y1721707D01*
X1694300Y1723107D01*
X1697200Y1726006D01*
X1698600Y1728906D01*
X1700001Y1733207D01*
X1700001Y1740306D01*
X1698600Y1744607D01*
X1697200Y1747507D01*
X1694300Y1750306D01*
X1691500Y1751806D01*
X1685700Y1751806D01*
X1682901Y1750306D01*
X1680001Y1747507D01*
X1678600Y1744607D01*
X1678600Y1740306D01*
X1685700Y1740306D02*
G01*
X1678600Y1740306D01*
X1802300Y1528906D02*
G01*
X1803701Y1526006D01*
X1806601Y1523107D01*
X1809400Y1521707D01*
X1815101Y1521707D01*
X1818001Y1523107D01*
X1820901Y1526006D01*
X1822300Y1528906D01*
X1823701Y1533207D01*
X1823701Y1540306D01*
X1822300Y1544607D01*
X1820901Y1547507D01*
X1818001Y1550306D01*
X1815101Y1551806D01*
X1809400Y1551806D01*
X1806601Y1550306D01*
X1803701Y1547507D01*
X1802300Y1544607D01*
X1772800Y1526006D02*
G01*
X1775600Y1523107D01*
X1779900Y1521707D01*
X1785700Y1521707D01*
X1790001Y1523107D01*
X1792800Y1526006D01*
X1792800Y1528906D01*
X1791400Y1531707D01*
X1790001Y1533207D01*
X1787101Y1534607D01*
X1778500Y1537507D01*
X1775600Y1538906D01*
X1774201Y1540306D01*
X1772800Y1543207D01*
X1772800Y1547507D01*
X1775600Y1550306D01*
X1779900Y1551806D01*
X1785700Y1551806D01*
X1790001Y1550306D01*
X1792800Y1547507D01*
X1751900Y1521707D02*
G01*
X1763301Y1551806D01*
X1751900Y1521707D02*
G01*
X1740401Y1551806D01*
X1759000Y1541806D02*
G01*
X1744700Y1541806D01*
X1709501Y1528906D02*
G01*
X1710901Y1526006D01*
X1713801Y1523107D01*
X1716701Y1521707D01*
X1722400Y1521707D01*
X1725200Y1523107D01*
X1728100Y1526006D01*
X1729501Y1528906D01*
X1731000Y1533207D01*
X1731000Y1540306D01*
X1729501Y1544607D01*
X1728100Y1547507D01*
X1725200Y1550306D01*
X1722400Y1551806D01*
X1716701Y1551806D01*
X1713801Y1550306D01*
X1710901Y1547507D01*
X1709501Y1544607D01*
X1709501Y1540306D01*
X1716701Y1540306D02*
G01*
X1709501Y1540306D01*
X1802300Y1628906D02*
G01*
X1803701Y1626006D01*
X1806601Y1623107D01*
X1809400Y1621707D01*
X1815101Y1621707D01*
X1818001Y1623107D01*
X1820901Y1626006D01*
X1822300Y1628906D01*
X1823701Y1633207D01*
X1823701Y1640306D01*
X1822300Y1644607D01*
X1820901Y1647507D01*
X1818001Y1650306D01*
X1815101Y1651806D01*
X1809400Y1651806D01*
X1806601Y1650306D01*
X1803701Y1647507D01*
X1802300Y1644607D01*
X1772800Y1626006D02*
G01*
X1775600Y1623107D01*
X1779900Y1621707D01*
X1785700Y1621707D01*
X1790001Y1623107D01*
X1792800Y1626006D01*
X1792800Y1628906D01*
X1791400Y1631707D01*
X1790001Y1633207D01*
X1787101Y1634607D01*
X1778500Y1637507D01*
X1775600Y1638906D01*
X1774201Y1640306D01*
X1772800Y1643207D01*
X1772800Y1647507D01*
X1775600Y1650306D01*
X1779900Y1651806D01*
X1785700Y1651806D01*
X1790001Y1650306D01*
X1792800Y1647507D01*
X1763301Y1621707D02*
G01*
X1763301Y1651806D01*
X1763301Y1621707D02*
G01*
X1751900Y1651806D01*
X1740401Y1621707D02*
G01*
X1751900Y1651806D01*
X1740401Y1621707D02*
G01*
X1740401Y1651806D01*
D11*
X1699499Y1451100D02*
G01*
X1693199Y1457500D01*
X1683599Y1460599D01*
X1670900Y1460599D01*
X1661400Y1457500D01*
X1655000Y1451100D01*
X1655000Y1444699D01*
X1658199Y1438400D01*
X1661400Y1435199D01*
X1667700Y1431999D01*
X1686800Y1425599D01*
X1693199Y1422500D01*
X1696400Y1419299D01*
X1699499Y1412899D01*
X1699499Y1403400D01*
X1693199Y1396999D01*
X1683599Y1393800D01*
X1670900Y1393800D01*
X1661400Y1396999D01*
X1655000Y1403400D01*
X1720500Y1460599D02*
G01*
X1720500Y1393800D01*
X1720500Y1460599D02*
G01*
X1742799Y1460599D01*
X1752399Y1457500D01*
X1758699Y1451100D01*
X1761899Y1444699D01*
X1765100Y1435199D01*
X1765100Y1419299D01*
X1761899Y1409699D01*
X1758699Y1403400D01*
X1752399Y1396999D01*
X1742799Y1393800D01*
X1720500Y1393800D01*
X1811499Y1460599D02*
G01*
X1786099Y1393800D01*
X1811499Y1460599D02*
G01*
X1836999Y1393800D01*
X1795600Y1416100D02*
G01*
X1827500Y1416100D01*
X1699499Y1351100D02*
G01*
X1693199Y1357500D01*
X1683599Y1360599D01*
X1670900Y1360599D01*
X1661400Y1357500D01*
X1655000Y1351100D01*
X1655000Y1344699D01*
X1658199Y1338400D01*
X1661400Y1335199D01*
X1667700Y1331999D01*
X1686800Y1325599D01*
X1693199Y1322500D01*
X1696400Y1319299D01*
X1699499Y1312899D01*
X1699499Y1303400D01*
X1693199Y1296999D01*
X1683599Y1293800D01*
X1670900Y1293800D01*
X1661400Y1296999D01*
X1655000Y1303400D01*
X1768299Y1344699D02*
G01*
X1765100Y1351100D01*
X1758699Y1357500D01*
X1752399Y1360599D01*
X1739600Y1360599D01*
X1733299Y1357500D01*
X1726899Y1351100D01*
X1723699Y1344699D01*
X1720500Y1335199D01*
X1720500Y1319299D01*
X1723699Y1309699D01*
X1726899Y1303400D01*
X1733299Y1296999D01*
X1739600Y1293800D01*
X1752399Y1293800D01*
X1758699Y1296999D01*
X1765100Y1303400D01*
X1768299Y1309699D01*
X1789300Y1360599D02*
G01*
X1789300Y1293800D01*
X1789300Y1293800D02*
G01*
X1827500Y1293800D01*
X1697700Y1249699D02*
G01*
X1694499Y1256100D01*
X1688199Y1262500D01*
X1681800Y1265599D01*
X1669099Y1265599D01*
X1662700Y1262500D01*
X1656400Y1256100D01*
X1653199Y1249699D01*
X1650000Y1240199D01*
X1650000Y1224299D01*
X1653199Y1214699D01*
X1656400Y1208400D01*
X1662700Y1201999D01*
X1669099Y1198800D01*
X1681800Y1198800D01*
X1688199Y1201999D01*
X1694499Y1208400D01*
X1697700Y1214699D01*
X1697700Y1224299D01*
X1681800Y1224299D02*
G01*
X1697700Y1224299D01*
X1718699Y1265599D02*
G01*
X1718699Y1198800D01*
X1718699Y1265599D02*
G01*
X1763299Y1198800D01*
X1763299Y1265599D02*
G01*
X1763299Y1198800D01*
X1784300Y1265599D02*
G01*
X1784300Y1198800D01*
X1784300Y1265599D02*
G01*
X1806499Y1265599D01*
X1816099Y1262500D01*
X1822500Y1256100D01*
X1825600Y1249699D01*
X1828800Y1240199D01*
X1828800Y1224299D01*
X1825600Y1214699D01*
X1822500Y1208400D01*
X1816099Y1201999D01*
X1806499Y1198800D01*
X1784300Y1198800D01*
D12*
X1820901Y1121707D02*
G01*
X1805101Y1121707D01*
X1813701Y1133207D01*
X1809400Y1133207D01*
X1806601Y1134607D01*
X1805101Y1136006D01*
X1803701Y1140306D01*
X1803701Y1143207D01*
X1805101Y1147507D01*
X1808001Y1150407D01*
X1812300Y1151806D01*
X1816601Y1151806D01*
X1820901Y1150407D01*
X1822300Y1148906D01*
X1823701Y1146107D01*
X1794201Y1121707D02*
G01*
X1782800Y1151806D01*
X1771301Y1121707D02*
G01*
X1782800Y1151806D01*
D11*
X1695000Y1075599D02*
G01*
X1720500Y1008800D01*
X1745900Y1075599D02*
G01*
X1720500Y1008800D01*
X1766899Y1075599D02*
G01*
X1770100Y1072500D01*
X1773299Y1075599D01*
X1770100Y1078800D01*
X1766899Y1075599D01*
X1770100Y1053400D02*
G01*
X1770100Y1008800D01*
X1794300Y1053400D02*
G01*
X1794300Y1008800D01*
X1794300Y1040599D02*
G01*
X1803800Y1050199D01*
X1810200Y1053400D01*
X1819700Y1053400D01*
X1826099Y1050199D01*
X1829300Y1040599D01*
X1829300Y1008800D01*
D12*
X1544528Y1619980D02*
G01*
X1544528Y1650079D01*
X1544528Y1619980D02*
G01*
X1534427Y1619980D01*
X1530128Y1621480D01*
X1527327Y1624279D01*
X1525828Y1627179D01*
X1524427Y1631480D01*
X1524427Y1638679D01*
X1525828Y1642979D01*
X1527327Y1645779D01*
X1530128Y1648679D01*
X1534427Y1650079D01*
X1544528Y1650079D01*
X1515028Y1619980D02*
G01*
X1515028Y1650079D01*
X1515028Y1619980D02*
G01*
X1502128Y1619980D01*
X1497827Y1621480D01*
X1496427Y1622880D01*
X1494928Y1625779D01*
X1494928Y1628580D01*
X1496427Y1631480D01*
X1497827Y1632880D01*
X1502128Y1634380D01*
X1515028Y1634380D01*
X1504928Y1634380D02*
G01*
X1494928Y1650079D01*
X1485528Y1619980D02*
G01*
X1485528Y1650079D01*
X1485528Y1619980D02*
G01*
X1475528Y1619980D01*
X1471228Y1621480D01*
X1468328Y1624279D01*
X1466927Y1627179D01*
X1465428Y1631480D01*
X1465428Y1638679D01*
X1466927Y1642979D01*
X1468328Y1645779D01*
X1471228Y1648679D01*
X1475528Y1650079D01*
X1485528Y1650079D01*
X1456027Y1619980D02*
G01*
X1444528Y1634380D01*
X1444528Y1650079D01*
X1433127Y1619980D02*
G01*
X1444528Y1634380D01*
X1524528Y1519980D02*
G01*
X1524528Y1550079D01*
X1515028Y1519980D02*
G01*
X1515028Y1550079D01*
X1515028Y1519980D02*
G01*
X1495028Y1550079D01*
X1495028Y1519980D02*
G01*
X1495028Y1550079D01*
X1475528Y1519980D02*
G01*
X1475528Y1550079D01*
X1485528Y1519980D02*
G01*
X1465528Y1519980D01*
X1456027Y1519980D02*
G01*
X1456027Y1550079D01*
X1456027Y1519980D02*
G01*
X1444628Y1550079D01*
X1433127Y1519980D02*
G01*
X1444628Y1550079D01*
X1433127Y1519980D02*
G01*
X1433127Y1550079D01*
X1508726Y1420079D02*
G01*
X1508726Y1450079D01*
X1499227Y1420079D02*
G01*
X1499227Y1450079D01*
X1499227Y1420079D02*
G01*
X1479227Y1450079D01*
X1479227Y1420079D02*
G01*
X1479227Y1450079D01*
X1459727Y1420079D02*
G01*
X1459727Y1450079D01*
X1469727Y1420079D02*
G01*
X1449727Y1420079D01*
X1440227Y1425779D02*
G01*
X1437426Y1424380D01*
X1433127Y1420079D01*
X1433127Y1450079D01*
X1521625Y1320079D02*
G01*
X1521625Y1350079D01*
X1512125Y1320079D02*
G01*
X1512125Y1350079D01*
X1512125Y1320079D02*
G01*
X1492125Y1350079D01*
X1492125Y1320079D02*
G01*
X1492125Y1350079D01*
X1472626Y1320079D02*
G01*
X1472626Y1350079D01*
X1482626Y1320079D02*
G01*
X1462626Y1320079D01*
X1451725Y1327179D02*
G01*
X1451725Y1325779D01*
X1450325Y1322880D01*
X1448825Y1321480D01*
X1446026Y1320079D01*
X1440226Y1320079D01*
X1437425Y1321480D01*
X1435925Y1322880D01*
X1434525Y1325779D01*
X1434525Y1328580D01*
X1435925Y1331480D01*
X1438825Y1335779D01*
X1453126Y1350079D01*
X1433126Y1350079D01*
X1510726Y1220079D02*
G01*
X1510726Y1250079D01*
X1510726Y1220079D02*
G01*
X1500726Y1220079D01*
X1496427Y1221480D01*
X1493527Y1224380D01*
X1492127Y1227179D01*
X1490726Y1231480D01*
X1490726Y1238679D01*
X1492127Y1242979D01*
X1493527Y1245779D01*
X1496427Y1248679D01*
X1500726Y1250079D01*
X1510726Y1250079D01*
X1481226Y1220079D02*
G01*
X1481226Y1250079D01*
X1481226Y1220079D02*
G01*
X1462627Y1220079D01*
X1481226Y1234380D02*
G01*
X1469826Y1234380D01*
X1481226Y1250079D02*
G01*
X1462627Y1250079D01*
X1453226Y1220079D02*
G01*
X1453226Y1250079D01*
X1453226Y1220079D02*
G01*
X1433127Y1250079D01*
X1433127Y1220079D02*
G01*
X1433127Y1250079D01*
D10*
X1460000Y975399D02*
G01*
X1460000Y944699D01*
X1461999Y938600D01*
X1466099Y934499D01*
X1472299Y932500D01*
X1476400Y932500D01*
X1482500Y934499D01*
X1486599Y938600D01*
X1488599Y944699D01*
X1488599Y975399D01*
X1526700Y969299D02*
G01*
X1524600Y973400D01*
X1518500Y975399D01*
X1514399Y975399D01*
X1508299Y973400D01*
X1504200Y967199D01*
X1502100Y956999D01*
X1502100Y946799D01*
X1504200Y938600D01*
X1508299Y934499D01*
X1514399Y932500D01*
X1516499Y932500D01*
X1522600Y934499D01*
X1526700Y938600D01*
X1528699Y944699D01*
X1528699Y946799D01*
X1526700Y952899D01*
X1522600Y956999D01*
X1516499Y959000D01*
X1514399Y959000D01*
X1508299Y956999D01*
X1504200Y952899D01*
X1502100Y946799D01*
D11*
X1250000Y635700D02*
G01*
X1250000Y559400D01*
X1250000Y635700D02*
G01*
X1282700Y635700D01*
X1293599Y632100D01*
X1297299Y628499D01*
X1300900Y621199D01*
X1300900Y613899D01*
X1297299Y606599D01*
X1293599Y603000D01*
X1282700Y599400D01*
X1250000Y599400D02*
G01*
X1282700Y599400D01*
X1293599Y595700D01*
X1297299Y592100D01*
X1300900Y584800D01*
X1300900Y573899D01*
X1297299Y566599D01*
X1293599Y563000D01*
X1282700Y559400D01*
X1250000Y559400D01*
X1324899Y635700D02*
G01*
X1324899Y559400D01*
X1324899Y635700D02*
G01*
X1353999Y559400D01*
X1383100Y635700D02*
G01*
X1353999Y559400D01*
X1383100Y635700D02*
G01*
X1383100Y559400D01*
X1407100Y635700D02*
G01*
X1407100Y559400D01*
X1407100Y635700D02*
G01*
X1439799Y635700D01*
X1450699Y632100D01*
X1454399Y628499D01*
X1458000Y621199D01*
X1458000Y610300D01*
X1454399Y603000D01*
X1450699Y599400D01*
X1439799Y595700D01*
X1407100Y595700D01*
X1489300Y635700D02*
G01*
X1529300Y635700D01*
X1507500Y606599D01*
X1518400Y606599D01*
X1525600Y603000D01*
X1529300Y599400D01*
X1532899Y588499D01*
X1532899Y581199D01*
X1529300Y570300D01*
X1521999Y563000D01*
X1511099Y559400D01*
X1500200Y559400D01*
X1489300Y563000D01*
X1485600Y566599D01*
X1481999Y573899D01*
X1604200Y610300D02*
G01*
X1600500Y599400D01*
X1593299Y592100D01*
X1582399Y588499D01*
X1578699Y588499D01*
X1567799Y592100D01*
X1560500Y599400D01*
X1556899Y610300D01*
X1556899Y613899D01*
X1560500Y624800D01*
X1567799Y632100D01*
X1578699Y635700D01*
X1582399Y635700D01*
X1593299Y632100D01*
X1600500Y624800D01*
X1604200Y610300D01*
X1604200Y592100D01*
X1600500Y573899D01*
X1593299Y563000D01*
X1582399Y559400D01*
X1575100Y559400D01*
X1564200Y563000D01*
X1560500Y570300D01*
X1650000Y635700D02*
G01*
X1639099Y632100D01*
X1631800Y621199D01*
X1628199Y603000D01*
X1628199Y592100D01*
X1631800Y573899D01*
X1639099Y563000D01*
X1650000Y559400D01*
X1657299Y559400D01*
X1668199Y563000D01*
X1675500Y573899D01*
X1679099Y592100D01*
X1679099Y603000D01*
X1675500Y621199D01*
X1668199Y632100D01*
X1657299Y635700D01*
X1650000Y635700D01*
X1293900Y312399D02*
G01*
X1292299Y315500D01*
X1289099Y318699D01*
X1285900Y320300D01*
X1279499Y320300D01*
X1276400Y318699D01*
X1273199Y315500D01*
X1271599Y312399D01*
X1270000Y307600D01*
X1270000Y299600D01*
X1271599Y294899D01*
X1273199Y291700D01*
X1276400Y288499D01*
X1279499Y286900D01*
X1285900Y286900D01*
X1289099Y288499D01*
X1292299Y291700D01*
X1293900Y294899D01*
X1293900Y299600D01*
X1285900Y299600D02*
G01*
X1293900Y299600D01*
X1304399Y320300D02*
G01*
X1304399Y286900D01*
X1304399Y320300D02*
G01*
X1326599Y286900D01*
X1326599Y320300D02*
G01*
X1326599Y286900D01*
X1337100Y320300D02*
G01*
X1337100Y286900D01*
X1337100Y320300D02*
G01*
X1348299Y320300D01*
X1353000Y318699D01*
X1356199Y315500D01*
X1357799Y312399D01*
X1359399Y307600D01*
X1359399Y299600D01*
X1357799Y294899D01*
X1356199Y291700D01*
X1353000Y288499D01*
X1348299Y286900D01*
X1337100Y286900D01*
X1075000Y315300D02*
G01*
X1087700Y281900D01*
X1100500Y315300D02*
G01*
X1087700Y281900D01*
X1111000Y315300D02*
G01*
X1111000Y281900D01*
X1121499Y315300D02*
G01*
X1121499Y281900D01*
X1121499Y315300D02*
G01*
X1143699Y281900D01*
X1143699Y315300D02*
G01*
X1143699Y281900D01*
D13*
X1201800Y315000D02*
G01*
X1211800Y315000D01*
X1206400Y307699D01*
X1209099Y307699D01*
X1210900Y306799D01*
X1211800Y305900D01*
X1212700Y303200D01*
X1212700Y301399D01*
X1211800Y298600D01*
X1210000Y296799D01*
X1207299Y295900D01*
X1204499Y295900D01*
X1201800Y296799D01*
X1200900Y297699D01*
X1200000Y299600D01*
X1218699Y315000D02*
G01*
X1226000Y295900D01*
X1233299Y315000D02*
G01*
X1226000Y295900D01*
D11*
X1397299Y315500D02*
G01*
X1394099Y318699D01*
X1389300Y320300D01*
X1383000Y320300D01*
X1378199Y318699D01*
X1375000Y315500D01*
X1375000Y312399D01*
X1376599Y309200D01*
X1378199Y307600D01*
X1381400Y305999D01*
X1390900Y302800D01*
X1394099Y301199D01*
X1395699Y299600D01*
X1397299Y296500D01*
X1397299Y291700D01*
X1394099Y288499D01*
X1389300Y286900D01*
X1383000Y286900D01*
X1378199Y288499D01*
X1375000Y291700D01*
X1431599Y312399D02*
G01*
X1430000Y315500D01*
X1426899Y318699D01*
X1423699Y320300D01*
X1417299Y320300D01*
X1414099Y318699D01*
X1411000Y315500D01*
X1409399Y312399D01*
X1407799Y307600D01*
X1407799Y299600D01*
X1409399Y294899D01*
X1411000Y291700D01*
X1414099Y288499D01*
X1417299Y286900D01*
X1423699Y286900D01*
X1426899Y288499D01*
X1430000Y291700D01*
X1431599Y294899D01*
X1442100Y320300D02*
G01*
X1442100Y286900D01*
X1464399Y320300D02*
G01*
X1442100Y298000D01*
X1450100Y305999D02*
G01*
X1464399Y286900D01*
D13*
X1502700Y312300D02*
G01*
X1500900Y314099D01*
X1498199Y315000D01*
X1494499Y315000D01*
X1491800Y314099D01*
X1490000Y312300D01*
X1490000Y310500D01*
X1490900Y308600D01*
X1491800Y307699D01*
X1493599Y306799D01*
X1499099Y305000D01*
X1500900Y304099D01*
X1501800Y303200D01*
X1502700Y301399D01*
X1502700Y298600D01*
X1500900Y296799D01*
X1498199Y295900D01*
X1494499Y295900D01*
X1491800Y296799D01*
X1490000Y298600D01*
X1508699Y315000D02*
G01*
X1508699Y295900D01*
X1508699Y315000D02*
G01*
X1515100Y315000D01*
X1517799Y314099D01*
X1519600Y312300D01*
X1520500Y310500D01*
X1521499Y307699D01*
X1521499Y303200D01*
X1520500Y300500D01*
X1519600Y298600D01*
X1517799Y296799D01*
X1515100Y295900D01*
X1508699Y295900D01*
X1532899Y315000D02*
G01*
X1531099Y314099D01*
X1529300Y312300D01*
X1528400Y310500D01*
X1527500Y307699D01*
X1527500Y303200D01*
X1528400Y300500D01*
X1529300Y298600D01*
X1531099Y296799D01*
X1532899Y295900D01*
X1536499Y295900D01*
X1538400Y296799D01*
X1540200Y298600D01*
X1541099Y300500D01*
X1541999Y303200D01*
X1541999Y307699D01*
X1541099Y310500D01*
X1540200Y312300D01*
X1538400Y314099D01*
X1536499Y315000D01*
X1532899Y315000D01*
D11*
X1607299Y315500D02*
G01*
X1604099Y318699D01*
X1599300Y320300D01*
X1593000Y320300D01*
X1588199Y318699D01*
X1585000Y315500D01*
X1585000Y312399D01*
X1586599Y309200D01*
X1588199Y307600D01*
X1591400Y305999D01*
X1600900Y302800D01*
X1604099Y301199D01*
X1605699Y299600D01*
X1607299Y296500D01*
X1607299Y291700D01*
X1604099Y288499D01*
X1599300Y286900D01*
X1593000Y286900D01*
X1588199Y288499D01*
X1585000Y291700D01*
X1617799Y320300D02*
G01*
X1617799Y286900D01*
X1617799Y320300D02*
G01*
X1628900Y320300D01*
X1633699Y318699D01*
X1636899Y315500D01*
X1638500Y312399D01*
X1640000Y307600D01*
X1640000Y299600D01*
X1638500Y294899D01*
X1636899Y291700D01*
X1633699Y288499D01*
X1628900Y286900D01*
X1617799Y286900D01*
X1650500Y320300D02*
G01*
X1650500Y286900D01*
D13*
X1713599Y310500D02*
G01*
X1712700Y312300D01*
X1710900Y314099D01*
X1709099Y315000D01*
X1705500Y315000D01*
X1703599Y314099D01*
X1701800Y312300D01*
X1700900Y310500D01*
X1700000Y307699D01*
X1700000Y303200D01*
X1700900Y300500D01*
X1701800Y298600D01*
X1703599Y296799D01*
X1705500Y295900D01*
X1709099Y295900D01*
X1710900Y296799D01*
X1712700Y298600D01*
X1713599Y300500D01*
X1732399Y312300D02*
G01*
X1730500Y314099D01*
X1727799Y315000D01*
X1724200Y315000D01*
X1721499Y314099D01*
X1719600Y312300D01*
X1719600Y310500D01*
X1720500Y308600D01*
X1721499Y307699D01*
X1723299Y306799D01*
X1728699Y305000D01*
X1730500Y304099D01*
X1731499Y303200D01*
X1732399Y301399D01*
X1732399Y298600D01*
X1730500Y296799D01*
X1727799Y295900D01*
X1724200Y295900D01*
X1721499Y296799D01*
X1719600Y298600D01*
X1800000Y315000D02*
G01*
X1800000Y295900D01*
X1806000Y315000D02*
G01*
X1806000Y295900D01*
X1806000Y315000D02*
G01*
X1818699Y295900D01*
X1818699Y315000D02*
G01*
X1818699Y295900D01*
X1831099Y315000D02*
G01*
X1831099Y295900D01*
X1824700Y315000D02*
G01*
X1837500Y315000D01*
D10*
X910000Y1775199D02*
G01*
X910000Y1758200D01*
X911099Y1754800D01*
X913400Y1752500D01*
X916800Y1751399D01*
X919099Y1751399D01*
X922500Y1752500D01*
X924799Y1754800D01*
X925900Y1758200D01*
X925900Y1775199D01*
X949300Y1775199D02*
G01*
X938000Y1751399D01*
X933400Y1775199D02*
G01*
X949300Y1775199D01*
D11*
X620000Y1485599D02*
G01*
X620000Y1409299D01*
X620000Y1485599D02*
G01*
X652699Y1485599D01*
X663600Y1481999D01*
X667300Y1478400D01*
X670900Y1471100D01*
X670900Y1463800D01*
X667300Y1456500D01*
X663600Y1452899D01*
X652699Y1449299D01*
X620000Y1449299D02*
G01*
X652699Y1449299D01*
X663600Y1445599D01*
X667300Y1441999D01*
X670900Y1434699D01*
X670900Y1423800D01*
X667300Y1416500D01*
X663600Y1412899D01*
X652699Y1409299D01*
X620000Y1409299D01*
X694899Y1485599D02*
G01*
X694899Y1409299D01*
X694899Y1485599D02*
G01*
X724000Y1409299D01*
X753099Y1485599D02*
G01*
X724000Y1409299D01*
X753099Y1485599D02*
G01*
X753099Y1409299D01*
X777100Y1485599D02*
G01*
X777100Y1409299D01*
X777100Y1485599D02*
G01*
X809799Y1485599D01*
X820699Y1481999D01*
X824399Y1478400D01*
X828000Y1471100D01*
X828000Y1460199D01*
X824399Y1452899D01*
X820699Y1449299D01*
X809799Y1445599D01*
X777100Y1445599D01*
X859300Y1485599D02*
G01*
X899300Y1485599D01*
X877500Y1456500D01*
X888400Y1456500D01*
X895600Y1452899D01*
X899300Y1449299D01*
X902899Y1438400D01*
X902899Y1431100D01*
X899300Y1420199D01*
X891999Y1412899D01*
X881099Y1409299D01*
X870200Y1409299D01*
X859300Y1412899D01*
X855600Y1416500D01*
X851999Y1423800D01*
X945100Y1485599D02*
G01*
X934200Y1481999D01*
X930500Y1474699D01*
X930500Y1467500D01*
X934200Y1460199D01*
X941499Y1456500D01*
X956000Y1452899D01*
X966899Y1449299D01*
X974200Y1441999D01*
X977799Y1434699D01*
X977799Y1423800D01*
X974200Y1416500D01*
X970500Y1412899D01*
X959600Y1409299D01*
X945100Y1409299D01*
X934200Y1412899D01*
X930500Y1416500D01*
X926899Y1423800D01*
X926899Y1434699D01*
X930500Y1441999D01*
X937799Y1449299D01*
X948699Y1452899D01*
X963299Y1456500D01*
X970500Y1460199D01*
X974200Y1467500D01*
X974200Y1474699D01*
X970500Y1481999D01*
X959600Y1485599D01*
X945100Y1485599D01*
X1020000Y1485599D02*
G01*
X1009099Y1481999D01*
X1005500Y1474699D01*
X1005500Y1467500D01*
X1009099Y1460199D01*
X1016400Y1456500D01*
X1030900Y1452899D01*
X1041800Y1449299D01*
X1049099Y1441999D01*
X1052700Y1434699D01*
X1052700Y1423800D01*
X1049099Y1416500D01*
X1045500Y1412899D01*
X1034499Y1409299D01*
X1020000Y1409299D01*
X1009099Y1412899D01*
X1005500Y1416500D01*
X1001800Y1423800D01*
X1001800Y1434699D01*
X1005500Y1441999D01*
X1012700Y1449299D01*
X1023599Y1452899D01*
X1038199Y1456500D01*
X1045500Y1460199D01*
X1049099Y1467500D01*
X1049099Y1474699D01*
X1045500Y1481999D01*
X1034499Y1485599D01*
X1020000Y1485599D01*
X658899Y1177399D02*
G01*
X657300Y1180500D01*
X654099Y1183699D01*
X650900Y1185300D01*
X644499Y1185300D01*
X641399Y1183699D01*
X638200Y1180500D01*
X636599Y1177399D01*
X635000Y1172600D01*
X635000Y1164600D01*
X636599Y1159899D01*
X638200Y1156700D01*
X641399Y1153499D01*
X644499Y1151900D01*
X650900Y1151900D01*
X654099Y1153499D01*
X657300Y1156700D01*
X658899Y1159899D01*
X658899Y1164600D01*
X650900Y1164600D02*
G01*
X658899Y1164600D01*
X669400Y1185300D02*
G01*
X669400Y1151900D01*
X669400Y1185300D02*
G01*
X691599Y1151900D01*
X691599Y1185300D02*
G01*
X691599Y1151900D01*
X702100Y1185300D02*
G01*
X702100Y1151900D01*
X702100Y1185300D02*
G01*
X713299Y1185300D01*
X718000Y1183699D01*
X721199Y1180500D01*
X722800Y1177399D01*
X724400Y1172600D01*
X724400Y1164600D01*
X722800Y1159899D01*
X721199Y1156700D01*
X718000Y1153499D01*
X713299Y1151900D01*
X702100Y1151900D01*
X445000Y1185300D02*
G01*
X457699Y1151900D01*
X470500Y1185300D02*
G01*
X457699Y1151900D01*
X480999Y1185300D02*
G01*
X480999Y1151900D01*
X491500Y1185300D02*
G01*
X491500Y1151900D01*
X491500Y1185300D02*
G01*
X513699Y1151900D01*
X513699Y1185300D02*
G01*
X513699Y1151900D01*
D13*
X576799Y1190000D02*
G01*
X586799Y1190000D01*
X581399Y1182699D01*
X584099Y1182699D01*
X585900Y1181799D01*
X586799Y1180900D01*
X587699Y1178200D01*
X587699Y1176399D01*
X586799Y1173600D01*
X585000Y1171799D01*
X582300Y1170900D01*
X579499Y1170900D01*
X576799Y1171799D01*
X575900Y1172699D01*
X575000Y1174600D01*
X593699Y1190000D02*
G01*
X600999Y1170900D01*
X608299Y1190000D02*
G01*
X600999Y1170900D01*
D11*
X767299Y1180500D02*
G01*
X764099Y1183699D01*
X759299Y1185300D01*
X753000Y1185300D01*
X748200Y1183699D01*
X745000Y1180500D01*
X745000Y1177399D01*
X746599Y1174200D01*
X748200Y1172600D01*
X751399Y1170999D01*
X760900Y1167800D01*
X764099Y1166199D01*
X765699Y1164600D01*
X767299Y1161500D01*
X767299Y1156700D01*
X764099Y1153499D01*
X759299Y1151900D01*
X753000Y1151900D01*
X748200Y1153499D01*
X745000Y1156700D01*
X801599Y1177399D02*
G01*
X800000Y1180500D01*
X796899Y1183699D01*
X793699Y1185300D01*
X787299Y1185300D01*
X784099Y1183699D01*
X781000Y1180500D01*
X779399Y1177399D01*
X777799Y1172600D01*
X777799Y1164600D01*
X779399Y1159899D01*
X781000Y1156700D01*
X784099Y1153499D01*
X787299Y1151900D01*
X793699Y1151900D01*
X796899Y1153499D01*
X800000Y1156700D01*
X801599Y1159899D01*
X812100Y1185300D02*
G01*
X812100Y1151900D01*
X834399Y1185300D02*
G01*
X812100Y1163000D01*
X820100Y1170999D02*
G01*
X834399Y1151900D01*
D13*
X877700Y1187300D02*
G01*
X875900Y1189099D01*
X873199Y1190000D01*
X869499Y1190000D01*
X866800Y1189099D01*
X865000Y1187300D01*
X865000Y1185500D01*
X865900Y1183600D01*
X866800Y1182699D01*
X868599Y1181799D01*
X874099Y1180000D01*
X875900Y1179099D01*
X876800Y1178200D01*
X877700Y1176399D01*
X877700Y1173600D01*
X875900Y1171799D01*
X873199Y1170900D01*
X869499Y1170900D01*
X866800Y1171799D01*
X865000Y1173600D01*
X883699Y1190000D02*
G01*
X883699Y1170900D01*
X883699Y1190000D02*
G01*
X890100Y1190000D01*
X892799Y1189099D01*
X894600Y1187300D01*
X895500Y1185500D01*
X896499Y1182699D01*
X896499Y1178200D01*
X895500Y1175500D01*
X894600Y1173600D01*
X892799Y1171799D01*
X890100Y1170900D01*
X883699Y1170900D01*
X907899Y1190000D02*
G01*
X906099Y1189099D01*
X904300Y1187300D01*
X903400Y1185500D01*
X902500Y1182699D01*
X902500Y1178200D01*
X903400Y1175500D01*
X904300Y1173600D01*
X906099Y1171799D01*
X907899Y1170900D01*
X911499Y1170900D01*
X913400Y1171799D01*
X915200Y1173600D01*
X916099Y1175500D01*
X916999Y1178200D01*
X916999Y1182699D01*
X916099Y1185500D01*
X915200Y1187300D01*
X913400Y1189099D01*
X911499Y1190000D01*
X907899Y1190000D01*
D11*
X972299Y1185500D02*
G01*
X969099Y1188699D01*
X964300Y1190300D01*
X958000Y1190300D01*
X953199Y1188699D01*
X950000Y1185500D01*
X950000Y1182399D01*
X951599Y1179200D01*
X953199Y1177600D01*
X956400Y1175999D01*
X965900Y1172800D01*
X969099Y1171199D01*
X970699Y1169600D01*
X972299Y1166500D01*
X972299Y1161700D01*
X969099Y1158499D01*
X964300Y1156900D01*
X958000Y1156900D01*
X953199Y1158499D01*
X950000Y1161700D01*
X982799Y1190300D02*
G01*
X982799Y1156900D01*
X982799Y1190300D02*
G01*
X993900Y1190300D01*
X998699Y1188699D01*
X1001899Y1185500D01*
X1003500Y1182399D01*
X1005000Y1177600D01*
X1005000Y1169600D01*
X1003500Y1164899D01*
X1001899Y1161700D01*
X998699Y1158499D01*
X993900Y1156900D01*
X982799Y1156900D01*
X1015500Y1190300D02*
G01*
X1015500Y1156900D01*
D13*
X1088599Y1185500D02*
G01*
X1087700Y1187300D01*
X1085900Y1189099D01*
X1084099Y1190000D01*
X1080500Y1190000D01*
X1078599Y1189099D01*
X1076800Y1187300D01*
X1075900Y1185500D01*
X1075000Y1182699D01*
X1075000Y1178200D01*
X1075900Y1175500D01*
X1076800Y1173600D01*
X1078599Y1171799D01*
X1080500Y1170900D01*
X1084099Y1170900D01*
X1085900Y1171799D01*
X1087700Y1173600D01*
X1088599Y1175500D01*
X1107399Y1187300D02*
G01*
X1105500Y1189099D01*
X1102799Y1190000D01*
X1099200Y1190000D01*
X1096499Y1189099D01*
X1094600Y1187300D01*
X1094600Y1185500D01*
X1095500Y1183600D01*
X1096499Y1182699D01*
X1098299Y1181799D01*
X1103699Y1180000D01*
X1105500Y1179099D01*
X1106499Y1178200D01*
X1107399Y1176399D01*
X1107399Y1173600D01*
X1105500Y1171799D01*
X1102799Y1170900D01*
X1099200Y1170900D01*
X1096499Y1171799D01*
X1094600Y1173600D01*
X1175000Y1190000D02*
G01*
X1175000Y1170900D01*
X1181000Y1190000D02*
G01*
X1181000Y1170900D01*
X1181000Y1190000D02*
G01*
X1193699Y1170900D01*
X1193699Y1190000D02*
G01*
X1193699Y1170900D01*
X1206099Y1190000D02*
G01*
X1206099Y1170900D01*
X1199700Y1190000D02*
G01*
X1212500Y1190000D01*
D10*
X1999600Y1690000D02*
G01*
X2042500Y1690000D01*
X1999600Y1690000D02*
G01*
X1999600Y1708400D01*
X2001599Y1714499D01*
X2003699Y1716599D01*
X2007799Y1718600D01*
X2011899Y1718600D01*
X2016000Y1716599D01*
X2018000Y1714499D01*
X2020000Y1708400D01*
X2020000Y1690000D02*
G01*
X2020000Y1708400D01*
X2022100Y1714499D01*
X2024099Y1716599D01*
X2028199Y1718600D01*
X2034399Y1718600D01*
X2038500Y1716599D01*
X2040500Y1714499D01*
X2042500Y1708400D01*
X2042500Y1690000D01*
X1999600Y1732100D02*
G01*
X2030299Y1732100D01*
X2036400Y1734200D01*
X2040500Y1738299D01*
X2042500Y1744400D01*
X2042500Y1748499D01*
X2040500Y1754600D01*
X2036400Y1758699D01*
X2030299Y1760799D01*
X1999600Y1760799D01*
X1999600Y1802899D02*
G01*
X2042500Y1774299D01*
X1999600Y1774299D02*
G01*
X1999600Y1802899D01*
X2042500Y1774299D02*
G01*
X2042500Y1802899D01*
X1999600Y1845000D02*
G01*
X2042500Y1816399D01*
X1999600Y1816399D02*
G01*
X1999600Y1845000D01*
X2042500Y1816399D02*
G01*
X2042500Y1845000D01*
X1999600Y1858499D02*
G01*
X2042500Y1858499D01*
X1999600Y1858499D02*
G01*
X1999600Y1885100D01*
X2020000Y1858499D02*
G01*
X2020000Y1874899D01*
X2042500Y1858499D02*
G01*
X2042500Y1885100D01*
X1999600Y1898600D02*
G01*
X2042500Y1898600D01*
X1999600Y1898600D02*
G01*
X1999600Y1916999D01*
X2001599Y1923200D01*
X2003699Y1925199D01*
X2007799Y1927300D01*
X2011899Y1927300D01*
X2016000Y1925199D01*
X2018000Y1923200D01*
X2020000Y1916999D01*
X2020000Y1898600D01*
X2020000Y1913000D02*
G01*
X2042500Y1927300D01*
X3775299Y1170000D02*
G01*
X3746599Y1170000D01*
X3775299Y1170000D02*
G01*
X3775299Y1152300D01*
X3761599Y1170000D02*
G01*
X3761599Y1159099D01*
X3768500Y1141900D02*
G01*
X3769799Y1141900D01*
X3772500Y1140500D01*
X3773900Y1139200D01*
X3775299Y1136500D01*
X3775299Y1130999D01*
X3773900Y1128299D01*
X3772500Y1126900D01*
X3769799Y1125500D01*
X3767100Y1125500D01*
X3764399Y1126900D01*
X3760299Y1129600D01*
X3746599Y1143299D01*
X3746599Y1124200D01*
X3737100Y1115199D02*
G01*
X3737100Y1090599D01*
X3768500Y1080300D02*
G01*
X3769799Y1080300D01*
X3772500Y1078899D01*
X3773900Y1077500D01*
X3775299Y1074800D01*
X3775299Y1069400D01*
X3773900Y1066599D01*
X3772500Y1065300D01*
X3769799Y1063899D01*
X3767100Y1063899D01*
X3764399Y1065300D01*
X3760299Y1068000D01*
X3746599Y1081599D01*
X3746599Y1062500D01*
X116799Y2054099D02*
G01*
X119099Y2056399D01*
X120199Y2059800D01*
X120199Y2064299D01*
X119099Y2067699D01*
X116799Y2070000D01*
X114499Y2070000D01*
X112300Y2068899D01*
X111100Y2067699D01*
X110000Y2065500D01*
X107699Y2058600D01*
X106599Y2056399D01*
X105500Y2055199D01*
X103200Y2054099D01*
X99800Y2054099D01*
X97500Y2056399D01*
X96399Y2059800D01*
X96399Y2064299D01*
X97500Y2067699D01*
X99800Y2070000D01*
X120199Y2046599D02*
G01*
X96399Y2046599D01*
X120199Y2046599D02*
G01*
X120199Y2036399D01*
X119099Y2033000D01*
X118000Y2031799D01*
X115700Y2030700D01*
X113400Y2030700D01*
X111100Y2031799D01*
X110000Y2033000D01*
X108899Y2036399D01*
X108899Y2046599D01*
X108899Y2038600D02*
G01*
X96399Y2030700D01*
X120199Y2023200D02*
G01*
X96399Y2014099D01*
X120199Y2005000D02*
G01*
X96399Y2014099D01*
X120199Y1990700D02*
G01*
X119099Y1994099D01*
X115700Y1996399D01*
X110000Y1997500D01*
X106599Y1997500D01*
X100900Y1996399D01*
X97500Y1994099D01*
X96399Y1990700D01*
X96399Y1988400D01*
X97500Y1985000D01*
X100900Y1982699D01*
X106599Y1981599D01*
X110000Y1981599D01*
X115700Y1982699D01*
X119099Y1985000D01*
X120199Y1988400D01*
X120199Y1990700D01*
X116799Y1949099D02*
G01*
X119099Y1951399D01*
X120199Y1954800D01*
X120199Y1959299D01*
X119099Y1962699D01*
X116799Y1965000D01*
X114499Y1965000D01*
X112300Y1963899D01*
X111100Y1962699D01*
X110000Y1960500D01*
X107699Y1953600D01*
X106599Y1951399D01*
X105500Y1950199D01*
X103200Y1949099D01*
X99800Y1949099D01*
X97500Y1951399D01*
X96399Y1954800D01*
X96399Y1959299D01*
X97500Y1962699D01*
X99800Y1965000D01*
X120199Y1941599D02*
G01*
X96399Y1941599D01*
X120199Y1941599D02*
G01*
X120199Y1931399D01*
X119099Y1928000D01*
X118000Y1926799D01*
X115700Y1925700D01*
X113400Y1925700D01*
X111100Y1926799D01*
X110000Y1928000D01*
X108899Y1931399D01*
X108899Y1941599D01*
X108899Y1933600D02*
G01*
X96399Y1925700D01*
X120199Y1918200D02*
G01*
X96399Y1909099D01*
X120199Y1900000D02*
G01*
X96399Y1909099D01*
X115700Y1892500D02*
G01*
X116799Y1890199D01*
X120199Y1886799D01*
X96399Y1886799D01*
X116799Y1854099D02*
G01*
X119099Y1856399D01*
X120199Y1859800D01*
X120199Y1864299D01*
X119099Y1867699D01*
X116799Y1870000D01*
X114499Y1870000D01*
X112300Y1868899D01*
X111100Y1867699D01*
X110000Y1865500D01*
X107699Y1858600D01*
X106599Y1856399D01*
X105500Y1855199D01*
X103200Y1854099D01*
X99800Y1854099D01*
X97500Y1856399D01*
X96399Y1859800D01*
X96399Y1864299D01*
X97500Y1867699D01*
X99800Y1870000D01*
X120199Y1846599D02*
G01*
X96399Y1846599D01*
X120199Y1846599D02*
G01*
X120199Y1836399D01*
X119099Y1833000D01*
X118000Y1831799D01*
X115700Y1830700D01*
X113400Y1830700D01*
X111100Y1831799D01*
X110000Y1833000D01*
X108899Y1836399D01*
X108899Y1846599D01*
X108899Y1838600D02*
G01*
X96399Y1830700D01*
X120199Y1823200D02*
G01*
X96399Y1814099D01*
X120199Y1805000D02*
G01*
X96399Y1814099D01*
X114499Y1796399D02*
G01*
X115700Y1796399D01*
X118000Y1795199D01*
X119099Y1794099D01*
X120199Y1791799D01*
X120199Y1787300D01*
X119099Y1785000D01*
X118000Y1783899D01*
X115700Y1782699D01*
X113400Y1782699D01*
X111100Y1783899D01*
X107699Y1786100D01*
X96399Y1797500D01*
X96399Y1781599D01*
X116799Y1189099D02*
G01*
X119099Y1191399D01*
X120199Y1194800D01*
X120199Y1199299D01*
X119099Y1202699D01*
X116799Y1205000D01*
X114499Y1205000D01*
X112300Y1203899D01*
X111100Y1202699D01*
X110000Y1200500D01*
X107699Y1193600D01*
X106599Y1191399D01*
X105500Y1190199D01*
X103200Y1189099D01*
X99800Y1189099D01*
X97500Y1191399D01*
X96399Y1194800D01*
X96399Y1199299D01*
X97500Y1202699D01*
X99800Y1205000D01*
X120199Y1181599D02*
G01*
X96399Y1181599D01*
X120199Y1181599D02*
G01*
X120199Y1171399D01*
X119099Y1168000D01*
X118000Y1166799D01*
X115700Y1165700D01*
X113400Y1165700D01*
X111100Y1166799D01*
X110000Y1168000D01*
X108899Y1171399D01*
X108899Y1181599D01*
X108899Y1173600D02*
G01*
X96399Y1165700D01*
X120199Y1158200D02*
G01*
X96399Y1149099D01*
X120199Y1140000D02*
G01*
X96399Y1149099D01*
X120199Y1130199D02*
G01*
X120199Y1117699D01*
X111100Y1124499D01*
X111100Y1121100D01*
X110000Y1118899D01*
X108899Y1117699D01*
X105500Y1116599D01*
X103200Y1116599D01*
X99800Y1117699D01*
X97500Y1120000D01*
X96399Y1123400D01*
X96399Y1126799D01*
X97500Y1130199D01*
X98600Y1131399D01*
X100900Y1132500D01*
X116799Y1089099D02*
G01*
X119099Y1091399D01*
X120199Y1094800D01*
X120199Y1099299D01*
X119099Y1102699D01*
X116799Y1105000D01*
X114499Y1105000D01*
X112300Y1103899D01*
X111100Y1102699D01*
X110000Y1100500D01*
X107699Y1093600D01*
X106599Y1091399D01*
X105500Y1090199D01*
X103200Y1089099D01*
X99800Y1089099D01*
X97500Y1091399D01*
X96399Y1094800D01*
X96399Y1099299D01*
X97500Y1102699D01*
X99800Y1105000D01*
X120199Y1081599D02*
G01*
X96399Y1081599D01*
X120199Y1081599D02*
G01*
X120199Y1071399D01*
X119099Y1068000D01*
X118000Y1066799D01*
X115700Y1065700D01*
X113400Y1065700D01*
X111100Y1066799D01*
X110000Y1068000D01*
X108899Y1071399D01*
X108899Y1081599D01*
X108899Y1073600D02*
G01*
X96399Y1065700D01*
X120199Y1058200D02*
G01*
X96399Y1049099D01*
X120199Y1040000D02*
G01*
X96399Y1049099D01*
X120199Y1021100D02*
G01*
X104299Y1032500D01*
X104299Y1015500D01*
X120199Y1021100D02*
G01*
X96399Y1021100D01*
X116799Y989099D02*
G01*
X119099Y991399D01*
X120199Y994800D01*
X120199Y999299D01*
X119099Y1002699D01*
X116799Y1005000D01*
X114499Y1005000D01*
X112300Y1003899D01*
X111100Y1002699D01*
X110000Y1000500D01*
X107699Y993600D01*
X106599Y991399D01*
X105500Y990199D01*
X103200Y989099D01*
X99800Y989099D01*
X97500Y991399D01*
X96399Y994800D01*
X96399Y999299D01*
X97500Y1002699D01*
X99800Y1005000D01*
X120199Y981599D02*
G01*
X96399Y981599D01*
X120199Y981599D02*
G01*
X120199Y971399D01*
X119099Y968000D01*
X118000Y966799D01*
X115700Y965700D01*
X113400Y965700D01*
X111100Y966799D01*
X110000Y968000D01*
X108899Y971399D01*
X108899Y981599D01*
X108899Y973600D02*
G01*
X96399Y965700D01*
X120199Y958200D02*
G01*
X96399Y949099D01*
X120199Y940000D02*
G01*
X96399Y949099D01*
X120199Y918899D02*
G01*
X120199Y930199D01*
X110000Y931399D01*
X111100Y930199D01*
X112300Y926799D01*
X112300Y923400D01*
X111100Y920000D01*
X108899Y917699D01*
X105500Y916599D01*
X103200Y916599D01*
X99800Y917699D01*
X97500Y920000D01*
X96399Y923400D01*
X96399Y926799D01*
X97500Y930199D01*
X98600Y931399D01*
X100900Y932500D01*
X116799Y889099D02*
G01*
X119099Y891399D01*
X120199Y894800D01*
X120199Y899299D01*
X119099Y902699D01*
X116799Y905000D01*
X114499Y905000D01*
X112300Y903899D01*
X111100Y902699D01*
X110000Y900500D01*
X107699Y893600D01*
X106599Y891399D01*
X105500Y890199D01*
X103200Y889099D01*
X99800Y889099D01*
X97500Y891399D01*
X96399Y894800D01*
X96399Y899299D01*
X97500Y902699D01*
X99800Y905000D01*
X120199Y881599D02*
G01*
X96399Y881599D01*
X120199Y881599D02*
G01*
X120199Y871399D01*
X119099Y868000D01*
X118000Y866799D01*
X115700Y865700D01*
X113400Y865700D01*
X111100Y866799D01*
X110000Y868000D01*
X108899Y871399D01*
X108899Y881599D01*
X108899Y873600D02*
G01*
X96399Y865700D01*
X120199Y858200D02*
G01*
X96399Y849099D01*
X120199Y840000D02*
G01*
X96399Y849099D01*
X116799Y818899D02*
G01*
X119099Y820000D01*
X120199Y823400D01*
X120199Y825700D01*
X119099Y829099D01*
X115700Y831399D01*
X110000Y832500D01*
X104299Y832500D01*
X99800Y831399D01*
X97500Y829099D01*
X96399Y825700D01*
X96399Y824499D01*
X97500Y821100D01*
X99800Y818899D01*
X103200Y817699D01*
X104299Y817699D01*
X107699Y818899D01*
X110000Y821100D01*
X111100Y824499D01*
X111100Y825700D01*
X110000Y829099D01*
X107699Y831399D01*
X104299Y832500D01*
X116799Y789099D02*
G01*
X119099Y791399D01*
X120199Y794800D01*
X120199Y799299D01*
X119099Y802699D01*
X116799Y805000D01*
X114499Y805000D01*
X112300Y803899D01*
X111100Y802699D01*
X110000Y800500D01*
X107699Y793600D01*
X106599Y791399D01*
X105500Y790199D01*
X103200Y789099D01*
X99800Y789099D01*
X97500Y791399D01*
X96399Y794800D01*
X96399Y799299D01*
X97500Y802699D01*
X99800Y805000D01*
X120199Y781599D02*
G01*
X96399Y781599D01*
X120199Y781599D02*
G01*
X120199Y771399D01*
X119099Y768000D01*
X118000Y766799D01*
X115700Y765700D01*
X113400Y765700D01*
X111100Y766799D01*
X110000Y768000D01*
X108899Y771399D01*
X108899Y781599D01*
X108899Y773600D02*
G01*
X96399Y765700D01*
X120199Y758200D02*
G01*
X96399Y749099D01*
X120199Y740000D02*
G01*
X96399Y749099D01*
X120199Y716599D02*
G01*
X96399Y728000D01*
X120199Y732500D02*
G01*
X120199Y716599D01*
X116799Y689099D02*
G01*
X119099Y691399D01*
X120199Y694800D01*
X120199Y699299D01*
X119099Y702699D01*
X116799Y705000D01*
X114499Y705000D01*
X112300Y703899D01*
X111100Y702699D01*
X110000Y700500D01*
X107699Y693600D01*
X106599Y691399D01*
X105500Y690199D01*
X103200Y689099D01*
X99800Y689099D01*
X97500Y691399D01*
X96399Y694800D01*
X96399Y699299D01*
X97500Y702699D01*
X99800Y705000D01*
X120199Y681599D02*
G01*
X96399Y681599D01*
X120199Y681599D02*
G01*
X120199Y671399D01*
X119099Y668000D01*
X118000Y666799D01*
X115700Y665700D01*
X113400Y665700D01*
X111100Y666799D01*
X110000Y668000D01*
X108899Y671399D01*
X108899Y681599D01*
X108899Y673600D02*
G01*
X96399Y665700D01*
X120199Y658200D02*
G01*
X96399Y649099D01*
X120199Y640000D02*
G01*
X96399Y649099D01*
X120199Y626799D02*
G01*
X119099Y630199D01*
X116799Y631399D01*
X114499Y631399D01*
X112300Y630199D01*
X111100Y628000D01*
X110000Y623400D01*
X108899Y620000D01*
X106599Y617699D01*
X104299Y616599D01*
X100900Y616599D01*
X98600Y617699D01*
X97500Y618899D01*
X96399Y622300D01*
X96399Y626799D01*
X97500Y630199D01*
X98600Y631399D01*
X100900Y632500D01*
X104299Y632500D01*
X106599Y631399D01*
X108899Y629099D01*
X110000Y625700D01*
X111100Y621100D01*
X112300Y618899D01*
X114499Y617699D01*
X116799Y617699D01*
X119099Y618899D01*
X120199Y622300D01*
X120199Y626799D01*
X116799Y589099D02*
G01*
X119099Y591399D01*
X120199Y594800D01*
X120199Y599299D01*
X119099Y602699D01*
X116799Y605000D01*
X114499Y605000D01*
X112300Y603899D01*
X111100Y602699D01*
X110000Y600500D01*
X107699Y593600D01*
X106599Y591399D01*
X105500Y590199D01*
X103200Y589099D01*
X99800Y589099D01*
X97500Y591399D01*
X96399Y594800D01*
X96399Y599299D01*
X97500Y602699D01*
X99800Y605000D01*
X120199Y581599D02*
G01*
X96399Y581599D01*
X120199Y581599D02*
G01*
X120199Y571399D01*
X119099Y568000D01*
X118000Y566799D01*
X115700Y565700D01*
X113400Y565700D01*
X111100Y566799D01*
X110000Y568000D01*
X108899Y571399D01*
X108899Y581599D01*
X108899Y573600D02*
G01*
X96399Y565700D01*
X120199Y558200D02*
G01*
X96399Y549099D01*
X120199Y540000D02*
G01*
X96399Y549099D01*
X112300Y517699D02*
G01*
X108899Y518899D01*
X106599Y521100D01*
X105500Y524499D01*
X105500Y525700D01*
X106599Y529099D01*
X108899Y531399D01*
X112300Y532500D01*
X113400Y532500D01*
X116799Y531399D01*
X119099Y529099D01*
X120199Y525700D01*
X120199Y524499D01*
X119099Y521100D01*
X116799Y518899D01*
X112300Y517699D01*
X106599Y517699D01*
X100900Y518899D01*
X97500Y521100D01*
X96399Y524499D01*
X96399Y526799D01*
X97500Y530199D01*
X99800Y531399D01*
X2635900Y1816799D02*
G01*
X2633599Y1819099D01*
X2630200Y1820199D01*
X2625699Y1820199D01*
X2622299Y1819099D01*
X2620000Y1816799D01*
X2620000Y1814499D01*
X2621099Y1812300D01*
X2622299Y1811100D01*
X2624499Y1810000D01*
X2631400Y1807699D01*
X2633599Y1806599D01*
X2634799Y1805500D01*
X2635900Y1803200D01*
X2635900Y1799800D01*
X2633599Y1797500D01*
X2630200Y1796399D01*
X2625699Y1796399D01*
X2622299Y1797500D01*
X2620000Y1799800D01*
X2643400Y1820199D02*
G01*
X2649099Y1796399D01*
X2654799Y1820199D02*
G01*
X2649099Y1796399D01*
X2654799Y1820199D02*
G01*
X2660500Y1796399D01*
X2666099Y1820199D02*
G01*
X2660500Y1796399D01*
X2673599Y1815700D02*
G01*
X2675900Y1816799D01*
X2679300Y1820199D01*
X2679300Y1796399D01*
X590000Y1859679D02*
G01*
X583200Y1888380D01*
X576399Y1859679D02*
G01*
X583200Y1888380D01*
X576399Y1859679D02*
G01*
X569499Y1888380D01*
X562699Y1859679D02*
G01*
X569499Y1888380D01*
X553699Y1859679D02*
G01*
X553699Y1888380D01*
X544699Y1859679D02*
G01*
X544699Y1888380D01*
X544699Y1859679D02*
G01*
X525599Y1888380D01*
X525599Y1859679D02*
G01*
X525599Y1888380D01*
X496199Y1866579D02*
G01*
X497500Y1863780D01*
X500300Y1861080D01*
X503000Y1859679D01*
X508499Y1859679D01*
X511199Y1861080D01*
X513899Y1863780D01*
X515300Y1866579D01*
X516599Y1870680D01*
X516599Y1877480D01*
X515300Y1881579D01*
X513899Y1884279D01*
X511199Y1886979D01*
X508499Y1888380D01*
X503000Y1888380D01*
X500300Y1886979D01*
X497500Y1884279D01*
X496199Y1881579D01*
X496199Y1877480D01*
X503000Y1877480D02*
G01*
X496199Y1877480D01*
X487199Y1897880D02*
G01*
X462600Y1897880D01*
X453600Y1859679D02*
G01*
X453600Y1888380D01*
X453600Y1888380D02*
G01*
X437300Y1888380D01*
X428299Y1859679D02*
G01*
X428299Y1888380D01*
X428299Y1859679D02*
G01*
X410500Y1859679D01*
X428299Y1873380D02*
G01*
X417399Y1873380D01*
X428299Y1888380D02*
G01*
X410500Y1888380D01*
X401500Y1859679D02*
G01*
X401500Y1888380D01*
X401500Y1859679D02*
G01*
X391999Y1859679D01*
X387899Y1861080D01*
X385199Y1863780D01*
X383800Y1866579D01*
X382500Y1870680D01*
X382500Y1877480D01*
X383800Y1881579D01*
X385199Y1884279D01*
X387899Y1886979D01*
X391999Y1888380D01*
X401500Y1888380D01*
X373499Y1865180D02*
G01*
X370700Y1863780D01*
X366599Y1859679D01*
X366599Y1888380D01*
X595000Y1819679D02*
G01*
X588200Y1848380D01*
X581399Y1819679D02*
G01*
X588200Y1848380D01*
X581399Y1819679D02*
G01*
X574499Y1848380D01*
X567699Y1819679D02*
G01*
X574499Y1848380D01*
X558699Y1819679D02*
G01*
X558699Y1848380D01*
X549699Y1819679D02*
G01*
X549699Y1848380D01*
X549699Y1819679D02*
G01*
X530599Y1848380D01*
X530599Y1819679D02*
G01*
X530599Y1848380D01*
X501199Y1826579D02*
G01*
X502500Y1823780D01*
X505300Y1821080D01*
X508000Y1819679D01*
X513499Y1819679D01*
X516199Y1821080D01*
X518899Y1823780D01*
X520300Y1826579D01*
X521599Y1830680D01*
X521599Y1837480D01*
X520300Y1841579D01*
X518899Y1844279D01*
X516199Y1846979D01*
X513499Y1848380D01*
X508000Y1848380D01*
X505300Y1846979D01*
X502500Y1844279D01*
X501199Y1841579D01*
X501199Y1837480D01*
X508000Y1837480D02*
G01*
X501199Y1837480D01*
X492199Y1857880D02*
G01*
X467600Y1857880D01*
X458600Y1819679D02*
G01*
X458600Y1848380D01*
X458600Y1848380D02*
G01*
X442300Y1848380D01*
X433299Y1819679D02*
G01*
X433299Y1848380D01*
X433299Y1819679D02*
G01*
X415500Y1819679D01*
X433299Y1833380D02*
G01*
X422399Y1833380D01*
X433299Y1848380D02*
G01*
X415500Y1848380D01*
X406500Y1819679D02*
G01*
X406500Y1848380D01*
X406500Y1819679D02*
G01*
X396999Y1819679D01*
X392899Y1821080D01*
X390199Y1823780D01*
X388800Y1826579D01*
X387500Y1830680D01*
X387500Y1837480D01*
X388800Y1841579D01*
X390199Y1844279D01*
X392899Y1846979D01*
X396999Y1848380D01*
X406500Y1848380D01*
X377100Y1826579D02*
G01*
X377100Y1825180D01*
X375700Y1822480D01*
X374400Y1821080D01*
X371599Y1819679D01*
X366199Y1819679D01*
X363499Y1821080D01*
X362100Y1822480D01*
X360700Y1825180D01*
X360700Y1827880D01*
X362100Y1830680D01*
X364800Y1834679D01*
X378499Y1848380D01*
X359400Y1848380D01*
X1210000Y9699D02*
G01*
X1210000Y38400D01*
X1210000Y9699D02*
G01*
X1192299Y9699D01*
X1210000Y23400D02*
G01*
X1199099Y23400D01*
X1180500Y9699D02*
G01*
X1165500Y9699D01*
X1173699Y20599D01*
X1169600Y20599D01*
X1166899Y21999D01*
X1165500Y23400D01*
X1164200Y27500D01*
X1164200Y30199D01*
X1165500Y34299D01*
X1168299Y36999D01*
X1172399Y38400D01*
X1176499Y38400D01*
X1180500Y36999D01*
X1181899Y35599D01*
X1183299Y32899D01*
X1155200Y47899D02*
G01*
X1130600Y47899D01*
X1118900Y9699D02*
G01*
X1103900Y9699D01*
X1112100Y20599D01*
X1108000Y20599D01*
X1105299Y21999D01*
X1103900Y23400D01*
X1102500Y27500D01*
X1102500Y30199D01*
X1103900Y34299D01*
X1106599Y36999D01*
X1110699Y38400D01*
X1114799Y38400D01*
X1118900Y36999D01*
X1120299Y35599D01*
X1121599Y32899D01*
D14*
X2100000Y1230000D02*
G01*
X2090000Y1230000D01*
X2300000Y1230000D02*
G01*
X2310000Y1230000D01*
X2100000Y1230000D02*
G01*
X2100000Y1260000D01*
X2100000Y1200000D02*
G01*
X2100000Y1230000D01*
X2300000Y1200000D02*
G01*
X2100000Y1200000D01*
X2300000Y1230000D02*
G01*
X2300000Y1200000D01*
X2300000Y1260000D02*
G01*
X2300000Y1230000D01*
X2100000Y1260000D02*
G01*
X2300000Y1260000D01*
D11*
X3885000Y870000D02*
G01*
X3885000Y795000D01*
X3985000Y795000D01*
X3985000Y1095000D01*
X3885000Y1095000D01*
D15*
X3885000Y1095000D02*
G01*
X3885000Y870000D01*
D16*
X3885100Y209899D02*
G01*
X3885100Y9899D01*
X3985100Y9899D01*
X3985100Y209899D01*
X3885100Y209899D01*
D11*
X85000Y115000D02*
G01*
X10000Y115000D01*
X10000Y15000D01*
X310000Y15000D01*
X310000Y115000D01*
D15*
X310000Y115000D02*
G01*
X85000Y115000D01*
D11*
X3650000Y250000D02*
G01*
X3650000Y349000D01*
X3850000Y349000D01*
X3850000Y250000D01*
X3650000Y250000D01*
D14*
X1995000Y1170000D02*
G01*
X3372950Y1170000D01*
X3372950Y166060D01*
X1995000Y166060D01*
X1995000Y1170000D01*
X2572205Y1576161D02*
G01*
X2572205Y1473798D01*
X3030000Y1325000D02*
G01*
X3040000Y1325000D01*
X2830000Y1325000D02*
G01*
X2820000Y1325000D01*
X3030000Y1325000D02*
G01*
X3030000Y1295000D01*
X3030000Y1355000D02*
G01*
X3030000Y1325000D01*
X2830000Y1355000D02*
G01*
X3030000Y1355000D01*
X2830000Y1325000D02*
G01*
X2830000Y1355000D01*
X2830000Y1295000D02*
G01*
X2830000Y1325000D01*
X3030000Y1295000D02*
G01*
X2830000Y1295000D01*
X2502205Y1361161D02*
G01*
X2502205Y1258798D01*
X3030000Y1230000D02*
G01*
X3040000Y1230000D01*
X2830000Y1230000D02*
G01*
X2820000Y1230000D01*
X3030000Y1230000D02*
G01*
X3030000Y1200000D01*
X3030000Y1260000D02*
G01*
X3030000Y1230000D01*
X2830000Y1260000D02*
G01*
X3030000Y1260000D01*
X2830000Y1230000D02*
G01*
X2830000Y1260000D01*
X2830000Y1200000D02*
G01*
X2830000Y1230000D01*
X3030000Y1200000D02*
G01*
X2830000Y1200000D01*
D11*
X1035000Y115000D02*
G01*
X1035000Y15000D01*
X635000Y15000D01*
X635000Y115000D01*
X710000Y115000D01*
D15*
X1035000Y115000D02*
G01*
X710000Y115000D01*
D14*
X1221199Y975000D02*
G01*
X1221409Y1075309D01*
X3133940Y2045479D02*
G01*
X3133940Y1210832D01*
X3175276Y1415551D02*
G01*
X3584723Y1415551D01*
X3584723Y1210832D01*
X3175276Y1210832D01*
X3175276Y1415551D01*
X3626066Y1210832D02*
G01*
X3626066Y2045480D01*
X3626066Y1210832D02*
G01*
X3133940Y1210832D01*
X3133939Y2045479D02*
G01*
X3626064Y2045479D01*
X3065000Y1470000D02*
G01*
X3065000Y1460000D01*
X3065000Y1670000D02*
G01*
X3065000Y1680000D01*
X3065000Y1470000D02*
G01*
X3035000Y1470000D01*
X3095000Y1470000D02*
G01*
X3065000Y1470000D01*
X3095000Y1670000D02*
G01*
X3095000Y1470000D01*
X3065000Y1670000D02*
G01*
X3095000Y1670000D01*
X3035000Y1670000D02*
G01*
X3065000Y1670000D01*
X3035000Y1470000D02*
G01*
X3035000Y1670000D01*
X3981999Y1725999D02*
G01*
X3888000Y1725999D01*
X3888000Y1725999D02*
G01*
X3888000Y1974000D01*
X3888000Y1974000D02*
G01*
X3981999Y1974000D01*
X3981999Y1974000D02*
G01*
X3981999Y1725999D01*
X2960000Y1470000D02*
G01*
X2960000Y1460000D01*
X2960000Y1670000D02*
G01*
X2960000Y1680000D01*
X2960000Y1470000D02*
G01*
X2930000Y1470000D01*
X2990000Y1470000D02*
G01*
X2960000Y1470000D01*
X2990000Y1670000D02*
G01*
X2990000Y1470000D01*
X2960000Y1670000D02*
G01*
X2990000Y1670000D01*
X2930000Y1670000D02*
G01*
X2960000Y1670000D01*
X2930000Y1470000D02*
G01*
X2930000Y1670000D01*
X3981999Y1240999D02*
G01*
X3888000Y1240999D01*
X3888000Y1240999D02*
G01*
X3888000Y1489000D01*
X3888000Y1489000D02*
G01*
X3981999Y1489000D01*
X3981999Y1489000D02*
G01*
X3981999Y1240999D01*
X2369276Y1283389D02*
G01*
X2030695Y1283389D01*
X2369276Y1456610D02*
G01*
X2030695Y1456610D01*
X2030695Y1283389D02*
G01*
X2030695Y1326572D01*
X2030695Y1413427D02*
G01*
X2030695Y1456610D01*
X2369276Y1283389D02*
G01*
X2369276Y1326572D01*
X2369276Y1413427D02*
G01*
X2369276Y1456610D01*
X3685000Y348200D02*
G01*
X3385000Y348200D01*
X3385000Y748200D01*
X3685000Y748200D01*
X3685000Y348200D01*
D11*
X775000Y2050000D02*
G01*
X700000Y2050000D01*
X700000Y1950000D01*
X1200000Y1950000D01*
X1200000Y2050000D01*
D15*
X1200000Y2050000D02*
G01*
X775000Y2050000D01*
D11*
X2550000Y2050000D02*
G01*
X2550000Y1950999D01*
X2350000Y1950999D01*
X2350000Y2050000D01*
X2550000Y2050000D01*
X3050000Y2050000D02*
G01*
X3050000Y1950000D01*
X2650000Y1950000D01*
X2650000Y2050000D01*
X2725000Y2050000D01*
D15*
X3050000Y2050000D02*
G01*
X2725000Y2050000D01*
D11*
X2850000Y50000D02*
G01*
X2850000Y150000D01*
X3650000Y150000D01*
X3650000Y50000D01*
X3575000Y50000D01*
D15*
X2850000Y50000D02*
G01*
X3575000Y50000D01*
D11*
X2675000Y50000D02*
G01*
X2750000Y50000D01*
X2750000Y150000D01*
X2150000Y150000D01*
X2150000Y50000D01*
D15*
X2150000Y50000D02*
G01*
X2675000Y50000D01*
D14*
X1020000Y125000D02*
G01*
X320000Y125000D01*
X320000Y1125000D01*
X1020000Y1125000D01*
X1020000Y125000D01*
X1980000Y935000D02*
G01*
X1280000Y935000D01*
X1280000Y1935000D01*
X1980000Y1935000D01*
X1980000Y935000D01*
X1040000Y915000D02*
G01*
X1890000Y915000D01*
X1890000Y265000D01*
X1040000Y265000D01*
X1040000Y915000D01*
X415000Y1790000D02*
G01*
X1265000Y1790000D01*
X1265000Y1140000D01*
X415000Y1140000D01*
X415000Y1790000D01*
D11*
X3850000Y1750000D02*
G01*
X3850000Y1675000D01*
X3850000Y750000D01*
X3650000Y750000D01*
X3650000Y1675000D01*
X3650000Y1750000D01*
X3850000Y1750000D01*
X85000Y2075000D02*
G01*
X10000Y2075000D01*
X10000Y1975000D01*
X310000Y1975000D01*
X310000Y2075000D01*
D15*
X310000Y2075000D02*
G01*
X85000Y2075000D01*
D11*
X85000Y1975000D02*
G01*
X10000Y1975000D01*
X10000Y1875000D01*
X310000Y1875000D01*
X310000Y1975000D01*
D15*
X310000Y1975000D02*
G01*
X85000Y1975000D01*
D11*
X85000Y1875000D02*
G01*
X10000Y1875000D01*
X10000Y1775000D01*
X310000Y1775000D01*
X310000Y1875000D01*
D15*
X310000Y1875000D02*
G01*
X85000Y1875000D01*
D11*
X85000Y1210000D02*
G01*
X10000Y1210000D01*
X10000Y1110000D01*
X310000Y1110000D01*
X310000Y1210000D01*
D15*
X310000Y1210000D02*
G01*
X85000Y1210000D01*
D11*
X85000Y1110000D02*
G01*
X10000Y1110000D01*
X10000Y1010000D01*
X310000Y1010000D01*
X310000Y1110000D01*
D15*
X310000Y1110000D02*
G01*
X85000Y1110000D01*
D11*
X85000Y1010000D02*
G01*
X10000Y1010000D01*
X10000Y910000D01*
X310000Y910000D01*
X310000Y1010000D01*
D15*
X310000Y1010000D02*
G01*
X85000Y1010000D01*
D11*
X85000Y910000D02*
G01*
X10000Y910000D01*
X10000Y810000D01*
X310000Y810000D01*
X310000Y910000D01*
D15*
X310000Y910000D02*
G01*
X85000Y910000D01*
D11*
X85000Y810000D02*
G01*
X10000Y810000D01*
X10000Y710000D01*
X310000Y710000D01*
X310000Y810000D01*
D15*
X310000Y810000D02*
G01*
X85000Y810000D01*
D11*
X85000Y710000D02*
G01*
X10000Y710000D01*
X10000Y610000D01*
X310000Y610000D01*
X310000Y710000D01*
D15*
X310000Y710000D02*
G01*
X85000Y710000D01*
D11*
X85000Y610000D02*
G01*
X10000Y610000D01*
X10000Y510000D01*
X310000Y510000D01*
X310000Y610000D01*
D15*
X310000Y610000D02*
G01*
X85000Y610000D01*
D14*
X2894276Y1668389D02*
G01*
X2555695Y1668389D01*
X2894276Y1841610D02*
G01*
X2555695Y1841610D01*
X2555695Y1668389D02*
G01*
X2555695Y1711572D01*
X2555695Y1798427D02*
G01*
X2555695Y1841610D01*
X2894276Y1668389D02*
G01*
X2894276Y1711572D01*
X2894276Y1798427D02*
G01*
X2894276Y1841610D01*
X411181Y2087793D02*
G01*
X308818Y2087793D01*
X511181Y2087793D02*
G01*
X408818Y2087793D01*
D11*
X1150000Y50000D02*
G01*
X1050000Y50000D01*
X1050000Y149000D01*
X1350000Y149000D01*
X1350000Y50000D01*
X1150000Y50000D01*
D14*
G75*
G01*
X2573320Y1470580D02*
G03*
X2573320Y1579380I86710J54400D01*
G75*
G01*
X2503320Y1255580D02*
G03*
X2503320Y1364380I86710J54400D01*
G75*
G01*
X1221200Y1074820D02*
G03*
X1221200Y975020I-60910J-49900D01*
G75*
G01*
X3685000Y386600D02*
G02*
X3685000Y516600I55391J65000D01*
G75*
G01*
X3685000Y586600D02*
G02*
X3685000Y716600I52573J65000D01*
G75*
G01*
X305600Y2086680D02*
G03*
X414400Y2086680I54400J-86710D01*
G75*
G01*
X405600Y2086680D02*
G03*
X514400Y2086680I54400J-86710D01*
M02*
