G04 Layer: BottomSilkscreenLayer*
G04 EasyEDA v6.5.23, 2023-06-13 19:42:07*
G04 1d29d2e0cc3744bcbc87449dd2cba942,5f8968b253fc4aed9fc2cb8881c97923,10*
G04 Gerber Generator version 0.2*
G04 Scale: 100 percent, Rotated: No, Reflected: No *
G04 Dimensions in inches *
G04 leading zeros omitted , absolute positions ,3 integer and 6 decimal *
%FSLAX36Y36*%
%MOIN*%

%ADD10C,0.0080*%
%ADD11C,0.0060*%
%ADD12C,0.0100*%

%LPD*%
D10*
X3115909Y935727D02*
G01*
X3145000Y859364D01*
X3115909Y935727D02*
G01*
X3086818Y859364D01*
X3134090Y884818D02*
G01*
X3097727Y884818D01*
X3011908Y924818D02*
G01*
X3019182Y932091D01*
X3030091Y935727D01*
X3044636Y935727D01*
X3055545Y932091D01*
X3062817Y924818D01*
X3062817Y917545D01*
X3059182Y910273D01*
X3055545Y906635D01*
X3048272Y903000D01*
X3026454Y895727D01*
X3019182Y892091D01*
X3015545Y888454D01*
X3011908Y881181D01*
X3011908Y870273D01*
X3019182Y863000D01*
X3030091Y859364D01*
X3044636Y859364D01*
X3055545Y863000D01*
X3062817Y870273D01*
X2987908Y935727D02*
G01*
X2987908Y859364D01*
X2987908Y935727D02*
G01*
X2955182Y935727D01*
X2944273Y932091D01*
X2940636Y928454D01*
X2936999Y921181D01*
X2936999Y910273D01*
X2940636Y903000D01*
X2944273Y899364D01*
X2955182Y895727D01*
X2987908Y895727D01*
X2913000Y935727D02*
G01*
X2909363Y932091D01*
X2905726Y935727D01*
X2909363Y939364D01*
X2913000Y935727D01*
X2909363Y910273D02*
G01*
X2909363Y859364D01*
X2881727Y935727D02*
G01*
X2881727Y859364D01*
X2881727Y935727D02*
G01*
X2848999Y935727D01*
X2838091Y932091D01*
X2834454Y928454D01*
X2830817Y921181D01*
X2830817Y913908D01*
X2834454Y906635D01*
X2838091Y903000D01*
X2848999Y899364D01*
X2881727Y899364D01*
X2856273Y899364D02*
G01*
X2830817Y859364D01*
X2806818Y935727D02*
G01*
X2806818Y859364D01*
X2806818Y935727D02*
G01*
X2759544Y935727D01*
X2806818Y899364D02*
G01*
X2777727Y899364D01*
X2806818Y859364D02*
G01*
X2759544Y859364D01*
X3145000Y830273D02*
G01*
X3145000Y713908D01*
X3141364Y830273D02*
G01*
X3141364Y713908D01*
X3145000Y830273D02*
G01*
X3119544Y830273D01*
X3145000Y713908D02*
G01*
X3119544Y713908D01*
X3095545Y815727D02*
G01*
X3095545Y739364D01*
X3071544Y790273D02*
G01*
X3071544Y739364D01*
X3071544Y768454D02*
G01*
X3067908Y779364D01*
X3060636Y786635D01*
X3053364Y790273D01*
X3042455Y790273D01*
X3018455Y815727D02*
G01*
X3014817Y812091D01*
X3011181Y815727D01*
X3014817Y819364D01*
X3018455Y815727D01*
X3014817Y790273D02*
G01*
X3014817Y739364D01*
X2947182Y779364D02*
G01*
X2950817Y786635D01*
X2961727Y790273D01*
X2972636Y790273D01*
X2983545Y786635D01*
X2987182Y779364D01*
X2983545Y772091D01*
X2976273Y768454D01*
X2958091Y764818D01*
X2950817Y761181D01*
X2947182Y753908D01*
X2947182Y750273D01*
X2950817Y743000D01*
X2961727Y739364D01*
X2972636Y739364D01*
X2983545Y743000D01*
X2987182Y750273D01*
X2901364Y830273D02*
G01*
X2901364Y713908D01*
X2897727Y830273D02*
G01*
X2897727Y713908D01*
X2923181Y830273D02*
G01*
X2897727Y830273D01*
X2923181Y713908D02*
G01*
X2897727Y713908D01*
X2795909Y815727D02*
G01*
X2803181Y812091D01*
X2810455Y804818D01*
X2814090Y797545D01*
X2817727Y786635D01*
X2817727Y768454D01*
X2814090Y757545D01*
X2810455Y750273D01*
X2803181Y743000D01*
X2795909Y739364D01*
X2781364Y739364D01*
X2774090Y743000D01*
X2766818Y750273D01*
X2763181Y757545D01*
X2759544Y768454D01*
X2759544Y786635D01*
X2763181Y797545D01*
X2766818Y804818D01*
X2774090Y812091D01*
X2781364Y815727D01*
X2795909Y815727D01*
X2735545Y790273D02*
G01*
X2735545Y739364D01*
X2735545Y775727D02*
G01*
X2724636Y786635D01*
X2717363Y790273D01*
X2706454Y790273D01*
X2699182Y786635D01*
X2695545Y775727D01*
X2695545Y739364D01*
X2671544Y815727D02*
G01*
X2671544Y739364D01*
X2671544Y815727D02*
G01*
X2638818Y815727D01*
X2627908Y812091D01*
X2624273Y808454D01*
X2620636Y801181D01*
X2620636Y793908D01*
X2624273Y786635D01*
X2627908Y783000D01*
X2638818Y779364D01*
X2671544Y779364D02*
G01*
X2638818Y779364D01*
X2627908Y775727D01*
X2624273Y772091D01*
X2620636Y764818D01*
X2620636Y753908D01*
X2624273Y746635D01*
X2627908Y743000D01*
X2638818Y739364D01*
X2671544Y739364D01*
X2578455Y790273D02*
G01*
X2585726Y786635D01*
X2593000Y779364D01*
X2596635Y768454D01*
X2596635Y761181D01*
X2593000Y750273D01*
X2585726Y743000D01*
X2578455Y739364D01*
X2567545Y739364D01*
X2560272Y743000D01*
X2553000Y750273D01*
X2549363Y761181D01*
X2549363Y768454D01*
X2553000Y779364D01*
X2560272Y786635D01*
X2567545Y790273D01*
X2578455Y790273D01*
X2481727Y790273D02*
G01*
X2481727Y739364D01*
X2481727Y779364D02*
G01*
X2488999Y786635D01*
X2496273Y790273D01*
X2507182Y790273D01*
X2514454Y786635D01*
X2521727Y779364D01*
X2525363Y768454D01*
X2525363Y761181D01*
X2521727Y750273D01*
X2514454Y743000D01*
X2507182Y739364D01*
X2496273Y739364D01*
X2488999Y743000D01*
X2481727Y750273D01*
X2457727Y790273D02*
G01*
X2457727Y739364D01*
X2457727Y768454D02*
G01*
X2454090Y779364D01*
X2446818Y786635D01*
X2439544Y790273D01*
X2428635Y790273D01*
X2361000Y815727D02*
G01*
X2361000Y739364D01*
X2361000Y779364D02*
G01*
X2368272Y786635D01*
X2375545Y790273D01*
X2386454Y790273D01*
X2393726Y786635D01*
X2401000Y779364D01*
X2404636Y768454D01*
X2404636Y761181D01*
X2401000Y750273D01*
X2393726Y743000D01*
X2386454Y739364D01*
X2375545Y739364D01*
X2368272Y743000D01*
X2361000Y750273D01*
X2226454Y797545D02*
G01*
X2230091Y804818D01*
X2237363Y812091D01*
X2244636Y815727D01*
X2259182Y815727D01*
X2266454Y812091D01*
X2273726Y804818D01*
X2277363Y797545D01*
X2281000Y786635D01*
X2281000Y768454D01*
X2277363Y757545D01*
X2273726Y750273D01*
X2266454Y743000D01*
X2259182Y739364D01*
X2244636Y739364D01*
X2237363Y743000D01*
X2230091Y750273D01*
X2226454Y757545D01*
X2184273Y790273D02*
G01*
X2191544Y786635D01*
X2198818Y779364D01*
X2202455Y768454D01*
X2202455Y761181D01*
X2198818Y750273D01*
X2191544Y743000D01*
X2184273Y739364D01*
X2173364Y739364D01*
X2166090Y743000D01*
X2158818Y750273D01*
X2155182Y761181D01*
X2155182Y768454D01*
X2158818Y779364D01*
X2166090Y786635D01*
X2173364Y790273D01*
X2184273Y790273D01*
X2131181Y790273D02*
G01*
X2131181Y739364D01*
X2131181Y775727D02*
G01*
X2120272Y786635D01*
X2113000Y790273D01*
X2102091Y790273D01*
X2094817Y786635D01*
X2091181Y775727D01*
X2091181Y739364D01*
X2056273Y815727D02*
G01*
X2056273Y753908D01*
X2052636Y743000D01*
X2045363Y739364D01*
X2038091Y739364D01*
X2067182Y790273D02*
G01*
X2041727Y790273D01*
X2014090Y790273D02*
G01*
X2014090Y739364D01*
X2014090Y768454D02*
G01*
X2010455Y779364D01*
X2003181Y786635D01*
X1995909Y790273D01*
X1985000Y790273D01*
X1942817Y790273D02*
G01*
X1950091Y786635D01*
X1957363Y779364D01*
X1961000Y768454D01*
X1961000Y761181D01*
X1957363Y750273D01*
X1950091Y743000D01*
X1942817Y739364D01*
X1931908Y739364D01*
X1924636Y743000D01*
X1917363Y750273D01*
X1913726Y761181D01*
X1913726Y768454D01*
X1917363Y779364D01*
X1924636Y786635D01*
X1931908Y790273D01*
X1942817Y790273D01*
X1889727Y815727D02*
G01*
X1889727Y739364D01*
X1865726Y815727D02*
G01*
X1865726Y739364D01*
X1841727Y768454D02*
G01*
X1798091Y768454D01*
X1798091Y775727D01*
X1801727Y783000D01*
X1805363Y786635D01*
X1812636Y790273D01*
X1823545Y790273D01*
X1830817Y786635D01*
X1838091Y779364D01*
X1841727Y768454D01*
X1841727Y761181D01*
X1838091Y750273D01*
X1830817Y743000D01*
X1823545Y739364D01*
X1812636Y739364D01*
X1805363Y743000D01*
X1798091Y750273D01*
X1774090Y790273D02*
G01*
X1774090Y739364D01*
X1774090Y768454D02*
G01*
X1770455Y779364D01*
X1763181Y786635D01*
X1755909Y790273D01*
X1745000Y790273D01*
X3072272Y663000D02*
G01*
X3072272Y666635D01*
X3075909Y670273D01*
X3079544Y670273D01*
X3083181Y666635D01*
X3086818Y659364D01*
X3094090Y641181D01*
X3101364Y630273D01*
X3108635Y623000D01*
X3115909Y619364D01*
X3130455Y619364D01*
X3137727Y623000D01*
X3141364Y626635D01*
X3145000Y633908D01*
X3145000Y641181D01*
X3141364Y648454D01*
X3137727Y652091D01*
X3112272Y666635D01*
X3108635Y670273D01*
X3105000Y677545D01*
X3105000Y684818D01*
X3108635Y692091D01*
X3115909Y695727D01*
X3123181Y692091D01*
X3126818Y684818D01*
X3126818Y677545D01*
X3123181Y666635D01*
X3115909Y655727D01*
X3097727Y630273D01*
X3090455Y623000D01*
X3083181Y619364D01*
X3075909Y619364D01*
X3072272Y623000D01*
X3072272Y626635D01*
X2941364Y684818D02*
G01*
X2948635Y692091D01*
X2959544Y695727D01*
X2974090Y695727D01*
X2985000Y692091D01*
X2992272Y684818D01*
X2992272Y677545D01*
X2988635Y670273D01*
X2985000Y666635D01*
X2977727Y663000D01*
X2955909Y655727D01*
X2948635Y652091D01*
X2945000Y648454D01*
X2941364Y641181D01*
X2941364Y630273D01*
X2948635Y623000D01*
X2959544Y619364D01*
X2974090Y619364D01*
X2985000Y623000D01*
X2992272Y630273D01*
X2917363Y648454D02*
G01*
X2873726Y648454D01*
X2873726Y655727D01*
X2877363Y663000D01*
X2881000Y666635D01*
X2888272Y670273D01*
X2899182Y670273D01*
X2906454Y666635D01*
X2913726Y659364D01*
X2917363Y648454D01*
X2917363Y641181D01*
X2913726Y630273D01*
X2906454Y623000D01*
X2899182Y619364D01*
X2888272Y619364D01*
X2881000Y623000D01*
X2873726Y630273D01*
X2849727Y670273D02*
G01*
X2849727Y619364D01*
X2849727Y655727D02*
G01*
X2838818Y666635D01*
X2831544Y670273D01*
X2820636Y670273D01*
X2813364Y666635D01*
X2809727Y655727D01*
X2809727Y619364D01*
X2745726Y659364D02*
G01*
X2749363Y666635D01*
X2760272Y670273D01*
X2771181Y670273D01*
X2782091Y666635D01*
X2785726Y659364D01*
X2782091Y652091D01*
X2774817Y648454D01*
X2756635Y644818D01*
X2749363Y641181D01*
X2745726Y633908D01*
X2745726Y630273D01*
X2749363Y623000D01*
X2760272Y619364D01*
X2771181Y619364D01*
X2782091Y623000D01*
X2785726Y630273D01*
X2703545Y670273D02*
G01*
X2710817Y666635D01*
X2718091Y659364D01*
X2721727Y648454D01*
X2721727Y641181D01*
X2718091Y630273D01*
X2710817Y623000D01*
X2703545Y619364D01*
X2692636Y619364D01*
X2685363Y623000D01*
X2678091Y630273D01*
X2674454Y641181D01*
X2674454Y648454D01*
X2678091Y659364D01*
X2685363Y666635D01*
X2692636Y670273D01*
X2703545Y670273D01*
X2650455Y670273D02*
G01*
X2650455Y619364D01*
X2650455Y648454D02*
G01*
X2646818Y659364D01*
X2639544Y666635D01*
X2632272Y670273D01*
X2621364Y670273D01*
X2541364Y695727D02*
G01*
X2541364Y619364D01*
X2490455Y695727D02*
G01*
X2490455Y619364D01*
X2541364Y659364D02*
G01*
X2490455Y659364D01*
X2422817Y670273D02*
G01*
X2422817Y619364D01*
X2422817Y659364D02*
G01*
X2430091Y666635D01*
X2437363Y670273D01*
X2448272Y670273D01*
X2455545Y666635D01*
X2462817Y659364D01*
X2466454Y648454D01*
X2466454Y641181D01*
X2462817Y630273D01*
X2455545Y623000D01*
X2448272Y619364D01*
X2437363Y619364D01*
X2430091Y623000D01*
X2422817Y630273D01*
X2387908Y695727D02*
G01*
X2387908Y633908D01*
X2384273Y623000D01*
X2376999Y619364D01*
X2369727Y619364D01*
X2398818Y670273D02*
G01*
X2373364Y670273D01*
X3145000Y575727D02*
G01*
X3145000Y499364D01*
X3145000Y575727D02*
G01*
X3115909Y499364D01*
X3086818Y575727D02*
G01*
X3115909Y499364D01*
X3086818Y575727D02*
G01*
X3086818Y499364D01*
X3019182Y550273D02*
G01*
X3019182Y499364D01*
X3019182Y539364D02*
G01*
X3026454Y546635D01*
X3033726Y550273D01*
X3044636Y550273D01*
X3051908Y546635D01*
X3059182Y539364D01*
X3062817Y528454D01*
X3062817Y521181D01*
X3059182Y510273D01*
X3051908Y503000D01*
X3044636Y499364D01*
X3033726Y499364D01*
X3026454Y503000D01*
X3019182Y510273D01*
X2995182Y550273D02*
G01*
X2995182Y499364D01*
X2995182Y528454D02*
G01*
X2991544Y539364D01*
X2984273Y546635D01*
X2976999Y550273D01*
X2966090Y550273D01*
X2942091Y575727D02*
G01*
X2942091Y499364D01*
X2905726Y550273D02*
G01*
X2942091Y513908D01*
X2927545Y528454D02*
G01*
X2902091Y499364D01*
X2859908Y550273D02*
G01*
X2867182Y546635D01*
X2874454Y539364D01*
X2878091Y528454D01*
X2878091Y521181D01*
X2874454Y510273D01*
X2867182Y503000D01*
X2859908Y499364D01*
X2848999Y499364D01*
X2841727Y503000D01*
X2834454Y510273D01*
X2830817Y521181D01*
X2830817Y528454D01*
X2834454Y539364D01*
X2841727Y546635D01*
X2848999Y550273D01*
X2859908Y550273D01*
X2766818Y539364D02*
G01*
X2770455Y546635D01*
X2781364Y550273D01*
X2792272Y550273D01*
X2803181Y546635D01*
X2806818Y539364D01*
X2803181Y532091D01*
X2795909Y528454D01*
X2777727Y524818D01*
X2770455Y521181D01*
X2766818Y513908D01*
X2766818Y510273D01*
X2770455Y503000D01*
X2781364Y499364D01*
X2792272Y499364D01*
X2803181Y503000D01*
X2806818Y510273D01*
X2686818Y575727D02*
G01*
X2686818Y499364D01*
X2686818Y575727D02*
G01*
X2661364Y575727D01*
X2650455Y572091D01*
X2643181Y564818D01*
X2639544Y557545D01*
X2635909Y546635D01*
X2635909Y528454D01*
X2639544Y517545D01*
X2643181Y510273D01*
X2650455Y503000D01*
X2661364Y499364D01*
X2686818Y499364D01*
X2611908Y528454D02*
G01*
X2568272Y528454D01*
X2568272Y535727D01*
X2571908Y543000D01*
X2575545Y546635D01*
X2582817Y550273D01*
X2593726Y550273D01*
X2601000Y546635D01*
X2608272Y539364D01*
X2611908Y528454D01*
X2611908Y521181D01*
X2608272Y510273D01*
X2601000Y503000D01*
X2593726Y499364D01*
X2582817Y499364D01*
X2575545Y503000D01*
X2568272Y510273D01*
X2544273Y575727D02*
G01*
X2544273Y499364D01*
X2476635Y550273D02*
G01*
X2476635Y499364D01*
X2476635Y539364D02*
G01*
X2483909Y546635D01*
X2491181Y550273D01*
X2502091Y550273D01*
X2509363Y546635D01*
X2516635Y539364D01*
X2520272Y528454D01*
X2520272Y521181D01*
X2516635Y510273D01*
X2509363Y503000D01*
X2502091Y499364D01*
X2491181Y499364D01*
X2483909Y503000D01*
X2476635Y510273D01*
X2452636Y550273D02*
G01*
X2452636Y473908D01*
X2452636Y539364D02*
G01*
X2445363Y546635D01*
X2438091Y550273D01*
X2427182Y550273D01*
X2419908Y546635D01*
X2412636Y539364D01*
X2408999Y528454D01*
X2408999Y521181D01*
X2412636Y510273D01*
X2419908Y503000D01*
X2427182Y499364D01*
X2438091Y499364D01*
X2445363Y503000D01*
X2452636Y510273D01*
X2366818Y550273D02*
G01*
X2374090Y546635D01*
X2381364Y539364D01*
X2385000Y528454D01*
X2385000Y521181D01*
X2381364Y510273D01*
X2374090Y503000D01*
X2366818Y499364D01*
X2355909Y499364D01*
X2348635Y503000D01*
X2341364Y510273D01*
X2337727Y521181D01*
X2337727Y528454D01*
X2341364Y539364D01*
X2348635Y546635D01*
X2355909Y550273D01*
X2366818Y550273D01*
X2313726Y550273D02*
G01*
X2313726Y499364D01*
X2313726Y528454D02*
G01*
X2310091Y539364D01*
X2302817Y546635D01*
X2295545Y550273D01*
X2284636Y550273D01*
X2249727Y575727D02*
G01*
X2249727Y513908D01*
X2246090Y503000D01*
X2238818Y499364D01*
X2231544Y499364D01*
X2260636Y550273D02*
G01*
X2235182Y550273D01*
X2163909Y550273D02*
G01*
X2163909Y499364D01*
X2163909Y539364D02*
G01*
X2171181Y546635D01*
X2178455Y550273D01*
X2189363Y550273D01*
X2196635Y546635D01*
X2203909Y539364D01*
X2207545Y528454D01*
X2207545Y521181D01*
X2203909Y510273D01*
X2196635Y503000D01*
X2189363Y499364D01*
X2178455Y499364D01*
X2171181Y503000D01*
X2163909Y510273D01*
X2099908Y539364D02*
G01*
X2103545Y546635D01*
X2114454Y550273D01*
X2125363Y550273D01*
X2136273Y546635D01*
X2139908Y539364D01*
X2136273Y532091D01*
X2128999Y528454D01*
X2110817Y524818D01*
X2103545Y521181D01*
X2099908Y513908D01*
X2099908Y510273D01*
X2103545Y503000D01*
X2114454Y499364D01*
X2125363Y499364D01*
X2136273Y503000D01*
X2139908Y510273D01*
X2016273Y557545D02*
G01*
X2016273Y561181D01*
X2012636Y568454D01*
X2008999Y572091D01*
X2001727Y575727D01*
X1987182Y575727D01*
X1979908Y572091D01*
X1976273Y568454D01*
X1972636Y561181D01*
X1972636Y553908D01*
X1976273Y546635D01*
X1983545Y535727D01*
X2019908Y499364D01*
X1968999Y499364D01*
X1923181Y575727D02*
G01*
X1934090Y572091D01*
X1941364Y561181D01*
X1945000Y543000D01*
X1945000Y532091D01*
X1941364Y513908D01*
X1934090Y503000D01*
X1923181Y499364D01*
X1915909Y499364D01*
X1905000Y503000D01*
X1897727Y513908D01*
X1894090Y532091D01*
X1894090Y543000D01*
X1897727Y561181D01*
X1905000Y572091D01*
X1915909Y575727D01*
X1923181Y575727D01*
X1866454Y557545D02*
G01*
X1866454Y561181D01*
X1862817Y568454D01*
X1859182Y572091D01*
X1851908Y575727D01*
X1837363Y575727D01*
X1830091Y572091D01*
X1826454Y568454D01*
X1822817Y561181D01*
X1822817Y553908D01*
X1826454Y546635D01*
X1833726Y535727D01*
X1870091Y499364D01*
X1819182Y499364D01*
X1787908Y575727D02*
G01*
X1747908Y575727D01*
X1769727Y546635D01*
X1758818Y546635D01*
X1751544Y543000D01*
X1747908Y539364D01*
X1744273Y528454D01*
X1744273Y521181D01*
X1747908Y510273D01*
X1755182Y503000D01*
X1766090Y499364D01*
X1776999Y499364D01*
X1787908Y503000D01*
X1791544Y506635D01*
X1795182Y513908D01*
X1660636Y543000D02*
G01*
X1664273Y539364D01*
X1660636Y535727D01*
X1656999Y539364D01*
X1660636Y543000D01*
X1656999Y513908D02*
G01*
X1660636Y510273D01*
X1664273Y513908D01*
X1660636Y517545D01*
X1656999Y513908D01*
X1656999Y506635D01*
X1664273Y499364D01*
X1633000Y590273D02*
G01*
X1625726Y583000D01*
X1618455Y572091D01*
X1611181Y557545D01*
X1607545Y539364D01*
X1607545Y524818D01*
X1611181Y506635D01*
X1618455Y492091D01*
X1625726Y481181D01*
X1633000Y473908D01*
D11*
X1849300Y2145200D02*
G01*
X1851400Y2149299D01*
X1855500Y2153400D01*
X1859499Y2155399D01*
X1867700Y2155399D01*
X1871800Y2153400D01*
X1875900Y2149299D01*
X1878000Y2145200D01*
X1880000Y2139000D01*
X1880000Y2128800D01*
X1878000Y2122700D01*
X1875900Y2118600D01*
X1871800Y2114499D01*
X1867700Y2112500D01*
X1859499Y2112500D01*
X1855500Y2114499D01*
X1851400Y2118600D01*
X1849300Y2122700D01*
X1823500Y2155399D02*
G01*
X1829700Y2153400D01*
X1833800Y2147199D01*
X1835799Y2136999D01*
X1835799Y2130900D01*
X1833800Y2120599D01*
X1829700Y2114499D01*
X1823500Y2112500D01*
X1819499Y2112500D01*
X1813299Y2114499D01*
X1809200Y2120599D01*
X1807200Y2130900D01*
X1807200Y2136999D01*
X1809200Y2147199D01*
X1813299Y2153400D01*
X1819499Y2155399D01*
X1823500Y2155399D01*
D10*
X3597727Y2050455D02*
G01*
X3620455Y2050455D01*
X3622727Y2030000D01*
X3620455Y2032273D01*
X3613635Y2034544D01*
X3606818Y2034544D01*
X3600000Y2032273D01*
X3595455Y2027726D01*
X3593181Y2020909D01*
X3593181Y2016363D01*
X3595455Y2009544D01*
X3600000Y2005000D01*
X3606818Y2002726D01*
X3613635Y2002726D01*
X3620455Y2005000D01*
X3622727Y2007273D01*
X3625000Y2011817D01*
X3572700Y281799D02*
G01*
X3620500Y300000D01*
X3572700Y281799D02*
G01*
X3620500Y263600D01*
X3604499Y293200D02*
G01*
X3604499Y270500D01*
X3581800Y248600D02*
G01*
X3579499Y244099D01*
X3572700Y237300D01*
X3620500Y237300D01*
X3572700Y195000D02*
G01*
X3572700Y217699D01*
X3593199Y220000D01*
X3590900Y217699D01*
X3588599Y210900D01*
X3588599Y204099D01*
X3590900Y197300D01*
X3595500Y192699D01*
X3602299Y190500D01*
X3606800Y190500D01*
X3613599Y192699D01*
X3618199Y197300D01*
X3620500Y204099D01*
X3620500Y210900D01*
X3618199Y217699D01*
X3615900Y220000D01*
X3611400Y222300D01*
X2400000Y1227300D02*
G01*
X2400000Y1179499D01*
X2400000Y1227300D02*
G01*
X2381800Y1179499D01*
X2363599Y1227300D02*
G01*
X2381800Y1179499D01*
X2363599Y1227300D02*
G01*
X2363599Y1179499D01*
X2348599Y1227300D02*
G01*
X2348599Y1179499D01*
X2301800Y1220500D02*
G01*
X2306400Y1225000D01*
X2313199Y1227300D01*
X2322299Y1227300D01*
X2329099Y1225000D01*
X2333599Y1220500D01*
X2333599Y1215900D01*
X2331400Y1211399D01*
X2329099Y1209099D01*
X2324499Y1206799D01*
X2310900Y1202300D01*
X2306400Y1200000D01*
X2304099Y1197699D01*
X2301800Y1193200D01*
X2301800Y1186399D01*
X2306400Y1181799D01*
X2313199Y1179499D01*
X2322299Y1179499D01*
X2329099Y1181799D01*
X2333599Y1186399D01*
X2273199Y1227300D02*
G01*
X2277700Y1225000D01*
X2282299Y1220500D01*
X2284499Y1215900D01*
X2286800Y1209099D01*
X2286800Y1197699D01*
X2284499Y1190900D01*
X2282299Y1186399D01*
X2277700Y1181799D01*
X2273199Y1179499D01*
X2264099Y1179499D01*
X2259499Y1181799D01*
X2255000Y1186399D01*
X2252700Y1190900D01*
X2250500Y1197699D01*
X2250500Y1209099D01*
X2252700Y1215900D01*
X2255000Y1220500D01*
X2259499Y1225000D01*
X2264099Y1227300D01*
X2273199Y1227300D01*
X2368199Y1120500D02*
G01*
X2372700Y1125000D01*
X2379499Y1127300D01*
X2388599Y1127300D01*
X2395500Y1125000D01*
X2400000Y1120500D01*
X2400000Y1115900D01*
X2397700Y1111399D01*
X2395500Y1109099D01*
X2390900Y1106799D01*
X2377299Y1102300D01*
X2372700Y1100000D01*
X2370500Y1097699D01*
X2368199Y1093200D01*
X2368199Y1086399D01*
X2372700Y1081799D01*
X2379499Y1079499D01*
X2388599Y1079499D01*
X2395500Y1081799D01*
X2400000Y1086399D01*
X2319099Y1115900D02*
G01*
X2321400Y1120500D01*
X2325900Y1125000D01*
X2330500Y1127300D01*
X2339499Y1127300D01*
X2344099Y1125000D01*
X2348599Y1120500D01*
X2350900Y1115900D01*
X2353199Y1109099D01*
X2353199Y1097699D01*
X2350900Y1090900D01*
X2348599Y1086399D01*
X2344099Y1081799D01*
X2339499Y1079499D01*
X2330500Y1079499D01*
X2325900Y1081799D01*
X2321400Y1086399D01*
X2319099Y1090900D01*
X2304099Y1127300D02*
G01*
X2304099Y1079499D01*
X2272299Y1127300D02*
G01*
X2304099Y1095500D01*
X2292700Y1106799D02*
G01*
X2272299Y1079499D01*
X2400000Y1027294D02*
G01*
X2400000Y979495D01*
X2400000Y1027294D02*
G01*
X2379499Y1027294D01*
X2372700Y1024994D01*
X2370500Y1022694D01*
X2368199Y1018195D01*
X2368199Y1013595D01*
X2370500Y1009095D01*
X2372700Y1006795D01*
X2379499Y1004495D01*
X2400000Y1004495D01*
X2384099Y1004495D02*
G01*
X2368199Y979495D01*
X2321400Y1020495D02*
G01*
X2325900Y1024994D01*
X2332700Y1027294D01*
X2341800Y1027294D01*
X2348599Y1024994D01*
X2353199Y1020495D01*
X2353199Y1015895D01*
X2350900Y1011395D01*
X2348599Y1009095D01*
X2344099Y1006795D01*
X2330500Y1002294D01*
X2325900Y999994D01*
X2323599Y997694D01*
X2321400Y993195D01*
X2321400Y986395D01*
X2325900Y981795D01*
X2332700Y979495D01*
X2341800Y979495D01*
X2348599Y981795D01*
X2353199Y986395D01*
X2290500Y1027294D02*
G01*
X2290500Y979495D01*
X2306400Y1027294D02*
G01*
X2274499Y1027294D01*
X2790900Y1015900D02*
G01*
X2793199Y1020500D01*
X2797700Y1025000D01*
X2802299Y1027300D01*
X2811400Y1027300D01*
X2815900Y1025000D01*
X2820500Y1020500D01*
X2822700Y1015900D01*
X2825000Y1009099D01*
X2825000Y997699D01*
X2822700Y990900D01*
X2820500Y986399D01*
X2815900Y981799D01*
X2811400Y979499D01*
X2802299Y979499D01*
X2797700Y981799D01*
X2793199Y986399D01*
X2790900Y990900D01*
X2790900Y997699D01*
X2802299Y997699D02*
G01*
X2790900Y997699D01*
X2775900Y1027300D02*
G01*
X2775900Y979499D01*
X2775900Y1027300D02*
G01*
X2744099Y979499D01*
X2744099Y1027300D02*
G01*
X2744099Y979499D01*
X2729099Y1027300D02*
G01*
X2729099Y979499D01*
X2729099Y1027300D02*
G01*
X2713199Y1027300D01*
X2706400Y1025000D01*
X2701800Y1020500D01*
X2699499Y1015900D01*
X2697299Y1009099D01*
X2697299Y997699D01*
X2699499Y990900D01*
X2701800Y986399D01*
X2706400Y981799D01*
X2713199Y979499D01*
X2729099Y979499D01*
X2850000Y1127300D02*
G01*
X2850000Y1079499D01*
X2850000Y1127300D02*
G01*
X2831800Y1079499D01*
X2813599Y1127300D02*
G01*
X2831800Y1079499D01*
X2813599Y1127300D02*
G01*
X2813599Y1079499D01*
X2785000Y1127300D02*
G01*
X2789499Y1125000D01*
X2794099Y1120500D01*
X2796400Y1115900D01*
X2798599Y1109099D01*
X2798599Y1097699D01*
X2796400Y1090900D01*
X2794099Y1086399D01*
X2789499Y1081799D01*
X2785000Y1079499D01*
X2775900Y1079499D01*
X2771400Y1081799D01*
X2766800Y1086399D01*
X2764499Y1090900D01*
X2762299Y1097699D01*
X2762299Y1109099D01*
X2764499Y1115900D01*
X2766800Y1120500D01*
X2771400Y1125000D01*
X2775900Y1127300D01*
X2785000Y1127300D01*
X2715500Y1120500D02*
G01*
X2720000Y1125000D01*
X2726800Y1127300D01*
X2735900Y1127300D01*
X2742700Y1125000D01*
X2747299Y1120500D01*
X2747299Y1115900D01*
X2745000Y1111399D01*
X2742700Y1109099D01*
X2738199Y1106799D01*
X2724499Y1102300D01*
X2720000Y1100000D01*
X2717700Y1097699D01*
X2715500Y1093200D01*
X2715500Y1086399D01*
X2720000Y1081799D01*
X2726800Y1079499D01*
X2735900Y1079499D01*
X2742700Y1081799D01*
X2747299Y1086399D01*
X2700500Y1127300D02*
G01*
X2700500Y1079499D01*
X2747700Y1227300D02*
G01*
X2770500Y1227300D01*
X2772700Y1206799D01*
X2770500Y1209099D01*
X2763599Y1211399D01*
X2756800Y1211399D01*
X2750000Y1209099D01*
X2745500Y1204499D01*
X2743199Y1197699D01*
X2743199Y1193200D01*
X2745500Y1186399D01*
X2750000Y1181799D01*
X2756800Y1179499D01*
X2763599Y1179499D01*
X2770500Y1181799D01*
X2772700Y1184099D01*
X2775000Y1188600D01*
X2728199Y1227300D02*
G01*
X2710000Y1179499D01*
X2691800Y1227300D02*
G01*
X2710000Y1179499D01*
X1172700Y375000D02*
G01*
X1220500Y375000D01*
X1172700Y346399D02*
G01*
X1175000Y350900D01*
X1179499Y355500D01*
X1184099Y357699D01*
X1190900Y360000D01*
X1202299Y360000D01*
X1209099Y357699D01*
X1213599Y355500D01*
X1218199Y350900D01*
X1220500Y346399D01*
X1220500Y337300D01*
X1218199Y332699D01*
X1213599Y328200D01*
X1209099Y325900D01*
X1202299Y323600D01*
X1190900Y323600D01*
X1184099Y325900D01*
X1179499Y328200D01*
X1175000Y332699D01*
X1172700Y337300D01*
X1172700Y346399D01*
X1172700Y308600D02*
G01*
X1220500Y308600D01*
X1172700Y308600D02*
G01*
X1172700Y288200D01*
X1175000Y281399D01*
X1177299Y279099D01*
X1181800Y276799D01*
X1186400Y276799D01*
X1190900Y279099D01*
X1193199Y281399D01*
X1195500Y288200D01*
X1195500Y308600D01*
X1195500Y292699D02*
G01*
X1220500Y276799D01*
X1172700Y261799D02*
G01*
X1220500Y261799D01*
X1172700Y261799D02*
G01*
X1172700Y232300D01*
X1195500Y261799D02*
G01*
X1195500Y243600D01*
X1220500Y261799D02*
G01*
X1220500Y232300D01*
X1172700Y217300D02*
G01*
X1220500Y217300D01*
X1172700Y217300D02*
G01*
X1172700Y187699D01*
X1195500Y217300D02*
G01*
X1195500Y199099D01*
X1272700Y400000D02*
G01*
X1320500Y400000D01*
X1272700Y400000D02*
G01*
X1272700Y379499D01*
X1275000Y372699D01*
X1277299Y370500D01*
X1281800Y368200D01*
X1286400Y368200D01*
X1290900Y370500D01*
X1293199Y372699D01*
X1295500Y379499D01*
X1295500Y400000D01*
X1295500Y384099D02*
G01*
X1320500Y368200D01*
X1302299Y353200D02*
G01*
X1302299Y325900D01*
X1297700Y325900D01*
X1293199Y328200D01*
X1290900Y330500D01*
X1288599Y335000D01*
X1288599Y341799D01*
X1290900Y346399D01*
X1295500Y350900D01*
X1302299Y353200D01*
X1306800Y353200D01*
X1313599Y350900D01*
X1318199Y346399D01*
X1320500Y341799D01*
X1320500Y335000D01*
X1318199Y330500D01*
X1313599Y325900D01*
X1295500Y285900D02*
G01*
X1290900Y288200D01*
X1288599Y295000D01*
X1288599Y301799D01*
X1290900Y308600D01*
X1295500Y310900D01*
X1300000Y308600D01*
X1302299Y304099D01*
X1304499Y292699D01*
X1306800Y288200D01*
X1311400Y285900D01*
X1313599Y285900D01*
X1318199Y288200D01*
X1320500Y295000D01*
X1320500Y301799D01*
X1318199Y308600D01*
X1313599Y310900D01*
X1302299Y270900D02*
G01*
X1302299Y243600D01*
X1297700Y243600D01*
X1293199Y245900D01*
X1290900Y248200D01*
X1288599Y252699D01*
X1288599Y259499D01*
X1290900Y264099D01*
X1295500Y268600D01*
X1302299Y270900D01*
X1306800Y270900D01*
X1313599Y268600D01*
X1318199Y264099D01*
X1320500Y259499D01*
X1320500Y252699D01*
X1318199Y248200D01*
X1313599Y243600D01*
X1272700Y221799D02*
G01*
X1311400Y221799D01*
X1318199Y219499D01*
X1320500Y215000D01*
X1320500Y210500D01*
X1288599Y228600D02*
G01*
X1288599Y212699D01*
X1372700Y370500D02*
G01*
X1372700Y345500D01*
X1390900Y359099D01*
X1390900Y352300D01*
X1393199Y347699D01*
X1395500Y345500D01*
X1402299Y343200D01*
X1406800Y343200D01*
X1413599Y345500D01*
X1418199Y350000D01*
X1420500Y356799D01*
X1420500Y363600D01*
X1418199Y370500D01*
X1415900Y372699D01*
X1411400Y375000D01*
X1409099Y325900D02*
G01*
X1411400Y328200D01*
X1413599Y325900D01*
X1411400Y323600D01*
X1409099Y325900D01*
X1372700Y304099D02*
G01*
X1372700Y279099D01*
X1390900Y292699D01*
X1390900Y285900D01*
X1393199Y281399D01*
X1395500Y279099D01*
X1402299Y276799D01*
X1406800Y276799D01*
X1413599Y279099D01*
X1418199Y283600D01*
X1420500Y290500D01*
X1420500Y297300D01*
X1418199Y304099D01*
X1415900Y306399D01*
X1411400Y308600D01*
X1372700Y261799D02*
G01*
X1420500Y243600D01*
X1372700Y225500D02*
G01*
X1420500Y243600D01*
X1472700Y272701D02*
G01*
X1472700Y295500D01*
X1493199Y297701D01*
X1490900Y295500D01*
X1488599Y288600D01*
X1488599Y281801D01*
X1490900Y275001D01*
X1495500Y270500D01*
X1502299Y268200D01*
X1506800Y268200D01*
X1513599Y270500D01*
X1518199Y275001D01*
X1520500Y281801D01*
X1520500Y288600D01*
X1518199Y295500D01*
X1515900Y297701D01*
X1511400Y300001D01*
X1472700Y253200D02*
G01*
X1520500Y235001D01*
X1472700Y216801D02*
G01*
X1520500Y235001D01*
X1584099Y290900D02*
G01*
X1579499Y293200D01*
X1575000Y297699D01*
X1572700Y302300D01*
X1572700Y311399D01*
X1575000Y315900D01*
X1579499Y320500D01*
X1584099Y322699D01*
X1590900Y325000D01*
X1602299Y325000D01*
X1609099Y322699D01*
X1613599Y320500D01*
X1618199Y315900D01*
X1620500Y311399D01*
X1620500Y302300D01*
X1618199Y297699D01*
X1613599Y293200D01*
X1609099Y290900D01*
X1602299Y290900D01*
X1602299Y302300D02*
G01*
X1602299Y290900D01*
X1572700Y275900D02*
G01*
X1620500Y275900D01*
X1572700Y275900D02*
G01*
X1620500Y244099D01*
X1572700Y244099D02*
G01*
X1620500Y244099D01*
X1572700Y229099D02*
G01*
X1620500Y229099D01*
X1572700Y229099D02*
G01*
X1572700Y213200D01*
X1575000Y206399D01*
X1579499Y201799D01*
X1584099Y199499D01*
X1590900Y197300D01*
X1602299Y197300D01*
X1609099Y199499D01*
X1613599Y201799D01*
X1618199Y206399D01*
X1620500Y213200D01*
X1620500Y229099D01*
X1685900Y290900D02*
G01*
X1681400Y293200D01*
X1676800Y297699D01*
X1674499Y302300D01*
X1674499Y311399D01*
X1676800Y315900D01*
X1681400Y320500D01*
X1685900Y322699D01*
X1692700Y325000D01*
X1704099Y325000D01*
X1710900Y322699D01*
X1715500Y320500D01*
X1720000Y315900D01*
X1722299Y311399D01*
X1722299Y302300D01*
X1720000Y297699D01*
X1715500Y293200D01*
X1710900Y290900D01*
X1704099Y290900D01*
X1704099Y302300D02*
G01*
X1704099Y290900D01*
X1674499Y275900D02*
G01*
X1722299Y275900D01*
X1674499Y275900D02*
G01*
X1722299Y244099D01*
X1674499Y244099D02*
G01*
X1722299Y244099D01*
X1674499Y229099D02*
G01*
X1722299Y229099D01*
X1674499Y229099D02*
G01*
X1674499Y213200D01*
X1676800Y206399D01*
X1681400Y201799D01*
X1685900Y199499D01*
X1692700Y197300D01*
X1704099Y197300D01*
X1710900Y199499D01*
X1715500Y201799D01*
X1720000Y206399D01*
X1722299Y213200D01*
X1722299Y229099D01*
X1772700Y300001D02*
G01*
X1820500Y281801D01*
X1772700Y263600D02*
G01*
X1820500Y281801D01*
X1772700Y248600D02*
G01*
X1820500Y248600D01*
X1772700Y233600D02*
G01*
X1820500Y233600D01*
X1772700Y233600D02*
G01*
X1820500Y201801D01*
X1772700Y201801D02*
G01*
X1820500Y201801D01*
X1972700Y280500D02*
G01*
X2020500Y298701D01*
X1972700Y280500D02*
G01*
X2020500Y262301D01*
X2004499Y291900D02*
G01*
X2004499Y269200D01*
X1972700Y233701D02*
G01*
X1975000Y240500D01*
X1981800Y245100D01*
X1993199Y247301D01*
X2000000Y247301D01*
X2011400Y245100D01*
X2018199Y240500D01*
X2020500Y233701D01*
X2020500Y229200D01*
X2018199Y222301D01*
X2011400Y217800D01*
X2000000Y215500D01*
X1993199Y215500D01*
X1981800Y217800D01*
X1975000Y222301D01*
X1972700Y229200D01*
X1972700Y233701D01*
X2072700Y285000D02*
G01*
X2120500Y303200D01*
X2072700Y285000D02*
G01*
X2120500Y266799D01*
X2104499Y296399D02*
G01*
X2104499Y273699D01*
X2081800Y251799D02*
G01*
X2079499Y247300D01*
X2072700Y240500D01*
X2120500Y240500D01*
X2172700Y280500D02*
G01*
X2220500Y298701D01*
X2172700Y280500D02*
G01*
X2220500Y262301D01*
X2204499Y291900D02*
G01*
X2204499Y269200D01*
X2184099Y245100D02*
G01*
X2181800Y245100D01*
X2177299Y242800D01*
X2175000Y240500D01*
X2172700Y236001D01*
X2172700Y226900D01*
X2175000Y222301D01*
X2177299Y220100D01*
X2181800Y217800D01*
X2186400Y217800D01*
X2190900Y220100D01*
X2197700Y224600D01*
X2220500Y247301D01*
X2220500Y215500D01*
X2272700Y280500D02*
G01*
X2320500Y298701D01*
X2272700Y280500D02*
G01*
X2320500Y262301D01*
X2304499Y291900D02*
G01*
X2304499Y269200D01*
X2272700Y242800D02*
G01*
X2272700Y217800D01*
X2290900Y231401D01*
X2290900Y224600D01*
X2293199Y220100D01*
X2295500Y217800D01*
X2302299Y215500D01*
X2306800Y215500D01*
X2313599Y217800D01*
X2318199Y222301D01*
X2320500Y229200D01*
X2320500Y236001D01*
X2318199Y242800D01*
X2315900Y245100D01*
X2311400Y247301D01*
X2372700Y282800D02*
G01*
X2420500Y300999D01*
X2372700Y282800D02*
G01*
X2420500Y264600D01*
X2404499Y294200D02*
G01*
X2404499Y271500D01*
X2372700Y226900D02*
G01*
X2404499Y249600D01*
X2404499Y215500D01*
X2372700Y226900D02*
G01*
X2420500Y226900D01*
X2472700Y280500D02*
G01*
X2520500Y298701D01*
X2472700Y280500D02*
G01*
X2520500Y262301D01*
X2504499Y291900D02*
G01*
X2504499Y269200D01*
X2472700Y220100D02*
G01*
X2472700Y242800D01*
X2493199Y245100D01*
X2490900Y242800D01*
X2488599Y236001D01*
X2488599Y229200D01*
X2490900Y222301D01*
X2495500Y217800D01*
X2502299Y215500D01*
X2506800Y215500D01*
X2513599Y217800D01*
X2518199Y222301D01*
X2520500Y229200D01*
X2520500Y236001D01*
X2518199Y242800D01*
X2515900Y245100D01*
X2511400Y247301D01*
X2572700Y278200D02*
G01*
X2620500Y296401D01*
X2572700Y278200D02*
G01*
X2620500Y260001D01*
X2604499Y289600D02*
G01*
X2604499Y266900D01*
X2579499Y217800D02*
G01*
X2575000Y220001D01*
X2572700Y226900D01*
X2572700Y231401D01*
X2575000Y238200D01*
X2581800Y242800D01*
X2593199Y245001D01*
X2604499Y245001D01*
X2613599Y242800D01*
X2618199Y238200D01*
X2620500Y231401D01*
X2620500Y229101D01*
X2618199Y222301D01*
X2613599Y217800D01*
X2606800Y215500D01*
X2604499Y215500D01*
X2597700Y217800D01*
X2593199Y222301D01*
X2590900Y229101D01*
X2590900Y231401D01*
X2593199Y238200D01*
X2597700Y242800D01*
X2604499Y245001D01*
X2672700Y280500D02*
G01*
X2720500Y298701D01*
X2672700Y280500D02*
G01*
X2720500Y262301D01*
X2704499Y291900D02*
G01*
X2704499Y269200D01*
X2672700Y215500D02*
G01*
X2720500Y238200D01*
X2672700Y247301D02*
G01*
X2672700Y215500D01*
X2872700Y280500D02*
G01*
X2920500Y298701D01*
X2872700Y280500D02*
G01*
X2920500Y262301D01*
X2904499Y291900D02*
G01*
X2904499Y269200D01*
X2872700Y236001D02*
G01*
X2875000Y242800D01*
X2879499Y245100D01*
X2884099Y245100D01*
X2888599Y242800D01*
X2890900Y238200D01*
X2893199Y229200D01*
X2895500Y222301D01*
X2900000Y217800D01*
X2904499Y215500D01*
X2911400Y215500D01*
X2915900Y217800D01*
X2918199Y220100D01*
X2920500Y226900D01*
X2920500Y236001D01*
X2918199Y242800D01*
X2915900Y245100D01*
X2911400Y247301D01*
X2904499Y247301D01*
X2900000Y245100D01*
X2895500Y240500D01*
X2893199Y233701D01*
X2890900Y224600D01*
X2888599Y220100D01*
X2884099Y217800D01*
X2879499Y217800D01*
X2875000Y220100D01*
X2872700Y226900D01*
X2872700Y236001D01*
X2972700Y278198D02*
G01*
X3020500Y296399D01*
X2972700Y278198D02*
G01*
X3020500Y259998D01*
X3004499Y289598D02*
G01*
X3004499Y266898D01*
X2988599Y215498D02*
G01*
X2995500Y217798D01*
X3000000Y222298D01*
X3002299Y229099D01*
X3002299Y231399D01*
X3000000Y238198D01*
X2995500Y242798D01*
X2988599Y244998D01*
X2986400Y244998D01*
X2979499Y242798D01*
X2975000Y238198D01*
X2972700Y231399D01*
X2972700Y229099D01*
X2975000Y222298D01*
X2979499Y217798D01*
X2988599Y215498D01*
X3000000Y215498D01*
X3011400Y217798D01*
X3018199Y222298D01*
X3020500Y229099D01*
X3020500Y233699D01*
X3018199Y240498D01*
X3013599Y242798D01*
X3072700Y281799D02*
G01*
X3120500Y300000D01*
X3072700Y281799D02*
G01*
X3120500Y263600D01*
X3104499Y293200D02*
G01*
X3104499Y270500D01*
X3081800Y248600D02*
G01*
X3079499Y244099D01*
X3072700Y237300D01*
X3120500Y237300D01*
X3072700Y208600D02*
G01*
X3075000Y215500D01*
X3081800Y220000D01*
X3093199Y222300D01*
X3100000Y222300D01*
X3111400Y220000D01*
X3118199Y215500D01*
X3120500Y208600D01*
X3120500Y204099D01*
X3118199Y197300D01*
X3111400Y192699D01*
X3100000Y190500D01*
X3093199Y190500D01*
X3081800Y192699D01*
X3075000Y197300D01*
X3072700Y204099D01*
X3072700Y208600D01*
X3172700Y286399D02*
G01*
X3220500Y304598D01*
X3172700Y286399D02*
G01*
X3220500Y268198D01*
X3204499Y297799D02*
G01*
X3204499Y275099D01*
X3181800Y253198D02*
G01*
X3179499Y248699D01*
X3172700Y241898D01*
X3220500Y241898D01*
X3181800Y226898D02*
G01*
X3179499Y222298D01*
X3172700Y215498D01*
X3220500Y215498D01*
X3272700Y281799D02*
G01*
X3320500Y300000D01*
X3272700Y281799D02*
G01*
X3320500Y263600D01*
X3304499Y293200D02*
G01*
X3304499Y270500D01*
X3281800Y248600D02*
G01*
X3279499Y244099D01*
X3272700Y237300D01*
X3320500Y237300D01*
X3284099Y220000D02*
G01*
X3281800Y220000D01*
X3277299Y217699D01*
X3275000Y215500D01*
X3272700Y210900D01*
X3272700Y201799D01*
X3275000Y197300D01*
X3277299Y195000D01*
X3281800Y192699D01*
X3286400Y192699D01*
X3290900Y195000D01*
X3297700Y199499D01*
X3320500Y222300D01*
X3320500Y190500D01*
X3372700Y281799D02*
G01*
X3420500Y300000D01*
X3372700Y281799D02*
G01*
X3420500Y263600D01*
X3404499Y293200D02*
G01*
X3404499Y270500D01*
X3381800Y248600D02*
G01*
X3379499Y244099D01*
X3372700Y237300D01*
X3420500Y237300D01*
X3372700Y217699D02*
G01*
X3372700Y192699D01*
X3390900Y206399D01*
X3390900Y199499D01*
X3393199Y195000D01*
X3395500Y192699D01*
X3402299Y190500D01*
X3406800Y190500D01*
X3413599Y192699D01*
X3418199Y197300D01*
X3420500Y204099D01*
X3420500Y210900D01*
X3418199Y217699D01*
X3415900Y220000D01*
X3411400Y222300D01*
X3472700Y284099D02*
G01*
X3520500Y302298D01*
X3472700Y284099D02*
G01*
X3520500Y265898D01*
X3504499Y295498D02*
G01*
X3504499Y272799D01*
X3481800Y250898D02*
G01*
X3479499Y246399D01*
X3472700Y239598D01*
X3520500Y239598D01*
X3472700Y201799D02*
G01*
X3504499Y224598D01*
X3504499Y190498D01*
X3472700Y201799D02*
G01*
X3520500Y201799D01*
X3379499Y1743200D02*
G01*
X3375000Y1747701D01*
X3372700Y1754501D01*
X3372700Y1763600D01*
X3375000Y1770500D01*
X3379499Y1775001D01*
X3384099Y1775001D01*
X3388599Y1772701D01*
X3390900Y1770500D01*
X3393199Y1765900D01*
X3397700Y1752301D01*
X3400000Y1747701D01*
X3402299Y1745500D01*
X3406800Y1743200D01*
X3413599Y1743200D01*
X3418199Y1747701D01*
X3420500Y1754501D01*
X3420500Y1763600D01*
X3418199Y1770500D01*
X3413599Y1775001D01*
X3384099Y1694101D02*
G01*
X3379499Y1696401D01*
X3375000Y1700900D01*
X3372700Y1705500D01*
X3372700Y1714501D01*
X3375000Y1719101D01*
X3379499Y1723600D01*
X3384099Y1725900D01*
X3390900Y1728200D01*
X3402299Y1728200D01*
X3409099Y1725900D01*
X3413599Y1723600D01*
X3418199Y1719101D01*
X3420500Y1714501D01*
X3420500Y1705500D01*
X3418199Y1700900D01*
X3413599Y1696401D01*
X3409099Y1694101D01*
X3372700Y1679101D02*
G01*
X3420500Y1679101D01*
X3420500Y1679101D02*
G01*
X3420500Y1651801D01*
X3279499Y1750000D02*
G01*
X3275000Y1754499D01*
X3272700Y1761300D01*
X3272700Y1770399D01*
X3275000Y1777300D01*
X3279499Y1781799D01*
X3284099Y1781799D01*
X3288599Y1779499D01*
X3290900Y1777300D01*
X3293199Y1772699D01*
X3297700Y1759099D01*
X3300000Y1754499D01*
X3302299Y1752300D01*
X3306800Y1750000D01*
X3313599Y1750000D01*
X3318199Y1754499D01*
X3320500Y1761300D01*
X3320500Y1770399D01*
X3318199Y1777300D01*
X3313599Y1781799D01*
X3272700Y1735000D02*
G01*
X3320500Y1735000D01*
X3272700Y1735000D02*
G01*
X3272700Y1719099D01*
X3275000Y1712300D01*
X3279499Y1707699D01*
X3284099Y1705399D01*
X3290900Y1703200D01*
X3302299Y1703200D01*
X3309099Y1705399D01*
X3313599Y1707699D01*
X3318199Y1712300D01*
X3320500Y1719099D01*
X3320500Y1735000D01*
X3272700Y1670000D02*
G01*
X3320500Y1688200D01*
X3272700Y1670000D02*
G01*
X3320500Y1651799D01*
X3304499Y1681300D02*
G01*
X3304499Y1658600D01*
X3172700Y1781799D02*
G01*
X3220500Y1781799D01*
X3172700Y1781799D02*
G01*
X3172700Y1761300D01*
X3175000Y1754499D01*
X3177299Y1752300D01*
X3181800Y1750000D01*
X3186400Y1750000D01*
X3190900Y1752300D01*
X3193199Y1754499D01*
X3195500Y1761300D01*
X3195500Y1781799D01*
X3195500Y1765900D02*
G01*
X3220500Y1750000D01*
X3172700Y1735000D02*
G01*
X3220500Y1703200D01*
X3172700Y1703200D02*
G01*
X3220500Y1735000D01*
X3181800Y1688200D02*
G01*
X3179499Y1683600D01*
X3172700Y1676799D01*
X3220500Y1676799D01*
X3072700Y1765900D02*
G01*
X3120500Y1765900D01*
X3072700Y1781799D02*
G01*
X3072700Y1750000D01*
X3072700Y1735000D02*
G01*
X3120500Y1703200D01*
X3072700Y1703200D02*
G01*
X3120500Y1735000D01*
X3081800Y1688200D02*
G01*
X3079499Y1683600D01*
X3072700Y1676799D01*
X3120500Y1676799D01*
X2972700Y1777300D02*
G01*
X3020500Y1777300D01*
X2972700Y1777300D02*
G01*
X2972700Y1756799D01*
X2975000Y1750000D01*
X2977299Y1747800D01*
X2981800Y1745500D01*
X2986400Y1745500D01*
X2990900Y1747800D01*
X2993199Y1750000D01*
X2995500Y1756799D01*
X2995500Y1777300D01*
X2995500Y1761399D02*
G01*
X3020500Y1745500D01*
X2972700Y1730500D02*
G01*
X3020500Y1698699D01*
X2972700Y1698699D02*
G01*
X3020500Y1730500D01*
X2984099Y1681399D02*
G01*
X2981800Y1681399D01*
X2977299Y1679099D01*
X2975000Y1676799D01*
X2972700Y1672300D01*
X2972700Y1663200D01*
X2975000Y1658699D01*
X2977299Y1656399D01*
X2981800Y1654099D01*
X2986400Y1654099D01*
X2990900Y1656399D01*
X2997700Y1660900D01*
X3020500Y1683699D01*
X3020500Y1651799D01*
X2872700Y1761399D02*
G01*
X2920500Y1761399D01*
X2872700Y1777300D02*
G01*
X2872700Y1745500D01*
X2872700Y1730500D02*
G01*
X2920500Y1698699D01*
X2872700Y1698699D02*
G01*
X2920500Y1730500D01*
X2884099Y1681399D02*
G01*
X2881800Y1681399D01*
X2877299Y1679099D01*
X2875000Y1676799D01*
X2872700Y1672300D01*
X2872700Y1663200D01*
X2875000Y1658699D01*
X2877299Y1656399D01*
X2881800Y1654099D01*
X2886400Y1654099D01*
X2890900Y1656399D01*
X2897700Y1660900D01*
X2920500Y1683699D01*
X2920500Y1651799D01*
X2772700Y1777300D02*
G01*
X2820500Y1777300D01*
X2772700Y1777300D02*
G01*
X2772700Y1756799D01*
X2775000Y1750000D01*
X2777299Y1747800D01*
X2781800Y1745500D01*
X2786400Y1745500D01*
X2790900Y1747800D01*
X2793199Y1750000D01*
X2795500Y1756799D01*
X2795500Y1777300D01*
X2795500Y1761399D02*
G01*
X2820500Y1745500D01*
X2772700Y1730500D02*
G01*
X2820500Y1698699D01*
X2772700Y1698699D02*
G01*
X2820500Y1730500D01*
X2772700Y1679099D02*
G01*
X2772700Y1654099D01*
X2790900Y1667800D01*
X2790900Y1660900D01*
X2793199Y1656399D01*
X2795500Y1654099D01*
X2802299Y1651799D01*
X2806800Y1651799D01*
X2813599Y1654099D01*
X2818199Y1658699D01*
X2820500Y1665500D01*
X2820500Y1672300D01*
X2818199Y1679099D01*
X2815900Y1681399D01*
X2811400Y1683699D01*
X2672700Y1761399D02*
G01*
X2720500Y1761399D01*
X2672700Y1777300D02*
G01*
X2672700Y1745500D01*
X2672700Y1730500D02*
G01*
X2720500Y1698699D01*
X2672700Y1698699D02*
G01*
X2720500Y1730500D01*
X2672700Y1679099D02*
G01*
X2672700Y1654099D01*
X2690900Y1667800D01*
X2690900Y1660900D01*
X2693199Y1656399D01*
X2695500Y1654099D01*
X2702299Y1651799D01*
X2706800Y1651799D01*
X2713599Y1654099D01*
X2718199Y1658699D01*
X2720500Y1665500D01*
X2720500Y1672300D01*
X2718199Y1679099D01*
X2715900Y1681399D01*
X2711400Y1683699D01*
X3384099Y1897701D02*
G01*
X3381800Y1897701D01*
X3377299Y1895500D01*
X3375000Y1893200D01*
X3372700Y1888600D01*
X3372700Y1879501D01*
X3375000Y1875001D01*
X3377299Y1872701D01*
X3381800Y1870500D01*
X3386400Y1870500D01*
X3390900Y1872701D01*
X3397700Y1877301D01*
X3420500Y1900001D01*
X3420500Y1868200D01*
X3381800Y1853200D02*
G01*
X3379499Y1848600D01*
X3372700Y1841801D01*
X3420500Y1841801D01*
X3284099Y1897701D02*
G01*
X3281800Y1897701D01*
X3277299Y1895500D01*
X3275000Y1893200D01*
X3272700Y1888600D01*
X3272700Y1879501D01*
X3275000Y1875001D01*
X3277299Y1872701D01*
X3281800Y1870500D01*
X3286400Y1870500D01*
X3290900Y1872701D01*
X3297700Y1877301D01*
X3320500Y1900001D01*
X3320500Y1868200D01*
X3272700Y1839501D02*
G01*
X3275000Y1846401D01*
X3281800Y1850900D01*
X3293199Y1853200D01*
X3300000Y1853200D01*
X3311400Y1850900D01*
X3318199Y1846401D01*
X3320500Y1839501D01*
X3320500Y1835001D01*
X3318199Y1828200D01*
X3311400Y1823600D01*
X3300000Y1821401D01*
X3293199Y1821401D01*
X3281800Y1823600D01*
X3275000Y1828200D01*
X3272700Y1835001D01*
X3272700Y1839501D01*
X3181800Y1897701D02*
G01*
X3179499Y1893200D01*
X3172700Y1886300D01*
X3220500Y1886300D01*
X3188599Y1841801D02*
G01*
X3195500Y1844101D01*
X3200000Y1848600D01*
X3202299Y1855401D01*
X3202299Y1857701D01*
X3200000Y1864501D01*
X3195500Y1869101D01*
X3188599Y1871300D01*
X3186400Y1871300D01*
X3179499Y1869101D01*
X3175000Y1864501D01*
X3172700Y1857701D01*
X3172700Y1855401D01*
X3175000Y1848600D01*
X3179499Y1844101D01*
X3188599Y1841801D01*
X3200000Y1841801D01*
X3211400Y1844101D01*
X3218199Y1848600D01*
X3220500Y1855401D01*
X3220500Y1860001D01*
X3218199Y1866801D01*
X3213599Y1869101D01*
X3081800Y1900001D02*
G01*
X3079499Y1895500D01*
X3072700Y1888600D01*
X3120500Y1888600D01*
X3072700Y1862301D02*
G01*
X3075000Y1869101D01*
X3079499Y1871401D01*
X3084099Y1871401D01*
X3088599Y1869101D01*
X3090900Y1864501D01*
X3093199Y1855500D01*
X3095500Y1848600D01*
X3100000Y1844101D01*
X3104499Y1841801D01*
X3111400Y1841801D01*
X3115900Y1844101D01*
X3118199Y1846401D01*
X3120500Y1853200D01*
X3120500Y1862301D01*
X3118199Y1869101D01*
X3115900Y1871401D01*
X3111400Y1873600D01*
X3104499Y1873600D01*
X3100000Y1871401D01*
X3095500Y1866801D01*
X3093199Y1860001D01*
X3090900Y1850900D01*
X3088599Y1846401D01*
X3084099Y1844101D01*
X3079499Y1844101D01*
X3075000Y1846401D01*
X3072700Y1853200D01*
X3072700Y1862301D01*
X2981800Y1900001D02*
G01*
X2979499Y1895500D01*
X2972700Y1888600D01*
X3020500Y1888600D01*
X2972700Y1841801D02*
G01*
X3020500Y1864501D01*
X2972700Y1873600D02*
G01*
X2972700Y1841801D01*
X2881800Y1897701D02*
G01*
X2879499Y1893200D01*
X2872700Y1886300D01*
X2920500Y1886300D01*
X2879499Y1844101D02*
G01*
X2875000Y1846300D01*
X2872700Y1853200D01*
X2872700Y1857701D01*
X2875000Y1864501D01*
X2881800Y1869101D01*
X2893199Y1871300D01*
X2904499Y1871300D01*
X2913599Y1869101D01*
X2918199Y1864501D01*
X2920500Y1857701D01*
X2920500Y1855401D01*
X2918199Y1848600D01*
X2913599Y1844101D01*
X2906800Y1841801D01*
X2904499Y1841801D01*
X2897700Y1844101D01*
X2893199Y1848600D01*
X2890900Y1855401D01*
X2890900Y1857701D01*
X2893199Y1864501D01*
X2897700Y1869101D01*
X2904499Y1871300D01*
X2781800Y1900001D02*
G01*
X2779499Y1895500D01*
X2772700Y1888600D01*
X2820500Y1888600D01*
X2772700Y1846401D02*
G01*
X2772700Y1869101D01*
X2793199Y1871401D01*
X2790900Y1869101D01*
X2788599Y1862301D01*
X2788599Y1855500D01*
X2790900Y1848600D01*
X2795500Y1844101D01*
X2802299Y1841801D01*
X2806800Y1841801D01*
X2813599Y1844101D01*
X2818199Y1848600D01*
X2820500Y1855500D01*
X2820500Y1862301D01*
X2818199Y1869101D01*
X2815900Y1871401D01*
X2811400Y1873600D01*
X2681800Y1902300D02*
G01*
X2679499Y1897800D01*
X2672700Y1890900D01*
X2720500Y1890900D01*
X2672700Y1853200D02*
G01*
X2704499Y1875900D01*
X2704499Y1841799D01*
X2672700Y1853200D02*
G01*
X2720500Y1853200D01*
X2472700Y1781799D02*
G01*
X2520500Y1781799D01*
X2472700Y1781799D02*
G01*
X2472700Y1761300D01*
X2475000Y1754499D01*
X2477299Y1752300D01*
X2481800Y1750000D01*
X2486400Y1750000D01*
X2490900Y1752300D01*
X2493199Y1754499D01*
X2495500Y1761300D01*
X2495500Y1781799D01*
X2495500Y1765900D02*
G01*
X2520500Y1750000D01*
X2472700Y1735000D02*
G01*
X2520500Y1703200D01*
X2472700Y1703200D02*
G01*
X2520500Y1735000D01*
X2472700Y1674499D02*
G01*
X2475000Y1681300D01*
X2481800Y1685900D01*
X2493199Y1688200D01*
X2500000Y1688200D01*
X2511400Y1685900D01*
X2518199Y1681300D01*
X2520500Y1674499D01*
X2520500Y1670000D01*
X2518199Y1663200D01*
X2511400Y1658600D01*
X2500000Y1656300D01*
X2493199Y1656300D01*
X2481800Y1658600D01*
X2475000Y1663200D01*
X2472700Y1670000D01*
X2472700Y1674499D01*
X2372700Y1765900D02*
G01*
X2420500Y1765900D01*
X2372700Y1781799D02*
G01*
X2372700Y1750000D01*
X2372700Y1735000D02*
G01*
X2420500Y1703200D01*
X2372700Y1703200D02*
G01*
X2420500Y1735000D01*
X2372700Y1674499D02*
G01*
X2375000Y1681300D01*
X2381800Y1685900D01*
X2393199Y1688200D01*
X2400000Y1688200D01*
X2411400Y1685900D01*
X2418199Y1681300D01*
X2420500Y1674499D01*
X2420500Y1670000D01*
X2418199Y1663200D01*
X2411400Y1658600D01*
X2400000Y1656300D01*
X2393199Y1656300D01*
X2381800Y1658600D01*
X2375000Y1663200D01*
X2372700Y1670000D01*
X2372700Y1674499D01*
X2472700Y1881799D02*
G01*
X2475000Y1888598D01*
X2481800Y1893099D01*
X2493199Y1895399D01*
X2500000Y1895399D01*
X2511400Y1893099D01*
X2518199Y1888598D01*
X2520500Y1881799D01*
X2520500Y1877199D01*
X2518199Y1870399D01*
X2511400Y1865898D01*
X2500000Y1863598D01*
X2493199Y1863598D01*
X2481800Y1865898D01*
X2475000Y1870399D01*
X2472700Y1877199D01*
X2472700Y1881799D01*
X2381800Y1899998D02*
G01*
X2379499Y1895498D01*
X2372700Y1888598D01*
X2420500Y1888598D01*
X2284099Y1897699D02*
G01*
X2281800Y1897699D01*
X2277299Y1895500D01*
X2275000Y1893200D01*
X2272700Y1888600D01*
X2272700Y1879499D01*
X2275000Y1875000D01*
X2277299Y1872699D01*
X2281800Y1870500D01*
X2286400Y1870500D01*
X2290900Y1872699D01*
X2297700Y1877300D01*
X2320500Y1900000D01*
X2320500Y1868200D01*
X2172700Y1895498D02*
G01*
X2172700Y1870498D01*
X2190900Y1884099D01*
X2190900Y1877298D01*
X2193199Y1872698D01*
X2195500Y1870498D01*
X2202299Y1868198D01*
X2206800Y1868198D01*
X2213599Y1870498D01*
X2218199Y1874998D01*
X2220500Y1881799D01*
X2220500Y1888598D01*
X2218199Y1895498D01*
X2215900Y1897698D01*
X2211400Y1899998D01*
X2072700Y1879598D02*
G01*
X2104499Y1902298D01*
X2104499Y1868198D01*
X2072700Y1879598D02*
G01*
X2120500Y1879598D01*
X1972700Y1872698D02*
G01*
X1972700Y1895498D01*
X1993199Y1897698D01*
X1990900Y1895498D01*
X1988599Y1888598D01*
X1988599Y1881799D01*
X1990900Y1874998D01*
X1995500Y1870498D01*
X2002299Y1868198D01*
X2006800Y1868198D01*
X2013599Y1870498D01*
X2018199Y1874998D01*
X2020500Y1881799D01*
X2020500Y1888598D01*
X2018199Y1895498D01*
X2015900Y1897698D01*
X2011400Y1899998D01*
X1879499Y1870399D02*
G01*
X1875000Y1872699D01*
X1872700Y1879499D01*
X1872700Y1884099D01*
X1875000Y1890900D01*
X1881800Y1895399D01*
X1893199Y1897699D01*
X1904499Y1897699D01*
X1913599Y1895399D01*
X1918199Y1890900D01*
X1920500Y1884099D01*
X1920500Y1881799D01*
X1918199Y1875000D01*
X1913599Y1870399D01*
X1906800Y1868200D01*
X1904499Y1868200D01*
X1897700Y1870399D01*
X1893199Y1875000D01*
X1890900Y1881799D01*
X1890900Y1884099D01*
X1893199Y1890900D01*
X1897700Y1895399D01*
X1904499Y1897699D01*
X1772700Y1868198D02*
G01*
X1820500Y1890898D01*
X1772700Y1899998D02*
G01*
X1772700Y1868198D01*
X1622700Y1888598D02*
G01*
X1625000Y1895498D01*
X1629499Y1897698D01*
X1634099Y1897698D01*
X1638599Y1895498D01*
X1640900Y1890898D01*
X1643199Y1881799D01*
X1645500Y1874998D01*
X1650000Y1870498D01*
X1654499Y1868198D01*
X1661400Y1868198D01*
X1665900Y1870498D01*
X1668199Y1872698D01*
X1670500Y1879499D01*
X1670500Y1888598D01*
X1668199Y1895498D01*
X1665900Y1897698D01*
X1661400Y1899998D01*
X1654499Y1899998D01*
X1650000Y1897698D01*
X1645500Y1893198D01*
X1643199Y1886399D01*
X1640900Y1877298D01*
X1638599Y1872698D01*
X1634099Y1870498D01*
X1629499Y1870498D01*
X1625000Y1872698D01*
X1622700Y1879499D01*
X1622700Y1888598D01*
X1538599Y1868200D02*
G01*
X1545500Y1870399D01*
X1550000Y1875000D01*
X1552299Y1881799D01*
X1552299Y1884099D01*
X1550000Y1890900D01*
X1545500Y1895399D01*
X1538599Y1897699D01*
X1536400Y1897699D01*
X1529499Y1895399D01*
X1525000Y1890900D01*
X1522700Y1884099D01*
X1522700Y1881799D01*
X1525000Y1875000D01*
X1529499Y1870399D01*
X1538599Y1868200D01*
X1550000Y1868200D01*
X1561400Y1870399D01*
X1568199Y1875000D01*
X1570500Y1881799D01*
X1570500Y1886300D01*
X1568199Y1893200D01*
X1563599Y1895399D01*
X1431800Y1900000D02*
G01*
X1429499Y1895500D01*
X1422700Y1888600D01*
X1470500Y1888600D01*
X1422700Y1860000D02*
G01*
X1425000Y1866799D01*
X1431800Y1871399D01*
X1443199Y1873600D01*
X1450000Y1873600D01*
X1461400Y1871399D01*
X1468199Y1866799D01*
X1470500Y1860000D01*
X1470500Y1855500D01*
X1468199Y1848600D01*
X1461400Y1844099D01*
X1450000Y1841799D01*
X1443199Y1841799D01*
X1431800Y1844099D01*
X1425000Y1848600D01*
X1422700Y1855500D01*
X1422700Y1860000D01*
X1331800Y1900000D02*
G01*
X1329499Y1895500D01*
X1322700Y1888600D01*
X1370500Y1888600D01*
X1331800Y1873600D02*
G01*
X1329499Y1869099D01*
X1322700Y1862300D01*
X1370500Y1862300D01*
X1231800Y1900000D02*
G01*
X1229499Y1895500D01*
X1222700Y1888600D01*
X1270500Y1888600D01*
X1234099Y1871399D02*
G01*
X1231800Y1871399D01*
X1227299Y1869099D01*
X1225000Y1866799D01*
X1222700Y1862300D01*
X1222700Y1853200D01*
X1225000Y1848600D01*
X1227299Y1846399D01*
X1231800Y1844099D01*
X1236400Y1844099D01*
X1240900Y1846399D01*
X1247700Y1850900D01*
X1270500Y1873600D01*
X1270500Y1841799D01*
X1131800Y1900001D02*
G01*
X1129499Y1895500D01*
X1122700Y1888600D01*
X1170500Y1888600D01*
X1122700Y1869101D02*
G01*
X1122700Y1844101D01*
X1140900Y1857701D01*
X1140900Y1850900D01*
X1143199Y1846401D01*
X1145500Y1844101D01*
X1152299Y1841801D01*
X1156800Y1841801D01*
X1163599Y1844101D01*
X1168199Y1848600D01*
X1170500Y1855500D01*
X1170500Y1862301D01*
X1168199Y1869101D01*
X1165900Y1871401D01*
X1161400Y1873600D01*
X1034099Y1865900D02*
G01*
X1029499Y1868200D01*
X1025000Y1872699D01*
X1022700Y1877300D01*
X1022700Y1886399D01*
X1025000Y1890900D01*
X1029499Y1895500D01*
X1034099Y1897699D01*
X1040900Y1900000D01*
X1052299Y1900000D01*
X1059099Y1897699D01*
X1063599Y1895500D01*
X1068199Y1890900D01*
X1070500Y1886399D01*
X1070500Y1877300D01*
X1068199Y1872699D01*
X1063599Y1868200D01*
X1059099Y1865900D01*
X1052299Y1865900D01*
X1052299Y1877300D02*
G01*
X1052299Y1865900D01*
X1022700Y1850900D02*
G01*
X1070500Y1850900D01*
X1022700Y1850900D02*
G01*
X1070500Y1819099D01*
X1022700Y1819099D02*
G01*
X1070500Y1819099D01*
X1022700Y1804099D02*
G01*
X1070500Y1804099D01*
X1022700Y1804099D02*
G01*
X1022700Y1788200D01*
X1025000Y1781399D01*
X1029499Y1776799D01*
X1034099Y1774499D01*
X1040900Y1772300D01*
X1052299Y1772300D01*
X1059099Y1774499D01*
X1063599Y1776799D01*
X1068199Y1781399D01*
X1070500Y1788200D01*
X1070500Y1804099D01*
X922700Y1881799D02*
G01*
X970500Y1900000D01*
X922700Y1881799D02*
G01*
X970500Y1863600D01*
X954499Y1893200D02*
G01*
X954499Y1870500D01*
X922700Y1848600D02*
G01*
X970500Y1848600D01*
X922700Y1848600D02*
G01*
X922700Y1828200D01*
X925000Y1821399D01*
X927299Y1819099D01*
X931800Y1816799D01*
X936400Y1816799D01*
X940900Y1819099D01*
X943199Y1821399D01*
X945500Y1828200D01*
X945500Y1848600D01*
X945500Y1832699D02*
G01*
X970500Y1816799D01*
X922700Y1801799D02*
G01*
X970500Y1801799D01*
X922700Y1801799D02*
G01*
X922700Y1772300D01*
X945500Y1801799D02*
G01*
X945500Y1783600D01*
X970500Y1801799D02*
G01*
X970500Y1772300D01*
X922700Y1757300D02*
G01*
X970500Y1757300D01*
X922700Y1757300D02*
G01*
X922700Y1727699D01*
X945500Y1757300D02*
G01*
X945500Y1739099D01*
X3622700Y1915900D02*
G01*
X3622700Y1918200D01*
X3620500Y1922699D01*
X3618199Y1925000D01*
X3613599Y1927300D01*
X3604499Y1927300D01*
X3600000Y1925000D01*
X3597700Y1922699D01*
X3595500Y1918200D01*
X3595500Y1913600D01*
X3597700Y1909099D01*
X3602299Y1902300D01*
X3625000Y1879499D01*
X3593199Y1879499D01*
X3575900Y1915900D02*
G01*
X3575900Y1918200D01*
X3573599Y1922699D01*
X3571400Y1925000D01*
X3566800Y1927300D01*
X3557700Y1927300D01*
X3553199Y1925000D01*
X3550900Y1922699D01*
X3548599Y1918200D01*
X3548599Y1913600D01*
X3550900Y1909099D01*
X3555500Y1902300D01*
X3578199Y1879499D01*
X3546400Y1879499D01*
X3622700Y1815900D02*
G01*
X3622700Y1818200D01*
X3620500Y1822699D01*
X3618199Y1825000D01*
X3613599Y1827300D01*
X3604499Y1827300D01*
X3600000Y1825000D01*
X3597700Y1822699D01*
X3595500Y1818200D01*
X3595500Y1813600D01*
X3597700Y1809099D01*
X3602299Y1802300D01*
X3625000Y1779499D01*
X3593199Y1779499D01*
X3555500Y1827300D02*
G01*
X3578199Y1795500D01*
X3544099Y1795500D01*
X3555500Y1827300D02*
G01*
X3555500Y1779499D01*
X3622700Y1715900D02*
G01*
X3622700Y1718200D01*
X3620500Y1722699D01*
X3618199Y1725000D01*
X3613599Y1727300D01*
X3604499Y1727300D01*
X3600000Y1725000D01*
X3597700Y1722699D01*
X3595500Y1718200D01*
X3595500Y1713600D01*
X3597700Y1709099D01*
X3602299Y1702300D01*
X3625000Y1679499D01*
X3593199Y1679499D01*
X3550900Y1720500D02*
G01*
X3553199Y1725000D01*
X3560000Y1727300D01*
X3564499Y1727300D01*
X3571400Y1725000D01*
X3575900Y1718200D01*
X3578199Y1706799D01*
X3578199Y1695500D01*
X3575900Y1686399D01*
X3571400Y1681799D01*
X3564499Y1679499D01*
X3562299Y1679499D01*
X3555500Y1681799D01*
X3550900Y1686399D01*
X3548599Y1693200D01*
X3548599Y1695500D01*
X3550900Y1702300D01*
X3555500Y1706799D01*
X3562299Y1709099D01*
X3564499Y1709099D01*
X3571400Y1706799D01*
X3575900Y1702300D01*
X3578199Y1695500D01*
X3622700Y1615900D02*
G01*
X3622700Y1618200D01*
X3620500Y1622699D01*
X3618199Y1625000D01*
X3613599Y1627300D01*
X3604499Y1627300D01*
X3600000Y1625000D01*
X3597700Y1622699D01*
X3595500Y1618200D01*
X3595500Y1613600D01*
X3597700Y1609099D01*
X3602299Y1602300D01*
X3625000Y1579499D01*
X3593199Y1579499D01*
X3566800Y1627300D02*
G01*
X3573599Y1625000D01*
X3575900Y1620500D01*
X3575900Y1615900D01*
X3573599Y1611399D01*
X3569099Y1609099D01*
X3560000Y1606799D01*
X3553199Y1604499D01*
X3548599Y1600000D01*
X3546400Y1595500D01*
X3546400Y1588600D01*
X3548599Y1584099D01*
X3550900Y1581799D01*
X3557700Y1579499D01*
X3566800Y1579499D01*
X3573599Y1581799D01*
X3575900Y1584099D01*
X3578199Y1588600D01*
X3578199Y1595500D01*
X3575900Y1600000D01*
X3571400Y1604499D01*
X3564499Y1606799D01*
X3555500Y1609099D01*
X3550900Y1611399D01*
X3548599Y1615900D01*
X3548599Y1620500D01*
X3550900Y1625000D01*
X3557700Y1627300D01*
X3566800Y1627300D01*
X3620500Y1527300D02*
G01*
X3595500Y1527300D01*
X3609099Y1509099D01*
X3602299Y1509099D01*
X3597700Y1506799D01*
X3595500Y1504499D01*
X3593199Y1497699D01*
X3593199Y1493200D01*
X3595500Y1486399D01*
X3600000Y1481799D01*
X3606800Y1479499D01*
X3613599Y1479499D01*
X3620500Y1481799D01*
X3622700Y1484099D01*
X3625000Y1488600D01*
X3564499Y1527300D02*
G01*
X3571400Y1525000D01*
X3575900Y1518200D01*
X3578199Y1506799D01*
X3578199Y1500000D01*
X3575900Y1488600D01*
X3571400Y1481799D01*
X3564499Y1479499D01*
X3560000Y1479499D01*
X3553199Y1481799D01*
X3548599Y1488600D01*
X3546400Y1500000D01*
X3546400Y1506799D01*
X3548599Y1518200D01*
X3553199Y1525000D01*
X3560000Y1527300D01*
X3564499Y1527300D01*
X3620500Y1427300D02*
G01*
X3595500Y1427300D01*
X3609099Y1409099D01*
X3602299Y1409099D01*
X3597700Y1406799D01*
X3595500Y1404499D01*
X3593199Y1397699D01*
X3593199Y1393200D01*
X3595500Y1386399D01*
X3600000Y1381799D01*
X3606800Y1379499D01*
X3613599Y1379499D01*
X3620500Y1381799D01*
X3622700Y1384099D01*
X3625000Y1388600D01*
X3575900Y1415900D02*
G01*
X3575900Y1418200D01*
X3573599Y1422699D01*
X3571400Y1425000D01*
X3566800Y1427300D01*
X3557700Y1427300D01*
X3553199Y1425000D01*
X3550900Y1422699D01*
X3548599Y1418200D01*
X3548599Y1413600D01*
X3550900Y1409099D01*
X3555500Y1402300D01*
X3578199Y1379499D01*
X3546400Y1379499D01*
X3620500Y1327300D02*
G01*
X3595500Y1327300D01*
X3609099Y1309099D01*
X3602299Y1309099D01*
X3597700Y1306799D01*
X3595500Y1304499D01*
X3593199Y1297699D01*
X3593199Y1293200D01*
X3595500Y1286399D01*
X3600000Y1281799D01*
X3606800Y1279499D01*
X3613599Y1279499D01*
X3620500Y1281799D01*
X3622700Y1284099D01*
X3625000Y1288600D01*
X3555500Y1327300D02*
G01*
X3578199Y1295500D01*
X3544099Y1295500D01*
X3555500Y1327300D02*
G01*
X3555500Y1279499D01*
X3620500Y1227300D02*
G01*
X3595500Y1227300D01*
X3609099Y1209099D01*
X3602299Y1209099D01*
X3597700Y1206799D01*
X3595500Y1204499D01*
X3593199Y1197699D01*
X3593199Y1193200D01*
X3595500Y1186399D01*
X3600000Y1181799D01*
X3606800Y1179499D01*
X3613599Y1179499D01*
X3620500Y1181799D01*
X3622700Y1184099D01*
X3625000Y1188600D01*
X3550900Y1220500D02*
G01*
X3553199Y1225000D01*
X3560000Y1227300D01*
X3564499Y1227300D01*
X3571400Y1225000D01*
X3575900Y1218200D01*
X3578199Y1206799D01*
X3578199Y1195500D01*
X3575900Y1186399D01*
X3571400Y1181799D01*
X3564499Y1179499D01*
X3562299Y1179499D01*
X3555500Y1181799D01*
X3550900Y1186399D01*
X3548599Y1193200D01*
X3548599Y1195500D01*
X3550900Y1202300D01*
X3555500Y1206799D01*
X3562299Y1209099D01*
X3564499Y1209099D01*
X3571400Y1206799D01*
X3575900Y1202300D01*
X3578199Y1195500D01*
X3620500Y1127300D02*
G01*
X3595500Y1127300D01*
X3609099Y1109099D01*
X3602299Y1109099D01*
X3597700Y1106799D01*
X3595500Y1104499D01*
X3593199Y1097699D01*
X3593199Y1093200D01*
X3595500Y1086399D01*
X3600000Y1081799D01*
X3606800Y1079499D01*
X3613599Y1079499D01*
X3620500Y1081799D01*
X3622700Y1084099D01*
X3625000Y1088600D01*
X3566800Y1127300D02*
G01*
X3573599Y1125000D01*
X3575900Y1120500D01*
X3575900Y1115900D01*
X3573599Y1111399D01*
X3569099Y1109099D01*
X3560000Y1106799D01*
X3553199Y1104499D01*
X3548599Y1100000D01*
X3546400Y1095500D01*
X3546400Y1088600D01*
X3548599Y1084099D01*
X3550900Y1081799D01*
X3557700Y1079499D01*
X3566800Y1079499D01*
X3573599Y1081799D01*
X3575900Y1084099D01*
X3578199Y1088600D01*
X3578199Y1095500D01*
X3575900Y1100000D01*
X3571400Y1104499D01*
X3564499Y1106799D01*
X3555500Y1109099D01*
X3550900Y1111399D01*
X3548599Y1115900D01*
X3548599Y1120500D01*
X3550900Y1125000D01*
X3557700Y1127300D01*
X3566800Y1127300D01*
X3602299Y1027300D02*
G01*
X3625000Y995500D01*
X3590900Y995500D01*
X3602299Y1027300D02*
G01*
X3602299Y979499D01*
X3562299Y1027300D02*
G01*
X3569099Y1025000D01*
X3573599Y1018200D01*
X3575900Y1006799D01*
X3575900Y1000000D01*
X3573599Y988600D01*
X3569099Y981799D01*
X3562299Y979499D01*
X3557700Y979499D01*
X3550900Y981799D01*
X3546400Y988600D01*
X3544099Y1000000D01*
X3544099Y1006799D01*
X3546400Y1018200D01*
X3550900Y1025000D01*
X3557700Y1027300D01*
X3562299Y1027300D01*
X3602299Y927300D02*
G01*
X3625000Y895500D01*
X3590900Y895500D01*
X3602299Y927300D02*
G01*
X3602299Y879499D01*
X3573599Y915900D02*
G01*
X3573599Y918200D01*
X3571400Y922699D01*
X3569099Y925000D01*
X3564499Y927300D01*
X3555500Y927300D01*
X3550900Y925000D01*
X3548599Y922699D01*
X3546400Y918200D01*
X3546400Y913600D01*
X3548599Y909099D01*
X3553199Y902300D01*
X3575900Y879499D01*
X3544099Y879499D01*
X3602299Y827300D02*
G01*
X3625000Y795500D01*
X3590900Y795500D01*
X3602299Y827300D02*
G01*
X3602299Y779499D01*
X3553199Y827300D02*
G01*
X3575900Y795500D01*
X3541800Y795500D01*
X3553199Y827300D02*
G01*
X3553199Y779499D01*
X3602299Y727300D02*
G01*
X3625000Y695500D01*
X3590900Y695500D01*
X3602299Y727300D02*
G01*
X3602299Y679499D01*
X3548599Y720500D02*
G01*
X3550900Y725000D01*
X3557700Y727300D01*
X3562299Y727300D01*
X3569099Y725000D01*
X3573599Y718200D01*
X3575900Y706799D01*
X3575900Y695500D01*
X3573599Y686399D01*
X3569099Y681799D01*
X3562299Y679499D01*
X3560000Y679499D01*
X3553199Y681799D01*
X3548599Y686399D01*
X3546400Y693200D01*
X3546400Y695500D01*
X3548599Y702300D01*
X3553199Y706799D01*
X3560000Y709099D01*
X3562299Y709099D01*
X3569099Y706799D01*
X3573599Y702300D01*
X3575900Y695500D01*
X3602299Y627300D02*
G01*
X3625000Y595500D01*
X3590900Y595500D01*
X3602299Y627300D02*
G01*
X3602299Y579499D01*
X3564499Y627300D02*
G01*
X3571400Y625000D01*
X3573599Y620500D01*
X3573599Y615900D01*
X3571400Y611399D01*
X3566800Y609099D01*
X3557700Y606799D01*
X3550900Y604499D01*
X3546400Y600000D01*
X3544099Y595500D01*
X3544099Y588600D01*
X3546400Y584099D01*
X3548599Y581799D01*
X3555500Y579499D01*
X3564499Y579499D01*
X3571400Y581799D01*
X3573599Y584099D01*
X3575900Y588600D01*
X3575900Y595500D01*
X3573599Y600000D01*
X3569099Y604499D01*
X3562299Y606799D01*
X3553199Y609099D01*
X3548599Y611399D01*
X3546400Y615900D01*
X3546400Y620500D01*
X3548599Y625000D01*
X3555500Y627300D01*
X3564499Y627300D01*
X3597700Y527300D02*
G01*
X3620500Y527300D01*
X3622700Y506799D01*
X3620500Y509099D01*
X3613599Y511399D01*
X3606800Y511399D01*
X3600000Y509099D01*
X3595500Y504499D01*
X3593199Y497699D01*
X3593199Y493200D01*
X3595500Y486399D01*
X3600000Y481799D01*
X3606800Y479499D01*
X3613599Y479499D01*
X3620500Y481799D01*
X3622700Y484099D01*
X3625000Y488600D01*
X3564499Y527300D02*
G01*
X3571400Y525000D01*
X3575900Y518200D01*
X3578199Y506799D01*
X3578199Y500000D01*
X3575900Y488600D01*
X3571400Y481799D01*
X3564499Y479499D01*
X3560000Y479499D01*
X3553199Y481799D01*
X3548599Y488600D01*
X3546400Y500000D01*
X3546400Y506799D01*
X3548599Y518200D01*
X3553199Y525000D01*
X3560000Y527300D01*
X3564499Y527300D01*
X3597700Y427300D02*
G01*
X3620500Y427300D01*
X3622700Y406799D01*
X3620500Y409099D01*
X3613599Y411399D01*
X3606800Y411399D01*
X3600000Y409099D01*
X3595500Y404499D01*
X3593199Y397699D01*
X3593199Y393200D01*
X3595500Y386399D01*
X3600000Y381799D01*
X3606800Y379499D01*
X3613599Y379499D01*
X3620500Y381799D01*
X3622700Y384099D01*
X3625000Y388600D01*
X3575900Y415900D02*
G01*
X3575900Y418200D01*
X3573599Y422699D01*
X3571400Y425000D01*
X3566800Y427300D01*
X3557700Y427300D01*
X3553199Y425000D01*
X3550900Y422699D01*
X3548599Y418200D01*
X3548599Y413600D01*
X3550900Y409099D01*
X3555500Y402300D01*
X3578199Y379499D01*
X3546400Y379499D01*
X3922700Y427300D02*
G01*
X3945500Y427300D01*
X3947700Y406799D01*
X3945500Y409099D01*
X3938599Y411399D01*
X3931800Y411399D01*
X3925000Y409099D01*
X3920500Y404499D01*
X3918199Y397699D01*
X3918199Y393200D01*
X3920500Y386399D01*
X3925000Y381799D01*
X3931800Y379499D01*
X3938599Y379499D01*
X3945500Y381799D01*
X3947700Y384099D01*
X3950000Y388600D01*
X3898599Y427300D02*
G01*
X3873599Y427300D01*
X3887299Y409099D01*
X3880500Y409099D01*
X3875900Y406799D01*
X3873599Y404499D01*
X3871400Y397699D01*
X3871400Y393200D01*
X3873599Y386399D01*
X3878199Y381799D01*
X3885000Y379499D01*
X3891800Y379499D01*
X3898599Y381799D01*
X3900900Y384099D01*
X3903199Y388600D01*
X3922700Y527300D02*
G01*
X3945500Y527300D01*
X3947700Y506799D01*
X3945500Y509099D01*
X3938599Y511399D01*
X3931800Y511399D01*
X3925000Y509099D01*
X3920500Y504499D01*
X3918199Y497699D01*
X3918199Y493200D01*
X3920500Y486399D01*
X3925000Y481799D01*
X3931800Y479499D01*
X3938599Y479499D01*
X3945500Y481799D01*
X3947700Y484099D01*
X3950000Y488600D01*
X3903199Y518200D02*
G01*
X3898599Y520500D01*
X3891800Y527300D01*
X3891800Y479499D01*
X3927299Y627300D02*
G01*
X3950000Y595500D01*
X3915900Y595500D01*
X3927299Y627300D02*
G01*
X3927299Y579499D01*
X3871400Y611399D02*
G01*
X3873599Y604499D01*
X3878199Y600000D01*
X3885000Y597699D01*
X3887299Y597699D01*
X3894099Y600000D01*
X3898599Y604499D01*
X3900900Y611399D01*
X3900900Y613600D01*
X3898599Y620500D01*
X3894099Y625000D01*
X3887299Y627300D01*
X3885000Y627300D01*
X3878199Y625000D01*
X3873599Y620500D01*
X3871400Y611399D01*
X3871400Y600000D01*
X3873599Y588600D01*
X3878199Y581799D01*
X3885000Y579499D01*
X3889499Y579499D01*
X3896400Y581799D01*
X3898599Y586399D01*
X3927299Y727300D02*
G01*
X3950000Y695500D01*
X3915900Y695500D01*
X3927299Y727300D02*
G01*
X3927299Y679499D01*
X3869099Y727300D02*
G01*
X3891800Y679499D01*
X3900900Y727300D02*
G01*
X3869099Y727300D01*
X3927299Y827300D02*
G01*
X3950000Y795500D01*
X3915900Y795500D01*
X3927299Y827300D02*
G01*
X3927299Y779499D01*
X3873599Y827300D02*
G01*
X3896400Y827300D01*
X3898599Y806799D01*
X3896400Y809099D01*
X3889499Y811399D01*
X3882700Y811399D01*
X3875900Y809099D01*
X3871400Y804499D01*
X3869099Y797699D01*
X3869099Y793200D01*
X3871400Y786399D01*
X3875900Y781799D01*
X3882700Y779499D01*
X3889499Y779499D01*
X3896400Y781799D01*
X3898599Y784099D01*
X3900900Y788600D01*
X3927299Y927300D02*
G01*
X3950000Y895500D01*
X3915900Y895500D01*
X3927299Y927300D02*
G01*
X3927299Y879499D01*
X3896400Y927300D02*
G01*
X3871400Y927300D01*
X3885000Y909099D01*
X3878199Y909099D01*
X3873599Y906799D01*
X3871400Y904499D01*
X3869099Y897699D01*
X3869099Y893200D01*
X3871400Y886399D01*
X3875900Y881799D01*
X3882700Y879499D01*
X3889499Y879499D01*
X3896400Y881799D01*
X3898599Y884099D01*
X3900900Y888600D01*
X3927299Y1027300D02*
G01*
X3950000Y995500D01*
X3915900Y995500D01*
X3927299Y1027300D02*
G01*
X3927299Y979499D01*
X3900900Y1018200D02*
G01*
X3896400Y1020500D01*
X3889499Y1027300D01*
X3889499Y979499D01*
X3945500Y1127300D02*
G01*
X3920500Y1127300D01*
X3934099Y1109099D01*
X3927299Y1109099D01*
X3922700Y1106799D01*
X3920500Y1104499D01*
X3918199Y1097699D01*
X3918199Y1093200D01*
X3920500Y1086399D01*
X3925000Y1081799D01*
X3931800Y1079499D01*
X3938599Y1079499D01*
X3945500Y1081799D01*
X3947700Y1084099D01*
X3950000Y1088600D01*
X3873599Y1111399D02*
G01*
X3875900Y1104499D01*
X3880500Y1100000D01*
X3887299Y1097699D01*
X3889499Y1097699D01*
X3896400Y1100000D01*
X3900900Y1104499D01*
X3903199Y1111399D01*
X3903199Y1113600D01*
X3900900Y1120500D01*
X3896400Y1125000D01*
X3889499Y1127300D01*
X3887299Y1127300D01*
X3880500Y1125000D01*
X3875900Y1120500D01*
X3873599Y1111399D01*
X3873599Y1100000D01*
X3875900Y1088600D01*
X3880500Y1081799D01*
X3887299Y1079499D01*
X3891800Y1079499D01*
X3898599Y1081799D01*
X3900900Y1086399D01*
X3945500Y1227300D02*
G01*
X3920500Y1227300D01*
X3934099Y1209099D01*
X3927299Y1209099D01*
X3922700Y1206799D01*
X3920500Y1204499D01*
X3918199Y1197699D01*
X3918199Y1193200D01*
X3920500Y1186399D01*
X3925000Y1181799D01*
X3931800Y1179499D01*
X3938599Y1179499D01*
X3945500Y1181799D01*
X3947700Y1184099D01*
X3950000Y1188600D01*
X3871400Y1227300D02*
G01*
X3894099Y1179499D01*
X3903199Y1227300D02*
G01*
X3871400Y1227300D01*
X3945500Y1327300D02*
G01*
X3920500Y1327300D01*
X3934099Y1309099D01*
X3927299Y1309099D01*
X3922700Y1306799D01*
X3920500Y1304499D01*
X3918199Y1297699D01*
X3918199Y1293200D01*
X3920500Y1286399D01*
X3925000Y1281799D01*
X3931800Y1279499D01*
X3938599Y1279499D01*
X3945500Y1281799D01*
X3947700Y1284099D01*
X3950000Y1288600D01*
X3875900Y1327300D02*
G01*
X3898599Y1327300D01*
X3900900Y1306799D01*
X3898599Y1309099D01*
X3891800Y1311399D01*
X3885000Y1311399D01*
X3878199Y1309099D01*
X3873599Y1304499D01*
X3871400Y1297699D01*
X3871400Y1293200D01*
X3873599Y1286399D01*
X3878199Y1281799D01*
X3885000Y1279499D01*
X3891800Y1279499D01*
X3898599Y1281799D01*
X3900900Y1284099D01*
X3903199Y1288600D01*
X3945500Y1427300D02*
G01*
X3920500Y1427300D01*
X3934099Y1409099D01*
X3927299Y1409099D01*
X3922700Y1406799D01*
X3920500Y1404499D01*
X3918199Y1397699D01*
X3918199Y1393200D01*
X3920500Y1386399D01*
X3925000Y1381799D01*
X3931800Y1379499D01*
X3938599Y1379499D01*
X3945500Y1381799D01*
X3947700Y1384099D01*
X3950000Y1388600D01*
X3898599Y1427300D02*
G01*
X3873599Y1427300D01*
X3887299Y1409099D01*
X3880500Y1409099D01*
X3875900Y1406799D01*
X3873599Y1404499D01*
X3871400Y1397699D01*
X3871400Y1393200D01*
X3873599Y1386399D01*
X3878199Y1381799D01*
X3885000Y1379499D01*
X3891800Y1379499D01*
X3898599Y1381799D01*
X3900900Y1384099D01*
X3903199Y1388600D01*
X3945500Y1527300D02*
G01*
X3920500Y1527300D01*
X3934099Y1509099D01*
X3927299Y1509099D01*
X3922700Y1506799D01*
X3920500Y1504499D01*
X3918199Y1497699D01*
X3918199Y1493200D01*
X3920500Y1486399D01*
X3925000Y1481799D01*
X3931800Y1479499D01*
X3938599Y1479499D01*
X3945500Y1481799D01*
X3947700Y1484099D01*
X3950000Y1488600D01*
X3903199Y1518200D02*
G01*
X3898599Y1520500D01*
X3891800Y1527300D01*
X3891800Y1479499D01*
X3940900Y315900D02*
G01*
X3943199Y320500D01*
X3947700Y325000D01*
X3952299Y327300D01*
X3961400Y327300D01*
X3965900Y325000D01*
X3970500Y320500D01*
X3972700Y315900D01*
X3975000Y309099D01*
X3975000Y297699D01*
X3972700Y290900D01*
X3970500Y286399D01*
X3965900Y281799D01*
X3961400Y279499D01*
X3952299Y279499D01*
X3947700Y281799D01*
X3943199Y286399D01*
X3940900Y290900D01*
X3940900Y297699D01*
X3952299Y297699D02*
G01*
X3940900Y297699D01*
X3925900Y327300D02*
G01*
X3925900Y279499D01*
X3925900Y327300D02*
G01*
X3894099Y279499D01*
X3894099Y327300D02*
G01*
X3894099Y279499D01*
X3879099Y327300D02*
G01*
X3879099Y279499D01*
X3879099Y327300D02*
G01*
X3863199Y327300D01*
X3856400Y325000D01*
X3851800Y320500D01*
X3849499Y315900D01*
X3847299Y309099D01*
X3847299Y297699D01*
X3849499Y290900D01*
X3851800Y286399D01*
X3856400Y281799D01*
X3863199Y279499D01*
X3879099Y279499D01*
D12*
X0Y0D02*
G01*
X3900000Y0D01*
X3900000Y50000D01*
X4000000Y150000D01*
X4000000Y1500000D01*
X3900000Y1600000D01*
X3900000Y2000000D01*
X3800000Y2100000D01*
X0Y2100000D01*
X0Y0D01*
X-250000Y1750000D02*
G01*
X400000Y1750000D01*
X400000Y1250000D02*
G01*
X-250000Y1250000D01*
X-250000Y1750000D01*
X400000Y1750000D02*
G01*
X400000Y1250000D01*
X2450000Y1250000D02*
G01*
X2650000Y1250000D01*
X2650000Y950000D01*
X2450000Y950000D01*
X2450000Y1250000D01*
X1700000Y1950000D02*
G01*
X1700000Y2050000D01*
X700000Y2050000D01*
X700000Y1950000D01*
X1700000Y1950000D01*
X2400000Y1850000D02*
G01*
X2375000Y1825000D01*
X2400000Y1800000D02*
G01*
X2400000Y1850000D01*
X2425000Y1825000D01*
X2500000Y1800000D02*
G01*
X2500000Y1850000D01*
X2500000Y1800000D02*
G01*
X2475000Y1825000D01*
X2500000Y1800000D02*
G01*
X2525000Y1825000D01*
X1050000Y150000D02*
G01*
X1850000Y150000D01*
X1950000Y150000D02*
G01*
X2750000Y150000D01*
X1850000Y150000D02*
G01*
X1850000Y50000D01*
X1050000Y50000D01*
X1050000Y150000D01*
X-75000Y125000D02*
G01*
X450000Y125000D01*
X450000Y475000D01*
X-75000Y475000D01*
X-75000Y125000D01*
X2650000Y2000000D02*
G01*
X2650000Y2050000D01*
X2650000Y2050000D02*
G01*
X3450000Y2050000D01*
X3450000Y1950000D01*
X2650000Y1950000D01*
X2650000Y2000000D01*
X1750000Y2050000D02*
G01*
X1750000Y1950000D01*
X2550000Y1950000D01*
X2550000Y2050000D01*
X1750000Y2050000D01*
X3650000Y150000D02*
G01*
X2850000Y150000D01*
X2850000Y50000D01*
X3650000Y50000D01*
X3650000Y150000D01*
X3100000Y150000D01*
X2750000Y150000D02*
G01*
X2750000Y50000D01*
X1950000Y50000D01*
X1950000Y150000D01*
M02*
