G04 Layer: BottomLayer*
G04 EasyEDA v6.5.23, 2023-06-13 15:15:08*
G04 1e32025c192248609e1912bf01cfb9d3,5f8968b253fc4aed9fc2cb8881c97923,10*
G04 Gerber Generator version 0.2*
G04 Scale: 100 percent, Rotated: No, Reflected: No *
G04 Dimensions in inches *
G04 leading zeros omitted , absolute positions ,3 integer and 6 decimal *
%FSLAX36Y36*%
%MOIN*%

%ADD10C,0.0100*%
%ADD11C,0.0620*%
%ADD12R,0.0620X0.0620*%
%ADD13C,0.0470*%
%ADD14C,0.0740*%
%ADD15R,0.0700X0.0700*%
%ADD16C,0.0551*%
%ADD17R,0.0709X0.0709*%
%ADD18C,0.0709*%
%ADD19R,0.0740X0.0740*%
%ADD20R,0.0600X0.0600*%
%ADD21C,0.0700*%
%ADD22R,0.0554X0.0554*%
%ADD23C,0.0554*%
%ADD24C,0.0650*%
%ADD25C,0.0630*%
%ADD26O,0.047240000000000004X0.039369999999999995*%
%ADD27O,0.039369999999999995X0.070866*%
%ADD28C,0.0240*%
%ADD29C,0.0125*%

%LPD*%
D10*
X3136660Y950210D02*
G01*
X3136660Y1065880D01*
X2754260Y1448279D01*
X2719350Y1448279D01*
X2661340Y1506289D01*
X2661340Y1542359D01*
X2801850Y1682869D01*
X2122870Y755059D02*
G01*
X2122870Y888029D01*
X2441419Y1206579D01*
X2441419Y1423989D01*
X2772430Y1755000D01*
X2803689Y1755000D01*
X3200000Y2000000D02*
G01*
X3149390Y2050610D01*
X3081450Y2050610D01*
X3050000Y2019160D01*
X3050000Y1978400D01*
X2847610Y1776010D01*
X2847610Y1750129D01*
X2803419Y1705940D01*
X2790940Y1705940D01*
X2610000Y1525000D01*
X785000Y65000D02*
G01*
X831689Y18310D01*
X1853149Y18310D01*
X2041049Y206210D01*
X2074560Y206210D01*
X2345500Y477150D01*
X2345500Y664810D01*
X3159880Y1578820D02*
G01*
X3159880Y538470D01*
X3435950Y262399D01*
X1400000Y100000D02*
G01*
X1209499Y290509D01*
X1209499Y290509D02*
G01*
X1135000Y365000D01*
X1115000Y365000D01*
X1115000Y365000D02*
G01*
X955000Y525000D01*
X920000Y525000D01*
X1415000Y365000D02*
G01*
X1373919Y406080D01*
X1373919Y406080D02*
G01*
X1276830Y406080D01*
X1267110Y396359D01*
X1267110Y348119D01*
X1209499Y290509D01*
X1373919Y406080D02*
G01*
X1524700Y556860D01*
X1524700Y1184369D01*
X1524709Y1184369D01*
X1105000Y1025000D02*
G01*
X1105000Y741689D01*
X938370Y575059D01*
X900640Y575059D01*
X870519Y544940D01*
X870519Y79479D01*
X885000Y65000D01*
X2300000Y2000000D02*
G01*
X1985000Y1685000D01*
X1857870Y1685000D01*
X1456689Y1283820D01*
X1309189Y1283820D01*
X1000399Y975030D01*
X900569Y975030D01*
X600540Y675000D01*
X375000Y675000D01*
X260000Y560000D01*
X2200000Y2000000D02*
G01*
X2150959Y2049040D01*
X1881530Y2049040D01*
X1850000Y2017510D01*
X1850000Y1983930D01*
X1716069Y1850000D01*
X1134149Y1850000D01*
X540000Y1255850D01*
X540000Y1219720D01*
X322359Y1002080D01*
X238090Y1002080D01*
X217020Y981010D01*
X217020Y702979D01*
X260000Y660000D01*
X2000000Y2000000D02*
G01*
X1973919Y2000000D01*
X1458919Y1485000D01*
X1261279Y1485000D01*
X1040000Y1263719D01*
X1040000Y1212989D01*
X741179Y914169D01*
X314169Y914169D01*
X260000Y860000D01*
X1900000Y2000000D02*
G01*
X1678410Y1778409D01*
X1353080Y1778409D01*
X840060Y1265390D01*
X840060Y1223890D01*
X576170Y960000D01*
X260000Y960000D01*
X260000Y1060000D02*
G01*
X216250Y1103750D01*
X216250Y1179279D01*
X749780Y1712809D01*
X833689Y1712809D01*
X1100000Y1979119D01*
X1100000Y2020090D01*
X1147920Y2068009D01*
X1731989Y2068009D01*
X1800000Y2000000D01*
X1650000Y2000000D02*
G01*
X1598860Y2051140D01*
X1228040Y2051140D01*
X1203919Y2027020D01*
X1203919Y1985839D01*
X640720Y1422640D01*
X522640Y1422640D01*
X260000Y1160000D01*
X460000Y1950000D02*
G01*
X460000Y1924220D01*
X693519Y1690700D01*
X3100000Y2000000D02*
G01*
X3135519Y1964479D01*
X3135519Y1285520D01*
X3080000Y1230000D01*
X3080000Y1325000D02*
G01*
X2910000Y1325000D01*
X2710000Y1525000D01*
X2050000Y1230000D02*
G01*
X2050000Y1452950D01*
X2310000Y1712950D01*
X1600000Y100000D02*
G01*
X1356009Y343989D01*
X1356009Y365000D01*
X1315000Y365000D02*
G01*
X1356009Y365000D01*
X3300000Y2000000D02*
G01*
X3300000Y1831649D01*
X3677730Y1453919D01*
X3712470Y1453919D01*
X3753919Y1412469D01*
X3753919Y1379420D01*
X3783339Y1350000D01*
X3822550Y1350000D01*
X3935000Y1237550D01*
X3935000Y1165000D01*
X1880000Y1435000D02*
G01*
X2361080Y1916080D01*
X1615000Y365000D02*
G01*
X1615000Y658069D01*
X1615000Y658069D02*
G01*
X1615000Y1170000D01*
X1880000Y1435000D01*
X3400000Y2000000D02*
G01*
X3650000Y1750000D01*
X3835000Y1750000D01*
X3935000Y1650000D01*
X3530000Y1360010D02*
G01*
X3615799Y1274209D01*
X3615799Y1015729D01*
X3681469Y950059D01*
X3717820Y950059D01*
X3746080Y921799D01*
X3746080Y887530D01*
X3783609Y850000D01*
X3822659Y850000D01*
X3846350Y826309D01*
X3846350Y475599D01*
X3820749Y450000D01*
X3750000Y450000D01*
X3700000Y500000D01*
X3700000Y400000D02*
G01*
X3644560Y455439D01*
X3644560Y555410D01*
X3182610Y1017359D01*
X3182610Y1378600D01*
X3215039Y1411030D01*
X3378980Y1411030D01*
X3430000Y1360010D01*
X3430000Y1260010D02*
G01*
X3430000Y1104830D01*
X3684830Y850000D01*
X3715439Y850000D01*
X3749939Y815500D01*
X3749939Y550059D01*
X3800000Y500000D01*
X3700000Y700000D02*
G01*
X3700000Y721230D01*
X3380000Y1041230D01*
X3380000Y1310010D01*
X3330000Y1360010D01*
X3700000Y600000D02*
G01*
X3691019Y600000D01*
X3330000Y961019D01*
X3330000Y1260010D01*
X1880000Y1035000D02*
G01*
X1880000Y545000D01*
X2060000Y365000D01*
X2540000Y1310000D02*
G01*
X2608230Y1378229D01*
X2798080Y1378229D01*
X2834520Y1341790D01*
X2834520Y1165500D01*
X2356899Y687880D01*
X2182879Y687880D01*
X2060000Y565000D01*
X2350000Y1230000D02*
G01*
X2350000Y1402750D01*
X2685649Y1738400D01*
X2685649Y1765050D01*
X2759759Y1839160D01*
X2805569Y1839160D01*
X2950000Y1983589D01*
X2950000Y2019499D01*
X3002380Y2071880D01*
X3401069Y2071880D01*
X3455559Y2017390D01*
X3455559Y1985529D01*
X3641090Y1800000D01*
X3700000Y1800000D01*
X2000000Y100000D02*
G01*
X2413620Y513620D01*
X2813350Y513620D01*
X160000Y660000D02*
G01*
X160000Y760000D01*
X160000Y760000D02*
G01*
X160000Y860000D01*
X160000Y860000D02*
G01*
X160000Y960000D01*
X160000Y960000D02*
G01*
X160000Y1060000D01*
X160000Y1060000D02*
G01*
X160000Y1160000D01*
X160000Y1160000D02*
G01*
X160000Y1825000D01*
X160000Y1825000D02*
G01*
X160000Y1925000D01*
X160000Y1925000D02*
G01*
X160000Y2025000D01*
X160000Y560000D02*
G01*
X160000Y660000D01*
X3925000Y685000D02*
G01*
X3881250Y641250D01*
X3881250Y443750D01*
X3930000Y395000D01*
X685000Y65000D02*
G01*
X685000Y69059D01*
X194059Y560000D01*
X160000Y560000D01*
X2060000Y665000D02*
G01*
X2065439Y665000D01*
X2435770Y1035329D01*
X2435770Y1109040D01*
X2476729Y1150000D01*
X2622449Y1150000D01*
X2780000Y1307550D01*
X2780000Y1325000D01*
X60000Y760000D02*
G01*
X60000Y860000D01*
X60000Y860000D02*
G01*
X60000Y960000D01*
X60000Y960000D02*
G01*
X60000Y1060000D01*
X60000Y1060000D02*
G01*
X60000Y1160000D01*
X60000Y1160000D02*
G01*
X60000Y1825000D01*
X60000Y1825000D02*
G01*
X60000Y1925000D01*
X60000Y1925000D02*
G01*
X60000Y2025000D01*
X2310000Y1457049D02*
G01*
X2310000Y1418330D01*
X1880000Y1235000D02*
G01*
X1928010Y1235000D01*
X60000Y517989D02*
G01*
X260000Y317989D01*
X260000Y65000D01*
X60000Y560000D02*
G01*
X60000Y517989D01*
X2310000Y1418330D02*
G01*
X2068909Y1177240D01*
X2009979Y1177240D01*
X2009979Y1177240D02*
G01*
X1985770Y1177240D01*
X1928010Y1235000D01*
X2009979Y1177240D02*
G01*
X2009979Y538020D01*
X2036989Y511010D01*
X2060000Y511010D01*
X2060000Y465000D02*
G01*
X2060000Y511010D01*
X920000Y376990D02*
G01*
X943999Y376990D01*
X985000Y335990D01*
X985000Y65000D01*
X920000Y425000D02*
G01*
X920000Y376990D01*
X3930000Y295000D02*
G01*
X3968400Y333400D01*
X3968400Y741599D01*
X3925000Y785000D01*
X3925000Y785000D02*
G01*
X3925000Y840630D01*
X3815529Y950100D01*
X3783509Y950100D01*
X3746080Y987530D01*
X3746080Y1020579D01*
X3716660Y1050000D01*
X3677439Y1050000D01*
X3640850Y1086590D01*
X3640850Y1315880D01*
X3521970Y1434760D01*
X3299120Y1434760D01*
X60000Y760000D02*
G01*
X60000Y660000D01*
X60000Y660000D02*
G01*
X60000Y560000D01*
X2100000Y2000000D02*
G01*
X2152060Y1947939D01*
X2213109Y1947939D01*
X2250000Y1984830D01*
X2250000Y2019319D01*
X2280770Y2050090D01*
X2322290Y2050090D01*
X2350000Y2022379D01*
X2350000Y1945369D01*
X1938980Y1534349D01*
X1938980Y1525540D01*
X1898440Y1485000D01*
X1791779Y1485000D01*
X1449629Y1142849D01*
X1449629Y973919D01*
X1252629Y776920D01*
X899799Y2048769D02*
G01*
X871030Y2077539D01*
X569360Y2077539D01*
X493899Y2002080D01*
X342449Y2002080D01*
X277449Y2067080D01*
X20830Y2067080D01*
X17919Y2064169D01*
X17919Y207080D01*
X160000Y65000D01*
D11*
G01*
X3925000Y785000D03*
G01*
X3925000Y685000D03*
D12*
G01*
X3925000Y585000D03*
D13*
G01*
X3930000Y295000D03*
G01*
X3930000Y395000D03*
D12*
G01*
X260000Y65000D03*
D11*
G01*
X160000Y65000D03*
G01*
X60000Y65000D03*
G01*
X1150000Y2000000D03*
G01*
X1050000Y2000000D03*
G01*
X950000Y2000000D03*
G01*
X850000Y2000000D03*
D12*
G01*
X750000Y2000000D03*
G01*
X2400000Y2000000D03*
D11*
G01*
X2500000Y2000000D03*
D12*
G01*
X2700000Y2000000D03*
D11*
G01*
X2800000Y2000000D03*
G01*
X2900000Y2000000D03*
G01*
X3000000Y2000000D03*
D12*
G01*
X3600000Y100000D03*
D11*
G01*
X3500000Y100000D03*
G01*
X3400000Y100000D03*
G01*
X3300000Y100000D03*
G01*
X3200000Y100000D03*
G01*
X3100000Y100000D03*
G01*
X3000000Y100000D03*
G01*
X2900000Y100000D03*
G01*
X2200000Y100000D03*
G01*
X2300000Y100000D03*
G01*
X2400000Y100000D03*
G01*
X2500000Y100000D03*
G01*
X2600000Y100000D03*
G01*
X2700000Y100000D03*
D14*
G01*
X2060000Y1065000D03*
G01*
X2060000Y965000D03*
G01*
X2060000Y865000D03*
G01*
X2060000Y765000D03*
G01*
X2060000Y665000D03*
G01*
X2060000Y565000D03*
D15*
G01*
X2060000Y465000D03*
D14*
G01*
X2060000Y365000D03*
G01*
X2060000Y265000D03*
D11*
G01*
X685000Y65000D03*
G01*
X785000Y65000D03*
G01*
X885000Y65000D03*
G01*
X985000Y65000D03*
D16*
G01*
X1105000Y1025000D03*
G01*
X1205000Y1025000D03*
D17*
G01*
X3230100Y1260000D03*
D18*
G01*
X3230000Y1360010D03*
G01*
X3330000Y1260010D03*
G01*
X3330000Y1360010D03*
G01*
X3430000Y1260010D03*
G01*
X3430000Y1360010D03*
G01*
X3530000Y1260010D03*
G01*
X3530000Y1360010D03*
D14*
G01*
X3935000Y1650000D03*
G01*
X3935000Y2050000D03*
G01*
X3935000Y1165000D03*
G01*
X3935000Y1565000D03*
G01*
X920000Y225000D03*
G01*
X420000Y425000D03*
G01*
X420000Y525000D03*
G01*
X420000Y625000D03*
G01*
X420000Y825000D03*
G01*
X420000Y725000D03*
G01*
X920000Y825000D03*
G01*
X920000Y725000D03*
G01*
X920000Y1025000D03*
G01*
X920000Y925000D03*
G01*
X920000Y525000D03*
G01*
X920000Y625000D03*
G01*
X920000Y325000D03*
D19*
G01*
X920000Y425000D03*
D14*
G01*
X1880000Y1035000D03*
G01*
X1380000Y1235000D03*
G01*
X1380000Y1335000D03*
G01*
X1380000Y1435000D03*
G01*
X1380000Y1635000D03*
G01*
X1380000Y1535000D03*
G01*
X1880000Y1635000D03*
G01*
X1880000Y1535000D03*
G01*
X1880000Y1835000D03*
G01*
X1880000Y1735000D03*
G01*
X1880000Y1335000D03*
G01*
X1880000Y1435000D03*
G01*
X1880000Y1135000D03*
D19*
G01*
X1880000Y1235000D03*
D14*
G01*
X1115000Y365000D03*
G01*
X1215000Y365000D03*
D20*
G01*
X1315000Y365000D03*
D14*
G01*
X1415000Y365000D03*
G01*
X1515000Y365000D03*
G01*
X1615000Y365000D03*
G01*
X1715000Y365000D03*
G01*
X1815000Y365000D03*
D21*
G01*
X490000Y1240000D03*
G01*
X590000Y1240000D03*
D20*
G01*
X690000Y1240000D03*
D21*
G01*
X790000Y1240000D03*
G01*
X890000Y1240000D03*
G01*
X990000Y1240000D03*
G01*
X1090000Y1240000D03*
G01*
X1190000Y1240000D03*
D22*
G01*
X2310000Y1457049D03*
D23*
G01*
X2310000Y1712950D03*
D11*
G01*
X3800000Y800000D03*
G01*
X3700000Y800000D03*
G01*
X3800000Y900000D03*
G01*
X3700000Y900000D03*
G01*
X3800000Y1000000D03*
G01*
X3700000Y1000000D03*
G01*
X3800000Y1100000D03*
G01*
X3700000Y1100000D03*
G01*
X3800000Y1200000D03*
G01*
X3700000Y1200000D03*
G01*
X3800000Y1300000D03*
G01*
X3700000Y1300000D03*
G01*
X3800000Y1400000D03*
G01*
X3700000Y1400000D03*
G01*
X3800000Y1500000D03*
G01*
X3700000Y1500000D03*
G01*
X3800000Y1600000D03*
G01*
X3700000Y1600000D03*
G01*
X3800000Y1700000D03*
D12*
G01*
X3700000Y1700000D03*
G01*
X3800000Y300000D03*
G01*
X3700000Y300000D03*
D24*
G01*
X2710000Y1525000D03*
G01*
X2610000Y1525000D03*
D14*
G01*
X3080000Y1325000D03*
G01*
X2780000Y1325000D03*
D24*
G01*
X2640000Y1310000D03*
G01*
X2540000Y1310000D03*
D14*
G01*
X3080000Y1230000D03*
G01*
X2780000Y1230000D03*
D25*
G01*
X3435950Y262399D03*
G01*
X3554059Y262399D03*
G01*
X3495000Y187600D03*
D14*
G01*
X3065000Y1420000D03*
G01*
X3065000Y1720000D03*
G01*
X2960000Y1420000D03*
G01*
X2960000Y1720000D03*
G01*
X2050000Y1230000D03*
G01*
X2350000Y1230000D03*
D11*
G01*
X260000Y2025000D03*
G01*
X160000Y2025000D03*
D12*
G01*
X60000Y2025000D03*
D11*
G01*
X260000Y1925000D03*
G01*
X160000Y1925000D03*
D12*
G01*
X60000Y1925000D03*
D11*
G01*
X260000Y1825000D03*
G01*
X160000Y1825000D03*
D12*
G01*
X60000Y1825000D03*
D11*
G01*
X260000Y1160000D03*
G01*
X160000Y1160000D03*
D12*
G01*
X60000Y1160000D03*
D11*
G01*
X260000Y1060000D03*
G01*
X160000Y1060000D03*
D12*
G01*
X60000Y1060000D03*
D11*
G01*
X260000Y960000D03*
G01*
X160000Y960000D03*
D12*
G01*
X60000Y960000D03*
D11*
G01*
X260000Y860000D03*
G01*
X160000Y860000D03*
D12*
G01*
X60000Y860000D03*
D11*
G01*
X260000Y760000D03*
G01*
X160000Y760000D03*
D12*
G01*
X60000Y760000D03*
D11*
G01*
X260000Y660000D03*
G01*
X160000Y660000D03*
D12*
G01*
X60000Y660000D03*
D11*
G01*
X260000Y560000D03*
G01*
X160000Y560000D03*
D12*
G01*
X60000Y560000D03*
D26*
G01*
X2803689Y1755000D03*
G01*
X2724989Y1755000D03*
G01*
X2646310Y1755000D03*
D27*
G01*
X2563609Y1755000D03*
G01*
X2886400Y1755000D03*
D24*
G01*
X360000Y1950000D03*
G01*
X360000Y2050000D03*
G01*
X460000Y1950000D03*
G01*
X460000Y2050000D03*
D11*
G01*
X1300000Y100000D03*
G01*
X1200000Y100000D03*
G01*
X1100000Y100000D03*
D21*
G01*
X3800000Y2000000D03*
G01*
X3800000Y1900000D03*
G01*
X3800000Y1800000D03*
G01*
X3800000Y1700000D03*
G01*
X3800000Y1600000D03*
G01*
X3800000Y1500000D03*
G01*
X3800000Y1400000D03*
G01*
X3800000Y1300000D03*
G01*
X3800000Y1200000D03*
G01*
X3800000Y1100000D03*
G01*
X3800000Y1000000D03*
G01*
X3800000Y900000D03*
G01*
X3800000Y800000D03*
G01*
X3800000Y700000D03*
G01*
X3800000Y600000D03*
G01*
X3800000Y500000D03*
G01*
X3800000Y400000D03*
G01*
X3800000Y300000D03*
G01*
X3700000Y300000D03*
G01*
X3700000Y400000D03*
G01*
X3700000Y500000D03*
G01*
X3700000Y600000D03*
G01*
X3700000Y700000D03*
G01*
X3700000Y800000D03*
G01*
X3700000Y900000D03*
G01*
X3700000Y1000000D03*
G01*
X3700000Y1100000D03*
G01*
X3700000Y1200000D03*
G01*
X3700000Y1300000D03*
G01*
X3700000Y1400000D03*
G01*
X3700000Y1500000D03*
G01*
X3700000Y1600000D03*
G01*
X3700000Y1700000D03*
G01*
X3700000Y1800000D03*
G01*
X3700000Y1900000D03*
G01*
X3700000Y2000000D03*
G01*
X3500000Y100000D03*
G01*
X3600000Y100000D03*
G01*
X2500000Y1000000D03*
G01*
X2500000Y1100000D03*
G01*
X2500000Y1200000D03*
G01*
X2600000Y1000000D03*
G01*
X2600000Y1100000D03*
G01*
X2600000Y1200000D03*
G01*
X1100000Y100000D03*
G01*
X1200000Y100000D03*
G01*
X1300000Y100000D03*
G01*
X1400000Y100000D03*
G01*
X1500000Y100000D03*
G01*
X1600000Y100000D03*
G01*
X1700000Y100000D03*
G01*
X1800000Y100000D03*
G01*
X2000000Y100000D03*
G01*
X2100000Y100000D03*
G01*
X2200000Y100000D03*
G01*
X2300000Y100000D03*
G01*
X2400000Y100000D03*
G01*
X2500000Y100000D03*
G01*
X2600000Y100000D03*
G01*
X2700000Y100000D03*
G01*
X2900000Y100000D03*
G01*
X3000000Y100000D03*
G01*
X3100000Y100000D03*
G01*
X3200000Y100000D03*
G01*
X3300000Y100000D03*
G01*
X3400000Y100000D03*
G01*
X3400000Y2000000D03*
G01*
X3300000Y2000000D03*
G01*
X3200000Y2000000D03*
G01*
X3100000Y2000000D03*
G01*
X3000000Y2000000D03*
G01*
X2900000Y2000000D03*
G01*
X2800000Y2000000D03*
G01*
X2700000Y2000000D03*
G01*
X2500000Y2000000D03*
G01*
X2400000Y2000000D03*
G01*
X2300000Y2000000D03*
G01*
X2200000Y2000000D03*
G01*
X2100000Y2000000D03*
G01*
X2000000Y2000000D03*
G01*
X1900000Y2000000D03*
G01*
X1800000Y2000000D03*
G01*
X1650000Y2000000D03*
G01*
X1550000Y2000000D03*
G01*
X1450000Y2000000D03*
G01*
X1350000Y2000000D03*
G01*
X1250000Y2000000D03*
G01*
X1150000Y2000000D03*
G01*
X1050000Y2000000D03*
G01*
X950000Y2000000D03*
G01*
X850000Y2000000D03*
G01*
X750000Y2000000D03*
G01*
X850000Y1800000D03*
G01*
X750000Y1800000D03*
G01*
X650000Y1800000D03*
G01*
X850000Y1900000D03*
G01*
X750000Y1900000D03*
G01*
X650000Y1900000D03*
D28*
G01*
X899799Y2048769D03*
G01*
X1252629Y776920D03*
G01*
X3299120Y1434760D03*
G01*
X2813350Y513620D03*
G01*
X1615000Y658069D03*
G01*
X2361080Y1916080D03*
G01*
X693519Y1690700D03*
G01*
X1524709Y1184369D03*
G01*
X3159880Y1578820D03*
G01*
X2345500Y664810D03*
G01*
X2122870Y755059D03*
G01*
X2801850Y1682869D03*
G01*
X3136660Y950210D03*
M02*
