G04 Layer: TopLayer*
<<<<<<< HEAD
G04 EasyEDA v6.5.23, 2023-06-13 19:23:07*
G04 6a93f7e6695a43e3aa9362025bb92aa7,5f8968b253fc4aed9fc2cb8881c97923,10*
=======
G04 EasyEDA v6.5.23, 2023-06-13 15:15:08*
G04 1e32025c192248609e1912bf01cfb9d3,5f8968b253fc4aed9fc2cb8881c97923,10*
>>>>>>> main
G04 Gerber Generator version 0.2*
G04 Scale: 100 percent, Rotated: No, Reflected: No *
G04 Dimensions in inches *
G04 leading zeros omitted , absolute positions ,3 integer and 6 decimal *
%FSLAX36Y36*%
%MOIN*%

%ADD10C,0.0100*%
<<<<<<< HEAD
%ADD11C,0.0700*%
%ADD12C,0.0740*%
%ADD13C,0.0620*%
%ADD14R,0.0620X0.0620*%
%ADD15C,0.0470*%
%ADD16C,0.0787*%
%ADD17C,0.0650*%
%ADD18C,0.0551*%
%ADD19R,0.0709X0.0709*%
%ADD20C,0.0709*%
%ADD21O,0.047240000000000004X0.039369999999999995*%
%ADD22O,0.039369999999999995X0.070866*%
%ADD23C,0.1181*%
%ADD24R,0.0740X0.0740*%
%ADD25R,0.0600X0.0600*%
%ADD26R,0.0554X0.0554*%
%ADD27C,0.0554*%
%ADD28C,0.0240*%
%ADD29C,0.0114*%

%LPD*%
D10*
X3065000Y1420000D02*
G01*
X3012200Y1367199D01*
X2917799Y1367199D01*
X2910050Y1374949D01*
X2489949Y1374949D01*
X2434809Y1319810D01*
X2026080Y1319810D01*
X1955670Y1390219D01*
X1955670Y1437620D01*
X1908289Y1485000D01*
X615569Y1485000D01*
X599520Y1501050D01*
X3800000Y700000D02*
G01*
X3747939Y752060D01*
X2459949Y752060D01*
X2095450Y1116559D01*
X2038370Y1116559D01*
X1894620Y972809D01*
X1257190Y972809D01*
X1205000Y1025000D01*
=======
%ADD11R,0.0906X0.1575*%
%ADD12R,0.0906X0.1732*%
%ADD13C,0.0620*%
%ADD14R,0.0620X0.0620*%
%ADD15C,0.0470*%
%ADD16C,0.0740*%
%ADD17R,0.0700X0.0700*%
%ADD18C,0.0551*%
%ADD19R,0.0709X0.0709*%
%ADD20C,0.0709*%
%ADD21R,0.0740X0.0740*%
%ADD22R,0.0600X0.0600*%
%ADD23C,0.0700*%
%ADD24R,0.0554X0.0554*%
%ADD25C,0.0554*%
%ADD26C,0.0650*%
%ADD27C,0.0630*%
%ADD28O,0.047240000000000004X0.039369999999999995*%
%ADD29O,0.039369999999999995X0.070866*%
%ADD30C,0.0240*%
%ADD31C,0.0161*%

%LPD*%
D10*
X3490000Y1039960D02*
G01*
X3490000Y950210D01*
X3490000Y950210D02*
G01*
X3136660Y950210D01*
X2801850Y1682869D02*
G01*
X2718440Y1682869D01*
X2646310Y1755000D01*
X60000Y65000D02*
G01*
X318209Y323209D01*
X715129Y323209D01*
X865000Y473079D01*
X960079Y473079D01*
X1101999Y615000D01*
X2079960Y615000D01*
X2122870Y657910D01*
X2122870Y755059D01*
X1550000Y2000000D02*
G01*
X1298469Y1748470D01*
X336529Y1748470D01*
X260000Y1825000D01*
X1450000Y2000000D02*
G01*
X1301009Y1851010D01*
X333989Y1851010D01*
X260000Y1925000D01*
X1350000Y2000000D02*
G01*
X1272079Y2077919D01*
X569740Y2077919D01*
X498069Y2006250D01*
X278750Y2006250D01*
X260000Y2025000D01*
X3700000Y1900000D02*
G01*
X3140000Y1900000D01*
X2960000Y1720000D01*
>>>>>>> main
X3800000Y1900000D02*
G01*
X3750000Y1850000D01*
X3195000Y1850000D01*
X3065000Y1720000D01*
<<<<<<< HEAD
X3700000Y1900000D02*
G01*
X3140000Y1900000D01*
X2960000Y1720000D01*
X260000Y2025000D02*
G01*
X278750Y2006250D01*
X483989Y2006250D01*
X554569Y2076830D01*
X1273170Y2076830D01*
X1350000Y2000000D01*
X1450000Y2000000D02*
G01*
X1301009Y1851010D01*
X333989Y1851010D01*
X260000Y1925000D01*
X1550000Y2000000D02*
G01*
X1300399Y1750399D01*
X334600Y1750399D01*
X260000Y1825000D01*
X3200000Y2000000D02*
G01*
X3041660Y1841660D01*
X2906580Y1841660D01*
X2847629Y1782710D01*
X2847629Y1746170D01*
X2626440Y1524980D01*
X2610000Y1524980D01*
X60000Y2025000D02*
G01*
X102010Y2025000D01*
=======
X1800000Y100000D02*
G01*
X1849639Y50360D01*
X2018159Y50360D01*
X2050000Y82199D01*
X2050000Y115999D01*
X2080079Y146080D01*
X3390770Y146080D01*
X3507089Y262399D01*
X3554059Y262399D01*
X1205000Y1025000D02*
G01*
X1415010Y814989D01*
X2095569Y814989D01*
X2268819Y641739D01*
X2355060Y641739D01*
X2366229Y652910D01*
X3752910Y652910D01*
X3800000Y700000D01*
X2345500Y664810D02*
G01*
X2430690Y750000D01*
X3815590Y750000D01*
X3847330Y718260D01*
X3847330Y647330D01*
X3800000Y600000D01*
X3159880Y1578820D02*
G01*
X2940119Y1578820D01*
X2813000Y1705940D01*
X2774049Y1705940D01*
X2724989Y1755000D01*
X1524709Y1184369D02*
G01*
X845630Y1184369D01*
X790000Y1240000D01*
X1880000Y1335000D02*
G01*
X1831250Y1286250D01*
X1831250Y1184369D01*
X1524709Y1184369D02*
G01*
X1831250Y1184369D01*
X1831250Y1184369D02*
G01*
X1898630Y1184369D01*
X1933000Y1150000D01*
X3076360Y1150000D01*
X3183599Y1257240D01*
X3183599Y1300019D01*
X3193580Y1310000D01*
X3248469Y1310000D01*
X3280000Y1341529D01*
X3280000Y1382150D01*
X3447849Y1550000D01*
X3920000Y1550000D01*
X3935000Y1565000D01*
X2960000Y1420000D02*
G01*
X2795000Y1585000D01*
X799219Y1585000D01*
X693519Y1690700D01*
X360000Y1950000D02*
G01*
X342919Y1967080D01*
X234920Y1967080D01*
X216230Y1948389D01*
X216230Y1804160D01*
X291630Y1728760D01*
X1433950Y1728760D01*
X1477709Y1685000D01*
X2262070Y1685000D01*
X2287269Y1659800D01*
X2825200Y1659800D01*
X3065000Y1420000D01*
X2780000Y1230000D02*
G01*
X2720000Y1230000D01*
X2640000Y1310000D01*
X990000Y1240000D02*
G01*
X1135000Y1385000D01*
X1830000Y1385000D01*
X1880000Y1435000D01*
X3935000Y2050000D02*
G01*
X3835000Y1950000D01*
X3636430Y1950000D01*
X3602510Y1916080D01*
X2361080Y1916080D01*
X920000Y625000D02*
G01*
X953069Y658069D01*
X1615000Y658069D01*
X490000Y1240000D02*
G01*
X540239Y1290239D01*
X722339Y1290239D01*
X731829Y1280749D01*
X731829Y1228800D01*
X822770Y1137860D01*
X1777139Y1137860D01*
X1880000Y1035000D01*
X920000Y225000D02*
G01*
X1920000Y225000D01*
X2060000Y365000D01*
X3925000Y585000D02*
G01*
X3882990Y585000D01*
X2813350Y513620D02*
G01*
X3498149Y513620D01*
X3534530Y550000D01*
X3847990Y550000D01*
X3882990Y585000D01*
X1500000Y100000D02*
G01*
X1500000Y30500D01*
X685000Y65000D02*
G01*
X731300Y18699D01*
X1488199Y18699D01*
X1500000Y30500D01*
X1500000Y30500D02*
G01*
X3611049Y30500D01*
X3790550Y210000D01*
X3895990Y210000D01*
X3967460Y281469D01*
X3967460Y357539D01*
X3930000Y395000D01*
X3276549Y1260000D02*
G01*
X3276549Y1236779D01*
X3324849Y1188479D01*
X3483419Y1188479D01*
X3631599Y1040300D01*
X3631599Y895290D01*
X3676890Y850000D01*
X3815270Y850000D01*
X3867079Y798189D01*
X3867079Y742919D01*
X3925000Y685000D01*
X3230100Y1260000D02*
G01*
X3276549Y1260000D01*
>>>>>>> main
X460000Y2050000D02*
G01*
X360000Y2050000D01*
X360000Y2050000D02*
G01*
X341779Y2068220D01*
X134729Y2068220D01*
X102010Y2035500D01*
X102010Y2025000D01*
<<<<<<< HEAD
X871989Y425000D02*
G01*
X821989Y475000D01*
X176509Y475000D01*
X102010Y549499D01*
X102010Y560000D01*
X920000Y425000D02*
G01*
X871989Y425000D01*
X60000Y560000D02*
G01*
X102010Y560000D01*
X3230000Y1360050D02*
G01*
X3120889Y1469160D01*
X2436620Y1469160D01*
X2333729Y1572049D01*
X2295000Y1572049D02*
G01*
X2333729Y1572049D01*
X102010Y1160000D02*
G01*
X102010Y1170500D01*
X217880Y1286370D01*
X612869Y1286370D01*
X648989Y1250250D01*
X648989Y1240000D01*
X60000Y1160000D02*
G01*
X102010Y1160000D01*
X690000Y1240000D02*
G01*
X648989Y1240000D01*
X1831989Y1235000D02*
G01*
X1761109Y1164119D01*
X796639Y1164119D01*
X731010Y1229749D01*
X731010Y1240000D01*
X1880000Y1235000D02*
G01*
X1831989Y1235000D01*
X690000Y1240000D02*
G01*
X731010Y1240000D01*
X1500000Y100000D02*
G01*
X1418699Y18699D01*
X762809Y18699D01*
X727010Y54499D01*
X727010Y65000D01*
X685000Y65000D02*
G01*
X727010Y65000D01*
X3276549Y1260050D02*
G01*
X3276549Y1236830D01*
X3463379Y1050000D01*
X3830000Y1050000D01*
X3935000Y945000D01*
X3230100Y1260050D02*
G01*
X3276549Y1260050D01*
X3935000Y160000D02*
G01*
X3921130Y173870D01*
X3508670Y173870D01*
X3450000Y115199D01*
X3450000Y84549D01*
X3413000Y47550D01*
X1552449Y47550D01*
X1500000Y100000D01*
X160000Y560000D02*
G01*
X208690Y511309D01*
X310869Y511309D01*
X2000000Y100000D02*
G01*
X2270299Y370300D01*
X3564899Y370300D01*
X3648519Y453919D01*
X3720580Y453919D01*
X3750010Y483350D01*
X3750010Y521179D01*
X3778829Y550000D01*
X3820860Y550000D01*
X3935000Y664140D01*
X3935000Y845000D01*
X3700000Y1800000D02*
G01*
X3433329Y1533330D01*
X2805959Y1533330D01*
X920000Y225000D02*
G01*
X1920000Y225000D01*
X2060000Y365000D01*
X1880000Y1035000D02*
G01*
X1767799Y1147199D01*
X594499Y1147199D01*
X501700Y1240000D01*
X490000Y1240000D01*
X3430000Y1360050D02*
G01*
X3357060Y1432989D01*
X3233819Y1432989D01*
X3454819Y691520D02*
G01*
X3487979Y724679D01*
X990000Y1240000D02*
G01*
X1133080Y1383080D01*
X1828080Y1383080D01*
X1880000Y1435000D01*
X1615000Y365000D02*
G01*
X1355000Y625000D01*
X920000Y625000D01*
X2710000Y1524980D02*
G01*
X2737910Y1497069D01*
X2896940Y1497069D01*
X2960000Y1420000D02*
G01*
X2138019Y1420000D01*
X1973029Y1584989D01*
X433930Y1584989D01*
X215700Y1803220D01*
X215700Y1941909D01*
X244209Y1970419D01*
X277939Y1970419D01*
X342930Y1905430D01*
X415430Y1905430D01*
X460000Y1950000D01*
X260000Y1060000D02*
G01*
X470390Y1060000D01*
X559729Y1149340D01*
X1800000Y2000000D02*
G01*
X1519070Y1719070D01*
X1088639Y1719070D01*
X1880000Y1335000D02*
G01*
X1729369Y1184369D01*
X1322600Y1184369D01*
X1317780Y1189189D01*
X790000Y1240000D02*
G01*
X840810Y1189189D01*
X1317780Y1189189D01*
X3935000Y1565000D02*
G01*
X3816080Y1446080D01*
X3779420Y1446080D01*
X3746080Y1412739D01*
X3746080Y1374940D01*
X3725060Y1353919D01*
X3645050Y1353919D01*
X3597690Y1306559D01*
X3186499Y1306559D01*
X3152049Y1272109D01*
X3152049Y1227020D01*
X3105020Y1179989D01*
X2687650Y1179989D01*
X2621559Y1246080D01*
X2528419Y1246080D01*
X2491419Y1283080D01*
X1931920Y1283080D01*
X1880000Y1335000D01*
X3800000Y600000D02*
G01*
X3750000Y550000D01*
X2416340Y550000D01*
X2020069Y153730D01*
X873729Y153730D01*
X785000Y65000D01*
D11*
G01*
X3800000Y2000000D03*
G01*
X3800000Y1900000D03*
G01*
X3800000Y1800000D03*
G01*
X3800000Y1700000D03*
G01*
X3800000Y1600000D03*
G01*
X3800000Y1500000D03*
G01*
X3800000Y1400000D03*
G01*
X3800000Y1300000D03*
G01*
X3800000Y1200000D03*
G01*
X3800000Y1100000D03*
G01*
X3800000Y1000000D03*
G01*
X3800000Y900000D03*
G01*
X3800000Y800000D03*
G01*
X3800000Y700000D03*
G01*
X3800000Y600000D03*
G01*
X3800000Y500000D03*
G01*
X3800000Y400000D03*
G01*
X3800000Y300000D03*
G01*
X3700000Y300000D03*
G01*
X3700000Y400000D03*
G01*
X3700000Y500000D03*
G01*
X3700000Y600000D03*
G01*
X3700000Y700000D03*
G01*
X3700000Y800000D03*
G01*
X3700000Y900000D03*
G01*
X3700000Y1000000D03*
G01*
X3700000Y1100000D03*
G01*
X3700000Y1200000D03*
G01*
X3700000Y1300000D03*
G01*
X3700000Y1400000D03*
G01*
X3700000Y1500000D03*
G01*
X3700000Y1600000D03*
G01*
X3700000Y1700000D03*
G01*
X3700000Y1800000D03*
G01*
X3700000Y1900000D03*
G01*
X3700000Y2000000D03*
G01*
X3500000Y100000D03*
G01*
X3600000Y100000D03*
G01*
X2500000Y1000000D03*
G01*
X2500000Y1100000D03*
G01*
X2500000Y1200000D03*
G01*
X2600000Y1000000D03*
G01*
X2600000Y1100000D03*
G01*
X2600000Y1200000D03*
G01*
X1100000Y100000D03*
G01*
X1200000Y100000D03*
G01*
X1300000Y100000D03*
G01*
X1400000Y100000D03*
G01*
X1500000Y100000D03*
G01*
X1600000Y100000D03*
G01*
X1700000Y100000D03*
G01*
X1800000Y100000D03*
G01*
X2000000Y100000D03*
G01*
X2100000Y100000D03*
G01*
X2200000Y100000D03*
G01*
X2300000Y100000D03*
G01*
X2400000Y100000D03*
G01*
X2500000Y100000D03*
G01*
X2600000Y100000D03*
G01*
X2700000Y100000D03*
G01*
X2900000Y100000D03*
G01*
X3000000Y100000D03*
G01*
X3100000Y100000D03*
G01*
X3200000Y100000D03*
G01*
X3300000Y100000D03*
G01*
X3400000Y100000D03*
G01*
X3400000Y2000000D03*
G01*
X3300000Y2000000D03*
G01*
X3200000Y2000000D03*
G01*
X3100000Y2000000D03*
G01*
X3000000Y2000000D03*
G01*
X2900000Y2000000D03*
G01*
X2800000Y2000000D03*
G01*
X2700000Y2000000D03*
G01*
X2500000Y2000000D03*
G01*
X2400000Y2000000D03*
G01*
X2300000Y2000000D03*
G01*
X2200000Y2000000D03*
G01*
X2100000Y2000000D03*
G01*
X2000000Y2000000D03*
G01*
X1900000Y2000000D03*
G01*
X1800000Y2000000D03*
G01*
X1650000Y2000000D03*
G01*
X1550000Y2000000D03*
G01*
X1450000Y2000000D03*
G01*
X1350000Y2000000D03*
G01*
X1250000Y2000000D03*
G01*
X1150000Y2000000D03*
G01*
X1050000Y2000000D03*
G01*
X950000Y2000000D03*
G01*
X850000Y2000000D03*
G01*
X750000Y2000000D03*
G01*
X850000Y1800000D03*
G01*
X750000Y1800000D03*
G01*
X650000Y1800000D03*
G01*
X850000Y1900000D03*
G01*
X750000Y1900000D03*
G01*
X650000Y1900000D03*
D12*
G01*
X2050000Y1230000D03*
G01*
X2350000Y1230000D03*
D13*
G01*
X3935000Y1045000D03*
G01*
X3935000Y945000D03*
D14*
G01*
X3935000Y845000D03*
D15*
G01*
X3935000Y60000D03*
G01*
X3935000Y160000D03*
D13*
G01*
X260000Y65000D03*
G01*
X160000Y65000D03*
D14*
G01*
X60000Y65000D03*
G01*
X3800000Y300000D03*
D13*
G01*
X3700000Y300000D03*
D16*
G01*
X2060000Y1065000D03*
G01*
X2060000Y965000D03*
G01*
X2060000Y865000D03*
G01*
X2060000Y765000D03*
G01*
X2060000Y665000D03*
G01*
X2060000Y565000D03*
G01*
X2060000Y465000D03*
G01*
X2060000Y365000D03*
G01*
X2060000Y265000D03*
D17*
G01*
X2710000Y1524980D03*
G01*
X2610000Y1524980D03*
D12*
G01*
X3080000Y1325000D03*
G01*
X2780000Y1325000D03*
D17*
G01*
X2640000Y1309980D03*
G01*
X2540000Y1309980D03*
D12*
G01*
X3080000Y1230000D03*
G01*
X2780000Y1230000D03*
D14*
G01*
X685000Y65000D03*
D13*
G01*
X785000Y65000D03*
G01*
X885000Y65000D03*
G01*
X985000Y65000D03*
D18*
G01*
X1105000Y1025000D03*
G01*
X1205000Y1025000D03*
D19*
G01*
X3230100Y1260050D03*
D20*
G01*
X3230000Y1360050D03*
G01*
X3330000Y1260050D03*
G01*
X3330000Y1360050D03*
G01*
X3430000Y1260050D03*
G01*
X3430000Y1360050D03*
G01*
X3530000Y1260050D03*
G01*
X3530000Y1360050D03*
D12*
G01*
X3065000Y1420000D03*
G01*
X3065000Y1720000D03*
G01*
X3935000Y1650000D03*
G01*
X3935000Y2050000D03*
G01*
X2960000Y1420000D03*
G01*
X2960000Y1720000D03*
G01*
X3935000Y1165000D03*
G01*
X3935000Y1565000D03*
D21*
G01*
X2278685Y1370000D03*
G01*
X2199985Y1370000D03*
G01*
X2121306Y1370000D03*
D22*
G01*
X2038605Y1370000D03*
G01*
X2361396Y1370000D03*
D23*
G01*
X3535000Y448200D03*
G01*
X3535000Y645000D03*
D13*
G01*
X1150000Y2000000D03*
G01*
X1050000Y2000000D03*
G01*
X950000Y2000000D03*
G01*
X850000Y2000000D03*
D14*
G01*
X750000Y2000000D03*
G01*
X2400000Y2000000D03*
D13*
G01*
X2500000Y2000000D03*
D14*
G01*
X2700000Y2000000D03*
D13*
G01*
X2800000Y2000000D03*
G01*
X2900000Y2000000D03*
G01*
X3000000Y2000000D03*
D14*
G01*
X3600000Y100000D03*
D13*
G01*
X3500000Y100000D03*
G01*
X3400000Y100000D03*
G01*
X3300000Y100000D03*
G01*
X3200000Y100000D03*
G01*
X3100000Y100000D03*
G01*
X3000000Y100000D03*
G01*
X2900000Y100000D03*
G01*
X2200000Y100000D03*
G01*
X2300000Y100000D03*
G01*
X2400000Y100000D03*
G01*
X2500000Y100000D03*
G01*
X2600000Y100000D03*
G01*
X2700000Y100000D03*
D12*
G01*
X920000Y225000D03*
G01*
X420000Y425000D03*
G01*
X420000Y525000D03*
G01*
X420000Y625000D03*
G01*
X420000Y825000D03*
G01*
X420000Y725000D03*
G01*
X920000Y825000D03*
G01*
X920000Y725000D03*
G01*
X920000Y1025000D03*
G01*
X920000Y925000D03*
G01*
X920000Y525000D03*
G01*
X920000Y625000D03*
G01*
X920000Y325000D03*
D24*
G01*
X920000Y425000D03*
D12*
G01*
X1880000Y1035000D03*
G01*
X1380000Y1235000D03*
G01*
X1380000Y1335000D03*
G01*
X1380000Y1435000D03*
G01*
X1380000Y1635000D03*
G01*
X1380000Y1535000D03*
G01*
X1880000Y1635000D03*
G01*
X1880000Y1535000D03*
G01*
X1880000Y1835000D03*
G01*
X1880000Y1735000D03*
G01*
X1880000Y1335000D03*
G01*
X1880000Y1435000D03*
G01*
X1880000Y1135000D03*
D24*
G01*
X1880000Y1235000D03*
D12*
G01*
X1115000Y365000D03*
G01*
X1215000Y365000D03*
D25*
G01*
X1315000Y365000D03*
D12*
G01*
X1415000Y365000D03*
G01*
X1515000Y365000D03*
G01*
X1615000Y365000D03*
G01*
X1715000Y365000D03*
G01*
X1815000Y365000D03*
D11*
G01*
X490000Y1240000D03*
G01*
X590000Y1240000D03*
D25*
G01*
X690000Y1240000D03*
D11*
G01*
X790000Y1240000D03*
G01*
X890000Y1240000D03*
G01*
X990000Y1240000D03*
G01*
X1090000Y1240000D03*
G01*
X1190000Y1240000D03*
D26*
G01*
X2295000Y1572049D03*
D27*
G01*
X2295000Y1827950D03*
D13*
G01*
X3800000Y800000D03*
G01*
X3700000Y800000D03*
G01*
X3800000Y900000D03*
G01*
X3700000Y900000D03*
G01*
X3800000Y1000000D03*
G01*
X3700000Y1000000D03*
G01*
X3800000Y1100000D03*
G01*
X3700000Y1100000D03*
G01*
X3800000Y1200000D03*
G01*
X3700000Y1200000D03*
G01*
X3800000Y1300000D03*
G01*
X3700000Y1300000D03*
G01*
X3800000Y1400000D03*
G01*
X3700000Y1400000D03*
G01*
X3800000Y1500000D03*
G01*
X3700000Y1500000D03*
G01*
X3800000Y1600000D03*
G01*
X3700000Y1600000D03*
G01*
X3800000Y1700000D03*
D14*
G01*
X3700000Y1700000D03*
D13*
G01*
X260000Y2025000D03*
G01*
X160000Y2025000D03*
D14*
G01*
X60000Y2025000D03*
D13*
G01*
X260000Y1925000D03*
G01*
X160000Y1925000D03*
D14*
G01*
X60000Y1925000D03*
D13*
G01*
X260000Y1825000D03*
G01*
X160000Y1825000D03*
D14*
G01*
X60000Y1825000D03*
D13*
G01*
X260000Y1160000D03*
G01*
X160000Y1160000D03*
D14*
G01*
X60000Y1160000D03*
D13*
G01*
X260000Y1060000D03*
G01*
X160000Y1060000D03*
D14*
G01*
X60000Y1060000D03*
D13*
G01*
X260000Y960000D03*
G01*
X160000Y960000D03*
D14*
G01*
X60000Y960000D03*
D13*
G01*
X260000Y860000D03*
G01*
X160000Y860000D03*
D14*
G01*
X60000Y860000D03*
D13*
=======
X60000Y2025000D02*
G01*
X102010Y2025000D01*
X102010Y1060000D02*
G01*
X102010Y1070500D01*
X133780Y1102269D01*
X521509Y1102269D01*
X648989Y1229749D01*
X648989Y1240000D01*
X60000Y1060000D02*
G01*
X102010Y1060000D01*
X690000Y1240000D02*
G01*
X648989Y1240000D01*
X3490000Y312420D02*
G01*
X3543370Y312420D01*
X3579530Y348580D01*
X3876419Y348580D01*
X3930000Y295000D01*
X2060000Y465000D02*
G01*
X1008010Y465000D01*
X968010Y425000D01*
X920000Y425000D02*
G01*
X968010Y425000D01*
X260000Y65000D02*
G01*
X372500Y65000D01*
X565230Y257730D01*
X704720Y257730D01*
X871989Y425000D01*
X920000Y425000D02*
G01*
X871989Y425000D01*
X3490000Y410039D02*
G01*
X3490000Y368659D01*
X3490000Y368659D02*
G01*
X3490000Y312420D01*
X2060000Y465000D02*
G01*
X2106009Y465000D01*
X3490000Y368659D02*
G01*
X3393660Y465000D01*
X2106009Y465000D01*
X3230000Y1360010D02*
G01*
X3230000Y1365639D01*
X3299120Y1434760D01*
X1252629Y776920D02*
G01*
X276920Y776920D01*
X260000Y760000D01*
X1250000Y2000000D02*
G01*
X1201229Y2048769D01*
X899799Y2048769D01*
D11*
G01*
X3490000Y1039960D03*
D12*
G01*
X3490000Y410039D03*
D13*
G01*
X3925000Y785000D03*
G01*
X3925000Y685000D03*
D14*
G01*
X3925000Y585000D03*
D15*
G01*
X3930000Y295000D03*
G01*
X3930000Y395000D03*
D14*
G01*
X260000Y65000D03*
D13*
G01*
X160000Y65000D03*
G01*
X60000Y65000D03*
G01*
X1150000Y2000000D03*
G01*
X1050000Y2000000D03*
G01*
X950000Y2000000D03*
G01*
X850000Y2000000D03*
D14*
G01*
X750000Y2000000D03*
G01*
X2400000Y2000000D03*
D13*
G01*
X2500000Y2000000D03*
D14*
G01*
X2700000Y2000000D03*
D13*
G01*
X2800000Y2000000D03*
G01*
X2900000Y2000000D03*
G01*
X3000000Y2000000D03*
D14*
G01*
X3600000Y100000D03*
D13*
G01*
X3500000Y100000D03*
G01*
X3400000Y100000D03*
G01*
X3300000Y100000D03*
G01*
X3200000Y100000D03*
G01*
X3100000Y100000D03*
G01*
X3000000Y100000D03*
G01*
X2900000Y100000D03*
G01*
X2200000Y100000D03*
G01*
X2300000Y100000D03*
G01*
X2400000Y100000D03*
G01*
X2500000Y100000D03*
G01*
X2600000Y100000D03*
G01*
X2700000Y100000D03*
D16*
G01*
X2060000Y1065000D03*
G01*
X2060000Y965000D03*
G01*
X2060000Y865000D03*
G01*
X2060000Y765000D03*
G01*
X2060000Y665000D03*
G01*
X2060000Y565000D03*
D17*
G01*
X2060000Y465000D03*
D16*
G01*
X2060000Y365000D03*
G01*
X2060000Y265000D03*
D13*
G01*
X685000Y65000D03*
G01*
X785000Y65000D03*
G01*
X885000Y65000D03*
G01*
X985000Y65000D03*
D18*
G01*
X1105000Y1025000D03*
G01*
X1205000Y1025000D03*
D19*
G01*
X3230100Y1260000D03*
D20*
G01*
X3230000Y1360010D03*
G01*
X3330000Y1260010D03*
G01*
X3330000Y1360010D03*
G01*
X3430000Y1260010D03*
G01*
X3430000Y1360010D03*
G01*
X3530000Y1260010D03*
G01*
X3530000Y1360010D03*
D16*
G01*
X3935000Y1650000D03*
G01*
X3935000Y2050000D03*
G01*
X3935000Y1165000D03*
G01*
X3935000Y1565000D03*
G01*
X920000Y225000D03*
G01*
X420000Y425000D03*
G01*
X420000Y525000D03*
G01*
X420000Y625000D03*
G01*
X420000Y825000D03*
G01*
X420000Y725000D03*
G01*
X920000Y825000D03*
G01*
X920000Y725000D03*
G01*
X920000Y1025000D03*
G01*
X920000Y925000D03*
G01*
X920000Y525000D03*
G01*
X920000Y625000D03*
G01*
X920000Y325000D03*
D21*
G01*
X920000Y425000D03*
D16*
G01*
X1880000Y1035000D03*
G01*
X1380000Y1235000D03*
G01*
X1380000Y1335000D03*
G01*
X1380000Y1435000D03*
G01*
X1380000Y1635000D03*
G01*
X1380000Y1535000D03*
G01*
X1880000Y1635000D03*
G01*
X1880000Y1535000D03*
G01*
X1880000Y1835000D03*
G01*
X1880000Y1735000D03*
G01*
X1880000Y1335000D03*
G01*
X1880000Y1435000D03*
G01*
X1880000Y1135000D03*
D21*
G01*
X1880000Y1235000D03*
D16*
G01*
X1115000Y365000D03*
G01*
X1215000Y365000D03*
D22*
G01*
X1315000Y365000D03*
D16*
G01*
X1415000Y365000D03*
G01*
X1515000Y365000D03*
G01*
X1615000Y365000D03*
G01*
X1715000Y365000D03*
G01*
X1815000Y365000D03*
D23*
G01*
X490000Y1240000D03*
G01*
X590000Y1240000D03*
D22*
G01*
X690000Y1240000D03*
D23*
G01*
X790000Y1240000D03*
G01*
X890000Y1240000D03*
G01*
X990000Y1240000D03*
G01*
X1090000Y1240000D03*
G01*
X1190000Y1240000D03*
D24*
G01*
X2310000Y1457049D03*
D25*
G01*
X2310000Y1712950D03*
D13*
G01*
X3800000Y800000D03*
G01*
X3700000Y800000D03*
G01*
X3800000Y900000D03*
G01*
X3700000Y900000D03*
G01*
X3800000Y1000000D03*
G01*
X3700000Y1000000D03*
G01*
X3800000Y1100000D03*
G01*
X3700000Y1100000D03*
G01*
X3800000Y1200000D03*
G01*
X3700000Y1200000D03*
G01*
X3800000Y1300000D03*
G01*
X3700000Y1300000D03*
G01*
X3800000Y1400000D03*
G01*
X3700000Y1400000D03*
G01*
X3800000Y1500000D03*
G01*
X3700000Y1500000D03*
G01*
X3800000Y1600000D03*
G01*
X3700000Y1600000D03*
G01*
X3800000Y1700000D03*
D14*
G01*
X3700000Y1700000D03*
G01*
X3800000Y300000D03*
G01*
X3700000Y300000D03*
D26*
G01*
X2710000Y1525000D03*
G01*
X2610000Y1525000D03*
D16*
G01*
X3080000Y1325000D03*
G01*
X2780000Y1325000D03*
D26*
G01*
X2640000Y1310000D03*
G01*
X2540000Y1310000D03*
D16*
G01*
X3080000Y1230000D03*
G01*
X2780000Y1230000D03*
D27*
G01*
X3435950Y262399D03*
G01*
X3554059Y262399D03*
G01*
X3495000Y187600D03*
D16*
G01*
X3065000Y1420000D03*
G01*
X3065000Y1720000D03*
G01*
X2960000Y1420000D03*
G01*
X2960000Y1720000D03*
G01*
X2050000Y1230000D03*
G01*
X2350000Y1230000D03*
D13*
G01*
X260000Y2025000D03*
G01*
X160000Y2025000D03*
D14*
G01*
X60000Y2025000D03*
D13*
G01*
X260000Y1925000D03*
G01*
X160000Y1925000D03*
D14*
G01*
X60000Y1925000D03*
D13*
G01*
X260000Y1825000D03*
G01*
X160000Y1825000D03*
D14*
G01*
X60000Y1825000D03*
D13*
G01*
X260000Y1160000D03*
G01*
X160000Y1160000D03*
D14*
G01*
X60000Y1160000D03*
D13*
G01*
X260000Y1060000D03*
G01*
X160000Y1060000D03*
D14*
G01*
X60000Y1060000D03*
D13*
G01*
X260000Y960000D03*
G01*
X160000Y960000D03*
D14*
G01*
X60000Y960000D03*
D13*
G01*
X260000Y860000D03*
G01*
X160000Y860000D03*
D14*
G01*
X60000Y860000D03*
D13*
G01*
X260000Y760000D03*
G01*
X160000Y760000D03*
D14*
G01*
X60000Y760000D03*
D13*
G01*
X260000Y660000D03*
G01*
X160000Y660000D03*
D14*
G01*
X60000Y660000D03*
D13*
G01*
X260000Y560000D03*
G01*
X160000Y560000D03*
D14*
G01*
X60000Y560000D03*
D28*
G01*
X2803689Y1755000D03*
G01*
X2724989Y1755000D03*
G01*
X2646310Y1755000D03*
D29*
G01*
X2563609Y1755000D03*
G01*
X2886400Y1755000D03*
D26*
G01*
X360000Y1950000D03*
G01*
X360000Y2050000D03*
G01*
X460000Y1950000D03*
G01*
X460000Y2050000D03*
D13*
G01*
X1300000Y100000D03*
G01*
X1200000Y100000D03*
G01*
X1100000Y100000D03*
D23*
G01*
X3800000Y2000000D03*
G01*
X3800000Y1900000D03*
G01*
X3800000Y1800000D03*
G01*
X3800000Y1700000D03*
G01*
X3800000Y1600000D03*
G01*
X3800000Y1500000D03*
G01*
X3800000Y1400000D03*
G01*
X3800000Y1300000D03*
G01*
X3800000Y1200000D03*
G01*
X3800000Y1100000D03*
G01*
X3800000Y1000000D03*
G01*
X3800000Y900000D03*
G01*
X3800000Y800000D03*
G01*
X3800000Y700000D03*
G01*
X3800000Y600000D03*
G01*
X3800000Y500000D03*
G01*
X3800000Y400000D03*
G01*
X3800000Y300000D03*
G01*
X3700000Y300000D03*
G01*
X3700000Y400000D03*
G01*
X3700000Y500000D03*
G01*
X3700000Y600000D03*
G01*
X3700000Y700000D03*
G01*
X3700000Y800000D03*
G01*
X3700000Y900000D03*
G01*
X3700000Y1000000D03*
G01*
X3700000Y1100000D03*
G01*
X3700000Y1200000D03*
G01*
X3700000Y1300000D03*
G01*
X3700000Y1400000D03*
G01*
X3700000Y1500000D03*
G01*
X3700000Y1600000D03*
G01*
X3700000Y1700000D03*
G01*
X3700000Y1800000D03*
G01*
X3700000Y1900000D03*
G01*
X3700000Y2000000D03*
G01*
X3500000Y100000D03*
G01*
X3600000Y100000D03*
G01*
X2500000Y1000000D03*
G01*
X2500000Y1100000D03*
G01*
X2500000Y1200000D03*
G01*
X2600000Y1000000D03*
G01*
X2600000Y1100000D03*
G01*
X2600000Y1200000D03*
G01*
X1100000Y100000D03*
G01*
X1200000Y100000D03*
G01*
X1300000Y100000D03*
G01*
X1400000Y100000D03*
G01*
X1500000Y100000D03*
G01*
X1600000Y100000D03*
G01*
X1700000Y100000D03*
G01*
X1800000Y100000D03*
G01*
X2000000Y100000D03*
G01*
X2100000Y100000D03*
G01*
X2200000Y100000D03*
G01*
X2300000Y100000D03*
G01*
X2400000Y100000D03*
G01*
X2500000Y100000D03*
G01*
X2600000Y100000D03*
G01*
X2700000Y100000D03*
G01*
X2900000Y100000D03*
G01*
X3000000Y100000D03*
G01*
X3100000Y100000D03*
G01*
X3200000Y100000D03*
G01*
X3300000Y100000D03*
G01*
X3400000Y100000D03*
G01*
X3400000Y2000000D03*
G01*
X3300000Y2000000D03*
G01*
X3200000Y2000000D03*
G01*
X3100000Y2000000D03*
G01*
X3000000Y2000000D03*
G01*
X2900000Y2000000D03*
G01*
X2800000Y2000000D03*
G01*
X2700000Y2000000D03*
G01*
X2500000Y2000000D03*
G01*
X2400000Y2000000D03*
G01*
X2300000Y2000000D03*
G01*
X2200000Y2000000D03*
G01*
X2100000Y2000000D03*
G01*
X2000000Y2000000D03*
G01*
X1900000Y2000000D03*
>>>>>>> main
G01*
X260000Y760000D03*
G01*
<<<<<<< HEAD
X160000Y760000D03*
D14*
G01*
X60000Y760000D03*
D13*
G01*
X260000Y660000D03*
G01*
X160000Y660000D03*
D14*
G01*
X60000Y660000D03*
D13*
G01*
X260000Y560000D03*
G01*
X160000Y560000D03*
D14*
G01*
X60000Y560000D03*
D21*
G01*
X2803689Y1755000D03*
G01*
X2724989Y1755000D03*
G01*
X2646310Y1755000D03*
D22*
G01*
X2563609Y1755000D03*
G01*
X2886400Y1755000D03*
D17*
G01*
X360000Y1950000D03*
G01*
X360000Y2050000D03*
G01*
X460000Y1950000D03*
G01*
X460000Y2050000D03*
D13*
G01*
X1300000Y100000D03*
G01*
X1200000Y100000D03*
G01*
X1100000Y100000D03*
D28*
G01*
X1317780Y1189189D03*
G01*
X1088639Y1719070D03*
G01*
X559729Y1149340D03*
G01*
X2896940Y1497069D03*
G01*
X3233819Y1432989D03*
G01*
X3487979Y724679D03*
G01*
X3454819Y691520D03*
G01*
X2805959Y1533330D03*
G01*
X310869Y511309D03*
G01*
X599520Y1501050D03*
=======
X1650000Y2000000D03*
G01*
X1550000Y2000000D03*
G01*
X1450000Y2000000D03*
G01*
X1350000Y2000000D03*
G01*
X1250000Y2000000D03*
G01*
X1150000Y2000000D03*
G01*
X1050000Y2000000D03*
G01*
X950000Y2000000D03*
G01*
X850000Y2000000D03*
G01*
X750000Y2000000D03*
G01*
X850000Y1800000D03*
G01*
X750000Y1800000D03*
G01*
X650000Y1800000D03*
G01*
X850000Y1900000D03*
G01*
X750000Y1900000D03*
G01*
X650000Y1900000D03*
D30*
G01*
X899799Y2048769D03*
G01*
X1252629Y776920D03*
G01*
X3299120Y1434760D03*
G01*
X2813350Y513620D03*
G01*
X1615000Y658069D03*
G01*
X2361080Y1916080D03*
G01*
X693519Y1690700D03*
G01*
X1524709Y1184369D03*
G01*
X3159880Y1578820D03*
G01*
X2345500Y664810D03*
G01*
X2122870Y755059D03*
G01*
X2801850Y1682869D03*
G01*
X3136660Y950210D03*
>>>>>>> main
M02*
