G04 Layer: TopSilkscreenLayer*
<<<<<<< HEAD
G04 EasyEDA v6.5.23, 2023-06-13 19:23:07*
G04 6a93f7e6695a43e3aa9362025bb92aa7,5f8968b253fc4aed9fc2cb8881c97923,10*
=======
G04 EasyEDA v6.5.23, 2023-06-13 15:15:08*
G04 1e32025c192248609e1912bf01cfb9d3,5f8968b253fc4aed9fc2cb8881c97923,10*
>>>>>>> main
G04 Gerber Generator version 0.2*
G04 Scale: 100 percent, Rotated: No, Reflected: No *
G04 Dimensions in inches *
G04 leading zeros omitted , absolute positions ,3 integer and 6 decimal *
%FSLAX36Y36*%
%MOIN*%

%ADD10C,0.0060*%
%ADD11C,0.0080*%
%ADD12C,0.0032*%
%ADD13C,0.0040*%
%ADD14C,0.0100*%
%ADD15C,0.0080*%
%ADD16C,0.0079*%
<<<<<<< HEAD
%ADD17C,0.0120*%

%LPD*%
D10*
X2170000Y1239800D02*
G01*
X2172700Y1241199D01*
X2176800Y1245300D01*
X2176800Y1216599D01*
X2193999Y1245300D02*
G01*
X2189899Y1243899D01*
X2187200Y1239800D01*
X2185799Y1233000D01*
X2185799Y1228899D01*
X2187200Y1222100D01*
X2189899Y1218000D01*
X2193999Y1216599D01*
X2196700Y1216599D01*
X2200799Y1218000D01*
X2203500Y1222100D01*
X2204899Y1228899D01*
X2204899Y1233000D01*
X2203500Y1239800D01*
X2200799Y1243899D01*
X2196700Y1245300D01*
X2193999Y1245300D01*
X2222100Y1245300D02*
G01*
X2218000Y1243899D01*
X2215299Y1239800D01*
X2213900Y1233000D01*
X2213900Y1228899D01*
X2215299Y1222100D01*
X2218000Y1218000D01*
X2222100Y1216599D01*
X2224799Y1216599D01*
X2228900Y1218000D01*
X2231599Y1222100D01*
X2233000Y1228899D01*
X2233000Y1233000D01*
X2231599Y1239800D01*
X2228900Y1243899D01*
X2224799Y1245300D01*
X2222100Y1245300D01*
X3854700Y810900D02*
G01*
X3883400Y800000D01*
X3854700Y810900D02*
G01*
X3883400Y821799D01*
X3873800Y804099D02*
G01*
X3873800Y817699D01*
X3854700Y830799D02*
G01*
X3883400Y830799D01*
X3854700Y839800D02*
G01*
X3883400Y839800D01*
X3854700Y839800D02*
G01*
X3854700Y852100D01*
X3856099Y856199D01*
X3857500Y857500D01*
X3860200Y858899D01*
X3862899Y858899D01*
X3865600Y857500D01*
X3866999Y856199D01*
X3868400Y852100D01*
X3868400Y839800D01*
X3868400Y849400D02*
G01*
X3883400Y858899D01*
X3854700Y867899D02*
G01*
X3883400Y867899D01*
X3854700Y867899D02*
G01*
X3854700Y880199D01*
X3856099Y884299D01*
X3857500Y885599D01*
X3860200Y886999D01*
X3864300Y886999D01*
X3866999Y885599D01*
X3868400Y884299D01*
X3869700Y880199D01*
X3869700Y867899D01*
X3854700Y895999D02*
G01*
X3883400Y895999D01*
X3854700Y895999D02*
G01*
X3854700Y908299D01*
X3856099Y912399D01*
X3857500Y913699D01*
X3860200Y915100D01*
X3862899Y915100D01*
X3865600Y913699D01*
X3866999Y912399D01*
X3868400Y908299D01*
X3868400Y895999D01*
X3868400Y905500D02*
G01*
X3883400Y915100D01*
X3854700Y924099D02*
G01*
X3883400Y924099D01*
X3854700Y924099D02*
G01*
X3854700Y941799D01*
X3868400Y924099D02*
G01*
X3868400Y935000D01*
X3883400Y924099D02*
G01*
X3883400Y941799D01*
X3858800Y969899D02*
G01*
X3856099Y967199D01*
X3854700Y963099D01*
X3854700Y957600D01*
X3856099Y953499D01*
X3858800Y950799D01*
X3861499Y950799D01*
X3864300Y952199D01*
X3865600Y953499D01*
X3866999Y956300D01*
X3869700Y964499D01*
X3871099Y967199D01*
X3872500Y968499D01*
X3875200Y969899D01*
X3879300Y969899D01*
X3881999Y967199D01*
X3883400Y963099D01*
X3883400Y957600D01*
X3881999Y953499D01*
X3879300Y950799D01*
X3858800Y998000D02*
G01*
X3856099Y995300D01*
X3854700Y991199D01*
X3854700Y985700D01*
X3856099Y981599D01*
X3858800Y978899D01*
X3861499Y978899D01*
X3864300Y980300D01*
X3865600Y981599D01*
X3866999Y984400D01*
X3869700Y992500D01*
X3871099Y995300D01*
X3872500Y996599D01*
X3875200Y998000D01*
X3879300Y998000D01*
X3881999Y995300D01*
X3883400Y991199D01*
X3883400Y985700D01*
X3881999Y981599D01*
X3879300Y978899D01*
X3860200Y1006999D02*
G01*
X3858800Y1009699D01*
X3854700Y1013800D01*
X3883400Y1013800D01*
X3926499Y245500D02*
G01*
X3923800Y244099D01*
X3921099Y241399D01*
X3919700Y238600D01*
X3919700Y233200D01*
X3921099Y230500D01*
X3923800Y227699D01*
X3926499Y226399D01*
X3930600Y225000D01*
X3937500Y225000D01*
X3941499Y226399D01*
X3944300Y227699D01*
X3946999Y230500D01*
X3948400Y233200D01*
X3948400Y238600D01*
X3946999Y241399D01*
X3944300Y244099D01*
X3941499Y245500D01*
X3925200Y254499D02*
G01*
X3923800Y257199D01*
X3919700Y261300D01*
X3948400Y261300D01*
X3957899Y270300D02*
G01*
X3957899Y294800D01*
X3926499Y305199D02*
G01*
X3925200Y305199D01*
X3922500Y306500D01*
X3921099Y307899D01*
X3919700Y310599D01*
X3919700Y316100D01*
X3921099Y318800D01*
X3922500Y320199D01*
X3925200Y321500D01*
X3927899Y321500D01*
X3930600Y320199D01*
X3934700Y317500D01*
X3948400Y303800D01*
X3948400Y322899D01*
X120300Y100000D02*
G01*
X91599Y100000D01*
X120300Y100000D02*
G01*
X120300Y82300D01*
X106599Y100000D02*
G01*
X106599Y89099D01*
X91599Y100000D02*
G01*
X91599Y82300D01*
X116199Y54200D02*
G01*
X118899Y56900D01*
X120300Y60999D01*
X120300Y66500D01*
X118899Y70500D01*
X116199Y73299D01*
X113499Y73299D01*
X110700Y71900D01*
X109400Y70500D01*
X108000Y67800D01*
X105300Y59600D01*
X103899Y56900D01*
X102500Y55500D01*
X99800Y54200D01*
X95700Y54200D01*
X93000Y56900D01*
X91599Y60999D01*
X91599Y66500D01*
X93000Y70500D01*
X95700Y73299D01*
X113499Y24699D02*
G01*
X116199Y26100D01*
X118899Y28800D01*
X120300Y31500D01*
X120300Y36999D01*
X118899Y39699D01*
X116199Y42500D01*
X113499Y43800D01*
X109400Y45199D01*
X102500Y45199D01*
X98499Y43800D01*
X95700Y42500D01*
X93000Y39699D01*
X91599Y36999D01*
X91599Y31500D01*
X93000Y28800D01*
X95700Y26100D01*
X98499Y24699D01*
X114800Y15700D02*
G01*
X116199Y13000D01*
X120300Y8899D01*
X91599Y8899D01*
X3830000Y199699D02*
G01*
X3830000Y228400D01*
X3830000Y199699D02*
G01*
X3812299Y199699D01*
X3830000Y213400D02*
G01*
X3819099Y213400D01*
X3801899Y206500D02*
G01*
X3801899Y205199D01*
X3800500Y202500D01*
X3799200Y201100D01*
X3796499Y199699D01*
X3791000Y199699D01*
X3788299Y201100D01*
X3786899Y202500D01*
X3785500Y205199D01*
X3785500Y207899D01*
X3786899Y210599D01*
X3789600Y214699D01*
X3803299Y228400D01*
X3784200Y228400D01*
X3775200Y237899D02*
G01*
X3750600Y237899D01*
X3728000Y199699D02*
G01*
X3741599Y218800D01*
X3721199Y218800D01*
X3728000Y199699D02*
G01*
X3728000Y228400D01*
D11*
X2939499Y872500D02*
G01*
X2935900Y879800D01*
X2928599Y887100D01*
X2921400Y890700D01*
X2906800Y890700D01*
X2899499Y887100D01*
X2892299Y879800D01*
X2888599Y872500D01*
X2885000Y861599D01*
X2885000Y843499D01*
X2888599Y832500D01*
X2892299Y825300D01*
X2899499Y818000D01*
X2906800Y814400D01*
X2921400Y814400D01*
X2928599Y818000D01*
X2935900Y825300D01*
X2939499Y832500D01*
X2939499Y843499D01*
X2921400Y843499D02*
G01*
X2939499Y843499D01*
X2963500Y890700D02*
G01*
X2963500Y814400D01*
X2963500Y890700D02*
G01*
X2996300Y890700D01*
X3007200Y887100D01*
X3010799Y883499D01*
X3014499Y876199D01*
X3014499Y865300D01*
X3010799Y858000D01*
X3007200Y854400D01*
X2996300Y850700D01*
X2963500Y850700D01*
X3089399Y879800D02*
G01*
X3082100Y887100D01*
X3071199Y890700D01*
X3056599Y890700D01*
X3045699Y887100D01*
X3038500Y879800D01*
X3038500Y872500D01*
X3042100Y865300D01*
X3045699Y861599D01*
X3053000Y858000D01*
X3074799Y850700D01*
X3082100Y847100D01*
X3085699Y843499D01*
X3089399Y836199D01*
X3089399Y825300D01*
X3082100Y818000D01*
X3071199Y814400D01*
X3056599Y814400D01*
X3045699Y818000D01*
X3038500Y825300D01*
X3116999Y872500D02*
G01*
X3116999Y876199D01*
X3120600Y883499D01*
X3124300Y887100D01*
X3131499Y890700D01*
X3146099Y890700D01*
X3153400Y887100D01*
X3156999Y883499D01*
X3160600Y876199D01*
X3160600Y868899D01*
X3156999Y861599D01*
X3149700Y850700D01*
X3113400Y814400D01*
X3164300Y814400D01*
=======
%ADD17C,0.0100*%
%ADD18C,0.0059*%
%ADD19C,0.0116*%

%LPD*%
D10*
X3819600Y691399D02*
G01*
X3862500Y675000D01*
X3819600Y691399D02*
G01*
X3862500Y707699D01*
X3848199Y681100D02*
G01*
X3848199Y701599D01*
X3819600Y721199D02*
G01*
X3862500Y721199D01*
X3819600Y734699D02*
G01*
X3862500Y734699D01*
X3819600Y734699D02*
G01*
X3819600Y753099D01*
X3821599Y759299D01*
X3823699Y761300D01*
X3827799Y763400D01*
X3831899Y763400D01*
X3836000Y761300D01*
X3838000Y759299D01*
X3840000Y753099D01*
X3840000Y734699D01*
X3840000Y749000D02*
G01*
X3862500Y763400D01*
X3819600Y776900D02*
G01*
X3862500Y776900D01*
X3819600Y776900D02*
G01*
X3819600Y795300D01*
X3821599Y801399D01*
X3823699Y803499D01*
X3827799Y805500D01*
X3833900Y805500D01*
X3838000Y803499D01*
X3840000Y801399D01*
X3842100Y795300D01*
X3842100Y776900D01*
X3819600Y819000D02*
G01*
X3862500Y819000D01*
X3819600Y819000D02*
G01*
X3819600Y837399D01*
X3821599Y843499D01*
X3823699Y845599D01*
X3827799Y847600D01*
X3831899Y847600D01*
X3836000Y845599D01*
X3838000Y843499D01*
X3840000Y837399D01*
X3840000Y819000D01*
X3840000Y833299D02*
G01*
X3862500Y847600D01*
X3819600Y861100D02*
G01*
X3862500Y861100D01*
X3819600Y861100D02*
G01*
X3819600Y887699D01*
X3840000Y861100D02*
G01*
X3840000Y877500D01*
X3862500Y861100D02*
G01*
X3862500Y887699D01*
X3825699Y929899D02*
G01*
X3821599Y925799D01*
X3819600Y919600D01*
X3819600Y911500D01*
X3821599Y905300D01*
X3825699Y901199D01*
X3829799Y901199D01*
X3833900Y903299D01*
X3836000Y905300D01*
X3838000Y909400D01*
X3842100Y921700D01*
X3844099Y925799D01*
X3846199Y927800D01*
X3850299Y929899D01*
X3856400Y929899D01*
X3860500Y925799D01*
X3862500Y919600D01*
X3862500Y911500D01*
X3860500Y905300D01*
X3856400Y901199D01*
X3825699Y971999D02*
G01*
X3821599Y967899D01*
X3819600Y961799D01*
X3819600Y953600D01*
X3821599Y947500D01*
X3825699Y943400D01*
X3829799Y943400D01*
X3833900Y945399D01*
X3836000Y947500D01*
X3838000Y951500D01*
X3842100Y963800D01*
X3844099Y967899D01*
X3846199Y970000D01*
X3850299Y971999D01*
X3856400Y971999D01*
X3860500Y967899D01*
X3862500Y961799D01*
X3862500Y953600D01*
X3860500Y947500D01*
X3856400Y943400D01*
X3827799Y985500D02*
G01*
X3825699Y989600D01*
X3819600Y995700D01*
X3862500Y995700D01*
X3821800Y366700D02*
G01*
X3817700Y364600D01*
X3813599Y360500D01*
X3811599Y356500D01*
X3811599Y348299D01*
X3813599Y344200D01*
X3817700Y340100D01*
X3821800Y338000D01*
X3828000Y335999D01*
X3838199Y335999D01*
X3844300Y338000D01*
X3848400Y340100D01*
X3852500Y344200D01*
X3854499Y348299D01*
X3854499Y356500D01*
X3852500Y360500D01*
X3848400Y364600D01*
X3844300Y366700D01*
X3819799Y380199D02*
G01*
X3817700Y384299D01*
X3811599Y390399D01*
X3854499Y390399D01*
X3868900Y403899D02*
G01*
X3868900Y440700D01*
X3821800Y456300D02*
G01*
X3819799Y456300D01*
X3815699Y458299D01*
X3813599Y460399D01*
X3811599Y464499D01*
X3811599Y472600D01*
X3813599Y476700D01*
X3815699Y478800D01*
X3819799Y480799D01*
X3823900Y480799D01*
X3828000Y478800D01*
X3834099Y474699D01*
X3854499Y454200D01*
X3854499Y482899D01*
X150000Y170399D02*
G01*
X150000Y127500D01*
X150000Y170399D02*
G01*
X176599Y170399D01*
X150000Y150000D02*
G01*
X166399Y150000D01*
X150000Y127500D02*
G01*
X176599Y127500D01*
X218699Y164299D02*
G01*
X214600Y168400D01*
X208499Y170399D01*
X200300Y170399D01*
X194200Y168400D01*
X190100Y164299D01*
X190100Y160199D01*
X192100Y156100D01*
X194200Y154000D01*
X198299Y151999D01*
X210500Y147899D01*
X214600Y145900D01*
X216700Y143800D01*
X218699Y139699D01*
X218699Y133600D01*
X214600Y129499D01*
X208499Y127500D01*
X200300Y127500D01*
X194200Y129499D01*
X190100Y133600D01*
X262899Y160199D02*
G01*
X260900Y164299D01*
X256799Y168400D01*
X252699Y170399D01*
X244499Y170399D01*
X240399Y168400D01*
X236300Y164299D01*
X234299Y160199D01*
X232199Y154000D01*
X232199Y143800D01*
X234299Y137699D01*
X236300Y133600D01*
X240399Y129499D01*
X244499Y127500D01*
X252699Y127500D01*
X256799Y129499D01*
X260900Y133600D01*
X262899Y137699D01*
X276399Y162199D02*
G01*
X280500Y164299D01*
X286599Y170399D01*
X286599Y127500D01*
X940000Y2105399D02*
G01*
X940000Y2062500D01*
X940000Y2105399D02*
G01*
X966599Y2105399D01*
X940000Y2085000D02*
G01*
X956400Y2085000D01*
X980100Y2097199D02*
G01*
X984200Y2099299D01*
X990299Y2105399D01*
X990299Y2062500D01*
X1003800Y2048099D02*
G01*
X1040600Y2048099D01*
X1054099Y2097199D02*
G01*
X1058199Y2099299D01*
X1064399Y2105399D01*
X1064399Y2062500D01*
X2440000Y2105399D02*
G01*
X2440000Y2062500D01*
X2440000Y2105399D02*
G01*
X2466599Y2105399D01*
X2440000Y2085000D02*
G01*
X2456400Y2085000D01*
X2480100Y2097199D02*
G01*
X2484200Y2099299D01*
X2490299Y2105399D01*
X2490299Y2062500D01*
X2503800Y2048099D02*
G01*
X2540600Y2048099D01*
X2556199Y2095199D02*
G01*
X2556199Y2097199D01*
X2558199Y2101300D01*
X2560299Y2103400D01*
X2564399Y2105399D01*
X2572500Y2105399D01*
X2576599Y2103400D01*
X2578699Y2101300D01*
X2580699Y2097199D01*
X2580699Y2093099D01*
X2578699Y2089000D01*
X2574600Y2082899D01*
X2554099Y2062500D01*
X2582799Y2062500D01*
X2840000Y2105399D02*
G01*
X2840000Y2062500D01*
X2840000Y2105399D02*
G01*
X2866599Y2105399D01*
X2840000Y2085000D02*
G01*
X2856400Y2085000D01*
X2880100Y2097199D02*
G01*
X2884200Y2099299D01*
X2890299Y2105399D01*
X2890299Y2062500D01*
X2903800Y2048099D02*
G01*
X2940600Y2048099D01*
X2958199Y2105399D02*
G01*
X2980699Y2105399D01*
X2968500Y2089000D01*
X2974600Y2089000D01*
X2978699Y2086999D01*
X2980699Y2085000D01*
X2982799Y2078800D01*
X2982799Y2074699D01*
X2980699Y2068600D01*
X2976599Y2064499D01*
X2970500Y2062500D01*
X2964399Y2062500D01*
X2958199Y2064499D01*
X2956199Y2066500D01*
X2954099Y2070599D01*
X3260000Y-5399D02*
G01*
X3260000Y37500D01*
X3260000Y-5399D02*
G01*
X3233400Y-5399D01*
X3260000Y15000D02*
G01*
X3243599Y15000D01*
X3215799Y-5399D02*
G01*
X3193299Y-5399D01*
X3205600Y10999D01*
X3199499Y10999D01*
X3195399Y13000D01*
X3193299Y15000D01*
X3191300Y21199D01*
X3191300Y25300D01*
X3193299Y31399D01*
X3197399Y35500D01*
X3203500Y37500D01*
X3209700Y37500D01*
X3215799Y35500D01*
X3217899Y33499D01*
X3219899Y29400D01*
X3177799Y51900D02*
G01*
X3141000Y51900D01*
X3127500Y2800D02*
G01*
X3123400Y700D01*
X3117200Y-5399D01*
X3117200Y37500D01*
X2460000Y-5399D02*
G01*
X2460000Y37500D01*
X2460000Y-5399D02*
G01*
X2433400Y-5399D01*
X2460000Y15000D02*
G01*
X2443599Y15000D01*
X2415799Y-5399D02*
G01*
X2393299Y-5399D01*
X2405600Y10999D01*
X2399499Y10999D01*
X2395399Y13000D01*
X2393299Y15000D01*
X2391300Y21199D01*
X2391300Y25300D01*
X2393299Y31399D01*
X2397399Y35500D01*
X2403500Y37500D01*
X2409700Y37500D01*
X2415799Y35500D01*
X2417899Y33499D01*
X2419899Y29400D01*
X2377799Y51900D02*
G01*
X2341000Y51900D01*
X2325399Y4800D02*
G01*
X2325399Y2800D01*
X2323400Y-1300D01*
X2321300Y-3400D01*
X2317200Y-5399D01*
X2308999Y-5399D01*
X2305000Y-3400D01*
X2302899Y-1300D01*
X2300900Y2800D01*
X2300900Y6900D01*
X2302899Y10999D01*
X2306999Y17100D01*
X2327500Y37500D01*
X2298800Y37500D01*
X2705699Y1215199D02*
G01*
X2703599Y1219299D01*
X2699499Y1223400D01*
X2695500Y1225399D01*
X2687299Y1225399D01*
X2683199Y1223400D01*
X2679099Y1219299D01*
X2676999Y1215199D01*
X2675000Y1209000D01*
X2675000Y1198800D01*
X2676999Y1192699D01*
X2679099Y1188600D01*
X2683199Y1184499D01*
X2687299Y1182500D01*
X2695500Y1182500D01*
X2699499Y1184499D01*
X2703599Y1188600D01*
X2705699Y1192699D01*
X2705699Y1198800D01*
X2695500Y1198800D02*
G01*
X2705699Y1198800D01*
X2719200Y1225399D02*
G01*
X2719200Y1182500D01*
X2719200Y1225399D02*
G01*
X2737600Y1225399D01*
X2743699Y1223400D01*
X2745799Y1221300D01*
X2747799Y1217199D01*
X2747799Y1211100D01*
X2745799Y1206999D01*
X2743699Y1205000D01*
X2737600Y1202899D01*
X2719200Y1202899D01*
X2790000Y1219299D02*
G01*
X2785900Y1223400D01*
X2779700Y1225399D01*
X2771499Y1225399D01*
X2765399Y1223400D01*
X2761300Y1219299D01*
X2761300Y1215199D01*
X2763400Y1211100D01*
X2765399Y1209000D01*
X2769499Y1206999D01*
X2781800Y1202899D01*
X2785900Y1200900D01*
X2787899Y1198800D01*
X2790000Y1194699D01*
X2790000Y1188600D01*
X2785900Y1184499D01*
X2779700Y1182500D01*
X2771499Y1182500D01*
X2765399Y1184499D01*
X2761300Y1188600D01*
X2805500Y1215199D02*
G01*
X2805500Y1217199D01*
X2807500Y1221300D01*
X2809600Y1223400D01*
X2813699Y1225399D01*
X2821899Y1225399D01*
X2826000Y1223400D01*
X2828000Y1221300D01*
X2830000Y1217199D01*
X2830000Y1213099D01*
X2828000Y1209000D01*
X2823900Y1202899D01*
X2803500Y1182500D01*
X2832100Y1182500D01*
D11*
>>>>>>> main
X3144499Y687500D02*
G01*
X3140900Y694800D01*
X3133599Y702100D01*
X3126400Y705700D01*
X3111800Y705700D01*
X3104499Y702100D01*
X3097299Y694800D01*
X3093599Y687500D01*
X3090000Y676599D01*
X3090000Y658499D01*
X3093599Y647500D01*
X3097299Y640300D01*
X3104499Y633000D01*
X3111800Y629400D01*
X3126400Y629400D01*
X3133599Y633000D01*
X3140900Y640300D01*
X3144499Y647500D01*
X3144499Y658499D01*
X3126400Y658499D02*
G01*
X3144499Y658499D01*
X3168500Y705700D02*
G01*
X3168500Y629400D01*
X3168500Y705700D02*
G01*
X3201300Y705700D01*
X3212200Y702100D01*
X3215799Y698499D01*
X3219499Y691199D01*
X3219499Y680300D01*
X3215799Y673000D01*
X3212200Y669400D01*
X3201300Y665700D01*
X3168500Y665700D01*
X3294399Y694800D02*
G01*
X3287100Y702100D01*
X3276199Y705700D01*
X3261599Y705700D01*
X3250699Y702100D01*
X3243500Y694800D01*
X3243500Y687500D01*
X3247100Y680300D01*
X3250699Y676599D01*
X3258000Y673000D01*
X3279799Y665700D01*
X3287100Y662100D01*
X3290699Y658499D01*
X3294399Y651199D01*
X3294399Y640300D01*
X3287100Y633000D01*
X3276199Y629400D01*
X3261599Y629400D01*
X3250699Y633000D01*
X3243500Y640300D01*
<<<<<<< HEAD
X2118599Y1080399D02*
G01*
X2138599Y1080399D01*
X2127700Y1065799D01*
X2133199Y1065799D01*
X2136800Y1064000D01*
X2138599Y1062199D01*
X2140500Y1056700D01*
X2140500Y1053099D01*
X2138599Y1047600D01*
X2135000Y1044000D01*
X2129499Y1042199D01*
X2124099Y1042199D01*
X2118599Y1044000D01*
X2116800Y1045799D01*
X2115000Y1049499D01*
X2154300Y1051300D02*
G01*
X2152500Y1049499D01*
X2154300Y1047600D01*
X2156099Y1049499D01*
X2154300Y1051300D01*
X2171700Y1080399D02*
G01*
X2191700Y1080399D01*
X2180799Y1065799D01*
X2186300Y1065799D01*
X2189899Y1064000D01*
X2191700Y1062199D01*
X2193500Y1056700D01*
X2193500Y1053099D01*
X2191700Y1047600D01*
X2188100Y1044000D01*
X2182600Y1042199D01*
X2177200Y1042199D01*
X2171700Y1044000D01*
X2169899Y1045799D01*
X2168100Y1049499D01*
X2205500Y1080399D02*
G01*
X2220100Y1042199D01*
X2234600Y1080399D02*
G01*
X2220100Y1042199D01*
X2120000Y980399D02*
G01*
X2120000Y942199D01*
X2120000Y980399D02*
G01*
X2143599Y980399D01*
X2120000Y962199D02*
G01*
X2134499Y962199D01*
X2120000Y942199D02*
G01*
X2143599Y942199D01*
X2155600Y980399D02*
G01*
X2155600Y942199D01*
X2155600Y980399D02*
G01*
X2181099Y942199D01*
X2181099Y980399D02*
G01*
X2181099Y942199D01*
X2120000Y880399D02*
G01*
X2134499Y842199D01*
X2149099Y880399D02*
G01*
X2134499Y842199D01*
X2161099Y880399D02*
G01*
X2161099Y842199D01*
X2161099Y880399D02*
G01*
X2177500Y880399D01*
X2182899Y878499D01*
X2184700Y876700D01*
X2186499Y873099D01*
X2186499Y869499D01*
X2184700Y865799D01*
X2182899Y864000D01*
X2177500Y862199D01*
X2161099Y862199D02*
G01*
X2177500Y862199D01*
X2182899Y860399D01*
X2184700Y858499D01*
X2186499Y854899D01*
X2186499Y849499D01*
X2184700Y845799D01*
X2182899Y844000D01*
X2177500Y842199D01*
X2161099Y842199D01*
X2213100Y880399D02*
G01*
X2198500Y842199D01*
X2213100Y880399D02*
G01*
X2227600Y842199D01*
X2203999Y854899D02*
G01*
X2222200Y854899D01*
X2252399Y880399D02*
G01*
X2252399Y842199D01*
X2239600Y880399D02*
G01*
X2265100Y880399D01*
X2125000Y785399D02*
G01*
X2125000Y747199D01*
X2125000Y785399D02*
G01*
X2148599Y785399D01*
X2125000Y767199D02*
G01*
X2139499Y767199D01*
X2160600Y785399D02*
G01*
X2160600Y747199D01*
X2172600Y785399D02*
G01*
X2198100Y747199D01*
X2198100Y785399D02*
G01*
X2172600Y747199D01*
=======
X2127299Y1105700D02*
G01*
X2167299Y1105700D01*
X2145500Y1076599D01*
X2156400Y1076599D01*
X2163599Y1073000D01*
X2167299Y1069400D01*
X2170900Y1058499D01*
X2170900Y1051199D01*
X2167299Y1040300D01*
X2160000Y1033000D01*
X2149099Y1029400D01*
X2138199Y1029400D01*
X2127299Y1033000D01*
X2123599Y1036599D01*
X2120000Y1043899D01*
X2198500Y1047500D02*
G01*
X2194899Y1043899D01*
X2198500Y1040300D01*
X2202200Y1043899D01*
X2198500Y1047500D01*
X2233500Y1105700D02*
G01*
X2273500Y1105700D01*
X2251599Y1076599D01*
X2262500Y1076599D01*
X2269799Y1073000D01*
X2273500Y1069400D01*
X2277100Y1058499D01*
X2277100Y1051199D01*
X2273500Y1040300D01*
X2266199Y1033000D01*
X2255299Y1029400D01*
X2244399Y1029400D01*
X2233500Y1033000D01*
X2229799Y1036599D01*
X2226199Y1043899D01*
X2301099Y1105700D02*
G01*
X2330200Y1029400D01*
X2359300Y1105700D02*
G01*
X2330200Y1029400D01*
X2120000Y1005700D02*
G01*
X2120000Y929400D01*
X2120000Y1005700D02*
G01*
X2167299Y1005700D01*
X2120000Y969400D02*
G01*
X2149099Y969400D01*
X2120000Y929400D02*
G01*
X2167299Y929400D01*
X2191300Y1005700D02*
G01*
X2191300Y929400D01*
X2191300Y1005700D02*
G01*
X2242200Y929400D01*
X2242200Y1005700D02*
G01*
X2242200Y929400D01*
X2120000Y905700D02*
G01*
X2149099Y829400D01*
X2178199Y905700D02*
G01*
X2149099Y829400D01*
X2202200Y905700D02*
G01*
X2202200Y829400D01*
X2202200Y905700D02*
G01*
X2234899Y905700D01*
X2245799Y902100D01*
X2249499Y898499D01*
X2253100Y891199D01*
X2253100Y883899D01*
X2249499Y876599D01*
X2245799Y873000D01*
X2234899Y869400D01*
X2202200Y869400D02*
G01*
X2234899Y869400D01*
X2245799Y865700D01*
X2249499Y862100D01*
X2253100Y854800D01*
X2253100Y843899D01*
X2249499Y836599D01*
X2245799Y833000D01*
X2234899Y829400D01*
X2202200Y829400D01*
X2306199Y905700D02*
G01*
X2277100Y829400D01*
X2306199Y905700D02*
G01*
X2335299Y829400D01*
X2288000Y854800D02*
G01*
X2324399Y854800D01*
X2384700Y905700D02*
G01*
X2384700Y829400D01*
X2359300Y905700D02*
G01*
X2410200Y905700D01*
X2120000Y805700D02*
G01*
X2120000Y729400D01*
X2120000Y805700D02*
G01*
X2167299Y805700D01*
X2120000Y769400D02*
G01*
X2149099Y769400D01*
X2191300Y805700D02*
G01*
X2191300Y729400D01*
X2215299Y805700D02*
G01*
X2266199Y729400D01*
X2266199Y805700D02*
G01*
X2215299Y729400D01*
>>>>>>> main
X2145500Y705700D02*
G01*
X2145500Y629400D01*
X2120000Y705700D02*
G01*
X2170900Y705700D01*
X2194899Y705700D02*
G01*
X2245799Y629400D01*
X2245799Y705700D02*
G01*
X2194899Y629400D01*
X2120000Y605700D02*
G01*
X2120000Y529400D01*
X2120000Y605700D02*
G01*
X2152700Y605700D01*
X2163599Y602100D01*
X2167299Y598499D01*
X2170900Y591199D01*
X2170900Y583899D01*
X2167299Y576599D01*
X2163599Y573000D01*
X2152700Y569400D01*
X2120000Y569400D01*
X2145500Y569400D02*
G01*
X2170900Y529400D01*
X2194899Y605700D02*
G01*
X2245799Y529400D01*
X2245799Y605700D02*
G01*
X2194899Y529400D01*
X2174499Y487500D02*
G01*
X2170900Y494800D01*
X2163599Y502100D01*
X2156400Y505700D01*
X2141800Y505700D01*
X2134499Y502100D01*
X2127299Y494800D01*
X2123599Y487500D01*
X2120000Y476599D01*
X2120000Y458499D01*
X2123599Y447500D01*
X2127299Y440300D01*
X2134499Y433000D01*
X2141800Y429400D01*
X2156400Y429400D01*
X2163599Y433000D01*
X2170900Y440300D01*
X2174499Y447500D01*
X2174499Y458499D01*
X2156400Y458499D02*
G01*
X2174499Y458499D01*
X2198500Y505700D02*
G01*
X2198500Y429400D01*
X2198500Y505700D02*
G01*
X2249499Y429400D01*
X2249499Y505700D02*
G01*
X2249499Y429400D01*
X2273500Y505700D02*
G01*
X2273500Y429400D01*
X2273500Y505700D02*
G01*
X2298900Y505700D01*
X2309799Y502100D01*
X2317100Y494800D01*
X2320699Y487500D01*
X2324399Y476599D01*
X2324399Y458499D01*
X2320699Y447500D01*
X2317100Y440300D01*
X2309799Y433000D01*
X2298900Y429400D01*
X2273500Y429400D01*
X2120000Y405700D02*
G01*
X2149099Y329400D01*
X2178199Y405700D02*
G01*
X2149099Y329400D01*
X2202200Y405700D02*
G01*
X2202200Y329400D01*
X2226199Y405700D02*
G01*
X2226199Y329400D01*
X2226199Y405700D02*
G01*
X2277100Y329400D01*
X2277100Y405700D02*
G01*
X2277100Y329400D01*
<<<<<<< HEAD
X2120000Y275300D02*
G01*
X2120000Y246599D01*
X2120000Y275300D02*
G01*
X2132299Y275300D01*
X2136400Y273899D01*
X2137700Y272500D01*
X2139099Y269800D01*
X2139099Y265700D01*
X2137700Y263000D01*
X2136400Y261599D01*
X2132299Y260300D01*
X2120000Y260300D01*
X2148100Y275300D02*
G01*
X2148100Y246599D01*
X2148100Y275300D02*
G01*
X2160399Y275300D01*
X2164499Y273899D01*
X2165799Y272500D01*
X2167200Y269800D01*
X2167200Y265700D01*
X2165799Y263000D01*
X2164499Y261599D01*
X2160399Y260300D01*
X2148100Y260300D01*
X2195299Y271199D02*
G01*
X2192500Y273899D01*
X2188500Y275300D01*
X2183000Y275300D01*
X2178900Y273899D01*
X2176199Y271199D01*
X2176199Y268499D01*
X2177500Y265700D01*
X2178900Y264400D01*
X2181599Y263000D01*
X2189799Y260300D01*
X2192500Y258899D01*
X2193900Y257500D01*
X2195299Y254800D01*
X2195299Y250700D01*
X2192500Y248000D01*
X2188500Y246599D01*
X2183000Y246599D01*
X2178900Y248000D01*
X2176199Y250700D01*
D10*
X2813500Y1609499D02*
G01*
X2816199Y1610900D01*
X2818900Y1613600D01*
X2820299Y1616399D01*
X2820299Y1621799D01*
X2818900Y1624499D01*
X2816199Y1627300D01*
X2813500Y1628600D01*
X2809399Y1630000D01*
X2802500Y1630000D01*
X2798500Y1628600D01*
X2795699Y1627300D01*
X2793000Y1624499D01*
X2791599Y1621799D01*
X2791599Y1616399D01*
X2793000Y1613600D01*
X2795699Y1610900D01*
X2798500Y1609499D01*
X2802500Y1609499D01*
X2802500Y1616399D02*
G01*
X2802500Y1609499D01*
X2820299Y1600500D02*
G01*
X2791599Y1600500D01*
X2820299Y1600500D02*
G01*
X2820299Y1588299D01*
X2818900Y1584200D01*
X2817500Y1582800D01*
X2814799Y1581500D01*
X2810699Y1581500D01*
X2808000Y1582800D01*
X2806599Y1584200D01*
X2805299Y1588299D01*
X2805299Y1600500D01*
X2816199Y1553400D02*
G01*
X2818900Y1556100D01*
X2820299Y1560199D01*
X2820299Y1565599D01*
X2818900Y1569699D01*
X2816199Y1572500D01*
X2813500Y1572500D01*
X2810699Y1571100D01*
X2809399Y1569699D01*
X2808000Y1566999D01*
X2805299Y1558800D01*
X2803900Y1556100D01*
X2802500Y1554699D01*
X2799799Y1553400D01*
X2795699Y1553400D01*
X2793000Y1556100D01*
X2791599Y1560199D01*
X2791599Y1565599D01*
X2793000Y1569699D01*
X2795699Y1572500D01*
X2782100Y1544400D02*
G01*
X2782100Y1519800D01*
X2820299Y1510799D02*
G01*
X2791599Y1510799D01*
X2820299Y1510799D02*
G01*
X2820299Y1498499D01*
X2818900Y1494499D01*
X2817500Y1493099D01*
X2814799Y1491700D01*
X2812100Y1491700D01*
X2809399Y1493099D01*
X2808000Y1494499D01*
X2806599Y1498499D01*
X2806599Y1510799D01*
X2806599Y1501300D02*
G01*
X2791599Y1491700D01*
X2820299Y1482699D02*
G01*
X2791599Y1463600D01*
X2820299Y1463600D02*
G01*
X2791599Y1482699D01*
X2813500Y1453299D02*
G01*
X2814799Y1453299D01*
X2817500Y1451900D01*
X2818900Y1450500D01*
X2820299Y1447800D01*
X2820299Y1442399D01*
X2818900Y1439600D01*
X2817500Y1438299D01*
X2814799Y1436900D01*
X2812100Y1436900D01*
X2809399Y1438299D01*
X2805299Y1440999D01*
X2791599Y1454600D01*
X2791599Y1435500D01*
X2820299Y1416999D02*
G01*
X2791599Y1416999D01*
X2820299Y1426500D02*
G01*
X2820299Y1407500D01*
X2820299Y1398499D02*
G01*
X2791599Y1379400D01*
X2820299Y1379400D02*
G01*
X2791599Y1398499D01*
X2782100Y1370399D02*
G01*
X2782100Y1345799D01*
X2820299Y1336799D02*
G01*
X2791599Y1336799D01*
X2791599Y1336799D02*
G01*
X2791599Y1320500D01*
X2820299Y1311500D02*
G01*
X2791599Y1311500D01*
X2820299Y1311500D02*
G01*
X2820299Y1293699D01*
X2806599Y1311500D02*
G01*
X2806599Y1300500D01*
X2791599Y1311500D02*
G01*
X2791599Y1293699D01*
X2820299Y1284699D02*
G01*
X2791599Y1284699D01*
X2820299Y1284699D02*
G01*
X2820299Y1275199D01*
X2818900Y1271100D01*
X2816199Y1268400D01*
X2813500Y1266999D01*
X2809399Y1265599D01*
X2802500Y1265599D01*
X2798500Y1266999D01*
X2795699Y1268400D01*
X2793000Y1271100D01*
X2791599Y1275199D01*
X2791599Y1284699D01*
X2896400Y1333499D02*
G01*
X2896400Y1334800D01*
X2897700Y1337500D01*
X2899099Y1338899D01*
X2901800Y1340300D01*
X2907299Y1340300D01*
X2910000Y1338899D01*
X2911400Y1337500D01*
X2912700Y1334800D01*
X2912700Y1332100D01*
X2911400Y1329400D01*
X2908599Y1325300D01*
X2895000Y1311599D01*
X2914099Y1311599D01*
X2924499Y1333499D02*
G01*
X2924499Y1334800D01*
X2925799Y1337500D01*
X2927200Y1338899D01*
X2929899Y1340300D01*
X2935399Y1340300D01*
X2938100Y1338899D01*
X2939499Y1337500D01*
X2940799Y1334800D01*
X2940799Y1332100D01*
X2939499Y1329400D01*
X2936700Y1325300D01*
X2923100Y1311599D01*
X2942200Y1311599D01*
X2959399Y1340300D02*
G01*
X2955299Y1338899D01*
X2952500Y1334800D01*
X2951199Y1328000D01*
X2951199Y1323899D01*
X2952500Y1317100D01*
X2955299Y1313000D01*
X2959399Y1311599D01*
X2962100Y1311599D01*
X2966199Y1313000D01*
X2968900Y1317100D01*
X2970299Y1323899D01*
X2970299Y1328000D01*
X2968900Y1334800D01*
X2966199Y1338899D01*
X2962100Y1340300D01*
X2959399Y1340300D01*
X2733500Y1464499D02*
G01*
X2736199Y1465900D01*
X2738900Y1468600D01*
X2740299Y1471399D01*
X2740299Y1476799D01*
X2738900Y1479499D01*
X2736199Y1482300D01*
X2733500Y1483600D01*
X2729399Y1485000D01*
X2722500Y1485000D01*
X2718500Y1483600D01*
X2715699Y1482300D01*
X2713000Y1479499D01*
X2711599Y1476799D01*
X2711599Y1471399D01*
X2713000Y1468600D01*
X2715699Y1465900D01*
X2718500Y1464499D01*
X2722500Y1464499D01*
X2722500Y1471399D02*
G01*
X2722500Y1464499D01*
X2740299Y1455500D02*
G01*
X2711599Y1455500D01*
X2740299Y1455500D02*
G01*
X2740299Y1443299D01*
X2738900Y1439200D01*
X2737500Y1437800D01*
X2734799Y1436500D01*
X2730699Y1436500D01*
X2728000Y1437800D01*
X2726599Y1439200D01*
X2725299Y1443299D01*
X2725299Y1455500D01*
X2736199Y1408400D02*
G01*
X2738900Y1411100D01*
X2740299Y1415199D01*
X2740299Y1420599D01*
X2738900Y1424699D01*
X2736199Y1427500D01*
X2733500Y1427500D01*
X2730699Y1426100D01*
X2729399Y1424699D01*
X2728000Y1421999D01*
X2725299Y1413800D01*
X2723900Y1411100D01*
X2722500Y1409699D01*
X2719799Y1408400D01*
X2715699Y1408400D01*
X2713000Y1411100D01*
X2711599Y1415199D01*
X2711599Y1420599D01*
X2713000Y1424699D01*
X2715699Y1427500D01*
X2702100Y1399400D02*
G01*
X2702100Y1374800D01*
X2740299Y1356300D02*
G01*
X2711599Y1356300D01*
X2740299Y1365799D02*
G01*
X2740299Y1346700D01*
X2740299Y1337699D02*
G01*
X2711599Y1318600D01*
X2740299Y1318600D02*
G01*
X2711599Y1337699D01*
X2733500Y1308299D02*
G01*
X2734799Y1308299D01*
X2737500Y1306900D01*
X2738900Y1305500D01*
X2740299Y1302800D01*
X2740299Y1297399D01*
X2738900Y1294600D01*
X2737500Y1293299D01*
X2734799Y1291900D01*
X2732100Y1291900D01*
X2729399Y1293299D01*
X2725299Y1295999D01*
X2711599Y1309600D01*
X2711599Y1290500D01*
X2740299Y1281500D02*
G01*
X2711599Y1281500D01*
X2740299Y1281500D02*
G01*
X2740299Y1269299D01*
X2738900Y1265199D01*
X2737500Y1263800D01*
X2734799Y1262500D01*
X2732100Y1262500D01*
X2729399Y1263800D01*
X2728000Y1265199D01*
X2726599Y1269299D01*
X2726599Y1281500D01*
X2726599Y1271999D02*
G01*
X2711599Y1262500D01*
X2740299Y1253499D02*
G01*
X2711599Y1234400D01*
X2740299Y1234400D02*
G01*
X2711599Y1253499D01*
X2702100Y1225399D02*
G01*
X2702100Y1200799D01*
X2740299Y1191799D02*
G01*
X2711599Y1191799D01*
X2711599Y1191799D02*
G01*
X2711599Y1175500D01*
X2740299Y1166500D02*
G01*
X2711599Y1166500D01*
X2740299Y1166500D02*
G01*
X2740299Y1148699D01*
X2726599Y1166500D02*
G01*
X2726599Y1155500D01*
X2711599Y1166500D02*
G01*
X2711599Y1148699D01*
X2740299Y1139699D02*
G01*
X2711599Y1139699D01*
X2740299Y1139699D02*
G01*
X2740299Y1130199D01*
X2738900Y1126100D01*
X2736199Y1123400D01*
X2733500Y1121999D01*
X2729399Y1120599D01*
X2722500Y1120599D01*
X2718500Y1121999D01*
X2715699Y1123400D01*
X2713000Y1126100D01*
X2711599Y1130199D01*
X2711599Y1139699D01*
X2896400Y1238499D02*
G01*
X2896400Y1239800D01*
X2897700Y1242500D01*
X2899099Y1243899D01*
X2901800Y1245300D01*
X2907299Y1245300D01*
X2910000Y1243899D01*
X2911400Y1242500D01*
X2912700Y1239800D01*
X2912700Y1237100D01*
X2911400Y1234400D01*
X2908599Y1230300D01*
X2895000Y1216599D01*
X2914099Y1216599D01*
X2924499Y1238499D02*
G01*
X2924499Y1239800D01*
X2925799Y1242500D01*
X2927200Y1243899D01*
X2929899Y1245300D01*
X2935399Y1245300D01*
X2938100Y1243899D01*
X2939499Y1242500D01*
X2940799Y1239800D01*
X2940799Y1237100D01*
X2939499Y1234400D01*
X2936700Y1230300D01*
X2923100Y1216599D01*
X2942200Y1216599D01*
X2959399Y1245300D02*
G01*
X2955299Y1243899D01*
X2952500Y1239800D01*
X2951199Y1233000D01*
X2951199Y1228899D01*
X2952500Y1222100D01*
X2955299Y1218000D01*
X2959399Y1216599D01*
X2962100Y1216599D01*
X2966199Y1218000D01*
X2968900Y1222100D01*
X2970299Y1228899D01*
X2970299Y1233000D01*
X2968900Y1239800D01*
X2966199Y1243899D01*
X2962100Y1245300D01*
X2959399Y1245300D01*
X708600Y165300D02*
G01*
X708600Y143499D01*
X707300Y139400D01*
X705900Y138000D01*
X703200Y136599D01*
X700500Y136599D01*
X697699Y138000D01*
X696399Y139400D01*
X695000Y143499D01*
X695000Y146199D01*
X717600Y127100D02*
G01*
X742199Y127100D01*
X751199Y165300D02*
G01*
X751199Y144800D01*
X752500Y140700D01*
X755300Y138000D01*
X759400Y136599D01*
X762100Y136599D01*
X766199Y138000D01*
X768900Y140700D01*
X770299Y144800D01*
X770299Y165300D01*
X779300Y165300D02*
G01*
X779300Y136599D01*
X779300Y136599D02*
G01*
X795600Y136599D01*
X814200Y165300D02*
G01*
X814200Y136599D01*
X804600Y165300D02*
G01*
X823699Y165300D01*
X832700Y165300D02*
G01*
X832700Y136599D01*
X832700Y165300D02*
G01*
X845000Y165300D01*
X849099Y163899D01*
X850500Y162500D01*
X851800Y159800D01*
X851800Y157100D01*
X850500Y154400D01*
X849099Y153000D01*
X845000Y151599D01*
X832700Y151599D01*
X842299Y151599D02*
G01*
X851800Y136599D01*
X871700Y165300D02*
G01*
X860799Y136599D01*
X871700Y165300D02*
G01*
X882600Y136599D01*
X864899Y146199D02*
G01*
X878500Y146199D01*
X910699Y161199D02*
G01*
X908000Y163899D01*
X903900Y165300D01*
X898500Y165300D01*
X894399Y163899D01*
X891599Y161199D01*
X891599Y158499D01*
X893000Y155700D01*
X894399Y154400D01*
X897100Y153000D01*
X905299Y150300D01*
X908000Y148899D01*
X909399Y147500D01*
X910699Y144800D01*
X910699Y140700D01*
X908000Y138000D01*
X903900Y136599D01*
X898500Y136599D01*
X894399Y138000D01*
X891599Y140700D01*
X927899Y165300D02*
G01*
X925200Y163899D01*
X922500Y161199D01*
X921099Y158499D01*
X919700Y154400D01*
X919700Y147500D01*
X921099Y143499D01*
X922500Y140700D01*
X925200Y138000D01*
X927899Y136599D01*
X933400Y136599D01*
X936099Y138000D01*
X938800Y140700D01*
X940200Y143499D01*
X941499Y147500D01*
X941499Y154400D01*
X940200Y158499D01*
X938800Y161199D01*
X936099Y163899D01*
X933400Y165300D01*
X927899Y165300D01*
X950500Y165300D02*
G01*
X950500Y136599D01*
X950500Y165300D02*
G01*
X969600Y136599D01*
X969600Y165300D02*
G01*
X969600Y136599D01*
X978599Y159800D02*
G01*
X981400Y161199D01*
X985500Y165300D01*
X985500Y136599D01*
X1139700Y975000D02*
G01*
X1168400Y975000D01*
X1168400Y975000D02*
G01*
X1168400Y991399D01*
X1139700Y1000399D02*
G01*
X1168400Y1000399D01*
X1139700Y1000399D02*
G01*
X1139700Y1018099D01*
X1153400Y1000399D02*
G01*
X1153400Y1011300D01*
X1168400Y1000399D02*
G01*
X1168400Y1018099D01*
X1139700Y1027100D02*
G01*
X1168400Y1027100D01*
X1139700Y1027100D02*
G01*
X1139700Y1036599D01*
X1141099Y1040700D01*
X1143800Y1043499D01*
X1146499Y1044800D01*
X1150600Y1046199D01*
X1157500Y1046199D01*
X1161499Y1044800D01*
X1164300Y1043499D01*
X1166999Y1040700D01*
X1168400Y1036599D01*
X1168400Y1027100D01*
X1145200Y1055199D02*
G01*
X1143800Y1057899D01*
X1139700Y1061999D01*
X1168400Y1061999D01*
X1177899Y1070999D02*
G01*
X1177899Y1095500D01*
X1146499Y1105900D02*
G01*
X1145200Y1105900D01*
X1142500Y1107300D01*
X1141099Y1108600D01*
X1139700Y1111399D01*
X1139700Y1116799D01*
X1141099Y1119499D01*
X1142500Y1120900D01*
X1145200Y1122300D01*
X1147899Y1122300D01*
X1150600Y1120900D01*
X1154700Y1118200D01*
X1168400Y1104499D01*
X1168400Y1123600D01*
D11*
X3334399Y1465000D02*
G01*
X3401199Y1465000D01*
X3334399Y1465000D02*
G01*
X3401199Y1509499D01*
X3334399Y1509499D02*
G01*
X3401199Y1509499D01*
X3334399Y1530500D02*
G01*
X3401199Y1530500D01*
X3334399Y1530500D02*
G01*
X3334399Y1559200D01*
X3337500Y1568699D01*
X3340699Y1571900D01*
X3347100Y1575100D01*
X3353500Y1575100D01*
X3359799Y1571900D01*
X3363000Y1568699D01*
X3366199Y1559200D01*
X3366199Y1530500D01*
X3366199Y1552800D02*
G01*
X3401199Y1575100D01*
X3334399Y1596100D02*
G01*
X3401199Y1596100D01*
X3334399Y1596100D02*
G01*
X3334399Y1637500D01*
X3366199Y1596100D02*
G01*
X3366199Y1621500D01*
X3350299Y1661599D02*
G01*
X3347100Y1661599D01*
X3340699Y1664800D01*
X3337500Y1668000D01*
X3334399Y1674400D01*
X3334399Y1687100D01*
X3337500Y1693499D01*
X3340699Y1696599D01*
X3347100Y1699800D01*
X3353500Y1699800D01*
X3359799Y1696599D01*
X3369399Y1690300D01*
X3401199Y1658499D01*
X3401199Y1703000D01*
X3334399Y1755799D02*
G01*
X3378900Y1724000D01*
X3378900Y1771700D01*
X3334399Y1755799D02*
G01*
X3401199Y1755799D01*
X3334399Y1811799D02*
G01*
X3337500Y1802300D01*
X3347100Y1795900D01*
X3363000Y1792699D01*
X3372500Y1792699D01*
X3388500Y1795900D01*
X3398000Y1802300D01*
X3401199Y1811799D01*
X3401199Y1818200D01*
X3398000Y1827699D01*
X3388500Y1834099D01*
X3372500Y1837300D01*
X3363000Y1837300D01*
X3347100Y1834099D01*
X3337500Y1827699D01*
X3334399Y1818200D01*
X3334399Y1811799D01*
X3347100Y1858299D02*
G01*
X3343900Y1864600D01*
X3334399Y1874200D01*
X3401199Y1874200D01*
D10*
X3056499Y1531399D02*
G01*
X3055200Y1531399D01*
X3052500Y1532699D01*
X3051099Y1534099D01*
X3049700Y1536799D01*
X3049700Y1542300D01*
X3051099Y1545000D01*
X3052500Y1546399D01*
X3055200Y1547699D01*
X3057899Y1547699D01*
X3060600Y1546399D01*
X3064700Y1543600D01*
X3078400Y1530000D01*
X3078400Y1549099D01*
X3056499Y1559499D02*
G01*
X3055200Y1559499D01*
X3052500Y1560799D01*
X3051099Y1562199D01*
X3049700Y1564899D01*
X3049700Y1570399D01*
X3051099Y1573099D01*
X3052500Y1574499D01*
X3055200Y1575799D01*
X3057899Y1575799D01*
X3060600Y1574499D01*
X3064700Y1571700D01*
X3078400Y1558099D01*
X3078400Y1577199D01*
X3049700Y1594400D02*
G01*
X3051099Y1590300D01*
X3055200Y1587500D01*
X3061999Y1586199D01*
X3066099Y1586199D01*
X3072899Y1587500D01*
X3076999Y1590300D01*
X3078400Y1594400D01*
X3078400Y1597100D01*
X3076999Y1601199D01*
X3072899Y1603899D01*
X3066099Y1605300D01*
X3061999Y1605300D01*
X3055200Y1603899D01*
X3051099Y1601199D01*
X3049700Y1597100D01*
X3049700Y1594400D01*
X3925200Y1820000D02*
G01*
X3923800Y1822699D01*
X3919700Y1826799D01*
X3948400Y1826799D01*
X3919700Y1844000D02*
G01*
X3921099Y1839899D01*
X3925200Y1837199D01*
X3931999Y1835799D01*
X3936099Y1835799D01*
X3942899Y1837199D01*
X3946999Y1839899D01*
X3948400Y1844000D01*
X3948400Y1846700D01*
X3946999Y1850799D01*
X3942899Y1853499D01*
X3936099Y1854899D01*
X3931999Y1854899D01*
X3925200Y1853499D01*
X3921099Y1850799D01*
X3919700Y1846700D01*
X3919700Y1844000D01*
X3919700Y1863899D02*
G01*
X3948400Y1863899D01*
X3919700Y1883000D02*
G01*
X3938800Y1863899D01*
X3931999Y1870700D02*
G01*
X3948400Y1883000D01*
X2951499Y1531399D02*
G01*
X2950200Y1531399D01*
X2947500Y1532699D01*
X2946099Y1534099D01*
X2944700Y1536799D01*
X2944700Y1542300D01*
X2946099Y1545000D01*
X2947500Y1546399D01*
X2950200Y1547699D01*
X2952899Y1547699D01*
X2955600Y1546399D01*
X2959700Y1543600D01*
X2973400Y1530000D01*
X2973400Y1549099D01*
X2951499Y1559499D02*
G01*
X2950200Y1559499D01*
X2947500Y1560799D01*
X2946099Y1562199D01*
X2944700Y1564899D01*
X2944700Y1570399D01*
X2946099Y1573099D01*
X2947500Y1574499D01*
X2950200Y1575799D01*
X2952899Y1575799D01*
X2955600Y1574499D01*
X2959700Y1571700D01*
X2973400Y1558099D01*
X2973400Y1577199D01*
X2944700Y1594400D02*
G01*
X2946099Y1590300D01*
X2950200Y1587500D01*
X2956999Y1586199D01*
X2961099Y1586199D01*
X2967899Y1587500D01*
X2971999Y1590300D01*
X2973400Y1594400D01*
X2973400Y1597100D01*
X2971999Y1601199D01*
X2967899Y1603899D01*
X2961099Y1605300D01*
X2956999Y1605300D01*
X2950200Y1603899D01*
X2946099Y1601199D01*
X2944700Y1597100D01*
X2944700Y1594400D01*
X3930200Y1320000D02*
G01*
X3928800Y1322699D01*
X3924700Y1326799D01*
X3953400Y1326799D01*
X3924700Y1344000D02*
G01*
X3926099Y1339899D01*
X3930200Y1337199D01*
X3936999Y1335799D01*
X3941099Y1335799D01*
X3947899Y1337199D01*
X3951999Y1339899D01*
X3953400Y1344000D01*
X3953400Y1346700D01*
X3951999Y1350799D01*
X3947899Y1353499D01*
X3941099Y1354899D01*
X3936999Y1354899D01*
X3930200Y1353499D01*
X3926099Y1350799D01*
X3924700Y1346700D01*
X3924700Y1344000D01*
X3924700Y1363899D02*
G01*
X3953400Y1363899D01*
X3924700Y1383000D02*
G01*
X3943800Y1363899D01*
X3936999Y1370700D02*
G01*
X3953400Y1383000D01*
X2294099Y1313200D02*
G01*
X2296400Y1310900D01*
X2299799Y1309800D01*
X2304300Y1309800D01*
X2307700Y1310900D01*
X2310000Y1313200D01*
X2310000Y1315500D01*
X2308900Y1317699D01*
X2307700Y1318899D01*
X2305500Y1320000D01*
X2298599Y1322300D01*
X2296400Y1323400D01*
X2295200Y1324499D01*
X2294099Y1326799D01*
X2294099Y1330199D01*
X2296400Y1332500D01*
X2299799Y1333600D01*
X2304300Y1333600D01*
X2307700Y1332500D01*
X2310000Y1330199D01*
X2286599Y1309800D02*
G01*
X2280900Y1333600D01*
X2275200Y1309800D02*
G01*
X2280900Y1333600D01*
X2275200Y1309800D02*
G01*
X2269499Y1333600D01*
X2263900Y1309800D02*
G01*
X2269499Y1333600D01*
X2255200Y1315500D02*
G01*
X2255200Y1314299D01*
X2254099Y1311999D01*
X2253000Y1310900D01*
X2250699Y1309800D01*
X2246099Y1309800D01*
X2243900Y1310900D01*
X2242700Y1311999D01*
X2241599Y1314299D01*
X2241599Y1316599D01*
X2242700Y1318899D01*
X2245000Y1322300D01*
X2256400Y1333600D01*
X2240500Y1333600D01*
X3740399Y555000D02*
G01*
X3709700Y555000D01*
X3703599Y553000D01*
X3699499Y548899D01*
X3697500Y542699D01*
X3697500Y538600D01*
X3699499Y532500D01*
X3703599Y528400D01*
X3709700Y526399D01*
X3740399Y526399D01*
X3740399Y488299D02*
G01*
X3740399Y508800D01*
X3721999Y510799D01*
X3723999Y508800D01*
X3726099Y502600D01*
X3726099Y496500D01*
X3723999Y490399D01*
X3720000Y486300D01*
X3713800Y484200D01*
X3709700Y484200D01*
X3703599Y486300D01*
X3699499Y490399D01*
X3697500Y496500D01*
X3697500Y502600D01*
X3699499Y508800D01*
X3701499Y510799D01*
X3705600Y512899D01*
X940000Y2085199D02*
G01*
X940000Y2061399D01*
X940000Y2085199D02*
G01*
X954799Y2085199D01*
X940000Y2073899D02*
G01*
X949099Y2073899D01*
X962299Y2080700D02*
G01*
X964499Y2081799D01*
X968000Y2085199D01*
X968000Y2061399D01*
X975500Y2053400D02*
G01*
X995900Y2053400D01*
X1003400Y2080700D02*
G01*
X1005699Y2081799D01*
X1009099Y2085199D01*
X1009099Y2061399D01*
X2410000Y2086199D02*
G01*
X2410000Y2061399D01*
X2410000Y2086199D02*
G01*
X2425399Y2086199D01*
X2410000Y2074400D02*
G01*
X2419499Y2074400D01*
X2433199Y2081500D02*
G01*
X2435500Y2082699D01*
X2439099Y2086199D01*
X2439099Y2061399D01*
X2446899Y2053099D02*
G01*
X2468100Y2053099D01*
X2477100Y2080300D02*
G01*
X2477100Y2081500D01*
X2478299Y2083899D01*
X2479499Y2085100D01*
X2481899Y2086199D01*
X2486599Y2086199D01*
X2488900Y2085100D01*
X2490100Y2083899D01*
X2491300Y2081500D01*
X2491300Y2079099D01*
X2490100Y2076799D01*
X2487799Y2073200D01*
X2475900Y2061399D01*
X2492500Y2061399D01*
X2805000Y2085199D02*
G01*
X2805000Y2061399D01*
X2805000Y2085199D02*
G01*
X2819799Y2085199D01*
X2805000Y2073899D02*
G01*
X2814099Y2073899D01*
X2827299Y2080700D02*
G01*
X2829499Y2081799D01*
X2833000Y2085199D01*
X2833000Y2061399D01*
X2840500Y2053400D02*
G01*
X2860900Y2053400D01*
X2870699Y2085199D02*
G01*
X2883199Y2085199D01*
X2876400Y2076100D01*
X2879799Y2076100D01*
X2881999Y2075000D01*
X2883199Y2073899D01*
X2884300Y2070500D01*
X2884300Y2068200D01*
X2883199Y2064800D01*
X2880900Y2062500D01*
X2877500Y2061399D01*
X2874099Y2061399D01*
X2870699Y2062500D01*
X2869499Y2063600D01*
X2868400Y2065900D01*
X3260000Y9699D02*
G01*
X3260000Y38400D01*
X3260000Y9699D02*
G01*
X3242299Y9699D01*
X3260000Y23400D02*
G01*
X3249099Y23400D01*
X3230500Y9699D02*
G01*
X3215500Y9699D01*
X3223699Y20599D01*
X3219600Y20599D01*
X3216899Y21999D01*
X3215500Y23400D01*
X3214200Y27500D01*
X3214200Y30199D01*
X3215500Y34299D01*
X3218299Y36999D01*
X3222399Y38400D01*
X3226499Y38400D01*
X3230500Y36999D01*
X3231899Y35599D01*
X3233299Y32899D01*
X3205200Y47899D02*
G01*
X3180600Y47899D01*
X3171599Y15199D02*
G01*
X3168900Y13800D01*
X3164799Y9699D01*
X3164799Y38400D01*
X2460000Y9699D02*
G01*
X2460000Y38400D01*
X2460000Y9699D02*
G01*
X2442299Y9699D01*
X2460000Y23400D02*
G01*
X2449099Y23400D01*
X2430500Y9699D02*
G01*
X2415500Y9699D01*
X2423699Y20599D01*
X2419600Y20599D01*
X2416899Y21999D01*
X2415500Y23400D01*
X2414200Y27500D01*
X2414200Y30199D01*
X2415500Y34299D01*
X2418299Y36999D01*
X2422399Y38400D01*
X2426499Y38400D01*
X2430500Y36999D01*
X2431899Y35599D01*
X2433299Y32899D01*
X2405200Y47899D02*
G01*
X2380600Y47899D01*
X2370299Y16500D02*
G01*
X2370299Y15199D01*
X2368900Y12500D01*
X2367500Y11100D01*
X2364799Y9699D01*
X2359399Y9699D01*
X2356599Y11100D01*
X2355299Y12500D01*
X2353900Y15199D01*
X2353900Y17899D01*
X2355299Y20599D01*
X2358000Y24699D01*
X2371599Y38400D01*
X2352500Y38400D01*
X575000Y234699D02*
G01*
X575000Y255199D01*
X573600Y259299D01*
X570900Y261999D01*
X566799Y263400D01*
X564099Y263400D01*
X560000Y261999D01*
X557300Y259299D01*
X555900Y255199D01*
X555900Y234699D01*
X545500Y241500D02*
G01*
X545500Y240199D01*
X544200Y237500D01*
X542800Y236100D01*
X540100Y234699D01*
X534600Y234699D01*
X531900Y236100D01*
X530500Y237500D01*
X529200Y240199D01*
X529200Y242899D01*
X530500Y245599D01*
X533299Y249699D01*
X546900Y263400D01*
X527800Y263400D01*
D11*
X680700Y1085000D02*
G01*
X604400Y1085000D01*
X604400Y1085000D02*
G01*
X604400Y1041399D01*
X669800Y966500D02*
G01*
X677100Y973699D01*
X680700Y984600D01*
X680700Y999200D01*
X677100Y1010100D01*
X669800Y1017399D01*
X662500Y1017399D01*
X655300Y1013699D01*
X651599Y1010100D01*
X648000Y1002800D01*
X640700Y980999D01*
X637100Y973699D01*
X633499Y970100D01*
X626199Y966500D01*
X615300Y966500D01*
X608000Y973699D01*
X604400Y984600D01*
X604400Y999200D01*
X608000Y1010100D01*
X615300Y1017399D01*
X680700Y942500D02*
G01*
X604400Y942500D01*
X680700Y942500D02*
G01*
X604400Y913400D01*
X680700Y884299D02*
G01*
X604400Y913400D01*
X680700Y884299D02*
G01*
X604400Y884299D01*
X655300Y813000D02*
G01*
X644400Y816599D01*
X637100Y823899D01*
X633499Y834800D01*
X633499Y838499D01*
X637100Y849400D01*
X644400Y856599D01*
X655300Y860300D01*
X658899Y860300D01*
X669800Y856599D01*
X677100Y849400D01*
X680700Y838499D01*
X680700Y834800D01*
X677100Y823899D01*
X669800Y816599D01*
X655300Y813000D01*
X637100Y813000D01*
X618899Y816599D01*
X608000Y823899D01*
X604400Y834800D01*
X604400Y842100D01*
X608000Y853000D01*
X615300Y856599D01*
X680700Y789000D02*
G01*
X604400Y789000D01*
X680700Y789000D02*
G01*
X680700Y763499D01*
X677100Y752600D01*
X669800Y745399D01*
X662500Y741700D01*
X651599Y738099D01*
X633499Y738099D01*
X622500Y741700D01*
X615300Y745399D01*
X608000Y752600D01*
X604400Y763499D01*
X604400Y789000D01*
X669800Y663200D02*
G01*
X677100Y670500D01*
X680700Y681399D01*
X680700Y695900D01*
X677100Y706799D01*
X669800Y714099D01*
X662500Y714099D01*
X655300Y710500D01*
X651599Y706799D01*
X648000Y699499D01*
X640700Y677699D01*
X637100Y670500D01*
X633499Y666799D01*
X626199Y663200D01*
X615300Y663200D01*
X608000Y670500D01*
X604400Y681399D01*
X604400Y695900D01*
X608000Y706799D01*
X615300Y714099D01*
X666199Y639200D02*
G01*
X669800Y631900D01*
X680700Y620999D01*
X604400Y620999D01*
D12*
=======
X2120000Y305700D02*
G01*
X2120000Y229400D01*
X2120000Y305700D02*
G01*
X2152700Y305700D01*
X2163599Y302100D01*
X2167299Y298499D01*
X2170900Y291199D01*
X2170900Y280300D01*
X2167299Y273000D01*
X2163599Y269400D01*
X2152700Y265700D01*
X2120000Y265700D01*
X2194899Y305700D02*
G01*
X2194899Y229400D01*
X2194899Y305700D02*
G01*
X2227600Y305700D01*
X2238500Y302100D01*
X2242200Y298499D01*
X2245799Y291199D01*
X2245799Y280300D01*
X2242200Y273000D01*
X2238500Y269400D01*
X2227600Y265700D01*
X2194899Y265700D01*
X2320699Y294800D02*
G01*
X2313500Y302100D01*
X2302500Y305700D01*
X2288000Y305700D01*
X2277100Y302100D01*
X2269799Y294800D01*
X2269799Y287500D01*
X2273500Y280300D01*
X2277100Y276599D01*
X2284399Y273000D01*
X2306199Y265700D01*
X2313500Y262100D01*
X2317100Y258499D01*
X2320699Y251199D01*
X2320699Y240300D01*
X2313500Y233000D01*
X2302500Y229400D01*
X2288000Y229400D01*
X2277100Y233000D01*
X2269799Y240300D01*
D10*
X845500Y170399D02*
G01*
X845500Y137699D01*
X843400Y131500D01*
X841400Y129499D01*
X837299Y127500D01*
X833199Y127500D01*
X829099Y129499D01*
X826999Y131500D01*
X825000Y137699D01*
X825000Y141799D01*
X858999Y113099D02*
G01*
X895799Y113099D01*
X909300Y170399D02*
G01*
X909300Y139699D01*
X911300Y133600D01*
X915399Y129499D01*
X921499Y127500D01*
X925600Y127500D01*
X931800Y129499D01*
X935900Y133600D01*
X937899Y139699D01*
X937899Y170399D01*
X951400Y170399D02*
G01*
X951400Y127500D01*
X951400Y127500D02*
G01*
X976000Y127500D01*
X1003800Y170399D02*
G01*
X1003800Y127500D01*
X989499Y170399D02*
G01*
X1018100Y170399D01*
X1031599Y170399D02*
G01*
X1031599Y127500D01*
X1031599Y170399D02*
G01*
X1050000Y170399D01*
X1056099Y168400D01*
X1058199Y166300D01*
X1060200Y162199D01*
X1060200Y158099D01*
X1058199Y154000D01*
X1056099Y151999D01*
X1050000Y150000D01*
X1031599Y150000D01*
X1045900Y150000D02*
G01*
X1060200Y127500D01*
X1090100Y170399D02*
G01*
X1073699Y127500D01*
X1090100Y170399D02*
G01*
X1106499Y127500D01*
X1079899Y141799D02*
G01*
X1100299Y141799D01*
X1148599Y164299D02*
G01*
X1144499Y168400D01*
X1138400Y170399D01*
X1130200Y170399D01*
X1123999Y168400D01*
X1120000Y164299D01*
X1120000Y160199D01*
X1121999Y156100D01*
X1123999Y154000D01*
X1128100Y151999D01*
X1140399Y147899D01*
X1144499Y145900D01*
X1146499Y143800D01*
X1148599Y139699D01*
X1148599Y133600D01*
X1144499Y129499D01*
X1138400Y127500D01*
X1130200Y127500D01*
X1123999Y129499D01*
X1120000Y133600D01*
X1174399Y170399D02*
G01*
X1170299Y168400D01*
X1166199Y164299D01*
X1164099Y160199D01*
X1162100Y154000D01*
X1162100Y143800D01*
X1164099Y137699D01*
X1166199Y133600D01*
X1170299Y129499D01*
X1174399Y127500D01*
X1182500Y127500D01*
X1186599Y129499D01*
X1190699Y133600D01*
X1192799Y137699D01*
X1194799Y143800D01*
X1194799Y154000D01*
X1192799Y160199D01*
X1190699Y164299D01*
X1186599Y168400D01*
X1182500Y170399D01*
X1174399Y170399D01*
X1208299Y170399D02*
G01*
X1208299Y127500D01*
X1208299Y170399D02*
G01*
X1236999Y127500D01*
X1236999Y170399D02*
G01*
X1236999Y127500D01*
X1250500Y162199D02*
G01*
X1254499Y164299D01*
X1260699Y170399D01*
X1260699Y127500D01*
X1029600Y1015000D02*
G01*
X1072500Y1015000D01*
X1072500Y1015000D02*
G01*
X1072500Y1039499D01*
X1029600Y1053000D02*
G01*
X1072500Y1053000D01*
X1029600Y1053000D02*
G01*
X1029600Y1079600D01*
X1050000Y1053000D02*
G01*
X1050000Y1069400D01*
X1072500Y1053000D02*
G01*
X1072500Y1079600D01*
X1029600Y1093099D02*
G01*
X1072500Y1093099D01*
X1029600Y1093099D02*
G01*
X1029600Y1107500D01*
X1031599Y1113600D01*
X1035699Y1117699D01*
X1039799Y1119699D01*
X1046000Y1121799D01*
X1056199Y1121799D01*
X1062299Y1119699D01*
X1066400Y1117699D01*
X1070500Y1113600D01*
X1072500Y1107500D01*
X1072500Y1093099D01*
X1037799Y1135300D02*
G01*
X1035699Y1139400D01*
X1029600Y1145500D01*
X1072500Y1145500D01*
X1086899Y1159000D02*
G01*
X1086899Y1195799D01*
X1039799Y1211399D02*
G01*
X1037799Y1211399D01*
X1033699Y1213400D01*
X1031599Y1215500D01*
X1029600Y1219499D01*
X1029600Y1227699D01*
X1031599Y1231799D01*
X1033699Y1233899D01*
X1037799Y1235900D01*
X1041899Y1235900D01*
X1046000Y1233899D01*
X1052100Y1229800D01*
X1072500Y1209299D01*
X1072500Y1238000D01*
X3381000Y1146244D02*
G01*
X3381000Y1189144D01*
X3381000Y1146244D02*
G01*
X3364600Y1189144D01*
X3348299Y1146244D02*
G01*
X3364600Y1189144D01*
X3348299Y1146244D02*
G01*
X3348299Y1189144D01*
X3334799Y1146244D02*
G01*
X3334799Y1189144D01*
X3306099Y1146244D02*
G01*
X3334799Y1174845D01*
X3324499Y1164645D02*
G01*
X3306099Y1189144D01*
X3290600Y1156444D02*
G01*
X3290600Y1154445D01*
X3288500Y1150345D01*
X3286499Y1148245D01*
X3282399Y1146244D01*
X3274200Y1146244D01*
X3270100Y1148245D01*
X3268100Y1150345D01*
X3266000Y1154445D01*
X3266000Y1158544D01*
X3268100Y1162645D01*
X3272200Y1168744D01*
X3292600Y1189144D01*
X3263999Y1189144D01*
X3829600Y1850000D02*
G01*
X3872500Y1850000D01*
X3829600Y1850000D02*
G01*
X3829600Y1868400D01*
X3831599Y1874499D01*
X3833699Y1876599D01*
X3837799Y1878600D01*
X3841899Y1878600D01*
X3846000Y1876599D01*
X3848000Y1874499D01*
X3850000Y1868400D01*
X3850000Y1850000D01*
X3850000Y1864299D02*
G01*
X3872500Y1878600D01*
X3837799Y1892100D02*
G01*
X3835699Y1896199D01*
X3829600Y1902399D01*
X3872500Y1902399D01*
X3886899Y1915900D02*
G01*
X3886899Y1952699D01*
X3839799Y1968200D02*
G01*
X3837799Y1968200D01*
X3833699Y1970300D01*
X3831599Y1972300D01*
X3829600Y1976399D01*
X3829600Y1984600D01*
X3831599Y1988699D01*
X3833699Y1990700D01*
X3837799Y1992800D01*
X3841899Y1992800D01*
X3846000Y1990700D01*
X3852100Y1986599D01*
X3872500Y1966199D01*
X3872500Y1994800D01*
X3829600Y1365000D02*
G01*
X3872500Y1365000D01*
X3829600Y1365000D02*
G01*
X3829600Y1383400D01*
X3831599Y1389499D01*
X3833699Y1391599D01*
X3837799Y1393600D01*
X3841899Y1393600D01*
X3846000Y1391599D01*
X3848000Y1389499D01*
X3850000Y1383400D01*
X3850000Y1365000D01*
X3850000Y1379299D02*
G01*
X3872500Y1393600D01*
X3839799Y1409200D02*
G01*
X3837799Y1409200D01*
X3833699Y1411199D01*
X3831599Y1413299D01*
X3829600Y1417399D01*
X3829600Y1425500D01*
X3831599Y1429600D01*
X3833699Y1431700D01*
X3837799Y1433699D01*
X3841899Y1433699D01*
X3846000Y1431700D01*
X3852100Y1427600D01*
X3872500Y1407100D01*
X3872500Y1435799D01*
X3886899Y1449299D02*
G01*
X3886899Y1486100D01*
X3839799Y1501599D02*
G01*
X3837799Y1501599D01*
X3833699Y1503699D01*
X3831599Y1505700D01*
X3829600Y1509800D01*
X3829600Y1518000D01*
X3831599Y1522100D01*
X3833699Y1524099D01*
X3837799Y1526199D01*
X3841899Y1526199D01*
X3846000Y1524099D01*
X3852100Y1520000D01*
X3872500Y1499600D01*
X3872500Y1528200D01*
X670000Y69600D02*
G01*
X670000Y100300D01*
X668000Y106399D01*
X663899Y110500D01*
X657699Y112500D01*
X653600Y112500D01*
X647500Y110500D01*
X643400Y106399D01*
X641399Y100300D01*
X641399Y69600D01*
X625799Y79800D02*
G01*
X625799Y77800D01*
X623800Y73699D01*
X621700Y71599D01*
X617600Y69600D01*
X609499Y69600D01*
X605399Y71599D01*
X603299Y73699D01*
X601300Y77800D01*
X601300Y81900D01*
X603299Y85999D01*
X607399Y92100D01*
X627899Y112500D01*
X599200Y112500D01*
D12*
X687658Y963883D02*
G01*
X650059Y978184D01*
X687658Y963883D02*
G01*
X650059Y949583D01*
X662658Y972883D02*
G01*
X662658Y954983D01*
X687658Y916284D02*
G01*
X650059Y916284D01*
X669758Y916284D02*
G01*
X673359Y919884D01*
X675158Y923483D01*
X675158Y928784D01*
X673359Y932384D01*
X669758Y935983D01*
X664459Y937784D01*
X660859Y937784D01*
X655459Y935983D01*
X651858Y932384D01*
X650059Y928784D01*
X650059Y923483D01*
X651858Y919884D01*
X655459Y916284D01*
X675158Y882984D02*
G01*
X650059Y882984D01*
X669758Y882984D02*
G01*
X673359Y886583D01*
X675158Y890183D01*
X675158Y895583D01*
X673359Y899083D01*
X669758Y902683D01*
X664459Y904484D01*
X660859Y904484D01*
X655459Y902683D01*
X651858Y899083D01*
X650059Y895583D01*
X650059Y890183D01*
X651858Y886583D01*
X655459Y882984D01*
X687658Y856884D02*
G01*
X687658Y860484D01*
X685859Y864083D01*
X680558Y865884D01*
X650059Y865884D01*
X675158Y871183D02*
G01*
X675158Y858683D01*
X675158Y845084D02*
G01*
X650059Y845084D01*
X664459Y845084D02*
G01*
X669758Y843283D01*
X673359Y839684D01*
X675158Y836084D01*
X675158Y830783D01*
X675158Y818984D02*
G01*
X657258Y818984D01*
X651858Y817184D01*
X650059Y813584D01*
X650059Y808184D01*
X651858Y804684D01*
X657258Y799283D01*
X675158Y799283D02*
G01*
X650059Y799283D01*
X687658Y787483D02*
G01*
X685859Y785684D01*
X687658Y783883D01*
X689459Y785684D01*
X687658Y787483D01*
X675158Y785684D02*
G01*
X650059Y785684D01*
X687658Y766684D02*
G01*
X657258Y766684D01*
X651858Y764884D01*
X650059Y761284D01*
X650059Y757784D01*
X675158Y772083D02*
G01*
X675158Y759583D01*
X675158Y695084D02*
G01*
X669758Y696884D01*
X666158Y700484D01*
X664459Y705884D01*
X664459Y707683D01*
X666158Y712984D01*
X669758Y716583D01*
X675158Y718384D01*
X676959Y718384D01*
X682359Y716583D01*
X685859Y712984D01*
X687658Y707683D01*
X687658Y705884D01*
X685859Y700484D01*
X682359Y696884D01*
X675158Y695084D01*
X666158Y695084D01*
X657258Y696884D01*
X651858Y700484D01*
X650059Y705884D01*
X650059Y709384D01*
X651858Y714783D01*
X655459Y716583D01*
X666158Y683283D02*
G01*
X666158Y651084D01*
X687658Y639283D02*
G01*
X650059Y639283D01*
X687658Y639283D02*
G01*
X687658Y626783D01*
X685859Y621383D01*
X682359Y617784D01*
X678759Y615983D01*
X673359Y614184D01*
X664459Y614184D01*
X659059Y615983D01*
X655459Y617784D01*
X651858Y621383D01*
X650059Y626783D01*
X650059Y639283D01*
X687658Y591684D02*
G01*
X685859Y595284D01*
X682359Y598883D01*
X678759Y600583D01*
X673359Y602384D01*
X664459Y602384D01*
X659059Y600583D01*
X655459Y598883D01*
X651858Y595284D01*
X650059Y591684D01*
X650059Y584484D01*
X651858Y580983D01*
X655459Y577384D01*
X659059Y575583D01*
X664459Y573784D01*
X673359Y573784D01*
X678759Y575583D01*
X682359Y577384D01*
X685859Y580983D01*
X687658Y584484D01*
X687658Y591684D01*
X687658Y561984D02*
G01*
X650059Y561984D01*
X687658Y561984D02*
G01*
X687658Y538683D01*
X669758Y561984D02*
G01*
X669758Y547683D01*
X687658Y499384D02*
G01*
X650059Y499384D01*
X650059Y499384D02*
G01*
X650059Y477883D01*
X682359Y440983D02*
G01*
X685859Y444583D01*
X687658Y449983D01*
X687658Y457083D01*
X685859Y462483D01*
X682359Y466084D01*
X678759Y466084D01*
X675158Y464283D01*
X673359Y462483D01*
X671559Y458883D01*
X667959Y448184D01*
X666158Y444583D01*
X664459Y442784D01*
X660859Y440983D01*
X655459Y440983D01*
X651858Y444583D01*
X650059Y449983D01*
X650059Y457083D01*
X651858Y462483D01*
X655459Y466084D01*
X687658Y429184D02*
G01*
X650059Y429184D01*
X687658Y429184D02*
G01*
X650059Y414884D01*
X687658Y400583D02*
G01*
X650059Y414884D01*
X687658Y400583D02*
G01*
X650059Y400583D01*
X675158Y365484D02*
G01*
X669758Y367283D01*
X666158Y370884D01*
X664459Y376183D01*
X664459Y377984D01*
X666158Y383384D01*
X669758Y386984D01*
X675158Y388784D01*
X676959Y388784D01*
X682359Y386984D01*
X685859Y383384D01*
X687658Y377984D01*
X687658Y376183D01*
X685859Y370884D01*
X682359Y367283D01*
X675158Y365484D01*
X666158Y365484D01*
X657258Y367283D01*
X651858Y370884D01*
X650059Y376183D01*
X650059Y379783D01*
X651858Y385183D01*
X655459Y386984D01*
X687658Y353683D02*
G01*
X650059Y353683D01*
X687658Y353683D02*
G01*
X687658Y341183D01*
X685859Y335783D01*
X682359Y332184D01*
X678759Y330383D01*
X673359Y328584D01*
X664459Y328584D01*
X659059Y330383D01*
X655459Y332184D01*
X651858Y335783D01*
X650059Y341183D01*
X650059Y353683D01*
X682359Y291783D02*
G01*
X685859Y295284D01*
X687658Y300684D01*
X687658Y307883D01*
X685859Y313184D01*
X682359Y316783D01*
X678759Y316783D01*
X675158Y314983D01*
X673359Y313184D01*
X671559Y309684D01*
X667959Y298883D01*
X666158Y295284D01*
X664459Y293584D01*
X660859Y291783D01*
X655459Y291783D01*
X651858Y295284D01*
X650059Y300684D01*
X650059Y307883D01*
X651858Y313184D01*
X655459Y316783D01*
X680558Y279983D02*
G01*
X682359Y276383D01*
X687658Y270983D01*
X650059Y270983D01*
D13*
>>>>>>> main
X863701Y1011707D02*
G01*
X863701Y1041806D01*
X863701Y1011707D02*
G01*
X853701Y1011707D01*
X849400Y1013107D01*
X846601Y1016006D01*
X845101Y1018906D01*
X843701Y1023207D01*
X843701Y1030306D01*
X845101Y1034607D01*
X846601Y1037507D01*
X849400Y1040306D01*
X853701Y1041806D01*
X863701Y1041806D01*
X825700Y1011707D02*
G01*
X828500Y1013107D01*
X831400Y1016006D01*
X832800Y1018906D01*
X834201Y1023207D01*
X834201Y1030306D01*
X832800Y1034607D01*
X831400Y1037507D01*
X828500Y1040306D01*
X825700Y1041806D01*
X819900Y1041806D01*
X817101Y1040306D01*
X814201Y1037507D01*
X812800Y1034607D01*
X811301Y1030306D01*
X811301Y1023207D01*
X812800Y1018906D01*
X814201Y1016006D01*
X817101Y1013107D01*
X819900Y1011707D01*
X825700Y1011707D01*
X801900Y1011707D02*
G01*
X801900Y1041806D01*
X801900Y1011707D02*
G01*
X790401Y1041806D01*
X779000Y1011707D02*
G01*
X790401Y1041806D01*
X779000Y1011707D02*
G01*
X779000Y1041806D01*
X843701Y916006D02*
G01*
X846601Y913107D01*
X850901Y911707D01*
X856601Y911707D01*
X860901Y913107D01*
X863701Y916006D01*
X863701Y918906D01*
X862300Y921707D01*
X860901Y923207D01*
X858001Y924607D01*
X849400Y927507D01*
X846601Y928906D01*
X845101Y930306D01*
X843701Y933207D01*
X843701Y937507D01*
X846601Y940306D01*
X850901Y941806D01*
X856601Y941806D01*
X860901Y940306D01*
X863701Y937507D01*
X834201Y911707D02*
G01*
X834201Y941806D01*
X834201Y911707D02*
G01*
X824201Y911707D01*
X819900Y913107D01*
X817101Y916006D01*
X815600Y918906D01*
X814201Y923207D01*
X814201Y930306D01*
X815600Y934607D01*
X817101Y937507D01*
X819900Y940306D01*
X824201Y941806D01*
X834201Y941806D01*
X796201Y911707D02*
G01*
X799000Y913107D01*
X801900Y916006D01*
X803301Y918906D01*
X804800Y923207D01*
X804800Y930306D01*
X803301Y934607D01*
X801900Y937507D01*
X799000Y940306D01*
X796201Y941806D01*
X790401Y941806D01*
X787601Y940306D01*
X784700Y937507D01*
X783301Y934607D01*
X781800Y930306D01*
X781800Y923207D01*
X783301Y918906D01*
X784700Y916006D01*
X787601Y913107D01*
X790401Y911707D01*
X796201Y911707D01*
X760901Y911707D02*
G01*
X772400Y941806D01*
X760901Y911707D02*
G01*
X749501Y941806D01*
X768100Y931806D02*
G01*
X753800Y931806D01*
X718600Y918906D02*
G01*
X720001Y916006D01*
X722901Y913107D01*
X725700Y911707D01*
X731500Y911707D01*
X734301Y913107D01*
X737201Y916006D01*
X738600Y918906D01*
X740001Y923207D01*
X740001Y930306D01*
X738600Y934607D01*
X737201Y937507D01*
X734301Y940306D01*
X731500Y941806D01*
X725700Y941806D01*
X722901Y940306D01*
X720001Y937507D01*
X718600Y934607D01*
X718600Y930306D01*
X725700Y930306D02*
G01*
X718600Y930306D01*
X842300Y718906D02*
G01*
X843701Y716006D01*
X846601Y713107D01*
X849400Y711707D01*
X855101Y711707D01*
X858001Y713107D01*
X860901Y716006D01*
X862300Y718906D01*
X863701Y723207D01*
X863701Y730306D01*
X862300Y734607D01*
X860901Y737507D01*
X858001Y740306D01*
X855101Y741806D01*
X849400Y741806D01*
X846601Y740306D01*
X843701Y737507D01*
X842300Y734607D01*
X812800Y716006D02*
G01*
X815600Y713107D01*
X819900Y711707D01*
X825700Y711707D01*
X830001Y713107D01*
X832800Y716006D01*
X832800Y718906D01*
X831400Y721707D01*
X830001Y723207D01*
X827101Y724607D01*
X818500Y727507D01*
X815600Y728906D01*
X814201Y730306D01*
X812800Y733207D01*
X812800Y737507D01*
X815600Y740306D01*
X819900Y741806D01*
X825700Y741806D01*
X830001Y740306D01*
X832800Y737507D01*
X791900Y711707D02*
G01*
X803301Y741806D01*
X791900Y711707D02*
G01*
X780401Y741806D01*
X799000Y731806D02*
G01*
X784700Y731806D01*
X749501Y718906D02*
G01*
X750900Y716006D01*
X753800Y713107D01*
X756700Y711707D01*
X762400Y711707D01*
X765200Y713107D01*
X768100Y716006D01*
X769501Y718906D01*
X771000Y723207D01*
X771000Y730306D01*
X769501Y734607D01*
X768100Y737507D01*
X765200Y740306D01*
X762400Y741806D01*
X756700Y741806D01*
X753800Y740306D01*
X750900Y737507D01*
X749501Y734607D01*
X749501Y730306D01*
X756700Y730306D02*
G01*
X749501Y730306D01*
X842300Y818906D02*
G01*
X843701Y816006D01*
X846601Y813107D01*
X849400Y811707D01*
X855101Y811707D01*
X858001Y813107D01*
X860901Y816006D01*
X862300Y818906D01*
X863701Y823207D01*
X863701Y830306D01*
X862300Y834607D01*
X860901Y837507D01*
X858001Y840306D01*
X855101Y841806D01*
X849400Y841806D01*
X846601Y840306D01*
X843701Y837507D01*
X842300Y834607D01*
X812800Y816006D02*
G01*
X815600Y813107D01*
X819900Y811707D01*
X825700Y811707D01*
X830001Y813107D01*
X832800Y816006D01*
X832800Y818906D01*
X831400Y821707D01*
X830001Y823207D01*
X827101Y824607D01*
X818500Y827507D01*
X815600Y828906D01*
X814201Y830306D01*
X812800Y833207D01*
X812800Y837507D01*
X815600Y840306D01*
X819900Y841806D01*
X825700Y841806D01*
X830001Y840306D01*
X832800Y837507D01*
X803301Y811707D02*
G01*
X803301Y841806D01*
X803301Y811707D02*
G01*
X791900Y841806D01*
X780401Y811707D02*
G01*
X791900Y841806D01*
X780401Y811707D02*
G01*
X780401Y841806D01*
<<<<<<< HEAD
D11*
X744499Y636100D02*
G01*
X738200Y642500D01*
X728600Y645599D01*
X715900Y645599D01*
X706399Y642500D01*
X700000Y636100D01*
X700000Y629699D01*
X703200Y623400D01*
X706399Y620199D01*
X712699Y616999D01*
X731799Y610599D01*
X738200Y607500D01*
X741399Y604299D01*
X744499Y597899D01*
X744499Y588400D01*
X738200Y581999D01*
X728600Y578800D01*
X715900Y578800D01*
X706399Y581999D01*
X700000Y588400D01*
X765500Y645599D02*
G01*
X765500Y578800D01*
X765500Y645599D02*
G01*
X787799Y645599D01*
X797399Y642500D01*
X803699Y636100D01*
X806899Y629699D01*
X810100Y620199D01*
X810100Y604299D01*
X806899Y594699D01*
X803699Y588400D01*
X797399Y581999D01*
X787799Y578800D01*
X765500Y578800D01*
X856499Y645599D02*
G01*
X831099Y578800D01*
X856499Y645599D02*
G01*
X881999Y578800D01*
X840600Y601100D02*
G01*
X872500Y601100D01*
X739499Y536100D02*
G01*
X733200Y542500D01*
X723600Y545599D01*
X710900Y545599D01*
X701399Y542500D01*
X695000Y536100D01*
X695000Y529699D01*
X698200Y523400D01*
X701399Y520199D01*
X707699Y516999D01*
X726799Y510599D01*
X733200Y507500D01*
X736399Y504299D01*
X739499Y497899D01*
X739499Y488400D01*
X733200Y481999D01*
X723600Y478800D01*
X710900Y478800D01*
X701399Y481999D01*
X695000Y488400D01*
X808299Y529699D02*
G01*
X805100Y536100D01*
X798699Y542500D01*
X792399Y545599D01*
X779600Y545599D01*
X773299Y542500D01*
X766899Y536100D01*
X763699Y529699D01*
X760500Y520199D01*
X760500Y504299D01*
X763699Y494699D01*
X766899Y488400D01*
X773299Y481999D01*
X779600Y478800D01*
X792399Y478800D01*
X798699Y481999D01*
X805100Y488400D01*
X808299Y494699D01*
X829300Y545599D02*
G01*
X829300Y478800D01*
X829300Y478800D02*
G01*
X867500Y478800D01*
X737699Y439699D02*
G01*
X734499Y446100D01*
X728200Y452500D01*
X721799Y455599D01*
X709099Y455599D01*
X702699Y452500D01*
X696399Y446100D01*
X693200Y439699D01*
X690000Y430199D01*
X690000Y414299D01*
X693200Y404699D01*
X696399Y398400D01*
X702699Y391999D01*
X709099Y388800D01*
X721799Y388800D01*
X728200Y391999D01*
X734499Y398400D01*
X737699Y404699D01*
X737699Y414299D01*
X721799Y414299D02*
G01*
X737699Y414299D01*
X758699Y455599D02*
G01*
X758699Y388800D01*
X758699Y455599D02*
G01*
X803299Y388800D01*
X803299Y455599D02*
G01*
X803299Y388800D01*
X824300Y455599D02*
G01*
X824300Y388800D01*
X824300Y455599D02*
G01*
X846499Y455599D01*
X856099Y452500D01*
X862500Y446100D01*
X865600Y439699D01*
X868800Y430199D01*
X868800Y414299D01*
X865600Y404699D01*
X862500Y398400D01*
X856099Y391999D01*
X846499Y388800D01*
X824300Y388800D01*
D12*
X822839Y341802D02*
G01*
X838639Y341802D01*
X830038Y330302D01*
X834339Y330302D01*
X837138Y328903D01*
X838639Y327503D01*
X840038Y323202D01*
X840038Y320302D01*
X838639Y316003D01*
X835739Y313103D01*
X831439Y311703D01*
X827138Y311703D01*
X822839Y313103D01*
X821439Y314603D01*
X820038Y317402D01*
X849539Y341802D02*
G01*
X860938Y311703D01*
X872439Y341802D02*
G01*
X860938Y311703D01*
D11*
X735000Y270599D02*
G01*
X760500Y203800D01*
X785900Y270599D02*
G01*
X760500Y203800D01*
X806899Y270599D02*
G01*
X810100Y267500D01*
X813299Y270599D01*
X810100Y273800D01*
X806899Y270599D01*
X810100Y248400D02*
G01*
X810100Y203800D01*
X834300Y248400D02*
G01*
X834300Y203800D01*
X834300Y235599D02*
G01*
X843800Y245199D01*
X850200Y248400D01*
X859700Y248400D01*
X866099Y245199D01*
X869300Y235599D01*
X869300Y203800D01*
D12*
X575037Y808170D02*
G01*
X575037Y838270D01*
X575037Y808170D02*
G01*
X564938Y808170D01*
X560637Y809670D01*
X557838Y812469D01*
X556338Y815369D01*
X554938Y819670D01*
X554938Y826869D01*
X556338Y831170D01*
X557838Y833969D01*
X560637Y836869D01*
X564938Y838270D01*
X575037Y838270D01*
X545538Y808170D02*
G01*
X545538Y838270D01*
X545538Y808170D02*
G01*
X532638Y808170D01*
X528337Y809670D01*
X526938Y811069D01*
X525437Y813969D01*
X525437Y816770D01*
X526938Y819670D01*
X528337Y821069D01*
X532638Y822570D01*
X545538Y822570D01*
X535437Y822570D02*
G01*
X525437Y838270D01*
X516037Y808170D02*
G01*
X516037Y838270D01*
X516037Y808170D02*
G01*
X506037Y808170D01*
X501738Y809670D01*
X498838Y812469D01*
X497438Y815369D01*
X495938Y819670D01*
X495938Y826869D01*
X497438Y831170D01*
X498838Y833969D01*
X501738Y836869D01*
X506037Y838270D01*
X516037Y838270D01*
X486538Y808170D02*
G01*
X475037Y822570D01*
X475037Y838270D01*
X463638Y808170D02*
G01*
X475037Y822570D01*
X564528Y709980D02*
G01*
X564528Y740079D01*
X555028Y709980D02*
G01*
X555028Y740079D01*
X555028Y709980D02*
G01*
X535028Y740079D01*
X535028Y709980D02*
G01*
X535028Y740079D01*
X515527Y709980D02*
G01*
X515527Y740079D01*
X525527Y709980D02*
G01*
X505527Y709980D01*
X496028Y709980D02*
G01*
X496028Y740079D01*
X496028Y709980D02*
G01*
X484627Y740079D01*
X473128Y709980D02*
G01*
X484627Y740079D01*
X473128Y709980D02*
G01*
X473128Y740079D01*
X548726Y610079D02*
G01*
X548726Y640079D01*
X539227Y610079D02*
G01*
X539227Y640079D01*
X539227Y610079D02*
G01*
X519227Y640079D01*
X519227Y610079D02*
G01*
X519227Y640079D01*
X499726Y610079D02*
G01*
X499726Y640079D01*
X509726Y610079D02*
G01*
X489726Y610079D01*
X480226Y615779D02*
G01*
X477426Y614380D01*
X473126Y610079D01*
X473126Y640079D01*
X561626Y510079D02*
G01*
X561626Y540079D01*
X552125Y510079D02*
G01*
X552125Y540079D01*
X552125Y510079D02*
G01*
X532125Y540079D01*
X532125Y510079D02*
G01*
X532125Y540079D01*
X512626Y510079D02*
G01*
X512626Y540079D01*
X522626Y510079D02*
G01*
X502626Y510079D01*
X491725Y517179D02*
G01*
X491725Y515779D01*
X490326Y512880D01*
X488825Y511480D01*
X486026Y510079D01*
X480225Y510079D01*
X477426Y511480D01*
X475925Y512880D01*
X474526Y515779D01*
X474526Y518580D01*
X475925Y521480D01*
X478825Y525779D01*
X493126Y540079D01*
X473126Y540079D01*
X550727Y410079D02*
G01*
X550727Y440079D01*
X550727Y410079D02*
G01*
X540727Y410079D01*
X536426Y411480D01*
X533526Y414380D01*
X532127Y417179D01*
X530727Y421480D01*
X530727Y428679D01*
X532127Y432979D01*
X533526Y435779D01*
X536426Y438679D01*
X540727Y440079D01*
X550727Y440079D01*
X521226Y410079D02*
G01*
X521226Y440079D01*
X521226Y410079D02*
G01*
X502627Y410079D01*
X521226Y424380D02*
G01*
X509827Y424380D01*
X521226Y440079D02*
G01*
X502627Y440079D01*
X493227Y410079D02*
G01*
X493227Y440079D01*
X493227Y410079D02*
G01*
X473126Y440079D01*
X473126Y410079D02*
G01*
X473126Y440079D01*
D10*
X1710000Y590300D02*
G01*
X1710000Y569800D01*
X1711400Y565700D01*
X1714099Y563000D01*
X1718199Y561599D01*
X1720900Y561599D01*
X1725000Y563000D01*
X1727700Y565700D01*
X1729099Y569800D01*
X1729099Y590300D01*
X1740799Y590300D02*
G01*
X1755799Y590300D01*
X1747600Y579400D01*
X1751700Y579400D01*
X1754499Y578000D01*
X1755799Y576599D01*
X1757200Y572500D01*
X1757200Y569800D01*
X1755799Y565700D01*
X1753100Y563000D01*
X1748999Y561599D01*
X1744899Y561599D01*
X1740799Y563000D01*
X1739499Y564400D01*
X1738100Y567100D01*
D11*
X1640699Y1885000D02*
G01*
X1564399Y1885000D01*
X1564399Y1885000D02*
G01*
X1564399Y1841399D01*
X1629799Y1766500D02*
G01*
X1637100Y1773699D01*
X1640699Y1784600D01*
X1640699Y1799200D01*
X1637100Y1810100D01*
X1629799Y1817399D01*
X1622500Y1817399D01*
X1615299Y1813699D01*
X1611599Y1810100D01*
X1608000Y1802800D01*
X1600699Y1780999D01*
X1597100Y1773699D01*
X1593500Y1770100D01*
X1586199Y1766500D01*
X1575299Y1766500D01*
X1568000Y1773699D01*
X1564399Y1784600D01*
X1564399Y1799200D01*
X1568000Y1810100D01*
X1575299Y1817399D01*
X1640699Y1742500D02*
G01*
X1564399Y1742500D01*
X1640699Y1742500D02*
G01*
X1564399Y1713400D01*
X1640699Y1684299D02*
G01*
X1564399Y1713400D01*
X1640699Y1684299D02*
G01*
X1564399Y1684299D01*
X1615299Y1613000D02*
G01*
X1604399Y1616599D01*
X1597100Y1623899D01*
X1593500Y1634800D01*
X1593500Y1638499D01*
X1597100Y1649400D01*
X1604399Y1656599D01*
X1615299Y1660300D01*
X1618900Y1660300D01*
X1629799Y1656599D01*
X1637100Y1649400D01*
X1640699Y1638499D01*
X1640699Y1634800D01*
X1637100Y1623899D01*
X1629799Y1616599D01*
X1615299Y1613000D01*
X1597100Y1613000D01*
X1578900Y1616599D01*
X1568000Y1623899D01*
X1564399Y1634800D01*
X1564399Y1642100D01*
X1568000Y1653000D01*
X1575299Y1656599D01*
X1640699Y1589000D02*
G01*
X1564399Y1589000D01*
X1640699Y1589000D02*
G01*
X1640699Y1563499D01*
X1637100Y1552600D01*
X1629799Y1545399D01*
X1622500Y1541700D01*
X1611599Y1538099D01*
X1593500Y1538099D01*
X1582500Y1541700D01*
X1575299Y1545399D01*
X1568000Y1552600D01*
X1564399Y1563499D01*
X1564399Y1589000D01*
X1629799Y1463200D02*
G01*
X1637100Y1470500D01*
X1640699Y1481399D01*
X1640699Y1495900D01*
X1637100Y1506799D01*
X1629799Y1514099D01*
X1622500Y1514099D01*
X1615299Y1510500D01*
X1611599Y1506799D01*
X1608000Y1499499D01*
X1600699Y1477699D01*
X1597100Y1470500D01*
X1593500Y1466799D01*
X1586199Y1463200D01*
X1575299Y1463200D01*
X1568000Y1470500D01*
X1564399Y1481399D01*
X1564399Y1495900D01*
X1568000Y1506799D01*
X1575299Y1514099D01*
X1626199Y1439200D02*
G01*
X1629799Y1431900D01*
X1640699Y1420999D01*
X1564399Y1420999D01*
D12*
=======
X843701Y616006D02*
G01*
X846601Y613107D01*
X850901Y611707D01*
X856601Y611707D01*
X860901Y613107D01*
X863701Y616006D01*
X863701Y618906D01*
X862300Y621707D01*
X860901Y623207D01*
X858001Y624607D01*
X849400Y627507D01*
X846601Y628906D01*
X845101Y630306D01*
X843701Y633207D01*
X843701Y637507D01*
X846601Y640306D01*
X850901Y641806D01*
X856601Y641806D01*
X860901Y640306D01*
X863701Y637507D01*
X834201Y611707D02*
G01*
X834201Y641806D01*
X834201Y611707D02*
G01*
X824201Y611707D01*
X819900Y613107D01*
X817101Y616006D01*
X815600Y618906D01*
X814201Y623207D01*
X814201Y630306D01*
X815600Y634607D01*
X817101Y637507D01*
X819900Y640306D01*
X824201Y641806D01*
X834201Y641806D01*
X793301Y611707D02*
G01*
X804800Y641806D01*
X793301Y611707D02*
G01*
X781800Y641806D01*
X800501Y631806D02*
G01*
X786100Y631806D01*
X843701Y516006D02*
G01*
X846601Y513107D01*
X850901Y511707D01*
X856601Y511707D01*
X860901Y513107D01*
X863701Y516006D01*
X863701Y518906D01*
X862300Y521707D01*
X860901Y523207D01*
X858001Y524607D01*
X849400Y527507D01*
X846601Y528906D01*
X845101Y530306D01*
X843701Y533207D01*
X843701Y537507D01*
X846601Y540306D01*
X850901Y541806D01*
X856601Y541806D01*
X860901Y540306D01*
X863701Y537507D01*
X812800Y518906D02*
G01*
X814201Y516006D01*
X817101Y513107D01*
X819900Y511707D01*
X825700Y511707D01*
X828500Y513107D01*
X831400Y516006D01*
X832800Y518906D01*
X834201Y523207D01*
X834201Y530306D01*
X832800Y534607D01*
X831400Y537507D01*
X828500Y540306D01*
X825700Y541806D01*
X819900Y541806D01*
X817101Y540306D01*
X814201Y537507D01*
X812800Y534607D01*
X803301Y511707D02*
G01*
X803301Y541806D01*
X803301Y541806D02*
G01*
X786100Y541806D01*
X842300Y418906D02*
G01*
X843701Y416006D01*
X846601Y413207D01*
X849400Y411707D01*
X855101Y411707D01*
X858001Y413207D01*
X860901Y416006D01*
X862300Y418906D01*
X863701Y423207D01*
X863701Y430306D01*
X862300Y434607D01*
X860901Y437507D01*
X858001Y440407D01*
X855101Y441806D01*
X849400Y441806D01*
X846601Y440407D01*
X843701Y437507D01*
X842300Y434607D01*
X842300Y430306D01*
X849400Y430306D02*
G01*
X842300Y430306D01*
X832800Y411707D02*
G01*
X832800Y441806D01*
X832800Y411707D02*
G01*
X812800Y441806D01*
X812800Y411707D02*
G01*
X812800Y441806D01*
X803301Y411707D02*
G01*
X803301Y441806D01*
X803301Y411707D02*
G01*
X793301Y411707D01*
X789000Y413207D01*
X786100Y416006D01*
X784700Y418906D01*
X783301Y423207D01*
X783301Y430306D01*
X784700Y434607D01*
X786100Y437507D01*
X789000Y440407D01*
X793301Y441806D01*
X803301Y441806D01*
X860901Y311707D02*
G01*
X845101Y311707D01*
X853701Y323207D01*
X849400Y323207D01*
X846601Y324607D01*
X845101Y326006D01*
X843701Y330306D01*
X843701Y333207D01*
X845101Y337507D01*
X848001Y340407D01*
X852300Y341806D01*
X856601Y341806D01*
X860901Y340407D01*
X862300Y338906D01*
X863701Y336107D01*
X834201Y311707D02*
G01*
X822800Y341806D01*
X811301Y311707D02*
G01*
X822800Y341806D01*
X863701Y211707D02*
G01*
X852300Y241806D01*
X840801Y211707D02*
G01*
X852300Y241806D01*
X831400Y211707D02*
G01*
X830001Y213207D01*
X828500Y211707D01*
X830001Y210306D01*
X831400Y211707D01*
X830001Y221707D02*
G01*
X830001Y241806D01*
X819101Y221707D02*
G01*
X819101Y241806D01*
X819101Y227507D02*
G01*
X814800Y223207D01*
X811900Y221707D01*
X807601Y221707D01*
X804800Y223207D01*
X803301Y227507D01*
X803301Y241806D01*
X584528Y809980D02*
G01*
X584528Y840079D01*
X584528Y809980D02*
G01*
X574427Y809980D01*
X570127Y811480D01*
X567328Y814279D01*
X565828Y817179D01*
X564427Y821480D01*
X564427Y828679D01*
X565828Y832979D01*
X567328Y835779D01*
X570127Y838679D01*
X574427Y840079D01*
X584528Y840079D01*
X555028Y809980D02*
G01*
X555028Y840079D01*
X555028Y809980D02*
G01*
X542127Y809980D01*
X537827Y811480D01*
X536428Y812880D01*
X534927Y815779D01*
X534927Y818580D01*
X536428Y821480D01*
X537827Y822880D01*
X542127Y824380D01*
X555028Y824380D01*
X544927Y824380D02*
G01*
X534927Y840079D01*
X525527Y809980D02*
G01*
X525527Y840079D01*
X525527Y809980D02*
G01*
X515527Y809980D01*
X511228Y811480D01*
X508328Y814279D01*
X506927Y817179D01*
X505428Y821480D01*
X505428Y828679D01*
X506927Y832979D01*
X508328Y835779D01*
X511228Y838679D01*
X515527Y840079D01*
X525527Y840079D01*
X496028Y809980D02*
G01*
X484528Y824380D01*
X484528Y840079D01*
X473128Y809980D02*
G01*
X484528Y824380D01*
X564528Y709980D02*
G01*
X564528Y740079D01*
X555028Y709980D02*
G01*
X555028Y740079D01*
X555028Y709980D02*
G01*
X535028Y740079D01*
X535028Y709980D02*
G01*
X535028Y740079D01*
X515527Y709980D02*
G01*
X515527Y740079D01*
X525527Y709980D02*
G01*
X505527Y709980D01*
X496028Y709980D02*
G01*
X496028Y740079D01*
X496028Y709980D02*
G01*
X484627Y740079D01*
X473128Y709980D02*
G01*
X484627Y740079D01*
X473128Y709980D02*
G01*
X473128Y740079D01*
X548726Y610079D02*
G01*
X548726Y640079D01*
X539227Y610079D02*
G01*
X539227Y640079D01*
X539227Y610079D02*
G01*
X519227Y640079D01*
X519227Y610079D02*
G01*
X519227Y640079D01*
X499726Y610079D02*
G01*
X499726Y640079D01*
X509726Y610079D02*
G01*
X489726Y610079D01*
X480226Y615779D02*
G01*
X477426Y614380D01*
X473126Y610079D01*
X473126Y640079D01*
X561626Y510079D02*
G01*
X561626Y540079D01*
X552125Y510079D02*
G01*
X552125Y540079D01*
X552125Y510079D02*
G01*
X532125Y540079D01*
X532125Y510079D02*
G01*
X532125Y540079D01*
X512626Y510079D02*
G01*
X512626Y540079D01*
X522626Y510079D02*
G01*
X502626Y510079D01*
X491725Y517179D02*
G01*
X491725Y515779D01*
X490326Y512880D01*
X488825Y511480D01*
X486026Y510079D01*
X480225Y510079D01*
X477426Y511480D01*
X475925Y512880D01*
X474526Y515779D01*
X474526Y518580D01*
X475925Y521480D01*
X478825Y525779D01*
X493126Y540079D01*
X473126Y540079D01*
X550727Y410079D02*
G01*
X550727Y440079D01*
X550727Y410079D02*
G01*
X540727Y410079D01*
X536426Y411480D01*
X533526Y414380D01*
X532127Y417179D01*
X530727Y421480D01*
X530727Y428679D01*
X532127Y432979D01*
X533526Y435779D01*
X536426Y438679D01*
X540727Y440079D01*
X550727Y440079D01*
X521226Y410079D02*
G01*
X521226Y440079D01*
X521226Y410079D02*
G01*
X502627Y410079D01*
X521226Y424380D02*
G01*
X509827Y424380D01*
X521226Y440079D02*
G01*
X502627Y440079D01*
X493227Y410079D02*
G01*
X493227Y440079D01*
X493227Y410079D02*
G01*
X473126Y440079D01*
X473126Y410079D02*
G01*
X473126Y440079D01*
D10*
X1630000Y879600D02*
G01*
X1630000Y910300D01*
X1628000Y916399D01*
X1623900Y920500D01*
X1617700Y922500D01*
X1613599Y922500D01*
X1607500Y920500D01*
X1603400Y916399D01*
X1601400Y910300D01*
X1601400Y879600D01*
X1583800Y879600D02*
G01*
X1561300Y879600D01*
X1573500Y895999D01*
X1567399Y895999D01*
X1563299Y898000D01*
X1561300Y900000D01*
X1559200Y906199D01*
X1559200Y910300D01*
X1561300Y916399D01*
X1565399Y920500D01*
X1571499Y922500D01*
X1577600Y922500D01*
X1583800Y920500D01*
X1585799Y918499D01*
X1587899Y914400D01*
D12*
X1647659Y1773883D02*
G01*
X1610059Y1788184D01*
X1647659Y1773883D02*
G01*
X1610059Y1759583D01*
X1622659Y1782883D02*
G01*
X1622659Y1764983D01*
X1647659Y1726284D02*
G01*
X1610059Y1726284D01*
X1629759Y1726284D02*
G01*
X1633359Y1729884D01*
X1635159Y1733483D01*
X1635159Y1738784D01*
X1633359Y1742384D01*
X1629759Y1745983D01*
X1624458Y1747784D01*
X1620859Y1747784D01*
X1615459Y1745983D01*
X1611859Y1742384D01*
X1610059Y1738784D01*
X1610059Y1733483D01*
X1611859Y1729884D01*
X1615459Y1726284D01*
X1635159Y1692984D02*
G01*
X1610059Y1692984D01*
X1629759Y1692984D02*
G01*
X1633359Y1696583D01*
X1635159Y1700183D01*
X1635159Y1705583D01*
X1633359Y1709083D01*
X1629759Y1712683D01*
X1624458Y1714484D01*
X1620859Y1714484D01*
X1615459Y1712683D01*
X1611859Y1709083D01*
X1610059Y1705583D01*
X1610059Y1700183D01*
X1611859Y1696583D01*
X1615459Y1692984D01*
X1647659Y1666884D02*
G01*
X1647659Y1670484D01*
X1645859Y1674083D01*
X1640559Y1675884D01*
X1610059Y1675884D01*
X1635159Y1681183D02*
G01*
X1635159Y1668683D01*
X1635159Y1655084D02*
G01*
X1610059Y1655084D01*
X1624458Y1655084D02*
G01*
X1629759Y1653283D01*
X1633359Y1649684D01*
X1635159Y1646084D01*
X1635159Y1640783D01*
X1635159Y1628984D02*
G01*
X1617259Y1628984D01*
X1611859Y1627184D01*
X1610059Y1623584D01*
X1610059Y1618184D01*
X1611859Y1614684D01*
X1617259Y1609283D01*
X1635159Y1609283D02*
G01*
X1610059Y1609283D01*
X1647659Y1597483D02*
G01*
X1645859Y1595684D01*
X1647659Y1593883D01*
X1649458Y1595684D01*
X1647659Y1597483D01*
X1635159Y1595684D02*
G01*
X1610059Y1595684D01*
X1647659Y1576684D02*
G01*
X1617259Y1576684D01*
X1611859Y1574884D01*
X1610059Y1571284D01*
X1610059Y1567784D01*
X1635159Y1582083D02*
G01*
X1635159Y1569583D01*
X1635159Y1505084D02*
G01*
X1629759Y1506884D01*
X1626158Y1510484D01*
X1624458Y1515884D01*
X1624458Y1517683D01*
X1626158Y1522984D01*
X1629759Y1526583D01*
X1635159Y1528384D01*
X1636958Y1528384D01*
X1642358Y1526583D01*
X1645859Y1522984D01*
X1647659Y1517683D01*
X1647659Y1515884D01*
X1645859Y1510484D01*
X1642358Y1506884D01*
X1635159Y1505084D01*
X1626158Y1505084D01*
X1617259Y1506884D01*
X1611859Y1510484D01*
X1610059Y1515884D01*
X1610059Y1519384D01*
X1611859Y1524783D01*
X1615459Y1526583D01*
X1626158Y1493283D02*
G01*
X1626158Y1461084D01*
X1647659Y1449283D02*
G01*
X1610059Y1449283D01*
X1647659Y1449283D02*
G01*
X1647659Y1436783D01*
X1645859Y1431383D01*
X1642358Y1427784D01*
X1638759Y1425983D01*
X1633359Y1424184D01*
X1624458Y1424184D01*
X1619058Y1425983D01*
X1615459Y1427784D01*
X1611859Y1431383D01*
X1610059Y1436783D01*
X1610059Y1449283D01*
X1647659Y1401684D02*
G01*
X1645859Y1405284D01*
X1642358Y1408883D01*
X1638759Y1410583D01*
X1633359Y1412384D01*
X1624458Y1412384D01*
X1619058Y1410583D01*
X1615459Y1408883D01*
X1611859Y1405284D01*
X1610059Y1401684D01*
X1610059Y1394484D01*
X1611859Y1390983D01*
X1615459Y1387384D01*
X1619058Y1385583D01*
X1624458Y1383784D01*
X1633359Y1383784D01*
X1638759Y1385583D01*
X1642358Y1387384D01*
X1645859Y1390983D01*
X1647659Y1394484D01*
X1647659Y1401684D01*
X1647659Y1371984D02*
G01*
X1610059Y1371984D01*
X1647659Y1371984D02*
G01*
X1647659Y1348683D01*
X1629759Y1371984D02*
G01*
X1629759Y1357683D01*
X1647659Y1309384D02*
G01*
X1610059Y1309384D01*
X1610059Y1309384D02*
G01*
X1610059Y1287883D01*
X1642358Y1250983D02*
G01*
X1645859Y1254583D01*
X1647659Y1259983D01*
X1647659Y1267083D01*
X1645859Y1272483D01*
X1642358Y1276084D01*
X1638759Y1276084D01*
X1635159Y1274283D01*
X1633359Y1272483D01*
X1631558Y1268883D01*
X1627959Y1258184D01*
X1626158Y1254583D01*
X1624458Y1252784D01*
X1620859Y1250983D01*
X1615459Y1250983D01*
X1611859Y1254583D01*
X1610059Y1259983D01*
X1610059Y1267083D01*
X1611859Y1272483D01*
X1615459Y1276084D01*
X1647659Y1239184D02*
G01*
X1610059Y1239184D01*
X1647659Y1239184D02*
G01*
X1610059Y1224884D01*
X1647659Y1210583D02*
G01*
X1610059Y1224884D01*
X1647659Y1210583D02*
G01*
X1610059Y1210583D01*
X1635159Y1175484D02*
G01*
X1629759Y1177283D01*
X1626158Y1180884D01*
X1624458Y1186183D01*
X1624458Y1187984D01*
X1626158Y1193384D01*
X1629759Y1196984D01*
X1635159Y1198784D01*
X1636958Y1198784D01*
X1642358Y1196984D01*
X1645859Y1193384D01*
X1647659Y1187984D01*
X1647659Y1186183D01*
X1645859Y1180884D01*
X1642358Y1177283D01*
X1635159Y1175484D01*
X1626158Y1175484D01*
X1617259Y1177283D01*
X1611859Y1180884D01*
X1610059Y1186183D01*
X1610059Y1189783D01*
X1611859Y1195183D01*
X1615459Y1196984D01*
X1647659Y1163683D02*
G01*
X1610059Y1163683D01*
X1647659Y1163683D02*
G01*
X1647659Y1151183D01*
X1645859Y1145783D01*
X1642358Y1142184D01*
X1638759Y1140383D01*
X1633359Y1138584D01*
X1624458Y1138584D01*
X1619058Y1140383D01*
X1615459Y1142184D01*
X1611859Y1145783D01*
X1610059Y1151183D01*
X1610059Y1163683D01*
X1642358Y1101783D02*
G01*
X1645859Y1105284D01*
X1647659Y1110684D01*
X1647659Y1117883D01*
X1645859Y1123184D01*
X1642358Y1126783D01*
X1638759Y1126783D01*
X1635159Y1124983D01*
X1633359Y1123184D01*
X1631558Y1119684D01*
X1627959Y1108883D01*
X1626158Y1105284D01*
X1624458Y1103584D01*
X1620859Y1101783D01*
X1615459Y1101783D01*
X1611859Y1105284D01*
X1610059Y1110684D01*
X1610059Y1117883D01*
X1611859Y1123184D01*
X1615459Y1126783D01*
X1640559Y1089983D02*
G01*
X1642358Y1086383D01*
X1647659Y1080983D01*
X1610059Y1080983D01*
D13*
>>>>>>> main
X1823701Y1821707D02*
G01*
X1823701Y1851806D01*
X1823701Y1821707D02*
G01*
X1813701Y1821707D01*
X1809400Y1823107D01*
X1806601Y1826006D01*
X1805101Y1828906D01*
X1803701Y1833207D01*
X1803701Y1840306D01*
X1805101Y1844607D01*
X1806601Y1847507D01*
X1809400Y1850306D01*
X1813701Y1851806D01*
X1823701Y1851806D01*
X1785700Y1821707D02*
G01*
X1788500Y1823107D01*
X1791400Y1826006D01*
X1792800Y1828906D01*
X1794201Y1833207D01*
X1794201Y1840306D01*
X1792800Y1844607D01*
X1791400Y1847507D01*
X1788500Y1850306D01*
X1785700Y1851806D01*
X1779900Y1851806D01*
X1777101Y1850306D01*
X1774201Y1847507D01*
X1772800Y1844607D01*
X1771301Y1840306D01*
X1771301Y1833207D01*
X1772800Y1828906D01*
X1774201Y1826006D01*
X1777101Y1823107D01*
X1779900Y1821707D01*
X1785700Y1821707D01*
X1761900Y1821707D02*
G01*
X1761900Y1851806D01*
X1761900Y1821707D02*
G01*
X1750401Y1851806D01*
X1739000Y1821707D02*
G01*
X1750401Y1851806D01*
X1739000Y1821707D02*
G01*
X1739000Y1851806D01*
X1803701Y1726006D02*
G01*
X1806601Y1723107D01*
X1810901Y1721707D01*
X1816601Y1721707D01*
X1820901Y1723107D01*
X1823701Y1726006D01*
X1823701Y1728906D01*
X1822300Y1731707D01*
X1820901Y1733207D01*
X1818001Y1734607D01*
X1809400Y1737507D01*
X1806601Y1738906D01*
X1805101Y1740306D01*
X1803701Y1743207D01*
X1803701Y1747507D01*
X1806601Y1750306D01*
X1810901Y1751806D01*
X1816601Y1751806D01*
X1820901Y1750306D01*
X1823701Y1747507D01*
X1794201Y1721707D02*
G01*
X1794201Y1751806D01*
X1794201Y1721707D02*
G01*
X1784201Y1721707D01*
X1779900Y1723107D01*
X1777101Y1726006D01*
X1775600Y1728906D01*
X1774201Y1733207D01*
X1774201Y1740306D01*
X1775600Y1744607D01*
X1777101Y1747507D01*
X1779900Y1750306D01*
X1784201Y1751806D01*
X1794201Y1751806D01*
X1756201Y1721707D02*
G01*
X1759000Y1723107D01*
X1761900Y1726006D01*
X1763301Y1728906D01*
X1764800Y1733207D01*
X1764800Y1740306D01*
X1763301Y1744607D01*
X1761900Y1747507D01*
X1759000Y1750306D01*
X1756201Y1751806D01*
X1750401Y1751806D01*
X1747601Y1750306D01*
X1744700Y1747507D01*
X1743301Y1744607D01*
X1741800Y1740306D01*
X1741800Y1733207D01*
X1743301Y1728906D01*
X1744700Y1726006D01*
X1747601Y1723107D01*
X1750401Y1721707D01*
X1756201Y1721707D01*
X1720901Y1721707D02*
G01*
X1732400Y1751806D01*
X1720901Y1721707D02*
G01*
X1709501Y1751806D01*
X1728100Y1741806D02*
G01*
X1713801Y1741806D01*
X1678600Y1728906D02*
G01*
X1680001Y1726006D01*
X1682901Y1723107D01*
X1685700Y1721707D01*
X1691500Y1721707D01*
X1694300Y1723107D01*
X1697200Y1726006D01*
X1698600Y1728906D01*
X1700001Y1733207D01*
X1700001Y1740306D01*
X1698600Y1744607D01*
X1697200Y1747507D01*
X1694300Y1750306D01*
X1691500Y1751806D01*
X1685700Y1751806D01*
X1682901Y1750306D01*
X1680001Y1747507D01*
X1678600Y1744607D01*
X1678600Y1740306D01*
X1685700Y1740306D02*
G01*
X1678600Y1740306D01*
X1802300Y1528906D02*
G01*
X1803701Y1526006D01*
X1806601Y1523107D01*
X1809400Y1521707D01*
X1815101Y1521707D01*
X1818001Y1523107D01*
X1820901Y1526006D01*
X1822300Y1528906D01*
X1823701Y1533207D01*
X1823701Y1540306D01*
X1822300Y1544607D01*
X1820901Y1547507D01*
X1818001Y1550306D01*
X1815101Y1551806D01*
X1809400Y1551806D01*
X1806601Y1550306D01*
X1803701Y1547507D01*
X1802300Y1544607D01*
X1772800Y1526006D02*
G01*
X1775600Y1523107D01*
X1779900Y1521707D01*
X1785700Y1521707D01*
X1790001Y1523107D01*
X1792800Y1526006D01*
X1792800Y1528906D01*
X1791400Y1531707D01*
X1790001Y1533207D01*
X1787101Y1534607D01*
X1778500Y1537507D01*
X1775600Y1538906D01*
X1774201Y1540306D01*
X1772800Y1543207D01*
X1772800Y1547507D01*
X1775600Y1550306D01*
X1779900Y1551806D01*
X1785700Y1551806D01*
X1790001Y1550306D01*
X1792800Y1547507D01*
X1751900Y1521707D02*
G01*
X1763301Y1551806D01*
X1751900Y1521707D02*
G01*
X1740401Y1551806D01*
X1759000Y1541806D02*
G01*
X1744700Y1541806D01*
X1709501Y1528906D02*
G01*
X1710901Y1526006D01*
X1713801Y1523107D01*
X1716701Y1521707D01*
X1722400Y1521707D01*
X1725200Y1523107D01*
X1728100Y1526006D01*
X1729501Y1528906D01*
X1731000Y1533207D01*
X1731000Y1540306D01*
X1729501Y1544607D01*
X1728100Y1547507D01*
X1725200Y1550306D01*
X1722400Y1551806D01*
X1716701Y1551806D01*
X1713801Y1550306D01*
X1710901Y1547507D01*
X1709501Y1544607D01*
X1709501Y1540306D01*
X1716701Y1540306D02*
G01*
X1709501Y1540306D01*
X1802300Y1628906D02*
G01*
X1803701Y1626006D01*
X1806601Y1623107D01*
X1809400Y1621707D01*
X1815101Y1621707D01*
X1818001Y1623107D01*
X1820901Y1626006D01*
X1822300Y1628906D01*
X1823701Y1633207D01*
X1823701Y1640306D01*
X1822300Y1644607D01*
X1820901Y1647507D01*
X1818001Y1650306D01*
X1815101Y1651806D01*
X1809400Y1651806D01*
X1806601Y1650306D01*
X1803701Y1647507D01*
X1802300Y1644607D01*
X1772800Y1626006D02*
G01*
X1775600Y1623107D01*
X1779900Y1621707D01*
X1785700Y1621707D01*
X1790001Y1623107D01*
X1792800Y1626006D01*
X1792800Y1628906D01*
X1791400Y1631707D01*
X1790001Y1633207D01*
X1787101Y1634607D01*
X1778500Y1637507D01*
X1775600Y1638906D01*
X1774201Y1640306D01*
X1772800Y1643207D01*
X1772800Y1647507D01*
X1775600Y1650306D01*
X1779900Y1651806D01*
X1785700Y1651806D01*
X1790001Y1650306D01*
X1792800Y1647507D01*
X1763301Y1621707D02*
G01*
X1763301Y1651806D01*
X1763301Y1621707D02*
G01*
X1751900Y1651806D01*
X1740401Y1621707D02*
G01*
X1751900Y1651806D01*
X1740401Y1621707D02*
G01*
X1740401Y1651806D01*
<<<<<<< HEAD
D11*
X1699499Y1451100D02*
G01*
X1693199Y1457500D01*
X1683599Y1460599D01*
X1670900Y1460599D01*
X1661400Y1457500D01*
X1655000Y1451100D01*
X1655000Y1444699D01*
X1658199Y1438400D01*
X1661400Y1435199D01*
X1667700Y1431999D01*
X1686800Y1425599D01*
X1693199Y1422500D01*
X1696400Y1419299D01*
X1699499Y1412899D01*
X1699499Y1403400D01*
X1693199Y1396999D01*
X1683599Y1393800D01*
X1670900Y1393800D01*
X1661400Y1396999D01*
X1655000Y1403400D01*
X1720500Y1460599D02*
G01*
X1720500Y1393800D01*
X1720500Y1460599D02*
G01*
X1742799Y1460599D01*
X1752399Y1457500D01*
X1758699Y1451100D01*
X1761899Y1444699D01*
X1765100Y1435199D01*
X1765100Y1419299D01*
X1761899Y1409699D01*
X1758699Y1403400D01*
X1752399Y1396999D01*
X1742799Y1393800D01*
X1720500Y1393800D01*
X1811499Y1460599D02*
G01*
X1786099Y1393800D01*
X1811499Y1460599D02*
G01*
X1836999Y1393800D01*
X1795600Y1416100D02*
G01*
X1827500Y1416100D01*
X1699499Y1351100D02*
G01*
X1693199Y1357500D01*
X1683599Y1360599D01*
X1670900Y1360599D01*
X1661400Y1357500D01*
X1655000Y1351100D01*
X1655000Y1344699D01*
X1658199Y1338400D01*
X1661400Y1335199D01*
X1667700Y1331999D01*
X1686800Y1325599D01*
X1693199Y1322500D01*
X1696400Y1319299D01*
X1699499Y1312899D01*
X1699499Y1303400D01*
X1693199Y1296999D01*
X1683599Y1293800D01*
X1670900Y1293800D01*
X1661400Y1296999D01*
X1655000Y1303400D01*
X1768299Y1344699D02*
G01*
X1765100Y1351100D01*
X1758699Y1357500D01*
X1752399Y1360599D01*
X1739600Y1360599D01*
X1733299Y1357500D01*
X1726899Y1351100D01*
X1723699Y1344699D01*
X1720500Y1335199D01*
X1720500Y1319299D01*
X1723699Y1309699D01*
X1726899Y1303400D01*
X1733299Y1296999D01*
X1739600Y1293800D01*
X1752399Y1293800D01*
X1758699Y1296999D01*
X1765100Y1303400D01*
X1768299Y1309699D01*
X1789300Y1360599D02*
G01*
X1789300Y1293800D01*
X1789300Y1293800D02*
G01*
X1827500Y1293800D01*
X1697700Y1249699D02*
G01*
X1694499Y1256100D01*
X1688199Y1262500D01*
X1681800Y1265599D01*
X1669099Y1265599D01*
X1662700Y1262500D01*
X1656400Y1256100D01*
X1653199Y1249699D01*
X1650000Y1240199D01*
X1650000Y1224299D01*
X1653199Y1214699D01*
X1656400Y1208400D01*
X1662700Y1201999D01*
X1669099Y1198800D01*
X1681800Y1198800D01*
X1688199Y1201999D01*
X1694499Y1208400D01*
X1697700Y1214699D01*
X1697700Y1224299D01*
X1681800Y1224299D02*
G01*
X1697700Y1224299D01*
X1718699Y1265599D02*
G01*
X1718699Y1198800D01*
X1718699Y1265599D02*
G01*
X1763299Y1198800D01*
X1763299Y1265599D02*
G01*
X1763299Y1198800D01*
X1784300Y1265599D02*
G01*
X1784300Y1198800D01*
X1784300Y1265599D02*
G01*
X1806499Y1265599D01*
X1816099Y1262500D01*
X1822500Y1256100D01*
X1825600Y1249699D01*
X1828800Y1240199D01*
X1828800Y1224299D01*
X1825600Y1214699D01*
X1822500Y1208400D01*
X1816099Y1201999D01*
X1806499Y1198800D01*
X1784300Y1198800D01*
D12*
=======
X1803701Y1426006D02*
G01*
X1806601Y1423107D01*
X1810901Y1421707D01*
X1816601Y1421707D01*
X1820901Y1423107D01*
X1823701Y1426006D01*
X1823701Y1428906D01*
X1822300Y1431707D01*
X1820901Y1433207D01*
X1818001Y1434607D01*
X1809400Y1437507D01*
X1806601Y1438906D01*
X1805101Y1440306D01*
X1803701Y1443207D01*
X1803701Y1447507D01*
X1806601Y1450306D01*
X1810901Y1451806D01*
X1816601Y1451806D01*
X1820901Y1450306D01*
X1823701Y1447507D01*
X1794201Y1421707D02*
G01*
X1794201Y1451806D01*
X1794201Y1421707D02*
G01*
X1784201Y1421707D01*
X1779900Y1423107D01*
X1777101Y1426006D01*
X1775600Y1428906D01*
X1774201Y1433207D01*
X1774201Y1440306D01*
X1775600Y1444607D01*
X1777101Y1447507D01*
X1779900Y1450306D01*
X1784201Y1451806D01*
X1794201Y1451806D01*
X1753301Y1421707D02*
G01*
X1764800Y1451806D01*
X1753301Y1421707D02*
G01*
X1741800Y1451806D01*
X1760501Y1441806D02*
G01*
X1746100Y1441806D01*
X1803701Y1326006D02*
G01*
X1806601Y1323107D01*
X1810901Y1321707D01*
X1816601Y1321707D01*
X1820901Y1323107D01*
X1823701Y1326006D01*
X1823701Y1328906D01*
X1822300Y1331707D01*
X1820901Y1333207D01*
X1818001Y1334607D01*
X1809400Y1337507D01*
X1806601Y1338906D01*
X1805101Y1340306D01*
X1803701Y1343207D01*
X1803701Y1347507D01*
X1806601Y1350306D01*
X1810901Y1351806D01*
X1816601Y1351806D01*
X1820901Y1350306D01*
X1823701Y1347507D01*
X1772800Y1328906D02*
G01*
X1774201Y1326006D01*
X1777101Y1323107D01*
X1779900Y1321707D01*
X1785700Y1321707D01*
X1788500Y1323107D01*
X1791400Y1326006D01*
X1792800Y1328906D01*
X1794201Y1333207D01*
X1794201Y1340306D01*
X1792800Y1344607D01*
X1791400Y1347507D01*
X1788500Y1350306D01*
X1785700Y1351806D01*
X1779900Y1351806D01*
X1777101Y1350306D01*
X1774201Y1347507D01*
X1772800Y1344607D01*
X1763301Y1321707D02*
G01*
X1763301Y1351806D01*
X1763301Y1351806D02*
G01*
X1746100Y1351806D01*
X1802300Y1228906D02*
G01*
X1803701Y1226006D01*
X1806601Y1223207D01*
X1809400Y1221707D01*
X1815101Y1221707D01*
X1818001Y1223207D01*
X1820901Y1226006D01*
X1822300Y1228906D01*
X1823701Y1233207D01*
X1823701Y1240306D01*
X1822300Y1244607D01*
X1820901Y1247507D01*
X1818001Y1250407D01*
X1815101Y1251806D01*
X1809400Y1251806D01*
X1806601Y1250407D01*
X1803701Y1247507D01*
X1802300Y1244607D01*
X1802300Y1240306D01*
X1809400Y1240306D02*
G01*
X1802300Y1240306D01*
X1792800Y1221707D02*
G01*
X1792800Y1251806D01*
X1792800Y1221707D02*
G01*
X1772800Y1251806D01*
X1772800Y1221707D02*
G01*
X1772800Y1251806D01*
X1763301Y1221707D02*
G01*
X1763301Y1251806D01*
X1763301Y1221707D02*
G01*
X1753301Y1221707D01*
X1749000Y1223207D01*
X1746100Y1226006D01*
X1744700Y1228906D01*
X1743301Y1233207D01*
X1743301Y1240306D01*
X1744700Y1244607D01*
X1746100Y1247507D01*
X1749000Y1250407D01*
X1753301Y1251806D01*
X1763301Y1251806D01*
>>>>>>> main
X1820901Y1121707D02*
G01*
X1805101Y1121707D01*
X1813701Y1133207D01*
X1809400Y1133207D01*
X1806601Y1134607D01*
X1805101Y1136006D01*
X1803701Y1140306D01*
X1803701Y1143207D01*
X1805101Y1147507D01*
X1808001Y1150407D01*
X1812300Y1151806D01*
X1816601Y1151806D01*
X1820901Y1150407D01*
X1822300Y1148906D01*
X1823701Y1146107D01*
X1794201Y1121707D02*
G01*
X1782800Y1151806D01*
X1771301Y1121707D02*
G01*
X1782800Y1151806D01*
<<<<<<< HEAD
D11*
X1695000Y1075599D02*
G01*
X1720500Y1008800D01*
X1745900Y1075599D02*
G01*
X1720500Y1008800D01*
X1766899Y1075599D02*
G01*
X1770100Y1072500D01*
X1773299Y1075599D01*
X1770100Y1078800D01*
X1766899Y1075599D01*
X1770100Y1053400D02*
G01*
X1770100Y1008800D01*
X1794300Y1053400D02*
G01*
X1794300Y1008800D01*
X1794300Y1040599D02*
G01*
X1803800Y1050199D01*
X1810200Y1053400D01*
X1819700Y1053400D01*
X1826099Y1050199D01*
X1829300Y1040599D01*
X1829300Y1008800D01*
D12*
X1544528Y1619980D02*
G01*
X1544528Y1650079D01*
X1544528Y1619980D02*
G01*
X1534427Y1619980D01*
X1530128Y1621480D01*
X1527327Y1624279D01*
X1525828Y1627179D01*
X1524427Y1631480D01*
X1524427Y1638679D01*
X1525828Y1642979D01*
X1527327Y1645779D01*
X1530128Y1648679D01*
X1534427Y1650079D01*
X1544528Y1650079D01*
X1515028Y1619980D02*
G01*
X1515028Y1650079D01*
X1515028Y1619980D02*
G01*
X1502128Y1619980D01*
X1497827Y1621480D01*
X1496427Y1622880D01*
X1494928Y1625779D01*
X1494928Y1628580D01*
X1496427Y1631480D01*
X1497827Y1632880D01*
X1502128Y1634380D01*
X1515028Y1634380D01*
X1504928Y1634380D02*
G01*
X1494928Y1650079D01*
X1485528Y1619980D02*
G01*
X1485528Y1650079D01*
X1485528Y1619980D02*
G01*
X1475528Y1619980D01*
X1471228Y1621480D01*
X1468328Y1624279D01*
X1466927Y1627179D01*
X1465428Y1631480D01*
X1465428Y1638679D01*
X1466927Y1642979D01*
X1468328Y1645779D01*
X1471228Y1648679D01*
X1475528Y1650079D01*
X1485528Y1650079D01*
X1456027Y1619980D02*
G01*
X1444528Y1634380D01*
X1444528Y1650079D01*
X1433127Y1619980D02*
G01*
X1444528Y1634380D01*
X1524528Y1519980D02*
G01*
X1524528Y1550079D01*
X1515028Y1519980D02*
G01*
X1515028Y1550079D01*
X1515028Y1519980D02*
G01*
X1495028Y1550079D01*
X1495028Y1519980D02*
G01*
X1495028Y1550079D01*
X1475528Y1519980D02*
G01*
X1475528Y1550079D01*
X1485528Y1519980D02*
G01*
X1465528Y1519980D01*
X1456027Y1519980D02*
G01*
X1456027Y1550079D01*
X1456027Y1519980D02*
G01*
X1444628Y1550079D01*
X1433127Y1519980D02*
G01*
X1444628Y1550079D01*
X1433127Y1519980D02*
G01*
X1433127Y1550079D01*
X1508726Y1420079D02*
G01*
X1508726Y1450079D01*
X1499227Y1420079D02*
G01*
X1499227Y1450079D01*
X1499227Y1420079D02*
G01*
X1479227Y1450079D01*
X1479227Y1420079D02*
G01*
X1479227Y1450079D01*
X1459727Y1420079D02*
G01*
X1459727Y1450079D01*
X1469727Y1420079D02*
G01*
X1449727Y1420079D01*
X1440227Y1425779D02*
G01*
X1437426Y1424380D01*
X1433127Y1420079D01*
X1433127Y1450079D01*
X1521625Y1320079D02*
G01*
X1521625Y1350079D01*
X1512125Y1320079D02*
G01*
X1512125Y1350079D01*
X1512125Y1320079D02*
G01*
X1492125Y1350079D01*
X1492125Y1320079D02*
G01*
X1492125Y1350079D01*
X1472626Y1320079D02*
G01*
X1472626Y1350079D01*
X1482626Y1320079D02*
G01*
X1462626Y1320079D01*
X1451725Y1327179D02*
G01*
X1451725Y1325779D01*
X1450325Y1322880D01*
X1448825Y1321480D01*
X1446026Y1320079D01*
X1440226Y1320079D01*
X1437425Y1321480D01*
X1435925Y1322880D01*
X1434525Y1325779D01*
X1434525Y1328580D01*
X1435925Y1331480D01*
X1438825Y1335779D01*
X1453126Y1350079D01*
X1433126Y1350079D01*
X1510726Y1220079D02*
G01*
X1510726Y1250079D01*
X1510726Y1220079D02*
G01*
X1500726Y1220079D01*
X1496427Y1221480D01*
X1493527Y1224380D01*
X1492127Y1227179D01*
X1490726Y1231480D01*
X1490726Y1238679D01*
X1492127Y1242979D01*
X1493527Y1245779D01*
X1496427Y1248679D01*
X1500726Y1250079D01*
X1510726Y1250079D01*
X1481226Y1220079D02*
G01*
X1481226Y1250079D01*
X1481226Y1220079D02*
G01*
X1462627Y1220079D01*
X1481226Y1234380D02*
G01*
X1469826Y1234380D01*
X1481226Y1250079D02*
G01*
X1462627Y1250079D01*
X1453226Y1220079D02*
G01*
X1453226Y1250079D01*
X1453226Y1220079D02*
G01*
X1433127Y1250079D01*
X1433127Y1220079D02*
G01*
=======
X1823701Y1021707D02*
G01*
X1812300Y1051806D01*
X1800801Y1021707D02*
G01*
X1812300Y1051806D01*
X1791400Y1021707D02*
G01*
X1790001Y1023207D01*
X1788500Y1021707D01*
X1790001Y1020306D01*
X1791400Y1021707D01*
X1790001Y1031707D02*
G01*
X1790001Y1051806D01*
X1779101Y1031707D02*
G01*
X1779101Y1051806D01*
X1779101Y1037507D02*
G01*
X1774800Y1033207D01*
X1771900Y1031707D01*
X1767601Y1031707D01*
X1764800Y1033207D01*
X1763301Y1037507D01*
X1763301Y1051806D01*
X1544528Y1619980D02*
G01*
X1544528Y1650079D01*
X1544528Y1619980D02*
G01*
X1534427Y1619980D01*
X1530128Y1621480D01*
X1527327Y1624279D01*
X1525828Y1627179D01*
X1524427Y1631480D01*
X1524427Y1638679D01*
X1525828Y1642979D01*
X1527327Y1645779D01*
X1530128Y1648679D01*
X1534427Y1650079D01*
X1544528Y1650079D01*
X1515028Y1619980D02*
G01*
X1515028Y1650079D01*
X1515028Y1619980D02*
G01*
X1502128Y1619980D01*
X1497827Y1621480D01*
X1496427Y1622880D01*
X1494928Y1625779D01*
X1494928Y1628580D01*
X1496427Y1631480D01*
X1497827Y1632880D01*
X1502128Y1634380D01*
X1515028Y1634380D01*
X1504928Y1634380D02*
G01*
X1494928Y1650079D01*
X1485528Y1619980D02*
G01*
X1485528Y1650079D01*
X1485528Y1619980D02*
G01*
X1475528Y1619980D01*
X1471228Y1621480D01*
X1468328Y1624279D01*
X1466927Y1627179D01*
X1465428Y1631480D01*
X1465428Y1638679D01*
X1466927Y1642979D01*
X1468328Y1645779D01*
X1471228Y1648679D01*
X1475528Y1650079D01*
X1485528Y1650079D01*
X1456027Y1619980D02*
G01*
X1444528Y1634380D01*
X1444528Y1650079D01*
X1433127Y1619980D02*
G01*
X1444528Y1634380D01*
X1524528Y1519980D02*
G01*
X1524528Y1550079D01*
X1515028Y1519980D02*
G01*
X1515028Y1550079D01*
X1515028Y1519980D02*
G01*
X1495028Y1550079D01*
X1495028Y1519980D02*
G01*
X1495028Y1550079D01*
X1475528Y1519980D02*
G01*
X1475528Y1550079D01*
X1485528Y1519980D02*
G01*
X1465528Y1519980D01*
X1456027Y1519980D02*
G01*
X1456027Y1550079D01*
X1456027Y1519980D02*
G01*
X1444628Y1550079D01*
X1433127Y1519980D02*
G01*
X1444628Y1550079D01*
X1433127Y1519980D02*
G01*
X1433127Y1550079D01*
X1508726Y1420079D02*
G01*
X1508726Y1450079D01*
X1499227Y1420079D02*
G01*
X1499227Y1450079D01*
X1499227Y1420079D02*
G01*
X1479227Y1450079D01*
X1479227Y1420079D02*
G01*
X1479227Y1450079D01*
X1459727Y1420079D02*
G01*
X1459727Y1450079D01*
X1469727Y1420079D02*
G01*
X1449727Y1420079D01*
X1440227Y1425779D02*
G01*
X1437426Y1424380D01*
X1433127Y1420079D01*
X1433127Y1450079D01*
X1521625Y1320079D02*
G01*
X1521625Y1350079D01*
X1512125Y1320079D02*
G01*
X1512125Y1350079D01*
X1512125Y1320079D02*
G01*
X1492125Y1350079D01*
X1492125Y1320079D02*
G01*
X1492125Y1350079D01*
X1472626Y1320079D02*
G01*
X1472626Y1350079D01*
X1482626Y1320079D02*
G01*
X1462626Y1320079D01*
X1451725Y1327179D02*
G01*
X1451725Y1325779D01*
X1450325Y1322880D01*
X1448825Y1321480D01*
X1446026Y1320079D01*
X1440226Y1320079D01*
X1437425Y1321480D01*
X1435925Y1322880D01*
X1434525Y1325779D01*
X1434525Y1328580D01*
X1435925Y1331480D01*
X1438825Y1335779D01*
X1453126Y1350079D01*
X1433126Y1350079D01*
X1510726Y1220079D02*
G01*
X1510726Y1250079D01*
X1510726Y1220079D02*
G01*
X1500726Y1220079D01*
X1496427Y1221480D01*
X1493527Y1224380D01*
X1492127Y1227179D01*
X1490726Y1231480D01*
X1490726Y1238679D01*
X1492127Y1242979D01*
X1493527Y1245779D01*
X1496427Y1248679D01*
X1500726Y1250079D01*
X1510726Y1250079D01*
X1481226Y1220079D02*
G01*
X1481226Y1250079D01*
X1481226Y1220079D02*
G01*
X1462627Y1220079D01*
X1481226Y1234380D02*
G01*
X1469826Y1234380D01*
X1481226Y1250079D02*
G01*
X1462627Y1250079D01*
X1453226Y1220079D02*
G01*
X1453226Y1250079D01*
X1453226Y1220079D02*
G01*
X1433127Y1250079D01*
X1433127Y1220079D02*
G01*
>>>>>>> main
X1433127Y1250079D01*
D10*
X1460000Y975399D02*
G01*
X1460000Y944699D01*
X1461999Y938600D01*
X1466099Y934499D01*
X1472299Y932500D01*
X1476400Y932500D01*
X1482500Y934499D01*
X1486599Y938600D01*
X1488599Y944699D01*
X1488599Y975399D01*
X1526700Y969299D02*
G01*
X1524600Y973400D01*
X1518500Y975399D01*
X1514399Y975399D01*
X1508299Y973400D01*
X1504200Y967199D01*
X1502100Y956999D01*
X1502100Y946799D01*
X1504200Y938600D01*
X1508299Y934499D01*
X1514399Y932500D01*
X1516499Y932500D01*
X1522600Y934499D01*
X1526700Y938600D01*
X1528699Y944699D01*
X1528699Y946799D01*
X1526700Y952899D01*
X1522600Y956999D01*
X1516499Y959000D01*
X1514399Y959000D01*
X1508299Y956999D01*
X1504200Y952899D01*
X1502100Y946799D01*
D11*
X1250000Y635700D02*
G01*
X1250000Y559400D01*
X1250000Y635700D02*
G01*
X1282700Y635700D01*
X1293599Y632100D01*
X1297299Y628499D01*
X1300900Y621199D01*
X1300900Y613899D01*
X1297299Y606599D01*
X1293599Y603000D01*
X1282700Y599400D01*
X1250000Y599400D02*
G01*
X1282700Y599400D01*
X1293599Y595700D01*
X1297299Y592100D01*
X1300900Y584800D01*
X1300900Y573899D01*
X1297299Y566599D01*
X1293599Y563000D01*
X1282700Y559400D01*
X1250000Y559400D01*
X1324899Y635700D02*
G01*
X1324899Y559400D01*
X1324899Y635700D02*
G01*
X1353999Y559400D01*
X1383100Y635700D02*
G01*
X1353999Y559400D01*
X1383100Y635700D02*
G01*
X1383100Y559400D01*
X1407100Y635700D02*
G01*
X1407100Y559400D01*
X1407100Y635700D02*
G01*
X1439799Y635700D01*
X1450699Y632100D01*
X1454399Y628499D01*
X1458000Y621199D01*
X1458000Y610300D01*
X1454399Y603000D01*
X1450699Y599400D01*
X1439799Y595700D01*
X1407100Y595700D01*
X1489300Y635700D02*
G01*
X1529300Y635700D01*
X1507500Y606599D01*
X1518400Y606599D01*
X1525600Y603000D01*
X1529300Y599400D01*
X1532899Y588499D01*
X1532899Y581199D01*
X1529300Y570300D01*
X1521999Y563000D01*
X1511099Y559400D01*
X1500200Y559400D01*
X1489300Y563000D01*
X1485600Y566599D01*
X1481999Y573899D01*
X1604200Y610300D02*
G01*
X1600500Y599400D01*
X1593299Y592100D01*
X1582399Y588499D01*
X1578699Y588499D01*
X1567799Y592100D01*
X1560500Y599400D01*
X1556899Y610300D01*
X1556899Y613899D01*
X1560500Y624800D01*
X1567799Y632100D01*
X1578699Y635700D01*
X1582399Y635700D01*
X1593299Y632100D01*
X1600500Y624800D01*
X1604200Y610300D01*
X1604200Y592100D01*
X1600500Y573899D01*
X1593299Y563000D01*
X1582399Y559400D01*
X1575100Y559400D01*
X1564200Y563000D01*
X1560500Y570300D01*
X1650000Y635700D02*
G01*
X1639099Y632100D01*
X1631800Y621199D01*
X1628199Y603000D01*
X1628199Y592100D01*
X1631800Y573899D01*
X1639099Y563000D01*
X1650000Y559400D01*
X1657299Y559400D01*
X1668199Y563000D01*
X1675500Y573899D01*
X1679099Y592100D01*
X1679099Y603000D01*
X1675500Y621199D01*
X1668199Y632100D01*
X1657299Y635700D01*
X1650000Y635700D01*
<<<<<<< HEAD
X1293900Y312399D02*
G01*
X1292299Y315500D01*
X1289099Y318699D01*
X1285900Y320300D01*
X1279499Y320300D01*
X1276400Y318699D01*
X1273199Y315500D01*
X1271599Y312399D01*
X1270000Y307600D01*
X1270000Y299600D01*
X1271599Y294899D01*
X1273199Y291700D01*
X1276400Y288499D01*
X1279499Y286900D01*
X1285900Y286900D01*
X1289099Y288499D01*
X1292299Y291700D01*
X1293900Y294899D01*
X1293900Y299600D01*
X1285900Y299600D02*
G01*
X1293900Y299600D01*
X1304399Y320300D02*
G01*
X1304399Y286900D01*
X1304399Y320300D02*
G01*
X1326599Y286900D01*
X1326599Y320300D02*
G01*
X1326599Y286900D01*
X1337100Y320300D02*
G01*
X1337100Y286900D01*
X1337100Y320300D02*
G01*
X1348299Y320300D01*
X1353000Y318699D01*
X1356199Y315500D01*
X1357799Y312399D01*
X1359399Y307600D01*
X1359399Y299600D01*
X1357799Y294899D01*
X1356199Y291700D01*
X1353000Y288499D01*
X1348299Y286900D01*
X1337100Y286900D01*
X1075000Y315300D02*
G01*
X1087700Y281900D01*
X1100500Y315300D02*
G01*
X1087700Y281900D01*
X1111000Y315300D02*
G01*
X1111000Y281900D01*
X1121499Y315300D02*
G01*
X1121499Y281900D01*
X1121499Y315300D02*
G01*
X1143699Y281900D01*
X1143699Y315300D02*
G01*
X1143699Y281900D01*
D13*
=======
D14*
X1303599Y310500D02*
G01*
X1302700Y312300D01*
X1300900Y314099D01*
X1299099Y315000D01*
X1295500Y315000D01*
X1293599Y314099D01*
X1291800Y312300D01*
X1290900Y310500D01*
X1290000Y307699D01*
X1290000Y303200D01*
X1290900Y300500D01*
X1291800Y298600D01*
X1293599Y296799D01*
X1295500Y295900D01*
X1299099Y295900D01*
X1300900Y296799D01*
X1302700Y298600D01*
X1303599Y300500D01*
X1303599Y303200D01*
X1299099Y303200D02*
G01*
X1303599Y303200D01*
X1309600Y315000D02*
G01*
X1309600Y295900D01*
X1309600Y315000D02*
G01*
X1322399Y295900D01*
X1322399Y315000D02*
G01*
X1322399Y295900D01*
X1328400Y315000D02*
G01*
X1328400Y295900D01*
X1328400Y315000D02*
G01*
X1334700Y315000D01*
X1337500Y314099D01*
X1339300Y312300D01*
X1340200Y310500D01*
X1341099Y307699D01*
X1341099Y303200D01*
X1340200Y300500D01*
X1339300Y298600D01*
X1337500Y296799D01*
X1334700Y295900D01*
X1328400Y295900D01*
X1095000Y315000D02*
G01*
X1102299Y295900D01*
X1109499Y315000D02*
G01*
X1102299Y295900D01*
X1115500Y315000D02*
G01*
X1115500Y295900D01*
X1121499Y315000D02*
G01*
X1121499Y295900D01*
X1121499Y315000D02*
G01*
X1134300Y295900D01*
X1134300Y315000D02*
G01*
X1134300Y295900D01*
>>>>>>> main
X1201800Y315000D02*
G01*
X1211800Y315000D01*
X1206400Y307699D01*
X1209099Y307699D01*
X1210900Y306799D01*
X1211800Y305900D01*
X1212700Y303200D01*
X1212700Y301399D01*
X1211800Y298600D01*
X1210000Y296799D01*
X1207299Y295900D01*
X1204499Y295900D01*
X1201800Y296799D01*
X1200900Y297699D01*
X1200000Y299600D01*
X1218699Y315000D02*
G01*
X1226000Y295900D01*
X1233299Y315000D02*
G01*
X1226000Y295900D01*
<<<<<<< HEAD
D11*
X1397299Y315500D02*
G01*
X1394099Y318699D01*
X1389300Y320300D01*
X1383000Y320300D01*
X1378199Y318699D01*
X1375000Y315500D01*
X1375000Y312399D01*
X1376599Y309200D01*
X1378199Y307600D01*
X1381400Y305999D01*
X1390900Y302800D01*
X1394099Y301199D01*
X1395699Y299600D01*
X1397299Y296500D01*
X1397299Y291700D01*
X1394099Y288499D01*
X1389300Y286900D01*
X1383000Y286900D01*
X1378199Y288499D01*
X1375000Y291700D01*
X1431599Y312399D02*
G01*
X1430000Y315500D01*
X1426899Y318699D01*
X1423699Y320300D01*
X1417299Y320300D01*
X1414099Y318699D01*
X1411000Y315500D01*
X1409399Y312399D01*
X1407799Y307600D01*
X1407799Y299600D01*
X1409399Y294899D01*
X1411000Y291700D01*
X1414099Y288499D01*
X1417299Y286900D01*
X1423699Y286900D01*
X1426899Y288499D01*
X1430000Y291700D01*
X1431599Y294899D01*
X1442100Y320300D02*
G01*
X1442100Y286900D01*
X1464399Y320300D02*
G01*
X1442100Y298000D01*
X1450100Y305999D02*
G01*
X1464399Y286900D01*
D13*
=======
X1402700Y312300D02*
G01*
X1400900Y314099D01*
X1398199Y315000D01*
X1394499Y315000D01*
X1391800Y314099D01*
X1390000Y312300D01*
X1390000Y310500D01*
X1390900Y308600D01*
X1391800Y307699D01*
X1393599Y306799D01*
X1399099Y305000D01*
X1400900Y304099D01*
X1401800Y303200D01*
X1402700Y301399D01*
X1402700Y298600D01*
X1400900Y296799D01*
X1398199Y295900D01*
X1394499Y295900D01*
X1391800Y296799D01*
X1390000Y298600D01*
X1422399Y310500D02*
G01*
X1421499Y312300D01*
X1419600Y314099D01*
X1417799Y315000D01*
X1414200Y315000D01*
X1412399Y314099D01*
X1410500Y312300D01*
X1409600Y310500D01*
X1408699Y307699D01*
X1408699Y303200D01*
X1409600Y300500D01*
X1410500Y298600D01*
X1412399Y296799D01*
X1414200Y295900D01*
X1417799Y295900D01*
X1419600Y296799D01*
X1421499Y298600D01*
X1422399Y300500D01*
X1428400Y315000D02*
G01*
X1428400Y295900D01*
X1441099Y315000D02*
G01*
X1428400Y302300D01*
X1432899Y306799D02*
G01*
X1441099Y295900D01*
>>>>>>> main
X1502700Y312300D02*
G01*
X1500900Y314099D01*
X1498199Y315000D01*
X1494499Y315000D01*
X1491800Y314099D01*
X1490000Y312300D01*
X1490000Y310500D01*
X1490900Y308600D01*
X1491800Y307699D01*
X1493599Y306799D01*
X1499099Y305000D01*
X1500900Y304099D01*
X1501800Y303200D01*
X1502700Y301399D01*
X1502700Y298600D01*
X1500900Y296799D01*
X1498199Y295900D01*
X1494499Y295900D01*
X1491800Y296799D01*
X1490000Y298600D01*
X1508699Y315000D02*
G01*
X1508699Y295900D01*
X1508699Y315000D02*
G01*
X1515100Y315000D01*
X1517799Y314099D01*
X1519600Y312300D01*
X1520500Y310500D01*
X1521499Y307699D01*
X1521499Y303200D01*
X1520500Y300500D01*
X1519600Y298600D01*
X1517799Y296799D01*
X1515100Y295900D01*
X1508699Y295900D01*
X1532899Y315000D02*
G01*
X1531099Y314099D01*
X1529300Y312300D01*
X1528400Y310500D01*
X1527500Y307699D01*
X1527500Y303200D01*
X1528400Y300500D01*
X1529300Y298600D01*
X1531099Y296799D01*
X1532899Y295900D01*
X1536499Y295900D01*
X1538400Y296799D01*
X1540200Y298600D01*
X1541099Y300500D01*
X1541999Y303200D01*
X1541999Y307699D01*
X1541099Y310500D01*
X1540200Y312300D01*
X1538400Y314099D01*
X1536499Y315000D01*
X1532899Y315000D01*
<<<<<<< HEAD
D11*
X1607299Y315500D02*
G01*
X1604099Y318699D01*
X1599300Y320300D01*
X1593000Y320300D01*
X1588199Y318699D01*
X1585000Y315500D01*
X1585000Y312399D01*
X1586599Y309200D01*
X1588199Y307600D01*
X1591400Y305999D01*
X1600900Y302800D01*
X1604099Y301199D01*
X1605699Y299600D01*
X1607299Y296500D01*
X1607299Y291700D01*
X1604099Y288499D01*
X1599300Y286900D01*
X1593000Y286900D01*
X1588199Y288499D01*
X1585000Y291700D01*
X1617799Y320300D02*
G01*
X1617799Y286900D01*
X1617799Y320300D02*
G01*
X1628900Y320300D01*
X1633699Y318699D01*
X1636899Y315500D01*
X1638500Y312399D01*
X1640000Y307600D01*
X1640000Y299600D01*
X1638500Y294899D01*
X1636899Y291700D01*
X1633699Y288499D01*
X1628900Y286900D01*
X1617799Y286900D01*
X1650500Y320300D02*
G01*
X1650500Y286900D01*
D13*
=======
X1607700Y312300D02*
G01*
X1605900Y314099D01*
X1603199Y315000D01*
X1599499Y315000D01*
X1596800Y314099D01*
X1595000Y312300D01*
X1595000Y310500D01*
X1595900Y308600D01*
X1596800Y307699D01*
X1598599Y306799D01*
X1604099Y305000D01*
X1605900Y304099D01*
X1606800Y303200D01*
X1607700Y301399D01*
X1607700Y298600D01*
X1605900Y296799D01*
X1603199Y295900D01*
X1599499Y295900D01*
X1596800Y296799D01*
X1595000Y298600D01*
X1613699Y315000D02*
G01*
X1613699Y295900D01*
X1613699Y315000D02*
G01*
X1620100Y315000D01*
X1622799Y314099D01*
X1624600Y312300D01*
X1625500Y310500D01*
X1626499Y307699D01*
X1626499Y303200D01*
X1625500Y300500D01*
X1624600Y298600D01*
X1622799Y296799D01*
X1620100Y295900D01*
X1613699Y295900D01*
X1632500Y315000D02*
G01*
X1632500Y295900D01*
>>>>>>> main
X1713599Y310500D02*
G01*
X1712700Y312300D01*
X1710900Y314099D01*
X1709099Y315000D01*
X1705500Y315000D01*
X1703599Y314099D01*
X1701800Y312300D01*
X1700900Y310500D01*
X1700000Y307699D01*
X1700000Y303200D01*
X1700900Y300500D01*
X1701800Y298600D01*
X1703599Y296799D01*
X1705500Y295900D01*
X1709099Y295900D01*
X1710900Y296799D01*
X1712700Y298600D01*
X1713599Y300500D01*
X1732399Y312300D02*
G01*
X1730500Y314099D01*
X1727799Y315000D01*
X1724200Y315000D01*
X1721499Y314099D01*
X1719600Y312300D01*
X1719600Y310500D01*
X1720500Y308600D01*
X1721499Y307699D01*
X1723299Y306799D01*
X1728699Y305000D01*
X1730500Y304099D01*
X1731499Y303200D01*
X1732399Y301399D01*
X1732399Y298600D01*
X1730500Y296799D01*
X1727799Y295900D01*
X1724200Y295900D01*
X1721499Y296799D01*
X1719600Y298600D01*
X1800000Y315000D02*
G01*
X1800000Y295900D01*
X1806000Y315000D02*
G01*
X1806000Y295900D01*
X1806000Y315000D02*
G01*
X1818699Y295900D01*
X1818699Y315000D02*
G01*
X1818699Y295900D01*
X1831099Y315000D02*
G01*
X1831099Y295900D01*
X1824700Y315000D02*
G01*
X1837500Y315000D01*
D10*
<<<<<<< HEAD
X910000Y1775199D02*
G01*
X910000Y1758200D01*
X911099Y1754800D01*
X913400Y1752500D01*
X916800Y1751399D01*
X919099Y1751399D01*
X922500Y1752500D01*
X924799Y1754800D01*
X925900Y1758200D01*
X925900Y1775199D01*
X949300Y1775199D02*
G01*
X938000Y1751399D01*
X933400Y1775199D02*
G01*
X949300Y1775199D01*
D11*
X620000Y1485599D02*
G01*
X620000Y1409299D01*
X620000Y1485599D02*
G01*
X652699Y1485599D01*
X663600Y1481999D01*
X667300Y1478400D01*
X670900Y1471100D01*
X670900Y1463800D01*
X667300Y1456500D01*
X663600Y1452899D01*
X652699Y1449299D01*
X620000Y1449299D02*
G01*
X652699Y1449299D01*
X663600Y1445599D01*
X667300Y1441999D01*
X670900Y1434699D01*
X670900Y1423800D01*
X667300Y1416500D01*
X663600Y1412899D01*
X652699Y1409299D01*
X620000Y1409299D01*
X694899Y1485599D02*
G01*
X694899Y1409299D01*
X694899Y1485599D02*
G01*
X724000Y1409299D01*
X753099Y1485599D02*
G01*
X724000Y1409299D01*
X753099Y1485599D02*
G01*
X753099Y1409299D01*
X777100Y1485599D02*
G01*
X777100Y1409299D01*
X777100Y1485599D02*
G01*
X809799Y1485599D01*
X820699Y1481999D01*
X824399Y1478400D01*
X828000Y1471100D01*
X828000Y1460199D01*
X824399Y1452899D01*
X820699Y1449299D01*
X809799Y1445599D01*
X777100Y1445599D01*
X859300Y1485599D02*
G01*
X899300Y1485599D01*
X877500Y1456500D01*
X888400Y1456500D01*
X895600Y1452899D01*
X899300Y1449299D01*
X902899Y1438400D01*
X902899Y1431100D01*
X899300Y1420199D01*
X891999Y1412899D01*
X881099Y1409299D01*
X870200Y1409299D01*
X859300Y1412899D01*
X855600Y1416500D01*
X851999Y1423800D01*
X945100Y1485599D02*
G01*
X934200Y1481999D01*
X930500Y1474699D01*
X930500Y1467500D01*
X934200Y1460199D01*
X941499Y1456500D01*
X956000Y1452899D01*
X966899Y1449299D01*
X974200Y1441999D01*
X977799Y1434699D01*
X977799Y1423800D01*
X974200Y1416500D01*
X970500Y1412899D01*
X959600Y1409299D01*
X945100Y1409299D01*
X934200Y1412899D01*
X930500Y1416500D01*
X926899Y1423800D01*
X926899Y1434699D01*
X930500Y1441999D01*
X937799Y1449299D01*
X948699Y1452899D01*
X963299Y1456500D01*
X970500Y1460199D01*
X974200Y1467500D01*
X974200Y1474699D01*
X970500Y1481999D01*
X959600Y1485599D01*
X945100Y1485599D01*
X1020000Y1485599D02*
G01*
X1009099Y1481999D01*
X1005500Y1474699D01*
X1005500Y1467500D01*
X1009099Y1460199D01*
X1016400Y1456500D01*
X1030900Y1452899D01*
X1041800Y1449299D01*
X1049099Y1441999D01*
X1052700Y1434699D01*
X1052700Y1423800D01*
X1049099Y1416500D01*
X1045500Y1412899D01*
X1034499Y1409299D01*
X1020000Y1409299D01*
X1009099Y1412899D01*
X1005500Y1416500D01*
X1001800Y1423800D01*
X1001800Y1434699D01*
X1005500Y1441999D01*
X1012700Y1449299D01*
X1023599Y1452899D01*
X1038199Y1456500D01*
X1045500Y1460199D01*
X1049099Y1467500D01*
X1049099Y1474699D01*
X1045500Y1481999D01*
X1034499Y1485599D01*
X1020000Y1485599D01*
X658899Y1177399D02*
G01*
X657300Y1180500D01*
X654099Y1183699D01*
X650900Y1185300D01*
X644499Y1185300D01*
X641399Y1183699D01*
X638200Y1180500D01*
X636599Y1177399D01*
X635000Y1172600D01*
X635000Y1164600D01*
X636599Y1159899D01*
X638200Y1156700D01*
X641399Y1153499D01*
X644499Y1151900D01*
X650900Y1151900D01*
X654099Y1153499D01*
X657300Y1156700D01*
X658899Y1159899D01*
X658899Y1164600D01*
X650900Y1164600D02*
G01*
X658899Y1164600D01*
X669400Y1185300D02*
G01*
X669400Y1151900D01*
X669400Y1185300D02*
G01*
X691599Y1151900D01*
X691599Y1185300D02*
G01*
X691599Y1151900D01*
X702100Y1185300D02*
G01*
X702100Y1151900D01*
X702100Y1185300D02*
G01*
X713299Y1185300D01*
X718000Y1183699D01*
X721199Y1180500D01*
X722800Y1177399D01*
X724400Y1172600D01*
X724400Y1164600D01*
X722800Y1159899D01*
X721199Y1156700D01*
X718000Y1153499D01*
X713299Y1151900D01*
X702100Y1151900D01*
X445000Y1185300D02*
G01*
X457699Y1151900D01*
X470500Y1185300D02*
G01*
X457699Y1151900D01*
X480999Y1185300D02*
G01*
X480999Y1151900D01*
X491500Y1185300D02*
G01*
X491500Y1151900D01*
X491500Y1185300D02*
G01*
X513699Y1151900D01*
X513699Y1185300D02*
G01*
X513699Y1151900D01*
D13*
X576799Y1190000D02*
G01*
X586799Y1190000D01*
X581399Y1182699D01*
X584099Y1182699D01*
X585900Y1181799D01*
X586799Y1180900D01*
X587699Y1178200D01*
X587699Y1176399D01*
X586799Y1173600D01*
X585000Y1171799D01*
X582300Y1170900D01*
X579499Y1170900D01*
X576799Y1171799D01*
X575900Y1172699D01*
X575000Y1174600D01*
X593699Y1190000D02*
G01*
X600999Y1170900D01*
X608299Y1190000D02*
G01*
X600999Y1170900D01*
D11*
X767299Y1180500D02*
G01*
X764099Y1183699D01*
X759299Y1185300D01*
X753000Y1185300D01*
X748200Y1183699D01*
X745000Y1180500D01*
X745000Y1177399D01*
X746599Y1174200D01*
X748200Y1172600D01*
X751399Y1170999D01*
X760900Y1167800D01*
X764099Y1166199D01*
X765699Y1164600D01*
X767299Y1161500D01*
X767299Y1156700D01*
X764099Y1153499D01*
X759299Y1151900D01*
X753000Y1151900D01*
X748200Y1153499D01*
X745000Y1156700D01*
X801599Y1177399D02*
G01*
X800000Y1180500D01*
X796899Y1183699D01*
X793699Y1185300D01*
X787299Y1185300D01*
X784099Y1183699D01*
X781000Y1180500D01*
X779399Y1177399D01*
X777799Y1172600D01*
X777799Y1164600D01*
X779399Y1159899D01*
X781000Y1156700D01*
X784099Y1153499D01*
X787299Y1151900D01*
X793699Y1151900D01*
X796899Y1153499D01*
X800000Y1156700D01*
X801599Y1159899D01*
X812100Y1185300D02*
G01*
X812100Y1151900D01*
X834399Y1185300D02*
G01*
X812100Y1163000D01*
X820100Y1170999D02*
G01*
X834399Y1151900D01*
D13*
X877700Y1187300D02*
G01*
X875900Y1189099D01*
X873199Y1190000D01*
X869499Y1190000D01*
X866800Y1189099D01*
X865000Y1187300D01*
X865000Y1185500D01*
X865900Y1183600D01*
X866800Y1182699D01*
X868599Y1181799D01*
X874099Y1180000D01*
X875900Y1179099D01*
X876800Y1178200D01*
X877700Y1176399D01*
X877700Y1173600D01*
X875900Y1171799D01*
X873199Y1170900D01*
X869499Y1170900D01*
X866800Y1171799D01*
X865000Y1173600D01*
X883699Y1190000D02*
G01*
X883699Y1170900D01*
X883699Y1190000D02*
G01*
X890100Y1190000D01*
X892799Y1189099D01*
X894600Y1187300D01*
X895500Y1185500D01*
X896499Y1182699D01*
X896499Y1178200D01*
X895500Y1175500D01*
X894600Y1173600D01*
X892799Y1171799D01*
X890100Y1170900D01*
X883699Y1170900D01*
X907899Y1190000D02*
G01*
X906099Y1189099D01*
X904300Y1187300D01*
X903400Y1185500D01*
X902500Y1182699D01*
X902500Y1178200D01*
X903400Y1175500D01*
X904300Y1173600D01*
X906099Y1171799D01*
X907899Y1170900D01*
X911499Y1170900D01*
X913400Y1171799D01*
X915200Y1173600D01*
X916099Y1175500D01*
X916999Y1178200D01*
X916999Y1182699D01*
X916099Y1185500D01*
X915200Y1187300D01*
X913400Y1189099D01*
X911499Y1190000D01*
X907899Y1190000D01*
D11*
X972299Y1185500D02*
G01*
X969099Y1188699D01*
X964300Y1190300D01*
X958000Y1190300D01*
X953199Y1188699D01*
X950000Y1185500D01*
X950000Y1182399D01*
X951599Y1179200D01*
X953199Y1177600D01*
X956400Y1175999D01*
X965900Y1172800D01*
X969099Y1171199D01*
X970699Y1169600D01*
X972299Y1166500D01*
X972299Y1161700D01*
X969099Y1158499D01*
X964300Y1156900D01*
X958000Y1156900D01*
X953199Y1158499D01*
X950000Y1161700D01*
X982799Y1190300D02*
G01*
X982799Y1156900D01*
X982799Y1190300D02*
G01*
X993900Y1190300D01*
X998699Y1188699D01*
X1001899Y1185500D01*
X1003500Y1182399D01*
X1005000Y1177600D01*
X1005000Y1169600D01*
X1003500Y1164899D01*
X1001899Y1161700D01*
X998699Y1158499D01*
X993900Y1156900D01*
X982799Y1156900D01*
X1015500Y1190300D02*
G01*
X1015500Y1156900D01*
D13*
X1088599Y1185500D02*
G01*
X1087700Y1187300D01*
X1085900Y1189099D01*
X1084099Y1190000D01*
X1080500Y1190000D01*
X1078599Y1189099D01*
X1076800Y1187300D01*
X1075900Y1185500D01*
X1075000Y1182699D01*
X1075000Y1178200D01*
X1075900Y1175500D01*
X1076800Y1173600D01*
X1078599Y1171799D01*
X1080500Y1170900D01*
X1084099Y1170900D01*
X1085900Y1171799D01*
X1087700Y1173600D01*
X1088599Y1175500D01*
X1107399Y1187300D02*
G01*
X1105500Y1189099D01*
X1102799Y1190000D01*
X1099200Y1190000D01*
X1096499Y1189099D01*
X1094600Y1187300D01*
X1094600Y1185500D01*
X1095500Y1183600D01*
X1096499Y1182699D01*
X1098299Y1181799D01*
X1103699Y1180000D01*
X1105500Y1179099D01*
X1106499Y1178200D01*
X1107399Y1176399D01*
X1107399Y1173600D01*
X1105500Y1171799D01*
X1102799Y1170900D01*
X1099200Y1170900D01*
X1096499Y1171799D01*
X1094600Y1173600D01*
X1175000Y1190000D02*
G01*
X1175000Y1170900D01*
X1181000Y1190000D02*
G01*
X1181000Y1170900D01*
X1181000Y1190000D02*
G01*
X1193699Y1170900D01*
X1193699Y1190000D02*
G01*
X1193699Y1170900D01*
X1206099Y1190000D02*
G01*
X1206099Y1170900D01*
X1199700Y1190000D02*
G01*
X1212500Y1190000D01*
D10*
X1999600Y1690000D02*
G01*
X2042500Y1690000D01*
X1999600Y1690000D02*
G01*
X1999600Y1708400D01*
X2001599Y1714499D01*
X2003699Y1716599D01*
X2007799Y1718600D01*
X2011899Y1718600D01*
X2016000Y1716599D01*
X2018000Y1714499D01*
X2020000Y1708400D01*
X2020000Y1690000D02*
G01*
X2020000Y1708400D01*
X2022100Y1714499D01*
X2024099Y1716599D01*
X2028199Y1718600D01*
X2034399Y1718600D01*
X2038500Y1716599D01*
X2040500Y1714499D01*
X2042500Y1708400D01*
X2042500Y1690000D01*
X1999600Y1732100D02*
G01*
X2030299Y1732100D01*
X2036400Y1734200D01*
X2040500Y1738299D01*
X2042500Y1744400D01*
X2042500Y1748499D01*
X2040500Y1754600D01*
X2036400Y1758699D01*
X2030299Y1760799D01*
X1999600Y1760799D01*
X1999600Y1802899D02*
G01*
X2042500Y1774299D01*
X1999600Y1774299D02*
G01*
X1999600Y1802899D01*
X2042500Y1774299D02*
G01*
X2042500Y1802899D01*
X1999600Y1845000D02*
G01*
X2042500Y1816399D01*
X1999600Y1816399D02*
G01*
X1999600Y1845000D01*
X2042500Y1816399D02*
G01*
X2042500Y1845000D01*
X1999600Y1858499D02*
G01*
X2042500Y1858499D01*
X1999600Y1858499D02*
G01*
X1999600Y1885100D01*
X2020000Y1858499D02*
G01*
X2020000Y1874899D01*
X2042500Y1858499D02*
G01*
X2042500Y1885100D01*
X1999600Y1898600D02*
G01*
X2042500Y1898600D01*
X1999600Y1898600D02*
G01*
X1999600Y1916999D01*
X2001599Y1923200D01*
X2003699Y1925199D01*
X2007799Y1927300D01*
X2011899Y1927300D01*
X2016000Y1925199D01*
X2018000Y1923200D01*
X2020000Y1916999D01*
X2020000Y1898600D01*
X2020000Y1913000D02*
G01*
X2042500Y1927300D01*
X3775299Y1170000D02*
G01*
X3746599Y1170000D01*
X3775299Y1170000D02*
G01*
X3775299Y1152300D01*
X3761599Y1170000D02*
G01*
X3761599Y1159099D01*
X3768500Y1141900D02*
G01*
X3769799Y1141900D01*
X3772500Y1140500D01*
X3773900Y1139200D01*
X3775299Y1136500D01*
X3775299Y1130999D01*
X3773900Y1128299D01*
X3772500Y1126900D01*
X3769799Y1125500D01*
X3767100Y1125500D01*
X3764399Y1126900D01*
X3760299Y1129600D01*
X3746599Y1143299D01*
X3746599Y1124200D01*
X3737100Y1115199D02*
G01*
X3737100Y1090599D01*
X3768500Y1080300D02*
G01*
X3769799Y1080300D01*
X3772500Y1078899D01*
X3773900Y1077500D01*
X3775299Y1074800D01*
X3775299Y1069400D01*
X3773900Y1066599D01*
X3772500Y1065300D01*
X3769799Y1063899D01*
X3767100Y1063899D01*
X3764399Y1065300D01*
X3760299Y1068000D01*
X3746599Y1081599D01*
X3746599Y1062500D01*
X116799Y2054099D02*
G01*
X119099Y2056399D01*
X120199Y2059800D01*
X120199Y2064299D01*
X119099Y2067699D01*
X116799Y2070000D01*
X114499Y2070000D01*
X112300Y2068899D01*
X111100Y2067699D01*
X110000Y2065500D01*
X107699Y2058600D01*
X106599Y2056399D01*
X105500Y2055199D01*
X103200Y2054099D01*
X99800Y2054099D01*
X97500Y2056399D01*
X96399Y2059800D01*
X96399Y2064299D01*
X97500Y2067699D01*
X99800Y2070000D01*
X120199Y2046599D02*
G01*
X96399Y2046599D01*
X120199Y2046599D02*
G01*
X120199Y2036399D01*
X119099Y2033000D01*
X118000Y2031799D01*
X115700Y2030700D01*
X113400Y2030700D01*
X111100Y2031799D01*
X110000Y2033000D01*
X108899Y2036399D01*
X108899Y2046599D01*
X108899Y2038600D02*
G01*
X96399Y2030700D01*
X120199Y2023200D02*
G01*
X96399Y2014099D01*
X120199Y2005000D02*
G01*
X96399Y2014099D01*
X120199Y1990700D02*
G01*
X119099Y1994099D01*
X115700Y1996399D01*
X110000Y1997500D01*
X106599Y1997500D01*
X100900Y1996399D01*
X97500Y1994099D01*
X96399Y1990700D01*
X96399Y1988400D01*
X97500Y1985000D01*
X100900Y1982699D01*
X106599Y1981599D01*
X110000Y1981599D01*
X115700Y1982699D01*
X119099Y1985000D01*
X120199Y1988400D01*
X120199Y1990700D01*
X116799Y1949099D02*
G01*
X119099Y1951399D01*
X120199Y1954800D01*
X120199Y1959299D01*
X119099Y1962699D01*
X116799Y1965000D01*
X114499Y1965000D01*
X112300Y1963899D01*
X111100Y1962699D01*
X110000Y1960500D01*
X107699Y1953600D01*
X106599Y1951399D01*
X105500Y1950199D01*
X103200Y1949099D01*
X99800Y1949099D01*
X97500Y1951399D01*
X96399Y1954800D01*
X96399Y1959299D01*
X97500Y1962699D01*
X99800Y1965000D01*
X120199Y1941599D02*
G01*
X96399Y1941599D01*
X120199Y1941599D02*
G01*
X120199Y1931399D01*
X119099Y1928000D01*
X118000Y1926799D01*
X115700Y1925700D01*
X113400Y1925700D01*
X111100Y1926799D01*
X110000Y1928000D01*
X108899Y1931399D01*
X108899Y1941599D01*
X108899Y1933600D02*
G01*
X96399Y1925700D01*
X120199Y1918200D02*
G01*
X96399Y1909099D01*
X120199Y1900000D02*
G01*
X96399Y1909099D01*
X115700Y1892500D02*
G01*
X116799Y1890199D01*
X120199Y1886799D01*
X96399Y1886799D01*
X116799Y1854099D02*
G01*
X119099Y1856399D01*
X120199Y1859800D01*
X120199Y1864299D01*
X119099Y1867699D01*
X116799Y1870000D01*
X114499Y1870000D01*
X112300Y1868899D01*
X111100Y1867699D01*
X110000Y1865500D01*
X107699Y1858600D01*
X106599Y1856399D01*
X105500Y1855199D01*
X103200Y1854099D01*
X99800Y1854099D01*
X97500Y1856399D01*
X96399Y1859800D01*
X96399Y1864299D01*
X97500Y1867699D01*
X99800Y1870000D01*
X120199Y1846599D02*
G01*
X96399Y1846599D01*
X120199Y1846599D02*
G01*
X120199Y1836399D01*
X119099Y1833000D01*
X118000Y1831799D01*
X115700Y1830700D01*
X113400Y1830700D01*
X111100Y1831799D01*
X110000Y1833000D01*
X108899Y1836399D01*
X108899Y1846599D01*
X108899Y1838600D02*
G01*
X96399Y1830700D01*
X120199Y1823200D02*
G01*
X96399Y1814099D01*
X120199Y1805000D02*
G01*
X96399Y1814099D01*
X114499Y1796399D02*
G01*
X115700Y1796399D01*
X118000Y1795199D01*
X119099Y1794099D01*
X120199Y1791799D01*
X120199Y1787300D01*
X119099Y1785000D01*
X118000Y1783899D01*
X115700Y1782699D01*
X113400Y1782699D01*
X111100Y1783899D01*
X107699Y1786100D01*
X96399Y1797500D01*
X96399Y1781599D01*
X116799Y1189099D02*
G01*
X119099Y1191399D01*
X120199Y1194800D01*
X120199Y1199299D01*
X119099Y1202699D01*
X116799Y1205000D01*
X114499Y1205000D01*
X112300Y1203899D01*
X111100Y1202699D01*
X110000Y1200500D01*
X107699Y1193600D01*
X106599Y1191399D01*
X105500Y1190199D01*
X103200Y1189099D01*
X99800Y1189099D01*
X97500Y1191399D01*
X96399Y1194800D01*
X96399Y1199299D01*
X97500Y1202699D01*
X99800Y1205000D01*
X120199Y1181599D02*
G01*
X96399Y1181599D01*
X120199Y1181599D02*
G01*
X120199Y1171399D01*
X119099Y1168000D01*
X118000Y1166799D01*
X115700Y1165700D01*
X113400Y1165700D01*
X111100Y1166799D01*
X110000Y1168000D01*
X108899Y1171399D01*
X108899Y1181599D01*
X108899Y1173600D02*
G01*
X96399Y1165700D01*
X120199Y1158200D02*
G01*
X96399Y1149099D01*
X120199Y1140000D02*
G01*
X96399Y1149099D01*
X120199Y1130199D02*
G01*
X120199Y1117699D01*
X111100Y1124499D01*
X111100Y1121100D01*
X110000Y1118899D01*
X108899Y1117699D01*
X105500Y1116599D01*
X103200Y1116599D01*
X99800Y1117699D01*
X97500Y1120000D01*
X96399Y1123400D01*
X96399Y1126799D01*
X97500Y1130199D01*
X98600Y1131399D01*
X100900Y1132500D01*
X116799Y1089099D02*
G01*
X119099Y1091399D01*
X120199Y1094800D01*
X120199Y1099299D01*
X119099Y1102699D01*
X116799Y1105000D01*
X114499Y1105000D01*
X112300Y1103899D01*
X111100Y1102699D01*
X110000Y1100500D01*
X107699Y1093600D01*
X106599Y1091399D01*
X105500Y1090199D01*
X103200Y1089099D01*
X99800Y1089099D01*
X97500Y1091399D01*
X96399Y1094800D01*
X96399Y1099299D01*
X97500Y1102699D01*
X99800Y1105000D01*
X120199Y1081599D02*
G01*
X96399Y1081599D01*
X120199Y1081599D02*
G01*
X120199Y1071399D01*
X119099Y1068000D01*
X118000Y1066799D01*
X115700Y1065700D01*
X113400Y1065700D01*
X111100Y1066799D01*
X110000Y1068000D01*
X108899Y1071399D01*
X108899Y1081599D01*
X108899Y1073600D02*
G01*
X96399Y1065700D01*
X120199Y1058200D02*
G01*
X96399Y1049099D01*
X120199Y1040000D02*
G01*
X96399Y1049099D01*
X120199Y1021100D02*
G01*
X104299Y1032500D01*
X104299Y1015500D01*
X120199Y1021100D02*
G01*
X96399Y1021100D01*
X116799Y989099D02*
G01*
X119099Y991399D01*
X120199Y994800D01*
X120199Y999299D01*
X119099Y1002699D01*
X116799Y1005000D01*
X114499Y1005000D01*
X112300Y1003899D01*
X111100Y1002699D01*
X110000Y1000500D01*
X107699Y993600D01*
X106599Y991399D01*
X105500Y990199D01*
X103200Y989099D01*
X99800Y989099D01*
X97500Y991399D01*
X96399Y994800D01*
X96399Y999299D01*
X97500Y1002699D01*
X99800Y1005000D01*
X120199Y981599D02*
G01*
X96399Y981599D01*
X120199Y981599D02*
G01*
X120199Y971399D01*
X119099Y968000D01*
X118000Y966799D01*
X115700Y965700D01*
X113400Y965700D01*
X111100Y966799D01*
X110000Y968000D01*
X108899Y971399D01*
X108899Y981599D01*
X108899Y973600D02*
G01*
X96399Y965700D01*
X120199Y958200D02*
G01*
X96399Y949099D01*
X120199Y940000D02*
G01*
X96399Y949099D01*
X120199Y918899D02*
G01*
X120199Y930199D01*
X110000Y931399D01*
X111100Y930199D01*
X112300Y926799D01*
X112300Y923400D01*
X111100Y920000D01*
X108899Y917699D01*
X105500Y916599D01*
X103200Y916599D01*
X99800Y917699D01*
X97500Y920000D01*
X96399Y923400D01*
X96399Y926799D01*
X97500Y930199D01*
X98600Y931399D01*
X100900Y932500D01*
X116799Y889099D02*
G01*
X119099Y891399D01*
X120199Y894800D01*
X120199Y899299D01*
X119099Y902699D01*
X116799Y905000D01*
X114499Y905000D01*
X112300Y903899D01*
X111100Y902699D01*
X110000Y900500D01*
X107699Y893600D01*
X106599Y891399D01*
X105500Y890199D01*
X103200Y889099D01*
X99800Y889099D01*
X97500Y891399D01*
X96399Y894800D01*
X96399Y899299D01*
X97500Y902699D01*
X99800Y905000D01*
X120199Y881599D02*
G01*
X96399Y881599D01*
X120199Y881599D02*
G01*
X120199Y871399D01*
X119099Y868000D01*
X118000Y866799D01*
X115700Y865700D01*
X113400Y865700D01*
X111100Y866799D01*
X110000Y868000D01*
X108899Y871399D01*
X108899Y881599D01*
X108899Y873600D02*
G01*
X96399Y865700D01*
X120199Y858200D02*
G01*
X96399Y849099D01*
X120199Y840000D02*
G01*
X96399Y849099D01*
X116799Y818899D02*
G01*
X119099Y820000D01*
X120199Y823400D01*
X120199Y825700D01*
X119099Y829099D01*
X115700Y831399D01*
X110000Y832500D01*
X104299Y832500D01*
X99800Y831399D01*
X97500Y829099D01*
X96399Y825700D01*
X96399Y824499D01*
X97500Y821100D01*
X99800Y818899D01*
X103200Y817699D01*
X104299Y817699D01*
X107699Y818899D01*
X110000Y821100D01*
X111100Y824499D01*
X111100Y825700D01*
X110000Y829099D01*
X107699Y831399D01*
X104299Y832500D01*
X116799Y789099D02*
G01*
X119099Y791399D01*
X120199Y794800D01*
X120199Y799299D01*
X119099Y802699D01*
X116799Y805000D01*
X114499Y805000D01*
X112300Y803899D01*
X111100Y802699D01*
X110000Y800500D01*
X107699Y793600D01*
X106599Y791399D01*
X105500Y790199D01*
X103200Y789099D01*
X99800Y789099D01*
X97500Y791399D01*
X96399Y794800D01*
X96399Y799299D01*
X97500Y802699D01*
X99800Y805000D01*
X120199Y781599D02*
G01*
X96399Y781599D01*
X120199Y781599D02*
G01*
X120199Y771399D01*
X119099Y768000D01*
X118000Y766799D01*
X115700Y765700D01*
X113400Y765700D01*
X111100Y766799D01*
X110000Y768000D01*
X108899Y771399D01*
X108899Y781599D01*
X108899Y773600D02*
G01*
X96399Y765700D01*
X120199Y758200D02*
G01*
X96399Y749099D01*
X120199Y740000D02*
G01*
X96399Y749099D01*
X120199Y716599D02*
G01*
X96399Y728000D01*
X120199Y732500D02*
G01*
X120199Y716599D01*
X116799Y689099D02*
G01*
X119099Y691399D01*
X120199Y694800D01*
X120199Y699299D01*
X119099Y702699D01*
X116799Y705000D01*
X114499Y705000D01*
X112300Y703899D01*
X111100Y702699D01*
X110000Y700500D01*
X107699Y693600D01*
X106599Y691399D01*
X105500Y690199D01*
X103200Y689099D01*
X99800Y689099D01*
X97500Y691399D01*
X96399Y694800D01*
X96399Y699299D01*
X97500Y702699D01*
X99800Y705000D01*
X120199Y681599D02*
G01*
X96399Y681599D01*
X120199Y681599D02*
G01*
X120199Y671399D01*
X119099Y668000D01*
X118000Y666799D01*
X115700Y665700D01*
X113400Y665700D01*
X111100Y666799D01*
X110000Y668000D01*
X108899Y671399D01*
X108899Y681599D01*
X108899Y673600D02*
G01*
X96399Y665700D01*
X120199Y658200D02*
G01*
X96399Y649099D01*
X120199Y640000D02*
G01*
X96399Y649099D01*
X120199Y626799D02*
G01*
X119099Y630199D01*
X116799Y631399D01*
X114499Y631399D01*
X112300Y630199D01*
X111100Y628000D01*
X110000Y623400D01*
X108899Y620000D01*
X106599Y617699D01*
X104299Y616599D01*
X100900Y616599D01*
X98600Y617699D01*
X97500Y618899D01*
X96399Y622300D01*
X96399Y626799D01*
X97500Y630199D01*
X98600Y631399D01*
X100900Y632500D01*
X104299Y632500D01*
X106599Y631399D01*
X108899Y629099D01*
X110000Y625700D01*
X111100Y621100D01*
X112300Y618899D01*
X114499Y617699D01*
X116799Y617699D01*
X119099Y618899D01*
X120199Y622300D01*
X120199Y626799D01*
X116799Y589099D02*
G01*
X119099Y591399D01*
X120199Y594800D01*
X120199Y599299D01*
X119099Y602699D01*
X116799Y605000D01*
X114499Y605000D01*
X112300Y603899D01*
X111100Y602699D01*
X110000Y600500D01*
X107699Y593600D01*
X106599Y591399D01*
X105500Y590199D01*
X103200Y589099D01*
X99800Y589099D01*
X97500Y591399D01*
X96399Y594800D01*
X96399Y599299D01*
X97500Y602699D01*
X99800Y605000D01*
X120199Y581599D02*
G01*
X96399Y581599D01*
X120199Y581599D02*
G01*
X120199Y571399D01*
X119099Y568000D01*
X118000Y566799D01*
X115700Y565700D01*
X113400Y565700D01*
X111100Y566799D01*
X110000Y568000D01*
X108899Y571399D01*
X108899Y581599D01*
X108899Y573600D02*
G01*
X96399Y565700D01*
X120199Y558200D02*
G01*
X96399Y549099D01*
X120199Y540000D02*
G01*
X96399Y549099D01*
X112300Y517699D02*
G01*
X108899Y518899D01*
X106599Y521100D01*
X105500Y524499D01*
X105500Y525700D01*
X106599Y529099D01*
X108899Y531399D01*
X112300Y532500D01*
X113400Y532500D01*
X116799Y531399D01*
X119099Y529099D01*
X120199Y525700D01*
X120199Y524499D01*
X119099Y521100D01*
X116799Y518899D01*
X112300Y517699D01*
X106599Y517699D01*
X100900Y518899D01*
X97500Y521100D01*
X96399Y524499D01*
X96399Y526799D01*
X97500Y530199D01*
X99800Y531399D01*
X2635900Y1816799D02*
G01*
X2633599Y1819099D01*
X2630200Y1820199D01*
X2625699Y1820199D01*
X2622299Y1819099D01*
X2620000Y1816799D01*
X2620000Y1814499D01*
X2621099Y1812300D01*
X2622299Y1811100D01*
X2624499Y1810000D01*
X2631400Y1807699D01*
X2633599Y1806599D01*
X2634799Y1805500D01*
X2635900Y1803200D01*
X2635900Y1799800D01*
X2633599Y1797500D01*
X2630200Y1796399D01*
X2625699Y1796399D01*
X2622299Y1797500D01*
X2620000Y1799800D01*
X2643400Y1820199D02*
G01*
X2649099Y1796399D01*
X2654799Y1820199D02*
G01*
X2649099Y1796399D01*
X2654799Y1820199D02*
G01*
X2660500Y1796399D01*
X2666099Y1820199D02*
G01*
X2660500Y1796399D01*
X2673599Y1815700D02*
G01*
X2675900Y1816799D01*
X2679300Y1820199D01*
X2679300Y1796399D01*
X590000Y1859679D02*
G01*
X583200Y1888380D01*
X576399Y1859679D02*
G01*
X583200Y1888380D01*
X576399Y1859679D02*
G01*
X569499Y1888380D01*
X562699Y1859679D02*
G01*
X569499Y1888380D01*
X553699Y1859679D02*
G01*
X553699Y1888380D01*
X544699Y1859679D02*
G01*
X544699Y1888380D01*
X544699Y1859679D02*
G01*
X525599Y1888380D01*
X525599Y1859679D02*
G01*
X525599Y1888380D01*
X496199Y1866579D02*
G01*
X497500Y1863780D01*
X500300Y1861080D01*
X503000Y1859679D01*
X508499Y1859679D01*
X511199Y1861080D01*
X513899Y1863780D01*
X515300Y1866579D01*
X516599Y1870680D01*
X516599Y1877480D01*
X515300Y1881579D01*
X513899Y1884279D01*
X511199Y1886979D01*
X508499Y1888380D01*
X503000Y1888380D01*
X500300Y1886979D01*
X497500Y1884279D01*
X496199Y1881579D01*
X496199Y1877480D01*
X503000Y1877480D02*
G01*
X496199Y1877480D01*
X487199Y1897880D02*
G01*
X462600Y1897880D01*
X453600Y1859679D02*
G01*
X453600Y1888380D01*
X453600Y1888380D02*
G01*
X437300Y1888380D01*
X428299Y1859679D02*
G01*
X428299Y1888380D01*
X428299Y1859679D02*
G01*
X410500Y1859679D01*
X428299Y1873380D02*
G01*
X417399Y1873380D01*
X428299Y1888380D02*
G01*
X410500Y1888380D01*
X401500Y1859679D02*
G01*
X401500Y1888380D01*
X401500Y1859679D02*
G01*
X391999Y1859679D01*
X387899Y1861080D01*
X385199Y1863780D01*
X383800Y1866579D01*
X382500Y1870680D01*
X382500Y1877480D01*
X383800Y1881579D01*
X385199Y1884279D01*
X387899Y1886979D01*
X391999Y1888380D01*
X401500Y1888380D01*
X373499Y1865180D02*
G01*
X370700Y1863780D01*
X366599Y1859679D01*
X366599Y1888380D01*
X595000Y1819679D02*
G01*
X588200Y1848380D01*
X581399Y1819679D02*
G01*
X588200Y1848380D01*
X581399Y1819679D02*
G01*
X574499Y1848380D01*
X567699Y1819679D02*
G01*
X574499Y1848380D01*
X558699Y1819679D02*
G01*
X558699Y1848380D01*
X549699Y1819679D02*
G01*
X549699Y1848380D01*
X549699Y1819679D02*
G01*
X530599Y1848380D01*
X530599Y1819679D02*
G01*
X530599Y1848380D01*
X501199Y1826579D02*
G01*
X502500Y1823780D01*
X505300Y1821080D01*
X508000Y1819679D01*
X513499Y1819679D01*
X516199Y1821080D01*
X518899Y1823780D01*
X520300Y1826579D01*
X521599Y1830680D01*
X521599Y1837480D01*
X520300Y1841579D01*
X518899Y1844279D01*
X516199Y1846979D01*
X513499Y1848380D01*
X508000Y1848380D01*
X505300Y1846979D01*
X502500Y1844279D01*
X501199Y1841579D01*
X501199Y1837480D01*
X508000Y1837480D02*
G01*
X501199Y1837480D01*
X492199Y1857880D02*
G01*
X467600Y1857880D01*
X458600Y1819679D02*
G01*
X458600Y1848380D01*
X458600Y1848380D02*
G01*
X442300Y1848380D01*
X433299Y1819679D02*
G01*
X433299Y1848380D01*
X433299Y1819679D02*
G01*
X415500Y1819679D01*
X433299Y1833380D02*
G01*
X422399Y1833380D01*
X433299Y1848380D02*
G01*
X415500Y1848380D01*
X406500Y1819679D02*
G01*
X406500Y1848380D01*
X406500Y1819679D02*
G01*
X396999Y1819679D01*
X392899Y1821080D01*
X390199Y1823780D01*
X388800Y1826579D01*
X387500Y1830680D01*
X387500Y1837480D01*
X388800Y1841579D01*
X390199Y1844279D01*
X392899Y1846979D01*
X396999Y1848380D01*
X406500Y1848380D01*
X377100Y1826579D02*
G01*
X377100Y1825180D01*
X375700Y1822480D01*
X374400Y1821080D01*
X371599Y1819679D01*
X366199Y1819679D01*
X363499Y1821080D01*
X362100Y1822480D01*
X360700Y1825180D01*
X360700Y1827880D01*
X362100Y1830680D01*
X364800Y1834679D01*
X378499Y1848380D01*
X359400Y1848380D01*
X1210000Y9699D02*
G01*
X1210000Y38400D01*
X1210000Y9699D02*
G01*
X1192299Y9699D01*
X1210000Y23400D02*
G01*
X1199099Y23400D01*
X1180500Y9699D02*
G01*
X1165500Y9699D01*
X1173699Y20599D01*
X1169600Y20599D01*
X1166899Y21999D01*
X1165500Y23400D01*
X1164200Y27500D01*
X1164200Y30199D01*
X1165500Y34299D01*
X1168299Y36999D01*
X1172399Y38400D01*
X1176499Y38400D01*
X1180500Y36999D01*
X1181899Y35599D01*
X1183299Y32899D01*
X1155200Y47899D02*
G01*
X1130600Y47899D01*
X1118900Y9699D02*
G01*
X1103900Y9699D01*
X1112100Y20599D01*
X1108000Y20599D01*
X1105299Y21999D01*
X1103900Y23400D01*
X1102500Y27500D01*
X1102500Y30199D01*
X1103900Y34299D01*
X1106599Y36999D01*
X1110699Y38400D01*
X1114799Y38400D01*
X1118900Y36999D01*
X1120299Y35599D01*
X1121599Y32899D01*
D14*
X2100000Y1230000D02*
G01*
X2090000Y1230000D01*
X2300000Y1230000D02*
G01*
X2310000Y1230000D01*
X2100000Y1230000D02*
G01*
X2100000Y1260000D01*
X2100000Y1200000D02*
G01*
X2100000Y1230000D01*
X2300000Y1200000D02*
G01*
X2100000Y1200000D01*
X2300000Y1230000D02*
G01*
X2300000Y1200000D01*
X2300000Y1260000D02*
G01*
X2300000Y1230000D01*
X2100000Y1260000D02*
G01*
X2300000Y1260000D01*
D11*
X3885000Y870000D02*
G01*
X3885000Y795000D01*
X3985000Y795000D01*
X3985000Y1095000D01*
X3885000Y1095000D01*
D15*
X3885000Y1095000D02*
G01*
X3885000Y870000D01*
D16*
X3885100Y209899D02*
G01*
X3885100Y9899D01*
X3985100Y9899D01*
X3985100Y209899D01*
X3885100Y209899D01*
=======
X835000Y1850399D02*
G01*
X835000Y1819699D01*
X836999Y1813600D01*
X841099Y1809499D01*
X847299Y1807500D01*
X851400Y1807500D01*
X857500Y1809499D01*
X861599Y1813600D01*
X863599Y1819699D01*
X863599Y1850399D01*
X905799Y1850399D02*
G01*
X885299Y1807500D01*
X877100Y1850399D02*
G01*
X905799Y1850399D01*
D11*
X625000Y1510599D02*
G01*
X625000Y1434299D01*
X625000Y1510599D02*
G01*
X657699Y1510599D01*
X668600Y1506999D01*
X672300Y1503400D01*
X675900Y1496100D01*
X675900Y1488800D01*
X672300Y1481500D01*
X668600Y1477899D01*
X657699Y1474299D01*
X625000Y1474299D02*
G01*
X657699Y1474299D01*
X668600Y1470599D01*
X672300Y1466999D01*
X675900Y1459699D01*
X675900Y1448800D01*
X672300Y1441500D01*
X668600Y1437899D01*
X657699Y1434299D01*
X625000Y1434299D01*
X699899Y1510599D02*
G01*
X699899Y1434299D01*
X699899Y1510599D02*
G01*
X729000Y1434299D01*
X758099Y1510599D02*
G01*
X729000Y1434299D01*
X758099Y1510599D02*
G01*
X758099Y1434299D01*
X782100Y1510599D02*
G01*
X782100Y1434299D01*
X782100Y1510599D02*
G01*
X814799Y1510599D01*
X825699Y1506999D01*
X829399Y1503400D01*
X833000Y1496100D01*
X833000Y1485199D01*
X829399Y1477899D01*
X825699Y1474299D01*
X814799Y1470599D01*
X782100Y1470599D01*
X864300Y1510599D02*
G01*
X904300Y1510599D01*
X882500Y1481500D01*
X893400Y1481500D01*
X900600Y1477899D01*
X904300Y1474299D01*
X907899Y1463400D01*
X907899Y1456100D01*
X904300Y1445199D01*
X896999Y1437899D01*
X886099Y1434299D01*
X875200Y1434299D01*
X864300Y1437899D01*
X860600Y1441500D01*
X856999Y1448800D01*
X950100Y1510599D02*
G01*
X939200Y1506999D01*
X935500Y1499699D01*
X935500Y1492500D01*
X939200Y1485199D01*
X946499Y1481500D01*
X961000Y1477899D01*
X971899Y1474299D01*
X979200Y1466999D01*
X982799Y1459699D01*
X982799Y1448800D01*
X979200Y1441500D01*
X975500Y1437899D01*
X964600Y1434299D01*
X950100Y1434299D01*
X939200Y1437899D01*
X935500Y1441500D01*
X931899Y1448800D01*
X931899Y1459699D01*
X935500Y1466999D01*
X942799Y1474299D01*
X953699Y1477899D01*
X968299Y1481500D01*
X975500Y1485199D01*
X979200Y1492500D01*
X979200Y1499699D01*
X975500Y1506999D01*
X964600Y1510599D01*
X950100Y1510599D01*
X1025000Y1510599D02*
G01*
X1014099Y1506999D01*
X1010500Y1499699D01*
X1010500Y1492500D01*
X1014099Y1485199D01*
X1021400Y1481500D01*
X1035900Y1477899D01*
X1046800Y1474299D01*
X1054099Y1466999D01*
X1057700Y1459699D01*
X1057700Y1448800D01*
X1054099Y1441500D01*
X1050500Y1437899D01*
X1039499Y1434299D01*
X1025000Y1434299D01*
X1014099Y1437899D01*
X1010500Y1441500D01*
X1006800Y1448800D01*
X1006800Y1459699D01*
X1010500Y1466999D01*
X1017700Y1474299D01*
X1028599Y1477899D01*
X1043199Y1481500D01*
X1050500Y1485199D01*
X1054099Y1492500D01*
X1054099Y1499699D01*
X1050500Y1506999D01*
X1039499Y1510599D01*
X1025000Y1510599D01*
D14*
X678600Y1185500D02*
G01*
X677699Y1187300D01*
X675900Y1189099D01*
X674099Y1190000D01*
X670500Y1190000D01*
X668600Y1189099D01*
X666799Y1187300D01*
X665900Y1185500D01*
X665000Y1182699D01*
X665000Y1178200D01*
X665900Y1175500D01*
X666799Y1173600D01*
X668600Y1171799D01*
X670500Y1170900D01*
X674099Y1170900D01*
X675900Y1171799D01*
X677699Y1173600D01*
X678600Y1175500D01*
X678600Y1178200D01*
X674099Y1178200D02*
G01*
X678600Y1178200D01*
X684600Y1190000D02*
G01*
X684600Y1170900D01*
X684600Y1190000D02*
G01*
X697399Y1170900D01*
X697399Y1190000D02*
G01*
X697399Y1170900D01*
X703400Y1190000D02*
G01*
X703400Y1170900D01*
X703400Y1190000D02*
G01*
X709699Y1190000D01*
X712500Y1189099D01*
X714299Y1187300D01*
X715199Y1185500D01*
X716100Y1182699D01*
X716100Y1178200D01*
X715199Y1175500D01*
X714299Y1173600D01*
X712500Y1171799D01*
X709699Y1170900D01*
X703400Y1170900D01*
X470000Y1190000D02*
G01*
X477300Y1170900D01*
X484499Y1190000D02*
G01*
X477300Y1170900D01*
X490500Y1190000D02*
G01*
X490500Y1170900D01*
X496500Y1190000D02*
G01*
X496500Y1170900D01*
X496500Y1190000D02*
G01*
X509299Y1170900D01*
X509299Y1190000D02*
G01*
X509299Y1170900D01*
X576799Y1190000D02*
G01*
X586799Y1190000D01*
X581399Y1182699D01*
X584099Y1182699D01*
X585900Y1181799D01*
X586799Y1180900D01*
X587699Y1178200D01*
X587699Y1176399D01*
X586799Y1173600D01*
X585000Y1171799D01*
X582300Y1170900D01*
X579499Y1170900D01*
X576799Y1171799D01*
X575900Y1172699D01*
X575000Y1174600D01*
X593699Y1190000D02*
G01*
X600999Y1170900D01*
X608299Y1190000D02*
G01*
X600999Y1170900D01*
X777700Y1187300D02*
G01*
X775900Y1189099D01*
X773199Y1190000D01*
X769499Y1190000D01*
X766800Y1189099D01*
X765000Y1187300D01*
X765000Y1185500D01*
X765900Y1183600D01*
X766800Y1182699D01*
X768599Y1181799D01*
X774099Y1180000D01*
X775900Y1179099D01*
X776800Y1178200D01*
X777700Y1176399D01*
X777700Y1173600D01*
X775900Y1171799D01*
X773199Y1170900D01*
X769499Y1170900D01*
X766800Y1171799D01*
X765000Y1173600D01*
X797399Y1185500D02*
G01*
X796499Y1187300D01*
X794600Y1189099D01*
X792799Y1190000D01*
X789200Y1190000D01*
X787399Y1189099D01*
X785500Y1187300D01*
X784600Y1185500D01*
X783699Y1182699D01*
X783699Y1178200D01*
X784600Y1175500D01*
X785500Y1173600D01*
X787399Y1171799D01*
X789200Y1170900D01*
X792799Y1170900D01*
X794600Y1171799D01*
X796499Y1173600D01*
X797399Y1175500D01*
X803400Y1190000D02*
G01*
X803400Y1170900D01*
X816099Y1190000D02*
G01*
X803400Y1177300D01*
X807899Y1181799D02*
G01*
X816099Y1170900D01*
X877700Y1187300D02*
G01*
X875900Y1189099D01*
X873199Y1190000D01*
X869499Y1190000D01*
X866800Y1189099D01*
X865000Y1187300D01*
X865000Y1185500D01*
X865900Y1183600D01*
X866800Y1182699D01*
X868599Y1181799D01*
X874099Y1180000D01*
X875900Y1179099D01*
X876800Y1178200D01*
X877700Y1176399D01*
X877700Y1173600D01*
X875900Y1171799D01*
X873199Y1170900D01*
X869499Y1170900D01*
X866800Y1171799D01*
X865000Y1173600D01*
X883699Y1190000D02*
G01*
X883699Y1170900D01*
X883699Y1190000D02*
G01*
X890100Y1190000D01*
X892799Y1189099D01*
X894600Y1187300D01*
X895500Y1185500D01*
X896499Y1182699D01*
X896499Y1178200D01*
X895500Y1175500D01*
X894600Y1173600D01*
X892799Y1171799D01*
X890100Y1170900D01*
X883699Y1170900D01*
X907899Y1190000D02*
G01*
X906099Y1189099D01*
X904300Y1187300D01*
X903400Y1185500D01*
X902500Y1182699D01*
X902500Y1178200D01*
X903400Y1175500D01*
X904300Y1173600D01*
X906099Y1171799D01*
X907899Y1170900D01*
X911499Y1170900D01*
X913400Y1171799D01*
X915200Y1173600D01*
X916099Y1175500D01*
X916999Y1178200D01*
X916999Y1182699D01*
X916099Y1185500D01*
X915200Y1187300D01*
X913400Y1189099D01*
X911499Y1190000D01*
X907899Y1190000D01*
X982700Y1187300D02*
G01*
X980900Y1189099D01*
X978199Y1190000D01*
X974499Y1190000D01*
X971800Y1189099D01*
X970000Y1187300D01*
X970000Y1185500D01*
X970900Y1183600D01*
X971800Y1182699D01*
X973599Y1181799D01*
X979099Y1180000D01*
X980900Y1179099D01*
X981800Y1178200D01*
X982700Y1176399D01*
X982700Y1173600D01*
X980900Y1171799D01*
X978199Y1170900D01*
X974499Y1170900D01*
X971800Y1171799D01*
X970000Y1173600D01*
X988699Y1190000D02*
G01*
X988699Y1170900D01*
X988699Y1190000D02*
G01*
X995100Y1190000D01*
X997799Y1189099D01*
X999600Y1187300D01*
X1000500Y1185500D01*
X1001499Y1182699D01*
X1001499Y1178200D01*
X1000500Y1175500D01*
X999600Y1173600D01*
X997799Y1171799D01*
X995100Y1170900D01*
X988699Y1170900D01*
X1007500Y1190000D02*
G01*
X1007500Y1170900D01*
X1088599Y1185500D02*
G01*
X1087700Y1187300D01*
X1085900Y1189099D01*
X1084099Y1190000D01*
X1080500Y1190000D01*
X1078599Y1189099D01*
X1076800Y1187300D01*
X1075900Y1185500D01*
X1075000Y1182699D01*
X1075000Y1178200D01*
X1075900Y1175500D01*
X1076800Y1173600D01*
X1078599Y1171799D01*
X1080500Y1170900D01*
X1084099Y1170900D01*
X1085900Y1171799D01*
X1087700Y1173600D01*
X1088599Y1175500D01*
X1107399Y1187300D02*
G01*
X1105500Y1189099D01*
X1102799Y1190000D01*
X1099200Y1190000D01*
X1096499Y1189099D01*
X1094600Y1187300D01*
X1094600Y1185500D01*
X1095500Y1183600D01*
X1096499Y1182699D01*
X1098299Y1181799D01*
X1103699Y1180000D01*
X1105500Y1179099D01*
X1106499Y1178200D01*
X1107399Y1176399D01*
X1107399Y1173600D01*
X1105500Y1171799D01*
X1102799Y1170900D01*
X1099200Y1170900D01*
X1096499Y1171799D01*
X1094600Y1173600D01*
X1175000Y1190000D02*
G01*
X1175000Y1170900D01*
X1181000Y1190000D02*
G01*
X1181000Y1170900D01*
X1181000Y1190000D02*
G01*
X1193699Y1170900D01*
X1193699Y1190000D02*
G01*
X1193699Y1170900D01*
X1206099Y1190000D02*
G01*
X1206099Y1170900D01*
X1199700Y1190000D02*
G01*
X1212500Y1190000D01*
D10*
X3139600Y715999D02*
G01*
X3182500Y715999D01*
X3139600Y715999D02*
G01*
X3139600Y734400D01*
X3141599Y740500D01*
X3143699Y742600D01*
X3147799Y744600D01*
X3151899Y744600D01*
X3156000Y742600D01*
X3158000Y740500D01*
X3160000Y734400D01*
X3160000Y715999D02*
G01*
X3160000Y734400D01*
X3162100Y740500D01*
X3164099Y742600D01*
X3168199Y744600D01*
X3174399Y744600D01*
X3178500Y742600D01*
X3180500Y740500D01*
X3182500Y734400D01*
X3182500Y715999D01*
X3147799Y758099D02*
G01*
X3145699Y762199D01*
X3139600Y768400D01*
X3182500Y768400D01*
X2014600Y1575000D02*
G01*
X2057500Y1575000D01*
X2014600Y1575000D02*
G01*
X2014600Y1593400D01*
X2016599Y1599499D01*
X2018699Y1601599D01*
X2022799Y1603600D01*
X2026899Y1603600D01*
X2031000Y1601599D01*
X2033000Y1599499D01*
X2035000Y1593400D01*
X2035000Y1575000D02*
G01*
X2035000Y1593400D01*
X2037100Y1599499D01*
X2039099Y1601599D01*
X2043199Y1603600D01*
X2049399Y1603600D01*
X2053500Y1601599D01*
X2055500Y1599499D01*
X2057500Y1593400D01*
X2057500Y1575000D01*
X2014600Y1617100D02*
G01*
X2045299Y1617100D01*
X2051400Y1619200D01*
X2055500Y1623299D01*
X2057500Y1629400D01*
X2057500Y1633499D01*
X2055500Y1639600D01*
X2051400Y1643699D01*
X2045299Y1645799D01*
X2014600Y1645799D01*
X2014600Y1687899D02*
G01*
X2057500Y1659299D01*
X2014600Y1659299D02*
G01*
X2014600Y1687899D01*
X2057500Y1659299D02*
G01*
X2057500Y1687899D01*
X2014600Y1730000D02*
G01*
X2057500Y1701399D01*
X2014600Y1701399D02*
G01*
X2014600Y1730000D01*
X2057500Y1701399D02*
G01*
X2057500Y1730000D01*
X2014600Y1743499D02*
G01*
X2057500Y1743499D01*
X2014600Y1743499D02*
G01*
X2014600Y1770100D01*
X2035000Y1743499D02*
G01*
X2035000Y1759899D01*
X2057500Y1743499D02*
G01*
X2057500Y1770100D01*
X2014600Y1783600D02*
G01*
X2057500Y1783600D01*
X2014600Y1783600D02*
G01*
X2014600Y1801999D01*
X2016599Y1808200D01*
X2018699Y1810199D01*
X2022799Y1812300D01*
X2026899Y1812300D01*
X2031000Y1810199D01*
X2033000Y1808200D01*
X2035000Y1801999D01*
X2035000Y1783600D01*
X2035000Y1798000D02*
G01*
X2057500Y1812300D01*
X3905399Y1260000D02*
G01*
X3862500Y1260000D01*
X3905399Y1260000D02*
G01*
X3905399Y1233400D01*
X3885000Y1260000D02*
G01*
X3885000Y1243600D01*
X3895200Y1217899D02*
G01*
X3897200Y1217899D01*
X3901300Y1215799D01*
X3903400Y1213800D01*
X3905399Y1209699D01*
X3905399Y1201500D01*
X3903400Y1197399D01*
X3901300Y1195399D01*
X3897200Y1193299D01*
X3893100Y1193299D01*
X3888999Y1195399D01*
X3882899Y1199499D01*
X3862500Y1219899D01*
X3862500Y1191300D01*
X3848100Y1177800D02*
G01*
X3848100Y1140999D01*
X3895200Y1125399D02*
G01*
X3897200Y1125399D01*
X3901300Y1123400D01*
X3903400Y1121300D01*
X3905399Y1117199D01*
X3905399Y1109000D01*
X3903400Y1105000D01*
X3901300Y1102899D01*
X3897200Y1100900D01*
X3893100Y1100900D01*
X3888999Y1102899D01*
X3882899Y1106999D01*
X3862500Y1127500D01*
X3862500Y1098800D01*
X3760000Y194600D02*
G01*
X3760000Y237500D01*
X3760000Y194600D02*
G01*
X3733400Y194600D01*
X3760000Y215000D02*
G01*
X3743599Y215000D01*
X3717899Y204800D02*
G01*
X3717899Y202800D01*
X3715799Y198699D01*
X3713800Y196599D01*
X3709700Y194600D01*
X3701499Y194600D01*
X3697399Y196599D01*
X3695399Y198699D01*
X3693299Y202800D01*
X3693299Y206900D01*
X3695399Y210999D01*
X3699499Y217100D01*
X3719899Y237500D01*
X3691300Y237500D01*
X3677799Y251900D02*
G01*
X3641000Y251900D01*
X3606999Y194600D02*
G01*
X3627500Y223200D01*
X3596800Y223200D01*
X3606999Y194600D02*
G01*
X3606999Y237500D01*
X2799020Y1504299D02*
G01*
X2803119Y1506399D01*
X2807219Y1510500D01*
X2809219Y1514499D01*
X2809219Y1522699D01*
X2807219Y1526799D01*
X2803119Y1530900D01*
X2799020Y1533000D01*
X2792820Y1535000D01*
X2782619Y1535000D01*
X2776520Y1533000D01*
X2772420Y1530900D01*
X2768320Y1526799D01*
X2766319Y1522699D01*
X2766319Y1514499D01*
X2768320Y1510500D01*
X2772420Y1506399D01*
X2776520Y1504299D01*
X2782619Y1504299D01*
X2782619Y1514499D02*
G01*
X2782619Y1504299D01*
X2809219Y1490799D02*
G01*
X2766319Y1490799D01*
X2809219Y1490799D02*
G01*
X2809219Y1472399D01*
X2807219Y1466300D01*
X2805119Y1464200D01*
X2801019Y1462199D01*
X2794920Y1462199D01*
X2790820Y1464200D01*
X2788819Y1466300D01*
X2786719Y1472399D01*
X2786719Y1490799D01*
X2803119Y1420000D02*
G01*
X2807219Y1424099D01*
X2809219Y1430300D01*
X2809219Y1438499D01*
X2807219Y1444600D01*
X2803119Y1448699D01*
X2799020Y1448699D01*
X2794920Y1446599D01*
X2792820Y1444600D01*
X2790820Y1440500D01*
X2786719Y1428200D01*
X2784719Y1424099D01*
X2782619Y1422100D01*
X2778519Y1420000D01*
X2772420Y1420000D01*
X2768320Y1424099D01*
X2766319Y1430300D01*
X2766319Y1438499D01*
X2768320Y1444600D01*
X2772420Y1448699D01*
X2751920Y1406500D02*
G01*
X2751920Y1369699D01*
X2809219Y1356199D02*
G01*
X2766319Y1356199D01*
X2809219Y1356199D02*
G01*
X2809219Y1337800D01*
X2807219Y1331700D01*
X2805119Y1329600D01*
X2801019Y1327600D01*
X2796920Y1327600D01*
X2792820Y1329600D01*
X2790820Y1331700D01*
X2788819Y1337800D01*
X2788819Y1356199D01*
X2788819Y1341900D02*
G01*
X2766319Y1327600D01*
X2809219Y1314099D02*
G01*
X2766319Y1285500D01*
X2809219Y1285500D02*
G01*
X2766319Y1314099D01*
X2799020Y1269899D02*
G01*
X2801019Y1269899D01*
X2805119Y1267899D01*
X2807219Y1265799D01*
X2809219Y1261700D01*
X2809219Y1253499D01*
X2807219Y1249499D01*
X2805119Y1247399D01*
X2801019Y1245399D01*
X2796920Y1245399D01*
X2792820Y1247399D01*
X2786719Y1251500D01*
X2766319Y1271999D01*
X2766319Y1243299D01*
X2809219Y1215500D02*
G01*
X2766319Y1215500D01*
X2809219Y1229800D02*
G01*
X2809219Y1201199D01*
X2809219Y1187699D02*
G01*
X2766319Y1159000D01*
X2809219Y1159000D02*
G01*
X2766319Y1187699D01*
X2751920Y1145500D02*
G01*
X2751920Y1108699D01*
X2809219Y1095199D02*
G01*
X2766319Y1095199D01*
X2766319Y1095199D02*
G01*
X2766319Y1070700D01*
X2809219Y1057199D02*
G01*
X2766319Y1057199D01*
X2809219Y1057199D02*
G01*
X2809219Y1030599D01*
X2788819Y1057199D02*
G01*
X2788819Y1040799D01*
X2766319Y1057199D02*
G01*
X2766319Y1030599D01*
X2809219Y1017100D02*
G01*
X2766319Y1017100D01*
X2809219Y1017100D02*
G01*
X2809219Y1002800D01*
X2807219Y996599D01*
X2803119Y992500D01*
X2799020Y990500D01*
X2792820Y988499D01*
X2782619Y988499D01*
X2776520Y990500D01*
X2772420Y992500D01*
X2768320Y996599D01*
X2766319Y1002800D01*
X2766319Y1017100D01*
X2899300Y1239800D02*
G01*
X2901400Y1235700D01*
X2905500Y1231599D01*
X2909499Y1229600D01*
X2917700Y1229600D01*
X2921800Y1231599D01*
X2925900Y1235700D01*
X2928000Y1239800D01*
X2930000Y1245999D01*
X2930000Y1256199D01*
X2928000Y1262300D01*
X2925900Y1266399D01*
X2921800Y1270500D01*
X2917700Y1272500D01*
X2909499Y1272500D01*
X2905500Y1270500D01*
X2901400Y1266399D01*
X2899300Y1262300D01*
X2899300Y1256199D01*
X2909499Y1256199D02*
G01*
X2899300Y1256199D01*
X2885799Y1229600D02*
G01*
X2885799Y1272500D01*
X2885799Y1229600D02*
G01*
X2867399Y1229600D01*
X2861300Y1231599D01*
X2859200Y1233699D01*
X2857200Y1237800D01*
X2857200Y1243899D01*
X2859200Y1248000D01*
X2861300Y1250000D01*
X2867399Y1252100D01*
X2885799Y1252100D01*
X2815000Y1235700D02*
G01*
X2819099Y1231599D01*
X2825299Y1229600D01*
X2833500Y1229600D01*
X2839600Y1231599D01*
X2843699Y1235700D01*
X2843699Y1239800D01*
X2841599Y1243899D01*
X2839600Y1245999D01*
X2835500Y1248000D01*
X2823199Y1252100D01*
X2819099Y1254099D01*
X2817100Y1256199D01*
X2815000Y1260300D01*
X2815000Y1266399D01*
X2819099Y1270500D01*
X2825299Y1272500D01*
X2833500Y1272500D01*
X2839600Y1270500D01*
X2843699Y1266399D01*
X2801499Y1286900D02*
G01*
X2764700Y1286900D01*
X2751199Y1229600D02*
G01*
X2751199Y1272500D01*
X2751199Y1229600D02*
G01*
X2732799Y1229600D01*
X2726700Y1231599D01*
X2724600Y1233699D01*
X2722600Y1237800D01*
X2722600Y1241900D01*
X2724600Y1245999D01*
X2726700Y1248000D01*
X2732799Y1250000D01*
X2751199Y1250000D01*
X2736899Y1250000D02*
G01*
X2722600Y1272500D01*
X2709099Y1229600D02*
G01*
X2680500Y1272500D01*
X2680500Y1229600D02*
G01*
X2709099Y1272500D01*
X2664899Y1239800D02*
G01*
X2664899Y1237800D01*
X2662899Y1233699D01*
X2660799Y1231599D01*
X2656700Y1229600D01*
X2648500Y1229600D01*
X2644499Y1231599D01*
X2642399Y1233699D01*
X2640399Y1237800D01*
X2640399Y1241900D01*
X2642399Y1245999D01*
X2646499Y1252100D01*
X2666999Y1272500D01*
X2638299Y1272500D01*
X2610500Y1229600D02*
G01*
X2610500Y1272500D01*
X2624799Y1229600D02*
G01*
X2596199Y1229600D01*
X2582700Y1229600D02*
G01*
X2553999Y1272500D01*
X2553999Y1229600D02*
G01*
X2582700Y1272500D01*
X2540500Y1286900D02*
G01*
X2503699Y1286900D01*
X2490200Y1229600D02*
G01*
X2490200Y1272500D01*
X2490200Y1229600D02*
G01*
X2471800Y1229600D01*
X2465699Y1231599D01*
X2463599Y1233699D01*
X2461599Y1237800D01*
X2461599Y1241900D01*
X2463599Y1245999D01*
X2465699Y1248000D01*
X2471800Y1250000D01*
X2490200Y1250000D01*
X2475900Y1250000D02*
G01*
X2461599Y1272500D01*
X2729020Y1289299D02*
G01*
X2733119Y1291399D01*
X2737219Y1295500D01*
X2739219Y1299499D01*
X2739219Y1307699D01*
X2737219Y1311799D01*
X2733119Y1315900D01*
X2729020Y1318000D01*
X2722820Y1320000D01*
X2712619Y1320000D01*
X2706520Y1318000D01*
X2702420Y1315900D01*
X2698320Y1311799D01*
X2696319Y1307699D01*
X2696319Y1299499D01*
X2698320Y1295500D01*
X2702420Y1291399D01*
X2706520Y1289299D01*
X2712619Y1289299D01*
X2712619Y1299499D02*
G01*
X2712619Y1289299D01*
X2739219Y1275799D02*
G01*
X2696319Y1275799D01*
X2739219Y1275799D02*
G01*
X2739219Y1257399D01*
X2737219Y1251300D01*
X2735119Y1249200D01*
X2731019Y1247199D01*
X2724920Y1247199D01*
X2720820Y1249200D01*
X2718819Y1251300D01*
X2716719Y1257399D01*
X2716719Y1275799D01*
X2733119Y1205000D02*
G01*
X2737219Y1209099D01*
X2739219Y1215300D01*
X2739219Y1223499D01*
X2737219Y1229600D01*
X2733119Y1233699D01*
X2729020Y1233699D01*
X2724920Y1231599D01*
X2722820Y1229600D01*
X2720820Y1225500D01*
X2716719Y1213200D01*
X2714719Y1209099D01*
X2712619Y1207100D01*
X2708519Y1205000D01*
X2702420Y1205000D01*
X2698320Y1209099D01*
X2696319Y1215300D01*
X2696319Y1223499D01*
X2698320Y1229600D01*
X2702420Y1233699D01*
X2681920Y1191500D02*
G01*
X2681920Y1154699D01*
X2739219Y1126900D02*
G01*
X2696319Y1126900D01*
X2739219Y1141199D02*
G01*
X2739219Y1112600D01*
X2739219Y1099099D02*
G01*
X2696319Y1070500D01*
X2739219Y1070500D02*
G01*
X2696319Y1099099D01*
X2729020Y1054899D02*
G01*
X2731019Y1054899D01*
X2735119Y1052899D01*
X2737219Y1050799D01*
X2739219Y1046700D01*
X2739219Y1038499D01*
X2737219Y1034499D01*
X2735119Y1032399D01*
X2731019Y1030399D01*
X2726920Y1030399D01*
X2722820Y1032399D01*
X2716719Y1036500D01*
X2696319Y1056999D01*
X2696319Y1028299D01*
X2739219Y1014800D02*
G01*
X2696319Y1014800D01*
X2739219Y1014800D02*
G01*
X2739219Y996399D01*
X2737219Y990300D01*
X2735119Y988200D01*
X2731019Y986199D01*
X2726920Y986199D01*
X2722820Y988200D01*
X2720820Y990300D01*
X2718819Y996399D01*
X2718819Y1014800D01*
X2718819Y1000500D02*
G01*
X2696319Y986199D01*
X2739219Y972699D02*
G01*
X2696319Y944000D01*
X2739219Y944000D02*
G01*
X2696319Y972699D01*
X2681920Y930500D02*
G01*
X2681920Y893699D01*
X2739219Y880199D02*
G01*
X2696319Y880199D01*
X2696319Y880199D02*
G01*
X2696319Y855700D01*
X2739219Y842199D02*
G01*
X2696319Y842199D01*
X2739219Y842199D02*
G01*
X2739219Y815599D01*
X2718819Y842199D02*
G01*
X2718819Y825799D01*
X2696319Y842199D02*
G01*
X2696319Y815599D01*
X2739219Y802100D02*
G01*
X2696319Y802100D01*
X2739219Y802100D02*
G01*
X2739219Y787800D01*
X2737219Y781599D01*
X2733119Y777500D01*
X2729020Y775500D01*
X2722820Y773499D01*
X2712619Y773499D01*
X2706520Y775500D01*
X2702420Y777500D01*
X2698320Y781599D01*
X2696319Y787800D01*
X2696319Y802100D01*
X2899300Y1144800D02*
G01*
X2901400Y1140700D01*
X2905500Y1136599D01*
X2909499Y1134600D01*
X2917700Y1134600D01*
X2921800Y1136599D01*
X2925900Y1140700D01*
X2928000Y1144800D01*
X2930000Y1150999D01*
X2930000Y1161199D01*
X2928000Y1167300D01*
X2925900Y1171399D01*
X2921800Y1175500D01*
X2917700Y1177500D01*
X2909499Y1177500D01*
X2905500Y1175500D01*
X2901400Y1171399D01*
X2899300Y1167300D01*
X2899300Y1161199D01*
X2909499Y1161199D02*
G01*
X2899300Y1161199D01*
X2885799Y1134600D02*
G01*
X2885799Y1177500D01*
X2885799Y1134600D02*
G01*
X2867399Y1134600D01*
X2861300Y1136599D01*
X2859200Y1138699D01*
X2857200Y1142800D01*
X2857200Y1148899D01*
X2859200Y1153000D01*
X2861300Y1155000D01*
X2867399Y1157100D01*
X2885799Y1157100D01*
X2815000Y1140700D02*
G01*
X2819099Y1136599D01*
X2825299Y1134600D01*
X2833500Y1134600D01*
X2839600Y1136599D01*
X2843699Y1140700D01*
X2843699Y1144800D01*
X2841599Y1148899D01*
X2839600Y1150999D01*
X2835500Y1153000D01*
X2823199Y1157100D01*
X2819099Y1159099D01*
X2817100Y1161199D01*
X2815000Y1165300D01*
X2815000Y1171399D01*
X2819099Y1175500D01*
X2825299Y1177500D01*
X2833500Y1177500D01*
X2839600Y1175500D01*
X2843699Y1171399D01*
X2801499Y1191900D02*
G01*
X2764700Y1191900D01*
X2736899Y1134600D02*
G01*
X2736899Y1177500D01*
X2751199Y1134600D02*
G01*
X2722600Y1134600D01*
X2709099Y1134600D02*
G01*
X2680500Y1177500D01*
X2680500Y1134600D02*
G01*
X2709099Y1177500D01*
X2664899Y1144800D02*
G01*
X2664899Y1142800D01*
X2662899Y1138699D01*
X2660799Y1136599D01*
X2656700Y1134600D01*
X2648500Y1134600D01*
X2644499Y1136599D01*
X2642399Y1138699D01*
X2640399Y1142800D01*
X2640399Y1146900D01*
X2642399Y1150999D01*
X2646499Y1157100D01*
X2666999Y1177500D01*
X2638299Y1177500D01*
X2624799Y1134600D02*
G01*
X2624799Y1177500D01*
X2624799Y1134600D02*
G01*
X2606400Y1134600D01*
X2600299Y1136599D01*
X2598199Y1138699D01*
X2596199Y1142800D01*
X2596199Y1146900D01*
X2598199Y1150999D01*
X2600299Y1153000D01*
X2606400Y1155000D01*
X2624799Y1155000D01*
X2610500Y1155000D02*
G01*
X2596199Y1177500D01*
X2582700Y1134600D02*
G01*
X2553999Y1177500D01*
X2553999Y1134600D02*
G01*
X2582700Y1177500D01*
X2540500Y1191900D02*
G01*
X2503699Y1191900D01*
X2490200Y1134600D02*
G01*
X2490200Y1177500D01*
X2490200Y1134600D02*
G01*
X2471800Y1134600D01*
X2465699Y1136599D01*
X2463599Y1138699D01*
X2461599Y1142800D01*
X2461599Y1146900D01*
X2463599Y1150999D01*
X2465699Y1153000D01*
X2471800Y1155000D01*
X2490200Y1155000D01*
X2475900Y1155000D02*
G01*
X2461599Y1177500D01*
X3485945Y357800D02*
G01*
X3485945Y314899D01*
X3485945Y357800D02*
G01*
X3502344Y314899D01*
X3518644Y357800D02*
G01*
X3502344Y314899D01*
X3518644Y357800D02*
G01*
X3518644Y314899D01*
X3548545Y357800D02*
G01*
X3532145Y314899D01*
X3548545Y357800D02*
G01*
X3564944Y314899D01*
X3538344Y329200D02*
G01*
X3558744Y329200D01*
X3578445Y357800D02*
G01*
X3578445Y314899D01*
X3591944Y357800D02*
G01*
X3591944Y314899D01*
X3591944Y357800D02*
G01*
X3620545Y314899D01*
X3620545Y357800D02*
G01*
X3620545Y314899D01*
X3662645Y351700D02*
G01*
X3658545Y355799D01*
X3652444Y357800D01*
X3644245Y357800D01*
X3638145Y355799D01*
X3634044Y351700D01*
X3634044Y347600D01*
X3636045Y343499D01*
X3638145Y341399D01*
X3642245Y339400D01*
X3654444Y335300D01*
X3658545Y333299D01*
X3660645Y331199D01*
X3662645Y327100D01*
X3662645Y320999D01*
X3658545Y316900D01*
X3652444Y314899D01*
X3644245Y314899D01*
X3638145Y316900D01*
X3634044Y320999D01*
X3676144Y357800D02*
G01*
X3686445Y314899D01*
X3696644Y357800D02*
G01*
X3686445Y314899D01*
X3696644Y357800D02*
G01*
X3706845Y314899D01*
X3717044Y357800D02*
G01*
X3706845Y314899D01*
X3730545Y357800D02*
G01*
X3730545Y314899D01*
X3758445Y357800D02*
G01*
X3758445Y314899D01*
X3744044Y357800D02*
G01*
X3772745Y357800D01*
X3816944Y347600D02*
G01*
X3814844Y351700D01*
X3810744Y355799D01*
X3806644Y357800D01*
X3798445Y357800D01*
X3794444Y355799D01*
X3790344Y351700D01*
X3788244Y347600D01*
X3786244Y341399D01*
X3786244Y331199D01*
X3788244Y325100D01*
X3790344Y320999D01*
X3794444Y316900D01*
X3798445Y314899D01*
X3806644Y314899D01*
X3810744Y316900D01*
X3814844Y320999D01*
X3816944Y325100D01*
X3830444Y357800D02*
G01*
X3830444Y314899D01*
X3859044Y357800D02*
G01*
X3859044Y314899D01*
X3830444Y337399D02*
G01*
X3859044Y337399D01*
X3872545Y349600D02*
G01*
X3876644Y351700D01*
X3882745Y357800D01*
X3882745Y314899D01*
X2969600Y1570000D02*
G01*
X3012500Y1570000D01*
X2969600Y1570000D02*
G01*
X2969600Y1588400D01*
X2971599Y1594499D01*
X2973699Y1596599D01*
X2977799Y1598600D01*
X2981899Y1598600D01*
X2986000Y1596599D01*
X2988000Y1594499D01*
X2990000Y1588400D01*
X2990000Y1570000D01*
X2990000Y1584299D02*
G01*
X3012500Y1598600D01*
X2977799Y1612100D02*
G01*
X2975699Y1616199D01*
X2969600Y1622399D01*
X3012500Y1622399D01*
X2864600Y1570000D02*
G01*
X2907500Y1570000D01*
X2864600Y1570000D02*
G01*
X2864600Y1588400D01*
X2866599Y1594499D01*
X2868699Y1596599D01*
X2872799Y1598600D01*
X2876899Y1598600D01*
X2881000Y1596599D01*
X2883000Y1594499D01*
X2885000Y1588400D01*
X2885000Y1570000D01*
X2885000Y1584299D02*
G01*
X2907500Y1598600D01*
X2874799Y1614200D02*
G01*
X2872799Y1614200D01*
X2868699Y1616199D01*
X2866599Y1618299D01*
X2864600Y1622399D01*
X2864600Y1630500D01*
X2866599Y1634600D01*
X2868699Y1636700D01*
X2872799Y1638699D01*
X2876899Y1638699D01*
X2881000Y1636700D01*
X2887100Y1632600D01*
X2907500Y1612100D01*
X2907500Y1640799D01*
X2200000Y1325399D02*
G01*
X2200000Y1282500D01*
X2200000Y1325399D02*
G01*
X2218400Y1325399D01*
X2224499Y1323400D01*
X2226599Y1321300D01*
X2228599Y1317199D01*
X2228599Y1313099D01*
X2226599Y1309000D01*
X2224499Y1306999D01*
X2218400Y1305000D01*
X2200000Y1305000D01*
X2214300Y1305000D02*
G01*
X2228599Y1282500D01*
X2242100Y1325399D02*
G01*
X2242100Y1282500D01*
X2242100Y1325399D02*
G01*
X2260500Y1325399D01*
X2266700Y1323400D01*
X2268699Y1321300D01*
X2270799Y1317199D01*
X2270799Y1313099D01*
X2268699Y1309000D01*
X2266700Y1306999D01*
X2260500Y1305000D01*
X2242100Y1305000D02*
G01*
X2260500Y1305000D01*
X2266700Y1302899D01*
X2268699Y1300900D01*
X2270799Y1296799D01*
X2270799Y1290599D01*
X2268699Y1286500D01*
X2266700Y1284499D01*
X2260500Y1282500D01*
X2242100Y1282500D01*
X2284300Y1325399D02*
G01*
X2284300Y1294699D01*
X2286300Y1288600D01*
X2290399Y1284499D01*
X2296499Y1282500D01*
X2300600Y1282500D01*
X2306800Y1284499D01*
X2310900Y1288600D01*
X2312899Y1294699D01*
X2312899Y1325399D01*
X2355000Y1325399D02*
G01*
X2326400Y1282500D01*
X2326400Y1325399D02*
G01*
X2355000Y1325399D01*
X2326400Y1282500D02*
G01*
X2355000Y1282500D01*
X2397200Y1325399D02*
G01*
X2368500Y1282500D01*
X2368500Y1325399D02*
G01*
X2397200Y1325399D01*
X2368500Y1282500D02*
G01*
X2397200Y1282500D01*
X178600Y2124299D02*
G01*
X174499Y2128400D01*
X168400Y2130399D01*
X160199Y2130399D01*
X154099Y2128400D01*
X150000Y2124299D01*
X150000Y2120200D01*
X151999Y2116100D01*
X154099Y2114000D01*
X158200Y2111999D01*
X170500Y2107899D01*
X174499Y2105900D01*
X176599Y2103800D01*
X178600Y2099699D01*
X178600Y2093600D01*
X174499Y2089499D01*
X168400Y2087500D01*
X160199Y2087500D01*
X154099Y2089499D01*
X150000Y2093600D01*
X192100Y2130399D02*
G01*
X192100Y2087500D01*
X192100Y2130399D02*
G01*
X210500Y2130399D01*
X216700Y2128400D01*
X218699Y2126300D01*
X220799Y2122199D01*
X220799Y2118099D01*
X218699Y2114000D01*
X216700Y2111999D01*
X210500Y2110000D01*
X192100Y2110000D01*
X206500Y2110000D02*
G01*
X220799Y2087500D01*
X234299Y2130399D02*
G01*
X250599Y2087500D01*
X266999Y2130399D02*
G01*
X250599Y2087500D01*
X292800Y2130399D02*
G01*
X286599Y2128400D01*
X282500Y2122199D01*
X280500Y2111999D01*
X280500Y2105900D01*
X282500Y2095599D01*
X286599Y2089499D01*
X292800Y2087500D01*
X296900Y2087500D01*
X303000Y2089499D01*
X307100Y2095599D01*
X309099Y2105900D01*
X309099Y2111999D01*
X307100Y2122199D01*
X303000Y2128400D01*
X296900Y2130399D01*
X292800Y2130399D01*
X178600Y2024299D02*
G01*
X174499Y2028400D01*
X168400Y2030399D01*
X160199Y2030399D01*
X154099Y2028400D01*
X150000Y2024299D01*
X150000Y2020199D01*
X151999Y2016100D01*
X154099Y2014000D01*
X158200Y2011999D01*
X170500Y2007899D01*
X174499Y2005900D01*
X176599Y2003800D01*
X178600Y1999699D01*
X178600Y1993600D01*
X174499Y1989499D01*
X168400Y1987500D01*
X160199Y1987500D01*
X154099Y1989499D01*
X150000Y1993600D01*
X192100Y2030399D02*
G01*
X192100Y1987500D01*
X192100Y2030399D02*
G01*
X210500Y2030399D01*
X216700Y2028400D01*
X218699Y2026300D01*
X220799Y2022199D01*
X220799Y2018099D01*
X218699Y2014000D01*
X216700Y2011999D01*
X210500Y2010000D01*
X192100Y2010000D01*
X206500Y2010000D02*
G01*
X220799Y1987500D01*
X234299Y2030399D02*
G01*
X250599Y1987500D01*
X266999Y2030399D02*
G01*
X250599Y1987500D01*
X280500Y2022199D02*
G01*
X284600Y2024299D01*
X290700Y2030399D01*
X290700Y1987500D01*
X178600Y1924299D02*
G01*
X174499Y1928400D01*
X168400Y1930399D01*
X160199Y1930399D01*
X154099Y1928400D01*
X150000Y1924299D01*
X150000Y1920199D01*
X151999Y1916100D01*
X154099Y1914000D01*
X158200Y1911999D01*
X170500Y1907899D01*
X174499Y1905900D01*
X176599Y1903800D01*
X178600Y1899699D01*
X178600Y1893600D01*
X174499Y1889499D01*
X168400Y1887500D01*
X160199Y1887500D01*
X154099Y1889499D01*
X150000Y1893600D01*
X192100Y1930399D02*
G01*
X192100Y1887500D01*
X192100Y1930399D02*
G01*
X210500Y1930399D01*
X216700Y1928400D01*
X218699Y1926300D01*
X220799Y1922199D01*
X220799Y1918099D01*
X218699Y1914000D01*
X216700Y1911999D01*
X210500Y1910000D01*
X192100Y1910000D01*
X206500Y1910000D02*
G01*
X220799Y1887500D01*
X234299Y1930399D02*
G01*
X250599Y1887500D01*
X266999Y1930399D02*
G01*
X250599Y1887500D01*
X282500Y1920199D02*
G01*
X282500Y1922199D01*
X284600Y1926300D01*
X286599Y1928400D01*
X290700Y1930399D01*
X298899Y1930399D01*
X303000Y1928400D01*
X305000Y1926300D01*
X307100Y1922199D01*
X307100Y1918099D01*
X305000Y1914000D01*
X300999Y1907899D01*
X280500Y1887500D01*
X309099Y1887500D01*
X178600Y1259299D02*
G01*
X174499Y1263400D01*
X168400Y1265399D01*
X160199Y1265399D01*
X154099Y1263400D01*
X150000Y1259299D01*
X150000Y1255199D01*
X151999Y1251100D01*
X154099Y1249000D01*
X158200Y1246999D01*
X170500Y1242899D01*
X174499Y1240900D01*
X176599Y1238800D01*
X178600Y1234699D01*
X178600Y1228600D01*
X174499Y1224499D01*
X168400Y1222500D01*
X160199Y1222500D01*
X154099Y1224499D01*
X150000Y1228600D01*
X192100Y1265399D02*
G01*
X192100Y1222500D01*
X192100Y1265399D02*
G01*
X210500Y1265399D01*
X216700Y1263400D01*
X218699Y1261300D01*
X220799Y1257199D01*
X220799Y1253099D01*
X218699Y1249000D01*
X216700Y1246999D01*
X210500Y1245000D01*
X192100Y1245000D01*
X206500Y1245000D02*
G01*
X220799Y1222500D01*
X234299Y1265399D02*
G01*
X250599Y1222500D01*
X266999Y1265399D02*
G01*
X250599Y1222500D01*
X284600Y1265399D02*
G01*
X307100Y1265399D01*
X294800Y1249000D01*
X300999Y1249000D01*
X305000Y1246999D01*
X307100Y1245000D01*
X309099Y1238800D01*
X309099Y1234699D01*
X307100Y1228600D01*
X303000Y1224499D01*
X296900Y1222500D01*
X290700Y1222500D01*
X284600Y1224499D01*
X282500Y1226500D01*
X280500Y1230599D01*
X178600Y1159299D02*
G01*
X174499Y1163400D01*
X168400Y1165399D01*
X160199Y1165399D01*
X154099Y1163400D01*
X150000Y1159299D01*
X150000Y1155199D01*
X151999Y1151100D01*
X154099Y1149000D01*
X158200Y1146999D01*
X170500Y1142899D01*
X174499Y1140900D01*
X176599Y1138800D01*
X178600Y1134699D01*
X178600Y1128600D01*
X174499Y1124499D01*
X168400Y1122500D01*
X160199Y1122500D01*
X154099Y1124499D01*
X150000Y1128600D01*
X192100Y1165399D02*
G01*
X192100Y1122500D01*
X192100Y1165399D02*
G01*
X210500Y1165399D01*
X216700Y1163400D01*
X218699Y1161300D01*
X220799Y1157199D01*
X220799Y1153099D01*
X218699Y1149000D01*
X216700Y1146999D01*
X210500Y1145000D01*
X192100Y1145000D01*
X206500Y1145000D02*
G01*
X220799Y1122500D01*
X234299Y1165399D02*
G01*
X250599Y1122500D01*
X266999Y1165399D02*
G01*
X250599Y1122500D01*
X300999Y1165399D02*
G01*
X280500Y1136799D01*
X311199Y1136799D01*
X300999Y1165399D02*
G01*
X300999Y1122500D01*
X178600Y1059299D02*
G01*
X174499Y1063400D01*
X168400Y1065399D01*
X160199Y1065399D01*
X154099Y1063400D01*
X150000Y1059299D01*
X150000Y1055199D01*
X151999Y1051100D01*
X154099Y1049000D01*
X158200Y1046999D01*
X170500Y1042899D01*
X174499Y1040900D01*
X176599Y1038800D01*
X178600Y1034699D01*
X178600Y1028600D01*
X174499Y1024499D01*
X168400Y1022500D01*
X160199Y1022500D01*
X154099Y1024499D01*
X150000Y1028600D01*
X192100Y1065399D02*
G01*
X192100Y1022500D01*
X192100Y1065399D02*
G01*
X210500Y1065399D01*
X216700Y1063400D01*
X218699Y1061300D01*
X220799Y1057199D01*
X220799Y1053099D01*
X218699Y1049000D01*
X216700Y1046999D01*
X210500Y1045000D01*
X192100Y1045000D01*
X206500Y1045000D02*
G01*
X220799Y1022500D01*
X234299Y1065399D02*
G01*
X250599Y1022500D01*
X266999Y1065399D02*
G01*
X250599Y1022500D01*
X305000Y1065399D02*
G01*
X284600Y1065399D01*
X282500Y1046999D01*
X284600Y1049000D01*
X290700Y1051100D01*
X296900Y1051100D01*
X303000Y1049000D01*
X307100Y1045000D01*
X309099Y1038800D01*
X309099Y1034699D01*
X307100Y1028600D01*
X303000Y1024499D01*
X296900Y1022500D01*
X290700Y1022500D01*
X284600Y1024499D01*
X282500Y1026500D01*
X280500Y1030599D01*
X178600Y959299D02*
G01*
X174499Y963400D01*
X168400Y965399D01*
X160199Y965399D01*
X154099Y963400D01*
X150000Y959299D01*
X150000Y955199D01*
X151999Y951100D01*
X154099Y949000D01*
X158200Y946999D01*
X170500Y942899D01*
X174499Y940900D01*
X176599Y938800D01*
X178600Y934699D01*
X178600Y928600D01*
X174499Y924499D01*
X168400Y922500D01*
X160199Y922500D01*
X154099Y924499D01*
X150000Y928600D01*
X192100Y965399D02*
G01*
X192100Y922500D01*
X192100Y965399D02*
G01*
X210500Y965399D01*
X216700Y963400D01*
X218699Y961300D01*
X220799Y957199D01*
X220799Y953099D01*
X218699Y949000D01*
X216700Y946999D01*
X210500Y945000D01*
X192100Y945000D01*
X206500Y945000D02*
G01*
X220799Y922500D01*
X234299Y965399D02*
G01*
X250599Y922500D01*
X266999Y965399D02*
G01*
X250599Y922500D01*
X305000Y959299D02*
G01*
X303000Y963400D01*
X296900Y965399D01*
X292800Y965399D01*
X286599Y963400D01*
X282500Y957199D01*
X280500Y946999D01*
X280500Y936799D01*
X282500Y928600D01*
X286599Y924499D01*
X292800Y922500D01*
X294800Y922500D01*
X300999Y924499D01*
X305000Y928600D01*
X307100Y934699D01*
X307100Y936799D01*
X305000Y942899D01*
X300999Y946999D01*
X294800Y949000D01*
X292800Y949000D01*
X286599Y946999D01*
X282500Y942899D01*
X280500Y936799D01*
X178600Y859299D02*
G01*
X174499Y863400D01*
X168400Y865399D01*
X160199Y865399D01*
X154099Y863400D01*
X150000Y859299D01*
X150000Y855199D01*
X151999Y851100D01*
X154099Y849000D01*
X158200Y846999D01*
X170500Y842899D01*
X174499Y840900D01*
X176599Y838800D01*
X178600Y834699D01*
X178600Y828600D01*
X174499Y824499D01*
X168400Y822500D01*
X160199Y822500D01*
X154099Y824499D01*
X150000Y828600D01*
X192100Y865399D02*
G01*
X192100Y822500D01*
X192100Y865399D02*
G01*
X210500Y865399D01*
X216700Y863400D01*
X218699Y861300D01*
X220799Y857199D01*
X220799Y853099D01*
X218699Y849000D01*
X216700Y846999D01*
X210500Y845000D01*
X192100Y845000D01*
X206500Y845000D02*
G01*
X220799Y822500D01*
X234299Y865399D02*
G01*
X250599Y822500D01*
X266999Y865399D02*
G01*
X250599Y822500D01*
X309099Y865399D02*
G01*
X288699Y822500D01*
X280500Y865399D02*
G01*
X309099Y865399D01*
X178600Y759299D02*
G01*
X174499Y763400D01*
X168400Y765399D01*
X160199Y765399D01*
X154099Y763400D01*
X150000Y759299D01*
X150000Y755199D01*
X151999Y751100D01*
X154099Y749000D01*
X158200Y746999D01*
X170500Y742899D01*
X174499Y740900D01*
X176599Y738800D01*
X178600Y734699D01*
X178600Y728600D01*
X174499Y724499D01*
X168400Y722500D01*
X160199Y722500D01*
X154099Y724499D01*
X150000Y728600D01*
X192100Y765399D02*
G01*
X192100Y722500D01*
X192100Y765399D02*
G01*
X210500Y765399D01*
X216700Y763400D01*
X218699Y761300D01*
X220799Y757199D01*
X220799Y753099D01*
X218699Y749000D01*
X216700Y746999D01*
X210500Y745000D01*
X192100Y745000D01*
X206500Y745000D02*
G01*
X220799Y722500D01*
X234299Y765399D02*
G01*
X250599Y722500D01*
X266999Y765399D02*
G01*
X250599Y722500D01*
X290700Y765399D02*
G01*
X284600Y763400D01*
X282500Y759299D01*
X282500Y755199D01*
X284600Y751100D01*
X288699Y749000D01*
X296900Y746999D01*
X303000Y745000D01*
X307100Y740900D01*
X309099Y736799D01*
X309099Y730599D01*
X307100Y726500D01*
X305000Y724499D01*
X298899Y722500D01*
X290700Y722500D01*
X284600Y724499D01*
X282500Y726500D01*
X280500Y730599D01*
X280500Y736799D01*
X282500Y740900D01*
X286599Y745000D01*
X292800Y746999D01*
X300999Y749000D01*
X305000Y751100D01*
X307100Y755199D01*
X307100Y759299D01*
X305000Y763400D01*
X298899Y765399D01*
X290700Y765399D01*
X178600Y659299D02*
G01*
X174499Y663400D01*
X168400Y665399D01*
X160199Y665399D01*
X154099Y663400D01*
X150000Y659299D01*
X150000Y655199D01*
X151999Y651100D01*
X154099Y649000D01*
X158200Y646999D01*
X170500Y642899D01*
X174499Y640900D01*
X176599Y638800D01*
X178600Y634699D01*
X178600Y628600D01*
X174499Y624499D01*
X168400Y622500D01*
X160199Y622500D01*
X154099Y624499D01*
X150000Y628600D01*
X192100Y665399D02*
G01*
X192100Y622500D01*
X192100Y665399D02*
G01*
X210500Y665399D01*
X216700Y663400D01*
X218699Y661300D01*
X220799Y657199D01*
X220799Y653099D01*
X218699Y649000D01*
X216700Y646999D01*
X210500Y645000D01*
X192100Y645000D01*
X206500Y645000D02*
G01*
X220799Y622500D01*
X234299Y665399D02*
G01*
X250599Y622500D01*
X266999Y665399D02*
G01*
X250599Y622500D01*
X307100Y651100D02*
G01*
X305000Y645000D01*
X300999Y640900D01*
X294800Y638800D01*
X292800Y638800D01*
X286599Y640900D01*
X282500Y645000D01*
X280500Y651100D01*
X280500Y653099D01*
X282500Y659299D01*
X286599Y663400D01*
X292800Y665399D01*
X294800Y665399D01*
X300999Y663400D01*
X305000Y659299D01*
X307100Y651100D01*
X307100Y640900D01*
X305000Y630599D01*
X300999Y624499D01*
X294800Y622500D01*
X290700Y622500D01*
X284600Y624499D01*
X282500Y628600D01*
X2706386Y1595700D02*
G01*
X2710486Y1591599D01*
X2716585Y1589600D01*
X2724786Y1589600D01*
X2730886Y1591599D01*
X2734985Y1595700D01*
X2734985Y1599800D01*
X2732986Y1603899D01*
X2730886Y1605999D01*
X2726786Y1608000D01*
X2714485Y1612100D01*
X2710486Y1614099D01*
X2708386Y1616199D01*
X2706386Y1620300D01*
X2706386Y1626399D01*
X2710486Y1630500D01*
X2716585Y1632500D01*
X2724786Y1632500D01*
X2730886Y1630500D01*
X2734985Y1626399D01*
X2692885Y1589600D02*
G01*
X2682586Y1632500D01*
X2672385Y1589600D02*
G01*
X2682586Y1632500D01*
X2672385Y1589600D02*
G01*
X2662186Y1632500D01*
X2651985Y1589600D02*
G01*
X2662186Y1632500D01*
X2638486Y1597800D02*
G01*
X2634386Y1595700D01*
X2628185Y1589600D01*
X2628185Y1632500D01*
X370000Y1850779D02*
G01*
X359800Y1893679D01*
X349499Y1850779D02*
G01*
X359800Y1893679D01*
X349499Y1850779D02*
G01*
X339299Y1893679D01*
X329099Y1850779D02*
G01*
X339299Y1893679D01*
X315599Y1850779D02*
G01*
X315599Y1893679D01*
X302100Y1850779D02*
G01*
X302100Y1893679D01*
X302100Y1850779D02*
G01*
X273499Y1893679D01*
X273499Y1850779D02*
G01*
X273499Y1893679D01*
X229299Y1860979D02*
G01*
X231300Y1856880D01*
X235399Y1852779D01*
X239499Y1850779D01*
X247699Y1850779D01*
X251799Y1852779D01*
X255900Y1856880D01*
X257899Y1860979D01*
X260000Y1867179D01*
X260000Y1877379D01*
X257899Y1883479D01*
X255900Y1887579D01*
X251799Y1891680D01*
X247699Y1893679D01*
X239499Y1893679D01*
X235399Y1891680D01*
X231300Y1887579D01*
X229299Y1883479D01*
X229299Y1877379D01*
X239499Y1877379D02*
G01*
X229299Y1877379D01*
X215799Y1908080D02*
G01*
X179000Y1908080D01*
X165500Y1850779D02*
G01*
X165500Y1893679D01*
X165500Y1893679D02*
G01*
X140900Y1893679D01*
X127399Y1850779D02*
G01*
X127399Y1893679D01*
X127399Y1850779D02*
G01*
X100799Y1850779D01*
X127399Y1871179D02*
G01*
X110999Y1871179D01*
X127399Y1893679D02*
G01*
X100799Y1893679D01*
X87300Y1850779D02*
G01*
X87300Y1893679D01*
X87300Y1850779D02*
G01*
X73000Y1850779D01*
X66900Y1852779D01*
X62800Y1856880D01*
X60700Y1860979D01*
X58699Y1867179D01*
X58699Y1877379D01*
X60700Y1883479D01*
X62800Y1887579D01*
X66900Y1891680D01*
X73000Y1893679D01*
X87300Y1893679D01*
X45199Y1858980D02*
G01*
X41100Y1856880D01*
X35000Y1850779D01*
X35000Y1893679D01*
X470000Y1850779D02*
G01*
X459800Y1893679D01*
X449499Y1850779D02*
G01*
X459800Y1893679D01*
X449499Y1850779D02*
G01*
X439299Y1893679D01*
X429099Y1850779D02*
G01*
X439299Y1893679D01*
X415599Y1850779D02*
G01*
X415599Y1893679D01*
X402100Y1850779D02*
G01*
X402100Y1893679D01*
X402100Y1850779D02*
G01*
X373499Y1893679D01*
X373499Y1850779D02*
G01*
X373499Y1893679D01*
X329299Y1860979D02*
G01*
X331300Y1856880D01*
X335399Y1852779D01*
X339499Y1850779D01*
X347699Y1850779D01*
X351799Y1852779D01*
X355900Y1856880D01*
X357899Y1860979D01*
X360000Y1867179D01*
X360000Y1877379D01*
X357899Y1883479D01*
X355900Y1887579D01*
X351799Y1891680D01*
X347699Y1893679D01*
X339499Y1893679D01*
X335399Y1891680D01*
X331300Y1887579D01*
X329299Y1883479D01*
X329299Y1877379D01*
X339499Y1877379D02*
G01*
X329299Y1877379D01*
X315799Y1908080D02*
G01*
X279000Y1908080D01*
X265500Y1850779D02*
G01*
X265500Y1893679D01*
X265500Y1893679D02*
G01*
X240900Y1893679D01*
X227399Y1850779D02*
G01*
X227399Y1893679D01*
X227399Y1850779D02*
G01*
X200799Y1850779D01*
X227399Y1871179D02*
G01*
X210999Y1871179D01*
X227399Y1893679D02*
G01*
X200799Y1893679D01*
X187300Y1850779D02*
G01*
X187300Y1893679D01*
X187300Y1850779D02*
G01*
X173000Y1850779D01*
X166900Y1852779D01*
X162800Y1856880D01*
X160700Y1860979D01*
X158699Y1867179D01*
X158699Y1877379D01*
X160700Y1883479D01*
X162800Y1887579D01*
X166900Y1891680D01*
X173000Y1893679D01*
X187300Y1893679D01*
X143099Y1860979D02*
G01*
X143099Y1858980D01*
X141100Y1854879D01*
X139000Y1852779D01*
X135000Y1850779D01*
X126799Y1850779D01*
X122699Y1852779D01*
X120599Y1854879D01*
X118600Y1858980D01*
X118600Y1863080D01*
X120599Y1867179D01*
X124699Y1873279D01*
X145199Y1893679D01*
X116500Y1893679D01*
X1210000Y-5399D02*
G01*
X1210000Y37500D01*
X1210000Y-5399D02*
G01*
X1183400Y-5399D01*
X1210000Y15000D02*
G01*
X1193599Y15000D01*
X1165799Y-5399D02*
G01*
X1143299Y-5399D01*
X1155600Y10999D01*
X1149499Y10999D01*
X1145399Y13000D01*
X1143299Y15000D01*
X1141300Y21199D01*
X1141300Y25300D01*
X1143299Y31399D01*
X1147399Y35500D01*
X1153500Y37500D01*
X1159700Y37500D01*
X1165799Y35500D01*
X1167899Y33499D01*
X1169899Y29400D01*
X1127799Y51900D02*
G01*
X1091000Y51900D01*
X1073400Y-5399D02*
G01*
X1050900Y-5399D01*
X1063100Y10999D01*
X1056999Y10999D01*
X1052899Y13000D01*
X1050900Y15000D01*
X1048800Y21199D01*
X1048800Y25300D01*
X1050900Y31399D01*
X1055000Y35500D01*
X1061099Y37500D01*
X1067200Y37500D01*
X1073400Y35500D01*
X1075399Y33499D01*
X1077500Y29400D01*
D11*
X3875000Y610000D02*
G01*
X3875000Y535000D01*
X3975000Y535000D01*
X3975000Y835000D01*
X3875000Y835000D01*
D15*
X3875000Y835000D02*
G01*
X3875000Y610000D01*
D16*
X3880100Y444899D02*
G01*
X3880100Y244899D01*
X3980100Y244899D01*
X3980100Y444899D01*
X3880100Y444899D01*
>>>>>>> main
D11*
X85000Y115000D02*
G01*
X10000Y115000D01*
X10000Y15000D01*
X310000Y15000D01*
X310000Y115000D01*
D15*
X310000Y115000D02*
<<<<<<< HEAD
G01*
X85000Y115000D01*
D11*
X3650000Y250000D02*
G01*
X3650000Y349000D01*
X3850000Y349000D01*
X3850000Y250000D01*
X3650000Y250000D01*
D14*
X1995000Y1170000D02*
G01*
X3372950Y1170000D01*
X3372950Y166060D01*
X1995000Y166060D01*
X1995000Y1170000D01*
X2572205Y1576161D02*
G01*
X2572205Y1473798D01*
X3030000Y1325000D02*
G01*
X3040000Y1325000D01*
X2830000Y1325000D02*
G01*
X2820000Y1325000D01*
X3030000Y1325000D02*
G01*
X3030000Y1295000D01*
X3030000Y1355000D02*
G01*
X3030000Y1325000D01*
X2830000Y1355000D02*
G01*
X3030000Y1355000D01*
X2830000Y1325000D02*
G01*
X2830000Y1355000D01*
X2830000Y1295000D02*
G01*
X2830000Y1325000D01*
X3030000Y1295000D02*
G01*
X2830000Y1295000D01*
X2502205Y1361161D02*
G01*
X2502205Y1258798D01*
X3030000Y1230000D02*
G01*
X3040000Y1230000D01*
X2830000Y1230000D02*
G01*
X2820000Y1230000D01*
X3030000Y1230000D02*
G01*
X3030000Y1200000D01*
X3030000Y1260000D02*
G01*
X3030000Y1230000D01*
X2830000Y1260000D02*
G01*
X3030000Y1260000D01*
X2830000Y1230000D02*
G01*
X2830000Y1260000D01*
X2830000Y1200000D02*
G01*
X2830000Y1230000D01*
X3030000Y1200000D02*
G01*
X2830000Y1200000D01*
D11*
X1035000Y115000D02*
G01*
X1035000Y15000D01*
X635000Y15000D01*
X635000Y115000D01*
X710000Y115000D01*
D15*
X1035000Y115000D02*
G01*
X710000Y115000D01*
D14*
X1221199Y975000D02*
G01*
X1221409Y1075309D01*
X3133940Y2045479D02*
G01*
X3133940Y1210832D01*
X3175276Y1415551D02*
G01*
X3584723Y1415551D01*
X3584723Y1210832D01*
X3175276Y1210832D01*
X3175276Y1415551D01*
X3626066Y1210832D02*
G01*
X3626066Y2045480D01*
X3626066Y1210832D02*
G01*
X3133940Y1210832D01*
X3133939Y2045479D02*
G01*
X3626064Y2045479D01*
X3065000Y1470000D02*
G01*
X3065000Y1460000D01*
X3065000Y1670000D02*
G01*
X3065000Y1680000D01*
X3065000Y1470000D02*
G01*
X3035000Y1470000D01*
X3095000Y1470000D02*
G01*
X3065000Y1470000D01*
X3095000Y1670000D02*
G01*
X3095000Y1470000D01*
X3065000Y1670000D02*
G01*
X3095000Y1670000D01*
X3035000Y1670000D02*
G01*
X3065000Y1670000D01*
X3035000Y1470000D02*
G01*
X3035000Y1670000D01*
X3981999Y1725999D02*
G01*
X3888000Y1725999D01*
X3888000Y1725999D02*
G01*
X3888000Y1974000D01*
X3888000Y1974000D02*
G01*
X3981999Y1974000D01*
X3981999Y1974000D02*
G01*
X3981999Y1725999D01*
X2960000Y1470000D02*
G01*
X2960000Y1460000D01*
X2960000Y1670000D02*
G01*
X2960000Y1680000D01*
X2960000Y1470000D02*
G01*
X2930000Y1470000D01*
X2990000Y1470000D02*
G01*
X2960000Y1470000D01*
X2990000Y1670000D02*
G01*
X2990000Y1470000D01*
X2960000Y1670000D02*
G01*
X2990000Y1670000D01*
X2930000Y1670000D02*
G01*
X2960000Y1670000D01*
X2930000Y1470000D02*
G01*
X2930000Y1670000D01*
X3981999Y1240999D02*
G01*
X3888000Y1240999D01*
X3888000Y1240999D02*
G01*
X3888000Y1489000D01*
X3888000Y1489000D02*
G01*
X3981999Y1489000D01*
X3981999Y1489000D02*
G01*
X3981999Y1240999D01*
X2369276Y1283389D02*
G01*
X2030695Y1283389D01*
X2369276Y1456610D02*
G01*
X2030695Y1456610D01*
X2030695Y1283389D02*
G01*
X2030695Y1326572D01*
X2030695Y1413427D02*
G01*
X2030695Y1456610D01*
X2369276Y1283389D02*
G01*
X2369276Y1326572D01*
X2369276Y1413427D02*
G01*
X2369276Y1456610D01*
X3685000Y348200D02*
G01*
X3385000Y348200D01*
X3385000Y748200D01*
X3685000Y748200D01*
X3685000Y348200D01*
D11*
X775000Y2050000D02*
G01*
X700000Y2050000D01*
X700000Y1950000D01*
X1200000Y1950000D01*
X1200000Y2050000D01*
D15*
X1200000Y2050000D02*
G01*
X775000Y2050000D01*
D11*
X2550000Y2050000D02*
G01*
X2550000Y1950999D01*
X2350000Y1950999D01*
X2350000Y2050000D01*
X2550000Y2050000D01*
X3050000Y2050000D02*
G01*
X3050000Y1950000D01*
X2650000Y1950000D01*
X2650000Y2050000D01*
X2725000Y2050000D01*
D15*
X3050000Y2050000D02*
G01*
X2725000Y2050000D01*
D11*
X2850000Y50000D02*
G01*
X2850000Y150000D01*
X3650000Y150000D01*
X3650000Y50000D01*
X3575000Y50000D01*
D15*
X2850000Y50000D02*
G01*
X3575000Y50000D01*
D11*
X2675000Y50000D02*
G01*
X2750000Y50000D01*
X2750000Y150000D01*
X2150000Y150000D01*
X2150000Y50000D01*
D15*
X2150000Y50000D02*
G01*
X2675000Y50000D01*
D14*
X1020000Y125000D02*
G01*
X320000Y125000D01*
X320000Y1125000D01*
X1020000Y1125000D01*
X1020000Y125000D01*
X1980000Y935000D02*
G01*
X1280000Y935000D01*
X1280000Y1935000D01*
X1980000Y1935000D01*
X1980000Y935000D01*
X1040000Y915000D02*
G01*
X1890000Y915000D01*
X1890000Y265000D01*
X1040000Y265000D01*
X1040000Y915000D01*
X415000Y1790000D02*
G01*
X1265000Y1790000D01*
X1265000Y1140000D01*
X415000Y1140000D01*
X415000Y1790000D01*
D11*
X3850000Y1750000D02*
G01*
X3850000Y1675000D01*
X3850000Y750000D01*
X3650000Y750000D01*
X3650000Y1675000D01*
X3650000Y1750000D01*
X3850000Y1750000D01*
=======
G01*
X85000Y115000D01*
D11*
X775000Y2050000D02*
G01*
X700000Y2050000D01*
X700000Y1950000D01*
X1200000Y1950000D01*
X1200000Y2050000D01*
D15*
X1200000Y2050000D02*
G01*
X775000Y2050000D01*
D11*
X2550000Y2050000D02*
G01*
X2550000Y1950999D01*
X2350000Y1950999D01*
X2350000Y2050000D01*
X2550000Y2050000D01*
X3050000Y2050000D02*
G01*
X3050000Y1950000D01*
X2650000Y1950000D01*
X2650000Y2050000D01*
X2725000Y2050000D01*
D15*
X3050000Y2050000D02*
G01*
X2725000Y2050000D01*
D11*
X2850000Y50000D02*
G01*
X2850000Y150000D01*
X3650000Y150000D01*
X3650000Y50000D01*
X3575000Y50000D01*
D15*
X2850000Y50000D02*
G01*
X3575000Y50000D01*
D11*
X2675000Y50000D02*
G01*
X2750000Y50000D01*
X2750000Y150000D01*
X2150000Y150000D01*
X2150000Y50000D01*
D15*
X2150000Y50000D02*
G01*
X2675000Y50000D01*
D17*
X1995000Y1170000D02*
G01*
X3372950Y1170000D01*
X3372950Y166060D01*
X1995000Y166060D01*
X1995000Y1170000D01*
D11*
X1035000Y115000D02*
G01*
X1035000Y15000D01*
X635000Y15000D01*
X635000Y115000D01*
X710000Y115000D01*
D15*
X1035000Y115000D02*
G01*
X710000Y115000D01*
D17*
X1221199Y975000D02*
G01*
X1221409Y1075309D01*
X3133940Y2045435D02*
G01*
X3133940Y1210787D01*
X3175276Y1415506D02*
G01*
X3584723Y1415506D01*
X3584723Y1210787D01*
X3175276Y1210787D01*
X3175276Y1415506D01*
X3626066Y1210787D02*
G01*
X3626066Y2045435D01*
X3626066Y1210787D02*
G01*
X3133940Y1210787D01*
X3133939Y2045435D02*
G01*
X3626064Y2045435D01*
X3981999Y1725999D02*
G01*
X3888000Y1725999D01*
X3888000Y1725999D02*
G01*
X3888000Y1974000D01*
X3888000Y1974000D02*
G01*
X3981999Y1974000D01*
X3981999Y1974000D02*
G01*
X3981999Y1725999D01*
X3981999Y1240999D02*
G01*
X3888000Y1240999D01*
X3888000Y1240999D02*
G01*
X3888000Y1489000D01*
X3888000Y1489000D02*
G01*
X3981999Y1489000D01*
X3981999Y1489000D02*
G01*
X3981999Y1240999D01*
X1020000Y125000D02*
G01*
X320000Y125000D01*
X320000Y1125000D01*
X1020000Y1125000D01*
X1020000Y125000D01*
X1980000Y935000D02*
G01*
X1280000Y935000D01*
X1280000Y1935000D01*
X1980000Y1935000D01*
X1980000Y935000D01*
X1040000Y915000D02*
G01*
X1890000Y915000D01*
X1890000Y265000D01*
X1040000Y265000D01*
X1040000Y915000D01*
X415000Y1790000D02*
G01*
X1265000Y1790000D01*
X1265000Y1140000D01*
X415000Y1140000D01*
X415000Y1790000D01*
D18*
X3390000Y835999D02*
G01*
X3390000Y895999D01*
X3247062Y564998D02*
G01*
X3210000Y564998D01*
X3210000Y564998D02*
G01*
X3210000Y440745D01*
X3210000Y440745D02*
G01*
X3402160Y440745D01*
X3577839Y440745D02*
G01*
X3770000Y440745D01*
X3770000Y440745D02*
G01*
X3770000Y564998D01*
X3770000Y564998D02*
G01*
X3722744Y564998D01*
X3430000Y570999D02*
G01*
X3350000Y570999D01*
X3390000Y530999D02*
G01*
X3390000Y610999D01*
D11*
X3850000Y1750000D02*
G01*
X3850000Y1675000D01*
X3850000Y750000D01*
X3650000Y750000D01*
X3650000Y1675000D01*
X3650000Y1750000D01*
X3850000Y1750000D01*
X3650000Y250000D02*
G01*
X3650000Y349000D01*
X3850000Y349000D01*
X3850000Y250000D01*
X3650000Y250000D01*
D17*
X2572205Y1576181D02*
G01*
X2572205Y1473818D01*
X3030000Y1325000D02*
G01*
X3040000Y1325000D01*
X2830000Y1325000D02*
G01*
X2820000Y1325000D01*
X3030000Y1325000D02*
G01*
X3030000Y1295000D01*
X3030000Y1355000D02*
G01*
X3030000Y1325000D01*
X2830000Y1355000D02*
G01*
X3030000Y1355000D01*
X2830000Y1325000D02*
G01*
X2830000Y1355000D01*
X2830000Y1295000D02*
G01*
X2830000Y1325000D01*
X3030000Y1295000D02*
G01*
X2830000Y1295000D01*
X2502205Y1361181D02*
G01*
X2502205Y1258818D01*
X3030000Y1230000D02*
G01*
X3040000Y1230000D01*
X2830000Y1230000D02*
G01*
X2820000Y1230000D01*
X3030000Y1230000D02*
G01*
X3030000Y1200000D01*
X3030000Y1260000D02*
G01*
X3030000Y1230000D01*
X2830000Y1260000D02*
G01*
X3030000Y1260000D01*
X2830000Y1230000D02*
G01*
X2830000Y1260000D01*
X2830000Y1200000D02*
G01*
X2830000Y1230000D01*
X3030000Y1200000D02*
G01*
X2830000Y1200000D01*
X3451692Y-64371D02*
G01*
X3538307Y-64371D01*
X3451692Y179724D02*
G01*
X3451692Y-64371D01*
X3538307Y179724D02*
G01*
X3538307Y-64371D01*
X3465711Y289960D02*
G01*
X3524279Y289960D01*
X3534819Y179724D02*
G01*
X3583578Y179724D01*
X3406410Y179724D02*
G01*
X3455171Y179724D01*
X3406410Y179724D02*
G01*
X3406410Y234587D01*
X3406170Y289960D02*
G01*
X3404994Y289960D01*
X3583578Y179724D02*
G01*
X3583578Y234587D01*
X3583820Y289960D02*
G01*
X3584994Y289960D01*
X3065000Y1470000D02*
G01*
X3065000Y1460000D01*
X3065000Y1670000D02*
G01*
X3065000Y1680000D01*
X3065000Y1470000D02*
G01*
X3035000Y1470000D01*
X3095000Y1470000D02*
G01*
X3065000Y1470000D01*
X3095000Y1670000D02*
G01*
X3095000Y1470000D01*
X3065000Y1670000D02*
G01*
X3095000Y1670000D01*
X3035000Y1670000D02*
G01*
X3065000Y1670000D01*
X3035000Y1470000D02*
G01*
X3035000Y1670000D01*
X2960000Y1470000D02*
G01*
X2960000Y1460000D01*
X2960000Y1670000D02*
G01*
X2960000Y1680000D01*
X2960000Y1470000D02*
G01*
X2930000Y1470000D01*
X2990000Y1470000D02*
G01*
X2960000Y1470000D01*
X2990000Y1670000D02*
G01*
X2990000Y1470000D01*
X2960000Y1670000D02*
G01*
X2990000Y1670000D01*
X2930000Y1670000D02*
G01*
X2960000Y1670000D01*
X2930000Y1470000D02*
G01*
X2930000Y1670000D01*
X2100000Y1230000D02*
G01*
X2090000Y1230000D01*
X2300000Y1230000D02*
G01*
X2310000Y1230000D01*
X2100000Y1230000D02*
G01*
X2100000Y1260000D01*
X2100000Y1200000D02*
G01*
X2100000Y1230000D01*
X2300000Y1200000D02*
G01*
X2100000Y1200000D01*
X2300000Y1230000D02*
G01*
X2300000Y1200000D01*
X2300000Y1260000D02*
G01*
X2300000Y1230000D01*
X2100000Y1260000D02*
G01*
X2300000Y1260000D01*
D11*
>>>>>>> main
X85000Y2075000D02*
G01*
X10000Y2075000D01*
X10000Y1975000D01*
X310000Y1975000D01*
X310000Y2075000D01*
D15*
X310000Y2075000D02*
G01*
X85000Y2075000D01*
D11*
X85000Y1975000D02*
G01*
X10000Y1975000D01*
X10000Y1875000D01*
X310000Y1875000D01*
X310000Y1975000D01*
D15*
X310000Y1975000D02*
G01*
X85000Y1975000D01*
D11*
X85000Y1875000D02*
G01*
X10000Y1875000D01*
X10000Y1775000D01*
X310000Y1775000D01*
X310000Y1875000D01*
D15*
X310000Y1875000D02*
G01*
X85000Y1875000D01*
D11*
X85000Y1210000D02*
G01*
X10000Y1210000D01*
X10000Y1110000D01*
X310000Y1110000D01*
X310000Y1210000D01*
D15*
X310000Y1210000D02*
G01*
X85000Y1210000D01*
D11*
X85000Y1110000D02*
G01*
X10000Y1110000D01*
X10000Y1010000D01*
X310000Y1010000D01*
X310000Y1110000D01*
D15*
X310000Y1110000D02*
G01*
X85000Y1110000D01*
D11*
X85000Y1010000D02*
G01*
X10000Y1010000D01*
X10000Y910000D01*
X310000Y910000D01*
X310000Y1010000D01*
D15*
X310000Y1010000D02*
G01*
X85000Y1010000D01*
<<<<<<< HEAD
D11*
X85000Y910000D02*
G01*
X10000Y910000D01*
X10000Y810000D01*
X310000Y810000D01*
X310000Y910000D01*
D15*
X310000Y910000D02*
G01*
X85000Y910000D01*
D11*
X85000Y810000D02*
G01*
X10000Y810000D01*
X10000Y710000D01*
X310000Y710000D01*
X310000Y810000D01*
D15*
X310000Y810000D02*
G01*
X85000Y810000D01*
D11*
X85000Y710000D02*
G01*
X10000Y710000D01*
X10000Y610000D01*
X310000Y610000D01*
X310000Y710000D01*
D15*
X310000Y710000D02*
G01*
X85000Y710000D01*
D11*
X85000Y610000D02*
G01*
X10000Y610000D01*
X10000Y510000D01*
X310000Y510000D01*
X310000Y610000D01*
D15*
X310000Y610000D02*
G01*
X85000Y610000D01*
D14*
X2894276Y1668389D02*
G01*
X2555695Y1668389D01*
X2894276Y1841610D02*
G01*
X2555695Y1841610D01*
X2555695Y1668389D02*
G01*
X2555695Y1711572D01*
X2555695Y1798427D02*
G01*
X2555695Y1841610D01*
X2894276Y1668389D02*
G01*
X2894276Y1711572D01*
X2894276Y1798427D02*
G01*
X2894276Y1841610D01*
X411181Y2087793D02*
G01*
X308818Y2087793D01*
X511181Y2087793D02*
G01*
X408818Y2087793D01*
D11*
X1150000Y50000D02*
G01*
X1050000Y50000D01*
X1050000Y149000D01*
X1350000Y149000D01*
X1350000Y50000D01*
X1150000Y50000D01*
D14*
G75*
G01*
X2573320Y1470580D02*
G03*
X2573320Y1579380I86710J54400D01*
G75*
G01*
X2503320Y1255580D02*
G03*
X2503320Y1364380I86710J54400D01*
G75*
G01*
X1221200Y1074820D02*
G03*
X1221200Y975020I-60910J-49900D01*
G75*
G01*
X3685000Y386600D02*
G02*
X3685000Y516600I55391J65000D01*
G75*
G01*
X3685000Y586600D02*
G02*
X3685000Y716600I52573J65000D01*
=======
D11*
X85000Y910000D02*
G01*
X10000Y910000D01*
X10000Y810000D01*
X310000Y810000D01*
X310000Y910000D01*
D15*
X310000Y910000D02*
G01*
X85000Y910000D01*
D11*
X85000Y810000D02*
G01*
X10000Y810000D01*
X10000Y710000D01*
X310000Y710000D01*
X310000Y810000D01*
D15*
X310000Y810000D02*
G01*
X85000Y810000D01*
D11*
X85000Y710000D02*
G01*
X10000Y710000D01*
X10000Y610000D01*
X310000Y610000D01*
X310000Y710000D01*
D15*
X310000Y710000D02*
G01*
X85000Y710000D01*
D11*
X85000Y610000D02*
G01*
X10000Y610000D01*
X10000Y510000D01*
X310000Y510000D01*
X310000Y610000D01*
D15*
X310000Y610000D02*
G01*
X85000Y610000D01*
D17*
X2894276Y1668389D02*
G01*
X2555695Y1668389D01*
X2894276Y1841610D02*
G01*
X2555695Y1841610D01*
X2555695Y1668389D02*
G01*
X2555695Y1711572D01*
X2555695Y1798427D02*
G01*
X2555695Y1841610D01*
X2894276Y1668389D02*
G01*
X2894276Y1711572D01*
X2894276Y1798427D02*
G01*
X2894276Y1841610D01*
X411181Y2087793D02*
G01*
X308818Y2087793D01*
X511181Y2087793D02*
G01*
X408818Y2087793D01*
D11*
X1150000Y50000D02*
G01*
X1050000Y50000D01*
X1050000Y149000D01*
X1350000Y149000D01*
X1350000Y50000D01*
X1150000Y50000D01*
D17*
G75*
G01*
X1221200Y1074820D02*
G03*
X1221200Y975020I-60910J-49900D01*
D18*
G75*
G01*
X3580451Y456676D02*
G03*
X3573619Y995531I-90450J268324D01*
G75*
G01*
X3405195Y997347D02*
G03*
X3404366Y452912I84804J-272347D01*
D17*
G75*
G01*
X2573320Y1470600D02*
G03*
X2573320Y1579400I86710J54400D01*
G75*
G01*
X2503320Y1255600D02*
G03*
X2503320Y1364400I86710J54400D01*
>>>>>>> main
G75*
G01*
X305600Y2086680D02*
G03*
X414400Y2086680I54400J-86710D01*
G75*
G01*
X405600Y2086680D02*
G03*
X514400Y2086680I54400J-86710D01*
M02*
