G04 Layer: TopSilkscreenLayer*
G04 EasyEDA v6.5.23, 2023-05-31 23:13:28*
G04 bcd344b045274ec9933b0a03571c91cc,5f8968b253fc4aed9fc2cb8881c97923,10*
G04 Gerber Generator version 0.2*
G04 Scale: 100 percent, Rotated: No, Reflected: No *
G04 Dimensions in inches *
G04 leading zeros omitted , absolute positions ,3 integer and 6 decimal *
%FSLAX36Y36*%
%MOIN*%

%ADD10C,0.0060*%
%ADD11C,0.0080*%
%ADD12C,0.0039*%
%ADD13C,0.0032*%
%ADD14C,0.0040*%
%ADD15C,0.0080*%
%ADD16C,0.0079*%
%ADD17C,0.0100*%
%ADD18C,0.0157*%

%LPD*%
D10*
X2469600Y1626399D02*
G01*
X2512500Y1610000D01*
X2469600Y1626399D02*
G01*
X2512500Y1642699D01*
X2498199Y1616100D02*
G01*
X2498199Y1636599D01*
X2469600Y1656199D02*
G01*
X2512500Y1656199D01*
X2469600Y1669699D02*
G01*
X2512500Y1669699D01*
X2469600Y1669699D02*
G01*
X2469600Y1688099D01*
X2471599Y1694299D01*
X2473699Y1696300D01*
X2477799Y1698400D01*
X2481899Y1698400D01*
X2486000Y1696300D01*
X2488000Y1694299D01*
X2490000Y1688099D01*
X2490000Y1669699D01*
X2490000Y1684000D02*
G01*
X2512500Y1698400D01*
X2469600Y1711900D02*
G01*
X2512500Y1711900D01*
X2469600Y1711900D02*
G01*
X2469600Y1730300D01*
X2471599Y1736399D01*
X2473699Y1738499D01*
X2477799Y1740500D01*
X2483900Y1740500D01*
X2488000Y1738499D01*
X2490000Y1736399D01*
X2492100Y1730300D01*
X2492100Y1711900D01*
X2469600Y1754000D02*
G01*
X2512500Y1754000D01*
X2469600Y1754000D02*
G01*
X2469600Y1772399D01*
X2471599Y1778499D01*
X2473699Y1780599D01*
X2477799Y1782600D01*
X2481899Y1782600D01*
X2486000Y1780599D01*
X2488000Y1778499D01*
X2490000Y1772399D01*
X2490000Y1754000D01*
X2490000Y1768299D02*
G01*
X2512500Y1782600D01*
X2469600Y1796100D02*
G01*
X2512500Y1796100D01*
X2469600Y1796100D02*
G01*
X2469600Y1822699D01*
X2490000Y1796100D02*
G01*
X2490000Y1812500D01*
X2512500Y1796100D02*
G01*
X2512500Y1822699D01*
X2475699Y1864899D02*
G01*
X2471599Y1860799D01*
X2469600Y1854600D01*
X2469600Y1846500D01*
X2471599Y1840300D01*
X2475699Y1836199D01*
X2479799Y1836199D01*
X2483900Y1838299D01*
X2486000Y1840300D01*
X2488000Y1844400D01*
X2492100Y1856700D01*
X2494099Y1860799D01*
X2496199Y1862800D01*
X2500299Y1864899D01*
X2506400Y1864899D01*
X2510500Y1860799D01*
X2512500Y1854600D01*
X2512500Y1846500D01*
X2510500Y1840300D01*
X2506400Y1836199D01*
X2475699Y1906999D02*
G01*
X2471599Y1902899D01*
X2469600Y1896799D01*
X2469600Y1888600D01*
X2471599Y1882500D01*
X2475699Y1878400D01*
X2479799Y1878400D01*
X2483900Y1880399D01*
X2486000Y1882500D01*
X2488000Y1886500D01*
X2492100Y1898800D01*
X2494099Y1902899D01*
X2496199Y1905000D01*
X2500299Y1906999D01*
X2506400Y1906999D01*
X2510500Y1902899D01*
X2512500Y1896799D01*
X2512500Y1888600D01*
X2510500Y1882500D01*
X2506400Y1878400D01*
X2289600Y1700000D02*
G01*
X2332500Y1700000D01*
X2289600Y1700000D02*
G01*
X2289600Y1726599D01*
X2310000Y1700000D02*
G01*
X2310000Y1716399D01*
X2332500Y1700000D02*
G01*
X2332500Y1726599D01*
X2295699Y1768699D02*
G01*
X2291599Y1764600D01*
X2289600Y1758499D01*
X2289600Y1750300D01*
X2291599Y1744200D01*
X2295699Y1740100D01*
X2299799Y1740100D01*
X2303900Y1742100D01*
X2306000Y1744200D01*
X2308000Y1748299D01*
X2312100Y1760500D01*
X2314099Y1764600D01*
X2316199Y1766700D01*
X2320299Y1768699D01*
X2326400Y1768699D01*
X2330500Y1764600D01*
X2332500Y1758499D01*
X2332500Y1750300D01*
X2330500Y1744200D01*
X2326400Y1740100D01*
X2299799Y1812899D02*
G01*
X2295699Y1810900D01*
X2291599Y1806799D01*
X2289600Y1802699D01*
X2289600Y1794499D01*
X2291599Y1790399D01*
X2295699Y1786300D01*
X2299799Y1784299D01*
X2306000Y1782199D01*
X2316199Y1782199D01*
X2322299Y1784299D01*
X2326400Y1786300D01*
X2330500Y1790399D01*
X2332500Y1794499D01*
X2332500Y1802699D01*
X2330500Y1806799D01*
X2326400Y1810900D01*
X2322299Y1812899D01*
X2700699Y1768600D02*
G01*
X2696599Y1764499D01*
X2694600Y1758400D01*
X2694600Y1750199D01*
X2696599Y1744099D01*
X2700699Y1740000D01*
X2704799Y1740000D01*
X2708900Y1741999D01*
X2711000Y1744099D01*
X2713000Y1748200D01*
X2717100Y1760500D01*
X2719099Y1764499D01*
X2721199Y1766599D01*
X2725299Y1768600D01*
X2731400Y1768600D01*
X2735500Y1764499D01*
X2737500Y1758400D01*
X2737500Y1750199D01*
X2735500Y1744099D01*
X2731400Y1740000D01*
X2702799Y1782100D02*
G01*
X2700699Y1786199D01*
X2694600Y1792399D01*
X2737500Y1792399D01*
X2800699Y1768600D02*
G01*
X2796599Y1764499D01*
X2794600Y1758400D01*
X2794600Y1750199D01*
X2796599Y1744099D01*
X2800699Y1740000D01*
X2804799Y1740000D01*
X2808900Y1741999D01*
X2811000Y1744099D01*
X2813000Y1748200D01*
X2817100Y1760500D01*
X2819099Y1764499D01*
X2821199Y1766599D01*
X2825299Y1768600D01*
X2831400Y1768600D01*
X2835500Y1764499D01*
X2837500Y1758400D01*
X2837500Y1750199D01*
X2835500Y1744099D01*
X2831400Y1740000D01*
X2804799Y1784200D02*
G01*
X2802799Y1784200D01*
X2798699Y1786199D01*
X2796599Y1788299D01*
X2794600Y1792399D01*
X2794600Y1800500D01*
X2796599Y1804600D01*
X2798699Y1806700D01*
X2802799Y1808699D01*
X2806899Y1808699D01*
X2811000Y1806700D01*
X2817100Y1802600D01*
X2837500Y1782100D01*
X2837500Y1810799D01*
X2900699Y1768600D02*
G01*
X2896599Y1764499D01*
X2894600Y1758400D01*
X2894600Y1750199D01*
X2896599Y1744099D01*
X2900699Y1740000D01*
X2904799Y1740000D01*
X2908900Y1741999D01*
X2911000Y1744099D01*
X2913000Y1748200D01*
X2917100Y1760500D01*
X2919099Y1764499D01*
X2921199Y1766599D01*
X2925299Y1768600D01*
X2931400Y1768600D01*
X2935500Y1764499D01*
X2937500Y1758400D01*
X2937500Y1750199D01*
X2935500Y1744099D01*
X2931400Y1740000D01*
X2894600Y1786199D02*
G01*
X2894600Y1808699D01*
X2911000Y1796500D01*
X2911000Y1802600D01*
X2913000Y1806700D01*
X2915000Y1808699D01*
X2921199Y1810799D01*
X2925299Y1810799D01*
X2931400Y1808699D01*
X2935500Y1804600D01*
X2937500Y1798499D01*
X2937500Y1792399D01*
X2935500Y1786199D01*
X2933500Y1784200D01*
X2929399Y1782100D01*
X3000699Y1768600D02*
G01*
X2996599Y1764499D01*
X2994600Y1758400D01*
X2994600Y1750199D01*
X2996599Y1744099D01*
X3000699Y1740000D01*
X3004799Y1740000D01*
X3008900Y1741999D01*
X3011000Y1744099D01*
X3013000Y1748200D01*
X3017100Y1760500D01*
X3019099Y1764499D01*
X3021199Y1766599D01*
X3025299Y1768600D01*
X3031400Y1768600D01*
X3035500Y1764499D01*
X3037500Y1758400D01*
X3037500Y1750199D01*
X3035500Y1744099D01*
X3031400Y1740000D01*
X2994600Y1802600D02*
G01*
X3023199Y1782100D01*
X3023199Y1812800D01*
X2994600Y1802600D02*
G01*
X3037500Y1802600D01*
X3100699Y1768600D02*
G01*
X3096599Y1764499D01*
X3094600Y1758400D01*
X3094600Y1750199D01*
X3096599Y1744099D01*
X3100699Y1740000D01*
X3104799Y1740000D01*
X3108900Y1741999D01*
X3111000Y1744099D01*
X3113000Y1748200D01*
X3117100Y1760500D01*
X3119099Y1764499D01*
X3121199Y1766599D01*
X3125299Y1768600D01*
X3131400Y1768600D01*
X3135500Y1764499D01*
X3137500Y1758400D01*
X3137500Y1750199D01*
X3135500Y1744099D01*
X3131400Y1740000D01*
X3094600Y1806700D02*
G01*
X3094600Y1786199D01*
X3113000Y1784200D01*
X3111000Y1786199D01*
X3108900Y1792399D01*
X3108900Y1798499D01*
X3111000Y1804600D01*
X3115000Y1808699D01*
X3121199Y1810799D01*
X3125299Y1810799D01*
X3131400Y1808699D01*
X3135500Y1804600D01*
X3137500Y1798499D01*
X3137500Y1792399D01*
X3135500Y1786199D01*
X3133500Y1784200D01*
X3129399Y1782100D01*
X3200699Y1768600D02*
G01*
X3196599Y1764499D01*
X3194600Y1758400D01*
X3194600Y1750199D01*
X3196599Y1744099D01*
X3200699Y1740000D01*
X3204799Y1740000D01*
X3208900Y1741999D01*
X3211000Y1744099D01*
X3213000Y1748200D01*
X3217100Y1760500D01*
X3219099Y1764499D01*
X3221199Y1766599D01*
X3225299Y1768600D01*
X3231400Y1768600D01*
X3235500Y1764499D01*
X3237500Y1758400D01*
X3237500Y1750199D01*
X3235500Y1744099D01*
X3231400Y1740000D01*
X3200699Y1806700D02*
G01*
X3196599Y1804600D01*
X3194600Y1798499D01*
X3194600Y1794400D01*
X3196599Y1788299D01*
X3202799Y1784200D01*
X3213000Y1782100D01*
X3223199Y1782100D01*
X3231400Y1784200D01*
X3235500Y1788299D01*
X3237500Y1794400D01*
X3237500Y1796500D01*
X3235500Y1802600D01*
X3231400Y1806700D01*
X3225299Y1808699D01*
X3223199Y1808699D01*
X3217100Y1806700D01*
X3213000Y1802600D01*
X3211000Y1796500D01*
X3211000Y1794400D01*
X3213000Y1788299D01*
X3217100Y1784200D01*
X3223199Y1782100D01*
X3300699Y1768600D02*
G01*
X3296599Y1764499D01*
X3294600Y1758400D01*
X3294600Y1750199D01*
X3296599Y1744099D01*
X3300699Y1740000D01*
X3304799Y1740000D01*
X3308900Y1741999D01*
X3311000Y1744099D01*
X3313000Y1748200D01*
X3317100Y1760500D01*
X3319099Y1764499D01*
X3321199Y1766599D01*
X3325299Y1768600D01*
X3331400Y1768600D01*
X3335500Y1764499D01*
X3337500Y1758400D01*
X3337500Y1750199D01*
X3335500Y1744099D01*
X3331400Y1740000D01*
X3294600Y1810799D02*
G01*
X3337500Y1790300D01*
X3294600Y1782100D02*
G01*
X3294600Y1810799D01*
X3400699Y1768600D02*
G01*
X3396599Y1764499D01*
X3394600Y1758400D01*
X3394600Y1750199D01*
X3396599Y1744099D01*
X3400699Y1740000D01*
X3404799Y1740000D01*
X3408900Y1741999D01*
X3411000Y1744099D01*
X3413000Y1748200D01*
X3417100Y1760500D01*
X3419099Y1764499D01*
X3421199Y1766599D01*
X3425299Y1768600D01*
X3431400Y1768600D01*
X3435500Y1764499D01*
X3437500Y1758400D01*
X3437500Y1750199D01*
X3435500Y1744099D01*
X3431400Y1740000D01*
X3394600Y1792399D02*
G01*
X3396599Y1786199D01*
X3400699Y1784200D01*
X3404799Y1784200D01*
X3408900Y1786199D01*
X3411000Y1790300D01*
X3413000Y1798499D01*
X3415000Y1804600D01*
X3419099Y1808699D01*
X3423199Y1810799D01*
X3429399Y1810799D01*
X3433500Y1808699D01*
X3435500Y1806700D01*
X3437500Y1800500D01*
X3437500Y1792399D01*
X3435500Y1786199D01*
X3433500Y1784200D01*
X3429399Y1782100D01*
X3423199Y1782100D01*
X3419099Y1784200D01*
X3415000Y1788299D01*
X3413000Y1794400D01*
X3411000Y1802600D01*
X3408900Y1806700D01*
X3404799Y1808699D01*
X3400699Y1808699D01*
X3396599Y1806700D01*
X3394600Y1800500D01*
X3394600Y1792399D01*
X3500699Y1768600D02*
G01*
X3496599Y1764499D01*
X3494600Y1758400D01*
X3494600Y1750199D01*
X3496599Y1744099D01*
X3500699Y1740000D01*
X3504799Y1740000D01*
X3508900Y1741999D01*
X3511000Y1744099D01*
X3513000Y1748200D01*
X3517100Y1760500D01*
X3519099Y1764499D01*
X3521199Y1766599D01*
X3525299Y1768600D01*
X3531400Y1768600D01*
X3535500Y1764499D01*
X3537500Y1758400D01*
X3537500Y1750199D01*
X3535500Y1744099D01*
X3531400Y1740000D01*
X3508900Y1808699D02*
G01*
X3515000Y1806700D01*
X3519099Y1802600D01*
X3521199Y1796500D01*
X3521199Y1794400D01*
X3519099Y1788299D01*
X3515000Y1784200D01*
X3508900Y1782100D01*
X3506899Y1782100D01*
X3500699Y1784200D01*
X3496599Y1788299D01*
X3494600Y1794400D01*
X3494600Y1796500D01*
X3496599Y1802600D01*
X3500699Y1806700D01*
X3508900Y1808699D01*
X3519099Y1808699D01*
X3529399Y1806700D01*
X3535500Y1802600D01*
X3537500Y1796500D01*
X3537500Y1792399D01*
X3535500Y1786199D01*
X3531400Y1784200D01*
X3600699Y1768600D02*
G01*
X3596599Y1764499D01*
X3594600Y1758400D01*
X3594600Y1750199D01*
X3596599Y1744099D01*
X3600699Y1740000D01*
X3604799Y1740000D01*
X3608900Y1741999D01*
X3611000Y1744099D01*
X3613000Y1748200D01*
X3617100Y1760500D01*
X3619099Y1764499D01*
X3621199Y1766599D01*
X3625299Y1768600D01*
X3631400Y1768600D01*
X3635500Y1764499D01*
X3637500Y1758400D01*
X3637500Y1750199D01*
X3635500Y1744099D01*
X3631400Y1740000D01*
X3602799Y1782100D02*
G01*
X3600699Y1786199D01*
X3594600Y1792399D01*
X3637500Y1792399D01*
X3594600Y1818099D02*
G01*
X3596599Y1811999D01*
X3602799Y1807899D01*
X3613000Y1805900D01*
X3619099Y1805900D01*
X3629399Y1807899D01*
X3635500Y1811999D01*
X3637500Y1818099D01*
X3637500Y1822199D01*
X3635500Y1828400D01*
X3629399Y1832500D01*
X3619099Y1834499D01*
X3613000Y1834499D01*
X3602799Y1832500D01*
X3596599Y1828400D01*
X3594600Y1822199D01*
X3594600Y1818099D01*
X2139799Y1705700D02*
G01*
X2135699Y1703600D01*
X2131599Y1699499D01*
X2129600Y1695500D01*
X2129600Y1687300D01*
X2131599Y1683200D01*
X2135699Y1679099D01*
X2139799Y1676999D01*
X2146000Y1675000D01*
X2156199Y1675000D01*
X2162299Y1676999D01*
X2166400Y1679099D01*
X2170500Y1683200D01*
X2172500Y1687300D01*
X2172500Y1695500D01*
X2170500Y1699499D01*
X2166400Y1703600D01*
X2162299Y1705700D01*
X2137799Y1719200D02*
G01*
X2135699Y1723299D01*
X2129600Y1729400D01*
X2172500Y1729400D01*
X2186899Y1742899D02*
G01*
X2186899Y1779699D01*
X2137799Y1793200D02*
G01*
X2135699Y1797300D01*
X2129600Y1803499D01*
X2172500Y1803499D01*
X54800Y705700D02*
G01*
X50700Y703600D01*
X46599Y699499D01*
X44600Y695500D01*
X44600Y687300D01*
X46599Y683200D01*
X50700Y679099D01*
X54800Y676999D01*
X60999Y675000D01*
X71199Y675000D01*
X77300Y676999D01*
X81399Y679099D01*
X85500Y683200D01*
X87500Y687300D01*
X87500Y695500D01*
X85500Y699499D01*
X81399Y703600D01*
X77300Y705700D01*
X44600Y719200D02*
G01*
X87500Y719200D01*
X44600Y719200D02*
G01*
X44600Y733499D01*
X46599Y739600D01*
X50700Y743699D01*
X54800Y745799D01*
X60999Y747800D01*
X71199Y747800D01*
X77300Y745799D01*
X81399Y743699D01*
X85500Y739600D01*
X87500Y733499D01*
X87500Y719200D01*
D11*
X240000Y622500D02*
G01*
X240000Y546500D01*
X240000Y600799D02*
G01*
X256300Y616999D01*
X267100Y622500D01*
X283400Y622500D01*
X294299Y616999D01*
X299699Y600799D01*
X299699Y546500D01*
X299699Y600799D02*
G01*
X315999Y616999D01*
X326799Y622500D01*
X343099Y622500D01*
X353899Y616999D01*
X359400Y600799D01*
X359400Y546500D01*
X395199Y660500D02*
G01*
X400599Y655000D01*
X405999Y660500D01*
X400599Y665900D01*
X395199Y660500D01*
X400599Y622500D02*
G01*
X400599Y546500D01*
X506999Y606199D02*
G01*
X496100Y616999D01*
X485300Y622500D01*
X469000Y622500D01*
X458099Y616999D01*
X447300Y606199D01*
X441799Y589899D01*
X441799Y579099D01*
X447300Y562800D01*
X458099Y551900D01*
X469000Y546500D01*
X485300Y546500D01*
X496100Y551900D01*
X506999Y562800D01*
X542800Y622500D02*
G01*
X542800Y546500D01*
X542800Y589899D02*
G01*
X548200Y606199D01*
X559000Y616999D01*
X569899Y622500D01*
X586199Y622500D01*
X649099Y622500D02*
G01*
X638299Y616999D01*
X627399Y606199D01*
X621999Y589899D01*
X621999Y579099D01*
X627399Y562800D01*
X638299Y551900D01*
X649099Y546500D01*
X665399Y546500D01*
X676199Y551900D01*
X687100Y562800D01*
X692500Y579099D01*
X692500Y589899D01*
X687100Y606199D01*
X676199Y616999D01*
X665399Y622500D01*
X649099Y622500D01*
X804300Y644200D02*
G01*
X793400Y655000D01*
X777200Y660500D01*
X755500Y660500D01*
X739200Y655000D01*
X728299Y644200D01*
X728299Y633299D01*
X733800Y622500D01*
X739200Y616999D01*
X750000Y611599D01*
X782600Y600799D01*
X793400Y595300D01*
X798900Y589899D01*
X804300Y579099D01*
X804300Y562800D01*
X793400Y551900D01*
X777200Y546500D01*
X755500Y546500D01*
X739200Y551900D01*
X728299Y562800D01*
X840100Y660500D02*
G01*
X840100Y546500D01*
X840100Y660500D02*
G01*
X878100Y660500D01*
X894399Y655000D01*
X905200Y644200D01*
X910600Y633299D01*
X916099Y616999D01*
X916099Y589899D01*
X910600Y573600D01*
X905200Y562800D01*
X894399Y551900D01*
X878100Y546500D01*
X840100Y546500D01*
D10*
X3305699Y1070199D02*
G01*
X3303599Y1074299D01*
X3299499Y1078400D01*
X3295500Y1080399D01*
X3287299Y1080399D01*
X3283199Y1078400D01*
X3279099Y1074299D01*
X3276999Y1070199D01*
X3275000Y1064000D01*
X3275000Y1053800D01*
X3276999Y1047699D01*
X3279099Y1043600D01*
X3283199Y1039499D01*
X3287299Y1037500D01*
X3295500Y1037500D01*
X3299499Y1039499D01*
X3303599Y1043600D01*
X3305699Y1047699D01*
X3305699Y1053800D01*
X3295500Y1053800D02*
G01*
X3305699Y1053800D01*
X3319200Y1080399D02*
G01*
X3319200Y1037500D01*
X3319200Y1080399D02*
G01*
X3337600Y1080399D01*
X3343699Y1078400D01*
X3345799Y1076300D01*
X3347799Y1072199D01*
X3347799Y1066100D01*
X3345799Y1061999D01*
X3343699Y1060000D01*
X3337600Y1057899D01*
X3319200Y1057899D01*
X3390000Y1074299D02*
G01*
X3385900Y1078400D01*
X3379700Y1080399D01*
X3371499Y1080399D01*
X3365399Y1078400D01*
X3361300Y1074299D01*
X3361300Y1070199D01*
X3363400Y1066100D01*
X3365399Y1064000D01*
X3369499Y1061999D01*
X3381800Y1057899D01*
X3385900Y1055900D01*
X3387899Y1053800D01*
X3390000Y1049699D01*
X3390000Y1043600D01*
X3385900Y1039499D01*
X3379700Y1037500D01*
X3371499Y1037500D01*
X3365399Y1039499D01*
X3361300Y1043600D01*
X3403500Y1072199D02*
G01*
X3407500Y1074299D01*
X3413699Y1080399D01*
X3413699Y1037500D01*
D11*
X3312500Y545500D02*
G01*
X3319799Y549099D01*
X3327100Y556399D01*
X3330699Y563600D01*
X3330699Y578200D01*
X3327100Y585500D01*
X3319799Y592699D01*
X3312500Y596399D01*
X3301599Y600000D01*
X3283500Y600000D01*
X3272500Y596399D01*
X3265299Y592699D01*
X3258000Y585500D01*
X3254399Y578200D01*
X3254399Y563600D01*
X3258000Y556399D01*
X3265299Y549099D01*
X3272500Y545500D01*
X3283500Y545500D01*
X3283500Y563600D02*
G01*
X3283500Y545500D01*
X3330699Y521500D02*
G01*
X3254399Y521500D01*
X3330699Y521500D02*
G01*
X3330699Y488699D01*
X3327100Y477800D01*
X3323500Y474200D01*
X3316199Y470500D01*
X3305299Y470500D01*
X3298000Y474200D01*
X3294399Y477800D01*
X3290699Y488699D01*
X3290699Y521500D01*
X3319799Y395599D02*
G01*
X3327100Y402899D01*
X3330699Y413800D01*
X3330699Y428400D01*
X3327100Y439299D01*
X3319799Y446500D01*
X3312500Y446500D01*
X3305299Y442899D01*
X3301599Y439299D01*
X3298000Y431999D01*
X3290699Y410199D01*
X3287100Y402899D01*
X3283500Y399299D01*
X3276199Y395599D01*
X3265299Y395599D01*
X3258000Y402899D01*
X3254399Y413800D01*
X3254399Y428400D01*
X3258000Y439299D01*
X3265299Y446500D01*
X2727299Y960700D02*
G01*
X2767299Y960700D01*
X2745500Y931599D01*
X2756400Y931599D01*
X2763599Y928000D01*
X2767299Y924400D01*
X2770900Y913499D01*
X2770900Y906199D01*
X2767299Y895300D01*
X2760000Y888000D01*
X2749099Y884400D01*
X2738199Y884400D01*
X2727299Y888000D01*
X2723599Y891599D01*
X2720000Y898899D01*
X2798500Y902500D02*
G01*
X2794899Y898899D01*
X2798500Y895300D01*
X2802200Y898899D01*
X2798500Y902500D01*
X2833500Y960700D02*
G01*
X2873500Y960700D01*
X2851599Y931599D01*
X2862500Y931599D01*
X2869799Y928000D01*
X2873500Y924400D01*
X2877100Y913499D01*
X2877100Y906199D01*
X2873500Y895300D01*
X2866199Y888000D01*
X2855299Y884400D01*
X2844399Y884400D01*
X2833500Y888000D01*
X2829799Y891599D01*
X2826199Y898899D01*
X2901099Y960700D02*
G01*
X2930200Y884400D01*
X2959300Y960700D02*
G01*
X2930200Y884400D01*
X2720000Y860700D02*
G01*
X2720000Y784400D01*
X2720000Y860700D02*
G01*
X2767299Y860700D01*
X2720000Y824400D02*
G01*
X2749099Y824400D01*
X2720000Y784400D02*
G01*
X2767299Y784400D01*
X2791300Y860700D02*
G01*
X2791300Y784400D01*
X2791300Y860700D02*
G01*
X2842200Y784400D01*
X2842200Y860700D02*
G01*
X2842200Y784400D01*
X2720000Y760700D02*
G01*
X2749099Y684400D01*
X2778199Y760700D02*
G01*
X2749099Y684400D01*
X2802200Y760700D02*
G01*
X2802200Y684400D01*
X2802200Y760700D02*
G01*
X2834899Y760700D01*
X2845799Y757100D01*
X2849499Y753499D01*
X2853100Y746199D01*
X2853100Y738899D01*
X2849499Y731599D01*
X2845799Y728000D01*
X2834899Y724400D01*
X2802200Y724400D02*
G01*
X2834899Y724400D01*
X2845799Y720700D01*
X2849499Y717100D01*
X2853100Y709800D01*
X2853100Y698899D01*
X2849499Y691599D01*
X2845799Y688000D01*
X2834899Y684400D01*
X2802200Y684400D01*
X2906199Y760700D02*
G01*
X2877100Y684400D01*
X2906199Y760700D02*
G01*
X2935299Y684400D01*
X2888000Y709800D02*
G01*
X2924399Y709800D01*
X2984700Y760700D02*
G01*
X2984700Y684400D01*
X2959300Y760700D02*
G01*
X3010200Y760700D01*
X2720000Y660700D02*
G01*
X2720000Y584400D01*
X2720000Y660700D02*
G01*
X2767299Y660700D01*
X2720000Y624400D02*
G01*
X2749099Y624400D01*
X2791300Y660700D02*
G01*
X2791300Y584400D01*
X2815299Y660700D02*
G01*
X2866199Y584400D01*
X2866199Y660700D02*
G01*
X2815299Y584400D01*
X2745500Y560700D02*
G01*
X2745500Y484400D01*
X2720000Y560700D02*
G01*
X2770900Y560700D01*
X2794899Y560700D02*
G01*
X2845799Y484400D01*
X2845799Y560700D02*
G01*
X2794899Y484400D01*
X2720000Y460700D02*
G01*
X2720000Y384400D01*
X2720000Y460700D02*
G01*
X2752700Y460700D01*
X2763599Y457100D01*
X2767299Y453499D01*
X2770900Y446199D01*
X2770900Y438899D01*
X2767299Y431599D01*
X2763599Y428000D01*
X2752700Y424400D01*
X2720000Y424400D01*
X2745500Y424400D02*
G01*
X2770900Y384400D01*
X2794899Y460700D02*
G01*
X2845799Y384400D01*
X2845799Y460700D02*
G01*
X2794899Y384400D01*
X2774499Y342500D02*
G01*
X2770900Y349800D01*
X2763599Y357100D01*
X2756400Y360700D01*
X2741800Y360700D01*
X2734499Y357100D01*
X2727299Y349800D01*
X2723599Y342500D01*
X2720000Y331599D01*
X2720000Y313499D01*
X2723599Y302500D01*
X2727299Y295300D01*
X2734499Y288000D01*
X2741800Y284400D01*
X2756400Y284400D01*
X2763599Y288000D01*
X2770900Y295300D01*
X2774499Y302500D01*
X2774499Y313499D01*
X2756400Y313499D02*
G01*
X2774499Y313499D01*
X2798500Y360700D02*
G01*
X2798500Y284400D01*
X2798500Y360700D02*
G01*
X2849499Y284400D01*
X2849499Y360700D02*
G01*
X2849499Y284400D01*
X2873500Y360700D02*
G01*
X2873500Y284400D01*
X2873500Y360700D02*
G01*
X2898900Y360700D01*
X2909799Y357100D01*
X2917100Y349800D01*
X2920699Y342500D01*
X2924399Y331599D01*
X2924399Y313499D01*
X2920699Y302500D01*
X2917100Y295300D01*
X2909799Y288000D01*
X2898900Y284400D01*
X2873500Y284400D01*
X2720000Y260700D02*
G01*
X2749099Y184400D01*
X2778199Y260700D02*
G01*
X2749099Y184400D01*
X2802200Y260700D02*
G01*
X2802200Y184400D01*
X2826199Y260700D02*
G01*
X2826199Y184400D01*
X2826199Y260700D02*
G01*
X2877100Y184400D01*
X2877100Y260700D02*
G01*
X2877100Y184400D01*
X2720000Y160700D02*
G01*
X2720000Y84400D01*
X2720000Y160700D02*
G01*
X2752700Y160700D01*
X2763599Y157100D01*
X2767299Y153499D01*
X2770900Y146199D01*
X2770900Y135300D01*
X2767299Y128000D01*
X2763599Y124400D01*
X2752700Y120700D01*
X2720000Y120700D01*
X2794899Y160700D02*
G01*
X2794899Y84400D01*
X2794899Y160700D02*
G01*
X2827600Y160700D01*
X2838500Y157100D01*
X2842200Y153499D01*
X2845799Y146199D01*
X2845799Y135300D01*
X2842200Y128000D01*
X2838500Y124400D01*
X2827600Y120700D01*
X2794899Y120700D01*
X2920699Y149800D02*
G01*
X2913500Y157100D01*
X2902500Y160700D01*
X2888000Y160700D01*
X2877100Y157100D01*
X2869799Y149800D01*
X2869799Y142500D01*
X2873500Y135300D01*
X2877100Y131599D01*
X2884399Y128000D01*
X2906199Y120700D01*
X2913500Y117100D01*
X2917100Y113499D01*
X2920699Y106199D01*
X2920699Y95300D01*
X2913500Y88000D01*
X2902500Y84400D01*
X2888000Y84400D01*
X2877100Y88000D01*
X2869799Y95300D01*
D10*
X3759600Y1620500D02*
G01*
X3792299Y1620500D01*
X3798500Y1618400D01*
X3800500Y1616399D01*
X3802500Y1612300D01*
X3802500Y1608200D01*
X3800500Y1604099D01*
X3798500Y1601999D01*
X3792299Y1600000D01*
X3788199Y1600000D01*
X3816899Y1634000D02*
G01*
X3816899Y1670799D01*
X3759600Y1684299D02*
G01*
X3790299Y1684299D01*
X3796400Y1686300D01*
X3800500Y1690399D01*
X3802500Y1696500D01*
X3802500Y1700599D01*
X3800500Y1706799D01*
X3796400Y1710900D01*
X3790299Y1712899D01*
X3759600Y1712899D01*
X3759600Y1726399D02*
G01*
X3802500Y1726399D01*
X3802500Y1726399D02*
G01*
X3802500Y1750999D01*
X3759600Y1778800D02*
G01*
X3802500Y1778800D01*
X3759600Y1764499D02*
G01*
X3759600Y1793099D01*
X3759600Y1806599D02*
G01*
X3802500Y1806599D01*
X3759600Y1806599D02*
G01*
X3759600Y1825000D01*
X3761599Y1831100D01*
X3763699Y1833200D01*
X3767799Y1835199D01*
X3771899Y1835199D01*
X3776000Y1833200D01*
X3778000Y1831100D01*
X3780000Y1825000D01*
X3780000Y1806599D01*
X3780000Y1820900D02*
G01*
X3802500Y1835199D01*
X3759600Y1865100D02*
G01*
X3802500Y1848699D01*
X3759600Y1865100D02*
G01*
X3802500Y1881500D01*
X3788199Y1854899D02*
G01*
X3788199Y1875300D01*
X3765699Y1923600D02*
G01*
X3761599Y1919499D01*
X3759600Y1913400D01*
X3759600Y1905199D01*
X3761599Y1899000D01*
X3765699Y1895000D01*
X3769799Y1895000D01*
X3773900Y1896999D01*
X3776000Y1899000D01*
X3778000Y1903099D01*
X3782100Y1915399D01*
X3784099Y1919499D01*
X3786199Y1921500D01*
X3790299Y1923600D01*
X3796400Y1923600D01*
X3800500Y1919499D01*
X3802500Y1913400D01*
X3802500Y1905199D01*
X3800500Y1899000D01*
X3796400Y1895000D01*
X3759600Y1949400D02*
G01*
X3761599Y1945300D01*
X3765699Y1941199D01*
X3769799Y1939099D01*
X3776000Y1937100D01*
X3786199Y1937100D01*
X3792299Y1939099D01*
X3796400Y1941199D01*
X3800500Y1945300D01*
X3802500Y1949400D01*
X3802500Y1957500D01*
X3800500Y1961599D01*
X3796400Y1965700D01*
X3792299Y1967800D01*
X3786199Y1969800D01*
X3776000Y1969800D01*
X3769799Y1967800D01*
X3765699Y1965700D01*
X3761599Y1961599D01*
X3759600Y1957500D01*
X3759600Y1949400D01*
X3759600Y1983299D02*
G01*
X3802500Y1983299D01*
X3759600Y1983299D02*
G01*
X3802500Y2011999D01*
X3759600Y2011999D02*
G01*
X3802500Y2011999D01*
X3725399Y2075000D02*
G01*
X3682500Y2075000D01*
X3682500Y2075000D02*
G01*
X3682500Y2050500D01*
X3725399Y2036999D02*
G01*
X3682500Y2036999D01*
X3725399Y2036999D02*
G01*
X3725399Y2010399D01*
X3705000Y2036999D02*
G01*
X3705000Y2020599D01*
X3682500Y2036999D02*
G01*
X3682500Y2010399D01*
X3725399Y1996900D02*
G01*
X3682500Y1996900D01*
X3725399Y1996900D02*
G01*
X3725399Y1982500D01*
X3723400Y1976399D01*
X3719300Y1972300D01*
X3715200Y1970300D01*
X3708999Y1968200D01*
X3698800Y1968200D01*
X3692700Y1970300D01*
X3688599Y1972300D01*
X3684499Y1976399D01*
X3682500Y1982500D01*
X3682500Y1996900D01*
X3717200Y1954699D02*
G01*
X3719300Y1950599D01*
X3725399Y1944499D01*
X3682500Y1944499D01*
X3668100Y1930999D02*
G01*
X3668100Y1894200D01*
X3717200Y1880700D02*
G01*
X3719300Y1876599D01*
X3725399Y1870500D01*
X3682500Y1870500D01*
X2809600Y1055000D02*
G01*
X2852500Y1055000D01*
X2852500Y1055000D02*
G01*
X2852500Y1079499D01*
X2809600Y1093000D02*
G01*
X2852500Y1093000D01*
X2809600Y1093000D02*
G01*
X2809600Y1119600D01*
X2830000Y1093000D02*
G01*
X2830000Y1109400D01*
X2852500Y1093000D02*
G01*
X2852500Y1119600D01*
X2809600Y1133099D02*
G01*
X2852500Y1133099D01*
X2809600Y1133099D02*
G01*
X2809600Y1147500D01*
X2811599Y1153600D01*
X2815699Y1157699D01*
X2819799Y1159699D01*
X2826000Y1161799D01*
X2836199Y1161799D01*
X2842299Y1159699D01*
X2846400Y1157699D01*
X2850500Y1153600D01*
X2852500Y1147500D01*
X2852500Y1133099D01*
X2819799Y1177300D02*
G01*
X2817799Y1177300D01*
X2813699Y1179400D01*
X2811599Y1181399D01*
X2809600Y1185500D01*
X2809600Y1193699D01*
X2811599Y1197800D01*
X2813699Y1199800D01*
X2817799Y1201900D01*
X2821899Y1201900D01*
X2826000Y1199800D01*
X2832100Y1195700D01*
X2852500Y1175300D01*
X2852500Y1203899D01*
X2866899Y1217399D02*
G01*
X2866899Y1254200D01*
X2817799Y1267699D02*
G01*
X2815699Y1271799D01*
X2809600Y1278000D01*
X2852500Y1278000D01*
X2579600Y1110000D02*
G01*
X2622500Y1110000D01*
X2622500Y1110000D02*
G01*
X2622500Y1134499D01*
X2579600Y1148000D02*
G01*
X2622500Y1148000D01*
X2579600Y1148000D02*
G01*
X2579600Y1174600D01*
X2600000Y1148000D02*
G01*
X2600000Y1164400D01*
X2622500Y1148000D02*
G01*
X2622500Y1174600D01*
X2579600Y1188099D02*
G01*
X2622500Y1188099D01*
X2579600Y1188099D02*
G01*
X2579600Y1202500D01*
X2581599Y1208600D01*
X2585699Y1212699D01*
X2589799Y1214699D01*
X2596000Y1216799D01*
X2606199Y1216799D01*
X2612299Y1214699D01*
X2616400Y1212699D01*
X2620500Y1208600D01*
X2622500Y1202500D01*
X2622500Y1188099D01*
X2579600Y1254800D02*
G01*
X2579600Y1234400D01*
X2598000Y1232300D01*
X2596000Y1234400D01*
X2593900Y1240500D01*
X2593900Y1246599D01*
X2596000Y1252800D01*
X2600000Y1256900D01*
X2606199Y1258899D01*
X2610299Y1258899D01*
X2616400Y1256900D01*
X2620500Y1252800D01*
X2622500Y1246599D01*
X2622500Y1240500D01*
X2620500Y1234400D01*
X2618500Y1232300D01*
X2614399Y1230300D01*
X2636899Y1272399D02*
G01*
X2636899Y1309200D01*
X2587799Y1322699D02*
G01*
X2585699Y1326799D01*
X2579600Y1333000D01*
X2622500Y1333000D01*
X3963755Y1300999D02*
G01*
X3920855Y1300999D01*
X3963755Y1300999D02*
G01*
X3920855Y1284600D01*
X3963755Y1268299D02*
G01*
X3920855Y1284600D01*
X3963755Y1268299D02*
G01*
X3920855Y1268299D01*
X3963755Y1254800D02*
G01*
X3920855Y1254800D01*
X3963755Y1226100D02*
G01*
X3935155Y1254800D01*
X3945354Y1244499D02*
G01*
X3920855Y1226100D01*
X3955555Y1212600D02*
G01*
X3957655Y1208499D01*
X3963755Y1202399D01*
X3920855Y1202399D01*
X2375000Y924600D02*
G01*
X2375000Y967500D01*
X2375000Y924600D02*
G01*
X2356599Y924600D01*
X2350500Y926599D01*
X2348400Y928699D01*
X2346400Y932800D01*
X2346400Y936900D01*
X2348400Y940999D01*
X2350500Y943000D01*
X2356599Y945000D01*
X2375000Y945000D01*
X2360699Y945000D02*
G01*
X2346400Y967500D01*
X2332899Y932800D02*
G01*
X2328800Y930700D01*
X2322600Y924600D01*
X2322600Y967500D01*
X2309099Y981900D02*
G01*
X2272299Y981900D01*
X2258800Y932800D02*
G01*
X2254700Y930700D01*
X2248599Y924600D01*
X2248599Y967500D01*
X2780000Y1984600D02*
G01*
X2780000Y2027500D01*
X2780000Y1984600D02*
G01*
X2761599Y1984600D01*
X2755500Y1986599D01*
X2753400Y1988699D01*
X2751400Y1992800D01*
X2751400Y1996900D01*
X2753400Y2000999D01*
X2755500Y2003000D01*
X2761599Y2005000D01*
X2780000Y2005000D01*
X2765699Y2005000D02*
G01*
X2751400Y2027500D01*
X2735799Y1994800D02*
G01*
X2735799Y1992800D01*
X2733800Y1988699D01*
X2731700Y1986599D01*
X2727600Y1984600D01*
X2719499Y1984600D01*
X2715399Y1986599D01*
X2713299Y1988699D01*
X2711300Y1992800D01*
X2711300Y1996900D01*
X2713299Y2000999D01*
X2717399Y2007100D01*
X2737899Y2027500D01*
X2709200Y2027500D01*
X2695699Y2041900D02*
G01*
X2658900Y2041900D01*
X2645399Y1992800D02*
G01*
X2641300Y1990700D01*
X2635200Y1984600D01*
X2635200Y2027500D01*
X2155399Y1550000D02*
G01*
X2124700Y1550000D01*
X2118599Y1548000D01*
X2114499Y1543899D01*
X2112500Y1537699D01*
X2112500Y1533600D01*
X2114499Y1527500D01*
X2118599Y1523400D01*
X2124700Y1521399D01*
X2155399Y1521399D01*
X2147200Y1507899D02*
G01*
X2149300Y1503800D01*
X2155399Y1497600D01*
X2112500Y1497600D01*
D12*
X1261116Y1567658D02*
G01*
X1246815Y1530059D01*
X1261116Y1567658D02*
G01*
X1275415Y1530059D01*
X1252115Y1542658D02*
G01*
X1270015Y1542658D01*
X1308716Y1567658D02*
G01*
X1308716Y1530059D01*
X1308716Y1549758D02*
G01*
X1305115Y1553359D01*
X1301516Y1555158D01*
X1296216Y1555158D01*
X1292615Y1553359D01*
X1289016Y1549758D01*
X1287215Y1544459D01*
X1287215Y1540859D01*
X1289016Y1535459D01*
X1292615Y1531858D01*
X1296216Y1530059D01*
X1301516Y1530059D01*
X1305115Y1531858D01*
X1308716Y1535459D01*
X1342016Y1555158D02*
G01*
X1342016Y1530059D01*
X1342016Y1549758D02*
G01*
X1338415Y1553359D01*
X1334816Y1555158D01*
X1329416Y1555158D01*
X1325915Y1553359D01*
X1322316Y1549758D01*
X1320515Y1544459D01*
X1320515Y1540859D01*
X1322316Y1535459D01*
X1325915Y1531858D01*
X1329416Y1530059D01*
X1334816Y1530059D01*
X1338415Y1531858D01*
X1342016Y1535459D01*
X1368116Y1567658D02*
G01*
X1364516Y1567658D01*
X1360915Y1565859D01*
X1359116Y1560558D01*
X1359116Y1530059D01*
X1353815Y1555158D02*
G01*
X1366315Y1555158D01*
X1379916Y1555158D02*
G01*
X1379916Y1530059D01*
X1379916Y1544459D02*
G01*
X1381715Y1549758D01*
X1385316Y1553359D01*
X1388915Y1555158D01*
X1394215Y1555158D01*
X1406015Y1555158D02*
G01*
X1406015Y1537258D01*
X1407816Y1531858D01*
X1411415Y1530059D01*
X1416815Y1530059D01*
X1420316Y1531858D01*
X1425716Y1537258D01*
X1425716Y1555158D02*
G01*
X1425716Y1530059D01*
X1437515Y1567658D02*
G01*
X1439315Y1565859D01*
X1441116Y1567658D01*
X1439315Y1569459D01*
X1437515Y1567658D01*
X1439315Y1555158D02*
G01*
X1439315Y1530059D01*
X1458316Y1567658D02*
G01*
X1458316Y1537258D01*
X1460115Y1531858D01*
X1463716Y1530059D01*
X1467215Y1530059D01*
X1452915Y1555158D02*
G01*
X1465415Y1555158D01*
X1529916Y1555158D02*
G01*
X1528116Y1549758D01*
X1524516Y1546158D01*
X1519116Y1544459D01*
X1517316Y1544459D01*
X1512016Y1546158D01*
X1508415Y1549758D01*
X1506616Y1555158D01*
X1506616Y1556959D01*
X1508415Y1562359D01*
X1512016Y1565859D01*
X1517316Y1567658D01*
X1519116Y1567658D01*
X1524516Y1565859D01*
X1528116Y1562359D01*
X1529916Y1555158D01*
X1529916Y1546158D01*
X1528116Y1537258D01*
X1524516Y1531858D01*
X1519116Y1530059D01*
X1515616Y1530059D01*
X1510216Y1531858D01*
X1508415Y1535459D01*
X1541715Y1546158D02*
G01*
X1573915Y1546158D01*
X1585716Y1567658D02*
G01*
X1585716Y1530059D01*
X1585716Y1567658D02*
G01*
X1598216Y1567658D01*
X1603616Y1565859D01*
X1607215Y1562359D01*
X1609016Y1558759D01*
X1610816Y1553359D01*
X1610816Y1544459D01*
X1609016Y1539059D01*
X1607215Y1535459D01*
X1603616Y1531858D01*
X1598216Y1530059D01*
X1585716Y1530059D01*
X1633316Y1567658D02*
G01*
X1629715Y1565859D01*
X1626116Y1562359D01*
X1624416Y1558759D01*
X1622615Y1553359D01*
X1622615Y1544459D01*
X1624416Y1539059D01*
X1626116Y1535459D01*
X1629715Y1531858D01*
X1633316Y1530059D01*
X1640515Y1530059D01*
X1644016Y1531858D01*
X1647615Y1535459D01*
X1649416Y1539059D01*
X1651216Y1544459D01*
X1651216Y1553359D01*
X1649416Y1558759D01*
X1647615Y1562359D01*
X1644016Y1565859D01*
X1640515Y1567658D01*
X1633316Y1567658D01*
X1663015Y1567658D02*
G01*
X1663015Y1530059D01*
X1663015Y1567658D02*
G01*
X1686315Y1567658D01*
X1663015Y1549758D02*
G01*
X1677316Y1549758D01*
X1725616Y1567658D02*
G01*
X1725616Y1530059D01*
X1725616Y1530059D02*
G01*
X1747115Y1530059D01*
X1784016Y1562359D02*
G01*
X1780415Y1565859D01*
X1775015Y1567658D01*
X1767915Y1567658D01*
X1762515Y1565859D01*
X1758915Y1562359D01*
X1758915Y1558759D01*
X1760716Y1555158D01*
X1762515Y1553359D01*
X1766116Y1551559D01*
X1776815Y1547959D01*
X1780415Y1546158D01*
X1782215Y1544459D01*
X1784016Y1540859D01*
X1784016Y1535459D01*
X1780415Y1531858D01*
X1775015Y1530059D01*
X1767915Y1530059D01*
X1762515Y1531858D01*
X1758915Y1535459D01*
X1795816Y1567658D02*
G01*
X1795816Y1530059D01*
X1795816Y1567658D02*
G01*
X1810115Y1530059D01*
X1824416Y1567658D02*
G01*
X1810115Y1530059D01*
X1824416Y1567658D02*
G01*
X1824416Y1530059D01*
X1859516Y1555158D02*
G01*
X1857716Y1549758D01*
X1854116Y1546158D01*
X1848815Y1544459D01*
X1847016Y1544459D01*
X1841616Y1546158D01*
X1838015Y1549758D01*
X1836216Y1555158D01*
X1836216Y1556959D01*
X1838015Y1562359D01*
X1841616Y1565859D01*
X1847016Y1567658D01*
X1848815Y1567658D01*
X1854116Y1565859D01*
X1857716Y1562359D01*
X1859516Y1555158D01*
X1859516Y1546158D01*
X1857716Y1537258D01*
X1854116Y1531858D01*
X1848815Y1530059D01*
X1845216Y1530059D01*
X1839816Y1531858D01*
X1838015Y1535459D01*
X1871315Y1567658D02*
G01*
X1871315Y1530059D01*
X1871315Y1567658D02*
G01*
X1883815Y1567658D01*
X1889215Y1565859D01*
X1892816Y1562359D01*
X1894615Y1558759D01*
X1896415Y1553359D01*
X1896415Y1544459D01*
X1894615Y1539059D01*
X1892816Y1535459D01*
X1889215Y1531858D01*
X1883815Y1530059D01*
X1871315Y1530059D01*
X1933216Y1562359D02*
G01*
X1929715Y1565859D01*
X1924315Y1567658D01*
X1917115Y1567658D01*
X1911815Y1565859D01*
X1908216Y1562359D01*
X1908216Y1558759D01*
X1910015Y1555158D01*
X1911815Y1553359D01*
X1915316Y1551559D01*
X1926116Y1547959D01*
X1929715Y1546158D01*
X1931415Y1544459D01*
X1933216Y1540859D01*
X1933216Y1535459D01*
X1929715Y1531858D01*
X1924315Y1530059D01*
X1917115Y1530059D01*
X1911815Y1531858D01*
X1908216Y1535459D01*
X1945015Y1560558D02*
G01*
X1948616Y1562359D01*
X1954016Y1567658D01*
X1954016Y1530059D01*
D13*
X1213293Y1743701D02*
G01*
X1183193Y1743701D01*
X1213293Y1743701D02*
G01*
X1213293Y1733701D01*
X1211893Y1729400D01*
X1208993Y1726601D01*
X1206093Y1725100D01*
X1201792Y1723701D01*
X1194692Y1723701D01*
X1190393Y1725100D01*
X1187493Y1726601D01*
X1184692Y1729400D01*
X1183193Y1733701D01*
X1183193Y1743701D01*
X1213293Y1705700D02*
G01*
X1211893Y1708501D01*
X1208993Y1711401D01*
X1206093Y1712800D01*
X1201792Y1714200D01*
X1194692Y1714200D01*
X1190393Y1712800D01*
X1187493Y1711401D01*
X1184692Y1708501D01*
X1183193Y1705700D01*
X1183193Y1699900D01*
X1184692Y1697100D01*
X1187493Y1694200D01*
X1190393Y1692800D01*
X1194692Y1691300D01*
X1201792Y1691300D01*
X1206093Y1692800D01*
X1208993Y1694200D01*
X1211893Y1697100D01*
X1213293Y1699900D01*
X1213293Y1705700D01*
X1213293Y1681900D02*
G01*
X1183193Y1681900D01*
X1213293Y1681900D02*
G01*
X1183193Y1670401D01*
X1213293Y1659000D02*
G01*
X1183193Y1670401D01*
X1213293Y1659000D02*
G01*
X1183193Y1659000D01*
X1308993Y1723701D02*
G01*
X1311893Y1726601D01*
X1313293Y1730900D01*
X1313293Y1736601D01*
X1311893Y1740900D01*
X1308993Y1743701D01*
X1306093Y1743701D01*
X1303293Y1742301D01*
X1301792Y1740900D01*
X1300393Y1738000D01*
X1297493Y1729400D01*
X1296093Y1726601D01*
X1294692Y1725100D01*
X1291792Y1723701D01*
X1287493Y1723701D01*
X1284692Y1726601D01*
X1283193Y1730900D01*
X1283193Y1736601D01*
X1284692Y1740900D01*
X1287493Y1743701D01*
X1313293Y1714200D02*
G01*
X1283193Y1714200D01*
X1313293Y1714200D02*
G01*
X1313293Y1704200D01*
X1311893Y1699900D01*
X1308993Y1697100D01*
X1306093Y1695601D01*
X1301792Y1694200D01*
X1294692Y1694200D01*
X1290393Y1695601D01*
X1287493Y1697100D01*
X1284692Y1699900D01*
X1283193Y1704200D01*
X1283193Y1714200D01*
X1313293Y1676201D02*
G01*
X1311893Y1679000D01*
X1308993Y1681900D01*
X1306093Y1683301D01*
X1301792Y1684801D01*
X1294692Y1684801D01*
X1290393Y1683301D01*
X1287493Y1681900D01*
X1284692Y1679000D01*
X1283193Y1676201D01*
X1283193Y1670401D01*
X1284692Y1667600D01*
X1287493Y1664701D01*
X1290393Y1663301D01*
X1294692Y1661801D01*
X1301792Y1661801D01*
X1306093Y1663301D01*
X1308993Y1664701D01*
X1311893Y1667600D01*
X1313293Y1670401D01*
X1313293Y1676201D01*
X1313293Y1640900D02*
G01*
X1283193Y1652400D01*
X1313293Y1640900D02*
G01*
X1283193Y1629501D01*
X1293193Y1648101D02*
G01*
X1293193Y1633800D01*
X1306093Y1598600D02*
G01*
X1308993Y1600001D01*
X1311893Y1602901D01*
X1313293Y1605700D01*
X1313293Y1611500D01*
X1311893Y1614301D01*
X1308993Y1617201D01*
X1306093Y1618600D01*
X1301792Y1620001D01*
X1294692Y1620001D01*
X1290393Y1618600D01*
X1287493Y1617201D01*
X1284692Y1614301D01*
X1283193Y1611500D01*
X1283193Y1605700D01*
X1284692Y1602901D01*
X1287493Y1600001D01*
X1290393Y1598600D01*
X1294692Y1598600D01*
X1294692Y1605700D02*
G01*
X1294692Y1598600D01*
X1506093Y1722301D02*
G01*
X1508993Y1723701D01*
X1511893Y1726601D01*
X1513293Y1729400D01*
X1513293Y1735100D01*
X1511893Y1738000D01*
X1508993Y1740900D01*
X1506093Y1742301D01*
X1501792Y1743701D01*
X1494692Y1743701D01*
X1490393Y1742301D01*
X1487493Y1740900D01*
X1484692Y1738000D01*
X1483193Y1735100D01*
X1483193Y1729400D01*
X1484692Y1726601D01*
X1487493Y1723701D01*
X1490393Y1722301D01*
X1508993Y1692800D02*
G01*
X1511893Y1695601D01*
X1513293Y1699900D01*
X1513293Y1705700D01*
X1511893Y1710001D01*
X1508993Y1712800D01*
X1506093Y1712800D01*
X1503293Y1711401D01*
X1501792Y1710001D01*
X1500393Y1707100D01*
X1497493Y1698501D01*
X1496093Y1695601D01*
X1494692Y1694200D01*
X1491792Y1692800D01*
X1487493Y1692800D01*
X1484692Y1695601D01*
X1483193Y1699900D01*
X1483193Y1705700D01*
X1484692Y1710001D01*
X1487493Y1712800D01*
X1513293Y1671900D02*
G01*
X1483193Y1683301D01*
X1513293Y1671900D02*
G01*
X1483193Y1660401D01*
X1493193Y1679000D02*
G01*
X1493193Y1664701D01*
X1506093Y1629501D02*
G01*
X1508993Y1630900D01*
X1511893Y1633800D01*
X1513293Y1636700D01*
X1513293Y1642400D01*
X1511893Y1645201D01*
X1508993Y1648101D01*
X1506093Y1649501D01*
X1501792Y1651001D01*
X1494692Y1651001D01*
X1490393Y1649501D01*
X1487493Y1648101D01*
X1484692Y1645201D01*
X1483193Y1642400D01*
X1483193Y1636700D01*
X1484692Y1633800D01*
X1487493Y1630900D01*
X1490393Y1629501D01*
X1494692Y1629501D01*
X1494692Y1636700D02*
G01*
X1494692Y1629501D01*
X1406093Y1722301D02*
G01*
X1408993Y1723701D01*
X1411893Y1726601D01*
X1413293Y1729400D01*
X1413293Y1735100D01*
X1411893Y1738000D01*
X1408993Y1740900D01*
X1406093Y1742301D01*
X1401792Y1743701D01*
X1394692Y1743701D01*
X1390393Y1742301D01*
X1387493Y1740900D01*
X1384692Y1738000D01*
X1383193Y1735100D01*
X1383193Y1729400D01*
X1384692Y1726601D01*
X1387493Y1723701D01*
X1390393Y1722301D01*
X1408993Y1692800D02*
G01*
X1411893Y1695601D01*
X1413293Y1699900D01*
X1413293Y1705700D01*
X1411893Y1710001D01*
X1408993Y1712800D01*
X1406093Y1712800D01*
X1403293Y1711401D01*
X1401792Y1710001D01*
X1400393Y1707100D01*
X1397493Y1698501D01*
X1396093Y1695601D01*
X1394692Y1694200D01*
X1391792Y1692800D01*
X1387493Y1692800D01*
X1384692Y1695601D01*
X1383193Y1699900D01*
X1383193Y1705700D01*
X1384692Y1710001D01*
X1387493Y1712800D01*
X1413293Y1683301D02*
G01*
X1383193Y1683301D01*
X1413293Y1683301D02*
G01*
X1383193Y1671900D01*
X1413293Y1660401D02*
G01*
X1383193Y1671900D01*
X1413293Y1660401D02*
G01*
X1383193Y1660401D01*
X1608993Y1723701D02*
G01*
X1611893Y1726601D01*
X1613293Y1730900D01*
X1613293Y1736601D01*
X1611893Y1740900D01*
X1608993Y1743701D01*
X1606093Y1743701D01*
X1603293Y1742301D01*
X1601792Y1740900D01*
X1600393Y1738000D01*
X1597493Y1729400D01*
X1596093Y1726601D01*
X1594692Y1725100D01*
X1591792Y1723701D01*
X1587493Y1723701D01*
X1584692Y1726601D01*
X1583193Y1730900D01*
X1583193Y1736601D01*
X1584692Y1740900D01*
X1587493Y1743701D01*
X1613293Y1714200D02*
G01*
X1583193Y1714200D01*
X1613293Y1714200D02*
G01*
X1613293Y1704200D01*
X1611893Y1699900D01*
X1608993Y1697100D01*
X1606093Y1695601D01*
X1601792Y1694200D01*
X1594692Y1694200D01*
X1590393Y1695601D01*
X1587493Y1697100D01*
X1584692Y1699900D01*
X1583193Y1704200D01*
X1583193Y1714200D01*
X1613293Y1673301D02*
G01*
X1583193Y1684801D01*
X1613293Y1673301D02*
G01*
X1583193Y1661801D01*
X1593193Y1680500D02*
G01*
X1593193Y1666100D01*
X1708993Y1723701D02*
G01*
X1711893Y1726601D01*
X1713293Y1730900D01*
X1713293Y1736601D01*
X1711893Y1740900D01*
X1708993Y1743701D01*
X1706093Y1743701D01*
X1703293Y1742301D01*
X1701792Y1740900D01*
X1700393Y1738000D01*
X1697493Y1729400D01*
X1696093Y1726601D01*
X1694692Y1725100D01*
X1691792Y1723701D01*
X1687493Y1723701D01*
X1684692Y1726601D01*
X1683193Y1730900D01*
X1683193Y1736601D01*
X1684692Y1740900D01*
X1687493Y1743701D01*
X1706093Y1692800D02*
G01*
X1708993Y1694200D01*
X1711893Y1697100D01*
X1713293Y1699900D01*
X1713293Y1705700D01*
X1711893Y1708501D01*
X1708993Y1711401D01*
X1706093Y1712800D01*
X1701792Y1714200D01*
X1694692Y1714200D01*
X1690393Y1712800D01*
X1687493Y1711401D01*
X1684692Y1708501D01*
X1683193Y1705700D01*
X1683193Y1699900D01*
X1684692Y1697100D01*
X1687493Y1694200D01*
X1690393Y1692800D01*
X1713293Y1683301D02*
G01*
X1683193Y1683301D01*
X1683193Y1683301D02*
G01*
X1683193Y1666100D01*
X1806093Y1722301D02*
G01*
X1808993Y1723701D01*
X1811792Y1726601D01*
X1813293Y1729400D01*
X1813293Y1735100D01*
X1811792Y1738000D01*
X1808993Y1740900D01*
X1806093Y1742301D01*
X1801792Y1743701D01*
X1794692Y1743701D01*
X1790393Y1742301D01*
X1787493Y1740900D01*
X1784593Y1738000D01*
X1783193Y1735100D01*
X1783193Y1729400D01*
X1784593Y1726601D01*
X1787493Y1723701D01*
X1790393Y1722301D01*
X1794692Y1722301D01*
X1794692Y1729400D02*
G01*
X1794692Y1722301D01*
X1813293Y1712800D02*
G01*
X1783193Y1712800D01*
X1813293Y1712800D02*
G01*
X1783193Y1692800D01*
X1813293Y1692800D02*
G01*
X1783193Y1692800D01*
X1813293Y1683301D02*
G01*
X1783193Y1683301D01*
X1813293Y1683301D02*
G01*
X1813293Y1673301D01*
X1811792Y1669000D01*
X1808993Y1666100D01*
X1806093Y1664701D01*
X1801792Y1663301D01*
X1794692Y1663301D01*
X1790393Y1664701D01*
X1787493Y1666100D01*
X1784593Y1669000D01*
X1783193Y1673301D01*
X1783193Y1683301D01*
X1913293Y1740900D02*
G01*
X1913293Y1725100D01*
X1901792Y1733701D01*
X1901792Y1729400D01*
X1900393Y1726601D01*
X1898993Y1725100D01*
X1894692Y1723701D01*
X1891792Y1723701D01*
X1887493Y1725100D01*
X1884593Y1728000D01*
X1883193Y1732301D01*
X1883193Y1736601D01*
X1884593Y1740900D01*
X1886093Y1742301D01*
X1888892Y1743701D01*
X1913293Y1714200D02*
G01*
X1883193Y1702800D01*
X1913293Y1691300D02*
G01*
X1883193Y1702800D01*
X2013293Y1743701D02*
G01*
X1983193Y1732301D01*
X2013293Y1720801D02*
G01*
X1983193Y1732301D01*
X2013293Y1711401D02*
G01*
X2011792Y1710001D01*
X2013293Y1708501D01*
X2014692Y1710001D01*
X2013293Y1711401D01*
X2003293Y1710001D02*
G01*
X1983193Y1710001D01*
X2003293Y1699101D02*
G01*
X1983193Y1699101D01*
X1997493Y1699101D02*
G01*
X2001792Y1694801D01*
X2003293Y1691900D01*
X2003293Y1687600D01*
X2001792Y1684801D01*
X1997493Y1683301D01*
X1983193Y1683301D01*
X1415020Y1464528D02*
G01*
X1384920Y1464528D01*
X1415020Y1464528D02*
G01*
X1415020Y1454427D01*
X1413519Y1450127D01*
X1410720Y1447328D01*
X1407820Y1445828D01*
X1403519Y1444427D01*
X1396319Y1444427D01*
X1392020Y1445828D01*
X1389219Y1447328D01*
X1386319Y1450127D01*
X1384920Y1454427D01*
X1384920Y1464528D01*
X1415020Y1435028D02*
G01*
X1384920Y1435028D01*
X1415020Y1435028D02*
G01*
X1415020Y1422127D01*
X1413519Y1417827D01*
X1412120Y1416428D01*
X1409219Y1414928D01*
X1406419Y1414928D01*
X1403519Y1416428D01*
X1402120Y1417827D01*
X1400619Y1422127D01*
X1400619Y1435028D01*
X1400619Y1424928D02*
G01*
X1384920Y1414928D01*
X1415020Y1405527D02*
G01*
X1384920Y1405527D01*
X1415020Y1405527D02*
G01*
X1415020Y1395527D01*
X1413519Y1391228D01*
X1410720Y1388328D01*
X1407820Y1386927D01*
X1403519Y1385428D01*
X1396319Y1385428D01*
X1392020Y1386927D01*
X1389219Y1388328D01*
X1386319Y1391228D01*
X1384920Y1395527D01*
X1384920Y1405527D01*
X1415020Y1376028D02*
G01*
X1400619Y1364528D01*
X1384920Y1364528D01*
X1415020Y1353128D02*
G01*
X1400619Y1364528D01*
X1515020Y1444528D02*
G01*
X1484920Y1444528D01*
X1515020Y1435028D02*
G01*
X1484920Y1435028D01*
X1515020Y1435028D02*
G01*
X1484920Y1415028D01*
X1515020Y1415028D02*
G01*
X1484920Y1415028D01*
X1515020Y1395527D02*
G01*
X1484920Y1395527D01*
X1515020Y1405527D02*
G01*
X1515020Y1385527D01*
X1515020Y1376028D02*
G01*
X1484920Y1376028D01*
X1515020Y1376028D02*
G01*
X1484920Y1364627D01*
X1515020Y1353128D02*
G01*
X1484920Y1364627D01*
X1515020Y1353128D02*
G01*
X1484920Y1353128D01*
X1614920Y1428726D02*
G01*
X1584920Y1428726D01*
X1614920Y1419227D02*
G01*
X1584920Y1419227D01*
X1614920Y1419227D02*
G01*
X1584920Y1399227D01*
X1614920Y1399227D02*
G01*
X1584920Y1399227D01*
X1614920Y1379726D02*
G01*
X1584920Y1379726D01*
X1614920Y1389726D02*
G01*
X1614920Y1369726D01*
X1609219Y1360226D02*
G01*
X1610619Y1357426D01*
X1614920Y1353126D01*
X1584920Y1353126D01*
X1714920Y1441626D02*
G01*
X1684920Y1441626D01*
X1714920Y1432125D02*
G01*
X1684920Y1432125D01*
X1714920Y1432125D02*
G01*
X1684920Y1412125D01*
X1714920Y1412125D02*
G01*
X1684920Y1412125D01*
X1714920Y1392626D02*
G01*
X1684920Y1392626D01*
X1714920Y1402626D02*
G01*
X1714920Y1382626D01*
X1707820Y1371725D02*
G01*
X1709219Y1371725D01*
X1712120Y1370326D01*
X1713519Y1368825D01*
X1714920Y1366026D01*
X1714920Y1360225D01*
X1713519Y1357426D01*
X1712120Y1355925D01*
X1709219Y1354526D01*
X1706419Y1354526D01*
X1703519Y1355925D01*
X1699219Y1358825D01*
X1684920Y1373126D01*
X1684920Y1353126D01*
X1814920Y1430727D02*
G01*
X1784920Y1430727D01*
X1814920Y1430727D02*
G01*
X1814920Y1420727D01*
X1813519Y1416426D01*
X1810619Y1413526D01*
X1807820Y1412127D01*
X1803519Y1410727D01*
X1796319Y1410727D01*
X1792020Y1412127D01*
X1789219Y1413526D01*
X1786319Y1416426D01*
X1784920Y1420727D01*
X1784920Y1430727D01*
X1814920Y1401226D02*
G01*
X1784920Y1401226D01*
X1814920Y1401226D02*
G01*
X1814920Y1382627D01*
X1800619Y1401226D02*
G01*
X1800619Y1389827D01*
X1784920Y1401226D02*
G01*
X1784920Y1382627D01*
X1814920Y1373227D02*
G01*
X1784920Y1373227D01*
X1814920Y1373227D02*
G01*
X1784920Y1353126D01*
X1814920Y1353126D02*
G01*
X1784920Y1353126D01*
D10*
X-5399Y1700000D02*
G01*
X25300Y1700000D01*
X31399Y1701999D01*
X35500Y1706100D01*
X37500Y1712300D01*
X37500Y1716399D01*
X35500Y1722500D01*
X31399Y1726599D01*
X25300Y1728600D01*
X-5399Y1728600D01*
X2800Y1742100D02*
G01*
X700Y1746199D01*
X-5399Y1752399D01*
X37500Y1752399D01*
X-5399Y1790399D02*
G01*
X-5399Y1770000D01*
X13000Y1767899D01*
X10999Y1770000D01*
X8899Y1776100D01*
X8899Y1782199D01*
X10999Y1788400D01*
X15000Y1792500D01*
X21199Y1794499D01*
X25300Y1794499D01*
X31399Y1792500D01*
X35500Y1788400D01*
X37500Y1782199D01*
X37500Y1776100D01*
X35500Y1770000D01*
X33499Y1767899D01*
X29400Y1765900D01*
D12*
X888883Y1682341D02*
G01*
X903184Y1719940D01*
X888883Y1682341D02*
G01*
X874584Y1719940D01*
X897884Y1707341D02*
G01*
X879984Y1707341D01*
X841283Y1682341D02*
G01*
X841283Y1719940D01*
X841283Y1700241D02*
G01*
X844884Y1696640D01*
X848483Y1694841D01*
X853783Y1694841D01*
X857384Y1696640D01*
X860983Y1700241D01*
X862784Y1705540D01*
X862784Y1709140D01*
X860983Y1714540D01*
X857384Y1718141D01*
X853783Y1719940D01*
X848483Y1719940D01*
X844884Y1718141D01*
X841283Y1714540D01*
X807983Y1694841D02*
G01*
X807983Y1719940D01*
X807983Y1700241D02*
G01*
X811584Y1696640D01*
X815183Y1694841D01*
X820583Y1694841D01*
X824084Y1696640D01*
X827683Y1700241D01*
X829484Y1705540D01*
X829484Y1709140D01*
X827683Y1714540D01*
X824084Y1718141D01*
X820583Y1719940D01*
X815183Y1719940D01*
X811584Y1718141D01*
X807983Y1714540D01*
X781884Y1682341D02*
G01*
X785483Y1682341D01*
X789084Y1684140D01*
X790883Y1689441D01*
X790883Y1719940D01*
X796184Y1694841D02*
G01*
X783684Y1694841D01*
X770083Y1694841D02*
G01*
X770083Y1719940D01*
X770083Y1705540D02*
G01*
X768284Y1700241D01*
X764683Y1696640D01*
X761084Y1694841D01*
X755783Y1694841D01*
X743984Y1694841D02*
G01*
X743984Y1712741D01*
X742184Y1718141D01*
X738584Y1719940D01*
X733184Y1719940D01*
X729684Y1718141D01*
X724283Y1712741D01*
X724283Y1694841D02*
G01*
X724283Y1719940D01*
X712483Y1682341D02*
G01*
X710684Y1684140D01*
X708883Y1682341D01*
X710684Y1680540D01*
X712483Y1682341D01*
X710684Y1694841D02*
G01*
X710684Y1719940D01*
X691684Y1682341D02*
G01*
X691684Y1712741D01*
X689884Y1718141D01*
X686284Y1719940D01*
X682784Y1719940D01*
X697083Y1694841D02*
G01*
X684583Y1694841D01*
X620084Y1694841D02*
G01*
X621884Y1700241D01*
X625484Y1703841D01*
X630884Y1705540D01*
X632683Y1705540D01*
X637984Y1703841D01*
X641583Y1700241D01*
X643384Y1694841D01*
X643384Y1693040D01*
X641583Y1687640D01*
X637984Y1684140D01*
X632683Y1682341D01*
X630884Y1682341D01*
X625484Y1684140D01*
X621884Y1687640D01*
X620084Y1694841D01*
X620084Y1703841D01*
X621884Y1712741D01*
X625484Y1718141D01*
X630884Y1719940D01*
X634384Y1719940D01*
X639783Y1718141D01*
X641583Y1714540D01*
X608283Y1703841D02*
G01*
X576084Y1703841D01*
X564283Y1682341D02*
G01*
X564283Y1719940D01*
X564283Y1682341D02*
G01*
X551783Y1682341D01*
X546383Y1684140D01*
X542784Y1687640D01*
X540983Y1691241D01*
X539184Y1696640D01*
X539184Y1705540D01*
X540983Y1710940D01*
X542784Y1714540D01*
X546383Y1718141D01*
X551783Y1719940D01*
X564283Y1719940D01*
X516684Y1682341D02*
G01*
X520284Y1684140D01*
X523883Y1687640D01*
X525583Y1691241D01*
X527384Y1696640D01*
X527384Y1705540D01*
X525583Y1710940D01*
X523883Y1714540D01*
X520284Y1718141D01*
X516684Y1719940D01*
X509484Y1719940D01*
X505983Y1718141D01*
X502384Y1714540D01*
X500583Y1710940D01*
X498784Y1705540D01*
X498784Y1696640D01*
X500583Y1691241D01*
X502384Y1687640D01*
X505983Y1684140D01*
X509484Y1682341D01*
X516684Y1682341D01*
X486984Y1682341D02*
G01*
X486984Y1719940D01*
X486984Y1682341D02*
G01*
X463683Y1682341D01*
X486984Y1700241D02*
G01*
X472683Y1700241D01*
X424384Y1682341D02*
G01*
X424384Y1719940D01*
X424384Y1719940D02*
G01*
X402883Y1719940D01*
X365983Y1687640D02*
G01*
X369583Y1684140D01*
X374983Y1682341D01*
X382083Y1682341D01*
X387483Y1684140D01*
X391084Y1687640D01*
X391084Y1691241D01*
X389283Y1694841D01*
X387483Y1696640D01*
X383883Y1698440D01*
X373184Y1702040D01*
X369583Y1703841D01*
X367784Y1705540D01*
X365983Y1709140D01*
X365983Y1714540D01*
X369583Y1718141D01*
X374983Y1719940D01*
X382083Y1719940D01*
X387483Y1718141D01*
X391084Y1714540D01*
X354184Y1682341D02*
G01*
X354184Y1719940D01*
X354184Y1682341D02*
G01*
X339884Y1719940D01*
X325583Y1682341D02*
G01*
X339884Y1719940D01*
X325583Y1682341D02*
G01*
X325583Y1719940D01*
X290484Y1694841D02*
G01*
X292283Y1700241D01*
X295884Y1703841D01*
X301183Y1705540D01*
X302984Y1705540D01*
X308384Y1703841D01*
X311984Y1700241D01*
X313784Y1694841D01*
X313784Y1693040D01*
X311984Y1687640D01*
X308384Y1684140D01*
X302984Y1682341D01*
X301183Y1682341D01*
X295884Y1684140D01*
X292283Y1687640D01*
X290484Y1694841D01*
X290484Y1703841D01*
X292283Y1712741D01*
X295884Y1718141D01*
X301183Y1719940D01*
X304783Y1719940D01*
X310183Y1718141D01*
X311984Y1714540D01*
X278683Y1682341D02*
G01*
X278683Y1719940D01*
X278683Y1682341D02*
G01*
X266183Y1682341D01*
X260783Y1684140D01*
X257184Y1687640D01*
X255383Y1691241D01*
X253584Y1696640D01*
X253584Y1705540D01*
X255383Y1710940D01*
X257184Y1714540D01*
X260783Y1718141D01*
X266183Y1719940D01*
X278683Y1719940D01*
X216783Y1687640D02*
G01*
X220284Y1684140D01*
X225684Y1682341D01*
X232883Y1682341D01*
X238184Y1684140D01*
X241783Y1687640D01*
X241783Y1691241D01*
X239983Y1694841D01*
X238184Y1696640D01*
X234684Y1698440D01*
X223883Y1702040D01*
X220284Y1703841D01*
X218584Y1705540D01*
X216783Y1709140D01*
X216783Y1714540D01*
X220284Y1718141D01*
X225684Y1719940D01*
X232883Y1719940D01*
X238184Y1718141D01*
X241783Y1714540D01*
X204983Y1689441D02*
G01*
X201383Y1687640D01*
X195983Y1682341D01*
X195983Y1719940D01*
D13*
X936706Y1506298D02*
G01*
X966806Y1506298D01*
X936706Y1506298D02*
G01*
X936706Y1516298D01*
X938107Y1520599D01*
X941006Y1523398D01*
X943906Y1524899D01*
X948207Y1526298D01*
X955307Y1526298D01*
X959606Y1524899D01*
X962506Y1523398D01*
X965307Y1520599D01*
X966806Y1516298D01*
X966806Y1506298D01*
X936706Y1544299D02*
G01*
X938107Y1541498D01*
X941006Y1538598D01*
X943906Y1537199D01*
X948207Y1535799D01*
X955307Y1535799D01*
X959606Y1537199D01*
X962506Y1538598D01*
X965307Y1541498D01*
X966806Y1544299D01*
X966806Y1550099D01*
X965307Y1552899D01*
X962506Y1555799D01*
X959606Y1557199D01*
X955307Y1558699D01*
X948207Y1558699D01*
X943906Y1557199D01*
X941006Y1555799D01*
X938107Y1552899D01*
X936706Y1550099D01*
X936706Y1544299D01*
X936706Y1568099D02*
G01*
X966806Y1568099D01*
X936706Y1568099D02*
G01*
X966806Y1579598D01*
X936706Y1590999D02*
G01*
X966806Y1579598D01*
X936706Y1590999D02*
G01*
X966806Y1590999D01*
X841006Y1526298D02*
G01*
X838107Y1523398D01*
X836706Y1519099D01*
X836706Y1513398D01*
X838107Y1509099D01*
X841006Y1506298D01*
X843906Y1506298D01*
X846706Y1507698D01*
X848207Y1509099D01*
X849606Y1511999D01*
X852506Y1520599D01*
X853906Y1523398D01*
X855307Y1524899D01*
X858207Y1526298D01*
X862506Y1526298D01*
X865307Y1523398D01*
X866806Y1519099D01*
X866806Y1513398D01*
X865307Y1509099D01*
X862506Y1506298D01*
X836706Y1535799D02*
G01*
X866806Y1535799D01*
X836706Y1535799D02*
G01*
X836706Y1545799D01*
X838107Y1550099D01*
X841006Y1552899D01*
X843906Y1554398D01*
X848207Y1555799D01*
X855307Y1555799D01*
X859606Y1554398D01*
X862506Y1552899D01*
X865307Y1550099D01*
X866806Y1545799D01*
X866806Y1535799D01*
X836706Y1573798D02*
G01*
X838107Y1570999D01*
X841006Y1568099D01*
X843906Y1566698D01*
X848207Y1565198D01*
X855307Y1565198D01*
X859606Y1566698D01*
X862506Y1568099D01*
X865307Y1570999D01*
X866806Y1573798D01*
X866806Y1579598D01*
X865307Y1582399D01*
X862506Y1585299D01*
X859606Y1586698D01*
X855307Y1588198D01*
X848207Y1588198D01*
X843906Y1586698D01*
X841006Y1585299D01*
X838107Y1582399D01*
X836706Y1579598D01*
X836706Y1573798D01*
X836706Y1609099D02*
G01*
X866806Y1597599D01*
X836706Y1609099D02*
G01*
X866806Y1620498D01*
X856806Y1601898D02*
G01*
X856806Y1616199D01*
X843906Y1651399D02*
G01*
X841006Y1649998D01*
X838107Y1647098D01*
X836706Y1644299D01*
X836706Y1638499D01*
X838107Y1635698D01*
X841006Y1632799D01*
X843906Y1631399D01*
X848207Y1629998D01*
X855307Y1629998D01*
X859606Y1631399D01*
X862506Y1632799D01*
X865307Y1635698D01*
X866806Y1638499D01*
X866806Y1644299D01*
X865307Y1647098D01*
X862506Y1649998D01*
X859606Y1651399D01*
X855307Y1651399D01*
X855307Y1644299D02*
G01*
X855307Y1651399D01*
X643906Y1527698D02*
G01*
X641006Y1526298D01*
X638107Y1523398D01*
X636707Y1520599D01*
X636707Y1514899D01*
X638107Y1511999D01*
X641006Y1509099D01*
X643906Y1507698D01*
X648207Y1506298D01*
X655306Y1506298D01*
X659607Y1507698D01*
X662507Y1509099D01*
X665306Y1511999D01*
X666806Y1514899D01*
X666806Y1520599D01*
X665306Y1523398D01*
X662507Y1526298D01*
X659607Y1527698D01*
X641006Y1557199D02*
G01*
X638107Y1554398D01*
X636707Y1550099D01*
X636707Y1544299D01*
X638107Y1539998D01*
X641006Y1537199D01*
X643906Y1537199D01*
X646707Y1538598D01*
X648207Y1539998D01*
X649607Y1542899D01*
X652507Y1551498D01*
X653906Y1554398D01*
X655306Y1555799D01*
X658207Y1557199D01*
X662507Y1557199D01*
X665306Y1554398D01*
X666806Y1550099D01*
X666806Y1544299D01*
X665306Y1539998D01*
X662507Y1537199D01*
X636707Y1578099D02*
G01*
X666806Y1566698D01*
X636707Y1578099D02*
G01*
X666806Y1589598D01*
X656806Y1570999D02*
G01*
X656806Y1585299D01*
X643906Y1620498D02*
G01*
X641006Y1619099D01*
X638107Y1616199D01*
X636707Y1613299D01*
X636707Y1607599D01*
X638107Y1604798D01*
X641006Y1601898D01*
X643906Y1600498D01*
X648207Y1598998D01*
X655306Y1598998D01*
X659607Y1600498D01*
X662507Y1601898D01*
X665306Y1604798D01*
X666806Y1607599D01*
X666806Y1613299D01*
X665306Y1616199D01*
X662507Y1619099D01*
X659607Y1620498D01*
X655306Y1620498D01*
X655306Y1613299D02*
G01*
X655306Y1620498D01*
X743906Y1527698D02*
G01*
X741006Y1526298D01*
X738107Y1523398D01*
X736707Y1520599D01*
X736707Y1514899D01*
X738107Y1511999D01*
X741006Y1509099D01*
X743906Y1507698D01*
X748207Y1506298D01*
X755306Y1506298D01*
X759607Y1507698D01*
X762506Y1509099D01*
X765307Y1511999D01*
X766806Y1514899D01*
X766806Y1520599D01*
X765307Y1523398D01*
X762506Y1526298D01*
X759607Y1527698D01*
X741006Y1557199D02*
G01*
X738107Y1554398D01*
X736707Y1550099D01*
X736707Y1544299D01*
X738107Y1539998D01*
X741006Y1537199D01*
X743906Y1537199D01*
X746707Y1538598D01*
X748207Y1539998D01*
X749607Y1542899D01*
X752507Y1551498D01*
X753906Y1554398D01*
X755306Y1555799D01*
X758207Y1557199D01*
X762506Y1557199D01*
X765307Y1554398D01*
X766806Y1550099D01*
X766806Y1544299D01*
X765307Y1539998D01*
X762506Y1537199D01*
X736707Y1566698D02*
G01*
X766806Y1566698D01*
X736707Y1566698D02*
G01*
X766806Y1578099D01*
X736707Y1589598D02*
G01*
X766806Y1578099D01*
X736707Y1589598D02*
G01*
X766806Y1589598D01*
X541006Y1526298D02*
G01*
X538107Y1523398D01*
X536707Y1519099D01*
X536707Y1513398D01*
X538107Y1509099D01*
X541006Y1506298D01*
X543906Y1506298D01*
X546707Y1507698D01*
X548207Y1509099D01*
X549607Y1511999D01*
X552507Y1520599D01*
X553906Y1523398D01*
X555306Y1524899D01*
X558207Y1526298D01*
X562507Y1526298D01*
X565306Y1523398D01*
X566806Y1519099D01*
X566806Y1513398D01*
X565306Y1509099D01*
X562507Y1506298D01*
X536707Y1535799D02*
G01*
X566806Y1535799D01*
X536707Y1535799D02*
G01*
X536707Y1545799D01*
X538107Y1550099D01*
X541006Y1552899D01*
X543906Y1554398D01*
X548207Y1555799D01*
X555306Y1555799D01*
X559607Y1554398D01*
X562507Y1552899D01*
X565306Y1550099D01*
X566806Y1545799D01*
X566806Y1535799D01*
X536707Y1576698D02*
G01*
X566806Y1565198D01*
X536707Y1576698D02*
G01*
X566806Y1588198D01*
X556806Y1569499D02*
G01*
X556806Y1583899D01*
X441006Y1526298D02*
G01*
X438107Y1523398D01*
X436707Y1519099D01*
X436707Y1513398D01*
X438107Y1509099D01*
X441006Y1506298D01*
X443906Y1506298D01*
X446707Y1507698D01*
X448207Y1509099D01*
X449607Y1511999D01*
X452507Y1520599D01*
X453906Y1523398D01*
X455306Y1524899D01*
X458207Y1526298D01*
X462507Y1526298D01*
X465306Y1523398D01*
X466806Y1519099D01*
X466806Y1513398D01*
X465306Y1509099D01*
X462507Y1506298D01*
X443906Y1557199D02*
G01*
X441006Y1555799D01*
X438107Y1552899D01*
X436707Y1550099D01*
X436707Y1544299D01*
X438107Y1541498D01*
X441006Y1538598D01*
X443906Y1537199D01*
X448207Y1535799D01*
X455306Y1535799D01*
X459607Y1537199D01*
X462507Y1538598D01*
X465306Y1541498D01*
X466806Y1544299D01*
X466806Y1550099D01*
X465306Y1552899D01*
X462507Y1555799D01*
X459607Y1557199D01*
X436707Y1566698D02*
G01*
X466806Y1566698D01*
X466806Y1566698D02*
G01*
X466806Y1583899D01*
X343906Y1527698D02*
G01*
X341006Y1526298D01*
X338207Y1523398D01*
X336707Y1520599D01*
X336707Y1514899D01*
X338207Y1511999D01*
X341006Y1509099D01*
X343906Y1507698D01*
X348207Y1506298D01*
X355306Y1506298D01*
X359607Y1507698D01*
X362507Y1509099D01*
X365407Y1511999D01*
X366806Y1514899D01*
X366806Y1520599D01*
X365407Y1523398D01*
X362507Y1526298D01*
X359607Y1527698D01*
X355306Y1527698D01*
X355306Y1520599D02*
G01*
X355306Y1527698D01*
X336707Y1537199D02*
G01*
X366806Y1537199D01*
X336707Y1537199D02*
G01*
X366806Y1557199D01*
X336707Y1557199D02*
G01*
X366806Y1557199D01*
X336707Y1566698D02*
G01*
X366806Y1566698D01*
X336707Y1566698D02*
G01*
X336707Y1576698D01*
X338207Y1580999D01*
X341006Y1583899D01*
X343906Y1585299D01*
X348207Y1586698D01*
X355306Y1586698D01*
X359607Y1585299D01*
X362507Y1583899D01*
X365407Y1580999D01*
X366806Y1576698D01*
X366806Y1566698D01*
X236707Y1509099D02*
G01*
X236707Y1524899D01*
X248207Y1516298D01*
X248207Y1520599D01*
X249607Y1523398D01*
X251006Y1524899D01*
X255306Y1526298D01*
X258207Y1526298D01*
X262507Y1524899D01*
X265407Y1521999D01*
X266806Y1517698D01*
X266806Y1513398D01*
X265407Y1509099D01*
X263906Y1507698D01*
X261107Y1506298D01*
X236707Y1535799D02*
G01*
X266806Y1547199D01*
X236707Y1558699D02*
G01*
X266806Y1547199D01*
X136707Y1506298D02*
G01*
X166806Y1517698D01*
X136707Y1529198D02*
G01*
X166806Y1517698D01*
X136707Y1538598D02*
G01*
X138207Y1539998D01*
X136707Y1541498D01*
X135306Y1539998D01*
X136707Y1538598D01*
X146707Y1539998D02*
G01*
X166806Y1539998D01*
X146707Y1550898D02*
G01*
X166806Y1550898D01*
X152507Y1550898D02*
G01*
X148207Y1555198D01*
X146707Y1558099D01*
X146707Y1562399D01*
X148207Y1565198D01*
X152507Y1566698D01*
X166806Y1566698D01*
X734980Y1785471D02*
G01*
X765079Y1785471D01*
X734980Y1785471D02*
G01*
X734980Y1795572D01*
X736480Y1799872D01*
X739279Y1802671D01*
X742179Y1804171D01*
X746480Y1805572D01*
X753679Y1805572D01*
X757979Y1804171D01*
X760780Y1802671D01*
X763680Y1799872D01*
X765079Y1795572D01*
X765079Y1785471D01*
X734980Y1814971D02*
G01*
X765079Y1814971D01*
X734980Y1814971D02*
G01*
X734980Y1827872D01*
X736480Y1832172D01*
X737880Y1833571D01*
X740779Y1835072D01*
X743580Y1835072D01*
X746480Y1833571D01*
X747880Y1832172D01*
X749380Y1827872D01*
X749380Y1814971D01*
X749380Y1825072D02*
G01*
X765079Y1835072D01*
X734980Y1844472D02*
G01*
X765079Y1844472D01*
X734980Y1844472D02*
G01*
X734980Y1854472D01*
X736480Y1858771D01*
X739279Y1861671D01*
X742179Y1863072D01*
X746480Y1864571D01*
X753679Y1864571D01*
X757979Y1863072D01*
X760780Y1861671D01*
X763680Y1858771D01*
X765079Y1854472D01*
X765079Y1844472D01*
X734980Y1873971D02*
G01*
X749380Y1885471D01*
X765079Y1885471D01*
X734980Y1896871D02*
G01*
X749380Y1885471D01*
X634980Y1805471D02*
G01*
X665079Y1805471D01*
X634980Y1814971D02*
G01*
X665079Y1814971D01*
X634980Y1814971D02*
G01*
X665079Y1834971D01*
X634980Y1834971D02*
G01*
X665079Y1834971D01*
X634980Y1854472D02*
G01*
X665079Y1854472D01*
X634980Y1844472D02*
G01*
X634980Y1864472D01*
X634980Y1873971D02*
G01*
X665079Y1873971D01*
X634980Y1873971D02*
G01*
X665079Y1885372D01*
X634980Y1896871D02*
G01*
X665079Y1885372D01*
X634980Y1896871D02*
G01*
X665079Y1896871D01*
X535079Y1821273D02*
G01*
X565079Y1821273D01*
X535079Y1830772D02*
G01*
X565079Y1830772D01*
X535079Y1830772D02*
G01*
X565079Y1850772D01*
X535079Y1850772D02*
G01*
X565079Y1850772D01*
X535079Y1870273D02*
G01*
X565079Y1870273D01*
X535079Y1860273D02*
G01*
X535079Y1880273D01*
X540779Y1889773D02*
G01*
X539380Y1892573D01*
X535079Y1896873D01*
X565079Y1896873D01*
X435079Y1808373D02*
G01*
X465079Y1808373D01*
X435079Y1817874D02*
G01*
X465079Y1817874D01*
X435079Y1817874D02*
G01*
X465079Y1837874D01*
X435079Y1837874D02*
G01*
X465079Y1837874D01*
X435079Y1857373D02*
G01*
X465079Y1857373D01*
X435079Y1847373D02*
G01*
X435079Y1867373D01*
X442179Y1878274D02*
G01*
X440779Y1878274D01*
X437880Y1879674D01*
X436480Y1881174D01*
X435079Y1883973D01*
X435079Y1889774D01*
X436480Y1892573D01*
X437880Y1894074D01*
X440779Y1895473D01*
X443580Y1895473D01*
X446480Y1894074D01*
X450779Y1891174D01*
X465079Y1876873D01*
X465079Y1896873D01*
X335079Y1819272D02*
G01*
X365079Y1819272D01*
X335079Y1819272D02*
G01*
X335079Y1829272D01*
X336480Y1833573D01*
X339380Y1836473D01*
X342179Y1837872D01*
X346480Y1839272D01*
X353679Y1839272D01*
X357979Y1837872D01*
X360779Y1836473D01*
X363679Y1833573D01*
X365079Y1829272D01*
X365079Y1819272D01*
X335079Y1848773D02*
G01*
X365079Y1848773D01*
X335079Y1848773D02*
G01*
X335079Y1867372D01*
X349380Y1848773D02*
G01*
X349380Y1860172D01*
X365079Y1848773D02*
G01*
X365079Y1867372D01*
X335079Y1876772D02*
G01*
X365079Y1876772D01*
X335079Y1876772D02*
G01*
X365079Y1896873D01*
X335079Y1896873D02*
G01*
X365079Y1896873D01*
D10*
X1860399Y455000D02*
G01*
X1829700Y455000D01*
X1823599Y453000D01*
X1819499Y448899D01*
X1817500Y442699D01*
X1817500Y438600D01*
X1819499Y432500D01*
X1823599Y428400D01*
X1829700Y426399D01*
X1860399Y426399D01*
X1860399Y392399D02*
G01*
X1831800Y412899D01*
X1831800Y382199D01*
X1860399Y392399D02*
G01*
X1817500Y392399D01*
D11*
X1520600Y665000D02*
G01*
X1444300Y665000D01*
X1520600Y665000D02*
G01*
X1520600Y632300D01*
X1516999Y621399D01*
X1513400Y617699D01*
X1506099Y614099D01*
X1498800Y614099D01*
X1491499Y617699D01*
X1487899Y621399D01*
X1484300Y632300D01*
X1484300Y665000D02*
G01*
X1484300Y632300D01*
X1480600Y621399D01*
X1476999Y617699D01*
X1469700Y614099D01*
X1458800Y614099D01*
X1451499Y617699D01*
X1447899Y621399D01*
X1444300Y632300D01*
X1444300Y665000D01*
X1520600Y590100D02*
G01*
X1444300Y590100D01*
X1520600Y590100D02*
G01*
X1444300Y560999D01*
X1520600Y531900D02*
G01*
X1444300Y560999D01*
X1520600Y531900D02*
G01*
X1444300Y531900D01*
X1520600Y507899D02*
G01*
X1444300Y507899D01*
X1520600Y507899D02*
G01*
X1520600Y475199D01*
X1516999Y464299D01*
X1513400Y460599D01*
X1506099Y456999D01*
X1495200Y456999D01*
X1487899Y460599D01*
X1484300Y464299D01*
X1480600Y475199D01*
X1480600Y507899D01*
X1520600Y425700D02*
G01*
X1520600Y385700D01*
X1491499Y407500D01*
X1491499Y396599D01*
X1487899Y389400D01*
X1484300Y385700D01*
X1473400Y382100D01*
X1466099Y382100D01*
X1455200Y385700D01*
X1447899Y393000D01*
X1444300Y403899D01*
X1444300Y414800D01*
X1447899Y425700D01*
X1451499Y429400D01*
X1458800Y433000D01*
X1520600Y339899D02*
G01*
X1516999Y350799D01*
X1509700Y354499D01*
X1502500Y354499D01*
X1495200Y350799D01*
X1491499Y343499D01*
X1487899Y329000D01*
X1484300Y318099D01*
X1476999Y310799D01*
X1469700Y307199D01*
X1458800Y307199D01*
X1451499Y310799D01*
X1447899Y314499D01*
X1444300Y325399D01*
X1444300Y339899D01*
X1447899Y350799D01*
X1451499Y354499D01*
X1458800Y358099D01*
X1469700Y358099D01*
X1476999Y354499D01*
X1484300Y347199D01*
X1487899Y336300D01*
X1491499Y321700D01*
X1495200Y314499D01*
X1502500Y310799D01*
X1509700Y310799D01*
X1516999Y314499D01*
X1520600Y325399D01*
X1520600Y339899D01*
X1520600Y265000D02*
G01*
X1516999Y275900D01*
X1509700Y279499D01*
X1502500Y279499D01*
X1495200Y275900D01*
X1491499Y268600D01*
X1487899Y254099D01*
X1484300Y243200D01*
X1476999Y235900D01*
X1469700Y232300D01*
X1458800Y232300D01*
X1451499Y235900D01*
X1447899Y239499D01*
X1444300Y250500D01*
X1444300Y265000D01*
X1447899Y275900D01*
X1451499Y279499D01*
X1458800Y283200D01*
X1469700Y283200D01*
X1476999Y279499D01*
X1484300Y272300D01*
X1487899Y261399D01*
X1491499Y246799D01*
X1495200Y239499D01*
X1502500Y235900D01*
X1509700Y235900D01*
X1516999Y239499D01*
X1520600Y250500D01*
X1520600Y265000D01*
D14*
X1195500Y611399D02*
G01*
X1197299Y612300D01*
X1199099Y614099D01*
X1200000Y615900D01*
X1200000Y619499D01*
X1199099Y621399D01*
X1197299Y623200D01*
X1195500Y624099D01*
X1192700Y625000D01*
X1188199Y625000D01*
X1185500Y624099D01*
X1183599Y623200D01*
X1181800Y621399D01*
X1180900Y619499D01*
X1180900Y615900D01*
X1181800Y614099D01*
X1183599Y612300D01*
X1185500Y611399D01*
X1188199Y611399D01*
X1188199Y615900D02*
G01*
X1188199Y611399D01*
X1200000Y605399D02*
G01*
X1180900Y605399D01*
X1200000Y605399D02*
G01*
X1180900Y592600D01*
X1200000Y592600D02*
G01*
X1180900Y592600D01*
X1200000Y586599D02*
G01*
X1180900Y586599D01*
X1200000Y586599D02*
G01*
X1200000Y580300D01*
X1199099Y577500D01*
X1197299Y575700D01*
X1195500Y574800D01*
X1192700Y573899D01*
X1188199Y573899D01*
X1185500Y574800D01*
X1183599Y575700D01*
X1181800Y577500D01*
X1180900Y580300D01*
X1180900Y586599D01*
X1200000Y820000D02*
G01*
X1180900Y812699D01*
X1200000Y805500D02*
G01*
X1180900Y812699D01*
X1200000Y799499D02*
G01*
X1180900Y799499D01*
X1200000Y793499D02*
G01*
X1180900Y793499D01*
X1200000Y793499D02*
G01*
X1180900Y780700D01*
X1200000Y780700D02*
G01*
X1180900Y780700D01*
X1200000Y713200D02*
G01*
X1200000Y703200D01*
X1192700Y708600D01*
X1192700Y705900D01*
X1191800Y704099D01*
X1190900Y703200D01*
X1188199Y702300D01*
X1186400Y702300D01*
X1183599Y703200D01*
X1181800Y705000D01*
X1180900Y707699D01*
X1180900Y710500D01*
X1181800Y713200D01*
X1182700Y714099D01*
X1184600Y715000D01*
X1200000Y696300D02*
G01*
X1180900Y689000D01*
X1200000Y681700D02*
G01*
X1180900Y689000D01*
X1197299Y512300D02*
G01*
X1199099Y514099D01*
X1200000Y516799D01*
X1200000Y520500D01*
X1199099Y523200D01*
X1197299Y525000D01*
X1195500Y525000D01*
X1193599Y524099D01*
X1192700Y523200D01*
X1191800Y521399D01*
X1190000Y515900D01*
X1189099Y514099D01*
X1188199Y513200D01*
X1186400Y512300D01*
X1183599Y512300D01*
X1181800Y514099D01*
X1180900Y516799D01*
X1180900Y520500D01*
X1181800Y523200D01*
X1183599Y525000D01*
X1195500Y492600D02*
G01*
X1197299Y493499D01*
X1199099Y495399D01*
X1200000Y497199D01*
X1200000Y500799D01*
X1199099Y502600D01*
X1197299Y504499D01*
X1195500Y505399D01*
X1192700Y506300D01*
X1188199Y506300D01*
X1185500Y505399D01*
X1183599Y504499D01*
X1181800Y502600D01*
X1180900Y500799D01*
X1180900Y497199D01*
X1181800Y495399D01*
X1183599Y493499D01*
X1185500Y492600D01*
X1200000Y486599D02*
G01*
X1180900Y486599D01*
X1200000Y473899D02*
G01*
X1187299Y486599D01*
X1191800Y482100D02*
G01*
X1180900Y473899D01*
X1197299Y412300D02*
G01*
X1199099Y414099D01*
X1200000Y416799D01*
X1200000Y420500D01*
X1199099Y423200D01*
X1197299Y425000D01*
X1195500Y425000D01*
X1193599Y424099D01*
X1192700Y423200D01*
X1191800Y421399D01*
X1190000Y415900D01*
X1189099Y414099D01*
X1188199Y413200D01*
X1186400Y412300D01*
X1183599Y412300D01*
X1181800Y414099D01*
X1180900Y416799D01*
X1180900Y420500D01*
X1181800Y423200D01*
X1183599Y425000D01*
X1200000Y406300D02*
G01*
X1180900Y406300D01*
X1200000Y406300D02*
G01*
X1200000Y399899D01*
X1199099Y397199D01*
X1197299Y395399D01*
X1195500Y394499D01*
X1192700Y393499D01*
X1188199Y393499D01*
X1185500Y394499D01*
X1183599Y395399D01*
X1181800Y397199D01*
X1180900Y399899D01*
X1180900Y406300D01*
X1200000Y382100D02*
G01*
X1199099Y383899D01*
X1197299Y385700D01*
X1195500Y386599D01*
X1192700Y387500D01*
X1188199Y387500D01*
X1185500Y386599D01*
X1183599Y385700D01*
X1181800Y383899D01*
X1180900Y382100D01*
X1180900Y378499D01*
X1181800Y376599D01*
X1183599Y374800D01*
X1185500Y373899D01*
X1188199Y373000D01*
X1192700Y373000D01*
X1195500Y373899D01*
X1197299Y374800D01*
X1199099Y376599D01*
X1200000Y378499D01*
X1200000Y382100D01*
X1197299Y307300D02*
G01*
X1199099Y309099D01*
X1200000Y311799D01*
X1200000Y315500D01*
X1199099Y318200D01*
X1197299Y320000D01*
X1195500Y320000D01*
X1193599Y319099D01*
X1192700Y318200D01*
X1191800Y316399D01*
X1190000Y310900D01*
X1189099Y309099D01*
X1188199Y308200D01*
X1186400Y307300D01*
X1183599Y307300D01*
X1181800Y309099D01*
X1180900Y311799D01*
X1180900Y315500D01*
X1181800Y318200D01*
X1183599Y320000D01*
X1200000Y301300D02*
G01*
X1180900Y301300D01*
X1200000Y301300D02*
G01*
X1200000Y294899D01*
X1199099Y292199D01*
X1197299Y290399D01*
X1195500Y289499D01*
X1192700Y288499D01*
X1188199Y288499D01*
X1185500Y289499D01*
X1183599Y290399D01*
X1181800Y292199D01*
X1180900Y294899D01*
X1180900Y301300D01*
X1200000Y282500D02*
G01*
X1180900Y282500D01*
X1195500Y201399D02*
G01*
X1197299Y202300D01*
X1199099Y204099D01*
X1200000Y205900D01*
X1200000Y209499D01*
X1199099Y211399D01*
X1197299Y213200D01*
X1195500Y214099D01*
X1192700Y215000D01*
X1188199Y215000D01*
X1185500Y214099D01*
X1183599Y213200D01*
X1181800Y211399D01*
X1180900Y209499D01*
X1180900Y205900D01*
X1181800Y204099D01*
X1183599Y202300D01*
X1185500Y201399D01*
X1197299Y182600D02*
G01*
X1199099Y184499D01*
X1200000Y187199D01*
X1200000Y190799D01*
X1199099Y193499D01*
X1197299Y195399D01*
X1195500Y195399D01*
X1193599Y194499D01*
X1192700Y193499D01*
X1191800Y191700D01*
X1190000Y186300D01*
X1189099Y184499D01*
X1188199Y183499D01*
X1186400Y182600D01*
X1183599Y182600D01*
X1181800Y184499D01*
X1180900Y187199D01*
X1180900Y190799D01*
X1181800Y193499D01*
X1183599Y195399D01*
X1200000Y115000D02*
G01*
X1180900Y115000D01*
X1200000Y109000D02*
G01*
X1180900Y109000D01*
X1200000Y109000D02*
G01*
X1180900Y96300D01*
X1200000Y96300D02*
G01*
X1180900Y96300D01*
X1200000Y83899D02*
G01*
X1180900Y83899D01*
X1200000Y90300D02*
G01*
X1200000Y77500D01*
D10*
X2610399Y455000D02*
G01*
X2579700Y455000D01*
X2573599Y453000D01*
X2569499Y448899D01*
X2567500Y442699D01*
X2567500Y438600D01*
X2569499Y432500D01*
X2573599Y428400D01*
X2579700Y426399D01*
X2610399Y426399D01*
X2610399Y388299D02*
G01*
X2610399Y408800D01*
X2591999Y410799D01*
X2593999Y408800D01*
X2596099Y402600D01*
X2596099Y396500D01*
X2593999Y390399D01*
X2590000Y386300D01*
X2583800Y384200D01*
X2579700Y384200D01*
X2573599Y386300D01*
X2569499Y390399D01*
X2567500Y396500D01*
X2567500Y402600D01*
X2569499Y408800D01*
X2571499Y410799D01*
X2575600Y412899D01*
D11*
X2270600Y665000D02*
G01*
X2194300Y665000D01*
X2270600Y665000D02*
G01*
X2270600Y632300D01*
X2266999Y621399D01*
X2263400Y617699D01*
X2256099Y614099D01*
X2248800Y614099D01*
X2241499Y617699D01*
X2237899Y621399D01*
X2234300Y632300D01*
X2234300Y665000D02*
G01*
X2234300Y632300D01*
X2230600Y621399D01*
X2226999Y617699D01*
X2219700Y614099D01*
X2208800Y614099D01*
X2201499Y617699D01*
X2197899Y621399D01*
X2194300Y632300D01*
X2194300Y665000D01*
X2270600Y590100D02*
G01*
X2194300Y590100D01*
X2270600Y590100D02*
G01*
X2194300Y560999D01*
X2270600Y531900D02*
G01*
X2194300Y560999D01*
X2270600Y531900D02*
G01*
X2194300Y531900D01*
X2270600Y507899D02*
G01*
X2194300Y507899D01*
X2270600Y507899D02*
G01*
X2270600Y475199D01*
X2266999Y464299D01*
X2263400Y460599D01*
X2256099Y456999D01*
X2245200Y456999D01*
X2237899Y460599D01*
X2234300Y464299D01*
X2230600Y475199D01*
X2230600Y507899D01*
X2270600Y425700D02*
G01*
X2270600Y385700D01*
X2241499Y407500D01*
X2241499Y396599D01*
X2237899Y389400D01*
X2234300Y385700D01*
X2223400Y382100D01*
X2216099Y382100D01*
X2205200Y385700D01*
X2197899Y393000D01*
X2194300Y403899D01*
X2194300Y414800D01*
X2197899Y425700D01*
X2201499Y429400D01*
X2208800Y433000D01*
X2270600Y339899D02*
G01*
X2266999Y350799D01*
X2259700Y354499D01*
X2252500Y354499D01*
X2245200Y350799D01*
X2241499Y343499D01*
X2237899Y329000D01*
X2234300Y318099D01*
X2226999Y310799D01*
X2219700Y307199D01*
X2208800Y307199D01*
X2201499Y310799D01*
X2197899Y314499D01*
X2194300Y325399D01*
X2194300Y339899D01*
X2197899Y350799D01*
X2201499Y354499D01*
X2208800Y358099D01*
X2219700Y358099D01*
X2226999Y354499D01*
X2234300Y347199D01*
X2237899Y336300D01*
X2241499Y321700D01*
X2245200Y314499D01*
X2252500Y310799D01*
X2259700Y310799D01*
X2266999Y314499D01*
X2270600Y325399D01*
X2270600Y339899D01*
X2270600Y265000D02*
G01*
X2266999Y275900D01*
X2259700Y279499D01*
X2252500Y279499D01*
X2245200Y275900D01*
X2241499Y268600D01*
X2237899Y254099D01*
X2234300Y243200D01*
X2226999Y235900D01*
X2219700Y232300D01*
X2208800Y232300D01*
X2201499Y235900D01*
X2197899Y239499D01*
X2194300Y250500D01*
X2194300Y265000D01*
X2197899Y275900D01*
X2201499Y279499D01*
X2208800Y283200D01*
X2219700Y283200D01*
X2226999Y279499D01*
X2234300Y272300D01*
X2237899Y261399D01*
X2241499Y246799D01*
X2245200Y239499D01*
X2252500Y235900D01*
X2259700Y235900D01*
X2266999Y239499D01*
X2270600Y250500D01*
X2270600Y265000D01*
D14*
X1945500Y611399D02*
G01*
X1947299Y612300D01*
X1949099Y614099D01*
X1950000Y615900D01*
X1950000Y619499D01*
X1949099Y621399D01*
X1947299Y623200D01*
X1945500Y624099D01*
X1942700Y625000D01*
X1938199Y625000D01*
X1935500Y624099D01*
X1933599Y623200D01*
X1931800Y621399D01*
X1930900Y619499D01*
X1930900Y615900D01*
X1931800Y614099D01*
X1933599Y612300D01*
X1935500Y611399D01*
X1938199Y611399D01*
X1938199Y615900D02*
G01*
X1938199Y611399D01*
X1950000Y605399D02*
G01*
X1930900Y605399D01*
X1950000Y605399D02*
G01*
X1930900Y592600D01*
X1950000Y592600D02*
G01*
X1930900Y592600D01*
X1950000Y586599D02*
G01*
X1930900Y586599D01*
X1950000Y586599D02*
G01*
X1950000Y580300D01*
X1949099Y577500D01*
X1947299Y575700D01*
X1945500Y574800D01*
X1942700Y573899D01*
X1938199Y573899D01*
X1935500Y574800D01*
X1933599Y575700D01*
X1931800Y577500D01*
X1930900Y580300D01*
X1930900Y586599D01*
X1950000Y820000D02*
G01*
X1930900Y812699D01*
X1950000Y805500D02*
G01*
X1930900Y812699D01*
X1950000Y799499D02*
G01*
X1930900Y799499D01*
X1950000Y793499D02*
G01*
X1930900Y793499D01*
X1950000Y793499D02*
G01*
X1930900Y780700D01*
X1950000Y780700D02*
G01*
X1930900Y780700D01*
X1950000Y713200D02*
G01*
X1950000Y703200D01*
X1942700Y708600D01*
X1942700Y705900D01*
X1941800Y704099D01*
X1940900Y703200D01*
X1938199Y702300D01*
X1936400Y702300D01*
X1933599Y703200D01*
X1931800Y705000D01*
X1930900Y707699D01*
X1930900Y710500D01*
X1931800Y713200D01*
X1932700Y714099D01*
X1934600Y715000D01*
X1950000Y696300D02*
G01*
X1930900Y689000D01*
X1950000Y681700D02*
G01*
X1930900Y689000D01*
X1947299Y512300D02*
G01*
X1949099Y514099D01*
X1950000Y516799D01*
X1950000Y520500D01*
X1949099Y523200D01*
X1947299Y525000D01*
X1945500Y525000D01*
X1943599Y524099D01*
X1942700Y523200D01*
X1941800Y521399D01*
X1940000Y515900D01*
X1939099Y514099D01*
X1938199Y513200D01*
X1936400Y512300D01*
X1933599Y512300D01*
X1931800Y514099D01*
X1930900Y516799D01*
X1930900Y520500D01*
X1931800Y523200D01*
X1933599Y525000D01*
X1945500Y492600D02*
G01*
X1947299Y493499D01*
X1949099Y495399D01*
X1950000Y497199D01*
X1950000Y500799D01*
X1949099Y502600D01*
X1947299Y504499D01*
X1945500Y505399D01*
X1942700Y506300D01*
X1938199Y506300D01*
X1935500Y505399D01*
X1933599Y504499D01*
X1931800Y502600D01*
X1930900Y500799D01*
X1930900Y497199D01*
X1931800Y495399D01*
X1933599Y493499D01*
X1935500Y492600D01*
X1950000Y486599D02*
G01*
X1930900Y486599D01*
X1950000Y473899D02*
G01*
X1937299Y486599D01*
X1941800Y482100D02*
G01*
X1930900Y473899D01*
X1947299Y412300D02*
G01*
X1949099Y414099D01*
X1950000Y416799D01*
X1950000Y420500D01*
X1949099Y423200D01*
X1947299Y425000D01*
X1945500Y425000D01*
X1943599Y424099D01*
X1942700Y423200D01*
X1941800Y421399D01*
X1940000Y415900D01*
X1939099Y414099D01*
X1938199Y413200D01*
X1936400Y412300D01*
X1933599Y412300D01*
X1931800Y414099D01*
X1930900Y416799D01*
X1930900Y420500D01*
X1931800Y423200D01*
X1933599Y425000D01*
X1950000Y406300D02*
G01*
X1930900Y406300D01*
X1950000Y406300D02*
G01*
X1950000Y399899D01*
X1949099Y397199D01*
X1947299Y395399D01*
X1945500Y394499D01*
X1942700Y393499D01*
X1938199Y393499D01*
X1935500Y394499D01*
X1933599Y395399D01*
X1931800Y397199D01*
X1930900Y399899D01*
X1930900Y406300D01*
X1950000Y382100D02*
G01*
X1949099Y383899D01*
X1947299Y385700D01*
X1945500Y386599D01*
X1942700Y387500D01*
X1938199Y387500D01*
X1935500Y386599D01*
X1933599Y385700D01*
X1931800Y383899D01*
X1930900Y382100D01*
X1930900Y378499D01*
X1931800Y376599D01*
X1933599Y374800D01*
X1935500Y373899D01*
X1938199Y373000D01*
X1942700Y373000D01*
X1945500Y373899D01*
X1947299Y374800D01*
X1949099Y376599D01*
X1950000Y378499D01*
X1950000Y382100D01*
X1947299Y307300D02*
G01*
X1949099Y309099D01*
X1950000Y311799D01*
X1950000Y315500D01*
X1949099Y318200D01*
X1947299Y320000D01*
X1945500Y320000D01*
X1943599Y319099D01*
X1942700Y318200D01*
X1941800Y316399D01*
X1940000Y310900D01*
X1939099Y309099D01*
X1938199Y308200D01*
X1936400Y307300D01*
X1933599Y307300D01*
X1931800Y309099D01*
X1930900Y311799D01*
X1930900Y315500D01*
X1931800Y318200D01*
X1933599Y320000D01*
X1950000Y301300D02*
G01*
X1930900Y301300D01*
X1950000Y301300D02*
G01*
X1950000Y294899D01*
X1949099Y292199D01*
X1947299Y290399D01*
X1945500Y289499D01*
X1942700Y288499D01*
X1938199Y288499D01*
X1935500Y289499D01*
X1933599Y290399D01*
X1931800Y292199D01*
X1930900Y294899D01*
X1930900Y301300D01*
X1950000Y282500D02*
G01*
X1930900Y282500D01*
X1945500Y201399D02*
G01*
X1947299Y202300D01*
X1949099Y204099D01*
X1950000Y205900D01*
X1950000Y209499D01*
X1949099Y211399D01*
X1947299Y213200D01*
X1945500Y214099D01*
X1942700Y215000D01*
X1938199Y215000D01*
X1935500Y214099D01*
X1933599Y213200D01*
X1931800Y211399D01*
X1930900Y209499D01*
X1930900Y205900D01*
X1931800Y204099D01*
X1933599Y202300D01*
X1935500Y201399D01*
X1947299Y182600D02*
G01*
X1949099Y184499D01*
X1950000Y187199D01*
X1950000Y190799D01*
X1949099Y193499D01*
X1947299Y195399D01*
X1945500Y195399D01*
X1943599Y194499D01*
X1942700Y193499D01*
X1941800Y191700D01*
X1940000Y186300D01*
X1939099Y184499D01*
X1938199Y183499D01*
X1936400Y182600D01*
X1933599Y182600D01*
X1931800Y184499D01*
X1930900Y187199D01*
X1930900Y190799D01*
X1931800Y193499D01*
X1933599Y195399D01*
X1950000Y115000D02*
G01*
X1930900Y115000D01*
X1950000Y109000D02*
G01*
X1930900Y109000D01*
X1950000Y109000D02*
G01*
X1930900Y96300D01*
X1950000Y96300D02*
G01*
X1930900Y96300D01*
X1950000Y83899D02*
G01*
X1930900Y83899D01*
X1950000Y90300D02*
G01*
X1950000Y77500D01*
D11*
X2550000Y1675000D02*
G01*
X2550000Y1600000D01*
X2650000Y1600000D01*
X2650000Y1900000D01*
X2550000Y1900000D01*
D15*
X2550000Y1900000D02*
G01*
X2550000Y1675000D01*
D11*
X2350000Y1675000D02*
G01*
X2350000Y1600000D01*
X2450000Y1600000D01*
X2450000Y1900000D01*
X2350000Y1900000D01*
D15*
X2350000Y1900000D02*
G01*
X2350000Y1675000D01*
D11*
X2750000Y1675000D02*
G01*
X2750000Y1600000D01*
X2850000Y1600000D01*
X2850000Y1900000D01*
X2750000Y1900000D01*
D15*
X2750000Y1900000D02*
G01*
X2750000Y1675000D01*
D11*
X2850000Y1675000D02*
G01*
X2850000Y1600000D01*
X2950000Y1600000D01*
X2950000Y1900000D01*
X2850000Y1900000D01*
D15*
X2850000Y1900000D02*
G01*
X2850000Y1675000D01*
D11*
X2950000Y1675000D02*
G01*
X2950000Y1600000D01*
X3050000Y1600000D01*
X3050000Y1900000D01*
X2950000Y1900000D01*
D15*
X2950000Y1900000D02*
G01*
X2950000Y1675000D01*
D11*
X3050000Y1675000D02*
G01*
X3050000Y1600000D01*
X3150000Y1600000D01*
X3150000Y1900000D01*
X3050000Y1900000D01*
D15*
X3050000Y1900000D02*
G01*
X3050000Y1675000D01*
D11*
X3150000Y1675000D02*
G01*
X3150000Y1600000D01*
X3250000Y1600000D01*
X3250000Y1900000D01*
X3150000Y1900000D01*
D15*
X3150000Y1900000D02*
G01*
X3150000Y1675000D01*
D11*
X3250000Y1675000D02*
G01*
X3250000Y1600000D01*
X3350000Y1600000D01*
X3350000Y1900000D01*
X3250000Y1900000D01*
D15*
X3250000Y1900000D02*
G01*
X3250000Y1675000D01*
D11*
X3350000Y1675000D02*
G01*
X3350000Y1600000D01*
X3450000Y1600000D01*
X3450000Y1900000D01*
X3350000Y1900000D01*
D15*
X3350000Y1900000D02*
G01*
X3350000Y1675000D01*
D11*
X3450000Y1675000D02*
G01*
X3450000Y1600000D01*
X3550000Y1600000D01*
X3550000Y1900000D01*
X3450000Y1900000D01*
D15*
X3450000Y1900000D02*
G01*
X3450000Y1675000D01*
D11*
X3550000Y1675000D02*
G01*
X3550000Y1600000D01*
X3650000Y1600000D01*
X3650000Y1900000D01*
X3550000Y1900000D01*
D15*
X3550000Y1900000D02*
G01*
X3550000Y1675000D01*
D11*
X3650000Y1675000D02*
G01*
X3650000Y1600000D01*
X3750000Y1600000D01*
X3750000Y1900000D01*
X3650000Y1900000D01*
D15*
X3650000Y1900000D02*
G01*
X3650000Y1675000D01*
D16*
X2175100Y1849899D02*
G01*
X2175100Y1649899D01*
X2275100Y1649899D01*
X2275100Y1849899D01*
X2175100Y1849899D01*
D17*
X100000Y25000D02*
G01*
X100000Y1225000D01*
X1000000Y1225000D01*
X1000000Y25000D01*
X100000Y25000D01*
X300000Y825000D02*
G01*
X300000Y1325000D01*
X800000Y1325000D01*
X800000Y825000D01*
X300000Y825000D01*
X2595000Y1025000D02*
G01*
X3972950Y1025000D01*
X3972950Y21060D01*
X2595000Y21060D01*
X2595000Y1025000D01*
D11*
X3820000Y2005000D02*
G01*
X3920000Y2005000D01*
X3920000Y1605000D01*
X3820000Y1605000D01*
X3820000Y1680000D01*
D15*
X3820000Y2005000D02*
G01*
X3820000Y1680000D01*
D17*
X3518800Y2060000D02*
G01*
X3518590Y1959690D01*
X3021199Y1075000D02*
G01*
X3021409Y1175309D01*
X2771199Y1070000D02*
G01*
X2771409Y1170309D01*
X3064565Y1053939D02*
G01*
X3899211Y1053939D01*
X3694493Y1095275D02*
G01*
X3694493Y1504724D01*
X3899211Y1504724D01*
X3899211Y1095275D01*
X3694493Y1095275D01*
X3899211Y1546066D02*
G01*
X3064564Y1546066D01*
X3899212Y1546066D02*
G01*
X3899212Y1053939D01*
X3064565Y1053939D02*
G01*
X3064565Y1546064D01*
X2433999Y1001999D02*
G01*
X2433999Y908000D01*
X2433999Y908000D02*
G01*
X2186000Y908000D01*
X2186000Y908000D02*
G01*
X2186000Y1001999D01*
X2186000Y1001999D02*
G01*
X2433999Y1001999D01*
X2833999Y2056999D02*
G01*
X2833999Y1963000D01*
X2833999Y1963000D02*
G01*
X2586000Y1963000D01*
X2586000Y1963000D02*
G01*
X2586000Y2056999D01*
X2586000Y2056999D02*
G01*
X2833999Y2056999D01*
X2100000Y1900000D02*
G01*
X2100000Y1200000D01*
X1100000Y1200000D01*
X1100000Y1900000D01*
X2100000Y1900000D01*
X50000Y1350000D02*
G01*
X50000Y2050000D01*
X1050000Y2050000D01*
X1050000Y1350000D01*
X50000Y1350000D01*
X1800000Y875000D02*
G01*
X1800000Y25000D01*
X1150000Y25000D01*
X1150000Y875000D01*
X1800000Y875000D01*
X2550000Y875000D02*
G01*
X2550000Y25000D01*
X1900000Y25000D01*
X1900000Y875000D01*
X2550000Y875000D01*
G75*
G01*
X3518800Y1960180D02*
G03*
X3518800Y2059980I60910J49900D01*
G75*
G01*
X3021200Y1174820D02*
G03*
X3021200Y1075020I-60910J-49900D01*
G75*
G01*
X2771200Y1169820D02*
G03*
X2771200Y1070020I-60910J-49900D01*
M02*
