G04 Layer: BottomLayer*
G04 EasyEDA v6.5.23, 2023-05-31 23:13:28*
G04 bcd344b045274ec9933b0a03571c91cc,5f8968b253fc4aed9fc2cb8881c97923,10*
G04 Gerber Generator version 0.2*
G04 Scale: 100 percent, Rotated: No, Reflected: No *
G04 Dimensions in inches *
G04 leading zeros omitted , absolute positions ,3 integer and 6 decimal *
%FSLAX36Y36*%
%MOIN*%

%AMMACRO1*21,1,$1,$2,0,0,$3*%
%ADD10C,0.0100*%
%ADD11C,0.0620*%
%ADD12R,0.0620X0.0620*%
%ADD13C,0.0470*%
%ADD14C,0.0600*%
%ADD15R,0.0600X0.0600*%
%ADD16C,0.0787*%
%ADD17C,0.0551*%
%ADD18R,0.0709X0.0709*%
%ADD19C,0.0709*%
%ADD20C,0.0740*%
%ADD21R,0.0740X0.0740*%
%ADD22MACRO1,0.062X0.062X0.0000*%
%ADD23MACRO1,0.0669X0.062X-90.0000*%
%ADD24C,0.0669*%
%ADD25MACRO1,0.062X0.062X-90.0000*%
%ADD26MACRO1,0.06X0.06X0.0000*%
%ADD27C,0.0240*%
%ADD28C,0.0103*%

%LPD*%
D10*
X504490Y250000D02*
G01*
X1296869Y250000D01*
X400000Y145509D02*
G01*
X504490Y250000D01*
X504490Y250000D02*
G01*
X350000Y404490D01*
X350000Y1450000D01*
X3600000Y1850000D02*
G01*
X3642079Y1807919D01*
X3642079Y1288220D01*
X3631580Y1277719D01*
X3631580Y1150000D01*
X3600000Y1850000D02*
G01*
X3500000Y1850000D01*
X2186009Y1812910D02*
G01*
X2223100Y1850000D01*
X2400000Y1850000D01*
X2225000Y1700000D02*
G01*
X2186009Y1738989D01*
X2186009Y1812910D01*
X2186009Y1812910D02*
G01*
X2144210Y1854710D01*
X1878710Y1854710D01*
X1848010Y1824009D01*
X1848010Y1800000D01*
X1800000Y1800000D02*
G01*
X1848010Y1800000D01*
X2400000Y1850000D02*
G01*
X2600000Y1850000D01*
X1800000Y1800000D02*
G01*
X1800000Y1751990D01*
X2000000Y600000D02*
G01*
X1851920Y748079D01*
X1851920Y1700070D01*
X1800000Y1751990D01*
X3300000Y1850000D02*
G01*
X3200000Y1850000D01*
X3400000Y1850000D02*
G01*
X3300000Y1850000D01*
X1296869Y250000D02*
G01*
X1400000Y146869D01*
X1400000Y100000D01*
X1250000Y600000D02*
G01*
X1296869Y553130D01*
X1296869Y250000D01*
X400000Y125000D02*
G01*
X400000Y145509D01*
X3700000Y1650000D02*
G01*
X3700000Y1607989D01*
X3661400Y1274920D02*
G01*
X3661400Y1569389D01*
X3700000Y1607989D01*
X2378999Y1650000D02*
G01*
X2478999Y1750000D01*
X2600000Y1750000D01*
X2378999Y1650000D02*
G01*
X2357990Y1650000D01*
X2400000Y1650000D02*
G01*
X2378999Y1650000D01*
X1500000Y100000D02*
G01*
X1542079Y57919D01*
X1722690Y57919D01*
X1921999Y257229D01*
X2021440Y257229D01*
X2357990Y593780D01*
X2357990Y1650000D01*
X200000Y125000D02*
G01*
X267130Y57869D01*
X1457870Y57869D01*
X1500000Y100000D01*
X2800000Y1650000D02*
G01*
X2757990Y1650000D01*
X2757990Y1650000D02*
G01*
X2657990Y1750000D01*
X2600000Y1750000D01*
X2225000Y1800000D02*
G01*
X2357990Y1667010D01*
X2357990Y1650000D01*
X1640000Y2000000D02*
G01*
X1597989Y2000000D01*
X1597989Y2000000D02*
G01*
X1597989Y1989499D01*
X1535870Y1927379D01*
X1458630Y1927379D01*
X1350000Y1818750D01*
X1350000Y1645709D01*
X1426220Y1569490D01*
X3008059Y1569490D02*
G01*
X3042079Y1603510D01*
X3042079Y1692080D01*
X3100000Y1750000D01*
X2510000Y2010000D02*
G01*
X2413040Y1913040D01*
X1813040Y1913040D01*
X1700000Y1800000D01*
X1700000Y1800000D02*
G01*
X1650649Y1849349D01*
X1574409Y1849349D01*
X1550060Y1825000D01*
X1550060Y949940D01*
X2000000Y500000D01*
X450000Y1450000D02*
G01*
X450000Y1300000D01*
X1250000Y500000D01*
X2041250Y555259D02*
G01*
X1981180Y555259D01*
X1650000Y886439D01*
X1650000Y1750000D01*
X1600000Y1800000D01*
X2110000Y955000D02*
G01*
X2110000Y624009D01*
X2041250Y555259D01*
X2000000Y300000D02*
G01*
X2041250Y341250D01*
X2041250Y555259D01*
X3635000Y2010000D02*
G01*
X3715000Y2010000D01*
X3870000Y1855000D01*
X2655000Y1120000D02*
G01*
X2950000Y1415000D01*
X2950000Y1678930D01*
X2973320Y1702249D01*
X3021250Y1702249D01*
X3050000Y1730999D01*
X3050000Y1950000D01*
X3100000Y2000000D01*
X3200000Y2000000D02*
G01*
X3144059Y1944059D01*
X3144059Y1264059D01*
X3005000Y1125000D01*
X3300000Y2000000D02*
G01*
X3254390Y2045610D01*
X3029309Y2045610D01*
X2857920Y1874220D01*
X2857920Y1414740D01*
X2510000Y1066819D01*
X2510000Y955000D01*
X3700000Y500000D02*
G01*
X3742079Y542080D01*
X3742079Y1003829D01*
X3796689Y1058440D01*
X3796689Y1196689D01*
X3850000Y1250000D01*
X3750000Y1250000D02*
G01*
X3700000Y1200000D01*
X3700000Y600000D01*
X3535000Y2010000D02*
G01*
X3623170Y1921830D01*
X3690060Y1921830D01*
X3742079Y1869810D01*
X3742079Y1541680D01*
X3700029Y1499630D01*
X3700029Y1428580D01*
X3728580Y1400030D01*
X3767060Y1400030D01*
X3799970Y1367120D01*
X3799970Y1333389D01*
X3829859Y1303499D01*
X3863590Y1303499D01*
X3896509Y1270580D01*
X3896509Y1099169D01*
X3792520Y995180D01*
X3792520Y837550D01*
X3842079Y787989D01*
X3842079Y542080D01*
X3800000Y500000D01*
X3800000Y600000D02*
G01*
X3800000Y555529D01*
X3870000Y1755000D02*
G01*
X3954849Y1670149D01*
X3954849Y379189D01*
X3825590Y249929D01*
X3768890Y249929D01*
X3750000Y268820D01*
X3750000Y520120D01*
X3785410Y555529D01*
X3800000Y555529D01*
X2755000Y1120000D02*
G01*
X2755000Y515000D01*
X2660000Y420000D01*
X2905000Y1125000D02*
G01*
X2867759Y1162240D01*
X2737579Y1162240D01*
X2710460Y1135120D01*
X2710460Y570459D01*
X2660000Y520000D01*
X3700000Y300000D02*
G01*
X3654880Y345120D01*
X3654880Y1235770D01*
X3750000Y1330889D01*
X3750000Y1350000D01*
X3800000Y300000D02*
G01*
X3800000Y341010D01*
X3800000Y341010D02*
G01*
X3937449Y478460D01*
X3937449Y1330599D01*
X3871540Y1396509D01*
X3803490Y1396509D01*
X3750000Y1450000D01*
X3850000Y1350000D02*
G01*
X3917799Y1282199D01*
X3917799Y517800D01*
X3800000Y400000D01*
X2200000Y2000000D02*
G01*
X2265590Y2065590D01*
X3294499Y2065590D01*
X3357929Y2002159D01*
X3357929Y1964409D01*
X3457920Y1864420D01*
X3457920Y1826100D01*
X3484020Y1800000D01*
X3550000Y1800000D01*
X3600000Y1750000D01*
X2800000Y1750000D02*
G01*
X2656610Y1893389D01*
X2296830Y1893389D01*
X2293339Y1889899D01*
X2000000Y800000D02*
G01*
X2000000Y841010D01*
X2000000Y841010D02*
G01*
X2061069Y902080D01*
X2061069Y1738930D01*
X2000000Y1800000D01*
X150000Y1450000D02*
G01*
X204110Y1504110D01*
X465279Y1504110D01*
X500000Y1469389D01*
X500000Y1431480D01*
X1131480Y800000D01*
X1250000Y800000D01*
X1250000Y800000D02*
G01*
X1250000Y758989D01*
X1250000Y758989D02*
G01*
X1600000Y408989D01*
X1600000Y100000D01*
X1800000Y2000000D02*
G01*
X1683590Y1883589D01*
X1509210Y1883589D01*
X1450000Y1824380D01*
X1450000Y1537350D01*
X1526210Y1461140D01*
X3167129Y1461140D02*
G01*
X3242079Y1536089D01*
X3242079Y1707919D01*
X3200000Y1750000D01*
X2600000Y1650000D02*
G01*
X2600000Y1607989D01*
X2400000Y100000D02*
G01*
X2400000Y1407989D01*
X2600000Y1607989D01*
D11*
G01*
X2600000Y1850000D03*
G01*
X2600000Y1750000D03*
D12*
G01*
X2600000Y1650000D03*
D11*
G01*
X2400000Y1850000D03*
G01*
X2400000Y1750000D03*
D12*
G01*
X2400000Y1650000D03*
D11*
G01*
X2800000Y1850000D03*
G01*
X2800000Y1750000D03*
D12*
G01*
X2800000Y1650000D03*
D11*
G01*
X2900000Y1850000D03*
G01*
X2900000Y1750000D03*
D12*
G01*
X2900000Y1650000D03*
D11*
G01*
X3000000Y1850000D03*
G01*
X3000000Y1750000D03*
D12*
G01*
X3000000Y1650000D03*
D11*
G01*
X3100000Y1850000D03*
G01*
X3100000Y1750000D03*
D12*
G01*
X3100000Y1650000D03*
D11*
G01*
X3200000Y1850000D03*
G01*
X3200000Y1750000D03*
D12*
G01*
X3200000Y1650000D03*
D11*
G01*
X3300000Y1850000D03*
G01*
X3300000Y1750000D03*
D12*
G01*
X3300000Y1650000D03*
D11*
G01*
X3400000Y1850000D03*
G01*
X3400000Y1750000D03*
D12*
G01*
X3400000Y1650000D03*
D11*
G01*
X3500000Y1850000D03*
G01*
X3500000Y1750000D03*
D12*
G01*
X3500000Y1650000D03*
D11*
G01*
X3600000Y1850000D03*
G01*
X3600000Y1750000D03*
D12*
G01*
X3600000Y1650000D03*
D11*
G01*
X3700000Y1850000D03*
G01*
X3700000Y1750000D03*
D12*
G01*
X3700000Y1650000D03*
D13*
G01*
X2225000Y1700000D03*
G01*
X2225000Y1800000D03*
D14*
G01*
X900000Y125000D03*
G01*
X800000Y125000D03*
G01*
X700000Y125000D03*
G01*
X600000Y125000D03*
G01*
X500000Y125000D03*
D15*
G01*
X400000Y125000D03*
D14*
G01*
X300000Y125000D03*
G01*
X200000Y125000D03*
D16*
G01*
X2660000Y920000D03*
G01*
X2660000Y820000D03*
G01*
X2660000Y720000D03*
G01*
X2660000Y620000D03*
G01*
X2660000Y520000D03*
G01*
X2660000Y420000D03*
G01*
X2660000Y320000D03*
G01*
X2660000Y220000D03*
G01*
X2660000Y120000D03*
D12*
G01*
X3870000Y1655000D03*
D11*
G01*
X3870000Y1755000D03*
G01*
X3870000Y1855000D03*
G01*
X3870000Y1955000D03*
D17*
G01*
X3635000Y2010000D03*
G01*
X3535000Y2010000D03*
G01*
X2905000Y1125000D03*
G01*
X3005000Y1125000D03*
G01*
X2655000Y1120000D03*
G01*
X2755000Y1120000D03*
D18*
G01*
X3850000Y1150100D03*
D19*
G01*
X3750000Y1150000D03*
G01*
X3850000Y1250000D03*
G01*
X3750000Y1250000D03*
G01*
X3850000Y1350000D03*
G01*
X3750000Y1350000D03*
G01*
X3850000Y1450000D03*
G01*
X3750000Y1450000D03*
D20*
G01*
X2510000Y955000D03*
G01*
X2110000Y955000D03*
G01*
X2910000Y2010000D03*
G01*
X2510000Y2010000D03*
G01*
X2000000Y1800000D03*
G01*
X1800000Y1300000D03*
G01*
X1700000Y1300000D03*
G01*
X1600000Y1300000D03*
G01*
X1400000Y1300000D03*
G01*
X1500000Y1300000D03*
G01*
X1400000Y1800000D03*
G01*
X1500000Y1800000D03*
G01*
X1200000Y1800000D03*
G01*
X1300000Y1800000D03*
G01*
X1700000Y1800000D03*
G01*
X1600000Y1800000D03*
G01*
X1900000Y1800000D03*
D21*
G01*
X1800000Y1800000D03*
D20*
G01*
X150000Y1450000D03*
G01*
X350000Y1950000D03*
G01*
X450000Y1950000D03*
G01*
X550000Y1950000D03*
G01*
X750000Y1950000D03*
G01*
X650000Y1950000D03*
G01*
X750000Y1450000D03*
G01*
X650000Y1450000D03*
G01*
X950000Y1450000D03*
G01*
X850000Y1450000D03*
G01*
X450000Y1450000D03*
G01*
X550000Y1450000D03*
G01*
X250000Y1450000D03*
D21*
G01*
X350000Y1450000D03*
D15*
G01*
X1250000Y800000D03*
D14*
G01*
X1250000Y700000D03*
G01*
X1250000Y600000D03*
G01*
X1250000Y500000D03*
G01*
X1250000Y400000D03*
G01*
X1250000Y300000D03*
G01*
X1250000Y200000D03*
G01*
X1250000Y100000D03*
D15*
G01*
X2000000Y800000D03*
D14*
G01*
X2000000Y700000D03*
G01*
X2000000Y600000D03*
G01*
X2000000Y500000D03*
G01*
X2000000Y400000D03*
G01*
X2000000Y300000D03*
G01*
X2000000Y200000D03*
G01*
X2000000Y100000D03*
D11*
G01*
X1400000Y100000D03*
G01*
X1500000Y100000D03*
D22*
G01*
X1600000Y100000D03*
D11*
G01*
X1240000Y2000000D03*
G01*
X1340000Y2000000D03*
G01*
X1440000Y2000000D03*
G01*
X1540000Y2000000D03*
D22*
G01*
X1640000Y2000000D03*
D11*
G01*
X1800000Y2000000D03*
G01*
X1900000Y2000000D03*
G01*
X2000000Y2000000D03*
G01*
X2100000Y2000000D03*
G01*
X2200000Y2000000D03*
D22*
G01*
X2300000Y2000000D03*
D23*
G01*
X3800000Y599999D03*
D24*
G01*
X3800000Y500000D03*
D23*
G01*
X3700000Y599999D03*
D24*
G01*
X3700000Y500000D03*
D25*
G01*
X2400000Y100000D03*
D22*
G01*
X3400000Y2000000D03*
D11*
G01*
X3300000Y2000000D03*
G01*
X3200000Y2000000D03*
G01*
X3100000Y2000000D03*
D26*
G01*
X3800000Y300000D03*
D14*
G01*
X3800000Y400000D03*
G01*
X3700000Y300000D03*
G01*
X3700000Y400000D03*
D27*
G01*
X3631580Y1150000D03*
G01*
X3661400Y1274920D03*
G01*
X3008059Y1569490D03*
G01*
X1426220Y1569490D03*
G01*
X2293339Y1889899D03*
G01*
X3167129Y1461140D03*
G01*
X1526210Y1461140D03*
M02*
