G04 Layer: BottomSolderMaskLayer*
G04 EasyEDA v6.5.23, 2023-06-13 15:00:51*
G04 dacc78a0dacf4a2ba8dfb7ea8c58147c,5f8968b253fc4aed9fc2cb8881c97923,10*
G04 Gerber Generator version 0.2*
G04 Scale: 100 percent, Rotated: No, Reflected: No *
G04 Dimensions in inches *
G04 leading zeros omitted , absolute positions ,3 integer and 6 decimal *
%FSLAX36Y36*%
%MOIN*%

%AMMACRO1*1,1,$1,$2,$3*1,1,$1,$4,$5*1,1,$1,0-$2,0-$3*1,1,$1,0-$4,0-$5*20,1,$1,$2,$3,$4,$5,0*20,1,$1,$4,$5,0-$2,0-$3,0*20,1,$1,0-$2,0-$3,0-$4,0-$5,0*20,1,$1,0-$4,0-$5,$2,$3,0*4,1,4,$2,$3,$4,$5,0-$2,0-$3,0-$4,0-$5,$2,$3,0*%
%ADD10C,0.0660*%
%ADD11R,0.0660X0.0660*%
%ADD12C,0.0510*%
%ADD13MACRO1,0.004X-0.031X0.031X0.031X0.031*%
%ADD14MACRO1,0.004X0.031X0.031X0.031X-0.031*%
%ADD15MACRO1,0.004X0.031X-0.031X-0.031X-0.031*%
%ADD16C,0.0820*%
%ADD17MACRO1,0.008X0.035X-0.035X-0.035X-0.035*%
%ADD18C,0.0591*%
%ADD19MACRO1,0.004X-0.0354X0.0354X0.0354X0.0354*%
%ADD20C,0.0749*%
%ADD21C,0.0780*%
%ADD22MACRO1,0.004X0.037X-0.037X-0.037X-0.037*%
%ADD23MACRO1,0.004X-0.03X0.03X0.03X0.03*%
%ADD24C,0.0780*%
%ADD25C,0.0740*%
%ADD26MACRO1,0.004X-0.0277X-0.0277X-0.0277X0.0277*%
%ADD27C,0.0594*%
%ADD28C,0.0690*%
%ADD29C,0.0670*%
%ADD30O,0.05124000000000001X0.04337*%
%ADD31O,0.04337X0.07486599999999999*%
%ADD32O,0.0162X0.07486599999999999*%

%LPD*%
D10*
G01*
X3925000Y785000D03*
G01*
X3925000Y685000D03*
D11*
G01*
X3925000Y585000D03*
D12*
G01*
X3930000Y295000D03*
G01*
X3930000Y395000D03*
D13*
G01*
X260000Y65000D03*
D10*
G01*
X160000Y65000D03*
G01*
X60000Y65000D03*
G01*
X1150000Y2000000D03*
G01*
X1050000Y2000000D03*
G01*
X950000Y2000000D03*
G01*
X850000Y2000000D03*
D13*
G01*
X750000Y2000000D03*
D14*
G01*
X2400000Y2000000D03*
D10*
G01*
X2500000Y2000000D03*
D13*
G01*
X2700000Y2000000D03*
D10*
G01*
X2800000Y2000000D03*
G01*
X2900000Y2000000D03*
G01*
X3000000Y2000000D03*
D15*
G01*
X3600000Y100000D03*
D10*
G01*
X3500000Y100000D03*
G01*
X3400000Y100000D03*
G01*
X3300000Y100000D03*
G01*
X3200000Y100000D03*
G01*
X3100000Y100000D03*
G01*
X3000000Y100000D03*
G01*
X2900000Y100000D03*
G01*
X2200000Y100000D03*
G01*
X2300000Y100000D03*
G01*
X2400000Y100000D03*
G01*
X2500000Y100000D03*
G01*
X2600000Y100000D03*
G01*
X2700000Y100000D03*
D16*
G01*
X2060000Y1065000D03*
G01*
X2060000Y965000D03*
G01*
X2060000Y865000D03*
G01*
X2060000Y765000D03*
G01*
X2060000Y665000D03*
G01*
X2060000Y565000D03*
D17*
G01*
X2060000Y465000D03*
D16*
G01*
X2060000Y365000D03*
G01*
X2060000Y265000D03*
D10*
G01*
X685000Y65000D03*
G01*
X785000Y65000D03*
G01*
X885000Y65000D03*
G01*
X985000Y65000D03*
D18*
G01*
X1105000Y1025000D03*
G01*
X1205000Y1025000D03*
D19*
G01*
X3230102Y1260000D03*
D20*
G01*
X3230000Y1360010D03*
G01*
X3330000Y1260010D03*
G01*
X3330000Y1360010D03*
G01*
X3430000Y1260010D03*
G01*
X3430000Y1360010D03*
G01*
X3530000Y1260010D03*
G01*
X3530000Y1360010D03*
D21*
G01*
X3935000Y1650000D03*
G01*
X3935000Y2050000D03*
G01*
X3935000Y1165000D03*
G01*
X3935000Y1565000D03*
G01*
X920000Y225000D03*
G01*
X420000Y425000D03*
G01*
X420000Y525000D03*
G01*
X420000Y625000D03*
G01*
X420000Y825000D03*
G01*
X420000Y725000D03*
G01*
X920000Y825000D03*
G01*
X920000Y725000D03*
G01*
X920000Y1025000D03*
G01*
X920000Y925000D03*
G01*
X920000Y525000D03*
G01*
X920000Y625000D03*
G01*
X920000Y325000D03*
D22*
G01*
X920000Y425000D03*
D21*
G01*
X1880000Y1035000D03*
G01*
X1380000Y1235000D03*
G01*
X1380000Y1335000D03*
G01*
X1380000Y1435000D03*
G01*
X1380000Y1635000D03*
G01*
X1380000Y1535000D03*
G01*
X1880000Y1635000D03*
G01*
X1880000Y1535000D03*
G01*
X1880000Y1835000D03*
G01*
X1880000Y1735000D03*
G01*
X1880000Y1335000D03*
G01*
X1880000Y1435000D03*
G01*
X1880000Y1135000D03*
D22*
G01*
X1880000Y1235000D03*
D16*
G01*
X1115000Y365000D03*
D21*
G01*
X1215000Y365000D03*
D23*
G01*
X1315000Y365000D03*
D21*
G01*
X1415000Y365000D03*
G01*
X1515000Y365000D03*
G01*
X1615000Y365000D03*
G01*
X1715000Y365000D03*
G01*
X1815000Y365000D03*
D24*
G01*
X490000Y1240000D03*
D25*
G01*
X590000Y1240000D03*
D23*
G01*
X690000Y1240000D03*
D25*
G01*
X790000Y1240000D03*
G01*
X890000Y1240000D03*
G01*
X990000Y1240000D03*
G01*
X1090000Y1240000D03*
G01*
X1190000Y1240000D03*
D26*
G01*
X2310000Y1457050D03*
D27*
G01*
X2310000Y1712950D03*
D10*
G01*
X3800000Y800000D03*
G01*
X3700000Y800000D03*
G01*
X3800000Y900000D03*
G01*
X3700000Y900000D03*
G01*
X3800000Y1000000D03*
G01*
X3700000Y1000000D03*
G01*
X3800000Y1100000D03*
G01*
X3700000Y1100000D03*
G01*
X3800000Y1200000D03*
G01*
X3700000Y1200000D03*
G01*
X3800000Y1300000D03*
G01*
X3700000Y1300000D03*
G01*
X3800000Y1400000D03*
G01*
X3700000Y1400000D03*
G01*
X3800000Y1500000D03*
G01*
X3700000Y1500000D03*
G01*
X3800000Y1600000D03*
G01*
X3700000Y1600000D03*
G01*
X3800000Y1700000D03*
D14*
G01*
X3700000Y1700000D03*
D11*
G01*
X3800000Y300000D03*
G01*
X3700000Y300000D03*
D28*
G01*
X2710000Y1525000D03*
G01*
X2610000Y1525000D03*
D21*
G01*
X3080000Y1325000D03*
G01*
X2780000Y1325000D03*
D28*
G01*
X2640000Y1310000D03*
G01*
X2540000Y1310000D03*
D21*
G01*
X3080000Y1230000D03*
G01*
X2780000Y1230000D03*
D29*
G01*
X3435950Y262399D03*
G01*
X3554059Y262399D03*
G01*
X3495000Y187600D03*
D21*
G01*
X3065000Y1420000D03*
G01*
X3065000Y1720000D03*
G01*
X2960000Y1420000D03*
G01*
X2960000Y1720000D03*
G01*
X2050000Y1230000D03*
G01*
X2350000Y1230000D03*
D10*
G01*
X260000Y2025000D03*
G01*
X160000Y2025000D03*
D13*
G01*
X60000Y2025000D03*
D10*
G01*
X260000Y1925000D03*
G01*
X160000Y1925000D03*
D13*
G01*
X60000Y1925000D03*
D10*
G01*
X260000Y1825000D03*
G01*
X160000Y1825000D03*
D13*
G01*
X60000Y1825000D03*
D10*
G01*
X260000Y1160000D03*
G01*
X160000Y1160000D03*
D13*
G01*
X60000Y1160000D03*
D10*
G01*
X260000Y1060000D03*
G01*
X160000Y1060000D03*
D13*
G01*
X60000Y1060000D03*
D10*
G01*
X260000Y960000D03*
G01*
X160000Y960000D03*
D13*
G01*
X60000Y960000D03*
D10*
G01*
X260000Y860000D03*
G01*
X160000Y860000D03*
D13*
G01*
X60000Y860000D03*
D10*
G01*
X260000Y760000D03*
G01*
X160000Y760000D03*
D13*
G01*
X60000Y760000D03*
D10*
G01*
X260000Y660000D03*
G01*
X160000Y660000D03*
D13*
G01*
X60000Y660000D03*
D10*
G01*
X260000Y560000D03*
G01*
X160000Y560000D03*
D13*
G01*
X60000Y560000D03*
D30*
G01*
X2803689Y1755000D03*
G01*
X2724989Y1755000D03*
G01*
X2646310Y1755000D03*
D31*
G01*
X2563609Y1755000D03*
G01*
X2886400Y1755000D03*
D28*
G01*
X360000Y1950000D03*
G01*
X360000Y2050000D03*
G01*
X460000Y1950000D03*
G01*
X460000Y2050000D03*
D10*
G01*
X1300000Y100000D03*
G01*
X1200000Y100000D03*
G01*
X1100000Y100000D03*
D24*
G01*
X3800000Y2000000D03*
G01*
X3800000Y1900000D03*
G01*
X3800000Y1800000D03*
G01*
X3800000Y1700000D03*
G01*
X3800000Y1600000D03*
G01*
X3800000Y1500000D03*
G01*
X3800000Y1400000D03*
G01*
X3800000Y1300000D03*
G01*
X3800000Y1200000D03*
G01*
X3800000Y1100000D03*
G01*
X3800000Y1000000D03*
G01*
X3800000Y900000D03*
G01*
X3800000Y800000D03*
G01*
X3800000Y700000D03*
G01*
X3800000Y600000D03*
G01*
X3800000Y500000D03*
G01*
X3800000Y400000D03*
G01*
X3800000Y300000D03*
G01*
X3700000Y300000D03*
G01*
X3700000Y400000D03*
G01*
X3700000Y500000D03*
G01*
X3700000Y600000D03*
G01*
X3700000Y700000D03*
G01*
X3700000Y800000D03*
G01*
X3700000Y900000D03*
G01*
X3700000Y1000000D03*
G01*
X3700000Y1100000D03*
G01*
X3700000Y1200000D03*
G01*
X3700000Y1300000D03*
G01*
X3700000Y1400000D03*
G01*
X3700000Y1500000D03*
G01*
X3700000Y1600000D03*
G01*
X3700000Y1700000D03*
G01*
X3700000Y1800000D03*
G01*
X3700000Y1900000D03*
G01*
X3700000Y2000000D03*
G01*
X3500000Y100000D03*
G01*
X3600000Y100000D03*
G01*
X2500000Y1000000D03*
G01*
X2500000Y1100000D03*
G01*
X2500000Y1200000D03*
G01*
X2600000Y1000000D03*
G01*
X2600000Y1100000D03*
G01*
X2600000Y1200000D03*
G01*
X1100000Y100000D03*
G01*
X1200000Y100000D03*
G01*
X1300000Y100000D03*
G01*
X1400000Y100000D03*
G01*
X1500000Y100000D03*
G01*
X1600000Y100000D03*
G01*
X1700000Y100000D03*
G01*
X1800000Y100000D03*
G01*
X2000000Y100000D03*
G01*
X2100000Y100000D03*
G01*
X2200000Y100000D03*
G01*
X2300000Y100000D03*
G01*
X2400000Y100000D03*
G01*
X2500000Y100000D03*
G01*
X2600000Y100000D03*
G01*
X2700000Y100000D03*
G01*
X2900000Y100000D03*
G01*
X3000000Y100000D03*
G01*
X3100000Y100000D03*
G01*
X3200000Y100000D03*
G01*
X3300000Y100000D03*
G01*
X3400000Y100000D03*
G01*
X3400000Y2000000D03*
G01*
X3300000Y2000000D03*
G01*
X3200000Y2000000D03*
G01*
X3100000Y2000000D03*
G01*
X3000000Y2000000D03*
G01*
X2900000Y2000000D03*
G01*
X2800000Y2000000D03*
G01*
X2700000Y2000000D03*
G01*
X2500000Y2000000D03*
G01*
X2400000Y2000000D03*
G01*
X2300000Y2000000D03*
G01*
X2200000Y2000000D03*
G01*
X2100000Y2000000D03*
G01*
X2000000Y2000000D03*
G01*
X1900000Y2000000D03*
G01*
X1800000Y2000000D03*
G01*
X1650000Y2000000D03*
G01*
X1550000Y2000000D03*
G01*
X1450000Y2000000D03*
G01*
X1350000Y2000000D03*
G01*
X1250000Y2000000D03*
G01*
X1150000Y2000000D03*
G01*
X1050000Y2000000D03*
G01*
X950000Y2000000D03*
G01*
X850000Y2000000D03*
G01*
X750000Y2000000D03*
G01*
X850000Y1800000D03*
G01*
X750000Y1800000D03*
G01*
X650000Y1800000D03*
G01*
X850000Y1900000D03*
G01*
X750000Y1900000D03*
G01*
X650000Y1900000D03*
M02*
