M48
INCH,LZ
;FILE_FORMAT=2:4
;TYPE=PLATED
;Layer: PTH_Through
;EasyEDA v6.5.23, 2023-04-11 13:10:04
;4efd93ceb8f34c36969e8f1cf74d4a79,5f8968b253fc4aed9fc2cb8881c97923,10
;Gerber Generator version 0.2
;Holesize 1 = 0.0280 inch
T01C0.0280
;Holesize 2 = 0.0350 inch
T02C0.0350
;Holesize 3 = 0.0350 inch
T03C0.0350
;Holesize 4 = 0.0350 inch
T04C0.0350
;Holesize 5 = 0.0360 inch
T05C0.0360
;Holesize 6 = 0.0430 inch
T06C0.0430
%
G05
G90
T01
X039279Y015354
X038279Y015354
T02
X022441Y003543
X033465Y018504
X029134Y000591
X006496Y020472
X019882Y018504
X025000Y018504
X005512Y020472
X014567Y003543
X004528Y020472
X019685Y003543
X006768Y004528
X007768Y004528
X008768Y004528
X009768Y004528
X013402Y018504
X012402Y018504
X026394Y003543
X025394Y003543
X029512Y018504
X030512Y018504
X016626Y003543
X017626Y003543
X022941Y018504
X021941Y018504
X039279Y011295
X038279Y011295
X039279Y012295
X038279Y012295
X039279Y013295
X038279Y013295
X039279Y014295
X038279Y014295
X006118Y017520
X005118Y017520
X004118Y017520
X006118Y016535
X005118Y016535
X004118Y016535
X006118Y015551
X005118Y015551
X004118Y015551
X006118Y014567
X005118Y014567
X004118Y014567
X006118Y013583
X005118Y013583
X004118Y013583
X006118Y010039
X005118Y010039
X004118Y010039
X006118Y009055
X005118Y009055
X004118Y009055
X006118Y008071
X005118Y008071
X004118Y008071
X006118Y007087
X005118Y007087
X004118Y007087
X006118Y006102
X005118Y006102
X004118Y006102
X031161Y000591
X032161Y000591
X033161Y000591
X034161Y000591
X035161Y000591
X036161Y000591
X039370Y005587
X039370Y006587
X039370Y007587
X039370Y008587
X012400Y020000
X013400Y020000
X014400Y020000
X015400Y020000
X016400Y020000
X022000Y001000
X016000Y001000
X015000Y001000
X014000Y001000
X018000Y020000
X019000Y020000
X020000Y020000
X021000Y020000
X022000Y020000
X023000Y020000
X032000Y020000
X031000Y020000
X033000Y020000
X034000Y020000
X037000Y005000
X037000Y004000
X038000Y005000
X038000Y004000
T03
X017126Y014339
X017126Y018339
X015157Y014339
X015157Y018339
T04
X007283Y002468
X007283Y001468
X009252Y001468
X009252Y002468
T05
X011402Y018504
X024394Y003543
X031512Y018504
T06
X037000Y018000
X037000Y019000
X037000Y006000
X037000Y007000
M30
