G04 Layer: TopLayer*
G04 EasyEDA v6.5.23, 2023-04-11 13:10:04*
G04 4efd93ceb8f34c36969e8f1cf74d4a79,5f8968b253fc4aed9fc2cb8881c97923,10*
G04 Gerber Generator version 0.2*
G04 Scale: 100 percent, Rotated: No, Reflected: No *
G04 Dimensions in inches *
G04 leading zeros omitted , absolute positions ,3 integer and 6 decimal *
%FSLAX36Y36*%
%MOIN*%

%AMMACRO1*21,1,$1,$2,0,0,$3*%
%ADD10C,0.0100*%
%ADD11R,0.0620X0.0620*%
%ADD12C,0.0470*%
%ADD13C,0.0620*%
%ADD14C,0.0551*%
%ADD15C,0.0740*%
%ADD16MACRO1,0.062X0.062X0.0000*%
%ADD17MACRO1,0.062X0.062X-90.0000*%
%ADD18MACRO1,0.0669X0.062X90.0000*%
%ADD19C,0.0669*%
%ADD20C,0.0240*%
%ADD21C,0.0177*%

%LPD*%
D10*
X3800000Y499998D02*
G01*
X3800000Y875239D01*
X3967030Y1042269D01*
X3967030Y1190439D01*
X3927950Y1229519D01*
X3827950Y1329519D02*
G01*
X3679759Y1329519D01*
X1381180Y1850389D02*
G01*
X1608339Y1623229D01*
X2163379Y1623229D01*
X1340150Y1850389D02*
G01*
X1381180Y1850389D01*
X3151180Y1850389D02*
G01*
X3375389Y1626179D01*
X3837190Y1626179D01*
X3927950Y1535419D01*
X876769Y452748D02*
G01*
X932920Y396599D01*
X1804859Y396599D01*
X1804859Y396588D01*
X1804859Y396588D02*
G01*
X1762600Y354328D01*
X1140159Y1850389D02*
G01*
X1181229Y1891458D01*
X2153019Y1891458D01*
X2194089Y1850389D01*
X2439369Y354328D02*
G01*
X2439369Y396588D01*
X1804859Y396588D02*
G01*
X2439369Y396588D01*
X2439369Y396588D02*
G01*
X2778599Y396588D01*
X3116139Y59048D01*
X846769Y1670788D02*
G01*
X875249Y1670788D01*
X1112950Y1908488D01*
X1507470Y1908488D01*
X1598980Y1999998D01*
X1640000Y1999998D02*
G01*
X1598980Y1999998D01*
X511819Y1653539D02*
G01*
X561030Y1702748D01*
X871700Y1702748D01*
X1103680Y1934729D01*
X1374729Y1934729D01*
X1440000Y1999998D01*
X511819Y1751959D02*
G01*
X709619Y1949758D01*
X1289759Y1949758D01*
X1340000Y1999998D01*
X592199Y2047238D02*
G01*
X592199Y2026729D01*
X618930Y1999998D01*
X1240000Y1999998D01*
X551179Y2047238D02*
G01*
X592199Y2047238D01*
X2110420Y1820788D02*
G01*
X2080820Y1850389D01*
X1988190Y1850389D01*
X611819Y610228D02*
G01*
X611819Y708658D01*
X611819Y708658D02*
G01*
X611819Y807078D01*
X611819Y807078D02*
G01*
X611819Y905509D01*
X611819Y1358258D02*
G01*
X611819Y1456689D01*
X611819Y1456689D02*
G01*
X611819Y1555109D01*
X611819Y1555109D02*
G01*
X611819Y1653539D01*
X1515749Y1433859D02*
G01*
X1679520Y1597629D01*
X2859290Y1597629D01*
X3101189Y1839529D01*
X3101189Y1857948D01*
X3202219Y1958978D01*
X3317960Y1958978D01*
X3358980Y1999998D01*
X3400000Y1999998D02*
G01*
X3358980Y1999998D01*
X3827950Y1229519D02*
G01*
X3760919Y1162489D01*
X3760919Y460918D01*
X3700000Y399998D01*
X3700000Y541019D02*
G01*
X3720510Y541019D01*
X3742809Y563319D01*
X3742809Y1200129D01*
X3813829Y1271149D01*
X3841920Y1271149D01*
X3886930Y1226138D01*
X3886930Y1129519D01*
X3700000Y499998D02*
G01*
X3700000Y541019D01*
X3927950Y1129519D02*
G01*
X3886930Y1129519D01*
X2335110Y1850389D02*
G01*
X2374200Y1889479D01*
X3012089Y1889479D01*
X3051180Y1850389D01*
X2294089Y1850389D02*
G01*
X2335110Y1850389D01*
X1703620Y354328D02*
G01*
X1745320Y312629D01*
X2497669Y312629D01*
X2539369Y354328D01*
X1662600Y354328D02*
G01*
X1703620Y354328D01*
X1595829Y1919578D02*
G01*
X2265919Y1919578D01*
X2335110Y1850389D01*
X2500000Y1850389D02*
G01*
X2458980Y1850389D01*
X2951180Y1850389D02*
G01*
X2500000Y1850389D01*
X2598350Y354328D02*
G01*
X2542370Y298348D01*
X1553689Y298348D01*
X1497709Y354328D01*
X2639369Y354328D02*
G01*
X2598350Y354328D01*
X1456689Y354328D02*
G01*
X1497709Y354328D01*
X1712600Y1833859D02*
G01*
X1745739Y1800718D01*
X2409309Y1800718D01*
X2458980Y1850389D01*
X411819Y610228D02*
G01*
X452840Y610228D01*
X976769Y452748D02*
G01*
X860299Y569218D01*
X493850Y569218D01*
X452840Y610228D01*
X2872359Y59059D02*
G01*
X2783519Y147899D01*
X1500000Y147899D01*
X2913379Y59059D02*
G01*
X2872359Y59059D01*
X3668230Y1374538D02*
G01*
X3772969Y1374538D01*
X3827950Y1429519D01*
D11*
G01*
X2244089Y354329D03*
G01*
X3346450Y1850390D03*
G01*
X2913379Y59054D03*
G01*
X649605Y2047240D03*
G01*
X1988185Y1850390D03*
G01*
X2499994Y1850390D03*
G01*
X551179Y2047240D03*
G01*
X1456689Y354329D03*
G01*
X452755Y2047240D03*
G01*
X1968500Y354329D03*
D12*
G01*
X3927950Y1535419D03*
G01*
X3827950Y1535419D03*
D11*
G01*
X676770Y452750D03*
D13*
G01*
X776769Y452750D03*
G01*
X876769Y452750D03*
G01*
X976769Y452750D03*
D11*
G01*
X1340150Y1850390D03*
D13*
G01*
X1240159Y1850390D03*
G01*
X1140159Y1850390D03*
D11*
G01*
X2639364Y354324D03*
D13*
G01*
X2539364Y354324D03*
G01*
X2439364Y354324D03*
D11*
G01*
X2951180Y1850385D03*
D13*
G01*
X3051180Y1850385D03*
G01*
X3151180Y1850385D03*
D11*
G01*
X1662595Y354324D03*
D13*
G01*
X1762595Y354324D03*
D11*
G01*
X2294089Y1850390D03*
D13*
G01*
X2194089Y1850390D03*
D11*
G01*
X3927950Y1129520D03*
D13*
G01*
X3827950Y1129520D03*
G01*
X3927950Y1229520D03*
G01*
X3827950Y1229520D03*
G01*
X3927950Y1329520D03*
G01*
X3827950Y1329520D03*
G01*
X3927950Y1429520D03*
G01*
X3827950Y1429520D03*
G01*
X611815Y1751954D03*
G01*
X511815Y1751954D03*
D11*
G01*
X411815Y1751965D03*
D13*
G01*
X611815Y1653535D03*
G01*
X511815Y1653535D03*
D11*
G01*
X411815Y1653535D03*
D13*
G01*
X611815Y1555104D03*
G01*
X511815Y1555104D03*
D11*
G01*
X411815Y1555115D03*
D13*
G01*
X611815Y1456685D03*
G01*
X511815Y1456685D03*
D11*
G01*
X411815Y1456685D03*
D13*
G01*
X611815Y1358254D03*
G01*
X511815Y1358254D03*
D11*
G01*
X411815Y1358265D03*
D13*
G01*
X611815Y1003930D03*
G01*
X511815Y1003930D03*
D11*
G01*
X411815Y1003930D03*
D13*
G01*
X611815Y905509D03*
G01*
X511815Y905509D03*
D11*
G01*
X411815Y905509D03*
D13*
G01*
X611815Y807080D03*
G01*
X511815Y807080D03*
D11*
G01*
X411815Y807089D03*
D13*
G01*
X611815Y708659D03*
G01*
X511815Y708659D03*
D11*
G01*
X411815Y708659D03*
D13*
G01*
X611815Y610230D03*
G01*
X511815Y610230D03*
D11*
G01*
X411815Y610230D03*
D13*
G01*
X3116139Y59050D03*
G01*
X3216139Y59050D03*
G01*
X3316139Y59050D03*
G01*
X3416139Y59050D03*
G01*
X3516139Y59050D03*
D11*
G01*
X3616130Y59050D03*
G01*
X3936999Y558659D03*
D13*
G01*
X3936999Y658659D03*
G01*
X3936999Y758659D03*
G01*
X3936999Y858659D03*
D14*
G01*
X728344Y246844D03*
G01*
X728344Y146844D03*
G01*
X925185Y146860D03*
G01*
X925185Y246860D03*
D15*
G01*
X1712595Y1433854D03*
G01*
X1712595Y1833854D03*
G01*
X1515744Y1433854D03*
G01*
X1515744Y1833854D03*
D13*
G01*
X1240000Y2000000D03*
G01*
X1340000Y2000000D03*
G01*
X1440000Y2000000D03*
G01*
X1540000Y2000000D03*
D16*
G01*
X1640000Y2000000D03*
D17*
G01*
X2200000Y100000D03*
D13*
G01*
X1600000Y100000D03*
G01*
X1500000Y100000D03*
D16*
G01*
X1400000Y100000D03*
D13*
G01*
X1800000Y2000000D03*
G01*
X1900000Y2000000D03*
G01*
X2000000Y2000000D03*
G01*
X2100000Y2000000D03*
G01*
X2200000Y2000000D03*
D16*
G01*
X2300000Y2000000D03*
D13*
G01*
X3200000Y2000000D03*
G01*
X3100000Y2000000D03*
G01*
X3300000Y2000000D03*
D16*
G01*
X3400000Y2000000D03*
G01*
X3700000Y500000D03*
D13*
G01*
X3700000Y400000D03*
G01*
X3800000Y500000D03*
G01*
X3800000Y400000D03*
D18*
G01*
X3700000Y1800000D03*
D19*
G01*
X3700000Y1900000D03*
D18*
G01*
X3700000Y600000D03*
D19*
G01*
X3700000Y700000D03*
D20*
G01*
X3668230Y1374538D03*
G01*
X1500000Y147899D03*
G01*
X1595829Y1919578D03*
G01*
X2110420Y1820788D03*
G01*
X846769Y1670788D03*
G01*
X2163379Y1623229D03*
G01*
X3679759Y1329519D03*
M02*
