G04 Layer: BottomSolderMaskLayer*
G04 EasyEDA v6.5.23, 2023-04-11 13:10:04*
G04 4efd93ceb8f34c36969e8f1cf74d4a79,5f8968b253fc4aed9fc2cb8881c97923,10*
G04 Gerber Generator version 0.2*
G04 Scale: 100 percent, Rotated: No, Reflected: No *
G04 Dimensions in inches *
G04 leading zeros omitted , absolute positions ,3 integer and 6 decimal *
%FSLAX36Y36*%
%MOIN*%

%AMMACRO1*1,1,$1,$2,$3*1,1,$1,$4,$5*1,1,$1,0-$2,0-$3*1,1,$1,0-$4,0-$5*20,1,$1,$2,$3,$4,$5,0*20,1,$1,$4,$5,0-$2,0-$3,0*20,1,$1,0-$2,0-$3,0-$4,0-$5,0*20,1,$1,0-$4,0-$5,$2,$3,0*4,1,4,$2,$3,$4,$5,0-$2,0-$3,0-$4,0-$5,$2,$3,0*%
%ADD10MACRO1,0.004X0.031X0.031X0.031X-0.031*%
%ADD11C,0.0510*%
%ADD12MACRO1,0.004X-0.031X0.031X0.031X0.031*%
%ADD13C,0.0660*%
%ADD14MACRO1,0.004X0.031X-0.031X-0.031X-0.031*%
%ADD15MACRO1,0.004X-0.031X-0.031X-0.031X0.031*%
%ADD16C,0.0591*%
%ADD17C,0.0780*%
%ADD18MACRO1,0.004X0.031X0.031X-0.031X0.031*%
%ADD19R,0.0660X0.0660*%
%ADD20MACRO1,0.004X-0.031X-0.031X0.031X-0.031*%
%ADD21MACRO1,0.004X0.031X-0.0335X0.031X0.0335*%
%ADD22C,0.0709*%

%LPD*%
D10*
G01*
X2244090Y354329D03*
G01*
X3346450Y1850389D03*
G01*
X2913380Y59055D03*
G01*
X649604Y2047239D03*
G01*
X1988184Y1850389D03*
G01*
X2499995Y1850389D03*
G01*
X551179Y2047239D03*
G01*
X1456690Y354329D03*
G01*
X452754Y2047239D03*
G01*
X1968499Y354329D03*
D11*
G01*
X3927950Y1535419D03*
G01*
X3827950Y1535419D03*
D12*
G01*
X676770Y452754D03*
D13*
G01*
X776769Y452750D03*
G01*
X876769Y452750D03*
G01*
X976769Y452750D03*
D14*
G01*
X1340154Y1850389D03*
D13*
G01*
X1240159Y1850390D03*
G01*
X1140159Y1850390D03*
D14*
G01*
X2639365Y354329D03*
D13*
G01*
X2539364Y354324D03*
G01*
X2439364Y354324D03*
D12*
G01*
X2951174Y1850389D03*
D13*
G01*
X3051180Y1850385D03*
G01*
X3151180Y1850385D03*
D10*
G01*
X1662594Y354329D03*
D13*
G01*
X1762595Y354324D03*
D15*
G01*
X2294090Y1850389D03*
D13*
G01*
X2194089Y1850390D03*
D15*
G01*
X3927944Y1129524D03*
D13*
G01*
X3827950Y1129520D03*
G01*
X3927950Y1229520D03*
G01*
X3827950Y1229520D03*
G01*
X3927950Y1329520D03*
G01*
X3827950Y1329520D03*
G01*
X3927950Y1429520D03*
G01*
X3827950Y1429520D03*
G01*
X611815Y1751954D03*
G01*
X511815Y1751954D03*
D12*
G01*
X411810Y1751965D03*
D13*
G01*
X611815Y1653535D03*
G01*
X511815Y1653535D03*
D12*
G01*
X411810Y1653540D03*
D13*
G01*
X611815Y1555104D03*
G01*
X511815Y1555104D03*
D12*
G01*
X411810Y1555115D03*
D13*
G01*
X611815Y1456685D03*
G01*
X511815Y1456685D03*
D12*
G01*
X411810Y1456689D03*
D13*
G01*
X611815Y1358254D03*
G01*
X511815Y1358254D03*
D12*
G01*
X411810Y1358265D03*
D13*
G01*
X611815Y1003930D03*
G01*
X511815Y1003930D03*
D12*
G01*
X411810Y1003935D03*
D13*
G01*
X611815Y905509D03*
G01*
X511815Y905509D03*
D12*
G01*
X411810Y905509D03*
D13*
G01*
X611815Y807080D03*
G01*
X511815Y807080D03*
D12*
G01*
X411810Y807084D03*
D13*
G01*
X611815Y708659D03*
G01*
X511815Y708659D03*
D12*
G01*
X411810Y708659D03*
D13*
G01*
X611815Y610230D03*
G01*
X511815Y610230D03*
D12*
G01*
X411810Y610235D03*
D13*
G01*
X3116139Y59050D03*
G01*
X3216139Y59050D03*
G01*
X3316139Y59050D03*
G01*
X3416139Y59050D03*
G01*
X3516139Y59050D03*
D14*
G01*
X3616134Y59055D03*
D15*
G01*
X3937000Y558659D03*
D13*
G01*
X3936999Y658659D03*
G01*
X3936999Y758659D03*
G01*
X3936999Y858659D03*
D16*
G01*
X728344Y246844D03*
G01*
X728344Y146844D03*
G01*
X925185Y146860D03*
G01*
X925185Y246860D03*
D17*
G01*
X1712595Y1433854D03*
G01*
X1712595Y1833854D03*
G01*
X1515744Y1433854D03*
G01*
X1515744Y1833854D03*
D13*
G01*
X1240000Y2000000D03*
G01*
X1340000Y2000000D03*
G01*
X1440000Y2000000D03*
G01*
X1540000Y2000000D03*
D18*
G01*
X1640000Y2000000D03*
D19*
G01*
X2200000Y100000D03*
D13*
G01*
X1600000Y100000D03*
G01*
X1500000Y100000D03*
D20*
G01*
X1400000Y100000D03*
D13*
G01*
X1800000Y2000000D03*
G01*
X1900000Y2000000D03*
G01*
X2000000Y2000000D03*
G01*
X2100000Y2000000D03*
G01*
X2200000Y2000000D03*
D18*
G01*
X2300000Y2000000D03*
D13*
G01*
X3200000Y2000000D03*
G01*
X3100000Y2000000D03*
G01*
X3300000Y2000000D03*
D18*
G01*
X3400000Y2000000D03*
D20*
G01*
X3700000Y500000D03*
D13*
G01*
X3700000Y400000D03*
G01*
X3800000Y500000D03*
G01*
X3800000Y400000D03*
D21*
G01*
X3700000Y1800000D03*
D22*
G01*
X3700000Y1900000D03*
D21*
G01*
X3700000Y600000D03*
D22*
G01*
X3700000Y700000D03*
M02*
